<svg enable-background="new 0 0 512 512" height="512" viewBox="0 0 512 512" width="512" xmlns="http://www.w3.org/2000/svg">
    <g>
        <path d="m256 0c-107.52 0-195 88.48-195 196 0 82.119 50.171 124.204 98.687 164.897 35.61 29.868 69.258 59.096 81.914 102.235l14.399 48.868 14.399-48.867c12.656-43.14 46.304-72.367 81.914-102.235 48.516-40.694 98.687-82.779 98.687-164.898 0-107.52-87.48-196-195-196z" fill="#ff884d" />
        <path d="m352.313 360.897c48.516-40.693 98.687-82.778 98.687-164.897 0-107.52-87.48-196-195-196v512l14.399-48.867c12.657-43.14 46.304-72.367 81.914-102.236z" fill="#ff4d4d" />
        <g>
            <path d="m376.298 136-69.088-30-51.21 13.815-72.041 19.437-51.248 111.248c21.006 47.316 68.268 80.5 123.289 80.5 10.219 0 20.087-1.357 29.661-3.519l85.518-62.058c12.316-20.354 19.821-43.944 19.821-69.423 0-21.654-5.601-41.843-14.702-60z" fill="#4da6ff" />
            <path d="m371.179 265.423c12.316-20.354 19.821-43.944 19.821-69.423 0-21.654-5.601-41.843-14.702-60l-69.088-30-51.21 13.815v211.185c10.219 0 20.087-1.357 29.661-3.519z" fill="#37f" />
            <path d="m252.631 263.764 33.03 63.717c36.304-8.196 66.788-31.104 85.518-62.058l-77.166-43.041z" fill="#59c36a" />
            <g>
                <path d="m226 174.789 30 30v-38.789h-30z" fill="none" />
                <path d="m256 61c-74.443 0-135 60.557-135 135 0 13.248 3.719 36.497 11.711 54.5l21.248-21.248 60 30 48.252-48.252-36.211-36.211v-8.789h30 21.211l30-30h69.088c-22.566-45.033-68.711-75-120.299-75z" fill="#97de3d" />
                <path d="m277.211 166 30-30h69.088c-22.566-45.033-68.711-75-120.299-75v105z" fill="#59c36a" />
            </g>
        </g>
    </g>
</svg>