<?xml version="1.0" encoding="utf-8"?>
<!-- Generator: Adobe Illustrator 24.1.3, SVG Export Plug-In . SVG Version: 6.00 Build 0)  -->
<svg version="1.1" id="Layer_1" xmlns="http://www.w3.org/2000/svg" xmlns:xlink="http://www.w3.org/1999/xlink" x="0px" y="0px"
	 width="512px" height="512px" viewBox="0 0 512 512" enable-background="new 0 0 512 512" xml:space="preserve">
<g>
	<path fill="#525A7E" d="M485.7,55.9L477,52l4-8.8c1-2.2,0-4.8-2.2-5.8s-4.8,0-5.8,2.2l-4,8.8l-8.9-4c-2.2-1-4.8,0-5.8,2.2
		s0,4.8,2.2,5.8l8.9,4l-4,8.8c-1,2.2,0,4.8,2.2,5.8s4.8,0,5.8-2.2l4-8.8l8.7,3.9c2.2,1,4.8,0,5.8-2.2
		C488.9,59.5,487.9,56.9,485.7,55.9z"/>
	<path fill="#525A7E" d="M464.2,488.4l-2.5-1.4l1.4-2.5c0.3-0.6,0.1-1.4-0.5-1.8s-1.4-0.1-1.8,0.5l-1.4,2.5l-2.5-1.4
		c-0.6-0.3-1.4-0.1-1.8,0.5c-0.3,0.6-0.1,1.4,0.5,1.8l2.5,1.4l-1.4,2.5c-0.3,0.6-0.1,1.4,0.5,1.8s1.4,0.1,1.8-0.5l1.4-2.5l2.5,1.4
		c0.6,0.4,1.4,0.1,1.8-0.5C465,489.6,464.8,488.8,464.2,488.4z"/>
	<path fill="#525A7E" d="M247.8,12.5l-3.4-1.9l1.9-3.4c0.5-0.8,0.2-1.9-0.7-2.4s-1.9-0.2-2.4,0.7l-1.9,3.4L237.9,7
		c-0.8-0.5-1.9-0.2-2.4,0.7s-0.2,1.9,0.7,2.4l3.4,1.9l-1.9,3.4c-0.5,0.8-0.2,1.9,0.7,2.4c0.8,0.5,1.9,0.2,2.4-0.7l1.9-3.4l3.4,1.9
		c0.9,0.5,1.9,0.2,2.4-0.7C248.9,14.1,248.6,13,247.8,12.5z"/>
	<path fill="#525A7E" d="M248.8,466.9c-11.1,0-20.2,9.1-20.2,20.2s9.1,20.2,20.2,20.2s20.2-9.1,20.2-20.2S260,466.9,248.8,466.9z
		 M248.8,498.4c-6.2,0-11.2-5-11.2-11.2s5-11.2,11.2-11.2s11.2,5,11.2,11.2C260.1,493.4,255,498.4,248.8,498.4z"/>
	<path fill="#525A7E" d="M12.1,47.3C5.4,47.3,0,52.7,0,59.4s5.4,12.1,12.1,12.1s12-5.5,12-12.1S18.7,47.3,12.1,47.3z M12.1,66.1
		c-3.7,0-6.7-3-6.7-6.7s3-6.7,6.7-6.7s6.7,3,6.7,6.7S15.8,66.1,12.1,66.1z"/>
	<path fill="#525A7E" d="M49.7,445.5c-3.7,0-6.7,3-6.7,6.7s3,6.7,6.7,6.7s6.7-3,6.7-6.7C56.5,448.5,53.4,445.5,49.7,445.5z
		 M49.7,455.9c-2.1,0-3.7-1.7-3.7-3.7s1.7-3.7,3.7-3.7c2.1,0,3.7,1.7,3.7,3.7S51.8,455.9,49.7,455.9z"/>
	<g>
		<g>
			<path fill="#EAEDF7" d="M431.1,410.8L64.5,362.7c-8.1-1.1-13.8-8.5-12.7-16.6l27.9-212.6c1.1-8.1,8.5-13.8,16.6-12.7l366.5,48.1
				c8.1,1.1,13.8,8.5,12.7,16.6l-27.9,212.6C446.6,406.2,439.2,411.9,431.1,410.8z"/>
			<path fill="#FFFFFF" d="M414.7,384.1L51,335.5l28.8-201.9c1.1-8.1,8.5-13.8,16.6-12.7l356.4,47.7L423,377.8
				C422.5,381.8,418.8,384.7,414.7,384.1z"/>
			<path fill="#525A7E" d="M430.3,416.3L63.8,368.2c-11.1-1.5-19-11.7-17.5-22.8l27.9-212.6c1.5-11.1,11.7-19,22.8-17.5l366.5,48.1
				c11.1,1.5,19,11.7,17.5,22.8l-27.9,212.6C451.7,409.9,441.5,417.8,430.3,416.3z M95.6,126.3c-5.1-0.7-9.7,2.9-10.4,8L57.3,346.8
				c-0.7,5.1,2.9,9.7,8,10.4l366.5,48.1c5.1,0.7,9.7-2.9,10.4-8l27.9-212.6c0.7-5.1-2.9-9.7-8-10.4L95.6,126.3z"/>
			<path fill="#A6CFEC" d="M184.5,244.2l-66-8.7c-4-0.5-6.9-4.2-6.4-8.3l5.8-44c0.5-4,4.2-6.9,8.3-6.4l66,8.7
				c4.1,0.5,6.9,4.2,6.4,8.3l-5.8,44C192.3,241.9,188.5,244.8,184.5,244.2z"/>
			<path fill="#FFFFFF" d="M169.8,242.3l-51.3-6.7c-4-0.5-6.9-4.2-6.4-8.3L116,198l51.3,6.7c4.1,0.5,6.9,4.2,6.4,8.3L169.8,242.3z"
				/>
			<path fill="#2A5386" d="M183.8,249.7l-66-8.7c-7.1-0.9-12.1-7.4-11.1-14.5l5.8-44c0.9-7.1,7.4-12.1,14.5-11.1l66,8.7
				c7.1,0.9,12.1,7.4,11.1,14.5l-5.8,44C197.4,245.7,190.9,250.7,183.8,249.7z M125.5,182.4c-1-0.1-1.9,0.6-2.1,1.6l-5.8,44
				c-0.1,1,0.6,1.9,1.6,2.1l66,8.7c1,0.1,1.9-0.6,2.1-1.6l5.8-44c0.1-1-0.6-1.9-1.6-2.1L125.5,182.4z"/>
			<path fill="#2A5386" d="M104.7,284.1c-1.5-0.2-2.8-1-3.7-2.1c-0.9-1.2-1.3-2.6-1.1-4.1c0.2-1.5,1-2.8,2.1-3.7
				c2.3-1.8,5.9-1.3,7.8,1c0.9,1.2,1.3,2.6,1.1,4.1c-0.2,1.5-1,2.8-2.1,3.7C107.6,283.9,106.1,284.3,104.7,284.1z"/>
			<path fill="#2A5386" d="M125.2,281.2c0.4-3,3.1-5.2,6.2-4.8l0,0c3,0.4,5.2,3.2,4.8,6.2l0,0c-0.4,3-3.2,5.2-6.2,4.8l0,0
				C126.9,287,124.8,284.2,125.2,281.2z"/>
			<path fill="#2A5386" d="M155.3,290.7c-1.5-0.2-2.9-1-3.7-2.1s-1.2-2.6-1-4.1s1-2.8,2-3.7c2.3-1.8,6-1.3,7.8,1
				c1,1.2,1.4,2.6,1.2,4.1s-1,2.8-2.1,3.7C158.1,290.5,156.7,290.9,155.3,290.7z"/>
			<path fill="#2A5386" d="M190.4,295.3c-1.4-0.2-2.7-1-3.7-2.1c-0.9-1.2-1.3-2.6-1.1-4.1s1-2.8,2.1-3.7c2.4-1.8,6-1.3,7.8,1
				c0.9,1.2,1.3,2.6,1.1,4.1s-1,2.8-2.1,3.7S191.9,295.5,190.4,295.3z"/>
			<path fill="#2A5386" d="M211,292.4c0.4-3,3.1-5.2,6.2-4.8l0,0c3,0.4,5.2,3.2,4.8,6.2l0,0c-0.4,3-3.2,5.2-6.2,4.8l0,0
				C212.7,298.2,210.6,295.4,211,292.4z"/>
			<path fill="#2A5386" d="M241,302c-1.5-0.2-2.8-1-3.7-2.1c-0.9-1.2-1.3-2.6-1.1-4.1s1-2.8,2.1-3.7c2.3-1.8,5.9-1.3,7.8,1
				c0.9,1.2,1.3,2.6,1.1,4.1s-1,2.8-2.1,3.7C243.9,301.8,242.4,302.2,241,302z"/>
			<path fill="#2A5386" d="M276.3,306.6c-1.5-0.2-2.9-1-3.7-2.1c-0.9-1.2-1.3-2.6-1.1-4.1c0.2-1.5,1-2.8,2.1-3.7
				c2.2-1.8,6-1.3,7.8,1c0.9,1.2,1.3,2.6,1.1,4.1c-0.2,1.5-1,2.8-2.1,3.7C279.2,306.4,277.7,306.8,276.3,306.6z"/>
			<path fill="#2A5386" d="M296.7,303.7c0.4-3,3.2-5.2,6.2-4.8l0,0c3.1,0.4,5.2,3.2,4.8,6.2l0,0c-0.4,3-3.1,5.2-6.2,4.8l0,0
				C298.5,309.5,296.3,306.7,296.7,303.7z"/>
			<path fill="#2A5386" d="M326.8,313.2c-1.5-0.2-2.8-1-3.7-2.1c-0.9-1.2-1.3-2.6-1.1-4.1c0.2-1.5,1-2.8,2.1-3.7
				c2.3-1.8,5.9-1.3,7.8,1c0.9,1.2,1.3,2.6,1.1,4.1c-0.2,1.5-1,2.8-2.1,3.7C329.7,313,328.3,313.4,326.8,313.2z"/>
			<path fill="#2A5386" d="M362.1,317.9c-1.5-0.2-2.8-1-3.7-2.1c-0.9-1.2-1.3-2.6-1.1-4.1c0.2-1.5,1-2.8,2.1-3.7
				c2.3-1.8,6-1.3,7.8,1c0.9,1.2,1.3,2.6,1.1,4.1c-0.2,1.5-1,2.8-2.1,3.7C365,317.7,363.5,318.1,362.1,317.9z"/>
			<path fill="#2A5386" d="M382.5,315c0.4-3,3.2-5.2,6.2-4.8l0,0c3.1,0.4,5.2,3.2,4.8,6.2l0,0c-0.4,3-3.2,5.2-6.3,4.8l0,0
				C384.3,320.8,382.1,318,382.5,315z"/>
			<path fill="#2A5386" d="M315.7,356.5l-108.4-14.2c-3-0.4-5.2-3.2-4.8-6.2s3.2-5.2,6.2-4.8l108.4,14.2c3,0.4,5.2,3.2,4.8,6.2
				C321.6,354.8,318.8,356.9,315.7,356.5z"/>
			<path fill="#2A5386" d="M170.7,337.5L99,328.1c-3-0.4-5.2-3.2-4.8-6.2c0.4-3,3.2-5.2,6.2-4.8l71.7,9.4c3,0.4,5.2,3.2,4.8,6.2
				S173.7,337.9,170.7,337.5z"/>
			<path fill="#525A7E" d="M485.5,393.8c-3-0.4-5.2-3.2-4.8-6.2L495,279.2c0.4-3,3.2-5.2,6.2-4.8c3,0.4,5.2,3.2,4.8,6.2L491.7,389
				C491.3,392,488.6,394.2,485.5,393.8z"/>
			<path fill="#525A7E" d="M503.6,256.1c-3-0.4-5.2-3.2-4.8-6.2l2.1-16.2c0.4-3,3.2-5.2,6.2-4.8s5.2,3.2,4.8,6.2l-2.1,16.2
				C509.4,254.3,506.6,256.5,503.6,256.1z"/>
		</g>
		<g>
			<path fill="#EAEDF7" d="M394.4,358.1H24.7c-8.2,0-14.8-6.6-14.8-14.8V128.9c0-8.2,6.6-14.8,14.8-14.8h369.7
				c8.2,0,14.8,6.6,14.8,14.8v214.4C409.2,351.5,402.6,358.1,394.4,358.1z"/>
			<path fill="#FFFFFF" d="M374.5,335.1H9.9V128.9c0-8.2,6.6-14.8,14.8-14.8h357.2v213.6C381.9,331.8,378.6,335.1,374.5,335.1z"/>
			<path fill="#525A7E" d="M394.4,363.7H24.7c-11.2,0-20.3-9.1-20.3-20.3V128.9c0-11.2,9.1-20.3,20.3-20.3h369.7
				c11.2,0,20.3,9.1,20.3,20.3v214.4C414.7,354.6,405.6,363.7,394.4,363.7z M24.7,119.7c-5.1,0-9.2,4.1-9.2,9.2v214.4
				c0,5.1,4.1,9.2,9.2,9.2h369.7c5.1,0,9.2-4.1,9.2-9.2V128.9c0-5.1-4.1-9.2-9.2-9.2H24.7z"/>
			<path fill="#EAEDF7" d="M128.2,225.1H61.7c-4.1,0-7.4-3.3-7.4-7.4v-44.4c0-4.1,3.3-7.4,7.4-7.4h66.5c4.1,0,7.4,3.3,7.4,7.4v44.4
				C135.6,221.7,132.3,225.1,128.2,225.1z"/>
			<path fill="#FFFFFF" d="M113.4,225.1H61.7c-4.1,0-7.4-3.3-7.4-7.4v-29.6h51.8c4.1,0,7.4,3.3,7.4,7.4L113.4,225.1L113.4,225.1z"/>
			<path fill="#525A7E" d="M128.2,230.6H61.7c-7.1,0-12.9-5.8-12.9-12.9v-44.4c0-7.1,5.8-12.9,12.9-12.9h66.5
				c7.1,0,12.9,5.8,12.9,12.9v44.4C141.2,224.8,135.4,230.6,128.2,230.6z M61.7,171.4c-1,0-1.8,0.8-1.8,1.8v44.4
				c0,1,0.8,1.8,1.8,1.8h66.5c1,0,1.8-0.8,1.8-1.8v-44.4c0-1-0.8-1.8-1.8-1.8L61.7,171.4L61.7,171.4z"/>
			<path fill="#525A7E" d="M54.3,274.9c-1.5,0-2.9-0.6-3.9-1.6s-1.6-2.4-1.6-3.9s0.6-2.9,1.6-3.9c2.1-2.1,5.7-2.1,7.8,0
				c1,1,1.6,2.4,1.6,3.9s-0.6,2.9-1.6,3.9C57.2,274.4,55.8,274.9,54.3,274.9z"/>
			<path fill="#525A7E" d="M74.3,269.4c0-3,2.4-5.5,5.5-5.5l0,0c3,0,5.5,2.5,5.5,5.5l0,0c0,3-2.5,5.5-5.5,5.5l0,0
				C76.7,274.9,74.3,272.4,74.3,269.4z"/>
			<path fill="#525A7E" d="M105.3,274.9c-1.5,0-3-0.6-4-1.6s-1.6-2.4-1.6-3.9s0.6-2.9,1.6-3.9c2.1-2.1,5.8-2.1,7.8,0
				c1.1,1,1.7,2.4,1.7,3.9s-0.6,2.9-1.6,3.9C108.1,274.4,106.7,274.9,105.3,274.9z"/>
			<path fill="#525A7E" d="M140.8,274.9c-1.4,0-2.8-0.6-3.9-1.6c-1-1-1.6-2.4-1.6-3.9s0.6-2.9,1.6-3.9c2.1-2.1,5.8-2.1,7.8,0
				c1,1,1.6,2.4,1.6,3.9s-0.6,2.9-1.6,3.9C143.7,274.4,142.3,274.9,140.8,274.9z"/>
			<path fill="#525A7E" d="M160.8,269.4c0-3,2.4-5.5,5.5-5.5l0,0c3,0,5.5,2.5,5.5,5.5l0,0c0,3-2.5,5.5-5.5,5.5l0,0
				C163.2,274.9,160.8,272.4,160.8,269.4z"/>
			<path fill="#525A7E" d="M191.8,274.9c-1.5,0-2.9-0.6-3.9-1.6s-1.6-2.4-1.6-3.9s0.6-2.9,1.6-3.9c2.1-2.1,5.7-2.1,7.8,0
				c1,1,1.6,2.4,1.6,3.9s-0.6,2.9-1.6,3.9C194.6,274.4,193.2,274.9,191.8,274.9z"/>
			<path fill="#525A7E" d="M227.4,274.9c-1.5,0-3-0.6-3.9-1.6c-1-1-1.6-2.4-1.6-3.9s0.6-2.9,1.6-3.9c2-2.1,5.8-2.1,7.8,0
				c1,1,1.6,2.4,1.6,3.9s-0.6,2.9-1.6,3.9C230.3,274.4,228.8,274.9,227.4,274.9z"/>
			<path fill="#525A7E" d="M247.3,269.4c0-3,2.5-5.5,5.5-5.5l0,0c3.1,0,5.5,2.5,5.5,5.5l0,0c0,3-2.4,5.5-5.5,5.5l0,0
				C249.8,274.9,247.3,272.4,247.3,269.4z"/>
			<path fill="#525A7E" d="M278.3,274.9c-1.5,0-2.9-0.6-3.9-1.6s-1.6-2.4-1.6-3.9s0.6-2.9,1.6-3.9c2.1-2.1,5.7-2.1,7.8,0
				c1,1,1.6,2.4,1.6,3.9s-0.6,2.9-1.6,3.9C281.2,274.4,279.8,274.9,278.3,274.9z"/>
			<path fill="#525A7E" d="M313.9,274.9c-1.5,0-2.9-0.6-3.9-1.6s-1.6-2.4-1.6-3.9s0.6-2.9,1.6-3.9c2.1-2.1,5.8-2.1,7.8,0
				c1,1,1.6,2.4,1.6,3.9s-0.6,2.9-1.6,3.9C316.8,274.4,315.3,274.9,313.9,274.9z"/>
			<path fill="#525A7E" d="M333.8,269.4c0-3,2.5-5.5,5.5-5.5l0,0c3.1,0,5.6,2.5,5.6,5.5l0,0c0,3-2.5,5.5-5.6,5.5l0,0
				C336.3,274.9,333.8,272.4,333.8,269.4z"/>
			<path fill="#525A7E" d="M364.8,274.9c-1.4,0-2.9-0.6-3.9-1.6s-1.6-2.4-1.6-3.9s0.6-2.9,1.6-3.9c2.1-2.1,5.8-2.1,7.8,0
				c1,1,1.6,2.4,1.6,3.9s-0.6,2.9-1.6,3.9C367.7,274.4,366.3,274.9,364.8,274.9z"/>
			<path fill="#525A7E" d="M273,319.3H163.6c-3.1,0-5.5-2.5-5.5-5.5c0-3.1,2.5-5.5,5.5-5.5H273c3.1,0,5.5,2.5,5.5,5.5
				S276,319.3,273,319.3z"/>
			<path fill="#525A7E" d="M126.7,319.3H54.3c-3.1,0-5.5-2.5-5.5-5.5c0-3.1,2.5-5.5,5.5-5.5h72.3c3.1,0,5.5,2.5,5.5,5.5
				C132.2,316.8,129.7,319.3,126.7,319.3z"/>
		</g>
	</g>
</g>
</svg>
