<svg xmlns="http://www.w3.org/2000/svg" width="0" height="0">
    <defs>     
        <symbol id="manage-shop"  viewBox="0 0 512 512">
                <g>
                    <g>
                        <path d="M488.468,448.903h-8.532V226.4C499.202,214.003,512,192.386,512,167.822c0-1.305-0.341-2.588-0.988-3.721L451.499,59.953
                c-4.18-7.313-12.009-11.857-20.432-11.857H80.933c-8.423,0-16.252,4.543-20.432,11.857L0.988,164.101
                C0.341,165.234,0,166.518,0,167.822c0,24.564,12.798,46.181,32.064,58.578v222.503h-8.532c-4.142,0-7.5,3.358-7.5,7.5
                c0,4.142,3.358,7.5,7.5,7.5h464.936c4.143,0,7.5-3.358,7.5-7.5C495.968,452.261,492.61,448.903,488.468,448.903z M15.517,175.322
                h24.044c4.142,0,7.5-3.358,7.5-7.5c0-4.142-3.358-7.5-7.5-7.5H20.424l53.101-92.927c1.516-2.652,4.354-4.299,7.408-4.299h350.134
                c3.054,0,5.893,1.647,7.408,4.299l53.1,92.927h-19.141c-4.143,0-7.5,3.358-7.5,7.5c0,4.142,3.357,7.5,7.5,7.5h24.048
                c-3.667,26.584-26.532,47.125-54.108,47.125c-27.575,0-50.429-20.543-54.097-47.125h52.096c4.143,0,7.5-3.358,7.5-7.5
                c0-4.142-3.357-7.5-7.5-7.5H71.631c-4.142,0-7.5,3.358-7.5,7.5c0,4.142,3.358,7.5,7.5,7.5h52.091
                c-3.668,26.582-26.523,47.125-54.097,47.125C42.049,222.447,19.184,201.906,15.517,175.322z M372.222,175.322
                c-3.668,26.582-26.523,47.125-54.097,47.125c-27.575,0-50.429-20.543-54.097-47.125H372.222z M247.972,175.322
                c-3.668,26.582-26.523,47.125-54.097,47.125c-27.574,0-50.429-20.543-54.097-47.125H247.972z M424.854,448.904h-81.193v-25.081
                h81.193V448.904z M424.854,408.823h-81.193V271.516h81.193V408.823z M464.936,448.904h-25.081V264.016c0-4.142-3.357-7.5-7.5-7.5
                h-96.193c-4.143,0-7.5,3.358-7.5,7.5v184.887H47.064V233.674c7.081,2.433,14.665,3.773,22.561,3.773
                c27.095,0,50.624-15.556,62.125-38.207c11.501,22.65,35.03,38.207,62.125,38.207c27.095,0,50.624-15.556,62.125-38.207
                c11.501,22.65,35.03,38.207,62.125,38.207c27.095,0,50.624-15.556,62.125-38.207c11.501,22.65,35.03,38.207,62.125,38.207
                c7.896,0,15.48-1.34,22.561-3.772V448.904z"/>
                    </g>
                </g>
                <g>
                    <g>
                        <path d="M296.081,256.516H79.645c-4.142,0-7.5,3.358-7.5,7.5v152.307c0,4.142,3.358,7.5,7.5,7.5h216.436
                c4.143,0,7.5-3.358,7.5-7.5V264.016C303.581,259.873,300.224,256.516,296.081,256.516z M288.581,408.823H87.145V271.516h201.436
                V408.823z"/>
                    </g>
                </g>
        </symbol>  
        <symbol id="dash-products" viewBox="0 0 551.852 551.852">
            <g>
                <path d="M545.933,106.575l0.377-0.999L276.049,0L6.228,106.671l-0.881-0.35v0.684l-0.038,0.021l0.038,0.115v338.651
					l270.579,106.059l270.617-106.064V106.326L545.933,106.575z M275.797,20.755l91.666,32.829L117.578,150.6l-84.647-33.39
					L275.797,20.755z M266.281,527.927L164.94,487.013l-50.859-19.107l-89.396-35.267V134.737l88.499,34.909v74.49l7.887-2.202
					l5.33,7.324l7.421-1.732l7.187,7.592l6.272-2.161l10.125,10.041v-75.911l7.877,3.11l100.999,39.834V527.927L266.281,527.927z
					 M275.948,213.077l-98.808-38.983L420.832,75.33l100.504,40.944L275.948,213.077z M527.218,432.639l-241.612,95.288V230.032
					l241.589-95.301v297.901L527.218,432.639L527.218,432.639z" />
            </g>
        </symbol>
        <symbol id="product-tags" viewBox="0 0 512 512">
            <path d="M15,274.5c-17.4,17.4-17.4,45.7,0,63.1L174.4,497c8.4,8.4,19.6,13,31.6,13c11.9,0,23.1-4.6,31.6-13
                l259.5-259.5c10.3-10.3,15-25.1,12.4-39.5L484.9,63.1c-3.3-18.2-17.8-32.7-36-36L314,2.7c-2.6-0.5-5.3-0.7-7.9-0.7
                c-11.7,0-23.1,4.6-31.6,13.1L15,274.5z M306.1,28c1.1,0,2.2,0.1,3.3,0.3l134.9,24.4c7.6,1.4,13.6,7.4,15,15l24.4,134.9
                c1.1,6-0.8,12.1-5.2,16.5L219.1,478.5c-3.5,3.5-8.2,5.4-13.1,5.4c-5,0-9.6-1.9-13.1-5.4L33.5,319.2c-7.3-7.3-7.3-19,0-26.3
                L292.9,33.5C296.4,30,301.2,28,306.1,28z" />
                <path d="M388.9,83.6c-10.5,0-20.3,4.1-27.6,11.4c-7.4,7.4-11.4,17.2-11.4,27.6c0,10.5,4.1,20.3,11.4,27.6
                c7.4,7.4,17.2,11.4,27.6,11.4c10.5,0,20.3-4.1,27.6-11.4c7.4-7.4,11.5-17.2,11.5-27.6s-4.1-20.3-11.5-27.7
                C409.2,87.7,399.4,83.6,388.9,83.6z M398.1,131.9c-2.5,2.5-5.7,3.8-9.2,3.8l0,0c-3.5,0-6.8-1.4-9.2-3.8c-5.1-5.1-5.1-13.4,0-18.5
                c2.5-2.5,5.7-3.8,9.2-3.8s6.8,1.4,9.2,3.8c2.5,2.5,3.8,5.8,3.8,9.2C402,126.2,400.6,129.5,398.1,131.9z" />
                <g>
                    <g>
                    <path d="M178.8,392.8c-0.1,0-0.3,0-0.4-0.1l-58.3-58.3c-0.1-0.1-0.1-0.2-0.1-0.4s0.1-0.3,0.1-0.4l14.7-14.7
                        c0.1-0.1,0.2-0.1,0.4-0.1c0.1,0,0.2,0,0.3,0.1l53,31.7l-31.6-53.1c-0.1-0.2-0.1-0.4,0.1-0.6l14.8-14.8c0.1-0.1,0.2-0.1,0.4-0.1
                        s0.3,0,0.4,0.1l58.3,58.3c0.1,0.1,0.1,0.2,0.1,0.4s-0.1,0.3-0.1,0.4l-11.2,11.2c-0.1,0.1-0.2,0.1-0.4,0.1s-0.3,0-0.4-0.1
                        l-35.1-35.1l25.1,45.2c0.1,0.2,0.1,0.4-0.1,0.6l-7.6,7.6c-0.1,0.1-0.2,0.1-0.4,0.1c-0.1,0-0.2,0-0.2-0.1l-45-24.7l34.8,34.8
                        c0.1,0.1,0.1,0.2,0.1,0.4s-0.1,0.3-0.1,0.4l-11.2,11.2C179,392.8,178.9,392.8,178.8,392.8z" />
                    <path d="M172,282.6l58.3,58.3L219,352.1l-36.7-36.7l-0.3,0.2l26.2,47.3l-7.6,7.6l-46.9-26l-0.2,0.3l36.4,36.4l-11.2,11.2
                        l-58.3-58.3l14.7-14.7l54.1,32.4l0.2-0.2l-32.3-54.2L172,282.6 M172,281.6c-0.3,0-0.5,0.1-0.7,0.3l-14.8,14.8
                        c-0.3,0.3-0.4,0.8-0.2,1.2l30.6,51.3l-51.3-30.7c-0.2-0.1-0.3-0.1-0.5-0.1c-0.3,0-0.5,0.1-0.7,0.3l-14.7,14.7
                        c-0.2,0.2-0.3,0.4-0.3,0.7c0,0.3,0.1,0.5,0.3,0.7l58.3,58.3c0.2,0.2,0.5,0.3,0.7,0.3s0.5-0.1,0.7-0.3l11.2-11.2
                        c0.2-0.2,0.3-0.4,0.3-0.7c0-0.3-0.1-0.5-0.3-0.7l-32.3-32.3l41.8,23.2c0.2,0.1,0.3,0.1,0.5,0.1c0.3,0,0.5-0.1,0.7-0.3l7.6-7.6
                        c0.3-0.3,0.4-0.8,0.2-1.2l-23.4-42.1l32.6,32.6c0.2,0.2,0.5,0.3,0.7,0.3s0.5-0.1,0.7-0.3l11.2-11.2c0.4-0.4,0.4-1,0-1.4L172.6,282
                        C172.5,281.7,172.2,281.6,172,281.6L172,281.6z" />
                            </g>
                        <g>
                            <path d="M240.7,331c-0.1,0-0.3-0.1-0.4-0.1L182,272.5c-0.1-0.1-0.1-0.2-0.1-0.4s0.1-0.3,0.1-0.4l32.5-32.5
                        c0.1-0.1,0.2-0.1,0.4-0.1s0.3,0,0.4,0.1l8.8,8.8c0.1,0.1,0.1,0.2,0.1,0.4s-0.1,0.3-0.1,0.4l-20.9,20.9l14.2,14.2l17.5-17.5
                        c0.1-0.1,0.2-0.1,0.4-0.1s0.3,0,0.4,0.1l8.8,8.8c0.1,0.1,0.1,0.2,0.1,0.4s-0.1,0.3-0.1,0.4L227,293.5l16.2,16.2l21-21
                        c0.1-0.1,0.2-0.1,0.4-0.1s0.3,0.1,0.4,0.1l8.8,8.8c0.2,0.2,0.2,0.5,0,0.7L241,330.8C240.9,330.9,240.8,331,240.7,331z" />
                                <path d="M214.9,239.6l8.8,8.8l-21.3,21.3l14.9,14.9l17.8-17.8l8.8,8.8l-17.8,17.8l16.9,16.9l21.3-21.3l8.8,8.8l-32.6,32.6
                        l-58.3-58.3L214.9,239.6 M214.9,238.6c-0.3,0-0.5,0.1-0.7,0.3l-32.5,32.5c-0.4,0.4-0.4,1,0,1.4l58.3,58.3c0.2,0.2,0.5,0.3,0.7,0.3
                        s0.5-0.1,0.7-0.3l32.6-32.6c0.2-0.2,0.3-0.4,0.3-0.7c0-0.3-0.1-0.5-0.3-0.7l-8.8-8.8c-0.2-0.2-0.5-0.3-0.7-0.3s-0.5,0.1-0.7,0.3
                        l-20.6,20.6l-15.5-15.5l17.1-17.1c0.4-0.4,0.4-1,0-1.4l-8.8-8.8c-0.2-0.2-0.5-0.3-0.7-0.3s-0.5,0.1-0.7,0.3l-17.1,17.1L204,269.7
                        l20.5-20.5c0.4-0.4,0.4-1,0-1.4l-8.8-8.8C215.4,238.7,215.2,238.6,214.9,238.6L214.9,238.6z" />
                            </g>
                            <g>
                                <path d="M292.1,279.5c-0.1,0-0.3,0-0.4-0.1l-49.1-49.1l-13,13c-0.1,0.1-0.2,0.1-0.4,0.1s-0.3,0-0.4-0.1l-8.8-8.8
                        c-0.2-0.2-0.2-0.5,0-0.7l38.4-38.4c0.1-0.1,0.2-0.1,0.4-0.1s0.3,0.1,0.4,0.1l8.8,8.8c0.2,0.2,0.2,0.5,0,0.7l-13.3,13.3l49.1,49.1
                        c0.1,0.1,0.1,0.2,0.1,0.4s-0.1,0.3-0.1,0.4l-11.3,11.3C292.4,279.4,292.3,279.5,292.1,279.5z" />
                                <path d="M258.9,195.7l8.8,8.8L254,218.2l49.4,49.4L292.1,279l-49.4-49.4l-13.3,13.3l-8.8-8.8L258.9,195.7 M258.9,194.7
                        c-0.3,0-0.5,0.1-0.7,0.3l-38.4,38.4c-0.4,0.4-0.4,1,0,1.4l8.8,8.8c0.2,0.2,0.4,0.3,0.7,0.3s0.5-0.1,0.7-0.3l12.6-12.6l48.7,48.7
                        c0.2,0.2,0.5,0.3,0.7,0.3s0.5-0.1,0.7-0.3l11.3-11.3c0.4-0.4,0.4-1,0-1.4l-48.7-48.7l13-13c0.4-0.4,0.4-1,0-1.4l-8.8-8.8
                        C259.4,194.8,259.1,194.7,258.9,194.7L258.9,194.7z" />
                            </g>
                            <g>
                                <path d="M317.3,254.2c-0.2,0-0.3-0.1-0.4-0.3l-41.8-74.8c-0.1-0.2-0.1-0.4,0.1-0.6l11.7-11.7c0.1-0.1,0.2-0.1,0.4-0.1
                        c0.1,0,0.2,0,0.2,0.1l74.8,41.8c0.1,0.1,0.2,0.2,0.3,0.4s0,0.3-0.1,0.4l-11.8,11.8c-0.1,0.1-0.2,0.1-0.4,0.1c-0.1,0-0.2,0-0.3-0.1
                        l-15.6-9.1l-14,14l9.1,15.6c0.1,0.2,0.1,0.4-0.1,0.6l-11.8,11.8C317.7,254.2,317.5,254.2,317.3,254.2
                        C317.4,254.2,317.4,254.2,317.3,254.2z M313.4,214l9-9l-21.7-12.7L313.4,214z" />
                                <path d="M287.3,167.2l74.8,41.8l-11.8,11.8l-15.9-9.3l-14.6,14.6l9.3,15.9l-11.8,11.8L275.5,179L287.3,167.2 M313.3,214.8l9.9-9.9
                        l-23.3-13.7l-0.2,0.2L313.3,214.8 M287.3,166.2c-0.3,0-0.5,0.1-0.7,0.3l-11.7,11.7c-0.3,0.3-0.4,0.8-0.2,1.2l41.8,74.8
                        c0.2,0.3,0.4,0.5,0.7,0.5h0.1c0.3,0,0.5-0.1,0.7-0.3l11.8-11.8c0.3-0.3,0.4-0.8,0.2-1.2l-8.9-15.2l13.5-13.5l15.3,8.9
                        c0.2,0.1,0.3,0.1,0.5,0.1c0.3,0,0.5-0.1,0.7-0.3l11.8-11.8c0.2-0.2,0.3-0.5,0.3-0.8s-0.2-0.6-0.5-0.7l-74.8-41.8
                        C287.7,166.2,287.5,166.2,287.3,166.2L287.3,166.2z M313.5,213.2l-11.4-19.5l19.5,11.4L313.5,213.2L313.5,213.2z" />
                            </g>
                        </g>
        </symbol>
        <symbol id="dash-options" viewBox="0 0 512 512">
            <path d="m256 224c-17.644531 0-32 14.355469-32 32s14.355469 32 32 32 32-14.355469 32-32-14.355469-32-32-32zm0 0" />
            <path d="m256 160c-52.933594 0-96 43.066406-96 96s43.066406 96 96 96 96-43.066406 96-96-43.066406-96-96-96zm0 158c-34.1875 0-62-27.8125-62-62s27.8125-62 62-62 62 27.8125 62 62-27.8125 62-62 62zm0 0" />
            <path d="m512 303.761719v-95.523438l-75.65625-11.535156c-2.964844-9.027344-6.609375-17.824219-10.894531-26.296875l45.339843-61.652344-67.542968-67.542968-61.652344 45.339843c-8.476562-4.285156-17.269531-7.929687-26.296875-10.894531l-11.535156-75.65625h-95.523438l-11.535156 75.65625c-9.027344 2.964844-17.824219 6.609375-26.296875 10.894531l-61.652344-45.339843-67.542968 67.542968 45.339843 61.652344c-4.285156 8.476562-7.929687 17.269531-10.894531 26.296875l-75.65625 11.535156v95.523438l75.65625 11.535156c2.964844 9.027344 6.609375 17.824219 10.894531 26.296875l-45.339843 61.652344 67.542968 67.542968 61.652344-45.339843c8.476562 4.285156 17.269531 7.929687 26.296875 10.894531l11.535156 75.65625h95.523438l11.535156-75.65625c9.027344-2.964844 17.820313-6.609375 26.296875-10.894531l61.652344 45.339843 67.542968-67.542968-45.339843-61.652344c4.285156-8.476562 7.929687-17.269531 10.894531-26.296875zm-256 78.238281c-69.476562 0-126-56.523438-126-126s56.523438-126 126-126 126 56.523438 126 126-56.523438 126-126 126zm0 0" />
        </symbol>
        <symbol id="dash-tax-category" viewBox="-28 0 448 448">
            <path d="m116.6875 368 29.65625-29.65625c3.125-3.121094 8.1875-3.121094 11.3125 0l29.65625 29.65625h25.375l29.65625-29.65625c3.125-3.121094 8.1875-3.121094 11.3125 0l29.65625 29.65625h20.6875v-368h-20.6875l-29.65625 29.65625c-3.125 3.121094-8.1875 3.121094-11.3125 0l-29.65625-29.65625h-25.375l-29.65625 29.65625c-3.125 3.121094-8.1875 3.121094-11.3125 0l-29.65625-29.65625h-25.375l-29.65625 29.65625c-3.125 3.121094-8.1875 3.121094-11.3125 0l-29.65625-29.65625h-20.6875v368h20.6875l29.65625-29.65625c3.125-3.121094 8.1875-3.121094 11.3125 0l29.65625 29.65625zm-84.6875-280h240v16h-240zm213.199219 104h10.800781v16h-16c-3.164062 0-6.027344-1.863281-7.3125-4.753906l-8.6875-19.550782-8.6875 19.550782c-1.285156 2.890625-4.148438 4.753906-7.3125 4.753906h-16v-16h10.800781l12.445313-28-12.445313-28h-10.800781v-16h16c3.164062 0 6.027344 1.863281 7.3125 4.753906l8.6875 19.550782 8.6875-19.550782c1.285156-2.890625 4.148438-4.753906 7.3125-4.753906h16v16h-10.800781l-12.445313 28zm-109.199219-8v24h-16v-48c0-1.242188.285156-2.464844.839844-3.574219l16-32c1.355468-2.714843 4.128906-4.425781 7.160156-4.425781h16c3.03125 0 5.804688 1.710938 7.160156 4.425781l16 32c.554688 1.109375.839844 2.332031.839844 3.574219v48h-16v-24zm-88-48v-16h64v16h-24v72h-16v-72zm-16 104v-16h240v16zm0 0" />
            <path d="m138.34375 418.34375c3.125-3.121094 8.1875-3.121094 11.3125 0l29.65625 29.65625h25.375l29.65625-29.65625c3.125-3.121094 8.1875-3.121094 11.3125 0l29.65625 29.65625h25.375l29.65625-29.65625c3.125-3.121094 8.1875-3.121094 11.3125 0l29.65625 29.65625h20.6875v-368h-20.6875l-29.65625 29.65625c-3.125 3.121094-8.1875 3.121094-11.3125 0l-10.34375-10.34375v276.6875c0 4.417969-3.582031 8-8 8h-32c-2.121094 0-4.15625-.84375-5.65625-2.34375l-26.34375-26.34375-26.34375 26.34375c-1.5 1.5-3.535156 2.34375-5.65625 2.34375h-32c-2.121094 0-4.15625-.84375-5.65625-2.34375l-26.34375-26.34375-26.34375 26.34375c-1.5 1.5-3.535156 2.34375-5.65625 2.34375h-32v64h20.6875zm0 0" />
            <path d="m168 161.886719-12.945312-25.886719h-6.109376l-12.945312 25.886719v6.113281h32zm0 0" />
        </symbol>
        <symbol id="requests" viewBox="0 0 512 512">
            <path d="m143.9375 382.8125c18.640625-14.515625 30.664062-37.148438 30.664062-62.546875 0-43.707031-35.5625-79.265625-79.269531-79.265625s-79.265625 35.558594-79.265625 79.265625c0 25.398437 12.023438 48.03125 30.660156 62.546875-26.304687 15.648438-46.726562 45.203125-46.726562 82.054688v32.132812c0 8.285156 6.714844 15 15 15h160.667969c8.28125 0 15-6.714844 15-15v-32.132812c0-36.84375-20.417969-66.402344-46.730469-82.054688zm-97.871094-62.546875c0-27.164063 22.101563-49.265625 49.269532-49.265625 27.164062 0 49.265624 22.101562 49.265624 49.265625 0 27.167969-22.101562 49.269531-49.265624 49.269531-27.167969 0-49.269532-22.101562-49.269532-49.269531zm114.601563 161.734375h-130.667969v-17.132812c0-36.085938 29.195312-65.332032 65.332031-65.332032 36.085938 0 65.332031 29.195313 65.332031 65.332032v17.132812zm0 0"/>
            <path d="m448.800781 0h-192.800781c-34.90625 0-63.199219 28.242188-63.199219 63.199219v289.199219c0 12.269531 14.070313 19.445312 24 12l60.265625-45.199219h171.734375c34.90625 0 63.199219-28.242188 63.199219-63.199219v-192.800781c0-34.90625-28.242188-63.199219-63.199219-63.199219zm33.199219 256c0 18.351562-14.839844 33.199219-33.199219 33.199219h-176.734375c-3.246094 0-6.402344 1.054687-9 3l-40.265625 30.199219v-259.199219c0-18.351563 14.839844-33.199219 33.199219-33.199219h192.800781c18.351563 0 33.199219 14.839844 33.199219 33.199219zm0 0"/>
            <path d="m432.734375 80.332031h-160.667969c-8.285156 0-15 6.71875-15 15 0 8.285157 6.714844 15 15 15h160.667969c8.28125 0 15-6.714843 15-15 0-8.28125-6.714844-15-15-15zm0 0"/>
            <path d="m432.734375 144.601562h-160.667969c-8.285156 0-15 6.714844-15 15 0 8.28125 6.714844 15 15 15h160.667969c8.28125 0 15-6.71875 15-15 0-8.285156-6.714844-15-15-15zm0 0"/>
            <path d="m352.398438 208.867188h-80.332032c-8.285156 0-15 6.714843-15 15 0 8.285156 6.714844 15 15 15h80.332032c8.285156 0 15-6.714844 15-15 0-8.285157-6.714844-15-15-15zm0 0"/>
        </symbol>
        <symbol id="shipping-profile" viewBox="0 0 512 512">
            <g>
                <g>
                    <path d="M386.689,304.403c-35.587,0-64.538,28.951-64.538,64.538s28.951,64.538,64.538,64.538
						c35.593,0,64.538-28.951,64.538-64.538S422.276,304.403,386.689,304.403z M386.689,401.21c-17.796,0-32.269-14.473-32.269-32.269
						c0-17.796,14.473-32.269,32.269-32.269c17.796,0,32.269,14.473,32.269,32.269C418.958,386.738,404.485,401.21,386.689,401.21z"/>
                </g>
            </g>
            <g>
                <g>
                    <path d="M166.185,304.403c-35.587,0-64.538,28.951-64.538,64.538s28.951,64.538,64.538,64.538s64.538-28.951,64.538-64.538
						S201.772,304.403,166.185,304.403z M166.185,401.21c-17.796,0-32.269-14.473-32.269-32.269c0-17.796,14.473-32.269,32.269-32.269
						c17.791,0,32.269,14.473,32.269,32.269C198.454,386.738,183.981,401.21,166.185,401.21z"/>
                </g>
            </g>
            <g>
                <g>
                    <path d="M430.15,119.675c-2.743-5.448-8.32-8.885-14.419-8.885h-84.975v32.269h75.025l43.934,87.384l28.838-14.5L430.15,119.675z"
						/>
                </g>
            </g>
            <g>
                <g>
                    <rect x="216.202" y="353.345" width="122.084" height="32.269"/>
                </g>
            </g>
            <g>
                <g>
                    <path d="M117.781,353.345H61.849c-8.912,0-16.134,7.223-16.134,16.134c0,8.912,7.223,16.134,16.134,16.134h55.933
						c8.912,0,16.134-7.223,16.134-16.134C133.916,360.567,126.693,353.345,117.781,353.345z"/>
                </g>
            </g>
            <g>
                <g>
                    <path d="M508.612,254.709l-31.736-40.874c-3.049-3.937-7.755-6.239-12.741-6.239H346.891V94.655
						c0-8.912-7.223-16.134-16.134-16.134H61.849c-8.912,0-16.134,7.223-16.134,16.134s7.223,16.134,16.134,16.134h252.773v112.941
						c0,8.912,7.223,16.134,16.134,16.134h125.478l23.497,30.268v83.211h-44.639c-8.912,0-16.134,7.223-16.134,16.134
						c0,8.912,7.223,16.134,16.134,16.134h60.773c8.912,0,16.134-7.223,16.135-16.134V264.605
						C512,261.023,510.806,257.538,508.612,254.709z"/>
                </g>
            </g>
            <g>
                <g>
                    <path d="M116.706,271.597H42.487c-8.912,0-16.134,7.223-16.134,16.134c0,8.912,7.223,16.134,16.134,16.134h74.218
						c8.912,0,16.134-7.223,16.134-16.134C132.84,278.82,125.617,271.597,116.706,271.597z"/>
                </g>
            </g>
            <g>
                <g>
                    <path d="M153.815,208.134H16.134C7.223,208.134,0,215.357,0,224.269s7.223,16.134,16.134,16.134h137.681
						c8.912,0,16.134-7.223,16.134-16.134S162.727,208.134,153.815,208.134z"/>
                </g>
            </g>
            <g>
                <g>
                    <path d="M180.168,144.672H42.487c-8.912,0-16.134,7.223-16.134,16.134c0,8.912,7.223,16.134,16.134,16.134h137.681
						c8.912,0,16.134-7.223,16.134-16.134C196.303,151.895,189.08,144.672,180.168,144.672z"/>
                </g>
            </g>
        </symbol>
        <symbol id="dash-sales" viewBox="0 0 489.8 489.8" style="enable-background:new 0 0 489.8 489.8;">
            <g>
                <g>
                    <path d="M478.1,466.4H23.4V11.7C23.4,5.5,18.3,0,11.7,0S0,5.1,0,11.7v466.4c0,6.2,5.1,11.7,11.7,11.7h466.4
            c6.2,0,11.7-5.1,11.7-11.7C489.8,471.9,484.7,466.4,478.1,466.4z" />
                    <rect x="57.2" y="144.6" width="97.6" height="299.3" />
                    <rect x="195.9" y="28" width="97.6" height="415.9" />
                    <rect x="334.7" y="160.9" width="97.6" height="282.9" />
                </g>
            </g>
        </symbol>
        <symbol id="dash-cancellation-request" viewBox="0 0 446.464 446.464" style="enable-background:new 0 0 446.464 446.464;">
            <g>
                <g>
                    <path d="M223.232,0C100.352,0,0,100.352,0,223.232s100.352,223.232,223.232,223.232s223.232-100.352,223.232-223.232
			S346.112,0,223.232,0z M311.296,278.016l-33.792,33.792l-54.272-54.784l-54.784,54.784l-33.792-33.792l54.784-54.784
			l-54.784-54.784l33.792-33.792l54.784,54.784l54.784-54.784l33.792,33.792l-54.784,54.784L311.296,278.016z" />
                </g>
            </g>
        </symbol>
        <symbol id="dash-return-request" viewBox="0 0 951.5 951.5" style="enable-background:new 0 0 951.5 951.5;">
            <g>
                <g>
                    <polygon points="327.1,741.35 951.5,741.35 951.5,65.75 534.4,65.75 534.4,235.75 781.5,235.75 781.5,571.35 327.1,571.35
			327.1,426.95 0,656.35 327.1,885.75" />
                </g>
            </g>
        </symbol>
        <symbol id="special-price" viewBox="0 0 512 512">
            <g>
                <path d="M335.4,460.9l34,9.1c12.9,3.5,26.5,1,37.4-6.9c10.8-7.9,17.4-20,18.1-33.4l1.8-35.1
                c0.5-8.7,6-16.4,14.2-19.5l32.8-12.6c12.5-4.8,22-14.8,26.2-27.5c4.1-12.7,2.3-26.4-5-37.6l-19.2-29.4c-4.8-7.3-4.8-16.8,0-24.1
                l19.2-29.4c7.3-11.2,9.1-24.9,5-37.6c-4.1-12.7-13.7-22.7-26.2-27.5l-32.8-12.6c-8.2-3.1-13.7-10.8-14.2-19.5l-1.8-35.1
                c-0.7-13.3-7.3-25.5-18.1-33.4c-10.8-7.9-24.5-10.4-37.4-6.9l-34,9.1c-8.4,2.3-17.5-0.7-23-7.5l-22.1-27.3C281.9,6,269.4,0,256,0
                c-13.4,0-25.9,6-34.3,16.4l-22.1,27.3c-5.5,6.8-14.5,9.7-23,7.5l-34-9.1c-12.9-3.5-26.5-1-37.4,6.9c-10.8,7.9-17.4,20-18.1,33.4
                l-1.8,35.1c-0.5,8.7-6,16.4-14.2,19.5l-32.8,12.6c-12.5,4.8-22,14.8-26.2,27.5c-4.1,12.7-2.3,26.4,5,37.6l19.2,29.4
                c4.8,7.3,4.8,16.8,0,24.1l-19.2,29.4c-7.3,11.2-9.1,24.9-5,37.6c4.1,12.7,13.7,22.7,26.2,27.5l32.8,12.6
                c8.2,3.1,13.7,10.8,14.2,19.5l1.8,35.1c0.7,13.3,7.3,25.5,18.1,33.4c10.8,7.9,24.5,10.4,37.4,6.9l34-9.1c1.9-0.5,3.8-0.8,5.7-0.8
                c6.6,0,13,2.9,17.2,8.2l22.1,27.3C230.1,506,242.6,512,256,512c13.4,0,25.9-6,34.3-16.4l22.1-27.3
                C317.9,461.6,326.9,458.6,335.4,460.9z M295.3,454.6l-22.1,27.3c-4.2,5.2-10.5,8.2-17.2,8.2c0,0,0,0,0,0c-6.7,0-13-3-17.2-8.2
                l-22.1-27.3c-8.4-10.4-20.9-16.4-34.3-16.4c-3.9,0-7.7,0.5-11.4,1.5l-34,9.1c-6.5,1.7-13.3,0.5-18.8-3.5c-5.4-3.9-8.7-10-9.1-16.7
                l-1.8-35.1c-0.9-17.4-12-32.6-28.3-38.9l-32.8-12.6c-6.3-2.4-11.1-7.4-13.1-13.8c-2.1-6.4-1.2-13.3,2.5-18.9L54.7,280
                c9.5-14.6,9.5-33.4,0-48l-19.2-29.4c-3.7-5.6-4.6-12.5-2.5-18.9c2.1-6.4,6.9-11.4,13.1-13.8L79,157.3c16.3-6.2,27.4-21.5,28.3-38.9
                l1.8-35.1c0.3-6.7,3.7-12.8,9.1-16.7c5.4-3.9,12.3-5.2,18.8-3.5l34,9.1c16.8,4.5,34.8-1.3,45.7-14.8l22.1-27.3
                c4.2-5.2,10.5-8.2,17.2-8.2c0,0,0,0,0,0c6.7,0,13,3,17.2,8.2l22.1,27.3c11,13.5,28.9,19.4,45.7,14.8l34-9.1
                c6.5-1.7,13.3-0.5,18.8,3.5c5.4,3.9,8.7,10,9.1,16.7l1.8,35.1c0.9,17.4,12,32.6,28.3,38.9l32.8,12.6c6.3,2.4,11.1,7.4,13.1,13.8
                c2.1,6.4,1.2,13.3-2.5,18.9L457.3,232c-9.5,14.6-9.5,33.4,0,48l19.2,29.4c3.7,5.6,4.6,12.5,2.5,18.9c-2.1,6.4-6.9,11.4-13.1,13.8
                L433,354.7c-16.3,6.2-27.4,21.5-28.3,38.9l-1.8,35.1c-0.3,6.7-3.7,12.8-9.1,16.7c-5.4,3.9-12.3,5.2-18.8,3.5l-34-9.1
                C324.2,435.2,306.3,441,295.3,454.6z" />
                        <path d="M266.2,391.9v-23.7l5.2-0.8c36.7-5.9,63.4-31.5,63.4-61s-26.6-55.1-63.4-61l-5.2-0.8v-80.8l7.6,1.9
                c19.4,4.7,39,18.4,39,38.1c0,6,4.9,11,11,11c6.1,0,11-4.9,11-11c0-29.5-26.6-55.1-63.4-61l-5.2-0.8v-23.7c0-6-4.9-11-11-11
                s-11,4.9-11,11v23.7l-5.2,0.8c-36.7,5.9-63.4,31.5-63.4,61c0,29.5,26.6,55.1,63.4,61l5.2,0.8v80.8l-7.6-1.9
                c-19.4-4.7-39-18.4-39-38.1c0-6-4.9-11-11-11c-6.1,0-11,4.9-11,11c0,17,8.9,33.4,24.5,45.1c10.8,8.1,24.2,13.6,38.9,15.9l5.2,0.8
                v23.7c0,6,4.9,11,11,11S266.2,398,266.2,391.9z M266.2,266.4l7.6,1.9c19.4,4.7,39,18.4,39,38.1c0,19.8-19.6,33.4-39,38.1l-7.6,1.9
                V266.4z M244.3,243.7l-7.6-1.9c-19.4-4.7-39-18.4-39-38.1c0-19.8,19.6-33.4,39-38.1l7.6-1.9V243.7z" />
            </g>
        </symbol>
        <symbol id="volume-discount" viewBox="0 0 512 512">
            <g>
                <path d="M316,469.7c4.6-4.4,10.8-6.4,17.1-5.6l43.9,6.2c21.7,3.1,41.7-11.4,45.5-33l7.7-43.7
                c1.1-6.3,5-11.6,10.6-14.6l39.2-20.8c19.4-10.3,27-33.8,17.4-53.5L477.8,265c-2.8-5.7-2.8-12.3,0-18l19.5-39.8
                c9.6-19.7,2-43.2-17.4-53.5l-39.2-20.8c-5.6-3-9.5-8.3-10.6-14.6l-7.7-43.7c-3.8-21.6-23.8-36.1-45.5-33l-43.9,6.2
                c-6.3,0.9-12.5-1.1-17.1-5.6l-31.9-30.8c-15.8-15.2-40.4-15.2-56.2,0L196,42.3c-4.6,4.4-10.8,6.5-17.1,5.6L135,41.6
                c-21.7-3.1-41.7,11.4-45.5,33l-7.7,43.7c-1.1,6.3-5,11.6-10.6,14.6l-39.2,20.8c-19.4,10.3-27,33.8-17.4,53.5L34.2,247
                c2.8,5.7,2.8,12.3,0,18l-19.5,39.8c-9.6,19.7-2,43.2,17.4,53.5l39.2,20.8c5.6,3,9.5,8.3,10.6,14.6l7.7,43.7
                c3.4,19.4,20.1,33.5,39.7,33.4c1.9,0,3.9-0.1,5.8-0.4l43.9-6.2c1-0.1,2-0.2,2.9-0.2c5.3,0,10.3,2,14.2,5.8l31.9,30.8
                c7.6,7.4,17.6,11.4,28.1,11.4c10.5,0,20.5-4.1,28.1-11.4L316,469.7z M256,492c-5.1,0-10.3-1.9-14.3-5.8l-31.9-30.8
                c-7.6-7.3-17.5-11.4-28-11.4c-1.9,0-3.9,0.1-5.8,0.4l-43.9,6.2c-11,1.5-21.1-5.8-23.1-16.8l-7.7-43.7c-2.2-12.4-9.8-22.8-20.9-28.7
                l-39.2-20.8c-9.8-5.2-13.7-17.1-8.8-27.1l19.5-39.8c5.5-11.3,5.5-24.2,0-35.5l-19.5-39.8c-4.9-10-1-21.9,8.8-27.1l39.2-20.8
                c11.1-5.9,18.7-16.4,20.9-28.7l7.7-43.7c1.9-11,12.1-18.3,23.1-16.8l43.9,6.2c12.4,1.8,24.7-2.2,33.8-11l31.9-30.8
                c8-7.7,20.5-7.7,28.5,0l31.9,30.8c9,8.7,21.3,12.7,33.8,11l43.9-6.2c11-1.6,21.1,5.8,23.1,16.8l7.7,43.7
                c2.2,12.4,9.8,22.8,20.9,28.7l39.2,20.8c9.8,5.2,13.7,17.1,8.8,27.1l-19.5,39.8c-5.5,11.3-5.5,24.2,0,35.5l19.5,39.8
                c4.9,10,1,21.9-8.8,27.1l-39.2,20.8c-11.1,5.9-18.7,16.4-20.9,28.7l-7.7,43.7c-1.9,11-12.1,18.3-23.1,16.8l-43.9-6.2
                c-12.4-1.8-24.7,2.2-33.8,11l-31.9,30.8C266.3,490.1,261.1,492,256,492z" />
                        <path d="M163.7,362.4l198.8-198.8c1.9-1.9,2.9-4.4,2.9-7c0-2.7-1-5.2-2.9-7v0c-1.9-1.9-4.4-2.9-7-2.9
                c-2.7,0-5.2,1-7,2.9L149.6,348.3c-3.9,3.9-3.9,10.2,0,14.1c1.9,1.9,4.4,2.9,7,2.9C159.3,365.3,161.8,364.3,163.7,362.4z" />
                        <path d="M195.8,125.6c-27.6,0-50.1,22.5-50.1,50.1s22.5,50.1,50.1,50.1s50.1-22.5,50.1-50.1
                S223.4,125.6,195.8,125.6z M195.8,205.9c-16.7,0-30.2-13.5-30.2-30.2c0-16.7,13.5-30.2,30.2-30.2c16.7,0,30.2,13.5,30.2,30.2
                C226,192.3,212.4,205.9,195.8,205.9z" />
                        <path d="M316.2,286.2c-27.6,0-50.1,22.5-50.1,50.1c0,27.6,22.5,50.1,50.1,50.1c27.6,0,50.1-22.5,50.1-50.1
                C366.4,308.7,343.9,286.2,316.2,286.2z M316.2,366.5c-16.7,0-30.2-13.5-30.2-30.2c0-16.7,13.5-30.2,30.2-30.2
                c16.7,0,30.2,13.5,30.2,30.2C346.4,353,332.9,366.5,316.2,366.5z" />
            </g>
        </symbol>
        <symbol id="buy-together-products" viewBox="0 0 512 512">
            <g>
                <g>
                    <g>
                        <path d="M454.6,417.3c-2.8-4.8-8.9-6.5-13.7-3.7l-36.5,21.1c-4.8,2.8-6.5,8.9-3.7,13.7c1.9,3.2,5.2,5,8.7,5
				c1.7,0,3.4-0.4,5-1.3l36.5-21.1C455.7,428.3,457.4,422.1,454.6,417.3z" />
                    </g>
                </g>
                <g>
                    <g>
                        <path d="M509.2,291c0-0.4,0-0.8-0.1-1.2c0,0,0-0.1,0-0.1c-0.1-0.4-0.1-0.7-0.2-1.1c0-0.1-0.1-0.2-0.1-0.3
				c-0.1-0.3-0.2-0.6-0.3-0.9c0-0.1-0.1-0.2-0.1-0.3c-0.2-0.4-0.3-0.7-0.5-1.1c0,0,0,0,0,0c-0.2-0.3-0.4-0.7-0.7-1
				c-0.1-0.1-0.1-0.2-0.2-0.2c-0.2-0.2-0.4-0.5-0.6-0.7c-0.1-0.1-0.1-0.1-0.2-0.2c-0.3-0.3-0.5-0.5-0.8-0.7c0,0,0,0-0.1-0.1
				c-0.3-0.3-0.7-0.5-1-0.7c0,0,0,0-0.1,0l-116.7-67.4l0-134.8c0,0,0-0.1,0-0.1c0-0.4,0-0.8-0.1-1.2c0,0,0,0,0-0.1
				c-0.1-0.4-0.1-0.7-0.2-1.1c0-0.1-0.1-0.2-0.1-0.3c-0.1-0.3-0.2-0.6-0.3-0.9c0-0.1-0.1-0.2-0.1-0.3c-0.2-0.4-0.3-0.7-0.5-1.1
				c-0.2-0.4-0.4-0.7-0.7-1c-0.1-0.1-0.1-0.2-0.2-0.2c-0.2-0.2-0.4-0.5-0.6-0.7c-0.1-0.1-0.1-0.1-0.2-0.2c-0.3-0.3-0.5-0.5-0.8-0.7
				c0,0,0,0-0.1-0.1c-0.3-0.3-0.7-0.5-1-0.7c0,0,0,0-0.1,0L260.7,1.3c-3.1-1.8-6.9-1.8-10,0L129,71.6c0,0,0,0-0.1,0
				c-0.4,0.2-0.7,0.4-1,0.7c0,0,0,0,0,0c-0.3,0.2-0.6,0.5-0.9,0.8c-0.1,0.1-0.1,0.1-0.2,0.2c-0.2,0.2-0.4,0.5-0.6,0.7
				c-0.1,0.1-0.1,0.2-0.2,0.2c-0.2,0.3-0.5,0.6-0.7,1c-0.2,0.4-0.4,0.7-0.5,1.1c0,0.1-0.1,0.2-0.1,0.3c-0.1,0.3-0.2,0.6-0.3,0.9
				c0,0.1-0.1,0.2-0.1,0.3c-0.1,0.4-0.2,0.7-0.2,1.1c0,0,0,0,0,0.1c-0.1,0.4-0.1,0.8-0.1,1.2c0,0,0,0.1,0,0.1l0,134.7L7.2,282.4
				c0,0,0,0-0.1,0c-0.4,0.2-0.7,0.4-1,0.7c0,0,0,0,0,0c-0.3,0.2-0.6,0.5-0.9,0.8c-0.1,0.1-0.1,0.1-0.2,0.2c-0.2,0.2-0.4,0.5-0.6,0.7
				c-0.1,0.1-0.1,0.2-0.2,0.2c-0.2,0.3-0.5,0.6-0.7,1c0,0,0,0,0,0c-0.2,0.4-0.4,0.7-0.5,1.1c0,0.1-0.1,0.2-0.1,0.3
				c-0.1,0.3-0.2,0.6-0.3,0.9c0,0.1-0.1,0.2-0.1,0.3c-0.1,0.4-0.2,0.7-0.2,1.1c0,0,0,0.1,0,0.1c-0.1,0.4-0.1,0.8-0.1,1.2
				c0,0,0,0.1,0,0.1l0,140.5h0c0,3.6,1.9,6.9,5,8.7L129,510.7c0,0,0.1,0,0.1,0c0.4,0.2,0.7,0.4,1.1,0.5c0,0,0,0,0.1,0
				c0.3,0.1,0.7,0.3,1.1,0.4c0.1,0,0.2,0.1,0.3,0.1c0.3,0.1,0.6,0.1,0.9,0.2c0.1,0,0.2,0,0.3,0c0.4,0,0.8,0.1,1.2,0.1s0.8,0,1.2-0.1
				c0.1,0,0.2,0,0.3,0c0.3,0,0.6-0.1,0.9-0.2c0.1,0,0.2,0,0.3-0.1c0.4-0.1,0.7-0.2,1.1-0.4c0,0,0.1,0,0.1,0c0.4-0.2,0.7-0.3,1.1-0.5
				c0,0,0.1,0,0.1,0l116.7-67.4l116.7,67.4c0,0,0.1,0,0.1,0c0.4,0.2,0.7,0.4,1.1,0.5c0,0,0.1,0,0.1,0c0.3,0.1,0.7,0.3,1.1,0.4
				c0.1,0,0.2,0.1,0.3,0.1c0.3,0.1,0.6,0.1,0.9,0.2c0.1,0,0.2,0,0.3,0c0.4,0,0.8,0.1,1.2,0.1s0.8,0,1.2-0.1c0.1,0,0.2,0,0.3,0
				c0.3,0,0.6-0.1,0.9-0.2c0.1,0,0.2,0,0.3-0.1c0.4-0.1,0.7-0.2,1.1-0.4c0,0,0.1,0,0.1,0c0.4-0.2,0.7-0.3,1.1-0.5c0,0,0.1,0,0.1,0
				l121.7-70.3c3.1-1.8,5-5.1,5-8.7L509.2,291C509.2,291.1,509.2,291.1,509.2,291z M418.3,256.1l-101.6,58.7l-40.9-23.6l101.6-58.7
				L418.3,256.1z M367.4,215.1l-101.6,58.7l0-117.3l101.6-58.7L367.4,215.1z M255.7,21.6l40.9,23.6l-101.6,58.7l-40.9-23.6
				L255.7,21.6z M134,232.5l40.9,23.6L73.2,314.7l-40.9-23.6L134,232.5z M123.9,484.6L22.3,425.9l0-117.3l43.3,25
				c1.3,1.4,3,2.4,4.8,2.8l53.5,30.9C123.9,367.2,123.9,484.6,123.9,484.6z M134,349.8l-40.7-23.5l101.6-58.7l40.7,23.5L134,349.8z
				 M245.6,425.9L144,484.6l0-117.3l101.6-58.7L245.6,425.9z M245.6,273.7L144,215.1l0-117.3l43.3,25c1.3,1.4,3,2.4,4.9,2.8
				l53.5,30.9L245.6,273.7L245.6,273.7z M215,115.5l101.6-58.7l40.6,23.5L255.7,139L215,115.5z M367.4,484.6l-101.6-58.7l0-117.3
				l43.3,25c1.3,1.4,3,2.3,4.8,2.8l53.5,30.9L367.4,484.6L367.4,484.6z M377.4,349.8l-40.6-23.5l101.6-58.7l40.7,23.5L377.4,349.8z
				 M489.1,425.9l-101.6,58.7l0-117.3l101.6-58.7L489.1,425.9z" />
                    </g>
                </g>
                <g>
                    <g>
                        <path d="M471,399.2c-12.9,0-13,20.1,0,20.1C484,419.3,484,399.2,471,399.2z" />
                    </g>
                </g>
            </g>
        </symbol>
        <symbol id="related-products" viewBox="0 0 512 512">
            <g>
                <path d="M378.7,38.8H133.3c-5.3,0-9.6,4.3-9.6,9.6v198H10.6c-5.3,0-9.6,4.3-9.6,9.6v207.6c0,5.3,4.3,9.6,9.6,9.6h490.8
                c5.3,0,9.6-4.3,9.6-9.6V256c0-5.3-4.3-9.6-9.6-9.6H388.3v-198C388.3,43.1,384,38.8,378.7,38.8z M237.3,58h37.4v37.4h-37.4V58z
                M142.9,58h75.1v47c0,5.3,4.3,9.6,9.6,9.6h56.6c5.3,0,9.6-4.3,9.6-9.6V58h75.1v188.4H142.9V58z M114.6,265.6H152V303h-37.4V265.6z
                M246.4,454H20.2V265.6h75.1v47c0,5.3,4.3,9.6,9.6,9.6h56.6c5.3,0,9.6-4.3,9.6-9.6v-47h75.1V454z M416.6,312.6v-47h75.1V454H265.6
                V265.6h75.1v47c0,5.3,4.3,9.6,9.6,9.6H407C412.3,322.2,416.6,317.9,416.6,312.6z M397.4,265.6V303H360v-37.4H397.4z" />
                        <path d="M48.4,435.5h37.8c5.3,0,9.6-4.3,9.6-9.6s-4.3-9.6-9.6-9.6H48.4c-5.3,0-9.6,4.3-9.6,9.6S43.1,435.5,48.4,435.5z" />
                        <path d="M48.4,407.2h37.8c5.3,0,9.6-4.3,9.6-9.6s-4.3-9.6-9.6-9.6H48.4c-5.3,0-9.6,4.3-9.6,9.6S43.1,407.2,48.4,407.2z" />
                        <path d="M123.9,387.9h-9.4c-5.3,0-9.6,4.3-9.6,9.6s4.3,9.6,9.6,9.6h9.4c5.3,0,9.6-4.3,9.6-9.6S129.2,387.9,123.9,387.9z" />
                        <path d="M123.9,416.3h-9.4c-5.3,0-9.6,4.3-9.6,9.6s4.3,9.6,9.6,9.6h9.4c5.3,0,9.6-4.3,9.6-9.6S129.2,416.3,123.9,416.3z" />
                        <path d="M208.8,208.6h-37.8c-5.3,0-9.6,4.3-9.6,9.6s4.3,9.6,9.6,9.6h37.8c5.3,0,9.6-4.3,9.6-9.6S214.1,208.6,208.8,208.6z" />
                        <path d="M208.8,180.3h-37.8c-5.3,0-9.6,4.3-9.6,9.6c0,5.3,4.3,9.6,9.6,9.6h37.8c5.3,0,9.6-4.3,9.6-9.6
                C218.4,184.6,214.1,180.3,208.8,180.3z" />
                        <path d="M246.6,180.3h-9.4c-5.3,0-9.6,4.3-9.6,9.6c0,5.3,4.3,9.6,9.6,9.6h9.4c5.3,0,9.6-4.3,9.6-9.6
                C256.2,184.6,251.9,180.3,246.6,180.3z" />
                        <path d="M246.6,208.6h-9.4c-5.3,0-9.6,4.3-9.6,9.6s4.3,9.6,9.6,9.6h9.4c5.3,0,9.6-4.3,9.6-9.6S251.9,208.6,246.6,208.6z" />
                        <path d="M331.5,416.3h-37.8c-5.3,0-9.6,4.3-9.6,9.6s4.3,9.6,9.6,9.6h37.8c5.3,0,9.6-4.3,9.6-9.6S336.8,416.3,331.5,416.3z" />
                        <path d="M331.5,387.9h-37.8c-5.3,0-9.6,4.3-9.6,9.6s4.3,9.6,9.6,9.6h37.8c5.3,0,9.6-4.3,9.6-9.6S336.8,387.9,331.5,387.9z" />
                        <path d="M369.3,387.9h-9.4c-5.3,0-9.6,4.3-9.6,9.6s4.3,9.6,9.6,9.6h9.4c5.3,0,9.6-4.3,9.6-9.6S374.6,387.9,369.3,387.9z" />
                        <path d="M369.3,416.3h-9.4c-5.3,0-9.6,4.3-9.6,9.6s4.3,9.6,9.6,9.6h9.4c5.3,0,9.6-4.3,9.6-9.6S374.6,416.3,369.3,416.3z" />
                    </g>
        </symbol>
        <symbol id="dash-promotions" viewBox="0 -31 512 512">
            <path d="m91 300v150h120v-114.859375l-30-7.5v-27.640625zm0 0" />
            <path d="m181 120h-30v90h-30v-90h-30v90h-30v-90h-61v150h181zm0 0" />
            <path d="m452 0h60v390h-60zm0 0" />
            <path d="m422 33.296875-211 52.484375v218.4375l211 52.484375zm0 0" />
        </symbol>
         <symbol id="meta-tags" viewBox="0 0 512 512">
                <path d="M15,274.5c-17.4,17.4-17.4,45.7,0,63.1L174.4,497c8.4,8.4,19.6,13,31.6,13c11.9,0,23.1-4.6,31.6-13
                    l259.5-259.5c10.3-10.3,15-25.1,12.4-39.5L484.9,63.1c-3.3-18.2-17.8-32.7-36-36L314,2.7c-2.6-0.5-5.3-0.7-7.9-0.7
                    c-11.7,0-23.1,4.6-31.6,13.1L15,274.5z M306.1,28c1.1,0,2.2,0.1,3.3,0.3l134.9,24.4c7.6,1.4,13.6,7.4,15,15l24.4,134.9
                    c1.1,6-0.8,12.1-5.2,16.5L219.1,478.5c-3.5,3.5-8.2,5.4-13.1,5.4c-5,0-9.6-1.9-13.1-5.4L33.5,319.2c-7.3-7.3-7.3-19,0-26.3
                    L292.9,33.5C296.4,30,301.2,28,306.1,28z" />
                <path d="M388.9,83.6c-10.5,0-20.3,4.1-27.6,11.4c-7.4,7.4-11.4,17.2-11.4,27.6c0,10.5,4.1,20.3,11.4,27.6
                    c7.4,7.4,17.2,11.4,27.6,11.4c10.5,0,20.3-4.1,27.6-11.4c7.4-7.4,11.5-17.2,11.5-27.6s-4.1-20.3-11.5-27.7
                    C409.2,87.7,399.4,83.6,388.9,83.6z M398.1,131.9c-2.5,2.5-5.7,3.8-9.2,3.8l0,0c-3.5,0-6.8-1.4-9.2-3.8c-5.1-5.1-5.1-13.4,0-18.5
                    c2.5-2.5,5.7-3.8,9.2-3.8s6.8,1.4,9.2,3.8c2.5,2.5,3.8,5.8,3.8,9.2C402,126.2,400.6,129.5,398.1,131.9z" />
                <g>
                    <g>
                        <path d="M178.8,392.8c-0.1,0-0.3,0-0.4-0.1l-58.3-58.3c-0.1-0.1-0.1-0.2-0.1-0.4s0.1-0.3,0.1-0.4l14.7-14.7
                c0.1-0.1,0.2-0.1,0.4-0.1c0.1,0,0.2,0,0.3,0.1l53,31.7l-31.6-53.1c-0.1-0.2-0.1-0.4,0.1-0.6l14.8-14.8c0.1-0.1,0.2-0.1,0.4-0.1
                s0.3,0,0.4,0.1l58.3,58.3c0.1,0.1,0.1,0.2,0.1,0.4s-0.1,0.3-0.1,0.4l-11.2,11.2c-0.1,0.1-0.2,0.1-0.4,0.1s-0.3,0-0.4-0.1
                l-35.1-35.1l25.1,45.2c0.1,0.2,0.1,0.4-0.1,0.6l-7.6,7.6c-0.1,0.1-0.2,0.1-0.4,0.1c-0.1,0-0.2,0-0.2-0.1l-45-24.7l34.8,34.8
                c0.1,0.1,0.1,0.2,0.1,0.4s-0.1,0.3-0.1,0.4l-11.2,11.2C179,392.8,178.9,392.8,178.8,392.8z" />
                        <path d="M172,282.6l58.3,58.3L219,352.1l-36.7-36.7l-0.3,0.2l26.2,47.3l-7.6,7.6l-46.9-26l-0.2,0.3l36.4,36.4l-11.2,11.2
                l-58.3-58.3l14.7-14.7l54.1,32.4l0.2-0.2l-32.3-54.2L172,282.6 M172,281.6c-0.3,0-0.5,0.1-0.7,0.3l-14.8,14.8
                c-0.3,0.3-0.4,0.8-0.2,1.2l30.6,51.3l-51.3-30.7c-0.2-0.1-0.3-0.1-0.5-0.1c-0.3,0-0.5,0.1-0.7,0.3l-14.7,14.7
                c-0.2,0.2-0.3,0.4-0.3,0.7c0,0.3,0.1,0.5,0.3,0.7l58.3,58.3c0.2,0.2,0.5,0.3,0.7,0.3s0.5-0.1,0.7-0.3l11.2-11.2
                c0.2-0.2,0.3-0.4,0.3-0.7c0-0.3-0.1-0.5-0.3-0.7l-32.3-32.3l41.8,23.2c0.2,0.1,0.3,0.1,0.5,0.1c0.3,0,0.5-0.1,0.7-0.3l7.6-7.6
                c0.3-0.3,0.4-0.8,0.2-1.2l-23.4-42.1l32.6,32.6c0.2,0.2,0.5,0.3,0.7,0.3s0.5-0.1,0.7-0.3l11.2-11.2c0.4-0.4,0.4-1,0-1.4L172.6,282
                C172.5,281.7,172.2,281.6,172,281.6L172,281.6z" />
                    </g>
                    <g>
                        <path d="M240.7,331c-0.1,0-0.3-0.1-0.4-0.1L182,272.5c-0.1-0.1-0.1-0.2-0.1-0.4s0.1-0.3,0.1-0.4l32.5-32.5
                c0.1-0.1,0.2-0.1,0.4-0.1s0.3,0,0.4,0.1l8.8,8.8c0.1,0.1,0.1,0.2,0.1,0.4s-0.1,0.3-0.1,0.4l-20.9,20.9l14.2,14.2l17.5-17.5
                c0.1-0.1,0.2-0.1,0.4-0.1s0.3,0,0.4,0.1l8.8,8.8c0.1,0.1,0.1,0.2,0.1,0.4s-0.1,0.3-0.1,0.4L227,293.5l16.2,16.2l21-21
                c0.1-0.1,0.2-0.1,0.4-0.1s0.3,0.1,0.4,0.1l8.8,8.8c0.2,0.2,0.2,0.5,0,0.7L241,330.8C240.9,330.9,240.8,331,240.7,331z" />
                        <path d="M214.9,239.6l8.8,8.8l-21.3,21.3l14.9,14.9l17.8-17.8l8.8,8.8l-17.8,17.8l16.9,16.9l21.3-21.3l8.8,8.8l-32.6,32.6
                l-58.3-58.3L214.9,239.6 M214.9,238.6c-0.3,0-0.5,0.1-0.7,0.3l-32.5,32.5c-0.4,0.4-0.4,1,0,1.4l58.3,58.3c0.2,0.2,0.5,0.3,0.7,0.3
                s0.5-0.1,0.7-0.3l32.6-32.6c0.2-0.2,0.3-0.4,0.3-0.7c0-0.3-0.1-0.5-0.3-0.7l-8.8-8.8c-0.2-0.2-0.5-0.3-0.7-0.3s-0.5,0.1-0.7,0.3
                l-20.6,20.6l-15.5-15.5l17.1-17.1c0.4-0.4,0.4-1,0-1.4l-8.8-8.8c-0.2-0.2-0.5-0.3-0.7-0.3s-0.5,0.1-0.7,0.3l-17.1,17.1L204,269.7
                l20.5-20.5c0.4-0.4,0.4-1,0-1.4l-8.8-8.8C215.4,238.7,215.2,238.6,214.9,238.6L214.9,238.6z" />
                    </g>
                    <g>
                        <path d="M292.1,279.5c-0.1,0-0.3,0-0.4-0.1l-49.1-49.1l-13,13c-0.1,0.1-0.2,0.1-0.4,0.1s-0.3,0-0.4-0.1l-8.8-8.8
                c-0.2-0.2-0.2-0.5,0-0.7l38.4-38.4c0.1-0.1,0.2-0.1,0.4-0.1s0.3,0.1,0.4,0.1l8.8,8.8c0.2,0.2,0.2,0.5,0,0.7l-13.3,13.3l49.1,49.1
                c0.1,0.1,0.1,0.2,0.1,0.4s-0.1,0.3-0.1,0.4l-11.3,11.3C292.4,279.4,292.3,279.5,292.1,279.5z" />
                        <path d="M258.9,195.7l8.8,8.8L254,218.2l49.4,49.4L292.1,279l-49.4-49.4l-13.3,13.3l-8.8-8.8L258.9,195.7 M258.9,194.7
                c-0.3,0-0.5,0.1-0.7,0.3l-38.4,38.4c-0.4,0.4-0.4,1,0,1.4l8.8,8.8c0.2,0.2,0.4,0.3,0.7,0.3s0.5-0.1,0.7-0.3l12.6-12.6l48.7,48.7
                c0.2,0.2,0.5,0.3,0.7,0.3s0.5-0.1,0.7-0.3l11.3-11.3c0.4-0.4,0.4-1,0-1.4l-48.7-48.7l13-13c0.4-0.4,0.4-1,0-1.4l-8.8-8.8
                C259.4,194.8,259.1,194.7,258.9,194.7L258.9,194.7z" />
                    </g>
                    <g>
                        <path d="M317.3,254.2c-0.2,0-0.3-0.1-0.4-0.3l-41.8-74.8c-0.1-0.2-0.1-0.4,0.1-0.6l11.7-11.7c0.1-0.1,0.2-0.1,0.4-0.1
                c0.1,0,0.2,0,0.2,0.1l74.8,41.8c0.1,0.1,0.2,0.2,0.3,0.4s0,0.3-0.1,0.4l-11.8,11.8c-0.1,0.1-0.2,0.1-0.4,0.1c-0.1,0-0.2,0-0.3-0.1
                l-15.6-9.1l-14,14l9.1,15.6c0.1,0.2,0.1,0.4-0.1,0.6l-11.8,11.8C317.7,254.2,317.5,254.2,317.3,254.2
                C317.4,254.2,317.4,254.2,317.3,254.2z M313.4,214l9-9l-21.7-12.7L313.4,214z" />
                        <path d="M287.3,167.2l74.8,41.8l-11.8,11.8l-15.9-9.3l-14.6,14.6l9.3,15.9l-11.8,11.8L275.5,179L287.3,167.2 M313.3,214.8l9.9-9.9
                l-23.3-13.7l-0.2,0.2L313.3,214.8 M287.3,166.2c-0.3,0-0.5,0.1-0.7,0.3l-11.7,11.7c-0.3,0.3-0.4,0.8-0.2,1.2l41.8,74.8
                c0.2,0.3,0.4,0.5,0.7,0.5h0.1c0.3,0,0.5-0.1,0.7-0.3l11.8-11.8c0.3-0.3,0.4-0.8,0.2-1.2l-8.9-15.2l13.5-13.5l15.3,8.9
                c0.2,0.1,0.3,0.1,0.5,0.1c0.3,0,0.5-0.1,0.7-0.3l11.8-11.8c0.2-0.2,0.3-0.5,0.3-0.8s-0.2-0.6-0.5-0.7l-74.8-41.8
                C287.7,166.2,287.5,166.2,287.3,166.2L287.3,166.2z M313.5,213.2l-11.4-19.5l19.5,11.4L313.5,213.2L313.5,213.2z" />
                    </g>
                </g>
        </symbol>
        <symbol id="url-rewriting" viewBox="0 0 512 512">
            <g>
                <path d="M446.3,321.8c-5.9,0-10.7,4.8-10.7,10.7v16.9c0,5.9,4.8,10.7,10.7,10.7c5.9,0,10.7-4.8,10.7-10.7v-16.9
                    C457,326.6,452.2,321.8,446.3,321.8z" />
                            <path d="M446.3,0H107.6C83,0,63,20,63,44.6v304.8c0,5.9,4.8,10.7,10.7,10.7c5.9,0,10.7-4.8,10.7-10.7V44.6
                    c0-12.8,10.4-23.2,23.2-23.2h338.7c12.8,0,23.2,10.4,23.2,23.2v328h-57c-24.5,0-44.5,20-44.6,44.6v57h-201
                    c-5.9,0-10.7,4.8-10.7,10.7c0,5.9,4.8,10.7,10.7,10.7h211.7c2.9,0,5.5-1.1,7.6-3.1l101.6-101.6c2-2,3.1-4.7,3.1-7.6V44.6
                    C490.8,20,470.8,0,446.3,0z M454.3,394l-65.1,65.1v-41.9c0-12.8,10.4-23.2,23.2-23.2H454.3z" />
                            <path d="M124.5,72.2h16.9c5.9,0,10.7-4.8,10.7-10.7c0-5.9-4.8-10.7-10.7-10.7h-16.9c-5.9,0-10.7,4.8-10.7,10.7
                    C113.8,67.4,118.6,72.2,124.5,72.2z" />
                            <path d="M429.3,50.8h-254c-5.9,0-10.7,4.8-10.7,10.7c0,5.9,4.8,10.7,10.7,10.7h254c5.9,0,10.7-4.8,10.7-10.7
                    C440,55.6,435.2,50.8,429.3,50.8z" />
                            <path d="M124.5,123h16.9c5.9,0,10.7-4.8,10.7-10.7c0-5.9-4.8-10.7-10.7-10.7h-16.9c-5.9,0-10.7,4.8-10.7,10.7
                    C113.8,118.2,118.6,123,124.5,123z" />
                            <path d="M175.3,123h194.8c5.9,0,10.7-4.8,10.7-10.7c0-5.9-4.8-10.7-10.7-10.7H175.3c-5.9,0-10.7,4.8-10.7,10.7
                    C164.6,118.2,169.4,123,175.3,123z" />
                            <path d="M124.5,173.8h16.9c5.9,0,10.7-4.8,10.7-10.7s-4.8-10.7-10.7-10.7h-16.9c-5.9,0-10.7,4.8-10.7,10.7S118.6,173.8,124.5,173.8
                    z" />
                            <path d="M175.3,173.8h50.8c5.9,0,10.7-4.8,10.7-10.7s-4.8-10.7-10.7-10.7h-50.8c-5.9,0-10.7,4.8-10.7,10.7S169.4,173.8,175.3,173.8
                    z" />
                            <path d="M457,180.1c0-5.9-4.8-10.7-10.7-10.7c-5.9,0-10.7,4.8-10.7,10.7v118.5c0,5.9,4.8,10.7,10.7,10.7c5.9,0,10.7-4.8,10.7-10.7
                    V180.1z" />
                            <path d="M355.3,237.9c0-9.6-3.8-18.7-10.6-25.5l-23.9-23.9c-6.8-6.8-15.9-10.6-25.5-10.6c-9.6,0-18.7,3.8-25.5,10.6l-41.9,41.9
                    L54.2,404c-1.1,1.1-1.9,2.4-2.4,3.8l-29.4,78.3c-2.2,5.9-1.4,12.4,2.2,17.6c3.6,5.2,9.4,8.2,15.7,8.3c2.3,0,4.6-0.4,6.8-1.2
                    l78.4-29.4l1.4-0.6v-0.1c0.9-0.5,1.7-1.1,2.4-1.8l215.5-215.5C351.6,256.6,355.3,247.5,355.3,237.9z M177.1,371.2
                    c4-4.2,4-10.9-0.1-15c-4.1-4.1-10.8-4.2-15-0.1l-70.3,70.3l-14.8-14.8L235.4,253l14.8,14.8L192,326.1c-2.8,2.7-3.9,6.7-2.9,10.4
                    c1,3.7,3.9,6.7,7.6,7.6c3.7,1,7.7-0.1,10.4-2.9l58.3-58.3l14.8,14.8L121.7,456.3l-14.8-14.8L177.1,371.2z M102.3,467.2L44.2,489
                    L66,430.8L102.3,467.2z M304.1,273.8l-8.8,8.8l-44.7-44.7l8.8-8.8L304.1,273.8z M333.9,237.9c0,3.9-1.5,7.6-4.3,10.4l-10.4,10.4
                    l-44.7-44.7l10.4-10.4c5.9-5.6,15-5.6,20.8,0l23.9,23.9C332.4,230.2,333.9,233.9,333.9,237.9z" />
            </g>
        </symbol>
        <symbol id="dash-my-subscriptions" viewBox="0 0 612 612" style="enable-background:new 0 0 612 612;">
            <g>
                <path d="M310.634,43.714H297.17c-7.194,0-13.026-5.833-13.026-13.026V30.25C284.144,13.543,270.6,0,253.893,0h-0.699
            c-16.707,0-30.25,13.543-30.25,30.25v0.438c0,7.194-5.833,13.027-13.026,13.027h-13.464c-14.341,0-25.966,11.625-25.966,25.966
            v0.525c0,14.341,11.625,25.966,25.966,25.966h114.183c14.34,0,25.965-11.626,25.965-25.966V69.68
            C336.601,55.34,324.976,43.714,310.634,43.714z M253.543,43.714c-7.243,0-13.114-5.872-13.114-13.114
            c0-7.243,5.872-13.115,13.114-13.115c7.243,0,13.114,5.872,13.114,13.115C266.657,37.843,260.786,43.714,253.543,43.714z
             M311.929,550.8H91.8c-19.314,0-34.971-15.657-34.971-34.971V96.171c0-19.314,15.657-34.971,26.228-34.971h70.854
            c-0.591,2.904-0.91,5.914-0.91,9.008c0,23.958,19.492,43.45,43.454,43.45h114.178c23.963,0,43.453-19.492,43.453-43.979
            c0-2.903-0.311-5.733-0.855-8.479h53.312c28.059,0,43.715,15.657,43.715,34.971v262.728c-2.906-0.181-5.791-0.442-8.742-0.442
            c-12.094,0-23.771,1.704-34.973,4.604V157.371H100.543v349.715h201.528C303.029,522.453,306.387,537.162,311.929,550.8z
             M441.515,384.686c-62.771,0-113.656,50.887-113.656,113.657S378.743,612,441.515,612s113.656-50.887,113.656-113.657
            S504.286,384.686,441.515,384.686z M515.782,474.991l-69.943,78.686c-3.445,3.877-8.244,5.865-13.076,5.865
            c-3.838,0-7.697-1.255-10.916-3.833l-43.715-34.971c-7.539-6.028-8.764-17.034-2.727-24.573c6.027-7.547,17.037-8.769,24.576-2.731
            l30.748,24.598l58.916-66.28c6.408-7.215,17.465-7.872,24.684-1.451C521.55,456.721,522.198,467.769,515.782,474.991z M362.829,306
            H222.944c-4.829,0-8.743-3.915-8.743-8.743v-8.743c0-4.829,3.914-8.743,8.743-8.743h139.885c4.828,0,8.744,3.915,8.744,8.743v8.743
            C371.571,302.085,367.657,306,362.829,306z M362.829,227.314H222.944c-4.829,0-8.743-3.915-8.743-8.743v-8.743
            c0-4.829,3.914-8.743,8.743-8.743h139.885c4.828,0,8.744,3.915,8.744,8.743v8.743C371.571,223.4,367.657,227.314,362.829,227.314z
             M319.114,375.943h-96.17c-4.829,0-8.743-3.915-8.743-8.743v-8.743c0-4.829,3.914-8.743,8.743-8.743h96.17
            c4.83,0,8.744,3.914,8.744,8.743v8.743C327.856,372.028,323.944,375.943,319.114,375.943z M301.629,454.629h-78.686
            c-4.829,0-8.743-3.915-8.743-8.743v-8.743c0-4.829,3.914-8.743,8.743-8.743h78.686c4.829,0,8.743,3.914,8.743,8.743v8.743
            C310.372,450.714,306.458,454.629,301.629,454.629z M197.461,194.981l-32.199,36.224c-1.586,1.785-3.795,2.701-6.02,2.701
            c-1.767,0-3.543-0.578-5.025-1.765l-20.125-16.099c-3.471-2.775-4.034-7.841-1.256-11.312c2.774-3.475,7.844-4.037,11.314-1.258
            l14.155,11.323l27.123-30.513c2.95-3.321,8.04-3.624,11.363-0.668C200.117,186.57,200.415,191.656,197.461,194.981z
             M197.461,272.767l-32.199,36.223c-1.586,1.785-3.795,2.7-6.02,2.7c-1.767,0-3.543-0.577-5.025-1.765l-20.125-16.099
            c-3.471-2.775-4.034-7.841-1.256-11.312c2.774-3.475,7.844-4.037,11.314-1.258l14.155,11.324l27.123-30.513
            c2.95-3.321,8.04-3.624,11.363-0.667C200.117,264.355,200.415,269.442,197.461,272.767z M197.461,347.156l-32.199,36.224
            c-1.586,1.784-3.795,2.7-6.02,2.7c-1.767,0-3.543-0.577-5.025-1.765l-20.125-16.1c-3.471-2.774-4.034-7.841-1.256-11.312
            c2.774-3.475,7.844-4.037,11.314-1.258l14.155,11.323l27.123-30.513c2.95-3.321,8.04-3.624,11.363-0.668
            C200.117,338.745,200.415,343.831,197.461,347.156z M197.461,422.07l-32.199,36.224c-1.586,1.785-3.795,2.7-6.02,2.7
            c-1.767,0-3.543-0.577-5.025-1.765l-20.125-16.1c-3.471-2.774-4.034-7.841-1.256-11.312c2.774-3.475,7.844-4.037,11.314-1.258
            l14.155,11.323l27.123-30.513c2.95-3.321,8.04-3.624,11.363-0.668C200.117,413.659,200.415,418.746,197.461,422.07z" />
            </g>
        </symbol>
        <symbol id="dash-subscription-packages" viewBox="0 0 448 448.008">
            <path d="m248.003906 248c4.417969 0 8-3.582031 8-8s-3.582031-8-8-8h-48c-4.417968 0-8 3.582031-8 8s3.582032 8 8 8zm0 0" />
            <path d="m208.46875 285.710938c5.402344-4.578126 12.546875-6.550782 19.535156-5.390626 11.726563 2.261719 20.148438 12.59375 20 24.535157v-.855469h64c4.417969 0 8-3.582031 8-8v-288c0-4.417969-3.582031-8-8-8h-176c-4.417968 0-8 3.582031-8 8v288c0 4.417969 3.582032 8 8 8h64c-.007812-7.042969 3.089844-13.734375 8.464844-18.289062zm63.535156-149.710938h-56v-16h56zm-56-40v-32h16v32zm32 0v-32h16v32zm32-32h16v32h-16zm-72-40h64v16h-64zm-32 0h16v16h-16zm24 40v32h-16v-32zm-24 56h24v16h-24zm0 32h96v16h-96zm80 32v16h-64v-16zm-88-88h-16v-32h16zm8 144c0-13.253906 10.746094-24 24-24h48c13.253906 0 24 10.746094 24 24s-10.746094 24-24 24h-48c-13.253906 0-24-10.746094-24-24zm0 0" />
            <path d="m321.402344 360.121094c-2.328125-.414063-4.722656.222656-6.539063 1.746094-1.8125 1.519531-2.859375 3.765624-2.859375 6.132812 0 4.417969-3.582031 8-8 8-4.417968 0-8-3.582031-8-8s-3.582031-8-8-8c-4.417968 0-8 3.582031-8 8s-3.582031 8-8 8c-4.417968 0-8-3.582031-8-8s-3.582031-8-8-8c-4.417968 0-8 3.582031-8 8s-3.582031 8-8 8c-4.417968 0-8-3.582031-8-8v-63.144531c.152344-4.109375-2.605468-7.757813-6.601562-8.734375-2.328125-.414063-4.722656.222656-6.539063 1.746094-1.8125 1.519531-2.859375 3.765624-2.859375 6.132812v112c0 2.882812-1.550781 5.542969-4.0625 6.960938-2.507812 1.421874-5.585937 1.378906-8.058594-.105469l-33.351562-20c-1.789062-1.082031-4.011719-1.164063-5.878906-.222657l-1.273438.625c-1.917968.964844-3.1875 2.867188-3.351562 5.007813-.164063 2.144531.804687 4.214844 2.550781 5.460937l48 34.28125h117.425781v-79.152343c.152344-4.109375-2.605468-7.757813-6.601562-8.734375zm0 0" />
            <path d="m8.003906 32c-4.417968 0-7.99999975 3.582031-7.99999975 8v224c0 4.417969 3.58203175 8 7.99999975 8h88v-240zm24 16h16v16h-16zm32 40v24h-16v-24zm-48 0h16v24h-16zm64 128h-32c-4.417968 0-8 3.582031-8 8s3.582032 8 8 8h32v16h-32c-13.253906 0-24-10.746094-24-24s10.746094-24 24-24h32zm0-32h-16v-16h16zm0-32h-32v-16h32zm0-88h-16v-16h16zm0 0" />
            <path d="m440.003906 32h-88v240h88c4.417969 0 8-3.582031 8-8v-224c0-4.417969-3.582031-8-8-8zm-72 16h40v16h-40zm32 40v24h-16v-24zm-32 48h24v16h-24zm0 32h16v16h-16zm32 80h-32v-16h32c4.417969 0 8-3.582031 8-8s-3.582031-8-8-8h-32v-16h32c13.253906 0 24 10.746094 24 24s-10.746094 24-24 24zm32-136h-16v-24h16zm0 0" />
        </symbol>
        <symbol id="dash-offers" viewBox="0 0 512 512" style="enable-background:new 0 0 512 512;">
            <g>
                <path d="M120.191,206.412c-4.329,0-8.658,3.936-8.658,17.12c0,13.184,4.329,17.12,8.658,17.12s8.658-3.936,8.658-17.12   C128.85,210.348,124.521,206.412,120.191,206.412z" />
                <path d="M221.139,305.588c4.329,0,8.658-3.936,8.658-17.12c0-13.184-4.329-17.12-8.658-17.12s-8.658,3.936-8.658,17.12   C212.48,301.652,216.81,305.588,221.139,305.588z" />
                <path d="M495.945,174.999L512,175.426v-83.76H0v328.667h512v-83.76l-15.396,0.406L495.96,337   c-12.296-0.022-22.293-10.032-22.293-22.333c0-12.315,10.018-22.333,22.278-22.334L512,292.76v-73.52l-15.396,0.406l-0.604,0.02   c-12.315,0-22.333-10.019-22.333-22.333C473.667,185.019,483.685,175,495.945,174.999z M337,279.704v-47.407h30v47.407H337z    M367,312.259v47.408h-30v-47.408H367z M337,199.741v-47.408h30v47.408H337z M201.067,187.128h33.255l-94.06,137.744h-33.255   L201.067,187.128z M83.591,223.532c0-24.4,15.742-38.371,36.601-38.371s36.601,13.971,36.601,38.371   c0,24.597-15.742,38.372-36.601,38.372S83.591,248.129,83.591,223.532z M221.139,250.097c20.858,0,36.601,13.971,36.601,38.372   c0,24.597-15.742,38.372-36.601,38.372s-36.601-13.774-36.601-38.372C184.538,264.068,200.28,250.097,221.139,250.097z" />
            </g>
        </symbol>
        <symbol id="dash-sales-report" viewBox="0 0 491.519 491.519" style="enable-background:new 0 0 491.519 491.519;">
            <g>
                <g>
                    <path d="M75.672,0l-0.266,491.333l340.441,0.186l0.266-491.335L75.672,0z M288.497,117.078l85.715-0.24c0.008,0,0.016,0,0.023,0
			c4.371,0,7.917,3.538,7.928,7.905c0.011,4.382-3.526,7.935-7.904,7.952l-85.715,0.24c-0.008,0-0.016,0-0.023,0
			c-4.371,0-7.917-3.54-7.928-7.905C280.581,120.648,284.119,117.095,288.497,117.078z M280.597,95.533
			c-0.012-4.382,3.527-7.935,7.904-7.95l85.715-0.24c0.008,0,0.015,0,0.023,0c4.371,0,7.917,3.536,7.928,7.905
			c0.012,4.38-3.527,7.935-7.904,7.95l-85.715,0.24c-0.008,0-0.015,0-0.023,0C284.154,103.438,280.608,99.9,280.597,95.533z
			 M288.493,146.583l85.719-0.24c0.008,0,0.016,0,0.023,0c4.371,0,7.917,3.538,7.928,7.905c0.011,4.382-3.526,7.935-7.904,7.95
			l-85.719,0.24c-0.008,0-0.015,0-0.023,0c-4.371,0-7.917-3.537-7.928-7.903C280.578,150.151,284.116,146.598,288.493,146.583z
			 M250.984,27.999l16.775,0.009l-0.009,16.774l-16.774-0.009L250.984,27.999z M250.972,57.496l16.774,0.012l-0.009,16.774
			l-16.774-0.009L250.972,57.496z M250.96,86.998l16.773,0.009l-0.009,16.775l-16.774-0.012L250.96,86.998z M250.946,116.495
			l16.774,0.011l-0.01,16.772l-16.774-0.009L250.946,116.495z M250.933,145.994l16.774,0.01l-0.01,16.775l-16.772-0.009
			L250.933,145.994z M175.386,37.115c14.301,0.012,27.244,5.813,36.61,15.192c9.367,9.375,15.156,22.325,15.148,36.626
			c-0.007,14.302-5.811,27.244-15.187,36.611c-9.377,9.367-22.326,15.156-36.627,15.148h-0.001
			c-14.301-0.008-27.244-5.811-36.61-15.187l36.639-36.598L138.76,52.265C148.136,42.9,161.086,37.111,175.386,37.115z
			 M116.104,59.416l29.44,29.471l-29.472,29.441c-7.534-7.545-12.192-17.958-12.185-29.463
			C103.893,77.362,108.561,66.95,116.104,59.416z M323.392,379.752c0.002-3.765,3.056-6.818,6.821-6.814
			c0.089,0,0.163,0.048,0.252,0.052l13.834-34.02c0.591-1.447,2.235-2.145,3.686-1.556c1.448,0.587,2.143,2.239,1.556,3.684
			l-14.043,34.528c0.904,1.159,1.53,2.55,1.529,4.133c-0.002,3.765-3.056,6.818-6.821,6.815c-1.272-0.002-2.394-0.444-3.412-1.048
			l-26.798,15.032c-0.203,3.587-3.112,6.452-6.748,6.448c-3.361,0-6.024-2.478-6.585-5.679l-26.553-10.552
			c-1.251,1.535-3.08,2.578-5.215,2.576c-1.589,0-2.986-0.631-4.145-1.544l-22.017,16.951c0.011,0.158,0.091,0.293,0.091,0.454
			c-0.002,3.767-3.056,6.818-6.821,6.816c-3.581-0.002-6.434-2.794-6.71-6.304l-38.605-18.716c-1.249,1.389-3.013,2.299-5.028,2.296
			c-0.858,0-1.663-0.198-2.419-0.489l-29.332,36.081c-0.558,0.688-1.375,1.043-2.198,1.043c-0.627,0-1.256-0.208-1.78-0.634
			c-1.213-0.986-1.396-2.767-0.411-3.978l29.773-36.624c-0.245-0.703-0.447-1.431-0.446-2.218c0.002-3.765,3.056-6.814,6.821-6.814
			c3.41,0.003,6.112,2.55,6.612,5.82l38.935,18.877c1.233-1.221,2.925-1.977,4.795-1.977c1.489,0,2.792,0.578,3.914,1.388
			l22.19-17.083c-0.001-0.058-0.033-0.107-0.033-0.167c0.002-3.765,3.057-6.814,6.822-6.814c3.298,0.004,5.918,2.392,6.549,5.503
			l26.676,10.603c1.251-1.47,3.048-2.451,5.128-2.449c1.805,0,3.421,0.731,4.64,1.879l25.713-14.423
			C323.549,380.462,323.391,380.134,323.392,379.752z M257.22,297.714l-138.344,0.084h-0.004c-4.378,0-7.923-3.545-7.927-7.92
			c-0.004-4.382,3.546-7.935,7.924-7.935l138.344-0.084h0.004c4.378,0,7.923,3.546,7.927,7.92
			C265.148,294.158,261.598,297.714,257.22,297.714z M374.088,461.593h-0.004l-255.154-0.139c-4.378-0.008-7.924-3.553-7.92-7.936
			l0.073-136.489c0.004-4.375,3.55-7.92,7.928-7.92h0.004c4.378,0,7.927,3.553,7.924,7.935l-0.07,128.562l247.222,0.131
			c4.378,0,7.927,3.554,7.924,7.935C382.012,458.048,378.466,461.593,374.088,461.593z M374.096,264.183h-0.004l-255.177-0.139
			c-4.378,0-7.928-3.553-7.924-7.936c0.004-4.373,3.55-7.92,7.928-7.92h0.004l255.177,0.141c4.378,0,7.928,3.554,7.923,7.935
			C382.019,260.637,378.474,264.183,374.096,264.183z M374.196,230.536h-0.004l-255.177-0.139c-4.378,0-7.928-3.553-7.924-7.935
			c0.004-4.375,3.55-7.92,7.928-7.92h0.004L374.2,214.68c4.378,0,7.927,3.554,7.924,7.935
			C382.121,226.99,378.574,230.536,374.196,230.536z M374.243,196.891h-0.005l-255.173-0.133c-4.378,0-7.928-3.553-7.924-7.935
			c0.004-4.375,3.55-7.92,7.927-7.92h0.004l255.174,0.131c4.378,0,7.927,3.554,7.923,7.937
			C382.167,193.343,378.621,196.891,374.243,196.891z M374.266,73.7l-85.715,0.24c-0.008,0-0.015,0-0.024,0
			c-4.37,0-7.916-3.538-7.927-7.905c-0.012-4.381,3.527-7.935,7.905-7.95l85.714-0.24c0.008,0,0.015,0,0.024,0
			c4.37,0,7.916,3.537,7.927,7.905C382.182,70.132,378.644,73.686,374.266,73.7z M374.266,44.195l-85.715,0.24
			c-0.008,0-0.015,0-0.024,0c-4.37,0-7.916-3.537-7.927-7.903c-0.012-4.381,3.527-7.937,7.905-7.952l85.714-0.24
			c0.008,0,0.015,0,0.024,0c4.37,0,7.916,3.537,7.927,7.905C382.182,40.627,378.644,44.181,374.266,44.195z" />
                </g>
            </g>
        </symbol>
        <symbol id="dash-product-performance" viewBox="0 0 512 512" style="enable-background:new 0 0 512 512;">
            <g>
                <path d="M90.385,337.5c2.486,28.023,11.936,54.634,27.756,78h275.719c15.82-23.366,25.27-49.977,27.756-78h-35.282v-30h35.264   c-3.109-34.603-16.857-66.183-37.949-91.436l-24.883,24.883l-21.213-21.213l24.883-24.883   c-25.253-21.091-56.833-34.839-91.435-37.948v35.263h-30v-35.263c-34.603,3.109-66.183,16.857-91.435,37.948l24.882,24.882   l-21.213,21.213l-24.882-24.882c-21.091,25.253-34.84,56.833-37.948,91.436h35.263v30H90.385z M241,281.217v-58.795h30v58.795   c17.764,6.216,30.544,23.136,30.544,42.994c0,19.859-12.78,36.779-30.544,42.995v24.55h-30v-24.55   c-17.764-6.216-30.544-23.136-30.544-42.994C210.456,304.352,223.236,287.432,241,281.217z" />
                <path d="M256,339.755c8.571,0,15.544-6.973,15.544-15.544c0-8.571-6.973-15.544-15.544-15.544c-8.571,0-15.544,6.973-15.544,15.544   C240.456,332.782,247.429,339.755,256,339.755z" />
                <path d="M437.02,141.48C388.667,93.129,324.38,66.5,256,66.5S123.333,93.129,74.98,141.48C26.629,189.833,0,254.12,0,322.5   c0,40.311,9.121,78.912,27.108,114.731l4.152,8.269h71.593l-4.498-6.055c-25.276-34.021-38.636-74.46-38.636-116.945   c0-108.229,88.051-196.281,196.281-196.281S452.281,214.271,452.281,322.5c0,42.486-13.36,82.925-38.636,116.946l-4.499,6.054   h71.593l4.152-8.269C502.88,401.413,512,362.812,512,322.5C512,254.12,485.371,189.833,437.02,141.48z" />
            </g>
        </symbol>
        <symbol id="dash-product-inventory" viewBox="0 0 512 512" style="enable-background:new 0 0 512 512;">
            <g>
                <g>
                    <polygon points="180.572,271.12 180.572,321.148 150.572,321.148 150.572,271.12 90.072,271.12 90.072,392.12 241.072,392.12
                        241.072,271.12 		" />
                </g>
            </g>
            <g>
                <g>
                    <polygon points="361.428,271.12 361.428,321.148 331.428,321.148 331.428,271.12 270.928,271.12 270.928,392.12 421.928,392.12
                        421.928,271.12 		" />
                </g>
            </g>
            <g>
                <g>
                    <polygon points="180.572,30.024 180.572,80.051 150.572,80.051 150.572,30.024 90.072,30.024 90.072,151.024 241.072,151.024
                        241.072,30.024 		" />
                </g>
            </g>
            <g>
                <g>
                    <polygon points="361.428,30.024 361.428,80.051 331.428,80.051 331.428,30.024 270.928,30.024 270.928,151.024 421.928,151.024
                        421.928,30.024 		" />
                </g>
            </g>
            <g>
                <g>
                    <path d="M512,241.072v-60.048h-30h-0.023V0h-30v181.023H60.025V0h-30v181.023H30H0v60.048h30.025V422.12H30H0v60.048h30.025V512
                        h30v-29.832h391.952V512h30v-29.832H512V422.12h-30h-0.023V241.072H512z M451.977,422.12H60.025V241.072h391.952V422.12z" />
                </g>
            </g>
        </symbol>
        <symbol id="dash-product-inventory-stock" viewBox="-71 0 446 446.632">
            <path d="m.316406 54.632812v392h304v-392h-80v8c0 13.253907-10.746094 24-24 24h-96c-13.253906 0-24-10.746093-24-24v-8zm32 80h16v48h56v16h-72zm48 155.3125-29.65625-29.65625 11.3125-11.3125 18.34375 18.34375 42.34375-42.34375 11.3125 11.3125zm53.65625 58.34375-53.65625 53.65625-29.65625-29.65625 11.3125-11.3125 18.34375 18.34375 42.34375-42.34375zm-101.65625-101.65625h16v48h56v16h-72zm72 176h-72v-64h16v48h56zm160 0h-136v-16h136zm-128-240h128v16h-128zm0 112h128v16h-128zm-13.65625-181.65625 11.3125 11.3125-53.65625 53.65625-29.65625-29.65625 11.3125-11.3125 18.34375 18.34375zm0 0" />
            <path d="m96.316406 62.632812c0 4.417969 3.582032 8 8 8h96c4.417969 0 8-3.582031 8-8v-40h-41.367187v-8c0-8.082031-6.550781-14.632812-14.632813-14.632812-8.082031 0-14.632812 6.550781-14.632812 14.632812v8h-41.367188zm16-24h80v16h-80zm0 0" />
        </symbol>
         <symbol id="dash-account" viewBox="0 0 299.997 299.997" style="enable-background:new 0 0 299.997 299.997;">
            <g>
                <g>
                    <path d="M149.996,0C67.157,0,0.001,67.158,0.001,149.997c0,82.837,67.156,150,149.995,150s150-67.163,150-150
                C299.996,67.156,232.835,0,149.996,0z M150.453,220.763v-0.002h-0.916H85.465c0-46.856,41.152-46.845,50.284-59.097l1.045-5.587
                c-12.83-6.502-21.887-22.178-21.887-40.512c0-24.154,15.712-43.738,35.089-43.738c19.377,0,35.089,19.584,35.089,43.738
                c0,18.178-8.896,33.756-21.555,40.361l1.19,6.349c10.019,11.658,49.802,12.418,49.802,58.488H150.453z" />
                </g>
            </g>
        </symbol>
        <symbol id="dash-messages" viewBox="0 0 512 512">
            <path d="M115.916,361H467V90H45V421.736l66.524-58.726A6.75,6.75,0,0,1,115.916,361ZM127,162H271a7,7,0,0,1,0,14H127a7,7,0,0,1,0-14Zm0,57H385a7,7,0,0,1,0,14H127a7,7,0,0,1,0-14Zm0,57H385a7,7,0,0,1,0,14H127a7,7,0,0,1,0-14Z" />
        </symbol>
        <symbol id="dash-credits" viewBox="0 0 512 512" style="enable-background:new 0 0 512 512;">
            <g>
                <rect y="61" width="512" height="60" />
                <path d="M330,301c-16.538,0-30,13.462-30,30s13.462,30,30,30s30-13.462,30-30S346.538,301,330,301z" />
                <rect y="151" width="512" height="30" />
                <rect x="90" y="331" width="60" height="30" />
                <path d="M0,211v240h512V211H0z M180,391H60v-90h120V391z M240,271H60v-30h180V271z M390,391c-10.717,0-21.081-2.926-30.187-8.242   C350.995,387.86,340.902,391,330,391c-33.091,0-60-26.909-60-60s26.909-60,60-60c10.902,0,20.995,3.14,29.813,8.242   C368.919,273.926,379.283,271,390,271c33.091,0,60,26.909,60,60S423.091,391,390,391z" />
                <path d="M390,301c-2.618,0-5.099,0.738-7.586,1.395C387.096,310.937,390,320.589,390,331s-2.904,20.063-7.586,28.605   c2.487,0.657,4.968,1.395,7.586,1.395c16.538,0,30-13.462,30-30S406.538,301,390,301z" />
            </g>
        </symbol>
        <symbol id="dash-change-email" viewBox="0 0 395 395" style="enable-background:new 0 0 395 395;">
            <g>
                <polygon points="395,320.089 395,74.911 258.806,197.5 	" />
                <polygon points="197.5,252.682 158.616,217.682 22.421,340.271 372.579,340.271 236.384,217.682 	" />
                <polygon points="372.579,54.729 22.421,54.729 197.5,212.318 	" />
                <polygon points="0,74.911 0,320.089 136.194,197.5 	" />
            </g>
        </symbol>
        <symbol id="dash-import-export" viewBox="0 0 427.484 427.484" style="enable-background:new 0 0 427.484 427.484;">
            <g>
                <path d="M405.943,290.254L302.096,425.338c-1.04,1.354-2.66,2.146-4.374,2.146c-1.702,0-3.321-0.798-4.368-2.146L189.511,290.254
            c-0.769-0.993-1.144-2.176-1.144-3.357c0-1.152,0.364-2.329,1.108-3.322c1.499-1.975,4.125-2.707,6.434-1.809l68.76,27.166V21.01
            c0-3.047,2.477-5.503,5.515-5.503h55.106c3.038,0,5.509,2.456,5.509,5.503v287.922l68.76-27.166
            c2.305-0.898,4.93-0.166,6.419,1.809C407.473,285.561,407.461,288.28,405.943,290.254z M238.012,143.913
            c0.744-0.993,1.105-2.167,1.105-3.322c0-1.176-0.379-2.367-1.142-3.36L134.125,2.148C133.081,0.792,131.458,0,129.759,0
            c-1.714,0-3.328,0.798-4.377,2.148L21.539,137.23c-1.519,1.969-1.525,4.69-0.03,6.683c1.487,1.968,4.114,2.707,6.419,1.803
            l68.766-27.163v287.919c0,3.05,2.462,5.509,5.506,5.509h55.109c3.041,0,5.515-2.459,5.515-5.509V118.552l68.763,27.163
            C233.886,146.62,236.51,145.88,238.012,143.913z" />
            </g>
        </symbol>
        <symbol id="language" viewBox="0 0 511.999 511.999">
            <path d="M436.921,75.079C389.413,27.571,326.51,1.066,259.464,0.18C258.296,0.074,257.137,0,255.999,0s-2.297,0.074-3.465,0.18
			C185.488,1.065,122.585,27.57,75.077,75.078C26.752,123.405,0.138,187.657,0.138,255.999s26.614,132.595,74.94,180.921
			c47.508,47.508,110.41,74.013,177.457,74.898c1.168,0.107,2.327,0.18,3.464,0.18c1.138,0,2.297-0.074,3.465-0.18
			c67.047-0.885,129.95-27.39,177.457-74.898c48.325-48.325,74.939-112.577,74.939-180.921
			C511.861,187.657,485.247,123.405,436.921,75.079z M96.586,96.587c27.181-27.181,60.086-46.552,95.992-57.018
			c-8.093,9.317-15.96,20.033-23.282,31.908c-9.339,15.146-17.425,31.562-24.196,48.919H75.865
			C82.165,112.063,89.071,104.102,96.586,96.587z M56.486,150.813h78.373c-8.15,28.522-12.97,58.908-14.161,89.978H31.071
			C33.176,208.987,41.865,178.465,56.486,150.813z M56.487,361.186c-14.623-27.652-23.312-58.174-25.417-89.978h89.627
			c1.191,31.071,6.011,61.457,14.161,89.978H56.487z M96.587,415.412c-7.517-7.515-14.423-15.475-20.722-23.809h69.236
			c6.771,17.357,14.856,33.773,24.196,48.919c7.322,11.875,15.189,22.591,23.282,31.908
			C156.674,461.964,123.769,442.593,96.587,415.412z M240.79,475.322c-12.671-8.29-29.685-24.946-45.605-50.764
			c-6.385-10.354-12.124-21.382-17.197-32.954h62.801V475.322z M240.79,361.186h-74.195c-8.888-28.182-14.163-58.651-15.459-89.978
			h89.654V361.186z M240.79,240.791h-89.654c1.295-31.327,6.57-61.797,15.459-89.978h74.195V240.791z M240.79,120.395h-62.801
			c5.073-11.572,10.812-22.6,17.197-32.954c15.919-25.818,32.934-42.475,45.605-50.764V120.395z M455.512,150.813
			c14.623,27.653,23.311,58.174,25.416,89.978H391.3c-1.191-31.071-6.011-61.457-14.161-89.978H455.512z M415.413,96.587
			c7.515,7.515,14.421,15.476,20.721,23.809h-69.235c-6.771-17.357-14.856-33.773-24.196-48.919
			c-7.322-11.875-15.188-22.591-23.282-31.908C355.326,50.035,388.231,69.406,415.413,96.587z M271.208,36.677
			c12.671,8.29,29.685,24.946,45.605,50.764c6.385,10.354,12.124,21.382,17.197,32.954h-62.801V36.677z M271.208,150.813h74.195
			c8.889,28.182,14.164,58.653,15.459,89.978h-89.654V150.813z M360.861,271.208c-1.295,31.327-6.57,61.797-15.459,89.978h-74.195
			v-89.978H360.861z M271.208,475.322v-83.718h62.801c-5.073,11.572-10.812,22.6-17.197,32.954
			C300.893,450.377,283.879,467.032,271.208,475.322z M415.413,415.413c-27.182,27.181-60.086,46.551-95.992,57.018
			c8.093-9.317,15.96-20.033,23.282-31.908c9.339-15.146,17.425-31.562,24.196-48.919h69.235
			C429.835,399.937,422.928,407.898,415.413,415.413z M455.512,361.186h-78.373c8.15-28.521,12.971-58.907,14.161-89.978h89.627
			C478.822,303.012,470.133,333.534,455.512,361.186z" />
        </symbol>
        <symbol id="currency" viewBox="0 0 512 512">
            <g>
                <g>
                    <path d="M437.02,74.98C388.668,26.628,324.38,0,256,0S123.332,26.628,74.98,74.98C26.629,123.332,0,187.62,0,256
			s26.629,132.668,74.98,181.02C123.332,485.372,187.62,512,256,512s132.668-26.628,181.02-74.98
			C485.371,388.668,512,324.38,512,256S485.371,123.332,437.02,74.98z M256,482C131.383,482,30,380.617,30,256S131.383,30,256,30
			s226,101.383,226,226S380.617,482,256,482z" />
                </g>
            </g>
            <g>
                <g>
                    <path d="M272.067,241h-32.134c-18.307,0-33.2-14.893-33.2-33.199c0-18.307,14.894-33.2,33.2-33.2H304.2c8.284,0,15-6.716,15-15
			s-6.716-15-15-15H271v-33.2c0-8.284-6.716-15-15-15s-15,6.716-15,15v33.2h-1.066c-34.849,0-63.2,28.352-63.2,63.2
			c0,34.848,28.352,63.199,63.2,63.199h32.134c18.306,0,33.199,14.894,33.199,33.2c0,18.306-14.893,33.2-33.199,33.2h-64.267
			c-8.284,0-15,6.716-15,15s6.716,15,15,15H241v33.201c0,8.284,6.716,15,15,15s15-6.716,15-15V367.4h1.067
			c34.848,0,63.199-28.352,63.199-63.2S306.915,241,272.067,241z" />
                </g>
            </g>
        </symbol>
        <symbol id="dash-order" viewBox="0 0 511.176 511.176">
            <g>
                <g>
                    <path d="M361,242c-74.443,0-135,60.557-135,135s60.557,135,135,135s135-60.557,135-135S435.443,242,361,242z M346,428.211
                    l-55.605-55.605l21.211-21.211L346,385.789l64.395-64.395l21.211,21.211L346,428.211z" />
                </g>
            </g>
            <g>
                <g>
                    <rect x="196" width="90" height="152" />
                </g>
            </g>
            <g>
                <g>
                    <path d="M316,0v182H166V0H16v452h198.215C202.656,429.467,196,404.017,196,377c0-90.981,74.019-165,165-165
			c39.855,0,76.452,14.209,105,37.82V0H316z M166,392H76v-30h90V392z" />
                </g>
            </g>
        </symbol>
        <symbol id="dash-downloads" viewBox="0 0 15 15" style="enable-background:new 0 0 15 15;">
            <g>
                <g>
                    <polygon points="12.5,10 12.5,13 2.5,13 2.5,10 0.5,10 0.5,13 0.5,15 14.5,15 14.5,13 14.5,10 		" />
                    <polygon points="11.5,7 9.5,7 9.5,0 5.5,0 5.5,7 3.5,7 7.5,12 		" />
                </g>
            </g>
        </symbol>
        <symbol id="dash-reward-points" viewBox="0 0 512 512" style="enable-background:new 0 0 512 512;">
            <g>
                <path d="M443.467,307.206c-3.159-35.942-17.027-70.369-40.105-99.56l-75.611-95.639H184.249l-75.611,95.639   c-23.078,29.19-36.946,63.617-40.105,99.56c-2.96,33.675,3.399,67.841,18.391,98.805c14.992,30.964,37.85,57.143,66.103,75.705   C183.181,501.527,218.789,512,256,512c37.211,0,72.819-10.472,102.973-30.284c28.253-18.563,51.111-44.741,66.103-75.705   C440.068,375.047,446.428,340.881,443.467,307.206z M271,181.548v30.566c26.881,3.697,47.659,26.802,47.659,54.684h-30   c0-13.903-11.311-25.214-25.214-25.214h-14.89c-13.903,0-25.214,11.311-25.214,25.214s11.311,25.214,25.214,25.214h14.89   c30.445,0,55.214,24.769,55.214,55.214c0,27.881-20.777,50.987-47.659,54.684v30.566h-30v-30.566   c-26.881-3.697-47.659-26.802-47.659-54.684h30c0,13.903,11.311,25.214,25.214,25.214h14.89c13.903,0,25.214-11.311,25.214-25.214   s-11.311-25.214-25.214-25.214h-14.89c-30.445,0-55.214-24.769-55.214-55.214c0-27.881,20.777-50.987,47.659-54.684v-30.566H271z" />
                <polygon points="320.785,82.008 360.817,0 151.183,0 191.215,82.008  " />
            </g>
        </symbol>
        <symbol id="dash-share-earn" viewBox="0 0 512 512" style="enable-background:new 0 0 512 512;">
            <g>
                <path d="M135,90c-8.276,0-15,6.724-15,15s6.724,15,15,15s15-6.724,15-15S143.276,90,135,90z" />
                <path d="M422,181c-30.469,0-57.345,15.3-73.636,38.535l-85.915-40.749C267.487,164.195,270,147.63,270,135   C270,60.557,209.443,0,135,0S0,60.557,0,135c0,8.32,1.005,16.377,2.454,24.282c11.799,64.622,67.667,109.67,130.948,110.563   l10.39,95.895C113.322,375.273,91,403.429,91,437c0,41.353,33.647,75,75,75s75-33.647,75-75c0-9.626-1.981-18.763-5.301-27.228   l120.225-78.146C372.388,349.556,395.796,361,422,361c49.629,0,90-40.371,90-90S471.629,181,422,181z M135,180   c-23.754,0-45,17.608-45,49.468c-10.527-5.039-20.213-11.545-28.451-19.633C68.582,175.728,98.842,150,135,150   c-24.814,0-45-20.186-45-45s20.186-45,45-45s45,20.186,45,45s-20.186,45-45,45c36.158,0,66.418,25.728,73.451,59.835   c-8.238,8.088-17.924,14.594-28.451,19.633C180,197.608,158.754,180,135,180z M219.461,384.544   c-11.915-12.142-27.977-19.927-45.813-21.769l-10.386-95.86c33.785-7.232,65.732-28.023,86.294-61.058l86.188,40.879   C333.551,254.506,332,262.537,332,271c0,12.643,2.675,24.655,7.401,35.583L219.461,384.544z" />
            </g>
        </symbol>
        <symbol id="dash-wishlist-favorite" viewBox="0 0 510 510" style="enable-background:new 0 0 510 510;">
            <g>
                <g id="favorite">
                    <path d="M255,489.6l-35.7-35.7C86.7,336.6,0,257.55,0,160.65C0,81.6,61.2,20.4,140.25,20.4c43.35,0,86.7,20.4,114.75,53.55 C283.05,40.8,326.4,20.4,369.75,20.4C448.8,20.4,510,81.6,510,160.65c0,96.9-86.7,175.95-219.3,293.25L255,489.6z" />
                </g>
            </g>
        </symbol>
        <symbol id="dash-saved-searches" viewBox="0 0 312.746 312.746" style="enable-background:new 0 0 312.746 312.746;">
            <g>
                <g>
                    <path d="M40.347,0v312.452l117.734-120.247l114.318,120.541V0H40.347z" />
                </g>
            </g>
        </symbol>
        <symbol id="dash-my-address" viewBox="0 0 16 16" style="enable-background:new 0 0 16 16;">
            <g>
                <polygon points="8,0 0,8 2,8 2,16 6,16 6,10 10,10 10,16 14,16 14,8 16,8" />
            </g>
        </symbol>
        <symbol id="dash-give-money" viewBox="0 0 354.796 354.796" style="enable-background:new 0 0 354.796 354.796;">
            <g>
                <g id="Layer_5_58_">
                    <g>
                        <g>
                            <path d="M265.442,109.092c-10.602-4.25-13.665-6.82-13.665-11.461c0-3.714,2.813-8.053,10.744-8.053
						c7.015,0,12.395,2.766,12.443,2.79c0.566,0.302,1.201,0.463,1.83,0.463c1.535,0,2.893-0.929,3.456-2.367l1.927-4.926
						c0.671-1.795-0.347-3.359-1.645-3.92c-4.319-1.88-12.76-3.335-12.846-3.35c-0.136-0.024-0.609-0.125-0.609-0.678l-0.027-7.146
						c0-2.152-1.797-3.904-4.003-3.904h-3.457c-2.204,0-4,1.751-4,3.905l0.009,7.513c0,0.576-0.624,0.826-0.852,0.879
						c-10.655,2.538-17.314,10.343-17.314,20.188c0,12.273,10.145,17.819,21.099,21.982c8.757,3.438,12.329,6.924,12.329,12.037
						c0,5.564-5.059,9.45-12.307,9.45c-6.189,0-14.565-3.923-14.648-3.963c-0.536-0.254-1.104-0.382-1.688-0.382
						c-1.594,0-2.982,0.964-3.537,2.457l-1.84,4.982c-0.654,1.86,0.353,3.37,1.642,4.042c5.144,2.679,15.098,4.249,15.541,4.318
						c0.119,0.017,0.725,0.23,0.725,0.784v7.48c0,2.152,1.797,3.904,4.004,3.904h3.572c2.208,0,4.005-1.751,4.005-3.904v-7.872
						c0-0.736,0.543-0.801,0.655-0.828c11.351-2.55,18.343-10.855,18.343-21.283C285.325,121.518,279.377,114.597,265.442,109.092z" />
                            <path d="M260.979,22.509c-51.816,0-93.818,42.005-93.818,93.818c0,51.814,42.002,93.82,93.818,93.82
						c51.814,0,93.817-42.006,93.817-93.82C354.796,64.514,312.793,22.509,260.979,22.509z M260.979,188.404
						c-39.808,0-72.076-32.271-72.076-72.076s32.268-72.075,72.076-72.075c39.806,0,72.073,32.27,72.073,72.075
						S300.785,188.404,260.979,188.404z" />
                        </g>
                        <g>
                            <path d="M335.733,255.61c-19.95,11.011-47.389,21.192-74.753,25.484c-24.346,3.818-70.148-5.39-70.148-16.265
						c0-4.121,40.17,10.154,64.469,3.671c18.633-4.971,15.988-22.401,5.853-24.7c-10.076-2.287-69.108-23.913-94.323-24.659
						c-11.878-0.351-41.203,4.131-55.393,6.442c-4.861,0.791-7.909,0.704-8.213,5.356c-1.412,21.62-4.195,65.832-5.712,88.926
						c-0.032,0.488,0.646,7.05,6.061,2.432c5.927-5.054,14.24-10.656,21.929-8.912c12.063,2.737,116.424,21.856,130.819,18.51
						c20.593-4.787,78.888-39.334,90.065-50.072C363.711,265.176,350.244,247.601,335.733,255.61z" />
                            <path d="M74.426,224.74l-54.672-2.694c-4.221-0.208-8.532,2.973-9.581,7.066l-9.941,90.255c-1.048,4.094,1.55,7.578,5.773,7.741
						l60.59-0.006c4.224,0.163,7.942-3.151,8.266-7.365l6.654-86.958C81.837,228.566,78.647,224.948,74.426,224.74z M42.24,315.145
						c-8.349,0-15.116-6.768-15.116-15.116c0-8.349,6.768-15.116,15.116-15.116s15.116,6.768,15.116,15.116
						C57.356,308.378,50.589,315.145,42.24,315.145z" />
                        </g>
                    </g>
                </g>
            </g>
        </symbol> 
    </defs>
</svg>