
<svg  xmlns="http://www.w3.org/2000/svg" width="0" height="0">
    <symbol viewBox="0 0 24 24.1" id="downloads">
        <path d="M15.346,11.446,12,14.793V0H11V14.793L7.653,11.446l-.707.707L11.5,16.707l4.553-4.554Z"/>
        <path d="M24,24.1H0V11.6H1V23.1H23V11.6h1Z"/>
    </symbol>
    <symbol viewBox="0 0 24 24" id="saved-searches">
        <path d="M15 5.25C16.7949 5.25 18.25 3.79493 18.25 2H19.75C19.75 3.79493 21.2051 5.25 23 5.25V6.75C21.2051 6.75 19.75 8.20507 19.75 10H18.25C18.25 8.20507 16.7949 6.75 15 6.75V5.25ZM4 7C4 5.89543 4.89543 5 6 5H13V3H6C3.79086 3 2 4.79086 2 7V17C2 19.2091 3.79086 21 6 21H18C20.2091 21 22 19.2091 22 17V12H20V17C20 18.1046 19.1046 19 18 19H6C4.89543 19 4 18.1046 4 17V7Z"></path>
    </symbol>
    <symbol viewBox="0 0 24 24" id="badges">
        <g transform="translate(-88 16.015)">
            <path d="M100-16.015a8.259,8.259,0,0,0-8.25,8.25A8.258,8.258,0,0,0,100,.485a8.259,8.259,0,0,0,8.25-8.25A8.26,8.26,0,0,0,100-16.015Zm0,15.5a7.258,7.258,0,0,1-7.25-7.25,7.258,7.258,0,0,1,7.25-7.25,7.259,7.259,0,0,1,7.25,7.25A7.258,7.258,0,0,1,100-.515Z"/>
            <path d="M91.562-2.9,88.1,3.11a.749.749,0,0,0,.845,1.1l4.4-1.184,1.171,4.4a.753.753,0,0,0,.626.551c.033,0,.067,0,.1,0a.75.75,0,0,0,.649-.375l3.275-5.667A9.753,9.753,0,0,1,91.562-2.9ZM95.33,6.587,94.315,2.769,94.057,1.8l-.968.26L89.267,3.088l2.371-4.116A10.767,10.767,0,0,0,97.575,2.7Z"/>
            <path d="M111.9,3.11,108.437-2.9a9.749,9.749,0,0,1-7.606,4.843l3.274,5.667a.75.75,0,0,0,.65.375.64.64,0,0,0,.1-.006.752.752,0,0,0,.627-.55l1.172-4.4,4.4,1.183a.735.735,0,0,0,.2.027.752.752,0,0,0,.65-1.125ZM106.91,2.059l-.968-.26-.258.969-1.016,3.819L102.424,2.7a10.766,10.766,0,0,0,5.938-3.73l2.371,4.114Z"/>
            <path d="M102.64-8.729l.624-3.634L100-10.648l-3.264-1.715.623,3.634L94.72-6.156l3.648.53L100-2.319l1.632-3.307,3.648-.53ZM100.968-6.54,100-4.579,99.032-6.54l-2.164-.314,1.566-1.527-.37-2.155L100-9.518l1.936-1.017-.371,2.154,1.567,1.527Z"/>
        </g>
    </symbol>
    <symbol viewBox="0 0 24 24" id="ribbons">
        <g transform="translate(-88 -80.013)">
            <path d="M109,91.013v-3H91v3H88v5h8v-2h8v2h8v-5Zm-14,4H89v-3h2v2h4Zm-3-2v-4h16v4Zm19,2h-6v-1h4v-2h2Z"/>
        </g>
    </symbol>
    <symbol viewBox="0 0 24 24" id="inventory">
        <path d="M16 0H0v24h24V0zm-1 1v5a1 1 0 01-1 1h-4a1 1 0 01-1-1V1zm8 22H1V1h7v5a2 2 0 002 2h4a2 2 0 002-2V1h7z"/>
    </symbol>
    <symbol viewBox="0 0 24 24" id="RFQ-orders">
        <path d="M15.3 0H3v24h18V5.7zM20 23H4V1h10v6.1h6zM15 6.1v-5l5 5z"/>
        <path d="M9.482 4h-3a.472.472 0 01-.5-.5.472.472 0 01.5-.5h3a.472.472 0 01.5.5.536.536 0 01-.5.5zM11.482 7h-5a.472.472 0 01-.5-.5.472.472 0 01.5-.5h5a.472.472 0 01.5.5.536.536 0 01-.5.5zM14 9H6v12h12V9zm-1 1v2h-2v-2zm4 10H7V10h3v2a.945.945 0 001 1h2a.945.945 0 001-1v-2h3z"/>
    </symbol>
    <symbol viewBox="0 0 24 24" id="URL-rewriting">
        <path d="M8 3C4.13401 3 1 6.13401 1 10C1 13.866 4.13401 17 8 17H9.07089C9.02417 16.6734 9 16.3395 9 16C9 15.6605 9.02417 15.3266 9.07089 15H8C5.23858 15 3 12.7614 3 10C3 7.23858 5.23858 5 8 5H16C18.7614 5 21 7.23858 21 10C21 10.3428 20.9655 10.6775 20.8998 11.0008C21.4853 11.5748 21.9704 12.2508 22.3264 13C22.7583 12.0907 23 11.0736 23 10C23 6.13401 19.866 3 16 3H8ZM16 13C14.3431 13 13 14.3431 13 16C13 17.6569 14.3431 19 16 19C17.6569 19 19 17.6569 19 16C19 14.3431 17.6569 13 16 13ZM11 16C11 13.2386 13.2386 11 16 11C18.7614 11 21 13.2386 21 16C21 17.0191 20.6951 17.967 20.1716 18.7574L22.7071 21.2929L21.2929 22.7071L18.7574 20.1716C17.967 20.6951 17.0191 21 16 21C13.2386 21 11 18.7614 11 16Z"></path>
    </symbol>
    <symbol viewBox="0 0 24 24" id="accepted">
        <path d="M10.023 16.7l-4.377-4.382.707-.707 3.67 3.67 7.623-7.623.707.707z"/>
        <path d="M12 1A11 11 0 111 12 11.013 11.013 0 0112 1m0-1a12 12 0 1012 12A12 12 0 0012 0z"/>
    </symbol>
    <symbol viewBox="0 0 24 24" id="add-ons">
        <path d="M23.473 15.897a.773.773 0 00-.311-.066.764.764 0 00-.51.195 2.149 2.149 0 110-3.2.764.764 0 001.274-.569V5.69a.764.764 0 00-.764-.764h-5.255a3.723 3.723 0 00-.167-2.777A3.616 3.616 0 0015.333.185a3.676 3.676 0 00-4.391 4.74H5.69a.766.766 0 00-.765.765v5.253a3.7 3.7 0 00-2.962.265 3.613 3.613 0 00-1.789 2.355 3.676 3.676 0 004.751 4.347v5.253a.766.766 0 00.765.765h6.567a.765.765 0 00.541-1.3 2.148 2.148 0 113.227.03.764.764 0 00.568 1.275h6.57a.766.766 0 00.765-.765v-6.573a.765.765 0 00-.455-.698zm-.547 7.029h-5.87a3.147 3.147 0 00.233-3 3.1 3.1 0 00-2.109-1.763 3.139 3.139 0 00-3.387 4.758H5.925v-6.4l-1.312.442a2.643 2.643 0 01-.855.141 2.682 2.682 0 11.855-5.221l1.312.445V5.926h6.4l-.444-1.312a2.709 2.709 0 01-.018-1.646 2.682 2.682 0 115.1 1.647l-.444 1.311h6.405v5.868a3.14 3.14 0 100 5.264z"/>
    </symbol>
    <symbol viewBox="0 0 24 24" id="buy-together-products">
        <path d="M21.024 12v-.024H18V0H6v12H0v12h24V12zm-1 1v3.976h-4V13h4zM10 1h4v4h-4zM7 1h2v5h6V1h2v10.976h-1.976V12H7zM4 13h4v4H4zM1 23V13h2v5h6v-5h2v10zm22 0H12V13h3.024v4.976h6V13H23z"/>
    </symbol>
    <symbol viewBox="0 0 24 24" id="cancellation-penalty-rules">
        <path d="M15.3 0H3v24h18V5.7zM20 23H4V1h10v6.1h6zM15 6.1v-5l5 5z"/>
        <rect width="10" height="1" rx=".5" transform="translate(5.949 10.092)"/>
        <rect width="6" height="1" rx=".5" transform="translate(6 7.1)"/>
        <rect width="4" height="1" rx=".5" transform="translate(6 4)"/>
        <path d="M12.707 17.318l2.829-2.828a.5.5 0 10-.708-.708L12 16.611l-2.828-2.829a.5.5 0 10-.708.708l2.829 2.828-2.829 2.828a.5.5 0 00.708.708L12 18.025l2.828 2.829a.5.5 0 10.708-.708z"/>
    </symbol>
    <symbol viewBox="0 0 24 24" id="cancellation-requests">
        <path d="M16 0H0v24h24V0zm-1 1v5a.945.945 0 01-1 1h-4a.945.945 0 01-1-1V1zm8 22H1V1h7v5a2.006 2.006 0 002 2h4a2.006 2.006 0 002-2V1h7z"/>
        <path d="M17.025 16.323l2.829-2.828a.5.5 0 10-.708-.708l-2.828 2.829-2.828-2.829a.5.5 0 10-.708.708l2.829 2.828-2.829 2.828a.5.5 0 10.708.707l2.828-2.828 2.828 2.828a.5.5 0 00.708-.707z"/>
    </symbol>
    <symbol viewBox="0 0 24 24" id="currency">
        <path d="M12.0049 22.0027C6.48204 22.0027 2.00488 17.5256 2.00488 12.0027C2.00488 6.4799 6.48204 2.00275 12.0049 2.00275C17.5277 2.00275 22.0049 6.4799 22.0049 12.0027C22.0049 17.5256 17.5277 22.0027 12.0049 22.0027ZM12.0049 20.0027C16.4232 20.0027 20.0049 16.421 20.0049 12.0027C20.0049 7.58447 16.4232 4.00275 12.0049 4.00275C7.5866 4.00275 4.00488 7.58447 4.00488 12.0027C4.00488 16.421 7.5866 20.0027 12.0049 20.0027ZM8.50488 14.0027H14.0049C14.281 14.0027 14.5049 13.7789 14.5049 13.5027C14.5049 13.2266 14.281 13.0027 14.0049 13.0027H10.0049C8.62417 13.0027 7.50488 11.8835 7.50488 10.5027C7.50488 9.12203 8.62417 8.00275 10.0049 8.00275H11.0049V6.00275H13.0049V8.00275H15.5049V10.0027H10.0049C9.72874 10.0027 9.50488 10.2266 9.50488 10.5027C9.50488 10.7789 9.72874 11.0027 10.0049 11.0027H14.0049C15.3856 11.0027 16.5049 12.122 16.5049 13.5027C16.5049 14.8835 15.3856 16.0027 14.0049 16.0027H13.0049V18.0027H11.0049V16.0027H8.50488V14.0027Z"></path>
    </symbol>
    <symbol viewBox="0 0 24 24" id="duration-discount">
        <circle cx="1" cy="1" r="1" transform="translate(8.15 8.15)"/>
        <circle cx="1" cy="1" r="1" transform="translate(13.85 13.85)"/>
        <path d="M13.9 1.027a4.642 4.642 0 01.318.367 2.95 2.95 0 001.208 1.018 2.032 2.032 0 00.709.118 4.742 4.742 0 00.886-.108 3.819 3.819 0 01.458-.068 4.654 4.654 0 01.172.45 3 3 0 00.792 1.378 2.944 2.944 0 001.488.559 4.54 4.54 0 01.465.094 4.6 4.6 0 01.011.492 3.033 3.033 0 00.287 1.573 2.961 2.961 0 001.2 1.029 4.405 4.405 0 01.415.256 4.5 4.5 0 01-.154.465 3.042 3.042 0 00-.267 1.578 2.961 2.961 0 00.771 1.37 4.024 4.024 0 01.317.406 4.024 4.024 0 01-.317.406 2.961 2.961 0 00-.771 1.37 3.032 3.032 0 00.267 1.578 4.667 4.667 0 01.154.465 4.56 4.56 0 01-.416.257 2.959 2.959 0 00-1.2 1.029 3.02 3.02 0 00-.282 1.569 4.866 4.866 0 01-.012.492 4.54 4.54 0 01-.465.094 2.934 2.934 0 00-1.488.559 3 3 0 00-.792 1.377 4.523 4.523 0 01-.173.453 4.3 4.3 0 01-.456-.071 4.753 4.753 0 00-.887-.108 2.031 2.031 0 00-.708.118 2.944 2.944 0 00-1.208 1.018c-.093.114-.221.273-.314.363-.113-.052-.277-.151-.4-.222A2.974 2.974 0 0012 22.2a2.974 2.974 0 00-1.513.548c-.123.073-.3.177-.392.226a4.642 4.642 0 01-.318-.367 2.95 2.95 0 00-1.208-1.018 2.032 2.032 0 00-.709-.118 4.742 4.742 0 00-.886.108 3.819 3.819 0 01-.458.068 4.655 4.655 0 01-.172-.45 3 3 0 00-.792-1.378 2.944 2.944 0 00-1.488-.559 4.54 4.54 0 01-.465-.094 4.6 4.6 0 01-.011-.492 3.033 3.033 0 00-.282-1.574 2.961 2.961 0 00-1.2-1.029 4.405 4.405 0 01-.415-.256 4.5 4.5 0 01.154-.465 3.042 3.042 0 00.267-1.578 2.961 2.961 0 00-.771-1.37A4.024 4.024 0 011.023 12a4.024 4.024 0 01.317-.406 2.961 2.961 0 00.771-1.37 3.032 3.032 0 00-.267-1.578 4.667 4.667 0 01-.154-.465 4.559 4.559 0 01.416-.257 2.959 2.959 0 001.2-1.029 3.02 3.02 0 00.282-1.569 4.866 4.866 0 01.012-.492 4.54 4.54 0 01.465-.094 2.934 2.934 0 001.488-.559A3 3 0 006.345 2.8a4.522 4.522 0 01.173-.453 4.3 4.3 0 01.456.071 4.753 4.753 0 00.887.108 2.031 2.031 0 00.708-.118 2.944 2.944 0 001.208-1.014c.093-.114.221-.273.314-.363.113.052.277.151.4.222A2.974 2.974 0 0012 1.8a2.974 2.974 0 001.513-.548c.123-.073.3-.177.392-.226M10.034 0a.664.664 0 00-.118.01c-.668.119-1.07 1.233-1.693 1.463a1.041 1.041 0 01-.362.057c-.439 0-.96-.181-1.4-.181A.909.909 0 006 1.456c-.583.344-.584 1.528-1.1 1.964s-1.665.234-2.1.755-.026 1.634-.363 2.225S.952 7.191.721 7.835s.522 1.541.405 2.219C1.012 10.713 0 11.308 0 12s1.012 1.287 1.126 1.946c.117.678-.632 1.586-.405 2.219s1.382.85 1.716 1.435-.06 1.7.37 2.224 1.583.317 2.1.755S5.416 22.2 6 22.543a.911.911 0 00.467.108c.435 0 .956-.181 1.395-.181a1.071 1.071 0 01.363.056c.623.231 1.024 1.345 1.693 1.464a.664.664 0 00.118.01c.622 0 1.324-.8 1.966-.8s1.344.8 1.966.8a.664.664 0 00.118-.01c.668-.119 1.07-1.233 1.693-1.463a1.041 1.041 0 01.362-.057c.439 0 .96.181 1.4.181a.909.909 0 00.459-.107c.582-.342.583-1.528 1.1-1.964s1.665-.234 2.1-.755.034-1.634.371-2.224 1.485-.792 1.716-1.436-.522-1.541-.4-2.219C22.988 13.287 24 12.692 24 12s-1.012-1.287-1.126-1.946c-.117-.678.632-1.586.4-2.219S21.9 6.985 21.563 6.4s.06-1.7-.37-2.224-1.583-.317-2.1-.755S18.584 1.8 18 1.457a.911.911 0 00-.467-.108c-.435 0-.956.181-1.4.181a1.071 1.071 0 01-.363-.056C15.154 1.243 14.753.129 14.084.01a.664.664 0 00-.118-.01c-.622 0-1.324.8-1.966.8S10.656 0 10.034 0z"/>
        <rect width="1" height="12" rx=".5" transform="rotate(45 -.993 22.882)"/>
    </symbol>
    <symbol viewBox="0 0 24 24" id="import-export">
        <path d="M12 8H8.001L8 20H6V8H2L7 3L12 8ZM22 16L17 21L12 16H16V4H18V16H22Z"></path>
    </symbol>
    <symbol viewBox="0 0 24 24" id="in-progress">
        <rect width="1.2" height="6" rx="0.6" transform="translate(11.4)"/>
        <rect width="1.2" height="6" rx="0.6" transform="translate(3.09 3.939) rotate(-45)"/>
        <rect width="1.2" height="6" rx="0.6" transform="translate(0 12.6) rotate(-90)"/>
        <rect width="1.2" height="6" rx="0.6" transform="translate(3.939 20.91) rotate(-135)"/>
        <rect width="1.2" height="6" rx="0.6" transform="translate(12.6 24) rotate(-180)"/>
        <rect opacity="0.4" width="1.2" height="6" rx="0.6" transform="translate(20.91 20.061) rotate(135)"/>
        <rect opacity="0.6" width="1.2" height="6" rx="0.6" transform="translate(24 11.4) rotate(90)"/>
        <rect opacity="0.8" width="1.2" height="6" rx="0.6" transform="translate(20.061 3.09) rotate(45)"/>
    </symbol>
    <symbol viewBox="0 0 24 24" id="product-inventory-stock">
        <path d="M12 12V0H0v24h24V12zM4 1h4v4H4zm7 22H1V13h2v4a.945.945 0 001 1h4a.945.945 0 001-1v-4h2zm-7-6v-4h4v4zm7-5H1V1h2v4a.945.945 0 001 1h4a.945.945 0 001-1V1h2zm5 1h4v4h-4zm7 10H12V13h3v4a.945.945 0 001 1h4a.945.945 0 001-1v-4h2z"/>
        <path d="M22.6 3.348l-6.01 6.01-3.19-3.181.707-.707 2.475 2.475 5.3-5.3z"/>
    </symbol>
    <symbol viewBox="0 0 16 16" id="language">
        <path d="M4.545 6.714 4.11 8H3l1.862-5h1.284L8 8H6.833l-.435-1.286H4.545zm1.634-.736L5.5 3.956h-.049l-.679 2.022H6.18z"/>
        <path d="M0 2a2 2 0 0 1 2-2h7a2 2 0 0 1 2 2v3h3a2 2 0 0 1 2 2v7a2 2 0 0 1-2 2H7a2 2 0 0 1-2-2v-3H2a2 2 0 0 1-2-2V2zm2-1a1 1 0 0 0-1 1v7a1 1 0 0 0 1 1h7a1 1 0 0 0 1-1V2a1 1 0 0 0-1-1H2zm7.138 9.995c.193.301.402.583.63.846-.748.575-1.673 1.001-2.768 1.292.178.217.451.635.555.867 1.125-.359 2.08-.844 2.886-1.494.777.665 1.739 1.165 2.93 1.472.133-.254.414-.673.629-.89-1.125-.253-2.057-.694-2.82-1.284.681-.747 1.222-1.651 1.621-2.757H14V8h-3v1.047h.765c-.318.844-.74 1.546-1.272 2.13a6.066 6.066 0 0 1-.415-.492 1.988 1.988 0 0 1-.94.31z"/>
    </symbol>
    <symbol viewBox="0 0 24.1 24.1" id="late-charges-management">
        <path d="M20.9 2H17V.5a.5.5 0 00-1 0V2H8V.5a.5.5 0 00-1 0V2H3.2A3.222 3.222 0 000 5.2v15.7a3.222 3.222 0 003.2 3.2h17.7a3.222 3.222 0 003.2-3.2V5.2A3.289 3.289 0 0020.9 2zM23 20.8a2.22 2.22 0 01-2.2 2.2H3.2A2.22 2.22 0 011 20.8V8h22zM23 7H1V5.2A2.22 2.22 0 013.2 3H7v1.5a.5.5 0 001 0V3h8v1.5a.5.5 0 001 0V3h3.8A2.22 2.22 0 0123 5.2z"/>
        <path d="M15.111 15.869a2.441 2.441 0 00-1.054-.613c-.27-.079-.621-.157-1.007-.236v-2.737a4.288 4.288 0 011.7.61l.5-.852a4.792 4.792 0 00-1.364-.531 6.926 6.926 0 00-.836-.152V9.05h-1v2.268a4.138 4.138 0 00-2.3.618 1.9 1.9 0 00-.891 1.614 1.682 1.682 0 00.446 1.241 2.5 2.5 0 001.081.635 15.313 15.313 0 001.664.366v2.585a5.8 5.8 0 01-1.632-.243 4.5 4.5 0 01-1.348-.636l-.52.838a4.414 4.414 0 001.487.7 7.054 7.054 0 001.989.277h.024v1.737h1v-1.819a3.9 3.9 0 001.567-.529 1.865 1.865 0 00.933-1.637 1.6 1.6 0 00-.439-1.196zm-3.995-1.234a2.005 2.005 0 01-.788-.4.894.894 0 01-.316-.718 1.082 1.082 0 01.56-.942 2.944 2.944 0 011.478-.346v2.6c-.371-.065-.7-.13-.934-.194zm2.72 3.409a2.285 2.285 0 01-.786.263v-2.325c.086.02.185.039.26.059a2.105 2.105 0 01.778.374.822.822 0 01.309.68 1.048 1.048 0 01-.561.949z"/>
    </symbol>
    <symbol viewBox="0 0 24 24" id="link-products-pickup-add">
        <path d="M16 0v1h6.293L11.979 11.314l.707.707L23 1.707V8h1V0z"/>
        <path d="M19 7.121V23H1V5h15.879l1-1H0v20h20V6.121z"/>
        <path d="M3 20h6v1H3zM3 18h6v1H3z"/>
    </symbol>
    <symbol viewBox="0 0 24 24" id="rental-add-ons">
        <path d="M2.665 21.435a3.949 3.949 0 002.8 1.2 3.949 3.949 0 002.8-1.2l4.786-4.785a.483.483 0 000-.7.483.483 0 00-.7 0l-4.786 4.785a2.878 2.878 0 01-2.1.9 2.723 2.723 0 01-2.1-.9 2.9 2.9 0 010-4.2l4.786-4.785a.483.483 0 000-.7.483.483 0 00-.7 0l-4.786 4.785a3.867 3.867 0 000 5.6zM10.951 8.15a.483.483 0 00.7 0l4.785-4.786a2.878 2.878 0 012.1-.9 2.724 2.724 0 012.1.9 2.9 2.9 0 010 4.2l-4.785 4.786a.483.483 0 000 .7.483.483 0 00.7 0l4.785-4.786a3.984 3.984 0 000-5.7 3.949 3.949 0 00-2.8-1.2 3.949 3.949 0 00-2.8 1.2L10.951 7.35a.6.6 0 000 .8z"/>
        <path d="M16.251 7.85a.483.483 0 010 .7l-7.8 7.8a.483.483 0 01-.7 0 .483.483 0 010-.7l7.8-7.8a.483.483 0 01.7 0z"/>
    </symbol>
    <symbol viewBox="0 0 24 24" id="verification-fields">
        <path d="M11.012 9.7L8.647 7.336l.707-.707 1.658 1.658 3.635-3.635.707.707z"/>
        <path d="M12 2a4.946 4.946 0 015 5A5 5 0 017 7a4.946 4.946 0 015-5m0-1a5.942 5.942 0 00-6 6 6 6 0 0012 0 5.942 5.942 0 00-6-6zM20 16H4.151a4.1 4.1 0 00-4.068 3.173A4 4 0 004 24h15.849a4.1 4.1 0 004.068-3.173A4 4 0 0020 16zm0 1a3.011 3.011 0 012.846 3.974A3.049 3.049 0 0119.9 23H4.1a3.049 3.049 0 01-2.942-2.026A3.011 3.011 0 014 17h16"/>
    </symbol>
    <symbol viewBox="0 0 24 24" id="manage-shop"         >
        <path d="M21 13.2422V20H22V22H2V20H3V13.2422C1.79401 12.435 1 11.0602 1 9.5C1 8.67286 1.22443 7.87621 1.63322 7.19746L4.3453 2.5C4.52393 2.1906 4.85406 2 5.21132 2H18.7887C19.1459 2 19.4761 2.1906 19.6547 2.5L22.3575 7.18172C22.7756 7.87621 23 8.67286 23 9.5C23 11.0602 22.206 12.435 21 13.2422ZM19 13.9725C18.8358 13.9907 18.669 14 18.5 14C17.2409 14 16.0789 13.478 15.25 12.6132C14.4211 13.478 13.2591 14 12 14C10.7409 14 9.5789 13.478 8.75 12.6132C7.9211 13.478 6.75911 14 5.5 14C5.331 14 5.16417 13.9907 5 13.9725V20H19V13.9725ZM5.78865 4L3.35598 8.21321C3.12409 8.59843 3 9.0389 3 9.5C3 10.8807 4.11929 12 5.5 12C6.53096 12 7.44467 11.3703 7.82179 10.4295C8.1574 9.59223 9.3426 9.59223 9.67821 10.4295C10.0553 11.3703 10.969 12 12 12C13.031 12 13.9447 11.3703 14.3218 10.4295C14.6574 9.59223 15.8426 9.59223 16.1782 10.4295C16.5553 11.3703 17.469 12 18.5 12C19.8807 12 21 10.8807 21 9.5C21 9.0389 20.8759 8.59843 20.6347 8.19746L18.2113 4H5.78865Z"></path>
    </symbol>
    <symbol viewBox="0 0 24 24" id="messages">
        <path d="M21.358.992a1.568 1.568 0 011.559 1.573v13.74a1.559 1.559 0 01-1.559 1.56h-9.695l-.284.257L6.227 22.8l.422-3.821.122-1.111H2.642a1.559 1.559 0 01-1.559-1.56V2.552A1.56 1.56 0 012.642.992h18.29M21.358 0H2.642A2.553 2.553 0 00.09 2.552v13.753a2.552 2.552 0 002.552 2.552h3.02L5.2 23.049a.857.857 0 00.752.951h.093a.849.849 0 00.569-.22l5.429-4.923h9.315a2.552 2.552 0 002.552-2.552V2.571A2.562 2.562 0 0021.358 0z"/>
        <rect width="16" height="1" rx=".5" transform="translate(4 4.909)"/>
        <rect width="16" height="1" rx=".5" transform="translate(4 8.909)"/>
        <rect width="16" height="1" rx=".5" transform="translate(4 12.909)"/>
    </symbol>
    <symbol viewBox="0 0 24 24" id="meta-tags">
        <path d="M18.9 5.3v7.1L8.6 22.7l-7.1-7.1L11.8 5.3h7.1m.7-.7a.908.908 0 00-.7-.3h-7.1a.908.908 0 00-.7.3L.8 14.9a.967.967 0 000 1.4l7.1 7.1a.967.967 0 001.4 0l10.3-10.3a.908.908 0 00.3-.7V5.3a.779.779 0 00-.3-.7z"/>
        <path d="M8.642 14.3L7.46 16.778 9.939 15.6l.837.838L6.9 18.217l-.884-.883L7.8 13.461zM8.3 10.043l1.015-1.015 3.675 7.639-1.015 1.015zM14.506 8.849l.883.883L13.6 13.6l-.837-.837 1.182-2.478-2.475 1.185-.837-.837z"/>
    </symbol>
    <symbol viewBox="0 0 24 24" id="my-account">
        <path d="M20 22H18V20C18 18.3431 16.6569 17 15 17H9C7.34315 17 6 18.3431 6 20V22H4V20C4 17.2386 6.23858 15 9 15H15C17.7614 15 20 17.2386 20 20V22ZM12 13C8.68629 13 6 10.3137 6 7C6 3.68629 8.68629 1 12 1C15.3137 1 18 3.68629 18 7C18 10.3137 15.3137 13 12 13ZM12 11C14.2091 11 16 9.20914 16 7C16 4.79086 14.2091 3 12 3C9.79086 3 8 4.79086 8 7C8 9.20914 9.79086 11 12 11Z"></path>
    </symbol>
    <symbol viewBox="0 0 24 24" id="my-credits"        >
        <path d="M22 4H2a2 2 0 00-2 2v12a2 2 0 002 2h20a2 2 0 002-2V6a2 2 0 00-2-2zm1 14a1 1 0 01-1 1H2a1 1 0 01-1-1v-7h22zm0-8H1V8h22zM1 7V6a1 1 0 011-1h20a1 1 0 011 1v1z"/>
        <rect width="4" height="1" rx=".5" transform="translate(8 16)"/>
        <rect width="4" height="1" rx=".5" transform="translate(13 16)"/>
        <rect width="4" height="1" rx=".5" transform="translate(18 16)"/>
    </symbol>
    <symbol viewBox="0 0 24 24" id="options"        >
        <path d="M5 0a5 5 0 105 5 5 5 0 00-5-5zm0 9a4 4 0 114-4 4 4 0 01-4 4zM19 14a5 5 0 105 5 5 5 0 00-5-5zm0 9a4 4 0 114-4 4 4 0 01-4 4zM0 24h10V14H0zm1-9h8v8H1zM14 0v10h10V0zm9 9h-8V1h8z"/>
    </symbol>
    <symbol viewBox="0 0 24 24" id="order-rental">
        <path d="M16.002 0h-16v24h24V0zm-1 1v5a.945.945 0 01-1 1h-4a.945.945 0 01-1-1V1zm8 22h-22V1h7v5a2.006 2.006 0 002 2h4a2.006 2.006 0 002-2V1h7z"/>
        <path d="M20.517 13.931l-3.007-3.006-3.022 3.023.707.707 1.807-1.808v7.078h1v-7.094l1.808 1.807z"/>
    </symbol>
    <symbol viewBox="0 0 24 24" id="order-cancel-request">
        <path d="M16 0H0v24h24V0zm-1 1v5a.945.945 0 01-1 1h-4a.945.945 0 01-1-1V1zm8 22H1V1h7v5a2.006 2.006 0 002 2h4a2.006 2.006 0 002-2V1h7z"/>
        <path d="M17.025 16.323l2.829-2.828a.5.5 0 10-.708-.708l-2.828 2.829-2.828-2.829a.5.5 0 10-.708.708l2.829 2.828-2.829 2.828a.5.5 0 10.708.707l2.828-2.828 2.828 2.828a.5.5 0 00.708-.707z"/>
    </symbol>
    <symbol viewBox="0 0 16 16" id="order-sales">
        <path d="M8.186 1.113a.5.5 0 0 0-.372 0L1.846 3.5l2.404.961L10.404 2zm3.564 1.426L5.596 5 8 5.961 14.154 3.5zm3.25 1.7-6.5 2.6v7.922l6.5-2.6V4.24zM7.5 14.762V6.838L1 4.239v7.923zM7.443.184a1.5 1.5 0 0 1 1.114 0l7.129 2.852A.5.5 0 0 1 16 3.5v8.662a1 1 0 0 1-.629.928l-7.185 2.874a.5.5 0 0 1-.372 0L.63 13.09a1 1 0 0 1-.63-.928V3.5a.5.5 0 0 1 .314-.464z"/>
    </symbol>
    <symbol viewBox="0 0 24 24" id="product-performance-report">
        <path d="M4.00488 5.00281V19.0028H20.0049V5.00281H4.00488ZM3.00488 3.00281H21.0049C21.5572 3.00281 22.0049 3.45052 22.0049 4.00281V20.0028C22.0049 20.5551 21.5572 21.0028 21.0049 21.0028H3.00488C2.4526 21.0028 2.00488 20.5551 2.00488 20.0028V4.00281C2.00488 3.45052 2.4526 3.00281 3.00488 3.00281ZM14.7978 9.7957L13.0049 8.00281H18.0049V13.0028L16.212 11.2099L12.348 15.0739L10.2267 12.9526L7.39828 15.781L5.98407 14.3668L10.2267 10.1241L12.348 12.2454L14.7978 9.7957Z"></path>
    </symbol>
    <symbol viewBox="0 0 24 24" id="products-inventory">
        <path d="M11 7H13V17H11V7ZM15 11H17V17H15V11ZM7 13H9V17H7V13ZM15 4H5V20H19V8H15V4ZM3 2.9918C3 2.44405 3.44749 2 3.9985 2H16L20.9997 7L21 20.9925C21 21.5489 20.5551 22 20.0066 22H3.9934C3.44476 22 3 21.5447 3 21.0082V2.9918Z"></path>
    </symbol>
    <symbol viewBox="0 0 24 24" id="rejected">
        <path d="M12 1A11 11 0 111 12 11.013 11.013 0 0112 1m0-1a12 12 0 1012 12A12 12 0 0012 0z"/>
        <path d="M12.707 12l3.536-3.536a.5.5 0 10-.707-.707L12 11.293 8.464 7.757a.5.5 0 00-.707.707L11.293 12l-3.536 3.536a.5.5 0 00.707.707L12 12.707l3.536 3.536a.5.5 0 00.707-.707z"/>
    </symbol>
    <symbol viewBox="0 0 24 24" id="related-products">
        <path d="M24,0H8V8H0V24H16V16h8ZM15,23H1V9H8v7h7Zm0-8H9V9h6Zm8,0H16V8H9V1H23Z"/>
    </symbol>
    <symbol viewBox="0 0 24 24" id="rental-report">
        <path d="M15.3 0H3v24h18V5.7zM20 23H4V1h10v6.1h6zM15 6.1v-5l5 5z"/>
        <path d="M15.4 11.1h-9a.472.472 0 01-.5-.5.472.472 0 01.5-.5h9a.472.472 0 01.5.5.472.472 0 01-.5.5zM11.5 8.1h-5a.472.472 0 01-.5-.5.472.472 0 01.5-.5h5a.472.472 0 01.5.5.472.472 0 01-.5.5zM9.5 5h-3a.472.472 0 01-.5-.5.472.472 0 01.5-.5h3a.472.472 0 01.5.5.472.472 0 01-.5.5zM11.227 16.012h6.228a.5.5 0 01.5.5v.5h-6.728v-1z"/>
        <path d="M9.049 14.512a2 2 0 11-2 2 2 2 0 012-2m0-1a3 3 0 103 3 3 3 0 00-3-3z"/>
        <rect width="1" height="3.5" rx=".5" transform="translate(16.951 16.012)"/>
        <rect width="1" height="2.5" rx=".5" transform="translate(15.052 16.012)"/>
    </symbol>
    <symbol viewBox="0 0 24 24" id="requests">
        <g transform="translate(0 -36)">
            <path d="M10.3 52.3a3.864 3.864 0 001.8-3.3 4 4 0 00-8 0 3.864 3.864 0 001.8 3.3A8.069 8.069 0 00.1 60h1a6.957 6.957 0 017-7 6.957 6.957 0 017 7h1a8.29 8.29 0 00-5.8-7.7zM5 49a2.946 2.946 0 013-3 3 3 0 010 6 3.009 3.009 0 01-3-3zM21.9 37a1.216 1.216 0 011.2 1.2v6.6a1.155 1.155 0 01-1.2 1.2h-6.3l-.3.2-1.3 1v-9a1.155 1.155 0 011.2-1.2H22m-.1-1h-6.7a2.22 2.22 0 00-2.2 2.2v10a.536.536 0 00.5.5.367.367 0 00.3-.1l2.1-1.6h5.9a2.22 2.22 0 002.2-2.2v-6.6a2.135 2.135 0 00-2.1-2.2z"/>
            <rect width="7" height="1" rx=".5" transform="translate(15 40)"/>
            <rect width="7" height="1" rx=".5" transform="translate(15 42)"/>
        </g>
    </symbol>
    <symbol viewBox="0 0 24 24" id="order-return-request">
        <path d="M16 0H0v24h24V0zm-1 1v5a.945.945 0 01-1 1h-4a.945.945 0 01-1-1V1zm8 22H1V1h7v5a2.006 2.006 0 002 2h4a2.006 2.006 0 002-2V1h7z"/>
        <path d="M13.952 13H6.965l1.973-1.973-.708-.707-3.182 3.18 3.182 3.184.707-.707L6.96 14h6.992a3 3 0 010 6h-5.9v1h5.9a4 4 0 000-8z"/>
    </symbol>
    <symbol viewBox="0 0 24 24" id="sales-report"        >
        <path d="M15.3 0H3v24h18V5.7zM20 23H4V1h10v6.1h6zM15 6.1v-5l5 5z"/>
        <path d="M15.4 11.1h-9a.472.472 0 01-.5-.5.472.472 0 01.5-.5h9a.472.472 0 01.5.5.472.472 0 01-.5.5zM11.5 8.1h-5a.472.472 0 01-.5-.5.472.472 0 01.5-.5h5a.472.472 0 01.5.5.472.472 0 01-.5.5zM9.5 5h-3a.472.472 0 01-.5-.5.472.472 0 01.5-.5h3a.472.472 0 01.5.5.472.472 0 01-.5.5z"/>
        <rect width="12" height="1" rx=".5" transform="translate(6 20)"/>
        <rect width="1" height="4" rx=".5" transform="translate(7 17)"/>
        <rect width="1" height="5" rx=".5" transform="translate(10 16)"/>
        <rect width="1" height="6" rx=".5" transform="translate(13 15)"/>
        <rect width="1" height="7" rx=".5" transform="translate(16 14)"/>
    </symbol>
    <symbol viewBox="0 0 16 16" id="shipping-profile"
       >
        <path d="M0 3.5A1.5 1.5 0 0 1 1.5 2h9A1.5 1.5 0 0 1 12 3.5V5h1.02a1.5 1.5 0 0 1 1.17.563l1.481 1.85a1.5 1.5 0 0 1 .329.938V10.5a1.5 1.5 0 0 1-1.5 1.5H14a2 2 0 1 1-4 0H5a2 2 0 1 1-3.998-.085A1.5 1.5 0 0 1 0 10.5zm1.294 7.456A2 2 0 0 1 4.732 11h5.536a2 2 0 0 1 .732-.732V3.5a.5.5 0 0 0-.5-.5h-9a.5.5 0 0 0-.5.5v7a.5.5 0 0 0 .294.456M12 10a2 2 0 0 1 1.732 1h.768a.5.5 0 0 0 .5-.5V8.35a.5.5 0 0 0-.11-.312l-1.48-1.85A.5.5 0 0 0 13.02 6H12zm-9 1a1 1 0 1 0 0 2 1 1 0 0 0 0-2m9 0a1 1 0 1 0 0 2 1 1 0 0 0 0-2"/>
    </symbol>
    <symbol viewBox="0 0 24 24" id="special-price">
        <path d="M12 1A11 11 0 111 12 10.968 10.968 0 0112 1m0-1a12 12 0 1012 12A12.035 12.035 0 0012 0z"/>
        <path d="M15.536 12.937a4.623 4.623 0 00-2.288-1.111l-.248-.06V7.021a4.317 4.317 0 011.057.286 5.881 5.881 0 011.618 1.074l.463-.832a4.062 4.062 0 00-1.654-1.144A5.9 5.9 0 0013 6.066V4h-1v2.014a4.565 4.565 0 00-2.785.886 2.9 2.9 0 00-1.122 2.383 2.644 2.644 0 00.809 1.9 4.173 4.173 0 002.127 1.133l.971.229v4.483a6.413 6.413 0 01-2.046-.307 5.862 5.862 0 01-1.816-1.1l-.438.808A5.812 5.812 0 0012 18v2h1v-2.069a4.472 4.472 0 002.131-.81 2.734 2.734 0 001.169-2.289 2.57 2.57 0 00-.764-1.895zm-4.276-1.6a3.144 3.144 0 01-1.573-.786 1.956 1.956 0 01-.508-1.411 1.882 1.882 0 01.8-1.618A3.634 3.634 0 0112 6.961v4.561zm3.168 5.144a3.4 3.4 0 01-1.428.481v-4.185a3.927 3.927 0 011.7.8 1.734 1.734 0 01.533 1.329 1.789 1.789 0 01-.805 1.579z"/>
    </symbol>
    <symbol viewBox="0 0 24 24" id="sub-users">
        <path d="M21.5 18.05V12h-9V7.95a4 4 0 10-1 0V12h-9v6.05a3 3 0 101 0V13h8v5.05a3 3 0 101 0V13h8v5.05a3 3 0 101 0zM9 4a3 3 0 113 3 3 3 0 01-3-3zM5 21a2 2 0 11-2-2 2 2 0 012 2zm9 0a2 2 0 11-2-2 2 2 0 012 2zm7 2a2 2 0 112-2 2 2 0 01-2 2z"/>
    </symbol>
    <symbol viewBox="0 0 24 24" id="product-tags">
        <path d="M14.409 9.8a1 1 0 01-1.414 1.414A1 1 0 1114.409 9.8m.707-.707a2 2 0 100 2.828 2.005 2.005 0 000-2.828z"/>
        <path d="M18.924 5.281v7.072L8.612 22.669 1.538 15.6 11.852 5.282h7.072m.708-.706a1 1 0 00-.706-.293h-7.074a.994.994 0 00-.7.293L.831 14.89a1 1 0 000 1.412l7.074 7.074a1 1 0 001.411 0L19.632 13.06a1 1 0 00.292-.706V5.28a.991.991 0 00-.292-.705z"/>
        <rect width="8" height="1" rx=".5" transform="rotate(45 -12.521 13.363)"/>
    </symbol>
    <symbol viewBox="0 0 24 24" id="tax-categories">
        <path d="M6.636 12.092H5.107v-.9H9.27v.9H7.741v3.876H6.636zM12.771 14.945h-2.218l-.423 1.023H9l2.129-4.777h1.093l2.135 4.777h-1.162zm-.348-.84l-.757-1.829-.758 1.824z"/>
        <path d="M17.617 15.968l-1.154-1.659-1.132 1.659h-1.27l1.768-2.429-1.679-2.348h1.256l1.1 1.549 1.079-1.549h1.194L17.112 13.5l1.781 2.47z"/>
        <path d="M15.343 0H3v24h18V5.657zM20 23H4V1h10v6.053h6zM15 6.053V1.075l4.978 4.978z"/>
    </symbol>
    <symbol viewBox="0 0 24 24" id="unavailable-dates">
        <path d="M20.847 2H17V.5a.5.5 0 00-1 0V2H8V.5a.5.5 0 00-1 0V2H3.153A3.153 3.153 0 000 5.153v15.694A3.153 3.153 0 003.153 24h17.694A3.153 3.153 0 0024 20.847V5.153A3.153 3.153 0 0020.847 2zM23 20.847A2.156 2.156 0 0120.847 23H3.153A2.156 2.156 0 011 20.847V8h22zM23 7H1V5.153A2.156 2.156 0 013.153 3H7v1.5a.5.5 0 001 0V3h8v1.5a.5.5 0 001 0V3h3.847A2.156 2.156 0 0123 5.153z"/>
    </symbol>
    <symbol viewBox="0 0 24 24" id="upcoming-overdue-returns">
        <g>
            <rect width="1" height="8" rx=".5" transform="translate(11.5 4.306)"/>
            <rect width="2" height="2" rx="1" transform="translate(11 13.694)"/>
            <path d="M22.943 1.054L12 22.947 1.053 1.054h21.89m0-1.054H1.053a1.052 1.052 0 00-.941 1.522l10.947 21.9a1.053 1.053 0 001.882 0l10.947-21.9A1.052 1.052 0 0022.947 0z"/>
        </g>
    </symbol>
    <symbol viewBox="0 0 24 24" id="update-credentials">
        <path d="M19.773 11h-7.914A3.953 3.953 0 1012 12h4v1.5a.5.5 0 001 0V12h2v2.5a.5.5 0 001 0v-3.273a.227.227 0 00-.227-.227zM8 15a3 3 0 113-3 3 3 0 01-3 3z"/>
        <path d="M22.86 6.92l-.751.751A11.106 11.106 0 1119.519 4H16v1h5V0h-1v3.078a12.012 12.012 0 102.86 3.842z"/>
    </symbol>
    <symbol viewBox="0 0 24 24" id="volume-discount">
        <circle cx="1" cy="1" r="1" transform="translate(8.15 8.15)"/>
        <circle cx="1" cy="1" r="1" transform="translate(13.85 13.85)"/>
        <path d="M13.9 1.027a4.642 4.642 0 01.318.367 2.95 2.95 0 001.208 1.018 2.032 2.032 0 00.709.118 4.742 4.742 0 00.886-.108 3.819 3.819 0 01.458-.068 4.654 4.654 0 01.172.45 3 3 0 00.792 1.378 2.944 2.944 0 001.488.559 4.54 4.54 0 01.465.094 4.6 4.6 0 01.011.492 3.033 3.033 0 00.287 1.573 2.961 2.961 0 001.2 1.029 4.405 4.405 0 01.415.256 4.5 4.5 0 01-.154.465 3.042 3.042 0 00-.267 1.578 2.961 2.961 0 00.771 1.37 4.024 4.024 0 01.317.406 4.024 4.024 0 01-.317.406 2.961 2.961 0 00-.771 1.37 3.032 3.032 0 00.267 1.578 4.667 4.667 0 01.154.465 4.56 4.56 0 01-.416.257 2.959 2.959 0 00-1.2 1.029 3.02 3.02 0 00-.282 1.569 4.866 4.866 0 01-.012.492 4.54 4.54 0 01-.465.094 2.934 2.934 0 00-1.488.559 3 3 0 00-.792 1.377 4.523 4.523 0 01-.173.453 4.3 4.3 0 01-.456-.071 4.753 4.753 0 00-.887-.108 2.031 2.031 0 00-.708.118 2.944 2.944 0 00-1.208 1.018c-.093.114-.221.273-.314.363-.113-.052-.277-.151-.4-.222A2.974 2.974 0 0012 22.2a2.974 2.974 0 00-1.513.548c-.123.073-.3.177-.392.226a4.642 4.642 0 01-.318-.367 2.95 2.95 0 00-1.208-1.018 2.032 2.032 0 00-.709-.118 4.742 4.742 0 00-.886.108 3.819 3.819 0 01-.458.068 4.655 4.655 0 01-.172-.45 3 3 0 00-.792-1.378 2.944 2.944 0 00-1.488-.559 4.54 4.54 0 01-.465-.094 4.6 4.6 0 01-.011-.492 3.033 3.033 0 00-.282-1.574 2.961 2.961 0 00-1.2-1.029 4.405 4.405 0 01-.415-.256 4.5 4.5 0 01.154-.465 3.042 3.042 0 00.267-1.578 2.961 2.961 0 00-.771-1.37A4.024 4.024 0 011.023 12a4.024 4.024 0 01.317-.406 2.961 2.961 0 00.771-1.37 3.032 3.032 0 00-.267-1.578 4.667 4.667 0 01-.154-.465 4.559 4.559 0 01.416-.257 2.959 2.959 0 001.2-1.029 3.02 3.02 0 00.282-1.569 4.866 4.866 0 01.012-.492 4.54 4.54 0 01.465-.094 2.934 2.934 0 001.488-.559A3 3 0 006.345 2.8a4.522 4.522 0 01.173-.453 4.3 4.3 0 01.456.071 4.753 4.753 0 00.887.108 2.031 2.031 0 00.708-.118 2.944 2.944 0 001.208-1.014c.093-.114.221-.273.314-.363.113.052.277.151.4.222A2.974 2.974 0 0012 1.8a2.974 2.974 0 001.513-.548c.123-.073.3-.177.392-.226M10.034 0a.664.664 0 00-.118.01c-.668.119-1.07 1.233-1.693 1.463a1.041 1.041 0 01-.362.057c-.439 0-.96-.181-1.4-.181A.909.909 0 006 1.456c-.583.344-.584 1.528-1.1 1.964s-1.665.234-2.1.755-.026 1.634-.363 2.225S.952 7.191.721 7.835s.522 1.541.405 2.219C1.012 10.713 0 11.308 0 12s1.012 1.287 1.126 1.946c.117.678-.632 1.586-.405 2.219s1.382.85 1.716 1.435-.06 1.7.37 2.224 1.583.317 2.1.755S5.416 22.2 6 22.543a.911.911 0 00.467.108c.435 0 .956-.181 1.395-.181a1.071 1.071 0 01.363.056c.623.231 1.024 1.345 1.693 1.464a.664.664 0 00.118.01c.622 0 1.324-.8 1.966-.8s1.344.8 1.966.8a.664.664 0 00.118-.01c.668-.119 1.07-1.233 1.693-1.463a1.041 1.041 0 01.362-.057c.439 0 .96.181 1.4.181a.909.909 0 00.459-.107c.582-.342.583-1.528 1.1-1.964s1.665-.234 2.1-.755.034-1.634.371-2.224 1.485-.792 1.716-1.436-.522-1.541-.4-2.219C22.988 13.287 24 12.692 24 12s-1.012-1.287-1.126-1.946c-.117-.678.632-1.586.4-2.219S21.9 6.985 21.563 6.4s.06-1.7-.37-2.224-1.583-.317-2.1-.755S18.584 1.8 18 1.457a.911.911 0 00-.467-.108c-.435 0-.956.181-1.4.181a1.071 1.071 0 01-.363-.056C15.154 1.243 14.753.129 14.084.01a.664.664 0 00-.118-.01c-.622 0-1.324.8-1.966.8S10.656 0 10.034 0z"/>
        <rect width="1" height="12" rx=".5" transform="rotate(45 -.993 22.882)"/>
    </symbol>
    <symbol viewBox="0 0 24 24" id="my-subscriptions">
        <path d="M0,.024V8H8.291V7H1V1.024H22.983V6.984H19.54v1h4.443V.024Z"/>
        <path d="M23.9,16.871,13.04,4.152A.435.435,0,0,0,12.71,4a.43.43,0,0,0-.281.1.419.419,0,0,0-.148.269l-2.3,16.57a.434.434,0,0,0,.368.49.335.335,0,0,0,.063,0,.423.423,0,0,0,.258-.087l4.419-3.365,1.674,5.7a.437.437,0,0,0,.418.312.414.414,0,0,0,.12-.017l2.385-.7a.437.437,0,0,0,.3-.538l-1.639-5.577,5.186.421h.032a.44.44,0,0,0,.437-.4A.424.424,0,0,0,23.9,16.871Zm-5.47-.7-1.451-.117.41,1.4,1.48,5.033-1.3.383L16.051,17.7l-.409-1.394-1.157.88-3.323,2.531L13.1,5.761l9.148,10.718Z"/>
    </symbol>
    <symbol viewBox="0 0 24 24" id="subscription-packages">
        <g transform="translate(-88.017 -7.984)">
            <path d="M105.017,9.984v20h-10v-20h10m1-1h-12v22h12v-22Z"/>
            <path d="M107.017,12.984v1h4v12h-4v1h5v-14Z"/>
            <path d="M93.017,25.984h-4v-12h4v-1h-5v14h5Z"/>
        </g>
    </symbol>
    <symbol viewBox="0 0 24 24" id="subscription-offers">
        <g transform="translate(-87.996 -39.996)">
            <path d="M112,44.979h-7V40l-4.984,4.983h-.033L95,40v4.983H88v4h2V64h20V48.979h2ZM109,63H91V49h18ZM104,42.41v2.569h-2.57Zm-8,0,2.569,2.569H96Zm15,5.569H89v-2h6V46h10v-.017h6Z"/>
            <rect width="8" height="1" transform="translate(95.996 50.996)"/>
        </g>
    </symbol>
    <symbol viewBox="0 0 24 24" id="sales-over-time">
        <path d="M2,0V4H4A8,8,0,0,0,20,4h2V0ZM12,11A7.008,7.008,0,0,1,5,4H19A7.008,7.008,0,0,1,12,11Zm9-8H3V1H21Z"/>
        <path d="M20,20A8,8,0,0,0,4,20H2v4H22V20Zm-8-7a7.008,7.008,0,0,1,7,7H5A7.008,7.008,0,0,1,12,13Zm9,10H3V21H21Z"/>
    </symbol>
    <symbol viewBox="0 0 24 24" id="product-profit">
        <path d="M12.4142 5H21C21.5523 5 22 5.44772 22 6V20C22 20.5523 21.5523 21 21 21H3C2.44772 21 2 20.5523 2 20V4C2 3.44772 2.44772 3 3 3H10.4142L12.4142 5ZM4 5V19H20V7H11.5858L9.58579 5H4ZM11 9H13V17H11V9ZM15 12H17V17H15V12ZM7 14H9V17H7V14Z"></path>
    </symbol>
    <symbol viewBox="0 0 24 24" id="payout">
        <g transform="translate(-88.016 -144)">
            <path d="M112.017,152h0v-2a2,2,0,0,0-2-2h-20a2,2,0,0,0-2,2v12a2,2,0,0,0,2,2h20a2,2,0,0,0,2-2v-9h0Zm-22-3h20a1,1,0,0,1,1,1v2h-22v-2A1,1,0,0,1,90.016,149Zm21,13a1,1,0,0,1-1,1h-20a1,1,0,0,1-1-1v-9h22Z"/>
            <path d="M108.017,155.771l-.707-.707-4.95,4.949-2.117-2.117-.707.707,2.117,2.117.707.707,0,0,.707-.707,0,0Z"/>
            <rect width="6" height="1" transform="translate(91.017 159)"/>
        </g>
    </symbol>
    <symbol viewBox="0 0 24 24" id="transaction-report">
        <g transform="translate(-87.936 -112.044)">
            <path d="M102.935,112.044h-12v24h18v-18Zm0,1.415,4.585,4.585h-4.585Zm-11,21.585v-22h10v6h6v16Z"/>
            <rect width="7" height="1" transform="translate(93.936 121.043)"/>
            <rect width="9" height="1" transform="translate(93.936 125.043)"/>
            <rect width="11" height="1" transform="translate(93.94 129.043)"/>
            <path stroke-miterlimit="10" d="M105.935,131.544"/>
            <path stroke-miterlimit="10" d="M93.935,131.544"/>
        </g>
    </symbol>
    <!-- Plugins  -->
    <symbol viewBox="0 0 24 24" id="plugin-default">
        <path d="M0,.024V8H8.291V7H1V1.024H22.983V6.984H19.54v1h4.443V.024Z"/>
        <path d="M23.9,16.871,13.04,4.152A.435.435,0,0,0,12.71,4a.43.43,0,0,0-.281.1.419.419,0,0,0-.148.269l-2.3,16.57a.434.434,0,0,0,.368.49.335.335,0,0,0,.063,0,.423.423,0,0,0,.258-.087l4.419-3.365,1.674,5.7a.437.437,0,0,0,.418.312.414.414,0,0,0,.12-.017l2.385-.7a.437.437,0,0,0,.3-.538l-1.639-5.577,5.186.421h.032a.44.44,0,0,0,.437-.4A.424.424,0,0,0,23.9,16.871Zm-5.47-.7-1.451-.117.41,1.4,1.48,5.033-1.3.383L16.051,17.7l-.409-1.394-1.157.88-3.323,2.531L13.1,5.761l9.148,10.718Z"/>
    </symbol>
    <symbol viewBox="0 0 24 24" id="plugin-currency-converter">
        <g transform="translate(-88 -208.018)">
            <path d="M103.5,221.788a2.143,2.143,0,0,0-1.146-1.689,4.579,4.579,0,0,0-1.741-.518V217.06a2.641,2.641,0,0,1,1.765.749l.844-.536a3.549,3.549,0,0,0-2.609-1.218v-2.036h-1v2.023c-1.8.117-3.113,1.02-3.113,2.206a1.89,1.89,0,0,0,1.041,1.608,5.12,5.12,0,0,0,2.072.609V223a2.638,2.638,0,0,1-1.962-.875l-.9.43A3.512,3.512,0,0,0,99.613,224v2.021h1v-2.035C102.338,223.819,103.5,222.966,103.5,221.788Zm-5.434-2.782c-.376-.237-.566-.492-.566-.758,0-.528.852-1.106,2.113-1.208v2.418A3.993,3.993,0,0,1,98.066,219.006Zm2.547,3.973v-2.386a3.413,3.413,0,0,1,1.22.359,1.251,1.251,0,0,1,.667.836C102.5,222.373,101.708,222.847,100.613,222.979Z"/>
            <path d="M105.985,212.268l0,0-4.242-4.243-.707.707,3.54,3.541H94v1h12v-1Z"/>
            <path d="M106,226.77H94v1h.014l0,0,4.242,4.243.707-.707-3.539-3.54H106Z"/>
        </g>
    </symbol>
    <symbol viewBox="0 0 24.008 24" id="plugin-social-login">
        <g transform="translate(-88 -248.004)">
            <path d="M100.111,255.9l-.707.707,3.4,3.4H88v1h14.785L99.4,264.382l.707.707,4.6-4.6Z"/>
            <path d="M112.008,270h-16v-4h1v3h14V251h-14v3h-1v-4h16Z"/>
        </g>
    </symbol>
    <symbol viewBox="0 0 24 24" id="plugin-push-notification">
        <g transform="translate(346.5 120.2)">
            <path d="M-324.5-100l-1.7-2.9a8.923,8.923,0,0,1-1.2-4.5V-110a7.145,7.145,0,0,0-5-6.9v-1.3a2.006,2.006,0,0,0-2-2,2.006,2.006,0,0,0-2,2v1.3a7.145,7.145,0,0,0-5,6.9v2.6a8.923,8.923,0,0,1-1.2,4.5l-1.7,2.9a.446.446,0,0,0,0,.5.536.536,0,0,0,.4.3h6.5a2.946,2.946,0,0,0,3,3,2.946,2.946,0,0,0,3-3h6.5c.2,0,.3-.1.4-.3A.446.446,0,0,0-324.5-100Zm-11-18.2a.945.945,0,0,1,1-1,.945.945,0,0,1,1,1v1h-2Zm1,21a2.006,2.006,0,0,1-2-2h4A2.006,2.006,0,0,1-334.5-97.2Zm2.8-3h-11.4l1.3-2.2a9.934,9.934,0,0,0,1.4-5V-110a6.127,6.127,0,0,1,6-6.2,6.127,6.127,0,0,1,6,6.2v2.6a9.661,9.661,0,0,0,1.4,5l1.3,2.2Z"/>
        </g>
    </symbol>
    <symbol viewBox="0 0 24.001 24" id="plugin-payouts">
        <g transform="translate(-88.016 -144)">
            <path d="M112.017,152h0v-2a2,2,0,0,0-2-2h-20a2,2,0,0,0-2,2v12a2,2,0,0,0,2,2h20a2,2,0,0,0,2-2v-9h0Zm-22-3h20a1,1,0,0,1,1,1v2h-22v-2A1,1,0,0,1,90.016,149Zm21,13a1,1,0,0,1-1,1h-20a1,1,0,0,1-1-1v-9h22Z"/>
            <path d="M108.017,155.771l-.707-.707-4.95,4.949-2.117-2.117-.707.707,2.117,2.117.707.707,0,0,.707-.707,0,0Z"/>
            <rect width="6" height="1" transform="translate(91.017 159)"/>
        </g>
    </symbol>
    <symbol viewBox="0 0 24 24" id="plugin-advertisement-feed">
        <g transform="translate(-88 728)">
            <path d="M109-720v-6l-13,6H88v8h3v5h4v-5h1l13,6v-6h3v-8ZM94-708H92v-4h2Zm2-5H89v-6h7Zm12-7v12.4l-11-5.1v-6.7l11-5.1Zm3,7h-2v-6h2Z"/>
        </g>
    </symbol>
    <symbol viewBox="0 0 24 24" id="plugin-sms-notification">
        <g transform="translate(-88.016 15.992)">
            <path d="M104.416-11.942a2.7,2.7,0,0,1,2.6,2.781V-.6a2.614,2.614,0,0,1-2.6,2.682H99.867l-.22.117-6.425,3.41L93.7,3.17l.232-1.192H91.616A2.677,2.677,0,0,1,89.016-.7V-9.26a2.614,2.614,0,0,1,2.6-2.682h12.8m0-1h-12.8a3.6,3.6,0,0,0-3.6,3.682V-.7a3.661,3.661,0,0,0,3.6,3.681h1.1l-.7,3.583c0,.2,0,.3.2.4a.311.311,0,0,0,.2.1h.2l7.5-3.98h4.3a3.6,3.6,0,0,0,3.6-3.682V-9.161a3.686,3.686,0,0,0-3.6-3.781Z"/>
            <rect width="12" height="1" transform="translate(92.016 -6.992)"/>
            <rect width="12" height="1" transform="translate(92.016 -3.166)"/>
            <circle cx="4.5" cy="4.5" r="4.5" transform="translate(103.016 -15.992)"/>
        </g>
    </symbol>
    <symbol viewBox="0 0 24 24" id="plugin-full-text-search">
        <g transform="translate(-88.016 -16.113)">
            <path d="M111.016,24.113v8h-22v-8h22m1-1h-24v10h24v-10Z"/>
            <rect width="8" height="1" transform="translate(91.016 28.113)"/>
        </g>
    </symbol>
    <symbol viewBox="0 0 24 24" id="plugin-shipping-services">
        <g transform="translate(-88 -47.957)">
            <path d="M104,65.956H96v-1h7v-12H89v12h4v1H88v-14h16Z"/>
            <path d="M107.5,63.956a1.5,1.5,0,1,1-1.5,1.5,1.5,1.5,0,0,1,1.5-1.5m0-1a2.5,2.5,0,1,0,2.5,2.5,2.5,2.5,0,0,0-2.5-2.5Z"/>
            <path d="M94.5,63.956a1.5,1.5,0,1,1-1.5,1.5,1.5,1.5,0,0,1,1.5-1.5m0-1a2.5,2.5,0,1,0,2.5,2.5,2.5,2.5,0,0,0-2.5-2.5Z"/>
            <path d="M112,65.956h-2.775v-1H111v-4.9a3.083,3.083,0,0,0-3.057-3.1H104v8h1.743v1H103v-10h4.943a4.084,4.084,0,0,1,4.057,4.1Z"/>
            <rect width="8" height="1" transform="translate(91 55.956)"/>
            <rect width="8" height="1" transform="translate(93 58.956)"/>
        </g>
    </symbol>
    <symbol viewBox="0 0 24 24" id="plugin-tax-services">
        <path d="M6.636,12.092H5.107v-.9H9.27v.9H7.741v3.876H6.636Z"/>
        <path d="M12.771,14.945H10.553l-.423,1.023H9l2.129-4.777h1.093l2.135,4.777H13.195Zm-.348-.84-.757-1.829L10.908,14.1Z"/>
        <path d="M17.617,15.968l-1.154-1.659-1.132,1.659h-1.27l1.768-2.429L14.15,11.191h1.256l1.1,1.549,1.079-1.549h1.194L17.112,13.5l1.781,2.47Z"/>
        <path d="M15.343,0H3V24H21V5.657ZM20,23H4V1H14V7.053h6ZM15,6.053V1.075l4.978,4.978Z"/>
    </symbol>
    <symbol viewBox="0 0 24 24" id="plugin-split-payment-method">
        <g transform="translate(-88 -144.016)">
            <path d="M110,150.016h-2v-1.624a2.39,2.39,0,0,0-2.4-2.375H90.4a2.4,2.4,0,0,0-2.4,2.4v11.2a2.4,2.4,0,0,0,2.4,2.4H92v2a2.006,2.006,0,0,0,2,2h16a2.006,2.006,0,0,0,2-2v-12A2.006,2.006,0,0,0,110,150.016Zm-18,11H90.4a1.4,1.4,0,0,1-1.4-1.4v-11.2a1.4,1.4,0,0,1,1.4-1.4h15.2a1.389,1.389,0,0,1,1.4,1.375v1.624H94a2.006,2.006,0,0,0-2,2v9Zm19,3a1,1,0,0,1-1,1H94a1,1,0,0,1-1-1v-9h18Zm-18-10v-2a1,1,0,0,1,1-1h16a1,1,0,0,1,1,1v2Z"/>
            <path stroke-miterlimit="10" d="M96.839,163.339"/>
        </g>
    </symbol>
    <symbol viewBox="0 0 24 24" id="plugin-marketplace-channels">
        <g transform="translate(-88.016 -111.973)">
            <path d="M109.516,130.973a2.479,2.479,0,0,0-1.361.407l-4.273-4.272a4.9,4.9,0,0,0-.051-6.332l5.118-5.117a2.047,2.047,0,1,0-.681-.733l-5.152,5.152a4.9,4.9,0,0,0-6.261.05l-3.409-3.408a2.993,2.993,0,1,0-.709.705l3.413,3.413a4.9,4.9,0,0,0-.018,6.248l-3.148,3.147a1.975,1.975,0,0,0-.968-.26,2,2,0,1,0,2,2,1.978,1.978,0,0,0-.306-1.052l3.123-3.122a4.9,4.9,0,0,0,6.344.018l4.263,4.263a2.5,2.5,0,1,0,2.076-1.107Zm.5-18a1,1,0,1,1-1,1A1,1,0,0,1,110.016,112.973Zm-19,4a2,2,0,1,1,2-2A2,2,0,0,1,91.016,116.973Zm1,16a1,1,0,1,1,1-1A1,1,0,0,1,92.016,132.973Zm4-9a4,4,0,1,1,4,4A4,4,0,0,1,96.016,123.973Zm13.5,11a1.5,1.5,0,1,1,1.5-1.5A1.5,1.5,0,0,1,109.516,134.973Z"/>
        </g>
    </symbol>
    <symbol viewBox="0 0 24 24" id="plugin-regular-payment-method">
        <g transform="translate(-88.016 -79.952)">
            <path d="M110.016,82.952h-20a2,2,0,0,0-2,2v14a2,2,0,0,0,2,2h20a2,2,0,0,0,2-2v-14A2,2,0,0,0,110.016,82.952Zm1,12h-7a3,3,0,0,1,0-6h7Zm-7-7a4,4,0,0,0,0,8h7v3a1,1,0,0,1-1,1h-20a1,1,0,0,1-1-1v-14a1,1,0,0,1,1-1h20a1,1,0,0,1,1,1v3Z"/>
            <circle cx="1" cy="1" r="1" transform="translate(103.016 90.952)"/>
        </g>
    </symbol>
    <symbol viewBox="0 0 24 24" id="plugin-shipment-tracking">
        <g transform="translate(-88.016 -48.006)">
            <circle cx="2" cy="2" r="2" transform="translate(101.516 61.554)"/>
            <path d="M111.016,49.006v22h-22v-22h22m1-1h-24v24h24v-24Z"/>
            <rect width="8" height="1" transform="translate(96.016 51.006)"/>
            <path d="M109.516,63.154h-1.541a4.487,4.487,0,0,0-4.058-4.059v-1.54h-.8v1.539a4.449,4.449,0,0,0-4.06,4.06h-1.54v.8h1.54a4.449,4.449,0,0,0,4.059,4.06v1.54h.8v-1.54a4.447,4.447,0,0,0,4.06-4.06h1.54Zm-6,4.1a3.7,3.7,0,0,1,0-7.4,3.7,3.7,0,0,1,3.7,3.7A3.661,3.661,0,0,1,103.516,67.255Z"/>
        </g>
    </symbol>
    <symbol viewBox="0 0 24 24" id="plugin-data-migration">
        <path d="M7 5C7 2.79086 8.79086 1 11 1C13.2091 1 15 2.79086 15 5H18C18.5523 5 19 5.44772 19 6V9C21.2091 9 23 10.7909 23 13C23 15.2091 21.2091 17 19 17V20C19 20.5523 18.5523 21 18 21H4C3.44772 21 3 20.5523 3 20V6C3 5.44772 3.44772 5 4 5H7ZM11 3C9.89543 3 9 3.89543 9 5C9 5.23554 9.0403 5.45952 9.11355 5.66675C9.22172 5.97282 9.17461 6.31235 8.98718 6.57739C8.79974 6.84243 8.49532 7 8.17071 7H5V19H17V15.8293C17 15.5047 17.1576 15.2003 17.4226 15.0128C17.6877 14.8254 18.0272 14.7783 18.3332 14.8865C18.5405 14.9597 18.7645 15 19 15C20.1046 15 21 14.1046 21 13C21 11.8954 20.1046 11 19 11C18.7645 11 18.5405 11.0403 18.3332 11.1135C18.0272 11.2217 17.6877 11.1746 17.4226 10.9872C17.1576 10.7997 17 10.4953 17 10.1707V7H13.8293C13.5047 7 13.2003 6.84243 13.0128 6.57739C12.8254 6.31235 12.7783 5.97282 12.8865 5.66675C12.9597 5.45952 13 5.23555 13 5C13 3.89543 12.1046 3 11 3Z"></path>
    </symbol>
    <symbol id="easyecom" viewBox="0 0 182 182">
        <path d="M6 58.552L93.1 9.004l83.219 49.548v98.71l-33.677 20.129-50.707-28.649-51.484 27.871-34.064-20.129z" fill="#00837e"/>
        <path d="M91.935 148.742l-51.484 27.871-34.064-20.129L6 58.552 93.1 9.004" fill="#1f9e45"/>
        <path d="M41.234 82.799l51.54-29.492 50.581 28.387v9.548L92.774 62.597l-51.5 29.613zm0 46.253l51.54-29.492 50.58 28.392v9.548l-50.58-28.648-51.5 29.613z" fill="#fff"/>
    </symbol>
    <!-- Buyer dashboard -->
    <symbol viewBox="0 0 24 24" id="my-offers">
        <path d="M10.0544 2.0941C11.1756 1.13856 12.8248 1.13855 13.9461 2.09411L15.2941 3.24286C15.4542 3.37935 15.6533 3.46182 15.8631 3.47856L17.6286 3.61945C19.0971 3.73663 20.2633 4.9028 20.3805 6.37131L20.5214 8.13679C20.5381 8.34654 20.6205 8.54568 20.757 8.70585L21.9058 10.0539C22.8614 11.1751 22.8614 12.8243 21.9058 13.9456L20.757 15.2935C20.6206 15.4537 20.538 15.6529 20.5213 15.8627L20.3805 17.6281C20.2633 19.0967 19.0971 20.2628 17.6286 20.3799L15.8631 20.5208C15.6533 20.5376 15.4542 20.6201 15.2941 20.7566L13.9461 21.9053C12.8248 22.8609 11.1756 22.8608 10.0543 21.9053L8.70631 20.7566C8.54615 20.6201 8.34705 20.5376 8.1373 20.5209L6.37184 20.3799C4.9033 20.2627 3.73716 19.0966 3.61997 17.6281L3.47906 15.8627C3.46232 15.6529 3.37983 15.4538 3.24336 15.2936L2.0946 13.9455C1.13905 12.8243 1.13904 11.1752 2.09458 10.0539L3.24334 8.70589C3.37983 8.54573 3.46234 8.34654 3.47907 8.13678L3.61996 6.3713C3.73714 4.90278 4.90327 3.73665 6.3718 3.61946L8.13729 3.47857C8.34705 3.46183 8.54619 3.37935 8.70636 3.24286L10.0544 2.0941ZM12.6488 3.61632C12.2751 3.29782 11.7253 3.29781 11.3516 3.61632L10.0036 4.76509C9.5231 5.17456 8.92568 5.42201 8.29637 5.47223L6.5309 5.61312C6.04139 5.65219 5.65268 6.04089 5.61362 6.53041L5.47272 8.29593C5.4225 8.92521 5.17505 9.52259 4.76559 10.0031L3.61683 11.3511C3.29832 11.7248 3.29831 12.2746 3.61683 12.6483L4.76559 13.9963C5.17506 14.4768 5.4225 15.0743 5.47275 15.7035L5.61363 17.469C5.65268 17.9585 6.04139 18.3473 6.53092 18.3863L8.29636 18.5272C8.92563 18.5774 9.5231 18.8249 10.0036 19.2344L11.3516 20.3831C11.7254 20.7016 12.2751 20.7016 12.6488 20.3831L13.9969 19.2343C14.4773 18.8249 15.0747 18.5774 15.704 18.5272L17.4695 18.3863C17.959 18.3472 18.3478 17.9585 18.3868 17.469L18.5277 15.7035C18.5779 15.0742 18.8253 14.4768 19.2349 13.9964L20.3836 12.6483C20.7022 12.2746 20.7021 11.7249 20.3836 11.3511L19.2348 10.0031C18.8253 9.52259 18.5779 8.92519 18.5277 8.2959L18.3868 6.53041C18.3478 6.0409 17.959 5.65219 17.4695 5.61312L15.704 5.47224C15.0748 5.42203 14.4773 5.17455 13.9968 4.76508L12.6488 3.61632ZM14.8284 7.75718L16.2426 9.1714L9.17154 16.2425L7.75733 14.8282L14.8284 7.75718ZM10.2322 10.232C9.64641 10.8178 8.69667 10.8178 8.11088 10.232C7.52509 9.6463 7.52509 8.69652 8.11088 8.11073C8.69667 7.52494 9.64641 7.52494 10.2322 8.11073C10.818 8.69652 10.818 9.6463 10.2322 10.232ZM13.7677 15.8889C14.3535 16.4747 15.3032 16.4747 15.889 15.8889C16.4748 15.3031 16.4748 14.3534 15.889 13.7676C15.3032 13.1818 14.3535 13.1818 13.7677 13.7676C13.1819 14.3534 13.1819 15.3031 13.7677 15.8889Z"></path>
    </symbol>
    <symbol viewBox="0 0 24 24" id="reward-points">
        <g transform="translate(64.035 -31.935)">
            <path d="M-52.035,31.935a12,12,0,0,0-12,12,12,12,0,0,0,12,12,12,12,0,0,0,12-12A12,12,0,0,0-52.035,31.935Zm0,23a11.012,11.012,0,0,1-11-11,11.013,11.013,0,0,1,11-11,11.012,11.012,0,0,1,11,11A11.012,11.012,0,0,1-52.035,54.935Z"/>
            <path d="M-52.035,34.935a9,9,0,0,0-9,9,9,9,0,0,0,9,9,9,9,0,0,0,9-9A9,9,0,0,0-52.035,34.935Zm0,17a8.009,8.009,0,0,1-8-8,8.009,8.009,0,0,1,8-8,8.009,8.009,0,0,1,8,8A8.009,8.009,0,0,1-52.035,51.935Z"/>
            <path d="M-50.4,42.285l-1.642-4.125-1.642,4.125-4.356.287,3.341,2.836-1.1,4.3,3.753-2.372,3.753,2.372-1.1-4.3,3.345-2.836Zm.046,3.37.476,1.869-1.63-1.03-.534-.338-.535.338-1.629,1.03.476-1.869.154-.6-.476-.4-1.459-1.239,1.892-.124.63-.041.234-.587.713-1.791.713,1.791.233.587.63.041,1.894.124-1.46,1.239-.477.4Z"/>
        </g>
    </symbol>
    <symbol viewBox="0 0 24 24" id="share-earn">
        <g transform="translate(391.9 320)">
            <path d="M-371.9-304a3.864,3.864,0,0,0-3.3,1.8l-8.9-4.5h0a5.852,5.852,0,0,0,.2-1.3,5.066,5.066,0,0,0-.2-1.3h0l8.9-4.5a3.864,3.864,0,0,0,3.3,1.8,4.012,4.012,0,0,0,4-4,4.012,4.012,0,0,0-4-4,4.012,4.012,0,0,0-4,4,5.068,5.068,0,0,0,.2,1.3l-8.9,4.5a3.864,3.864,0,0,0-3.3-1.8,4.012,4.012,0,0,0-4,4,4.012,4.012,0,0,0,4,4,3.864,3.864,0,0,0,3.3-1.8l8.9,4.5a5.854,5.854,0,0,0-.2,1.3,4.012,4.012,0,0,0,4,4,4.012,4.012,0,0,0,4-4A4.012,4.012,0,0,0-371.9-304Zm0-15a2.946,2.946,0,0,1,3,3,2.946,2.946,0,0,1-3,3,2.946,2.946,0,0,1-3-3A3.009,3.009,0,0,1-371.9-319Zm-12.4,9.3c-.1-.2-.2-.3-.3-.5A.55.55,0,0,1-384.3-309.7Zm-3.6,4.7a2.946,2.946,0,0,1-3-3,2.946,2.946,0,0,1,3-3,2.946,2.946,0,0,1,3,3A2.946,2.946,0,0,1-387.9-305Zm3.6-1.3c-.1.2-.2.3-.3.5A.55.55,0,0,0-384.3-306.3Zm12.4,9.3a2.946,2.946,0,0,1-3-3,2.946,2.946,0,0,1,3-3,2.946,2.946,0,0,1,3,3A2.946,2.946,0,0,1-371.9-297Z"/>
        </g>
    </symbol>
    <symbol viewBox="0 0 24 24" id="RFQ-in-progress">
        <g transform="translate(391.9 320)">
            <path d="M-371.9-304a3.864,3.864,0,0,0-3.3,1.8l-8.9-4.5h0a5.852,5.852,0,0,0,.2-1.3,5.066,5.066,0,0,0-.2-1.3h0l8.9-4.5a3.864,3.864,0,0,0,3.3,1.8,4.012,4.012,0,0,0,4-4,4.012,4.012,0,0,0-4-4,4.012,4.012,0,0,0-4,4,5.068,5.068,0,0,0,.2,1.3l-8.9,4.5a3.864,3.864,0,0,0-3.3-1.8,4.012,4.012,0,0,0-4,4,4.012,4.012,0,0,0,4,4,3.864,3.864,0,0,0,3.3-1.8l8.9,4.5a5.854,5.854,0,0,0-.2,1.3,4.012,4.012,0,0,0,4,4,4.012,4.012,0,0,0,4-4A4.012,4.012,0,0,0-371.9-304Zm0-15a2.946,2.946,0,0,1,3,3,2.946,2.946,0,0,1-3,3,2.946,2.946,0,0,1-3-3A3.009,3.009,0,0,1-371.9-319Zm-12.4,9.3c-.1-.2-.2-.3-.3-.5A.55.55,0,0,1-384.3-309.7Zm-3.6,4.7a2.946,2.946,0,0,1-3-3,2.946,2.946,0,0,1,3-3,2.946,2.946,0,0,1,3,3A2.946,2.946,0,0,1-387.9-305Zm3.6-1.3c-.1.2-.2.3-.3.5A.55.55,0,0,0-384.3-306.3Zm12.4,9.3a2.946,2.946,0,0,1-3-3,2.946,2.946,0,0,1,3-3,2.946,2.946,0,0,1,3,3A2.946,2.946,0,0,1-371.9-297Z"/>
        </g>
    </symbol>
    <symbol viewBox="0 0 24 24" id="RFQ-accepted">
        <g transform="translate(391.9 320)">
            <path d="M-371.9-304a3.864,3.864,0,0,0-3.3,1.8l-8.9-4.5h0a5.852,5.852,0,0,0,.2-1.3,5.066,5.066,0,0,0-.2-1.3h0l8.9-4.5a3.864,3.864,0,0,0,3.3,1.8,4.012,4.012,0,0,0,4-4,4.012,4.012,0,0,0-4-4,4.012,4.012,0,0,0-4,4,5.068,5.068,0,0,0,.2,1.3l-8.9,4.5a3.864,3.864,0,0,0-3.3-1.8,4.012,4.012,0,0,0-4,4,4.012,4.012,0,0,0,4,4,3.864,3.864,0,0,0,3.3-1.8l8.9,4.5a5.854,5.854,0,0,0-.2,1.3,4.012,4.012,0,0,0,4,4,4.012,4.012,0,0,0,4-4A4.012,4.012,0,0,0-371.9-304Zm0-15a2.946,2.946,0,0,1,3,3,2.946,2.946,0,0,1-3,3,2.946,2.946,0,0,1-3-3A3.009,3.009,0,0,1-371.9-319Zm-12.4,9.3c-.1-.2-.2-.3-.3-.5A.55.55,0,0,1-384.3-309.7Zm-3.6,4.7a2.946,2.946,0,0,1-3-3,2.946,2.946,0,0,1,3-3,2.946,2.946,0,0,1,3,3A2.946,2.946,0,0,1-387.9-305Zm3.6-1.3c-.1.2-.2.3-.3.5A.55.55,0,0,0-384.3-306.3Zm12.4,9.3a2.946,2.946,0,0,1-3-3,2.946,2.946,0,0,1,3-3,2.946,2.946,0,0,1,3,3A2.946,2.946,0,0,1-371.9-297Z"/>
        </g>
    </symbol>
    <symbol viewBox="0 0 24 24" id="RFQ-rejected">
        <g transform="translate(391.9 320)">
            <path d="M-371.9-304a3.864,3.864,0,0,0-3.3,1.8l-8.9-4.5h0a5.852,5.852,0,0,0,.2-1.3,5.066,5.066,0,0,0-.2-1.3h0l8.9-4.5a3.864,3.864,0,0,0,3.3,1.8,4.012,4.012,0,0,0,4-4,4.012,4.012,0,0,0-4-4,4.012,4.012,0,0,0-4,4,5.068,5.068,0,0,0,.2,1.3l-8.9,4.5a3.864,3.864,0,0,0-3.3-1.8,4.012,4.012,0,0,0-4,4,4.012,4.012,0,0,0,4,4,3.864,3.864,0,0,0,3.3-1.8l8.9,4.5a5.854,5.854,0,0,0-.2,1.3,4.012,4.012,0,0,0,4,4,4.012,4.012,0,0,0,4-4A4.012,4.012,0,0,0-371.9-304Zm0-15a2.946,2.946,0,0,1,3,3,2.946,2.946,0,0,1-3,3,2.946,2.946,0,0,1-3-3A3.009,3.009,0,0,1-371.9-319Zm-12.4,9.3c-.1-.2-.2-.3-.3-.5A.55.55,0,0,1-384.3-309.7Zm-3.6,4.7a2.946,2.946,0,0,1-3-3,2.946,2.946,0,0,1,3-3,2.946,2.946,0,0,1,3,3A2.946,2.946,0,0,1-387.9-305Zm3.6-1.3c-.1.2-.2.3-.3.5A.55.55,0,0,0-384.3-306.3Zm12.4,9.3a2.946,2.946,0,0,1-3-3,2.946,2.946,0,0,1,3-3,2.946,2.946,0,0,1,3,3A2.946,2.946,0,0,1-371.9-297Z"/>
        </g>
    </symbol>
    <symbol viewBox="0 0 24 24" id="RFQ-order">
        <g transform="translate(391.9 320)">
            <path d="M-371.9-304a3.864,3.864,0,0,0-3.3,1.8l-8.9-4.5h0a5.852,5.852,0,0,0,.2-1.3,5.066,5.066,0,0,0-.2-1.3h0l8.9-4.5a3.864,3.864,0,0,0,3.3,1.8,4.012,4.012,0,0,0,4-4,4.012,4.012,0,0,0-4-4,4.012,4.012,0,0,0-4,4,5.068,5.068,0,0,0,.2,1.3l-8.9,4.5a3.864,3.864,0,0,0-3.3-1.8,4.012,4.012,0,0,0-4,4,4.012,4.012,0,0,0,4,4,3.864,3.864,0,0,0,3.3-1.8l8.9,4.5a5.854,5.854,0,0,0-.2,1.3,4.012,4.012,0,0,0,4,4,4.012,4.012,0,0,0,4-4A4.012,4.012,0,0,0-371.9-304Zm0-15a2.946,2.946,0,0,1,3,3,2.946,2.946,0,0,1-3,3,2.946,2.946,0,0,1-3-3A3.009,3.009,0,0,1-371.9-319Zm-12.4,9.3c-.1-.2-.2-.3-.3-.5A.55.55,0,0,1-384.3-309.7Zm-3.6,4.7a2.946,2.946,0,0,1-3-3,2.946,2.946,0,0,1,3-3,2.946,2.946,0,0,1,3,3A2.946,2.946,0,0,1-387.9-305Zm3.6-1.3c-.1.2-.2.3-.3.5A.55.55,0,0,0-384.3-306.3Zm12.4,9.3a2.946,2.946,0,0,1-3-3,2.946,2.946,0,0,1,3-3,2.946,2.946,0,0,1,3,3A2.946,2.946,0,0,1-371.9-297Z"/>
        </g>
    </symbol>
    <symbol viewBox="0 0 24.009 24" id="account-settings">
        <g transform="translate(-87.8 8)">
            <path d="M96-7a3.63,3.63,0,0,1,3.7,3.7A3.919,3.919,0,0,1,96,.8a3.921,3.921,0,0,1-3.7-4.1A3.691,3.691,0,0,1,96-7m0-1a4.573,4.573,0,0,0-4.7,4.7A4.92,4.92,0,0,0,96,1.8a4.858,4.858,0,0,0,4.7-5.1A4.573,4.573,0,0,0,96-8Z"/>
            <path d="M98,11H88.9c.1-5.3,4.4-6.4,8-6.4H98v-1H96.9c-5.8,0-9,2.7-9,7.7a.684.684,0,0,0,.7.7h9.3V11Z"/>
            <path d="M106.244,4l.165,1.232.082.619.593.2a3.473,3.473,0,0,1,.661.383l.451.3.5-.214,1.015-.435.924,1.492L109.8,8.2l-.4.3v2l.4.3.839.629-.941,1.593-1.127-.451-.488-.195-.438.292a3.473,3.473,0,0,1-.661.383l-.593.2-.082.619L106.158,15h-1.916l-.151-1.132-.082-.619-.593-.2a3.473,3.473,0,0,1-.661-.383l-.451-.3-.5.214-1.015.435-.924-1.492.833-.624.4-.3v-2l-.4-.3-.88-.66.982-1.662,1.127.45.488.2.438-.292a3.473,3.473,0,0,1,.661-.383l.593-.2.082-.619L104.342,4h1.9m.356-1H104a.56.56,0,0,0-.6.5L103.2,5a4.053,4.053,0,0,0-.9.5l-1.5-.6h-.2a.55.55,0,0,0-.5.3L98.8,7.4a.619.619,0,0,0,.1.8l1.2.9v1l-1.2.9a.494.494,0,0,0-.1.7l1.3,2.1a.55.55,0,0,0,.5.3h.2l1.4-.6a4.054,4.054,0,0,0,.9.5l.2,1.5a.56.56,0,0,0,.6.5h2.6a.56.56,0,0,0,.6-.5l.2-1.5a4.053,4.053,0,0,0,.9-.5l1.5.6h.2a.55.55,0,0,0,.5-.3l1.3-2.2c.1-.3.1-.6-.1-.7l-1.2-.9V9l1.2-.9a.494.494,0,0,0,.1-.7l-1.3-2.1a.55.55,0,0,0-.5-.3h-.2l-1.4.6a4.054,4.054,0,0,0-.9-.5l-.2-1.5a.576.576,0,0,0-.6-.6Z"/>
            <path d="M105.5,8.5a.945.945,0,0,1,1,1,1,1,0,0,1-2,0,1.075,1.075,0,0,1,1-1m0-1a2,2,0,1,0,2,2,2.006,2.006,0,0,0-2-2Z"/>
        </g>
    </symbol>
    <symbol viewBox="0 0 24 24" id="manage-address">
        <path d="M12,1.078l10.2,9.844H20.26V23H15.013V15.753H8.987V23H3.74V10.922H1.8L12,1.078M12,0a.8.8,0,0,0-.559.227L.762,10.538a.8.8,0,0,0,.559,1.384H2.74V23.195A.805.805,0,0,0,3.546,24H9.182a.8.8,0,0,0,.805-.805V16.753h4.026v6.442a.8.8,0,0,0,.805.805h5.636a.805.805,0,0,0,.806-.805V11.922h1.419a.8.8,0,0,0,.559-1.384L12.559.227A.8.8,0,0,0,12,0Z"/>
    </symbol>
    <symbol viewBox="0 0 24 24" id="favorites">
        <g transform="translate(-15.504 -1.98)">
            <path d="M33.129,4.386c3.065,0,5.375,2.543,5.375,5.915,0,3.8-3.279,6.592-8.244,10.823-.836.712-1.776,1.513-2.756,2.368-.979-.855-1.92-1.657-2.756-2.368C19.784,16.893,16.5,14.1,16.5,10.3c0-3.372,2.311-5.915,5.375-5.915A4.705,4.705,0,0,1,24.816,5.4,7.1,7.1,0,0,1,26.627,7.59l.877,1.6.878-1.6A7.106,7.106,0,0,1,30.192,5.4a4.709,4.709,0,0,1,2.937-1.018m0-1a5.68,5.68,0,0,0-3.548,1.227A8.088,8.088,0,0,0,27.5,7.11a8.069,8.069,0,0,0-2.076-2.5,5.681,5.681,0,0,0-3.549-1.227c-3.634,0-6.375,2.973-6.375,6.915,0,4.259,3.42,7.173,8.6,11.584.879.749,1.875,1.6,2.911,2.5a.748.748,0,0,0,.987,0c1.036-.905,2.032-1.754,2.912-2.5C36.085,17.474,39.5,14.56,39.5,10.3c0-3.942-2.74-6.915-6.375-6.915Z"/>
        </g>
    </symbol>
    <!-- Advertise Dashboard -->
    <symbol viewBox="0 0 24 24" id="my-promotions">
        <path d="M9 17C9 17 16 18 19 21H20C20.5523 21 21 20.5523 21 20V13.937C21.8626 13.715 22.5 12.9319 22.5 12C22.5 11.0681 21.8626 10.285 21 10.063V4C21 3.44772 20.5523 3 20 3H19C16 6 9 7 9 7H5C3.89543 7 3 7.89543 3 9V15C3 16.1046 3.89543 17 5 17H6L7 22H9V17ZM11 8.6612C11.6833 8.5146 12.5275 8.31193 13.4393 8.04373C15.1175 7.55014 17.25 6.77262 19 5.57458V18.4254C17.25 17.2274 15.1175 16.4499 13.4393 15.9563C12.5275 15.6881 11.6833 15.4854 11 15.3388V8.6612ZM5 9H9V15H5V9Z"></path>
    </symbol>
    <symbol viewBox="0 0 24 24" id="promotion-charges">
        <path d="M12 1A11 11 0 111 12 10.968 10.968 0 0112 1m0-1a12 12 0 1012 12A12.035 12.035 0 0012 0z"/>
        <path d="M15.536 12.937a4.623 4.623 0 00-2.288-1.111l-.248-.06V7.021a4.317 4.317 0 011.057.286 5.881 5.881 0 011.618 1.074l.463-.832a4.062 4.062 0 00-1.654-1.144A5.9 5.9 0 0013 6.066V4h-1v2.014a4.565 4.565 0 00-2.785.886 2.9 2.9 0 00-1.122 2.383 2.644 2.644 0 00.809 1.9 4.173 4.173 0 002.127 1.133l.971.229v4.483a6.413 6.413 0 01-2.046-.307 5.862 5.862 0 01-1.816-1.1l-.438.808A5.812 5.812 0 0012 18v2h1v-2.069a4.472 4.472 0 002.131-.81 2.734 2.734 0 001.169-2.289 2.57 2.57 0 00-.764-1.895zm-4.276-1.6a3.144 3.144 0 01-1.573-.786 1.956 1.956 0 01-.508-1.411 1.882 1.882 0 01.8-1.618A3.634 3.634 0 0112 6.961v4.561zm3.168 5.144a3.4 3.4 0 01-1.428.481v-4.185a3.927 3.927 0 011.7.8 1.734 1.734 0 01.533 1.329 1.789 1.789 0 01-.805 1.579z"/>
    </symbol>
    <!-- affiliate Dashboard -->
    <symbol viewBox="0 0 24 24" id="my-reffered"
    >
        <path d="M12 1A11 11 0 111 12 10.968 10.968 0 0112 1m0-1a12 12 0 1012 12A12.035 12.035 0 0012 0z"/>
        <path d="M15.536 12.937a4.623 4.623 0 00-2.288-1.111l-.248-.06V7.021a4.317 4.317 0 011.057.286 5.881 5.881 0 011.618 1.074l.463-.832a4.062 4.062 0 00-1.654-1.144A5.9 5.9 0 0013 6.066V4h-1v2.014a4.565 4.565 0 00-2.785.886 2.9 2.9 0 00-1.122 2.383 2.644 2.644 0 00.809 1.9 4.173 4.173 0 002.127 1.133l.971.229v4.483a6.413 6.413 0 01-2.046-.307 5.862 5.862 0 01-1.816-1.1l-.438.808A5.812 5.812 0 0012 18v2h1v-2.069a4.472 4.472 0 002.131-.81 2.734 2.734 0 001.169-2.289 2.57 2.57 0 00-.764-1.895zm-4.276-1.6a3.144 3.144 0 01-1.573-.786 1.956 1.956 0 01-.508-1.411 1.882 1.882 0 01.8-1.618A3.634 3.634 0 0112 6.961v4.561zm3.168 5.144a3.4 3.4 0 01-1.428.481v-4.185a3.927 3.927 0 011.7.8 1.734 1.734 0 01.533 1.329 1.789 1.789 0 01-.805 1.579z"/>
    </symbol>
    <symbol viewBox="0 0 16 16" id="globe"
    >
        <path d="M0 8a8 8 0 1 1 16 0A8 8 0 0 1 0 8zm7.5-6.923c-.67.204-1.335.82-1.887 1.855A7.97 7.97 0 0 0 5.145 4H7.5V1.077zM4.09 4a9.267 9.267 0 0 1 .64-1.539 6.7 6.7 0 0 1 .597-.933A7.025 7.025 0 0 0 2.255 4H4.09zm-.582 3.5c.03-.877.138-1.718.312-2.5H1.674a6.958 6.958 0 0 0-.656 2.5h2.49zM4.847 5a12.5 12.5 0 0 0-.338 2.5H7.5V5H4.847zM8.5 5v2.5h2.99a12.495 12.495 0 0 0-.337-2.5H8.5zM4.51 8.5a12.5 12.5 0 0 0 .337 2.5H7.5V8.5H4.51zm3.99 0V11h2.653c.187-.765.306-1.608.338-2.5H8.5zM5.145 12c.138.386.295.744.468 1.068.552 1.035 1.218 1.65 1.887 1.855V12H5.145zm.182 2.472a6.696 6.696 0 0 1-.597-.933A9.268 9.268 0 0 1 4.09 12H2.255a7.024 7.024 0 0 0 3.072 2.472zM3.82 11a13.652 13.652 0 0 1-.312-2.5h-2.49c.062.89.291 1.733.656 2.5H3.82zm6.853 3.472A7.024 7.024 0 0 0 13.745 12H11.91a9.27 9.27 0 0 1-.64 1.539 6.688 6.688 0 0 1-.597.933zM8.5 12v2.923c.67-.204 1.335-.82 1.887-1.855.173-.324.33-.682.468-1.068H8.5zm3.68-1h2.146c.365-.767.594-1.61.656-2.5h-2.49a13.65 13.65 0 0 1-.312 2.5zm2.802-3.5a6.959 6.959 0 0 0-.656-2.5H12.18c.174.782.282 1.623.312 2.5h2.49zM11.27 2.461c.247.464.462.98.64 1.539h1.835a7.024 7.024 0 0 0-3.072-2.472c.218.284.418.598.597.933zM10.855 4a7.966 7.966 0 0 0-.468-1.068C9.835 1.897 9.17 1.282 8.5 1.077V4h2.355z"/>
    </symbol>
</svg>