<svg xmlns="http://www.w3.org/2000/svg" width="0" height="0">
    <defs>     
        <symbol id="test" viewBox="0 0 129 129">
            <path d="M51.6,96.7c11,0,21-3.9,28.8-10.5l35,35c0.8,0.8,1.8,1.2,2.9,1.2s2.1-0.4,2.9-1.2c1.6-1.6,1.6-4.2,0-5.8l-35-35   c6.5-7.8,10.5-17.9,10.5-28.8c0-24.9-20.2-45.1-45.1-45.1C26.8,6.5,6.5,26.8,6.5,51.6C6.5,76.5,26.8,96.7,51.6,96.7z M51.6,14.7   c20.4,0,36.9,16.6,36.9,36.9C88.5,72,72,88.5,51.6,88.5c-20.4,0-36.9-16.6-36.9-36.9C14.7,31.3,31.3,14.7,51.6,14.7z" />
        </symbol>
        
        <symbol id="my-sales" viewBox="0 0 405.333 405.333">
            <g>
                <rect y="202.677" width="101.333" height="101.333" />
                <rect x="151.979" y="101.344" width="101.333" height="202.667" />
                <rect x="304" y="0.011" width="101.333" height="304" />
                <rect y="354.656" width="405.333" height="50.667" />
            </g>
        </symbol>
        <symbol id="Credits" viewBox="0 0 64 43">
            <path d="M737,313.6v-3.071A5.54,5.54,0,0,0,731.461,305H678.539A5.54,5.54,0,0,0,673,310.529V313.6h64Zm-20.923,19.657a1.843,1.843,0,1,0,1.846,1.843A1.847,1.847,0,0,0,716.077,333.257ZM673,317.286h64v3.685H673v-3.685Zm0,7.371v17.814A5.54,5.54,0,0,0,678.539,348h52.922A5.54,5.54,0,0,0,737,342.471V324.657H673Zm17.231,12.286h-7.385a1.843,1.843,0,1,1,0-3.686h7.385A1.843,1.843,0,1,1,690.231,336.943Zm33.23,3.685a5.524,5.524,0,0,1-3.692-1.412,5.529,5.529,0,1,1,0-8.232A5.532,5.532,0,1,1,723.461,340.628Zm0-7.371a1.843,1.843,0,1,0,1.847,1.843A1.847,1.847,0,0,0,723.461,333.257Z" transform="translate(-673 -305)" />
        </symbol>
        <symbol id="order" viewBox="0 0 60 53">
            <path d="M1048.13,299.175a22.7,22.7,0,0,0-2.68,4.084,0.77,0.77,0,0,1-1.17.406c-0.97-.339-2-0.5-2.94-0.9-1.23-.511-1.45-0.051-1.45,1.116,0.03,8.943.02,17.887,0.02,26.831,0,3.544.03,7.09-.02,10.634-0.01,1.05.22,1.345,1.28,1.016q8.43-2.612,16.87-5.108a1.356,1.356,0,0,0,1.1-1.634c-0.05-2.944.02-5.89-.04-8.834-0.02-1.123.08-1.844,1.5-1.762a6.751,6.751,0,0,0,2.52-.5c1.2-.42,1.44,0,1.42,1.163-0.06,4.143-.01,8.289-0.03,12.433-0.01,2.161-.57,2.938-2.61,3.561-7.78,2.379-15.57,4.732-23.36,7.117a4.133,4.133,0,0,1-2.53-.011q-11.745-3.6-23.52-7.133a3.1,3.1,0,0,1-2.49-3.315q0.015-15.868,0-31.739a2.97,2.97,0,0,1,2.39-3.217c1.92-.525,3.83-1.112,5.71-1.769,1.2-.417,1.45-0.049,1.43,1.134-0.06,3.38.03,6.764-.05,10.143-0.03,1.317.37,1.655,1.58,1.256a16.575,16.575,0,0,1,2.05-.427c2.44-.47,2.44-0.469,2.44-2.873,0-3.381.03-6.763-.02-10.143a1.46,1.46,0,0,1,1.24-1.714c3.17-.881,6.32-1.838,9.47-2.787a2.5,2.5,0,0,1,1.42-.169C1041.11,297.056,1044.54,298.1,1048.13,299.175Zm0.27,10.659a10.8,10.8,0,1,1,21.6-.068A10.8,10.8,0,1,1,1048.4,309.834Zm9.36,4.276a4.066,4.066,0,0,0,.55-0.37q2.91-2.93,5.81-5.875a0.589,0.589,0,0,0,.18-0.823c-0.82-1.511-1.81-1.691-3.01-.48-0.76.768-1.58,1.481-2.26,2.32-0.82,1.025-1.53,1.23-2.34.044-0.55-.8-0.99-0.763-1.76-0.069-1.06.966-1.12,1.62,0.02,2.513a24.451,24.451,0,0,1,2.07,2.054C1057.24,313.648,1057.48,313.854,1057.76,314.11Z" transform="translate(-1010 -296)" />
        </symbol>
        <symbol id="sold" viewBox="0 0 59 57">
            <path d="M1360.16,292a15.1,15.1,0,0,1,14.86,11.9c0.04,0.164-.04.42,0.19,0.469a0.568,0.568,0,0,0,.43-0.3c1.16-1.138,2.31-2.28,3.47-3.423a6.008,6.008,0,0,1,4.13-1.729c3.87-.176,7.75-0.387,11.63-0.574,2.1-.1,4.2-0.212,6.3-0.268a2.564,2.564,0,0,1,2.83,2.786c-0.16,3.564-.38,7.126-0.56,10.69-0.11,2.053-.26,4.108-0.27,6.163a7.24,7.24,0,0,1-2.37,5.479c-8.42,8.217-16.77,16.5-25.14,24.765a3.08,3.08,0,0,1-2.14,1.045,2.867,2.867,0,0,1-2.18-.923q-7.935-7.835-15.88-15.664c-0.72-.713-1.45-1.423-2.17-2.14a2.689,2.689,0,0,1-.03-4.125c1.32-1.327,2.66-2.627,3.99-3.944a0.528,0.528,0,0,0,.3-0.422c-0.06-.214-0.31-0.146-0.48-0.182a14.936,14.936,0,0,1,1.07-29.489A19.944,19.944,0,0,1,1360.16,292Zm0.08,2.512a12.416,12.416,0,1,0-.03,24.828A12.414,12.414,0,1,0,1360.24,294.51Zm5.97,34.831a1.1,1.1,0,0,0,1.58,1.064,2.25,2.25,0,0,0,.67-0.521q8.055-7.94,16.1-15.881a3.389,3.389,0,0,0,.47-0.552,1.121,1.121,0,0,0-1.66-1.469,6.3,6.3,0,0,0-.49.455q-3.42,3.381-6.85,6.762l-9.24,9.116A1.337,1.337,0,0,0,1366.21,329.341Zm5.94,5.877a1.707,1.707,0,0,0,.98-0.585q5.625-5.56,11.27-11.12a2.1,2.1,0,0,0,.35-0.413,1.111,1.111,0,0,0-.81-1.7,1.351,1.351,0,0,0-1.18.517q-5.64,5.562-11.27,11.119a2.052,2.052,0,0,0-.48.622A1.157,1.157,0,0,0,1372.15,335.218ZM1358.36,312.8a1.257,1.257,0,0,1-.98-0.419c-1.89-1.9-3.79-3.793-5.67-5.706a1.236,1.236,0,0,1,0-1.837,1.267,1.267,0,0,1,1.82.061c1.45,1.42,2.91,2.839,4.3,4.312,0.46,0.483.68,0.4,1.09-.011,2.53-2.527,5.08-5.027,7.63-7.539a1.65,1.65,0,0,1,1.09-.6,1.212,1.212,0,0,1,1.15.565,1.105,1.105,0,0,1,.04,1.306,4.487,4.487,0,0,1-.55.648c-2.88,2.856-5.78,5.707-8.67,8.559A1.627,1.627,0,0,1,1358.36,312.8Z" transform="translate(-1345 -292)" />
        </symbol>
        <symbol id="refund" viewBox="0 0 464.331 464.331">
            <g id="Layer_8_21_">
                <path d="M464.331,177.387v214.884c0,7.74-6.271,14.011-14.006,14.011H14.008C6.271,406.282,0,400.012,0,392.271V177.387
				c0-7.74,6.271-14.009,14.008-14.009h31.984l-3.568,27.292c-0.725,5.515,1.188,11.157,5.138,15.135
				c3.413,3.414,7.957,5.297,12.78,5.297l11.577-1.502c-2.991,15.021-16.239,26.34-32.14,26.34c-4.148,0-8.107-0.812-11.768-2.213
				v100.049c3.653-1.406,7.614-2.21,11.768-2.21c18.105,0,32.785,14.676,32.785,32.777c0,4.984-1.144,9.69-3.138,13.915h324.623
				c-1.98-4.23-3.139-8.937-3.139-13.915c0-18.097,14.674-32.777,32.786-32.777c4.465,0,8.723,0.897,12.607,2.517V233.426
				c-3.885,1.62-8.143,2.52-12.607,2.52c-18.102,0-32.786-14.673-32.786-32.777c0-4.153,0.808-8.115,2.222-11.773h-197.24
				c3.957-2.818,6.721-7.174,7.394-12.143c0.866-6.014-1.368-11.918-5.656-15.875h125.219c-4.903-8.686-10.922-16.804-18.135-24.021
				c-41.839-41.834-108.882-43.224-152.543-4.416l-16.877,16.878l50.2,21.768c1.688,0.728,2.678,2.495,2.415,4.31
				c-0.246,1.816-1.688,3.239-3.507,3.474L59.374,197.715c-1.256,0.162-2.511-0.251-3.412-1.16c-0.892-0.897-1.319-2.158-1.155-3.406
				L71.153,68.123c0.117-0.925,0.535-1.732,1.154-2.353c0.61-0.619,1.417-1.032,2.313-1.16c1.816-0.26,3.586,0.733,4.319,2.418
				l21.765,50.195l12.26-12.186l-0.18-0.186c4.366-4.37,8.956-8.405,13.671-12.159c3.116-2.521,6.67-5.246,9.618-7.076
				c62.279-42.312,147.994-35.929,203.146,19.234c16.789,16.783,29.298,36.804,37.188,58.528h73.918
				C458.044,163.378,464.331,169.647,464.331,177.387z M164.688,333.524h26.953c-13.174-11.469-21.541-28.322-21.541-47.163
				c0-20.61,10.008-38.839,25.391-50.241h-30.802v-30.818h134.949v30.818h-29.78c15.377,11.402,25.379,29.63,25.379,50.241
				c0,18.841-8.35,35.689-21.526,47.163h25.928v30.819H164.688V333.524z M222.235,288.15c-11.046,4.953-18.751,16.013-18.751,28.904
				h63.363c0-13.647-8.635-25.236-20.717-29.691c6.358-4.131,10.574-11.294,10.574-19.441c0-12.788-10.378-23.169-23.167-23.169
				c-12.794,0-23.171,10.381-23.171,23.169C210.354,276.635,215.151,284.189,222.235,288.15z" />
            </g>
        </symbol>
        <symbol id="cancel" viewBox="-21 -60 682.66669 682">
            <path d="m487.5 260.25h37.5v37.5h-37.5zm0 0" />
            <path d="m337.5 147.75c0 103.5-84 187.5-187.5 187.5-26.625 0-52.125-5.625-75-15.375v240.375h565v-412.5zm37.5 225h75v37.5h-75zm-112.5 0h75v37.5h-75zm-112.5 0h75v37.5h-75zm412.5 112.5h-412.5v-37.5h412.5zm0-75h-75v-37.5h75zm0-75h-187.5v-112.5h187.5zm0 0" />
            <path d="m150-2.25c-82.875 0-150 67.125-150 150s67.125 150 150 150 150-67.125 150-150-67.125-150-150-150zm66.375 189.75-26.625 26.621094-39.75-39.746094-39.75 39.746094-26.625-26.621094 39.75-39.75-39.75-39.75 26.625-26.625 39.75 39.75 39.75-39.75 26.625 26.625-39.75 39.75zm0 0" />
        </symbol>
        <symbol id="messages" viewBox="0 0 65 53">
            <path d="M1743.18,293h-44.6a4.847,4.847,0,0,0-4.82,4.84v27.844a4.847,4.847,0,0,0,4.82,4.84h30.75l6.95,7.051a1.5,1.5,0,0,0,1.07.478,1.538,1.538,0,0,0,1.55-1.554v-5.975h4.28a4.847,4.847,0,0,0,4.82-4.84V297.84A4.847,4.847,0,0,0,1743.18,293Zm-37.76,23.96a4.481,4.481,0,1,1,4.46-4.481A4.5,4.5,0,0,1,1705.42,316.96Zm15.64,0a4.481,4.481,0,1,1,4.46-4.481A4.5,4.5,0,0,1,1721.06,316.96Zm15.58,0a4.481,4.481,0,1,1,4.46-4.481A4.5,4.5,0,0,1,1736.64,316.96Zm-45.61,8.844v-9.5h-4.88a3.182,3.182,0,0,0-3.15,3.167v18.284a3.136,3.136,0,0,0,3.15,3.286h2.8v3.944a1.04,1.04,0,0,0,1.01,1.016,0.991,0.991,0,0,0,.71-0.3l4.58-4.6h20.22a3.182,3.182,0,0,0,3.15-3.167v-4.541h-20.04A7.581,7.581,0,0,1,1691.03,325.8Z" transform="translate(-1683 -293)" />
        </symbol>
        <symbol id="revenue" viewBox="0 0 47.001 47.001">
            <path d="M41.188,9.372c0-0.837-0.85-1.081-1.512-1.229v2.434C40.414,10.527,41.188,10.181,41.188,9.372z" />
            <path d="M38.938,4.185C38.102,4.209,37.56,4.702,37.56,5.23c0,0.615,0.458,0.971,1.379,1.155L38.938,4.185L38.938,4.185z" />
            <path d="M39.283,14.867c4.1,0,7.434-3.335,7.434-7.433S43.382,0,39.283,0c-4.101,0-7.436,3.335-7.436,7.434
				C31.847,11.532,35.182,14.867,39.283,14.867z M36.014,5.512c0-1.67,1.389-2.533,2.925-2.581V2.277
				c0-0.211,0.159-0.419,0.367-0.419c0.21,0,0.37,0.208,0.37,0.419v0.654c0.957,0.025,2.926,0.626,2.926,1.833
				c0,0.479-0.358,0.761-0.775,0.761c-0.801,0-0.788-1.315-2.15-1.34v2.336c1.624,0.344,3.06,0.824,3.06,2.717
				c0,1.646-1.229,2.483-3.06,2.594v0.76c0,0.21-0.16,0.419-0.37,0.419c-0.208,0-0.367-0.209-0.367-0.419v-0.76
				c-2.077-0.051-3.109-1.292-3.109-2.264c0-0.49,0.296-0.774,0.761-0.774c1.377,0,0.307,1.696,2.349,1.783v-2.57
				C37.118,7.675,36.014,6.877,36.014,5.512z" />
            <path d="M9.355,33.113H2.946c-1.18,0-2.136,0.957-2.136,2.137v9.613C0.811,46.045,1.768,47,2.946,47h6.409
				c1.18,0,2.136-0.955,2.136-2.137V35.25C11.492,34.07,10.536,33.113,9.355,33.113z" />
            <path d="M25.919,25.637H19.51c-1.18,0-2.136,0.957-2.136,2.137v17.091c0,1.182,0.957,2.137,2.136,2.137h6.409
				c1.18,0,2.137-0.955,2.137-2.137V27.771C28.056,26.594,27.1,25.637,25.919,25.637z" />
            <path d="M42.486,17.091h-6.408c-1.181,0-2.137,0.957-2.137,2.136v25.636c0,1.182,0.957,2.137,2.137,2.137h6.408
				c1.181,0,2.137-0.955,2.137-2.137V19.228C44.624,18.048,43.667,17.091,42.486,17.091z" />
            <path d="M29.675,10.972L24.37,9.863c-0.406-0.084-0.824,0.073-1.073,0.404c-0.249,0.332-0.283,0.777-0.088,1.144l1.176,2.211
				L0.863,25.755c-0.524,0.271-0.73,0.916-0.459,1.438c0.19,0.367,0.563,0.578,0.95,0.578c0.165,0,0.332-0.037,0.489-0.119
				l23.544-12.145l1.079,2.028c0.186,0.35,0.549,0.567,0.943,0.567c0.018,0,0.035-0.001,0.054-0.002
				c0.414-0.021,0.779-0.279,0.935-0.663l2.049-5.018c0.12-0.294,0.104-0.625-0.046-0.905C30.25,11.237,29.985,11.038,29.675,10.972
				z" />
        </symbol> 
         <symbol id="rewards-change" viewBox="0 0 424.98 424.98">
            <g>
                <path d="M241.395,282.304c-1.587-1.738-3.595-3.038-5.67-4.121c-4.518-2.356-9.459-3.785-14.365-5.075v38.016     c7.963-0.9,17.105-3.79,21.286-11.224l0,0c1.996-3.551,2.393-7.914,1.58-11.867C243.785,285.891,242.874,283.925,241.395,282.304     z" data-original="#000000" class="active-path" data-old_color="#FFC100" />
            </g>
            <g>
                <path d="M242.604,299.973c0.016-0.027,0.025-0.044,0.042-0.073l0,0C242.632,299.924,242.618,299.948,242.604,299.973z" data-original="#000000" class="active-path" data-old_color="#FFC100" />
            </g>
            <g>
                <path d="M184.009,221.532c-1.369,1.999-2.228,4.27-2.465,6.684c-0.237,2.419-0.104,5.11,0.815,7.387     c0.875,2.17,2.708,3.772,4.6,5.062c2.123,1.444,4.458,2.572,6.836,3.528c1.995,0.803,4.239,1.571,6.658,2.313v-34.4     C194.342,213.41,187.665,216.194,184.009,221.532z" data-original="#000000" class="active-path" data-old_color="#FFC100" />
            </g>
            <g>
                <path d="M242.804,299.619c-0.05,0.089-0.104,0.182-0.157,0.28l0,0C242.709,299.785,242.758,299.701,242.804,299.619z" data-original="#000000" class="active-path" data-old_color="#FFC100" />
            </g>
            <g>
                <path d="M243.004,299.263C243.017,299.239,243.019,299.237,243.004,299.263L243.004,299.263z" data-original="#000000" class="active-path" data-old_color="#FFC100" />
            </g>
            <g>
                <path d="M234.753,92.469c32.329-27.158,53.931-88.341,40.637-91.017c-17.664-3.557-56.022,12.04-74.562,14.788     c-26.296,3.175-54.936-28.515-71.012-10.851c-13.071,14.362,9.371,66.592,44.482,89.346     C69.546,146.219-77.69,404.673,179.171,423.426C534.582,449.375,356.615,142.639,234.753,92.469z M265.276,296.298     c-1.093,10.076-6.433,19.188-14.415,25.374c-8.428,6.532-18.999,9.57-29.502,10.421v11.133c0,2.979-1.301,5.86-3.531,7.832     c-3.065,2.712-7.569,3.381-11.289,1.667c-3.673-1.69-6.086-5.457-6.086-9.499v-12.168c-1.801-0.342-3.589-0.749-5.356-1.234     c-9.816-2.697-18.921-7.954-25.572-15.732c-3.313-3.877-6.014-8.276-7.882-13.025c-0.488-1.241-0.923-2.505-1.304-3.783     c-0.345-1.157-0.701-2.333-0.824-3.539c-0.207-2.023,0.194-4.087,1.137-5.889c1.938-3.707,6.022-5.946,10.192-5.574     c4.104,0.364,7.701,3.212,8.993,7.124c0.398,1.205,0.668,2.44,1.115,3.632c0.443,1.184,0.978,2.335,1.607,3.431     c1.242,2.158,2.798,4.148,4.59,5.875c3.694,3.559,8.399,5.872,13.304,7.248v-41.362c-9.591-2.483-19.491-5.69-27.411-11.848     c-3.849-2.994-7.115-6.714-9.254-11.117c-2.257-4.647-3.192-9.824-3.23-14.966c-0.039-5.221,0.953-10.396,3.131-15.153     c2.04-4.454,4.977-8.453,8.578-11.768c7.7-7.087,17.928-11.04,28.187-12.492v-0.91v-10.647c0-2.978,1.301-5.86,3.531-7.832     c3.066-2.711,7.568-3.381,11.289-1.667c3.672,1.691,6.086,5.457,6.086,9.499v10.647v0.847c1.367,0.172,2.73,0.378,4.086,0.624     c10.074,1.823,19.927,5.983,27.294,13.246c3.49,3.44,6.347,7.539,8.356,12.009c0.561,1.247,1.052,2.523,1.477,3.824     c0.396,1.213,0.794,2.462,0.983,3.728c0.302,2.021-0.006,4.109-0.871,5.958c-1.772,3.788-5.746,6.2-9.927,6.021     c-4.108-0.179-7.83-2.854-9.301-6.694c-0.438-1.142-0.657-2.351-1.104-3.49c-0.451-1.153-1.035-2.253-1.708-3.292     c-1.308-2.02-3.003-3.752-4.938-5.179c-4.19-3.094-9.272-4.706-14.35-5.607v39.582c6.035,1.445,12.075,3.021,17.857,5.301     c8.739,3.446,17.02,8.73,21.79,17.062c-0.74-1.298-1.46-2.563,0.025,0.043c1.458,2.56,0.762,1.34,0.03,0.057     C264.854,280.704,266.101,288.701,265.276,296.298z" data-original="#000000" class="active-path" data-old_color="#FFC100" />
            </g>
            <g>
                <path d="M242.493,300.169c-0.061,0.109-0.114,0.205-0.156,0.278C242.373,300.384,242.427,300.289,242.493,300.169z" data-original="#000000" class="active-path" data-old_color="#FFC100" />
            </g>
        </symbol>
        <symbol id="speaker" viewBox="0 0 512.032 512.032" style="enable-background:new 0 0 512.032 512.032;">
            <g>
                <g>
                    <g>
                        <path d="M256.016,321.632V126.368c-5.536,0.512-11.008,1.376-16.576,1.632H80.016c-8.832,0-16,7.168-16,16v16h-48    c-8.832,0-16,7.168-16,16v96c0,8.832,7.168,16,16,16h48v16c0,8.832,7.168,16,16,16h9.696l64.32,171.456    c3.936,10.272,12.736,17.728,23.552,19.904c2.144,0.448,4.288,0.672,6.4,0.672c8.544,0,16.672-3.392,22.496-9.472l38.432-38.112    c9.824-9.824,12.16-25.152,5.888-37.024L197.104,320H239.6C245.104,320.256,250.544,321.12,256.016,321.632z" data-original="#000000" class="active-path" data-old_color="#8CFF00" />
                    </g>
                </g>
                <g>
                    <g>
                        <path d="M509.392,7.744c-0.32-0.544-0.608-0.992-1.024-1.504c-1.76-2.24-3.968-4.064-6.688-5.12    c-0.096-0.032-0.16-0.16-0.256-0.192c-0.32-0.096-0.608,0.064-0.928-0.032C499.056,0.48,497.616,0,496.016,0    c-1.088,0-2.048,0.416-3.104,0.64c-0.608,0.128-1.184,0.16-1.792,0.352c-2.752,0.896-5.12,2.432-7.008,4.544    c-0.128,0.128-0.32,0.16-0.448,0.288C433.776,66.4,364.208,106.912,288.016,121.76v204.512    c76.192,14.848,145.76,55.328,195.648,115.904c0.128,0.16,0.352,0.224,0.512,0.416c1.12,1.248,2.496,2.24,3.968,3.072    c0.48,0.288,0.864,0.704,1.344,0.928c2.016,0.864,4.192,1.408,6.528,1.408c1.824,0,3.616-0.32,5.408-0.928    c0.096-0.032,0.16-0.16,0.256-0.192c2.72-1.056,4.928-2.848,6.688-5.12c0.384-0.512,0.672-0.96,1.024-1.504    c1.536-2.464,2.624-5.184,2.624-8.256V16C512.016,12.928,510.928,10.208,509.392,7.744z" data-original="#000000" class="active-path" data-old_color="#8CFF00" />
                    </g>
                </g>
            </g>
        </symbol>
        <symbol id="give-money" viewBox="0 0 354.796 354.796">
            <g>
                <g>
                    <g id="Layer_5_58_">
                        <g>
                            <g>
                                <path d="M265.442,109.092c-10.602-4.25-13.665-6.82-13.665-11.461c0-3.714,2.813-8.053,10.744-8.053      c7.015,0,12.395,2.766,12.443,2.79c0.566,0.302,1.201,0.463,1.83,0.463c1.535,0,2.893-0.929,3.456-2.367l1.927-4.926      c0.671-1.795-0.347-3.359-1.645-3.92c-4.319-1.88-12.76-3.335-12.846-3.35c-0.136-0.024-0.609-0.125-0.609-0.678l-0.027-7.146      c0-2.152-1.797-3.904-4.003-3.904h-3.457c-2.204,0-4,1.751-4,3.905l0.009,7.513c0,0.576-0.624,0.826-0.852,0.879      c-10.655,2.538-17.314,10.343-17.314,20.188c0,12.273,10.145,17.819,21.099,21.982c8.757,3.438,12.329,6.924,12.329,12.037      c0,5.564-5.059,9.45-12.307,9.45c-6.189,0-14.565-3.923-14.648-3.963c-0.536-0.254-1.104-0.382-1.688-0.382      c-1.594,0-2.982,0.964-3.537,2.457l-1.84,4.982c-0.654,1.86,0.353,3.37,1.642,4.042c5.144,2.679,15.098,4.249,15.541,4.318      c0.119,0.017,0.725,0.23,0.725,0.784v7.48c0,2.152,1.797,3.904,4.004,3.904h3.572c2.208,0,4.005-1.751,4.005-3.904v-7.872      c0-0.736,0.543-0.801,0.655-0.828c11.351-2.55,18.343-10.855,18.343-21.283C285.325,121.518,279.377,114.597,265.442,109.092z" data-original="#000000" class="active-path" data-old_color="#85BB76" />
                                <path d="M260.979,22.509c-51.816,0-93.818,42.005-93.818,93.818c0,51.814,42.002,93.82,93.818,93.82      c51.814,0,93.817-42.006,93.817-93.82C354.796,64.514,312.793,22.509,260.979,22.509z M260.979,188.404      c-39.808,0-72.076-32.271-72.076-72.076s32.268-72.075,72.076-72.075c39.806,0,72.073,32.27,72.073,72.075      S300.785,188.404,260.979,188.404z" data-original="#000000" class="active-path" data-old_color="#85BB76" />
                            </g>
                            <g>
                                <path d="M335.733,255.61c-19.95,11.011-47.389,21.192-74.753,25.484c-24.346,3.818-70.148-5.39-70.148-16.265      c0-4.121,40.17,10.154,64.469,3.671c18.633-4.971,15.988-22.401,5.853-24.7c-10.076-2.287-69.108-23.913-94.323-24.659      c-11.878-0.351-41.203,4.131-55.393,6.442c-4.861,0.791-7.909,0.704-8.213,5.356c-1.412,21.62-4.195,65.832-5.712,88.926      c-0.032,0.488,0.646,7.05,6.061,2.432c5.927-5.054,14.24-10.656,21.929-8.912c12.063,2.737,116.424,21.856,130.819,18.51      c20.593-4.787,78.888-39.334,90.065-50.072C363.711,265.176,350.244,247.601,335.733,255.61z" data-original="#000000" class="active-path" data-old_color="#85BB76" />
                                <path d="M74.426,224.74l-54.672-2.694c-4.221-0.208-8.532,2.973-9.581,7.066l-9.941,90.255c-1.048,4.094,1.55,7.578,5.773,7.741      l60.59-0.006c4.224,0.163,7.942-3.151,8.266-7.365l6.654-86.958C81.837,228.566,78.647,224.948,74.426,224.74z M42.24,315.145      c-8.349,0-15.116-6.768-15.116-15.116c0-8.349,6.768-15.116,15.116-15.116s15.116,6.768,15.116,15.116      C57.356,308.378,50.589,315.145,42.24,315.145z" data-original="#000000" class="active-path" data-old_color="#85BB76" />
                            </g>
                        </g>
                    </g>
                </g>
            </g>
        </symbol>
    </defs>
</svg>