<svg xmlns="http://www.w3.org/2000/svg" width="0" height="0">
    <defs>
        <symbol id="edit" viewBox="0 0 16 16">
            <path
                d="M12.146.146a.5.5 0 0 1 .708 0l3 3a.5.5 0 0 1 0 .708l-10 10a.5.5 0 0 1-.168.11l-5 2a.5.5 0 0 1-.65-.65l2-5a.5.5 0 0 1 .11-.168l10-10zM11.207 2.5 13.5 4.793 14.793 3.5 12.5 1.207 11.207 2.5zm1.586 3L10.5 3.207 4 9.707V10h.5a.5.5 0 0 1 .5.5v.5h.5a.5.5 0 0 1 .5.5v.5h.293l6.5-6.5zm-9.761 5.175-.106.106-1.528 3.821 3.821-1.528.106-.106A.5.5 0 0 1 5 12.5V12h-.5a.5.5 0 0 1-.5-.5V11h-.5a.5.5 0 0 1-.468-.325z" />
        </symbol>
        <symbol id="delete" viewBox="0 0 24 24">
            <path d="M0 0h24v24H0V0z" fill="none" />
            <path
                d="M6 19c0 1.1.9 2 2 2h8c1.1 0 2-.9 2-2V7H6v12zM8 9h8v10H8V9zm7.5-5l-1-1h-5l-1 1H5v2h14V4h-3.5z" />
        </symbol>
        <symbol id="icon-translate" xmlns="http://www.w3.org/2000/svg" viewBox="0 0 24 24">
            <path
                d="M18.5 10l4.4 11h-2.155l-1.201-3h-4.09l-1.199 3h-2.154L16.5 10h2zM10 2v2h6v2h-1.968a18.222 18.222 0 0 1-3.62 6.301 14.864 14.864 0 0 0 2.336 1.707l-.751 1.878A17.015 17.015 0 0 1 9 13.725a16.676 16.676 0 0 1-6.201 3.548l-.536-1.929a14.7 14.7 0 0 0 5.327-3.042A18.078 18.078 0 0 1 4.767 8h2.24A16.032 16.032 0 0 0 9 10.877a16.165 16.165 0 0 0 2.91-4.876L2 6V4h6V2h2zm7.5 10.885L16.253 16h2.492L17.5 12.885z" />
        </symbol>
        <symbol id="add" viewBox="0 0 24 24">
            <path d="M0 0h24v24H0V0z" fill="none" />
            <path
                d="M13 7h-2v4H7v2h4v4h2v-4h4v-2h-4V7zm-1-5C6.48 2 2 6.48 2 12s4.48 10 10 10 10-4.48 10-10S17.52 2 12 2zm0 18c-4.41 0-8-3.59-8-8s3.59-8 8-8 8 3.59 8 8-3.59 8-8 8z" />
        </symbol>
        <symbol id="copy-to-all" viewBox="0 0 24 24">
            <path d="M0 0h24v24H0V0z" fill="none" />
            <path
                d="M16 1H4c-1.1 0-2 .9-2 2v14h2V3h12V1zm3 4H8c-1.1 0-2 .9-2 2v14c0 1.1.9 2 2 2h11c1.1 0 2-.9 2-2V7c0-1.1-.9-2-2-2zm0 16H8V7h11v14z" />
        </symbol>
        <symbol id="info" viewBox="0 0 512 512">
            <path
                d="M256 40c118.621 0 216 96.075 216 216 0 119.291-96.61 216-216 216-119.244 0-216-96.562-216-216 0-119.203 96.602-216 216-216m0-32C119.043 8 8 119.083 8 256c0 136.997 111.043 248 248 248s248-111.003 248-248C504 119.083 392.957 8 256 8zm-36 344h12V232h-12c-6.627 0-12-5.373-12-12v-8c0-6.627 5.373-12 12-12h48c6.627 0 12 5.373 12 12v140h12c6.627 0 12 5.373 12 12v8c0 6.627-5.373 12-12 12h-72c-6.627 0-12-5.373-12-12v-8c0-6.627 5.373-12 12-12zm36-240c-17.673 0-32 14.327-32 32s14.327 32 32 32 32-14.327 32-32-14.327-32-32-32z"></path>
        </symbol>
        <symbol id="warning" viewBox="0 0 16 16">
            <path
                d="M8.982 1.566a1.13 1.13 0 0 0-1.96 0L.165 13.233c-.457.778.091 1.767.98 1.767h13.713c.889 0 1.438-.99.98-1.767L8.982 1.566zM8 5c.535 0 .954.462.9.995l-.35 3.507a.552.552 0 0 1-1.1 0L7.1 5.995A.905.905 0 0 1 8 5zm.002 6a1 1 0 1 1 0 2 1 1 0 0 1 0-2z" />
        </symbol>
        <symbol id="star-yellow" viewBox="0 0 47.94 47.94">
            <path style="fill:#f5861f;"
                d="M26.285,2.486l5.407,10.956c0.376,0.762,1.103,1.29,1.944,1.412l12.091,1.757
	c2.118,0.308,2.963,2.91,1.431,4.403l-8.749,8.528c-0.608,0.593-0.886,1.448-0.742,2.285l2.065,12.042
	c0.362,2.109-1.852,3.717-3.746,2.722l-10.814-5.685c-0.752-0.395-1.651-0.395-2.403,0l-10.814,5.685
	c-1.894,0.996-4.108-0.613-3.746-2.722l2.065-12.042c0.144-0.837-0.134-1.692-0.742-2.285l-8.749-8.528
	c-1.532-1.494-0.687-4.096,1.431-4.403l12.091-1.757c0.841-0.122,1.568-0.65,1.944-1.412l5.407-10.956
	C22.602,0.567,25.338,0.567,26.285,2.486z" />
        </symbol>
        <symbol id="share" viewBox="0 0 481.6 481.6">
            <path
                d="M381.6,309.4c-27.7,0-52.4,13.2-68.2,33.6l-132.3-73.9c3.1-8.9,4.8-18.5,4.8-28.4c0-10-1.7-19.5-4.9-28.5l132.2-73.8
		c15.7,20.5,40.5,33.8,68.3,33.8c47.4,0,86.1-38.6,86.1-86.1S429,0,381.5,0s-86.1,38.6-86.1,86.1c0,10,1.7,19.6,4.9,28.5
		l-132.1,73.8c-15.7-20.6-40.5-33.8-68.3-33.8c-47.4,0-86.1,38.6-86.1,86.1s38.7,86.1,86.2,86.1c27.8,0,52.6-13.3,68.4-33.9
		l132.2,73.9c-3.2,9-5,18.7-5,28.7c0,47.4,38.6,86.1,86.1,86.1s86.1-38.6,86.1-86.1S429.1,309.4,381.6,309.4z M381.6,27.1
		c32.6,0,59.1,26.5,59.1,59.1s-26.5,59.1-59.1,59.1s-59.1-26.5-59.1-59.1S349.1,27.1,381.6,27.1z M100,299.8
		c-32.6,0-59.1-26.5-59.1-59.1s26.5-59.1,59.1-59.1s59.1,26.5,59.1,59.1S132.5,299.8,100,299.8z M381.6,454.5
		c-32.6,0-59.1-26.5-59.1-59.1c0-32.6,26.5-59.1,59.1-59.1s59.1,26.5,59.1,59.1C440.7,428,414.2,454.5,381.6,454.5z" />
        </symbol>
        <symbol id="fb" viewBox="0 0 430.113 430.114">
            <path
                d="M158.081,83.3c0,10.839,0,59.218,0,59.218h-43.385v72.412h43.385v215.183h89.122V214.936h59.805
		c0,0,5.601-34.721,8.316-72.685c-7.784,0-67.784,0-67.784,0s0-42.127,0-49.511c0-7.4,9.717-17.354,19.321-17.354
		c9.586,0,29.818,0,48.557,0c0-9.859,0-43.924,0-75.385c-25.016,0-53.476,0-66.021,0C155.878-0.004,158.081,72.48,158.081,83.3z" />
        </symbol>
        <symbol id="tw" viewBox="0 0 512 512">
            <path
                d="M512,97.248c-19.04,8.352-39.328,13.888-60.48,16.576c21.76-12.992,38.368-33.408,46.176-58.016
			c-20.288,12.096-42.688,20.64-66.56,25.408C411.872,60.704,384.416,48,354.464,48c-58.112,0-104.896,47.168-104.896,104.992
			c0,8.32,0.704,16.32,2.432,23.936c-87.264-4.256-164.48-46.08-216.352-109.792c-9.056,15.712-14.368,33.696-14.368,53.056
			c0,36.352,18.72,68.576,46.624,87.232c-16.864-0.32-33.408-5.216-47.424-12.928c0,0.32,0,0.736,0,1.152
			c0,51.008,36.384,93.376,84.096,103.136c-8.544,2.336-17.856,3.456-27.52,3.456c-6.72,0-13.504-0.384-19.872-1.792
			c13.6,41.568,52.192,72.128,98.08,73.12c-35.712,27.936-81.056,44.768-130.144,44.768c-8.608,0-16.864-0.384-25.12-1.44
			C46.496,446.88,101.6,464,161.024,464c193.152,0,298.752-160,298.752-298.688c0-4.64-0.16-9.12-0.384-13.568
			C480.224,136.96,497.728,118.496,512,97.248z" />
        </symbol>
        <symbol id="gp" viewBox="0 0 491.858 491.858">
            <g>
                <path
                    d="M377.472,224.957H201.319v58.718H308.79c-16.032,51.048-63.714,88.077-120.055,88.077
				c-69.492,0-125.823-56.335-125.823-125.824c0-69.492,56.333-125.823,125.823-125.823c34.994,0,66.645,14.289,89.452,37.346
				l42.622-46.328c-34.04-33.355-80.65-53.929-132.074-53.929C84.5,57.193,0,141.693,0,245.928s84.5,188.737,188.736,188.737
				c91.307,0,171.248-64.844,188.737-150.989v-58.718L377.472,224.957L377.472,224.957z" />
                <polygon
                    points="491.858,224.857 455.827,224.857 455.827,188.826 424.941,188.826 424.941,224.857 388.91,224.857
				388.91,255.74 424.941,255.74 424.941,291.772 455.827,291.772 455.827,255.74 491.858,255.74 			" />
            </g>
        </symbol>
        <symbol id="in" viewBox="0 0 430.117 430.117">
            <path
                d="M430.117,261.543V420.56h-92.188V272.193c0-37.271-13.334-62.707-46.703-62.707
		c-25.473,0-40.632,17.142-47.301,33.724c-2.432,5.928-3.058,14.179-3.058,22.477V420.56h-92.219c0,0,1.242-251.285,0-277.32h92.21
		v39.309c-0.187,0.294-0.43,0.611-0.606,0.896h0.606v-0.896c12.251-18.869,34.13-45.824,83.102-45.824
		C384.633,136.724,430.117,176.361,430.117,261.543z M52.183,9.558C20.635,9.558,0,30.251,0,57.463
		c0,26.619,20.038,47.94,50.959,47.94h0.616c32.159,0,52.159-21.317,52.159-47.94C103.128,30.251,83.734,9.558,52.183,9.558z
		 M5.477,420.56h92.184v-277.32H5.477V420.56z" />
        </symbol>
        <symbol id="envelope" viewBox="0 0 483.3 483.3">
            <g>
                <path
                    d="M424.3,57.75H59.1c-32.6,0-59.1,26.5-59.1,59.1v249.6c0,32.6,26.5,59.1,59.1,59.1h365.1c32.6,0,59.1-26.5,59.1-59.1
			v-249.5C483.4,84.35,456.9,57.75,424.3,57.75z M456.4,366.45c0,17.7-14.4,32.1-32.1,32.1H59.1c-17.7,0-32.1-14.4-32.1-32.1v-249.5
			c0-17.7,14.4-32.1,32.1-32.1h365.1c17.7,0,32.1,14.4,32.1,32.1v249.5H456.4z" />
                <path
                    d="M304.8,238.55l118.2-106c5.5-5,6-13.5,1-19.1c-5-5.5-13.5-6-19.1-1l-163,146.3l-31.8-28.4c-0.1-0.1-0.2-0.2-0.2-0.3
			c-0.7-0.7-1.4-1.3-2.2-1.9L78.3,112.35c-5.6-5-14.1-4.5-19.1,1.1c-5,5.6-4.5,14.1,1.1,19.1l119.6,106.9L60.8,350.95
			c-5.4,5.1-5.7,13.6-0.6,19.1c2.7,2.8,6.3,4.3,9.9,4.3c3.3,0,6.6-1.2,9.2-3.6l120.9-113.1l32.8,29.3c2.6,2.3,5.8,3.4,9,3.4
			c3.2,0,6.5-1.2,9-3.5l33.7-30.2l120.2,114.2c2.6,2.5,6,3.7,9.3,3.7c3.6,0,7.1-1.4,9.8-4.2c5.1-5.4,4.9-14-0.5-19.1L304.8,238.55z" />
            </g>
        </symbol>
        <symbol id="login" viewBox="0 0 17.22 17.219">
            <path
                d="M1507.71,19.576v1.009c-0.03.221-.05,0.442-0.08,0.663a8.606,8.606,0,0,1-7.04,7.313c-0.33.058-.66,0.071-0.98,0.129h-1.01a1.413,1.413,0,0,0-.15-0.028,8.418,8.418,0,0,1-3.99-1.336,8.59,8.59,0,0,1-3.8-8.87,8.6,8.6,0,0,1,9.63-6.9,8.2,8.2,0,0,1,4.48,2.048,8.51,8.51,0,0,1,2.81,4.993C1507.64,18.923,1507.65,19.252,1507.71,19.576Zm-10.69,1.48a3.533,3.533,0,1,1,4.17,0,6.591,6.591,0,0,1,3.94,3.629,7.588,7.588,0,1,0-12.05-.008A6.639,6.639,0,0,1,1497.02,21.056Zm2.08,6.626a7.053,7.053,0,0,0,1.11-.082,7.541,7.541,0,0,0,4.07-1.969,0.157,0.157,0,0,0,.05-0.2,5.514,5.514,0,0,0-6.28-3.592,5.437,5.437,0,0,0-4.17,3.586,0.16,0.16,0,0,0,.04.2A7.586,7.586,0,0,0,1499.1,27.682Zm-2.52-9.48a2.52,2.52,0,1,0,2.52-2.526A2.54,2.54,0,0,0,1496.58,18.2Z"
                transform="translate(-1490.5 -11.469)" />
        </symbol>
        <symbol id="yearswarranty" viewBox="0 0 300 300">
            <g>
                <path
                    d="M296.21,167.05c-1.67-6.07-3.25-11.81-3.25-17.05c0-5.24,1.58-10.97,3.25-17.05c2.66-9.66,5.41-19.66,2.12-29.38
		c-3.41-10.11-11.92-16.71-20.15-23.09c-4.93-3.83-9.59-7.44-12.61-11.42c-3.07-4.06-5.25-9.47-7.54-15.2
		c-3.79-9.42-7.69-19.16-16.45-25.28c-8.61-6.02-19.36-6.61-29.74-7.16c-6.48-0.35-12.6-0.68-17.73-2.27
		c-4.8-1.49-9.76-4.59-15.01-7.87C170.66,5.99,161.08,0,149.99,0c-11.08,0-20.66,5.99-29.11,11.28c-5.25,3.28-10.2,6.38-15,7.87
		c-5.13,1.59-11.26,1.93-17.73,2.28c-10.38,0.56-21.12,1.13-29.74,7.16c-8.75,6.12-12.66,15.85-16.45,25.27
		C39.65,59.59,37.48,65,34.4,69.07c-3.02,3.99-7.68,7.6-12.61,11.44c-8.22,6.38-16.72,12.97-20.13,23.07
		c-3.29,9.73-0.54,19.72,2.12,29.38c1.67,6.08,3.25,11.81,3.25,17.05c0,5.24-1.58,10.97-3.25,17.05
		c-2.66,9.66-5.41,19.66-2.12,29.39c3.41,10.1,11.91,16.7,20.14,23.08c4.93,3.82,9.59,7.44,12.61,11.42
		c3.08,4.06,5.26,9.47,7.56,15.21c3.79,9.41,7.7,19.16,16.46,25.29c8.61,6.01,19.35,6.59,29.73,7.14c6.48,0.34,12.6,0.68,17.73,2.27
		c4.79,1.5,9.75,4.59,15,7.87C129.32,294,138.91,300,149.99,300c11.09,0,20.68-6,29.14-11.28c5.24-3.27,10.19-6.37,15-7.87
		c5.13-1.6,11.25-1.93,17.73-2.28c10.38-0.55,21.12-1.12,29.73-7.14c8.77-6.13,12.68-15.89,16.47-25.31
		c2.3-5.73,4.47-11.14,7.53-15.19c3.02-3.97,7.68-7.6,12.61-11.42c8.23-6.38,16.73-12.98,20.15-23.08
		C301.63,186.71,298.88,176.72,296.21,167.05z M286,192.26c-2.16,6.38-8.78,11.52-15.79,16.96c-5.37,4.17-10.94,8.5-15,13.84
		c-4.12,5.45-6.73,11.93-9.25,18.21c-3.21,8.01-6.25,15.57-11.83,19.47c-5.56,3.89-14.01,4.34-22.96,4.81
		c-6.99,0.37-14.23,0.75-20.91,2.84c-6.39,2-12.31,5.68-18.02,9.26c-7.65,4.79-14.88,9.3-22.23,9.3c-7.35,0-14.57-4.51-22.23-9.3
		c-5.71-3.56-11.62-7.26-18.01-9.26c-6.68-2.08-13.92-2.47-20.91-2.84c-8.95-0.48-17.41-0.93-22.96-4.81
		c-5.58-3.9-8.62-11.46-11.83-19.46c-2.52-6.28-5.13-12.77-9.26-18.22c-4.06-5.35-9.62-9.67-15-13.85
		c-7-5.44-13.62-10.58-15.78-16.95c-2.01-5.94,0.1-13.62,2.34-21.75c1.82-6.65,3.71-13.51,3.71-20.51c0-7.01-1.89-13.87-3.71-20.51
		c-2.24-8.13-4.35-15.8-2.34-21.75c2.16-6.38,8.77-11.51,15.77-16.95c5.38-4.18,10.95-8.51,15-13.86
		c4.14-5.45,6.75-11.95,9.28-18.23c3.2-8,6.24-15.55,11.81-19.44c5.56-3.89,14.03-4.34,22.98-4.82c6.98-0.38,14.22-0.76,20.9-2.85
		c6.4-2,12.32-5.7,18.04-9.26c7.64-4.77,14.86-9.28,22.21-9.28c7.35,0,14.57,4.52,22.22,9.3c5.72,3.58,11.63,7.27,18.03,9.27
		c6.68,2.08,13.91,2.47,20.9,2.84c8.96,0.48,17.41,0.94,22.98,4.83c5.58,3.9,8.61,11.45,11.82,19.44
		c2.53,6.28,5.13,12.77,9.27,18.22c4.06,5.35,9.62,9.66,15,13.84c7.01,5.44,13.64,10.59,15.79,16.98c2.01,5.93-0.11,13.6-2.35,21.73
		c-1.83,6.65-3.72,13.51-3.72,20.52c0,7.01,1.88,13.87,3.72,20.51C285.89,178.64,288.01,186.32,286,192.26z M149.99,52.17
		c-53.88,0-97.72,43.88-97.72,97.83c0,53.94,43.84,97.83,97.72,97.83c53.88,0,97.72-43.89,97.72-97.83
		C247.71,96.05,203.88,52.17,149.99,52.17z M234.68,150c0,46.75-37.99,84.78-84.69,84.78c-46.7,0-84.69-38.04-84.69-84.78
		c0-46.75,37.99-84.78,84.69-84.78c24.09,0,45.8,10.16,61.24,26.38l-62.08,87.46l-33.63-33.67c-2.55-2.55-6.67-2.55-9.21,0
		c-2.55,2.55-2.55,6.67,0,9.22l39.09,39.13c1.23,1.23,2.89,1.91,4.61,1.91c0.18,0,0.37-0.01,0.55-0.03
		c1.91-0.16,3.66-1.16,4.76-2.72l64.47-90.83C229.16,115.71,234.68,132.21,234.68,150z" />
            </g>
        </symbol>
        <symbol id="easyreturns" viewBox="0 0 300 300">
            <g>
                <path
                    d="M242.24,84.45c-1.03-1.43-2.61-2.33-4.36-2.48c-1.74-0.08-3.47,0.49-4.71,1.72L83.69,233.16
		c-1.24,1.23-1.87,2.96-1.73,4.71c0.15,1.75,1.06,3.34,2.48,4.36c19.31,13.76,41.97,21.01,65.56,21.01
		c62.44,0,113.24-50.8,113.24-113.24C263.24,126.41,255.98,103.75,242.24,84.45z M150,251.32c-18.73,0-36.82-5.13-52.72-14.89
		L236.43,97.28c9.76,15.9,14.89,34,14.89,52.72C251.32,205.87,205.87,251.32,150,251.32z M150,1C67.84,1,1,67.83,1,150
		s66.84,149,149,149c82.16,0,149-66.83,149-149S232.16,1,150,1z M150,287.08c-75.59,0-137.08-61.5-137.08-137.08
		S74.41,12.92,150,12.92c75.58,0,137.08,61.49,137.08,137.08S225.58,287.08,150,287.08z M218.04,62.13
		c-0.16-1.74-1.06-3.34-2.48-4.35c-19.3-13.74-41.97-21.02-65.56-21.02C87.56,36.76,36.76,87.56,36.76,150
		c0,23.59,7.27,46.25,21.01,65.55c1.01,1.43,2.61,2.34,4.35,2.48c0.17,0.02,0.33,0.03,0.5,0.03c1.57,0,3.09-0.63,4.21-1.75
		L216.31,66.85C217.55,65.61,218.18,63.89,218.04,62.13z M63.57,202.72C53.8,186.82,48.68,168.73,48.68,150
		C48.68,94.14,94.13,48.68,150,48.68c18.73,0,36.82,5.12,52.73,14.89L63.57,202.72z" />
            </g>
        </symbol>
        <symbol id="safepayments" viewBox="0 0 300 300">
            <path
                d="M299,139.75H284.6V73.54c0-15.88-12.91-28.78-28.79-28.78h-19.5L216.37,8.88C213.33,3.4,207.54,0,201.27,0
	c-2.92,0-5.83,0.75-8.39,2.17l-76.57,42.58H30.79C14.91,44.75,2,57.66,2,73.54v197.67C2,287.08,14.91,300,30.79,300h225.03
	c15.87,0,28.79-12.92,28.79-28.79v-58.05H299V139.75L299,139.75z M255.82,56.27c8.87,0,16.11,6.73,17.08,15.35h-21.64l-8.53-15.35
	H255.82z M198.48,12.24c2.7-1.52,6.33-0.46,7.83,2.23l31.78,57.14H91.69L198.48,12.24z M273.09,271.21
	c0,9.52-7.75,17.27-17.27,17.27H30.79c-9.52,0-17.27-7.75-17.27-17.27V73.54c0-9.52,7.75-17.27,17.27-17.27h64.82L67.99,71.62H34.39
	c-3.18,0-5.76,2.58-5.76,5.76s2.57,5.76,5.76,5.76h12.9h210.38h15.43v56.61h-42.11c-19.55,0-35.47,15.91-35.47,35.47v2.48
	c0,19.55,15.91,35.46,35.47,35.46h42.11V271.21L273.09,271.21z M287.48,201.65h-2.88h-53.62c-13.21,0-23.95-10.74-23.95-23.95v-2.48
	c0-13.21,10.74-23.95,23.95-23.95h53.62h2.88V201.65z M248.62,176.93c0,7.02-5.69,12.71-12.71,12.71c-7.02,0-12.71-5.69-12.71-12.71
	c0-7.03,5.69-12.71,12.71-12.71C242.93,164.22,248.62,169.91,248.62,176.93z" />
        </symbol>
        <symbol id="item_pickup" viewBox="0 0 30 30">
            <g>
                <path
                    d="M28.2,3.6H8.1c-1,0-1.8,0.8-1.8,1.8v2.8L1,2.9c-0.2-0.2-0.6-0.2-0.8,0C0,3.1,0,3.5,0.2,3.7l6.9,6.9l-3.6,3.6L1,11.8
                    c-0.2-0.2-0.6-0.2-0.8,0c-0.2,0.2-0.2,0.6,0,0.8c0,0,0,0,0,0L5,17.5V18c0,1.3,0.5,2.7,1.3,3.7v3.8c0,1,0.8,1.8,1.8,1.8h20.2
                    c1,0,1.8-0.8,1.8-1.8c0,0,0,0,0,0V12.2c0-0.3-0.3-0.6-0.6-0.6c-0.3,0-0.5,0.3-0.6,0.6v13.4c0,0.3-0.3,0.6-0.6,0.6H16
                    c0,0,0,0,0.1-0.1c0.1-0.1,0.3-0.3,0.3-0.5c0.8,0.4,1.9,0.1,2.3-0.8c0.2-0.5,0.2-1,0-1.5c0.2-0.1,0.4-0.2,0.5-0.3
                    c0.7-0.7,0.7-1.7,0-2.4l-2-2c0.6,0,1.3-0.2,1.6-0.8l0,0c0.6-0.8,0.4-2-0.4-2.6c-0.5-0.4-1.2-0.9-2.1-1.6c-1.2-0.9-2.7-1.4-4.3-1.4
                    h-1.8L7.5,9.4v-4c0-0.3,0.3-0.6,0.6-0.6h6.1v6c0,0.3,0.3,0.6,0.6,0.6c0.2,0,0.3-0.1,0.4-0.2l1.3-1.3l1.3,1.3c0.2,0.2,0.6,0.2,0.8,0
                    l1.3-1.3l1.3,1.3c0.1,0.1,0.3,0.2,0.4,0.2c0.3,0,0.6-0.3,0.6-0.6v-6h6.1c0.3,0,0.6,0.3,0.6,0.6v2.1c0,0.3,0.2,0.6,0.6,0.6
                    c0.3,0,0.6-0.2,0.6-0.6c0,0,0,0,0-0.1V5.4C30,4.4,29.2,3.6,28.2,3.6C28.2,3.6,28.2,3.6,28.2,3.6 M7.5,25.5V23l1.9,1.9l0,0l1.2,1.2
                    H8.1C7.8,26.1,7.5,25.9,7.5,25.5 M12,13.3L12,13.3c1.3,0,2.6,0.4,3.6,1.2l2.1,1.6c0.3,0.2,0.4,0.7,0.1,1l0,0
                    c-0.2,0.3-0.6,0.4-0.9,0.2l-2.2-1.4c-0.3-0.2-0.7-0.1-0.9,0.2c-0.2,0.3-0.1,0.6,0.1,0.8l4.5,4.5c0.2,0.2,0.2,0.5,0,0.7
                    c-0.2,0.2-0.5,0.2-0.7,0l-2.3-2.3c0,0,0,0,0,0l-0.2-0.2c-0.2-0.2-0.6-0.2-0.8,0c-0.2,0.2-0.2,0.6,0,0.8l2.5,2.5
                    c0,0,0.1,0.1,0.1,0.1l0.7,0.7c0.2,0.2,0.2,0.5,0,0.7c-0.2,0.2-0.5,0.2-0.7,0l0,0l-0.7-0.7c0,0,0-0.1-0.1-0.1l-2.2-2.2c0,0,0,0,0,0
                    l-0.2-0.2c-0.2-0.2-0.6-0.2-0.8,0s-0.2,0.6,0,0.8c0,0,0,0,0,0l2.5,2.5c0.2,0.2,0.2,0.5-0.1,0.7c-0.2,0.2-0.5,0.2-0.7,0l-0.7-0.7
                    c0,0,0-0.1-0.1-0.1L12.3,23c0,0,0,0,0,0L12,22.7c-0.2-0.2-0.6-0.2-0.8,0c-0.2,0.2-0.2,0.6,0,0.8l1.7,1.7c0.2,0.2,0.2,0.5-0.1,0.7
                    c-0.2,0.2-0.5,0.2-0.7,0l-3.1-3.1l0,0l-1.4-1.4c-0.9-0.9-1.4-2.1-1.4-3.4v-0.9l3.9-3.9L12,13.3z M5.5,16.3l-1.2-1.2l3.7-3.6
                    l1.2,1.2L5.5,16.3z M21,9.4l-0.7-0.7c-0.2-0.2-0.6-0.2-0.8,0c0,0,0,0,0,0l-1.3,1.3l-1.3-1.3c-0.2-0.2-0.6-0.2-0.8,0l-0.7,0.7V4.8
                    H21V9.4z" />
                <path
                    d="M29.4,9.2c-0.3,0-0.6,0.3-0.6,0.6c0,0.3,0.3,0.6,0.6,0.6c0.3,0,0.6-0.3,0.6-0.6c0-0.2-0.1-0.3-0.2-0.4
                    C29.7,9.3,29.6,9.2,29.4,9.2" />
            </g>
        </symbol>
        <symbol id="freeshipping" viewBox="0 0 300 300">
            <g>
                <path
                    d="M278.93,133.51l-7.79-31.19c2.13-0.45,3.73-2.34,3.73-4.61v-5.03c0-10.92-8.88-19.8-19.79-19.8h-35.5V62.52
		c0-5.37-4.37-9.74-9.74-9.74H28.91c-5.37,0-9.74,4.37-9.74,9.74v85.47c0,2.61,2.11,4.72,4.71,4.72c2.6,0,4.71-2.11,4.71-4.72V62.52
		c0-0.17,0.14-0.31,0.31-0.31h180.94c0.17,0,0.31,0.14,0.31,0.31v85.48c0,2.6,2.11,4.71,4.71,4.71s4.71-2.11,4.71-4.71v-5.34h55.61
		c6.84,0,12.65,4.49,14.64,10.68h-14.65c-2.6,0-4.71,2.11-4.71,4.71v10.06c0,8.14,6.62,14.77,14.76,14.77h5.34v20.74h-12.32
		c-4.05-11.69-15.16-20.11-28.2-20.11c-13.05,0-24.15,8.42-28.2,20.11h-2.27V168.1c0-2.6-2.11-4.71-4.71-4.71
		c-2.6,0-4.71,2.11-4.71,4.71v35.51H112.4c-4.05-11.69-15.16-20.11-28.2-20.11c-13.05,0-24.16,8.42-28.2,20.11H28.91
		c-0.17,0-0.31-0.14-0.31-0.31v-10.37h20.42c2.6,0,4.71-2.11,4.71-4.71c0-2.6-2.11-4.72-4.71-4.72H3.78c-2.6,0-4.71,2.11-4.71,4.72
		c0,2.6,2.11,4.71,4.71,4.71h15.39v10.37c0,5.37,4.37,9.74,9.74,9.74h25.45c0,0.11-0.01,0.21-0.01,0.32
		c0,16.46,13.39,29.85,29.84,29.85s29.84-13.39,29.84-29.85c0-0.11-0.01-0.21-0.01-0.32h106.19c0,0.11-0.01,0.21-0.01,0.32
		c0,16.46,13.39,29.85,29.84,29.85s29.84-13.39,29.84-29.85c0-0.11-0.01-0.21-0.01-0.32h15.4c2.6,0,4.71-2.11,4.71-4.71v-50.28
		C300,145.63,290.85,135.32,278.93,133.51z M219.59,82.31h35.5c5.72,0,10.37,4.65,10.37,10.37V93h-45.86V82.31z M219.59,133.22
		v-30.8h41.87l7.7,30.8H219.59z M84.2,233.78c-11.26,0-20.42-9.16-20.42-20.43s9.16-20.43,20.42-20.43
		c11.26,0,20.42,9.16,20.42,20.43S95.46,233.78,84.2,233.78z M250.05,233.78c-11.26,0-20.42-9.16-20.42-20.43
		s9.16-20.43,20.42-20.43c11.26,0,20.42,9.16,20.42,20.43S261.31,233.78,250.05,233.78z M290.58,173.44h-5.34
		c-2.94,0-5.34-2.4-5.34-5.34v-5.34h10.68V173.44z M84.2,203.61c-5.37,0-9.74,4.37-9.74,9.74c0,5.37,4.37,9.74,9.74,9.74
		s9.74-4.37,9.74-9.74C93.94,207.98,89.57,203.61,84.2,203.61z M250.05,203.61c-5.37,0-9.74,4.37-9.74,9.74
		c0,5.37,4.37,9.74,9.74,9.74c5.37,0,9.74-4.37,9.74-9.74C259.79,207.98,255.43,203.61,250.05,203.61z M119.69,188.22
		c0,2.6,2.11,4.71,4.71,4.71h70.36c2.6,0,4.71-2.11,4.71-4.71c0-2.61-2.11-4.72-4.71-4.72h-70.36
		C121.8,183.5,119.69,185.61,119.69,188.22z M13.83,172.82h60.31c2.6,0,4.71-2.11,4.71-4.71c0-2.6-2.11-4.71-4.71-4.71H13.83
		c-2.6,0-4.71,2.11-4.71,4.71C9.12,170.71,11.23,172.82,13.83,172.82z M156.26,99.41l-41.9,41.92l-21.8-21.81
		c-1.84-1.84-4.82-1.84-6.66,0c-1.84,1.84-1.84,4.82,0,6.67l25.13,25.14c0.92,0.92,2.13,1.38,3.33,1.38c1.21,0,2.41-0.46,3.33-1.38
		l45.23-45.25c1.84-1.84,1.84-4.83,0-6.67C161.08,97.57,158.1,97.57,156.26,99.41z" />
            </g>
        </symbol>
        <symbol id="star-icon" viewBox="0 0 140.2 133.7">
            <path
                d="M70.1,113.4l-43.3,20.4l5.9-47.6L0,51.1L47,42L70.1,0l23.1,42l47,9.1l-32.7,35l5.9,47.6L70.1,113.4z M104.4,121.2l-4.7-37.6
            L125.5,56l-37.1-7.1L70.2,15.7L52,48.9L14.9,56l25.8,27.6L36,121.2l34.2-16.1L104.4,121.2z" />
        </symbol>
        <symbol id="requests" viewBox="0 0 512 512">
            <path
                d="m143.9375 382.8125c18.640625-14.515625 30.664062-37.148438 30.664062-62.546875 0-43.707031-35.5625-79.265625-79.269531-79.265625s-79.265625 35.558594-79.265625 79.265625c0 25.398437 12.023438 48.03125 30.660156 62.546875-26.304687 15.648438-46.726562 45.203125-46.726562 82.054688v32.132812c0 8.285156 6.714844 15 15 15h160.667969c8.28125 0 15-6.714844 15-15v-32.132812c0-36.84375-20.417969-66.402344-46.730469-82.054688zm-97.871094-62.546875c0-27.164063 22.101563-49.265625 49.269532-49.265625 27.164062 0 49.265624 22.101562 49.265624 49.265625 0 27.167969-22.101562 49.269531-49.265624 49.269531-27.167969 0-49.269532-22.101562-49.269532-49.269531zm114.601563 161.734375h-130.667969v-17.132812c0-36.085938 29.195312-65.332032 65.332031-65.332032 36.085938 0 65.332031 29.195313 65.332031 65.332032v17.132812zm0 0" />
            <path
                d="m448.800781 0h-192.800781c-34.90625 0-63.199219 28.242188-63.199219 63.199219v289.199219c0 12.269531 14.070313 19.445312 24 12l60.265625-45.199219h171.734375c34.90625 0 63.199219-28.242188 63.199219-63.199219v-192.800781c0-34.90625-28.242188-63.199219-63.199219-63.199219zm33.199219 256c0 18.351562-14.839844 33.199219-33.199219 33.199219h-176.734375c-3.246094 0-6.402344 1.054687-9 3l-40.265625 30.199219v-259.199219c0-18.351563 14.839844-33.199219 33.199219-33.199219h192.800781c18.351563 0 33.199219 14.839844 33.199219 33.199219zm0 0" />
            <path
                d="m432.734375 80.332031h-160.667969c-8.285156 0-15 6.71875-15 15 0 8.285157 6.714844 15 15 15h160.667969c8.28125 0 15-6.714843 15-15 0-8.28125-6.714844-15-15-15zm0 0" />
            <path
                d="m432.734375 144.601562h-160.667969c-8.285156 0-15 6.714844-15 15 0 8.28125 6.714844 15 15 15h160.667969c8.28125 0 15-6.71875 15-15 0-8.285156-6.714844-15-15-15zm0 0" />
            <path
                d="m352.398438 208.867188h-80.332032c-8.285156 0-15 6.714843-15 15 0 8.285156 6.714844 15 15 15h80.332032c8.285156 0 15-6.714844 15-15 0-8.285157-6.714844-15-15-15zm0 0" />
        </symbol>
        <symbol id="bin" viewBox="0 0 32 32">
            <g id="Layer_2" data-name="Layer 2">
                <path
                    d="m3 7h2v20.48a3.53 3.53 0 0 0 3.52 3.52h15a3.53 3.53 0 0 0 3.48-3.52v-20.48h2a1 1 0 0 0 0-2h-7v-2a2 2 0 0 0 -1.95-2h-8.05a2 2 0 0 0 -2 2v2h-7a1 1 0 0 0 0 2zm9-4h8v2h-8zm-2 4h15v20.48a1.52 1.52 0 0 1 -1.52 1.52h-15a1.52 1.52 0 0 1 -1.48-1.52v-20.48z" />
                <path d="m12.68 25a1 1 0 0 0 1-1v-12a1 1 0 0 0 -2 0v12a1 1 0 0 0 1 1z" />
                <path d="m19.32 25a1 1 0 0 0 1-1v-12a1 1 0 0 0 -2 0v12a1 1 0 0 0 1 1z" />
            </g>
        </symbol>
        <symbol id="credits" viewBox="0 0 64 43">
            <path
                d="M737,313.6v-3.071A5.54,5.54,0,0,0,731.461,305H678.539A5.54,5.54,0,0,0,673,310.529V313.6h64Zm-20.923,19.657a1.843,1.843,0,1,0,1.846,1.843A1.847,1.847,0,0,0,716.077,333.257ZM673,317.286h64v3.685H673v-3.685Zm0,7.371v17.814A5.54,5.54,0,0,0,678.539,348h52.922A5.54,5.54,0,0,0,737,342.471V324.657H673Zm17.231,12.286h-7.385a1.843,1.843,0,1,1,0-3.686h7.385A1.843,1.843,0,1,1,690.231,336.943Zm33.23,3.685a5.524,5.524,0,0,1-3.692-1.412,5.529,5.529,0,1,1,0-8.232A5.532,5.532,0,1,1,723.461,340.628Zm0-7.371a1.843,1.843,0,1,0,1.847,1.843A1.847,1.847,0,0,0,723.461,333.257Z"
                transform="translate(-673 -305)" />
        </symbol>
        <symbol id="order" viewBox="0 0 60 53">
            <path
                d="M1048.13,299.175a22.7,22.7,0,0,0-2.68,4.084,0.77,0.77,0,0,1-1.17.406c-0.97-.339-2-0.5-2.94-0.9-1.23-.511-1.45-0.051-1.45,1.116,0.03,8.943.02,17.887,0.02,26.831,0,3.544.03,7.09-.02,10.634-0.01,1.05.22,1.345,1.28,1.016q8.43-2.612,16.87-5.108a1.356,1.356,0,0,0,1.1-1.634c-0.05-2.944.02-5.89-.04-8.834-0.02-1.123.08-1.844,1.5-1.762a6.751,6.751,0,0,0,2.52-.5c1.2-.42,1.44,0,1.42,1.163-0.06,4.143-.01,8.289-0.03,12.433-0.01,2.161-.57,2.938-2.61,3.561-7.78,2.379-15.57,4.732-23.36,7.117a4.133,4.133,0,0,1-2.53-.011q-11.745-3.6-23.52-7.133a3.1,3.1,0,0,1-2.49-3.315q0.015-15.868,0-31.739a2.97,2.97,0,0,1,2.39-3.217c1.92-.525,3.83-1.112,5.71-1.769,1.2-.417,1.45-0.049,1.43,1.134-0.06,3.38.03,6.764-.05,10.143-0.03,1.317.37,1.655,1.58,1.256a16.575,16.575,0,0,1,2.05-.427c2.44-.47,2.44-0.469,2.44-2.873,0-3.381.03-6.763-.02-10.143a1.46,1.46,0,0,1,1.24-1.714c3.17-.881,6.32-1.838,9.47-2.787a2.5,2.5,0,0,1,1.42-.169C1041.11,297.056,1044.54,298.1,1048.13,299.175Zm0.27,10.659a10.8,10.8,0,1,1,21.6-.068A10.8,10.8,0,1,1,1048.4,309.834Zm9.36,4.276a4.066,4.066,0,0,0,.55-0.37q2.91-2.93,5.81-5.875a0.589,0.589,0,0,0,.18-0.823c-0.82-1.511-1.81-1.691-3.01-.48-0.76.768-1.58,1.481-2.26,2.32-0.82,1.025-1.53,1.23-2.34.044-0.55-.8-0.99-0.763-1.76-0.069-1.06.966-1.12,1.62,0.02,2.513a24.451,24.451,0,0,1,2.07,2.054C1057.24,313.648,1057.48,313.854,1057.76,314.11Z"
                transform="translate(-1010 -296)" />
        </symbol>
        <symbol id="minus" viewBox="0 -192 426.66667 426">
            <path
                d="m405.332031 43h-384c-11.773437 0-21.332031-9.558594-21.332031-21.332031 0-11.777344 9.558594-21.335938 21.332031-21.335938h384c11.777344 0 21.335938 9.558594 21.335938 21.335938 0 11.773437-9.558594 21.332031-21.335938 21.332031zm0 0" />
        </symbol>
        <symbol id="plus" viewBox="0 0 426.66667 426.66667">
            <path
                d="m405.332031 192h-170.664062v-170.667969c0-11.773437-9.558594-21.332031-21.335938-21.332031-11.773437 0-21.332031 9.558594-21.332031 21.332031v170.667969h-170.667969c-11.773437 0-21.332031 9.558594-21.332031 21.332031 0 11.777344 9.558594 21.335938 21.332031 21.335938h170.667969v170.664062c0 11.777344 9.558594 21.335938 21.332031 21.335938 11.777344 0 21.335938-9.558594 21.335938-21.335938v-170.664062h170.664062c11.777344 0 21.335938-9.558594 21.335938-21.335938 0-11.773437-9.558594-21.332031-21.335938-21.332031zm0 0" />
        </symbol>
        <symbol id="arrow-right" viewBox="0 0 240.823 240.823">
            <g>
                <path
                    d="M183.189,111.816L74.892,3.555c-4.752-4.74-12.451-4.74-17.215,0c-4.752,4.74-4.752,12.439,0,17.179
		l99.707,99.671l-99.695,99.671c-4.752,4.74-4.752,12.439,0,17.191c4.752,4.74,12.463,4.74,17.215,0l108.297-108.261
		C187.881,124.315,187.881,116.495,183.189,111.816z" />
            </g>
        </symbol>
        <symbol id="wallet" viewBox="0 0 512 512">
            <g>
                <g>
                    <path
                        d="M438.154,44.308H73.846C33.127,44.308,0,77.435,0,118.154v275.692c0,40.719,33.127,73.846,73.846,73.846h364.308
			c40.719,0,73.846-33.127,73.846-73.846V118.154C512,77.435,478.873,44.308,438.154,44.308z M482.462,300.308H374.154
			c-24.431,0-44.308-19.876-44.308-44.308s19.876-44.308,44.308-44.308h108.308V300.308z M482.462,182.154H374.154
			c-40.719,0-73.846,33.127-73.846,73.846s33.127,73.846,73.846,73.846h108.308v64c0,24.431-19.876,44.308-44.308,44.308H73.846
			c-24.431,0-44.308-19.876-44.308-44.308V118.154c0-24.431,19.876-44.308,44.308-44.308h364.308
			c24.431,0,44.308,19.876,44.308,44.308V182.154z" />
                </g>
            </g>
            <g>
                <g>
                    <path
                        d="M393.846,241.231h-19.692c-8.157,0-14.769,6.613-14.769,14.769c0,8.157,6.613,14.769,14.769,14.769h19.692
			c8.157,0,14.769-6.613,14.769-14.769C408.615,247.843,402.003,241.231,393.846,241.231z" />
                </g>
            </g>
            <g>
            </g>
        </symbol>
        <symbol id="remove" viewBox="0 0 512 512">
            <path
                d="M256 8C119 8 8 119 8 256s111 248 248 248 248-111 248-248S393 8 256 8zm0 464c-118.7 0-216-96.1-216-216 0-118.7 96.1-216 216-216 118.7 0 216 96.1 216 216 0 118.7-96.1 216-216 216zm94.8-285.3L281.5 256l69.3 69.3c4.7 4.7 4.7 12.3 0 17l-8.5 8.5c-4.7 4.7-12.3 4.7-17 0L256 281.5l-69.3 69.3c-4.7 4.7-12.3 4.7-17 0l-8.5-8.5c-4.7-4.7-4.7-12.3 0-17l69.3-69.3-69.3-69.3c-4.7-4.7-4.7-12.3 0-17l8.5-8.5c4.7-4.7 12.3-4.7 17 0l69.3 69.3 69.3-69.3c4.7-4.7 12.3-4.7 17 0l8.5 8.5c4.6 4.7 4.6 12.3 0 17z"
                class=""></path>
        </symbol>
        <symbol id="icon_link" viewBox="0 0 24 24">
            <path id="prefix__Path_2495" d="M0 0h24v24H0z" data-name="Path 2495" style="fill:none" />
            <path id="prefix__Path_2496"
                d="M17.657 14.828l-1.414-1.414L17.657 12A4 4 0 0 0 12 6.343l-1.414 1.414-1.414-1.414 1.414-1.414a6 6 0 1 1 8.485 8.485l-1.414 1.414zm-2.829 2.829l-1.414 1.414a6 6 0 1 1-8.485-8.485l1.414-1.414 1.414 1.414L6.343 12A4 4 0 0 0 12 17.657l1.414-1.414zm0-9.9l1.415 1.415-7.071 7.07-1.415-1.414 7.071-7.07z"
                data-name="Path 2496" />
        </symbol>
        <symbol id="submitfly" viewBox="0 0 24 24">
            <path
                d="m8.75 17.612v4.638c0 .324.208.611.516.713.077.025.156.037.234.037.234 0 .46-.11.604-.306l2.713-3.692z" />
            <path
                d="m23.685.139c-.23-.163-.532-.185-.782-.054l-22.5 11.75c-.266.139-.423.423-.401.722.023.3.222.556.505.653l6.255 2.138 13.321-11.39-10.308 12.419 10.483 3.583c.078.026.16.04.242.04.136 0 .271-.037.39-.109.19-.116.319-.311.352-.53l2.75-18.5c.041-.28-.077-.558-.307-.722z" />
        </symbol>
        <symbol id="share-digg" viewBox="0 0 24 24">
            <g transform="translate(-848 -3519)">
                <g transform="translate(-15 595)">
                    <g transform="translate(863 2924)">
                        <rect fill="none" width="24" height="24" />
                    </g>
                </g>
                <g transform="translate(849 3519.5)">
                    <path d="M7.186,4.5H9.393V6.695H7.186Z" transform="translate(-0.59)" />
                    <path
                        d="M23.488,8.078H17.761v7.5H21.28v1.226H17.761v1.756h5.727ZM21.28,13.816H19.955V9.844H21.28Z"
                        transform="translate(-1.459 -0.294)" />
                    <path d="M7.186,8.077H9.393v7.5H7.186Z" transform="translate(-0.59 -0.294)" />
                    <path d="M5.709,4.5H3.514V7.783H0v7.5H5.709ZM3.515,13.522H2.19V9.55H3.515Z" />
                    <path
                        d="M16.287,8.078H10.552v7.5h3.532v1.226H10.552v1.756h5.735ZM14.08,13.816H12.755V9.844H14.08Z"
                        transform="translate(-0.867 -0.294)" />
                </g>
            </g>
        </symbol>
        <symbol id="share-email" viewBox="0 0 24 24">
            <g transform="translate(-1102 -3519)">
                <g transform="translate(1103 3459)">
                    <g transform="translate(0 64)">
                        <path
                            d="M7.076,65.339C10.1,67.9,15.394,72.4,16.951,73.8a.92.92,0,0,0,1.331,0c1.559-1.4,6.857-5.9,9.877-8.461a.458.458,0,0,0,.064-.632A1.82,1.82,0,0,0,26.785,64H8.45a1.82,1.82,0,0,0-1.439.706A.458.458,0,0,0,7.076,65.339Z"
                            transform="translate(-6.617 -64)" />
                        <path
                            d="M21.736,126.454a.456.456,0,0,0-.489.066C17.9,129.359,13.624,133,12.28,134.21a1.856,1.856,0,0,1-2.559,0c-1.433-1.291-6.233-5.371-8.966-7.688a.458.458,0,0,0-.755.35V138.4a1.835,1.835,0,0,0,1.833,1.833H20.168A1.835,1.835,0,0,0,22,138.4V126.87A.458.458,0,0,0,21.736,126.454Z"
                            transform="translate(0 -123.73)" />
                    </g>
                </g>
            </g>
        </symbol>
        <symbol id="share-facebook" viewBox="0 0 24 24">
            <g transform="translate(-146 -3521)">
                <g transform="translate(114.71 3522)">
                    <path fill="currentColor"
                        d="M44.709,22.011V11.971h3.368l.505-3.914H44.709v-2.5c0-1.133.313-1.9,1.939-1.9H48.72V.153A28.078,28.078,0,0,0,45.7,0c-2.988,0-5.033,1.824-5.033,5.172V8.058H37.29v3.914h3.379v10.04Z" />
                </g>
            </g>
        </symbol>
        <symbol id="share-linkedin" viewBox="0 0 24 24">
            <g transform="translate(-1216 -3516)">
                <g transform="translate(1216.968 3516.968)">
                    <path
                        d="M22.743,22.675h.006V14.582c0-3.959-.852-7.008-5.48-7.008a4.8,4.8,0,0,0-4.327,2.378h-.064V7.944H8.489v14.73h4.569V15.38c0-1.92.364-3.777,2.742-3.777,2.343,0,2.378,2.192,2.378,3.9v7.172Z"
                        transform="translate(-0.748 -0.675)" />
                    <path d="M.4,7.977H4.97v14.73H.4Z" transform="translate(-0.032 -0.707)" />
                    <path d="M2.649,0A2.662,2.662,0,1,0,5.3,2.649,2.65,2.65,0,0,0,2.649,0Z" />
                </g>
            </g>
        </symbol>
        <symbol id="share-pinterest" viewBox="0 0 24 24">
            <g transform="translate(-613 -3519)">
                <path
                    d="M11.636,0C5.508,0,2.25,3.927,2.25,8.209c0,1.985,1.109,4.462,2.886,5.247.507.228.44-.05.876-1.718a.4.4,0,0,0-.1-.388c-2.539-2.937-.5-8.975,5.357-8.975,8.47,0,6.888,11.721,1.474,11.721a2,2,0,0,1-2.106-2.451c.4-1.614,1.179-3.35,1.179-4.513,0-2.932-4.369-2.5-4.369,1.388a4.7,4.7,0,0,0,.425,2.011S6.471,16.209,6.21,17.27a15.07,15.07,0,0,0,.1,4.954.147.147,0,0,0,.268.068A17.567,17.567,0,0,0,8.9,17.934c.173-.638.884-3.228.884-3.228a3.862,3.862,0,0,0,3.259,1.554c4.281,0,7.376-3.763,7.376-8.433C20.4,3.35,16.568,0,11.636,0Z"
                    transform="translate(613.75 3520)" />
            </g>
        </symbol>
        <symbol id="share-reddit" viewBox="0 0 24 24">
            <g transform="translate(-1460 -3521)">
                <path
                    d="M19.548,8.574a2.454,2.454,0,0,0-1.756.748,11.792,11.792,0,0,0-6.358-1.99L12.718,1.46l4.089.931a1.835,1.835,0,0,0,1.817,1.845,1.869,1.869,0,1,0-1.636-2.7L12.471.519a.432.432,0,0,0-.511.335l-1.41,6.473A11.938,11.938,0,0,0,4.23,9.341a2.45,2.45,0,0,0-1.78-.767,2.482,2.482,0,0,0-1.061,4.71,5.344,5.344,0,0,0-.121,1.162c0,3.943,4.377,7.137,9.751,7.137,5.4,0,9.774-3.195,9.774-7.137a4.57,4.57,0,0,0-.143-1.182,2.483,2.483,0,0,0-1.1-4.691ZM5.134,13.533a1.829,1.829,0,1,1,1.841,1.845,1.847,1.847,0,0,1-1.841-1.845Zm9.936,4.4c-1.688,1.712-6.45,1.712-8.138,0a.444.444,0,0,1,.612-.644c1.289,1.341,5.564,1.364,6.909,0a.446.446,0,0,1,.617.644Zm-.038-2.549a1.856,1.856,0,1,1,1.841-1.843A1.833,1.833,0,0,1,15.032,15.382Z"
                    transform="translate(1461 3521.5)" />
            </g>
        </symbol>
        <symbol id="share-skype" viewBox="0 0 24 24">
            <g transform="translate(-391 -3693)">
                <g transform="translate(392 3694)">
                    <path
                        d="M21.368,13.335a10.2,10.2,0,0,0,.242-2.221A10.42,10.42,0,0,0,11.117.769,10.737,10.737,0,0,0,9.322.92,6.123,6.123,0,0,0,6.086,0,6.042,6.042,0,0,0,0,6,5.913,5.913,0,0,0,.836,9.035a10.253,10.253,0,0,0-.213,2.079A10.421,10.421,0,0,0,11.116,21.461a10.782,10.782,0,0,0,1.922-.173A6.137,6.137,0,0,0,15.916,22,6.043,6.043,0,0,0,22,16,5.915,5.915,0,0,0,21.368,13.335ZM16.5,16.059a4.756,4.756,0,0,1-2.133,1.594,8.626,8.626,0,0,1-3.278.571,8.092,8.092,0,0,1-3.758-.778A4.877,4.877,0,0,1,5.6,15.932a3.252,3.252,0,0,1-.671-1.869,1.286,1.286,0,0,1,.437-.975,1.548,1.548,0,0,1,1.1-.4A1.4,1.4,0,0,1,7.389,13,2.373,2.373,0,0,1,8,13.889a5.116,5.116,0,0,0,.6,1.052,2.334,2.334,0,0,0,.881.674,3.686,3.686,0,0,0,1.524.268,3.731,3.731,0,0,0,2.113-.543,1.511,1.511,0,0,0,.777-1.291,1.268,1.268,0,0,0-.4-.98,2.893,2.893,0,0,0-1.119-.611c-.477-.146-1.125-.305-1.925-.47a15.385,15.385,0,0,1-2.75-.811,4.534,4.534,0,0,1-1.8-1.3A3.2,3.2,0,0,1,5.219,7.8a3.329,3.329,0,0,1,.712-2.093,4.417,4.417,0,0,1,2.038-1.4,9.016,9.016,0,0,1,3.079-.478,8.411,8.411,0,0,1,2.449.319A5.421,5.421,0,0,1,15.229,5a3.715,3.715,0,0,1,1.02,1.132,2.47,2.47,0,0,1,.329,1.18,1.4,1.4,0,0,1-.43,1,1.452,1.452,0,0,1-1.078.444,1.344,1.344,0,0,1-.9-.278,3.366,3.366,0,0,1-.627-.822,3.447,3.447,0,0,0-.942-1.15,2.984,2.984,0,0,0-1.753-.4,3.318,3.318,0,0,0-1.818.443,1.18,1.18,0,0,0-.65.991.9.9,0,0,0,.21.6,1.857,1.857,0,0,0,.626.469,4.654,4.654,0,0,0,.844.323c.291.08.78.2,1.452.352.85.179,1.629.381,2.32.6a7.434,7.434,0,0,1,1.8.807,3.56,3.56,0,0,1,1.182,1.231,3.653,3.653,0,0,1,.426,1.823A3.9,3.9,0,0,1,16.5,16.059Z" />
                </g>
            </g>
        </symbol>
        <symbol id="share-telegram" viewBox="0 0 24 24">
            <path fill="currentColor"
                d="m2.0729,10.7932s10.00821,-4.10737 13.47922,-5.55368c1.33061,-0.57847 5.84296,-2.42975 5.84296,-2.42975s2.08267,-0.80986 1.90909,1.15703c-0.05789,0.80994 -0.52067,3.64459 -0.98345,6.71071c-0.69425,4.33884 -1.44631,9.08257 -1.44631,9.08257s-0.11569,1.33061 -1.09914,1.562s-2.60334,-0.80986 -2.89253,-1.04133c-0.23147,-0.1735 -4.33884,-2.77684 -5.84296,-4.04956c-0.40497,-0.34708 -0.86775,-1.04125 0.05781,-1.8512c2.08267,-1.90909 4.57023,-4.28095 6.07434,-5.78507c0.69425,-0.69425 1.38842,-2.31406 -1.50411,-0.34716c-4.10737,2.83473 -8.15693,5.49587 -8.15693,5.49587s-0.92564,0.57847 -2.66114,0.05781c-1.73558,-0.52059 -3.76037,-1.21484 -3.76037,-1.21484s-1.38834,-0.86775 0.98353,-1.79339z" />
        </symbol>
        <symbol id="share-tumblr" viewBox="0 0 24 24">
            <g transform="translate(-732 -2913)">
                <path
                    d="M152.6,41.5h.357a7.545,7.545,0,0,0,3.139-.781l-.676-1.971a7.215,7.215,0,0,1-1.355.189h-.118a2.909,2.909,0,0,1-2.545-1.192,3.626,3.626,0,0,1-.589-2.053V27.358h4.863V25.567h-4.846V19.5h-2a9.216,9.216,0,0,1-1.181,3.274,7.529,7.529,0,0,1-3.479,3.032v1.553H146.6v8.689C146.6,38.207,148.2,41.409,152.6,41.5Z"
                    transform="translate(593.833 2894.5)" />
            </g>
        </symbol>
        <symbol id="share-twitter" viewBox="0 0 24 24">
            <g transform="translate(-501 -3520)">
                <path
                    d="M19.741,6.708A9,9,0,0,0,22,4.367h0a9.42,9.42,0,0,1-2.6.712,4.486,4.486,0,0,0,1.985-2.493,9.025,9.025,0,0,1-2.86,1.092,4.51,4.51,0,0,0-7.8,3.084,4.644,4.644,0,0,0,.1,1.029,12.77,12.77,0,0,1-9.3-4.718A4.51,4.51,0,0,0,2.918,9.1,4.458,4.458,0,0,1,.88,8.544v.05a4.532,4.532,0,0,0,3.614,4.432,4.485,4.485,0,0,1-1.183.149,3.981,3.981,0,0,1-.853-.077A4.555,4.555,0,0,0,6.672,16.24a9.067,9.067,0,0,1-5.593,1.923A8.531,8.531,0,0,1,0,18.1a12.7,12.7,0,0,0,6.919,2.024A12.75,12.75,0,0,0,19.741,6.708Z"
                    transform="translate(502 3520.75)" />
            </g>
        </symbol>
        <symbol id="share-wechat" viewBox="0 0 24 24">
            <g transform="translate(-256 -3700)">
                <g transform="translate(257 3670)">
                    <g transform="translate(0 32)">
                        <g transform="translate(0 0)">
                            <path
                                d="M8.173,32C3.659,32,0,35.05,0,38.811a6.447,6.447,0,0,0,3.121,5.337L2.043,46.3l2.935-1.257a9.279,9.279,0,0,0,1.982.493,5.7,5.7,0,0,1-.15-1.279c0-3.755,3.666-6.811,8.173-6.811a9.886,9.886,0,0,1,1.214.083C15.478,34.382,12.161,32,8.173,32ZM5.449,37.108A1.022,1.022,0,1,1,6.47,36.086,1.022,1.022,0,0,1,5.449,37.108Zm5.449,0a1.022,1.022,0,1,1,1.022-1.022A1.022,1.022,0,0,1,10.9,37.108Z"
                                transform="translate(0 -32)" />
                        </g>
                    </g>
                    <g transform="translate(8.173 38.811)">
                        <g transform="translate(0 0)">
                            <path
                                d="M205.621,197.449c0-3.009-3.05-5.449-6.811-5.449S192,194.44,192,197.449s3.05,5.449,6.811,5.449a8.321,8.321,0,0,0,1.778-.211l3.671,1.573-1.27-2.538A5.133,5.133,0,0,0,205.621,197.449Zm-8.854-.341a1.022,1.022,0,1,1,1.022-1.022A1.022,1.022,0,0,1,196.767,197.108Zm4.086,0a1.022,1.022,0,1,1,1.022-1.022A1.022,1.022,0,0,1,200.854,197.108Z"
                                transform="translate(-192 -192)" />
                        </g>
                    </g>
                </g>
            </g>
        </symbol>
        <symbol id="share-weibo" viewBox="0 0 24 24">
            <g transform="translate(-142 -3703)">
                <g transform="translate(143 3703.5)">
                    <path
                        d="M23.289,7.7c.094,1.206-.113,2.651-.922,2.722-1.322.116-.633-1.316-.615-2.177A4.244,4.244,0,0,0,17.507,4.01c-.6,0-2,.4-1.784-.847.1-.55.571-.543,1.045-.605A5.582,5.582,0,0,1,23.289,7.7Z"
                        transform="translate(-1.306)" />
                    <path
                        d="M16.14,10.817c1.536.826,3.38,1.238,3.075,3.689C18.652,19.026,9.08,22.061,3.1,18.741,1.462,17.829-.235,16.5.027,13.841c.226-2.286,1.788-4.056,3.322-5.564a10.827,10.827,0,0,1,5.1-3.084c2.277-.563,2.95,1.3,2.337,3.145C12.109,8.25,14.9,6.8,16.14,8.216c.545.623.336,1.739,0,2.6Zm-1.66,5.806a3.611,3.611,0,0,0,.984-2.358c-.009-4.029-7-4.929-10.824-2.722C.287,14.056,2.124,18.57,7.468,18.922c2.831.187,5.665-.8,7.011-2.3Z"
                        transform="translate(0 -0.216)" />
                    <path
                        d="M19.662,9.721c-.9.059-.561-.6-.615-1.391a1.654,1.654,0,0,0-.8-1.21c-.7-.323-1.783.235-1.783-.725,0-.713.629-.639.985-.666C20.708,5.485,20.91,9.639,19.662,9.721Z"
                        transform="translate(-1.369 -0.268)" />
                    <path
                        d="M12.211,14.6c1.31,3.895-5.517,5.705-6.765,2.359C4.61,14.717,6.616,12.936,8.7,12.721A3.174,3.174,0,0,1,12.211,14.6Zm-3.137.666a.464.464,0,0,0,.861-.242C9.867,14.586,9.068,14.65,9.073,15.261ZM7.967,17.318c1.148-.269,1.3-2.395-.431-2C6.081,15.656,6.362,17.693,7.967,17.318Z"
                        transform="translate(-0.437 -0.848)" />
                </g>
            </g>
        </symbol>
        <symbol id="share-whatsapp" viewBox="0 0 24 24">
            <g transform="translate(-975 -3531)">
                <g transform="translate(976 3532)">
                    <path
                        d="M11,0H11a10.993,10.993,0,0,0-8.9,17.447L.723,21.534l4.228-1.352A11,11,0,1,0,11,0Zm6.4,15.533a3.1,3.1,0,0,1-2.159,1.552c-.575.122-1.325.22-3.853-.828a13.78,13.78,0,0,1-5.477-4.837A6.282,6.282,0,0,1,4.609,8.1,3.512,3.512,0,0,1,5.734,5.426a1.6,1.6,0,0,1,1.125-.395c.136,0,.258.007.369.012.323.014.485.033.7.543.265.639.912,2.218.989,2.38a.655.655,0,0,1,.047.6,1.9,1.9,0,0,1-.356.5c-.162.187-.316.33-.479.531-.148.175-.316.362-.129.685A9.764,9.764,0,0,0,9.782,12.5a8.087,8.087,0,0,0,2.58,1.591.7.7,0,0,0,.776-.122A13.309,13.309,0,0,0,14,12.83a.614.614,0,0,1,.789-.239c.3.1,1.869.88,2.192,1.041s.536.239.615.375A2.74,2.74,0,0,1,17.4,15.533Z" />
                </g>
            </g>
        </symbol>
        <symbol id="share-instagram" viewBox="0 0 24 24">
            <g transform="translate(-256 -3529)">
                <g transform="translate(256.551 3530)">
                    <path
                        d="M22.425,6.479a8.052,8.052,0,0,0-.512-2.673A5.645,5.645,0,0,0,18.688.581,8.073,8.073,0,0,0,16.015.069C14.835.013,14.461,0,11.469,0S8.1.013,6.927.065A8.054,8.054,0,0,0,4.254.577,5.377,5.377,0,0,0,2.3,1.851,5.425,5.425,0,0,0,1.03,3.8,8.074,8.074,0,0,0,.517,6.474C.462,7.654.449,8.029.449,11.02s.013,3.366.065,4.542a8.052,8.052,0,0,0,.512,2.673A5.644,5.644,0,0,0,4.25,21.46a8.074,8.074,0,0,0,2.673.512c1.175.052,1.55.065,4.542.065s3.366-.013,4.542-.065a8.05,8.05,0,0,0,2.673-.512A5.637,5.637,0,0,0,21.9,18.235a8.079,8.079,0,0,0,.512-2.673c.052-1.175.065-1.55.065-4.542s0-3.366-.056-4.542Zm-1.984,9a6.04,6.04,0,0,1-.379,2.045,3.655,3.655,0,0,1-2.092,2.092,6.061,6.061,0,0,1-2.045.379c-1.162.052-1.511.065-4.451.065s-3.293-.013-4.451-.065a6.037,6.037,0,0,1-2.045-.379,3.391,3.391,0,0,1-1.266-.822,3.426,3.426,0,0,1-.822-1.266,6.062,6.062,0,0,1-.379-2.045c-.052-1.162-.065-1.511-.065-4.451s.013-3.293.065-4.451a6.037,6.037,0,0,1,.379-2.045,3.349,3.349,0,0,1,.827-1.266,3.421,3.421,0,0,1,1.266-.822,6.066,6.066,0,0,1,2.045-.379C8.189,2.015,8.537,2,11.478,2s3.293.013,4.451.065a6.04,6.04,0,0,1,2.045.379,3.388,3.388,0,0,1,1.266.822,3.425,3.425,0,0,1,.822,1.266,6.065,6.065,0,0,1,.379,2.045c.052,1.162.065,1.511.065,4.451s-.013,3.285-.065,4.447Zm0,0"
                        transform="translate(0 0)" />
                    <path
                        d="M130.61,124.5a5.661,5.661,0,1,0,5.661,5.661A5.662,5.662,0,0,0,130.61,124.5Zm0,9.333a3.672,3.672,0,1,1,3.672-3.672A3.673,3.673,0,0,1,130.61,133.833Zm0,0"
                        transform="translate(-119.141 -119.14)" />
                    <path
                        d="M365.093,89.923a1.322,1.322,0,1,1-1.322-1.322A1.322,1.322,0,0,1,365.093,89.923Zm0,0"
                        transform="translate(-346.418 -84.788)" />
                </g>
            </g>
        </symbol>
        <symbol id="icn-dashboard" viewBox="0 0 15.978 15.978">
            <g id="Group_892" data-name="Group 892" transform="translate(-39.701 -312.348)">
                <rect id="Rectangle_110" data-name="Rectangle 110" width="15.228" height="15.228"
                    transform="translate(40.076 312.723)" fill="none" />
                <g id="Group_91" data-name="Group 91">
                    <path id="Path_74" data-name="Path 74"
                        d="M46.421,313.318v8.328h-5.71v-8.328h5.71m0-.6h-5.71a.616.616,0,0,0-.635.6v8.328a.615.615,0,0,0,.635.594h5.71a.615.615,0,0,0,.635-.594v-8.328A.616.616,0,0,0,46.421,312.723Z"
                        stroke="currentColor" stroke-width="0.75" />
                </g>
                <g id="Group_92" data-name="Group 92">
                    <path id="Path_75" data-name="Path 75"
                        d="M54.67,319.028v8.328H48.959v-8.328H54.67m0-.6H48.959a.616.616,0,0,0-.634.6v8.328a.615.615,0,0,0,.634.6H54.67a.615.615,0,0,0,.634-.6v-8.328A.616.616,0,0,0,54.67,318.433Z"
                        stroke="currentColor" stroke-width="0.75" />
                </g>
                <g id="Group_93" data-name="Group 93">
                    <path id="Path_76" data-name="Path 76"
                        d="M54.67,313.357v2.538H48.959v-2.538H54.67m0-.634H48.959a.634.634,0,0,0-.634.634v2.538a.634.634,0,0,0,.634.635H54.67a.634.634,0,0,0,.634-.635v-2.538A.634.634,0,0,0,54.67,312.723Z"
                        stroke="currentColor" stroke-width="0.75" />
                </g>
                <g id="Group_94" data-name="Group 94">
                    <path id="Path_77" data-name="Path 77"
                        d="M46.421,324.779v2.538h-5.71v-2.538h5.71m0-.635h-5.71a.635.635,0,0,0-.635.635v2.538a.634.634,0,0,0,.635.634h5.71a.634.634,0,0,0,.635-.634v-2.538A.635.635,0,0,0,46.421,324.144Z"
                        stroke="currentColor" stroke-width="0.75" />
                </g>
            </g>
        </symbol>
        <symbol id="icn-user" viewBox="0 0 16 16.021">
            <g id="Group_456" data-name="Group 456">
                <g id="Group_455" data-name="Group 455">
                    <g id="Group_454" data-name="Group 454">
                        <path id="Path_343" data-name="Path 343"
                            d="M14.675,16.021H1.325A1.27,1.27,0,0,1,.008,14.809c0-3.7,2.913-5.817,7.992-5.817s7.992,2.12,7.992,5.817A1.27,1.27,0,0,1,14.675,16.021Zm-13.159-1.5H14.484C14.3,11.2,10.88,10.492,8,10.492S1.7,11.2,1.516,14.521Z" />
                    </g>
                </g>
            </g>
            <g id="Group_459" data-name="Group 459">
                <g id="Group_458" data-name="Group 458">
                    <g id="Group_457" data-name="Group 457">
                        <path id="Path_344" data-name="Path 344"
                            d="M8,8.131A4.033,4.033,0,0,1,4.112,3.975,3.834,3.834,0,0,1,8,.024a3.834,3.834,0,0,1,3.888,3.952A4.033,4.033,0,0,1,8,8.131ZM8,1.524A2.341,2.341,0,0,0,5.612,3.975,2.535,2.535,0,0,0,8,6.631a2.536,2.536,0,0,0,2.388-2.655A2.341,2.341,0,0,0,8,1.524Z" />
                    </g>
                </g>
            </g>
        </symbol>
        <symbol id="icn-update" viewBox="0 0 16 16.02">
            <g id="Group_994" data-name="Group 994" transform="translate(-368.006 -432.146)">
                <g id="Group_989" data-name="Group 989">
                    <rect id="Rectangle_852" data-name="Rectangle 852" width="16" height="16"
                        transform="translate(368.006 432.166)" fill="none" />
                </g>
                <g id="Group_990" data-name="Group 990">
                    <path id="Path_687" data-name="Path 687"
                        d="M382.882,436.819l-2.545-2.546-2.545,2.546-1.061-1.061,3.605-3.606,3.605,3.606Z" />
                </g>
                <g id="Group_991" data-name="Group 991">
                    <path id="Path_688" data-name="Path 688"
                        d="M371.858,447.763l-3.605-3.605,1.061-1.061,2.545,2.545L374.4,443.1l1.061,1.061Z" />
                </g>
                <g id="Group_992" data-name="Group 992">
                    <path id="Path_689" data-name="Path 689"
                        d="M381.087,447.915h-3.8v-1.5h2.3v-12.25h1.5Z" />
                </g>
                <g id="Group_993" data-name="Group 993">
                    <path id="Path_690" data-name="Path 690"
                        d="M372.608,445.9h-1.5v-13.75h3.669v1.5h-2.169Z" />
                </g>
            </g>
        </symbol>
        <symbol id="icn-logout" viewBox="0 0 16.236 16.73">
            <g id="Group_907" data-name="Group 907" transform="translate(822.711 158.082)">
                <g id="Path_278" data-name="Path 278">
                    <path id="Path_625" data-name="Path 625"
                        d="M-813.471-147.151l-2.228-2.228h8.849v-.666H-815.7l2.228-2.228-.47-.471-3.033,3.032,3.033,3.032Z" />
                    <path id="Path_626" data-name="Path 626"
                        d="M-813.941-146.149l-3.563-3.563,3.563-3.562,1,1-1.853,1.853h8.319V-149h-8.319l1.853,1.853Z" />
                </g>
                <g id="Group_367" data-name="Group 367">
                    <g id="Path_279" data-name="Path 279">
                        <path id="Path_627" data-name="Path 627"
                            d="M-822.336-141.727v-15.98h8.323v.666h-7.657v14.648h7.657v.666Z" />
                        <path id="Path_628" data-name="Path 628"
                            d="M-813.638-141.352h-9.073v-16.73h9.073v1.416H-821.3v13.9h7.657Z" />
                    </g>
                </g>
            </g>
        </symbol>
        <symbol id="dollar" viewBox="0 0 16 16">
            <path
                d="M4 10.781c.148 1.667 1.513 2.85 3.591 3.003V15h1.043v-1.216c2.27-.179 3.678-1.438 3.678-3.3 0-1.59-.947-2.51-2.956-3.028l-.722-.187V3.467c1.122.11 1.879.714 2.07 1.616h1.47c-.166-1.6-1.54-2.748-3.54-2.875V1H7.591v1.233c-1.939.23-3.27 1.472-3.27 3.156 0 1.454.966 2.483 2.661 2.917l.61.162v4.031c-1.149-.17-1.94-.8-2.131-1.718H4zm3.391-3.836c-1.043-.263-1.6-.825-1.6-1.616 0-.944.704-1.641 1.8-1.828v3.495l-.2-.05zm1.591 1.872c1.287.323 1.852.859 1.852 1.769 0 1.097-.826 1.828-2.2 1.939V8.73l.348.086z" />
        </symbol>
        <symbol id="star" viewBox="0 0 16 16">
            <path
                d="M2.866 14.85c-.078.444.36.791.746.593l4.39-2.256 4.389 2.256c.386.198.824-.149.746-.592l-.83-4.73 3.522-3.356c.33-.314.16-.888-.282-.95l-4.898-.696L8.465.792a.513.513 0 0 0-.927 0L5.354 5.12l-4.898.696c-.441.062-.612.636-.283.95l3.523 3.356-.83 4.73zm4.905-2.767-3.686 1.894.694-3.957a.565.565 0 0 0-.163-.505L1.71 6.745l4.052-.576a.525.525 0 0 0 .393-.288L8 2.223l1.847 3.658a.525.525 0 0 0 .393.288l4.052.575-2.906 2.77a.565.565 0 0 0-.163.506l.694 3.957-3.686-1.894a.503.503 0 0 0-.461 0z" />
        </symbol>
        <symbol id="download" viewBox="0 0 16 16">
            <path fill-rule="evenodd"
                d="M7.646 10.854a.5.5 0 0 0 .708 0l2-2a.5.5 0 0 0-.708-.708L8.5 9.293V5.5a.5.5 0 0 0-1 0v3.793L6.354 8.146a.5.5 0 1 0-.708.708l2 2z" />
            <path
                d="M4.406 3.342A5.53 5.53 0 0 1 8 2c2.69 0 4.923 2 5.166 4.579C14.758 6.804 16 8.137 16 9.773 16 11.569 14.502 13 12.687 13H3.781C1.708 13 0 11.366 0 9.318c0-1.763 1.266-3.223 2.942-3.593.143-.863.698-1.723 1.464-2.383zm.653.757c-.757.653-1.153 1.44-1.153 2.056v.448l-.445.049C2.064 6.805 1 7.952 1 9.318 1 10.785 2.23 12 3.781 12h8.906C13.98 12 15 10.988 15 9.773c0-1.216-1.02-2.228-2.313-2.228h-.5v-.5C12.188 4.825 10.328 3 8 3a4.53 4.53 0 0 0-2.941 1.1z" />
        </symbol>
        <symbol id="file" viewBox="0 0 16 16">
            <path
                d="M10.943 6H5.057L5 8h.5c.18-1.096.356-1.192 1.694-1.235l.293-.01v5.09c0 .47-.1.582-.898.655v.5H9.41v-.5c-.803-.073-.903-.184-.903-.654V6.755l.298.01c1.338.043 1.514.14 1.694 1.235h.5l-.057-2z" />
            <path
                d="M14 4.5V14a2 2 0 0 1-2 2H4a2 2 0 0 1-2-2V2a2 2 0 0 1 2-2h5.5L14 4.5zm-3 0A1.5 1.5 0 0 1 9.5 3V1H4a1 1 0 0 0-1 1v12a1 1 0 0 0 1 1h8a1 1 0 0 0 1-1V4.5h-2z" />
        </symbol>
        <symbol id="exclamation-triangle" viewBox="0 0 16 16">
            <path
                d="M7.938 2.016A.13.13 0 0 1 8.002 2a.13.13 0 0 1 .063.016.146.146 0 0 1 .054.057l6.857 11.667c.036.06.035.124.002.183a.163.163 0 0 1-.054.06.116.116 0 0 1-.066.017H1.146a.115.115 0 0 1-.066-.017.163.163 0 0 1-.054-.06.176.176 0 0 1 .002-.183L7.884 2.073a.147.147 0 0 1 .054-.057zm1.044-.45a1.13 1.13 0 0 0-1.96 0L.165 13.233c-.457.778.091 1.767.98 1.767h13.713c.889 0 1.438-.99.98-1.767L8.982 1.566z" />
            <path
                d="M7.002 12a1 1 0 1 1 2 0 1 1 0 0 1-2 0zM7.1 5.995a.905.905 0 1 1 1.8 0l-.35 3.507a.552.552 0 0 1-1.1 0L7.1 5.995z" />
        </symbol>
        <symbol id="mobile-alt" viewBox="0 0 16 16">
            <path
                d="M11 1a1 1 0 0 1 1 1v12a1 1 0 0 1-1 1H5a1 1 0 0 1-1-1V2a1 1 0 0 1 1-1h6zM5 0a2 2 0 0 0-2 2v12a2 2 0 0 0 2 2h6a2 2 0 0 0 2-2V2a2 2 0 0 0-2-2H5z" />
            <path d="M8 14a1 1 0 1 0 0-2 1 1 0 0 0 0 2z" />
        </symbol>
        <symbol id="calendar-day" viewBox="0 0 16 16">
            <path
                d="M14 0H2a2 2 0 0 0-2 2v12a2 2 0 0 0 2 2h12a2 2 0 0 0 2-2V2a2 2 0 0 0-2-2zM1 3.857C1 3.384 1.448 3 2 3h12c.552 0 1 .384 1 .857v10.286c0 .473-.448.857-1 .857H2c-.552 0-1-.384-1-.857V3.857z" />
            <path
                d="M6.5 7a1 1 0 1 0 0-2 1 1 0 0 0 0 2zm3 0a1 1 0 1 0 0-2 1 1 0 0 0 0 2zm3 0a1 1 0 1 0 0-2 1 1 0 0 0 0 2zm-9 3a1 1 0 1 0 0-2 1 1 0 0 0 0 2zm3 0a1 1 0 1 0 0-2 1 1 0 0 0 0 2zm3 0a1 1 0 1 0 0-2 1 1 0 0 0 0 2zm3 0a1 1 0 1 0 0-2 1 1 0 0 0 0 2zm-9 3a1 1 0 1 0 0-2 1 1 0 0 0 0 2zm3 0a1 1 0 1 0 0-2 1 1 0 0 0 0 2zm3 0a1 1 0 1 0 0-2 1 1 0 0 0 0 2z" />
        </symbol>
        <symbol id="test" viewBox="0 0 16 16">
            <path
                d="M7.938 2.016A.13.13 0 0 1 8.002 2a.13.13 0 0 1 .063.016.146.146 0 0 1 .054.057l6.857 11.667c.036.06.035.124.002.183a.163.163 0 0 1-.054.06.116.116 0 0 1-.066.017H1.146a.115.115 0 0 1-.066-.017.163.163 0 0 1-.054-.06.176.176 0 0 1 .002-.183L7.884 2.073a.147.147 0 0 1 .054-.057zm1.044-.45a1.13 1.13 0 0 0-1.96 0L.165 13.233c-.457.778.091 1.767.98 1.767h13.713c.889 0 1.438-.99.98-1.767L8.982 1.566z" />
            <path
                d="M7.002 12a1 1 0 1 1 2 0 1 1 0 0 1-2 0zM7.1 5.995a.905.905 0 1 1 1.8 0l-.35 3.507a.552.552 0 0 1-1.1 0L7.1 5.995z" />
        </symbol>
        <symbol id="attachments" viewBox="0 0 24 24">
            <path
                d="M14.8287 7.7574L9.1718 13.4143C8.78127 13.8048 8.78127 14.4379 9.1718 14.8285C9.56232 15.219 10.1955 15.219 10.586 14.8285L16.2429 9.17161C17.4144 8.00004 17.4144 6.10055 16.2429 4.92897C15.0713 3.7574 13.1718 3.7574 12.0002 4.92897L6.34337 10.5858C4.39075 12.5384 4.39075 15.7043 6.34337 17.6569C8.29599 19.6095 11.4618 19.6095 13.4144 17.6569L19.0713 12L20.4855 13.4143L14.8287 19.0711C12.095 21.8048 7.66283 21.8048 4.92916 19.0711C2.19549 16.3374 2.19549 11.9053 4.92916 9.17161L10.586 3.51476C12.5386 1.56214 15.7045 1.56214 17.6571 3.51476C19.6097 5.46738 19.6097 8.63321 17.6571 10.5858L12.0002 16.2427C10.8287 17.4143 8.92916 17.4143 7.75759 16.2427C6.58601 15.0711 6.58601 13.1716 7.75759 12L13.4144 6.34319L14.8287 7.7574Z"></path>
        </symbol>
        <symbol id="send" viewBox="0 0 24 24">
            <path
                d="M1.94631 9.31555C1.42377 9.14137 1.41965 8.86034 1.95706 8.6812L21.0433 2.31913C21.5717 2.14297 21.8748 2.43878 21.7268 2.95706L16.2736 22.0433C16.1226 22.5718 15.8179 22.5901 15.5946 22.0877L12.0002 14.0002L18.0002 6.00017L10.0002 12.0002L1.94631 9.31555Z"></path>
        </symbol>
        <symbol id="user-follow-line" viewBox="0 0 24 24">
            <path
                d="M14 14.252V16.3414C13.3744 16.1203 12.7013 16 12 16C8.68629 16 6 18.6863 6 22H4C4 17.5817 7.58172 14 12 14C12.6906 14 13.3608 14.0875 14 14.252ZM12 13C8.685 13 6 10.315 6 7C6 3.685 8.685 1 12 1C15.315 1 18 3.685 18 7C18 10.315 15.315 13 12 13ZM12 11C14.21 11 16 9.21 16 7C16 4.79 14.21 3 12 3C9.79 3 8 4.79 8 7C8 9.21 9.79 11 12 11ZM17.7929 19.9142L21.3284 16.3787L22.7426 17.7929L17.7929 22.7426L14.2574 19.2071L15.6716 17.7929L17.7929 19.9142Z"></path>
        </symbol>
    </defs>
</svg>