<svg xmlns="http://www.w3.org/2000/svg" width="0" height="0">
    <defs>
        <symbol id="back" viewBox="0 0 24 24">
            <path d="M0 0h24v24H0V0z" fill="none" />
            <path d="M20 11H7.83l5.59-5.59L12 4l-8 8 8 8 1.41-1.41L7.83 13H20v-2z" />
        </symbol>
        <symbol id="move" viewBox="0 0 16 16">
            <path fill-rule="evenodd"
                d="M1.5 1.5A.5.5 0 0 0 1 2v4.8a2.5 2.5 0 0 0 2.5 2.5h9.793l-3.347 3.346a.5.5 0 0 0 .708.708l4.2-4.2a.5.5 0 0 0 0-.708l-4-4a.5.5 0 0 0-.708.708L13.293 8.3H3.5A1.5 1.5 0 0 1 2 6.8V2a.5.5 0 0 0-.5-.5z" />
        </symbol>
        <symbol id="drag" viewBox="0 0 24 24">
            <path d="M0 0h24v24H0V0z" fill="none" />
            <path
                d="M11 18c0 1.1-.9 2-2 2s-2-.9-2-2 .9-2 2-2 2 .9 2 2zm-2-8c-1.1 0-2 .9-2 2s.9 2 2 2 2-.9 2-2-.9-2-2-2zm0-6c-1.1 0-2 .9-2 2s.9 2 2 2 2-.9 2-2-.9-2-2-2zm6 4c1.1 0 2-.9 2-2s-.9-2-2-2-2 .9-2 2 .9 2 2 2zm0 2c-1.1 0-2 .9-2 2s.9 2 2 2 2-.9 2-2-.9-2-2-2zm0 6c-1.1 0-2 .9-2 2s.9 2 2 2 2-.9 2-2-.9-2-2-2z" />
        </symbol>
        <symbol id="expand" viewBox="0 0 24 24">
            <path d="M24 24H0V0h24v24z" fill="none" opacity=".87" />
            <path d="M16.59 8.59L12 13.17 7.41 8.59 6 10l6 6 6-6-1.41-1.41z" />
        </symbol>
        <symbol id="link" viewBox="0 0 24 24">
            <path d="M0 0h24v24H0V0z" fill="none" />
            <path
                d="M17 7h-4v2h4c1.65 0 3 1.35 3 3s-1.35 3-3 3h-4v2h4c2.76 0 5-2.24 5-5s-2.24-5-5-5zm-6 8H7c-1.65 0-3-1.35-3-3s1.35-3 3-3h4V7H7c-2.76 0-5 2.24-5 5s2.24 5 5 5h4v-2zm-3-4h8v2H8z" />
        </symbol>
        <symbol id="view" viewBox="0 0 24 24">
            <path d="M0 0h24v24H0V0z" fill="none" />
            <path
                d="M12 6c3.79 0 7.17 2.13 8.82 5.5C19.17 14.87 15.79 17 12 17s-7.17-2.13-8.82-5.5C4.83 8.13 8.21 6 12 6m0-2C7 4 2.73 7.11 1 11.5 2.73 15.89 7 19 12 19s9.27-3.11 11-7.5C21.27 7.11 17 4 12 4zm0 5c1.38 0 2.5 1.12 2.5 2.5S13.38 14 12 14s-2.5-1.12-2.5-2.5S10.62 9 12 9m0-2c-2.48 0-4.5 2.02-4.5 4.5S9.52 16 12 16s4.5-2.02 4.5-4.5S14.48 7 12 7z" />
        </symbol>
        <symbol id="hide" viewBox="0 0 24 24">
            <path d="M0 0h24v24H0zm0 0h24v24H0zm0 0h24v24H0zm0 0h24v24H0z" fill="none" />
            <path
                d="M12 7c2.76 0 5 2.24 5 5 0 .65-.13 1.26-.36 1.83l2.92 2.92c1.51-1.26 2.7-2.89 3.43-4.75-1.73-4.39-6-7.5-11-7.5-1.4 0-2.74.25-3.98.7l2.16 2.16C10.74 7.13 11.35 7 12 7zM2 4.27l2.28 2.28.46.46C3.08 8.3 1.78 10.02 1 12c1.73 4.39 6 7.5 11 7.5 1.55 0 3.03-.3 4.38-.84l.42.42L19.73 22 21 20.73 3.27 3 2 4.27zM7.53 9.8l1.55 1.55c-.05.21-.08.43-.08.65 0 1.66 1.34 3 3 3 .22 0 .44-.03.65-.08l1.55 1.55c-.67.33-1.41.53-2.2.53-2.76 0-5-2.24-5-5 0-.79.2-1.53.53-2.2zm4.31-.78l3.15 3.15.02-.16c0-1.66-1.34-3-3-3l-.17.01z" />
        </symbol>
        <symbol id="arrow-up" viewBox="0 0 24 24">
            <rect fill="none" height="24" width="24" />
            <path d="M5,9l1.41,1.41L11,5.83V22H13V5.83l4.59,4.59L19,9l-7-7L5,9z" />
        </symbol>
        <symbol id="arrow-down" viewBox="0 0 24 24">
            <rect fill="none" height="24" width="24" />
            <path d="M19,15l-1.41-1.41L13,18.17V2H11v16.17l-4.59-4.59L5,15l7,7L19,15z" />
        </symbol>
        <symbol id="add" viewBox="0 0 24 24">
            <path d="M0 0h24v24H0V0z" fill="none" />
            <path
                d="M13 7h-2v4H7v2h4v4h2v-4h4v-2h-4V7zm-1-5C6.48 2 2 6.48 2 12s4.48 10 10 10 10-4.48 10-10S17.52 2 12 2zm0 18c-4.41 0-8-3.59-8-8s3.59-8 8-8 8 3.59 8 8-3.59 8-8 8z" />
        </symbol>
        <symbol id="copy-to-all" viewBox="0 0 24 24">
            <path d="M0 0h24v24H0V0z" fill="none" />
            <path
                d="M16 1H4c-1.1 0-2 .9-2 2v14h2V3h12V1zm3 4H8c-1.1 0-2 .9-2 2v14c0 1.1.9 2 2 2h11c1.1 0 2-.9 2-2V7c0-1.1-.9-2-2-2zm0 16H8V7h11v14z" />
        </symbol>
        <symbol id="copy" viewBox="0 0 24 24">
            <path d="M0 0h24v24H0V0z" fill="none" />
            <path
                d="M16 1H4c-1.1 0-2 .9-2 2v14h2V3h12V1zm3 4H8c-1.1 0-2 .9-2 2v14c0 1.1.9 2 2 2h11c1.1 0 2-.9 2-2V7c0-1.1-.9-2-2-2zm0 16H8V7h11v14z" />
        </symbol>
        <symbol id="active" viewBox="0 0 24 24">
            <path d="M0 0h24v24H0z" fill="none" />
            <path
                d="M17 6H7c-3.31 0-6 2.69-6 6s2.69 6 6 6h10c3.31 0 6-2.69 6-6s-2.69-6-6-6zm0 10H7c-2.21 0-4-1.79-4-4s1.79-4 4-4h10c2.21 0 4 1.79 4 4s-1.79 4-4 4zm0-7c-1.66 0-3 1.34-3 3s1.34 3 3 3 3-1.34 3-3-1.34-3-3-3z" />
        </symbol>
        <symbol id="in-active" viewBox="0 0 24 24">
            <path d="M0 0h24v24H0V0z" fill="none" />
            <path
                d="M17 6H7c-3.31 0-6 2.69-6 6s2.69 6 6 6h10c3.31 0 6-2.69 6-6s-2.69-6-6-6zm0 10H7c-2.21 0-4-1.79-4-4s1.79-4 4-4h10c2.21 0 4 1.79 4 4s-1.79 4-4 4zM7 9c-1.66 0-3 1.34-3 3s1.34 3 3 3 3-1.34 3-3-1.34-3-3-3z" />
        </symbol>
        <symbol id="edit" viewBox="0 0 16 16">
            <path
                d="M12.146.146a.5.5 0 0 1 .708 0l3 3a.5.5 0 0 1 0 .708l-10 10a.5.5 0 0 1-.168.11l-5 2a.5.5 0 0 1-.65-.65l2-5a.5.5 0 0 1 .11-.168l10-10zM11.207 2.5 13.5 4.793 14.793 3.5 12.5 1.207 11.207 2.5zm1.586 3L10.5 3.207 4 9.707V10h.5a.5.5 0 0 1 .5.5v.5h.5a.5.5 0 0 1 .5.5v.5h.293l6.5-6.5zm-9.761 5.175-.106.106-1.528 3.821 3.821-1.528.106-.106A.5.5 0 0 1 5 12.5V12h-.5a.5.5 0 0 1-.5-.5V11h-.5a.5.5 0 0 1-.468-.325z" />
        </symbol>
        <symbol id="delete" viewBox="0 0 16 16">
            <path
                d="M5.5 5.5A.5.5 0 0 1 6 6v6a.5.5 0 0 1-1 0V6a.5.5 0 0 1 .5-.5zm2.5 0a.5.5 0 0 1 .5.5v6a.5.5 0 0 1-1 0V6a.5.5 0 0 1 .5-.5zm3 .5a.5.5 0 0 0-1 0v6a.5.5 0 0 0 1 0V6z" />
            <path fill-rule="evenodd"
                d="M14.5 3a1 1 0 0 1-1 1H13v9a2 2 0 0 1-2 2H5a2 2 0 0 1-2-2V4h-.5a1 1 0 0 1-1-1V2a1 1 0 0 1 1-1H6a1 1 0 0 1 1-1h2a1 1 0 0 1 1 1h3.5a1 1 0 0 1 1 1v1zM4.118 4 4 4.059V13a1 1 0 0 0 1 1h6a1 1 0 0 0 1-1V4.059L11.882 4H4.118zM2.5 3V2h11v1h-11z" />
        </symbol>
        <symbol id="clone" viewBox="0 0 24 24">
            <path
                d="M7 6V3a1 1 0 0 1 1-1h12a1 1 0 0 1 1 1v14a1 1 0 0 1-1 1h-3v3c0 .552-.45 1-1.007 1H4.007A1.001 1.001 0 0 1 3 21l.003-14c0-.552.45-1 1.007-1H7zM5.003 8L5 20h10V8H5.003zM9 6h8v10h2V4H9v2z" />
        </symbol>
        <symbol id="columns" viewBox="0 0 24 24">
            <rect fill="none" height="24" width="24" />
            <path
                d="M20,4H4C2.9,4,2,4.9,2,6v12c0,1.1,0.9,2,2,2h16c1.1,0,2-0.9,2-2V6C22,4.9,21.1,4,20,4z M8,18H4V6h4V18z M14,18h-4V6h4V18z M20,18h-4V6h4V18z" />
        </symbol>
        <symbol id="export" viewBox="0 0 24 24">
            <g>
                <rect fill="none" height="24" width="24" />
            </g>
            <g>
                <path
                    d="M18,15v3H6v-3H4v3c0,1.1,0.9,2,2,2h12c1.1,0,2-0.9,2-2v-3H18z M17,11l-1.41-1.41L13,12.17V4h-2v8.17L8.41,9.59L7,11l5,5 L17,11z" />
            </g>
        </symbol>
        <symbol id="more" viewBox="0 0 24 24">
            <path d="M0 0h24v24H0V0z" fill="none" />
            <path
                d="M6 10c-1.1 0-2 .9-2 2s.9 2 2 2 2-.9 2-2-.9-2-2-2zm12 0c-1.1 0-2 .9-2 2s.9 2 2 2 2-.9 2-2-.9-2-2-2zm-6 0c-1.1 0-2 .9-2 2s.9 2 2 2 2-.9 2-2-.9-2-2-2z" />
        </symbol>
        <symbol id="double-arrow" viewBox="0 0 24 24">
            <g>
                <rect fill="none" height="24" width="24" />
            </g>
            <g>
                <g>
                    <polygon points="18,6.41 16.59,5 12,9.58 7.41,5 6,6.41 12,12.41" />
                    <polygon points="18,13 16.59,11.59 12,16.17 7.41,11.59 6,13 12,19" />
                </g>
            </g>
        </symbol>
        <symbol id="menu" viewBox="0 0 24 24">
            <path d="M0 0h24v24H0V0z" fill="none" />
            <path d="M3 18h18v-2H3v2zm0-5h18v-2H3v2zm0-7v2h18V6H3z" />
        </symbol>
        <symbol id="close" viewBox="0 0 24 24">
            <path d="M0 0h24v24H0V0z" fill="none" />
            <path
                d="M19 6.41L17.59 5 12 10.59 6.41 5 5 6.41 10.59 12 5 17.59 6.41 19 12 13.41 17.59 19 19 17.59 13.41 12 19 6.41z" />
        </symbol>
        <symbol id="nav" viewBox="0 0 24 24">
            <path d="M0 0h24v24H0V0z" fill="none" />
            <path
                d="M4 8h4V4H4v4zm6 12h4v-4h-4v4zm-6 0h4v-4H4v4zm0-6h4v-4H4v4zm6 0h4v-4h-4v4zm6-10v4h4V4h-4zm-6 4h4V4h-4v4zm6 6h4v-4h-4v4zm0 6h4v-4h-4v4z" />
        </symbol>
        <symbol id="icon-download" viewBox="0 0 24 24">
            <path fill="none" d="M0 0h24v24H0z" />
            <path
                d="M18 15v3H6v-3H4v3c0 1.1.9 2 2 2h12c1.1 0 2-.9 2-2v-3h-2zm-1-4l-1.41-1.41L13 12.17V4h-2v8.17L8.41 9.59 7 11l5 5 5-5z" />
        </symbol>
        <symbol id="arrow-left" viewBox="0 0 16 16">
            <path fill-rule="evenodd"
                d="M11.354 1.646a.5.5 0 0 1 0 .708L5.707 8l5.647 5.646a.5.5 0 0 1-.708.708l-6-6a.5.5 0 0 1 0-.708l6-6a.5.5 0 0 1 .708 0z" />
        </symbol>
        <symbol id="arrow-right" viewBox="0 0 16 16">
            <path fill-rule="evenodd"
                d="M4.646 1.646a.5.5 0 0 1 .708 0l6 6a.5.5 0 0 1 0 .708l-6 6a.5.5 0 0 1-.708-.708L10.293 8 4.646 2.354a.5.5 0 0 1 0-.708z" />
        </symbol>
        <symbol id="double-arrow-left" viewBox="0 0 16 16">
            <path fill-rule="evenodd"
                d="M8.354 1.646a.5.5 0 0 1 0 .708L2.707 8l5.647 5.646a.5.5 0 0 1-.708.708l-6-6a.5.5 0 0 1 0-.708l6-6a.5.5 0 0 1 .708 0z" />
            <path fill-rule="evenodd"
                d="M12.354 1.646a.5.5 0 0 1 0 .708L6.707 8l5.647 5.646a.5.5 0 0 1-.708.708l-6-6a.5.5 0 0 1 0-.708l6-6a.5.5 0 0 1 .708 0z" />
        </symbol>
        <symbol id="double-arrow-right" viewBox="0 0 16 16">
            <path fill-rule="evenodd"
                d="M3.646 1.646a.5.5 0 0 1 .708 0l6 6a.5.5 0 0 1 0 .708l-6 6a.5.5 0 0 1-.708-.708L9.293 8 3.646 2.354a.5.5 0 0 1 0-.708z" />
            <path fill-rule="evenodd"
                d="M7.646 1.646a.5.5 0 0 1 .708 0l6 6a.5.5 0 0 1 0 .708l-6 6a.5.5 0 0 1-.708-.708L13.293 8 7.646 2.354a.5.5 0 0 1 0-.708z" />
        </symbol>
        <symbol id="download" viewBox="0 0 16 16">
            <path
                d="M.5 9.9a.5.5 0 0 1 .5.5v2.5a1 1 0 0 0 1 1h12a1 1 0 0 0 1-1v-2.5a.5.5 0 0 1 1 0v2.5a2 2 0 0 1-2 2H2a2 2 0 0 1-2-2v-2.5a.5.5 0 0 1 .5-.5z" />
            <path
                d="M7.646 11.854a.5.5 0 0 0 .708 0l3-3a.5.5 0 0 0-.708-.708L8.5 10.293V1.5a.5.5 0 0 0-1 0v8.793L5.354 8.146a.5.5 0 1 0-.708.708l3 3z" />
        </symbol>
        <symbol id="tax-rule" viewBox="0 0 16 16">
            <path
                d="M2 2a2 2 0 0 1 2-2h8a2 2 0 0 1 2 2v12a2 2 0 0 1-2 2H4a2 2 0 0 1-2-2V2zm2-1a1 1 0 0 0-1 1v4h10V2a1 1 0 0 0-1-1H4zm9 6H6v2h7V7zm0 3H6v2h7v-2zm0 3H6v2h6a1 1 0 0 0 1-1v-1zm-8 2v-2H3v1a1 1 0 0 0 1 1h1zm-2-3h2v-2H3v2zm0-3h2V7H3v2z" />
        </symbol>
        <symbol id="arrow-up-right" viewBox="0 0 16 16">
            <path fill-rule="evenodd"
                d="M8.636 3.5a.5.5 0 0 0-.5-.5H1.5A1.5 1.5 0 0 0 0 4.5v10A1.5 1.5 0 0 0 1.5 16h10a1.5 1.5 0 0 0 1.5-1.5V7.864a.5.5 0 0 0-1 0V14.5a.5.5 0 0 1-.5.5h-10a.5.5 0 0 1-.5-.5v-10a.5.5 0 0 1 .5-.5h6.636a.5.5 0 0 0 .5-.5z" />
            <path fill-rule="evenodd"
                d="M16 .5a.5.5 0 0 0-.5-.5h-5a.5.5 0 0 0 0 1h3.793L6.146 9.146a.5.5 0 1 0 .708.708L15 1.707V5.5a.5.5 0 0 0 1 0v-5z" />
        </symbol>
        <symbol id="cart" viewBox="0 0 16 16">
            <path
                d="M8 1a2.5 2.5 0 0 1 2.5 2.5V4h-5v-.5A2.5 2.5 0 0 1 8 1zm3.5 3v-.5a3.5 3.5 0 1 0-7 0V4H1v10a2 2 0 0 0 2 2h10a2 2 0 0 0 2-2V4h-3.5zM2 5h12v9a1 1 0 0 1-1 1H3a1 1 0 0 1-1-1V5z" />
        </symbol>
        <symbol id="tick" viewBox="0 0 16 16">
            <path d="M8 15A7 7 0 1 1 8 1a7 7 0 0 1 0 14zm0 1A8 8 0 1 0 8 0a8 8 0 0 0 0 16z" />
            <path
                d="M10.97 4.97a.235.235 0 0 0-.02.022L7.477 9.417 5.384 7.323a.75.75 0 0 0-1.06 1.06L6.97 11.03a.75.75 0 0 0 1.079-.02l3.992-4.99a.75.75 0 0 0-1.071-1.05z" />
        </symbol>
        <symbol id="filter" viewBox="0 0 16 16">
            <path
                d="M6 10.5a.5.5 0 0 1 .5-.5h3a.5.5 0 0 1 0 1h-3a.5.5 0 0 1-.5-.5zm-2-3a.5.5 0 0 1 .5-.5h7a.5.5 0 0 1 0 1h-7a.5.5 0 0 1-.5-.5zm-2-3a.5.5 0 0 1 .5-.5h11a.5.5 0 0 1 0 1h-11a.5.5 0 0 1-.5-.5z" />
        </symbol>
        <symbol id="images" viewBox="0 0 16 16">
            <path d="M4.502 9a1.5 1.5 0 1 0 0-3 1.5 1.5 0 0 0 0 3z" />
            <path
                d="M14.002 13a2 2 0 0 1-2 2h-10a2 2 0 0 1-2-2V5A2 2 0 0 1 2 3a2 2 0 0 1 2-2h10a2 2 0 0 1 2 2v8a2 2 0 0 1-1.998 2zM14 2H4a1 1 0 0 0-1 1h9.002a2 2 0 0 1 2 2v7A1 1 0 0 0 15 11V3a1 1 0 0 0-1-1zM2.002 4a1 1 0 0 0-1 1v8l2.646-2.354a.5.5 0 0 1 .63-.062l2.66 1.773 3.71-3.71a.5.5 0 0 1 .577-.094l1.777 1.947V5a1 1 0 0 0-1-1h-10z" />
        </symbol>
        <symbol id="shipping" viewBox="0 0 16 16">
            <path
                d="M0 3.5A1.5 1.5 0 0 1 1.5 2h9A1.5 1.5 0 0 1 12 3.5V5h1.02a1.5 1.5 0 0 1 1.17.563l1.481 1.85a1.5 1.5 0 0 1 .329.938V10.5a1.5 1.5 0 0 1-1.5 1.5H14a2 2 0 1 1-4 0H5a2 2 0 1 1-3.998-.085A1.5 1.5 0 0 1 0 10.5v-7zm1.294 7.456A1.999 1.999 0 0 1 4.732 11h5.536a2.01 2.01 0 0 1 .732-.732V3.5a.5.5 0 0 0-.5-.5h-9a.5.5 0 0 0-.5.5v7a.5.5 0 0 0 .294.456zM12 10a2 2 0 0 1 1.732 1h.768a.5.5 0 0 0 .5-.5V8.35a.5.5 0 0 0-.11-.312l-1.48-1.85A.5.5 0 0 0 13.02 6H12v4zm-9 1a1 1 0 1 0 0 2 1 1 0 0 0 0-2zm9 0a1 1 0 1 0 0 2 1 1 0 0 0 0-2z" />
        </symbol>
        <symbol id="inventories" viewBox="0 0 16 16">
            <path
                d="M14 14V4.5L9.5 0H4a2 2 0 0 0-2 2v12a2 2 0 0 0 2 2h8a2 2 0 0 0 2-2zM9.5 3A1.5 1.5 0 0 0 11 4.5h2V9H3V2a1 1 0 0 1 1-1h5.5v2zM3 12v-2h2v2H3zm0 1h2v2H4a1 1 0 0 1-1-1v-1zm3 2v-2h7v1a1 1 0 0 1-1 1H6zm7-3H6v-2h7v2z" />
        </symbol>
        <symbol id="invoice" viewBox="0 0 16 16">
            <path
                d="M1.92.506a.5.5 0 0 1 .434.14L3 1.293l.646-.647a.5.5 0 0 1 .708 0L5 1.293l.646-.647a.5.5 0 0 1 .708 0L7 1.293l.646-.647a.5.5 0 0 1 .708 0L9 1.293l.646-.647a.5.5 0 0 1 .708 0l.646.647.646-.647a.5.5 0 0 1 .708 0l.646.647.646-.647a.5.5 0 0 1 .801.13l.5 1A.5.5 0 0 1 15 2v12a.5.5 0 0 1-.053.224l-.5 1a.5.5 0 0 1-.8.13L13 14.707l-.646.647a.5.5 0 0 1-.708 0L11 14.707l-.646.647a.5.5 0 0 1-.708 0L9 14.707l-.646.647a.5.5 0 0 1-.708 0L7 14.707l-.646.647a.5.5 0 0 1-.708 0L5 14.707l-.646.647a.5.5 0 0 1-.708 0L3 14.707l-.646.647a.5.5 0 0 1-.801-.13l-.5-1A.5.5 0 0 1 1 14V2a.5.5 0 0 1 .053-.224l.5-1a.5.5 0 0 1 .367-.27zm.217 1.338L2 2.118v11.764l.137.274.51-.51a.5.5 0 0 1 .707 0l.646.647.646-.646a.5.5 0 0 1 .708 0l.646.646.646-.646a.5.5 0 0 1 .708 0l.646.646.646-.646a.5.5 0 0 1 .708 0l.646.646.646-.646a.5.5 0 0 1 .708 0l.646.646.646-.646a.5.5 0 0 1 .708 0l.509.509.137-.274V2.118l-.137-.274-.51.51a.5.5 0 0 1-.707 0L12 1.707l-.646.647a.5.5 0 0 1-.708 0L10 1.707l-.646.647a.5.5 0 0 1-.708 0L8 1.707l-.646.647a.5.5 0 0 1-.708 0L6 1.707l-.646.647a.5.5 0 0 1-.708 0L4 1.707l-.646.647a.5.5 0 0 1-.708 0l-.509-.51z" />
            <path
                d="M3 4.5a.5.5 0 0 1 .5-.5h6a.5.5 0 1 1 0 1h-6a.5.5 0 0 1-.5-.5zm0 2a.5.5 0 0 1 .5-.5h6a.5.5 0 1 1 0 1h-6a.5.5 0 0 1-.5-.5zm0 2a.5.5 0 0 1 .5-.5h6a.5.5 0 1 1 0 1h-6a.5.5 0 0 1-.5-.5zm0 2a.5.5 0 0 1 .5-.5h6a.5.5 0 0 1 0 1h-6a.5.5 0 0 1-.5-.5zm8-6a.5.5 0 0 1 .5-.5h1a.5.5 0 0 1 0 1h-1a.5.5 0 0 1-.5-.5zm0 2a.5.5 0 0 1 .5-.5h1a.5.5 0 0 1 0 1h-1a.5.5 0 0 1-.5-.5zm0 2a.5.5 0 0 1 .5-.5h1a.5.5 0 0 1 0 1h-1a.5.5 0 0 1-.5-.5zm0 2a.5.5 0 0 1 .5-.5h1a.5.5 0 0 1 0 1h-1a.5.5 0 0 1-.5-.5z" />
        </symbol>
        <symbol id="favourite" viewBox="0 0 16 16">
            <path
                d="m8 2.748-.717-.737C5.6.281 2.514.878 1.4 3.053c-.523 1.023-.641 2.5.314 4.385.92 1.815 2.834 3.989 6.286 6.357 3.452-2.368 5.365-4.542 6.286-6.357.955-1.886.838-3.362.314-4.385C13.486.878 10.4.28 8.717 2.01L8 2.748zM8 15C-7.333 4.868 3.279-3.04 7.824 1.143c.06.055.119.112.176.171a3.12 3.12 0 0 1 .176-.17C12.72-3.042 23.333 4.867 8 15z" />
        </symbol>
        <symbol id="addresses" viewBox="0 0 16 16">
            <path fill-rule="evenodd"
                d="M2 13.5V7h1v6.5a.5.5 0 0 0 .5.5h9a.5.5 0 0 0 .5-.5V7h1v6.5a1.5 1.5 0 0 1-1.5 1.5h-9A1.5 1.5 0 0 1 2 13.5zm11-11V6l-2-2V2.5a.5.5 0 0 1 .5-.5h1a.5.5 0 0 1 .5.5z" />
            <path fill-rule="evenodd"
                d="M7.293 1.5a1 1 0 0 1 1.414 0l6.647 6.646a.5.5 0 0 1-.708.708L8 2.207 1.354 8.854a.5.5 0 1 1-.708-.708L7.293 1.5z" />
        </symbol>
        <symbol id="rating" viewBox="0 0 16 16">
            <path
                d="M2.866 14.85c-.078.444.36.791.746.593l4.39-2.256 4.389 2.256c.386.198.824-.149.746-.592l-.83-4.73 3.522-3.356c.33-.314.16-.888-.282-.95l-4.898-.696L8.465.792a.513.513 0 0 0-.927 0L5.354 5.12l-4.898.696c-.441.062-.612.636-.283.95l3.523 3.356-.83 4.73zm4.905-2.767-3.686 1.894.694-3.957a.565.565 0 0 0-.163-.505L1.71 6.745l4.052-.576a.525.525 0 0 0 .393-.288L8 2.223l1.847 3.658a.525.525 0 0 0 .393.288l4.052.575-2.906 2.77a.565.565 0 0 0-.163.506l.694 3.957-3.686-1.894a.503.503 0 0 0-.461 0z" />
        </symbol>
        <symbol id="order-return" viewBox="0 0 16 16">
            <path fill-rule="evenodd"
                d="M14.5 1.5a.5.5 0 0 1 .5.5v4.8a2.5 2.5 0 0 1-2.5 2.5H2.707l3.347 3.346a.5.5 0 0 1-.708.708l-4.2-4.2a.5.5 0 0 1 0-.708l4-4a.5.5 0 1 1 .708.708L2.707 8.3H12.5A1.5 1.5 0 0 0 14 6.8V2a.5.5 0 0 1 .5-.5z" />
        </symbol>
        <symbol id="feedback" viewBox="0 0 16 16">
            <path
                d="M14 1a1 1 0 0 1 1 1v8a1 1 0 0 1-1 1h-2.5a2 2 0 0 0-1.6.8L8 14.333 6.1 11.8a2 2 0 0 0-1.6-.8H2a1 1 0 0 1-1-1V2a1 1 0 0 1 1-1h12zM2 0a2 2 0 0 0-2 2v8a2 2 0 0 0 2 2h2.5a1 1 0 0 1 .8.4l1.9 2.533a1 1 0 0 0 1.6 0l1.9-2.533a1 1 0 0 1 .8-.4H14a2 2 0 0 0 2-2V2a2 2 0 0 0-2-2H2z" />
            <path
                d="M7.066 4.76A1.665 1.665 0 0 0 4 5.668a1.667 1.667 0 0 0 2.561 1.406c-.131.389-.375.804-.777 1.22a.417.417 0 1 0 .6.58c1.486-1.54 1.293-3.214.682-4.112zm4 0A1.665 1.665 0 0 0 8 5.668a1.667 1.667 0 0 0 2.561 1.406c-.131.389-.375.804-.777 1.22a.417.417 0 1 0 .6.58c1.486-1.54 1.293-3.214.682-4.112z" />
        </symbol>
        <symbol id="more" viewBox="0 0 16 16">
            <path
                d="M3 9.5a1.5 1.5 0 1 1 0-3 1.5 1.5 0 0 1 0 3zm5 0a1.5 1.5 0 1 1 0-3 1.5 1.5 0 0 1 0 3zm5 0a1.5 1.5 0 1 1 0-3 1.5 1.5 0 0 1 0 3z" />
        </symbol>
        <symbol id="publish-rss" viewBox="0 0 24 24">
            <path d="M0 0h24v24H0z" fill="none" />
            <circle cx="6.18" cy="17.82" r="2.18" />
            <path
                d="M4 4.44v2.83c7.03 0 12.73 5.7 12.73 12.73h2.83c0-8.59-6.97-15.56-15.56-15.56zm0 5.66v2.83c3.9 0 7.07 3.17 7.07 7.07h2.83c0-5.47-4.43-9.9-9.9-9.9z" />
        </symbol>
        <symbol viewBox="0 0 24 24" id="password">
            <path d="M0,0h24v24H0V0z" fill="none" />
            <path
                d="M2,17h20v2H2V17z M3.15,12.95L4,11.47l0.85,1.48l1.3-0.75L5.3,10.72H7v-1.5H5.3l0.85-1.47L4.85,7L4,8.47L3.15,7l-1.3,0.75 L2.7,9.22H1v1.5h1.7L1.85,12.2L3.15,12.95z M9.85,12.2l1.3,0.75L12,11.47l0.85,1.48l1.3-0.75l-0.85-1.48H15v-1.5h-1.7l0.85-1.47 L12.85,7L12,8.47L11.15,7l-1.3,0.75l0.85,1.47H9v1.5h1.7L9.85,12.2z M23,9.22h-1.7l0.85-1.47L20.85,7L20,8.47L19.15,7l-1.3,0.75 l0.85,1.47H17v1.5h1.7l-0.85,1.48l1.3,0.75L20,11.47l0.85,1.48l1.3-0.75l-0.85-1.48H23V9.22z" />
        </symbol>
        <symbol viewBox="0 0 24 24" id="user-permission">
            <path
                d="M18,11c0.7,0,1.37,0.1,2,0.29V10c0-1.1-0.9-2-2-2h-1V6c0-2.76-2.24-5-5-5S7,3.24,7,6v2H6c-1.1,0-2,0.9-2,2v10 c0,1.1,0.9,2,2,2h6.26C11.47,20.87,11,19.49,11,18C11,14.13,14.13,11,18,11z M8.9,6c0-1.71,1.39-3.1,3.1-3.1s3.1,1.39,3.1,3.1v2 H8.9V6z" />
            <path
                d="M18,13c-2.76,0-5,2.24-5,5s2.24,5,5,5s5-2.24,5-5S20.76,13,18,13z M18,15c0.83,0,1.5,0.67,1.5,1.5S18.83,18,18,18 s-1.5-0.67-1.5-1.5S17.17,15,18,15z M18,21c-1.03,0-1.94-0.52-2.48-1.32C16.25,19.26,17.09,19,18,19s1.75,0.26,2.48,0.68 C19.94,20.48,19.03,21,18,21z" />
        </symbol>
        <symbol viewBox="0 0 24 24" id="comment">
            <path
                d="M20 2H4c-1.1 0-1.99.9-1.99 2L2 22l4-4h14c1.1 0 2-.9 2-2V4c0-1.1-.9-2-2-2zM6 9h12v2H6V9zm8 5H6v-2h8v2zm4-6H6V6h12v2z" />
        </symbol>
        <symbol id="test" viewBox="0 0 16 16">
            <path
                d="M4 10.781c.148 1.667 1.513 2.85 3.591 3.003V15h1.043v-1.216c2.27-.179 3.678-1.438 3.678-3.3 0-1.59-.947-2.51-2.956-3.028l-.722-.187V3.467c1.122.11 1.879.714 2.07 1.616h1.47c-.166-1.6-1.54-2.748-3.54-2.875V1H7.591v1.233c-1.939.23-3.27 1.472-3.27 3.156 0 1.454.966 2.483 2.661 2.917l.61.162v4.031c-1.149-.17-1.94-.8-2.131-1.718H4zm3.391-3.836c-1.043-.263-1.6-.825-1.6-1.616 0-.944.704-1.641 1.8-1.828v3.495l-.2-.05zm1.591 1.872c1.287.323 1.852.859 1.852 1.769 0 1.097-.826 1.828-2.2 1.939V8.73l.348.086z" />
        </symbol>
        <symbol id="refund" viewBox="0 0 329.991 329.991">
            <path id="XMLID_462_"
                d="M179.996,151.501V62.571c17.458,6.192,30,22.865,30,42.42c0,8.284,6.716,15,15,15c8.284,0,15-6.716,15-15
	c0-36.219-25.808-66.523-60-73.491V15c0-8.284-6.716-15-15-15c-8.284,0-15,6.716-15,15v16.5c-34.192,6.968-60,37.272-60,73.491
	s25.808,66.522,60,73.491v88.929c-17.459-6.192-30-22.865-30-42.42c0-8.284-6.716-15-15-15s-15,6.716-15,15
	c0,36.219,25.808,66.523,60,73.491v16.509c0,8.284,6.716,15,15,15c8.284,0,15-6.716,15-15v-16.509c34.192-6.968,60-37.272,60-73.491
	S214.187,158.469,179.996,151.501z M119.996,104.991c0-19.555,12.541-36.228,30-42.42v84.84
	C132.537,141.219,119.996,124.546,119.996,104.991z M179.996,267.411v-84.84c17.458,6.192,30,22.865,30,42.42
	S197.454,261.219,179.996,267.411z" />
        </symbol>
        <symbol id="requests" viewBox="0 0 16 16">
            <path
                d="M14.5 3a.5.5 0 0 1 .5.5v9a.5.5 0 0 1-.5.5h-13a.5.5 0 0 1-.5-.5v-9a.5.5 0 0 1 .5-.5h13zm-13-1A1.5 1.5 0 0 0 0 3.5v9A1.5 1.5 0 0 0 1.5 14h13a1.5 1.5 0 0 0 1.5-1.5v-9A1.5 1.5 0 0 0 14.5 2h-13z" />
            <path
                d="M7 5.5a.5.5 0 0 1 .5-.5h5a.5.5 0 0 1 0 1h-5a.5.5 0 0 1-.5-.5zm-1.496-.854a.5.5 0 0 1 0 .708l-1.5 1.5a.5.5 0 0 1-.708 0l-.5-.5a.5.5 0 1 1 .708-.708l.146.147 1.146-1.147a.5.5 0 0 1 .708 0zM7 9.5a.5.5 0 0 1 .5-.5h5a.5.5 0 0 1 0 1h-5a.5.5 0 0 1-.5-.5zm-1.496-.854a.5.5 0 0 1 0 .708l-1.5 1.5a.5.5 0 0 1-.708 0l-.5-.5a.5.5 0 0 1 .708-.708l.146.147 1.146-1.147a.5.5 0 0 1 .708 0z" />
        </symbol>
        <symbol viewBox="0 0 24 24" id="linking">
            <path
                d="M3.9 12c0-1.71 1.39-3.1 3.1-3.1h4V7H7c-2.76 0-5 2.24-5 5s2.24 5 5 5h4v-1.9H7c-1.71 0-3.1-1.39-3.1-3.1zM8 13h8v-2H8v2zm9-6h-4v1.9h4c1.71 0 3.1 1.39 3.1 3.1s-1.39 3.1-3.1 3.1h-4V17h4c2.76 0 5-2.24 5-5s-2.24-5-5-5z" />
        </symbol>
        <symbol viewBox="0 0 24 24" id="history">
            <path d="M0 0h24v24H0z" fill="none" />
            <path
                d="M13 3c-4.97 0-9 4.03-9 9H1l3.89 3.89.07.14L9 12H6c0-3.87 3.13-7 7-7s7 3.13 7 7-3.13 7-7 7c-1.93 0-3.68-.79-4.94-2.06l-1.42 1.42C8.27 19.99 10.51 21 13 21c4.97 0 9-4.03 9-9s-4.03-9-9-9zm-1 5v5l4.28 2.54.72-1.21-3.5-2.08V8H12z" />
        </symbol>
        <symbol id="three-dots" viewBox="0 0 16 16">
            <path
                d="M3 9.5a1.5 1.5 0 1 1 0-3 1.5 1.5 0 0 1 0 3zm5 0a1.5 1.5 0 1 1 0-3 1.5 1.5 0 0 1 0 3zm5 0a1.5 1.5 0 1 1 0-3 1.5 1.5 0 0 1 0 3z" />
        </symbol>
        <symbol id="warning" viewBox="0 0 24 24" stroke-width="2" stroke="currentColor" fill="none"
            stroke-linecap="round" stroke-linejoin="round">
            <path stroke="none" d="M0 0h24v24H0z" fill="none" />
            <path d="M12 9v2m0 4v.01" />
            <path
                d="M5 19h14a2 2 0 0 0 1.84 -2.75l-7.1 -12.25a2 2 0 0 0 -3.5 0l-7.1 12.25a2 2 0 0 0 1.75 2.75" />
        </symbol>
        <symbol id="counterclockwise" viewBox="0 0 16 16.02">
            <path fill-rule="evenodd"
                d="M8 3a5 5 0 1 1-4.546 2.914.5.5 0 0 0-.908-.417A6 6 0 1 0 8 2v1z" />
            <path
                d="M8 4.466V.534a.25.25 0 0 0-.41-.192L5.23 2.308a.25.25 0 0 0 0 .384l2.36 1.966A.25.25 0 0 0 8 4.466z" />
        </symbol>
        <symbol viewBox="0 0 24 24" id="more-dots">
            <path d="M0 0h24v24H0V0z" fill="none" />
            <path
                d="M6 10c-1.1 0-2 .9-2 2s.9 2 2 2 2-.9 2-2-.9-2-2-2zm12 0c-1.1 0-2 .9-2 2s.9 2 2 2 2-.9 2-2-.9-2-2-2zm-6 0c-1.1 0-2 .9-2 2s.9 2 2 2 2-.9 2-2-.9-2-2-2z" />
        </symbol>
        <symbol viewBox="0 0 24 24" id="list">
            <path
                d="M3 13h2v-2H3v2zm0 4h2v-2H3v2zm0-8h2V7H3v2zm4 4h14v-2H7v2zm0 4h14v-2H7v2zM7 7v2h14V7H7z" />
        </symbol>
    </defs>
</svg>