<svg xmlns="http://www.w3.org/2000/svg" width="0" height="0">
    <defs>     
        <symbol id="test" viewBox="0 0 129 129">
            <path d="M51.6,96.7c11,0,21-3.9,28.8-10.5l35,35c0.8,0.8,1.8,1.2,2.9,1.2s2.1-0.4,2.9-1.2c1.6-1.6,1.6-4.2,0-5.8l-35-35   c6.5-7.8,10.5-17.9,10.5-28.8c0-24.9-20.2-45.1-45.1-45.1C26.8,6.5,6.5,26.8,6.5,51.6C6.5,76.5,26.8,96.7,51.6,96.7z M51.6,14.7   c20.4,0,36.9,16.6,36.9,36.9C88.5,72,72,88.5,51.6,88.5c-20.4,0-36.9-16.6-36.9-36.9C14.7,31.3,31.3,14.7,51.6,14.7z" />
        </symbol>
         <symbol id="dashboard" viewBox="0 0 512 512">
            <g>
                <path d="M435.143,129.356c-6.796-6.795-17.463-7.797-25.407-2.384c-29.926,20.398-180.03,122.969-196.162,139.1
				c-23.394,23.395-23.394,61.459,0,84.854c11.697,11.696,27.063,17.545,42.427,17.545c15.364,0,30.729-5.849,42.427-17.545
				c16.131-16.132,118.701-166.236,139.1-196.162C442.939,146.821,441.938,136.153,435.143,129.356z M270.142,322.641
				c-7.797,7.799-20.486,7.799-28.283,0c-7.798-7.797-7.799-20.482-0.004-28.28c6.268-6.194,48.885-36.588,101.319-73.035
				C306.728,273.76,276.334,316.375,270.142,322.641z" />
                <path d="M92.231,401.523l-24.69,12.044C49.475,381.325,40,345.338,40,308.499c0-26.991,4.977-52.842,14.06-76.683l28.291,13.57
				c2.79,1.338,5.735,1.972,8.636,1.972c7.453,0,14.608-4.185,18.047-11.355c4.776-9.959,0.576-21.906-9.384-26.683l-27.932-13.398
				c34.717-56.62,94.784-96.095,164.283-102.505v30.081c0,11.046,8.954,20,20,20c11.046,0,20-8.954,20-20V93.402
				c23.828,2.169,46.884,8.237,68.771,18.117c10.065,4.545,21.912,0.066,26.457-9.999c4.545-10.068,0.068-21.913-10-26.458
				C328.063,60.091,292.659,52.499,256,52.499c-68.38,0-132.667,26.628-181.02,74.98C26.629,175.832,0,240.119,0,308.499
				c0,50.53,14.998,99.674,43.373,142.115c3.822,5.715,10.141,8.886,16.639,8.886c2.954,0,5.946-0.655,8.757-2.026l41-20
				c9.928-4.843,14.05-16.816,9.207-26.744C114.133,400.803,102.159,396.682,92.231,401.523z" />
                <path d="M489.436,203.271c-4.544-10.067-16.387-14.547-26.458-10c-10.067,4.545-14.544,16.39-9.999,26.457
				C465.601,247.686,472,277.553,472,308.499c0,36.894-9.506,72.939-27.625,105.218l-25.777-12.275
				c-9.971-4.748-21.906-0.515-26.656,9.459c-4.749,9.972-0.514,21.907,9.459,26.656l42,20c2.763,1.315,5.692,1.944,8.588,1.944
				c6.5,0,12.82-3.175,16.637-8.886C497.002,408.173,512,359.029,512,308.499C512,271.84,504.408,236.436,489.436,203.271z" />
            </g>
        </symbol>
        <symbol id="back-home" viewBox="0 0 460.298 460.297">
            <g>
                <path d="M230.149,120.939L65.986,256.274c0,0.191-0.048,0.472-0.144,0.855c-0.094,0.38-0.144,0.656-0.144,0.852v137.041
			c0,4.948,1.809,9.236,5.426,12.847c3.616,3.613,7.898,5.431,12.847,5.431h109.63V303.664h73.097v109.64h109.629
			c4.948,0,9.236-1.814,12.847-5.435c3.617-3.607,5.432-7.898,5.432-12.847V257.981c0-0.76-0.104-1.334-0.288-1.707L230.149,120.939
			z" />
                <path d="M457.122,225.438L394.6,173.476V56.989c0-2.663-0.856-4.853-2.574-6.567c-1.704-1.712-3.894-2.568-6.563-2.568h-54.816
			c-2.666,0-4.855,0.856-6.57,2.568c-1.711,1.714-2.566,3.905-2.566,6.567v55.673l-69.662-58.245
			c-6.084-4.949-13.318-7.423-21.694-7.423c-8.375,0-15.608,2.474-21.698,7.423L3.172,225.438c-1.903,1.52-2.946,3.566-3.14,6.136
			c-0.193,2.568,0.472,4.811,1.997,6.713l17.701,21.128c1.525,1.712,3.521,2.759,5.996,3.142c2.285,0.192,4.57-0.476,6.855-1.998
			L230.149,95.817l197.57,164.741c1.526,1.328,3.521,1.991,5.996,1.991h0.858c2.471-0.376,4.463-1.43,5.996-3.138l17.703-21.125
			c1.522-1.906,2.189-4.145,1.991-6.716C460.068,229.007,459.021,226.961,457.122,225.438z" />
            </g>
        </symbol>
        <symbol id="admin" viewBox="0 -16 384 384">
            <path d="m80 0h-80v352h384v-352zm-48 32h48v40h-48zm320 288h-320v-216h320zm0-248h-240v-40h240zm0 0" />
            <path d="m64 192h32v96h-32zm0 0" />
            <path d="m120 160h32v128h-32zm0 0" />
            <path d="m232 224h32v64h-32zm0 0" />
            <path d="m288 136h32v152h-32zm0 0" />
        </symbol>
        <symbol id="desktop" viewBox="0 0 230.359 230.359">
            <path d="M210.322,5.604H20.023C8.982,5.604,0,14.587,0,25.628v142.519c0,11.048,8.982,20.037,20.023,20.037h62.14v21.572H58.241
c-4.142,0-7.5,3.358-7.5,7.5c0,4.142,3.358,7.5,7.5,7.5h31.422h51.01h31.432c4.143,0,7.5-3.358,7.5-7.5c0-4.142-3.357-7.5-7.5-7.5
h-23.932v-21.572h62.149c11.049,0,20.037-8.988,20.037-20.037V25.628C230.359,14.587,221.371,5.604,210.322,5.604z M15,51.128
h200.359v91.521H15V51.128z M20.023,20.604h190.299c2.777,0,5.037,2.254,5.037,5.024v10.501H15V25.628
C15,22.858,17.253,20.604,20.023,20.604z M133.173,209.755h-36.01v-21.572h36.01V209.755z M210.322,173.183h-69.649h-51.01h-69.64
c-2.77,0-5.023-2.259-5.023-5.037V157.65h200.359v10.497C215.359,170.924,213.099,173.183,210.322,173.183z" />
        </symbol>
        <symbol id="manage-shop"  viewBox="0 0 512 512">
            <g>
                <g>
                    <path d="M488.468,448.903h-8.532V226.4C499.202,214.003,512,192.386,512,167.822c0-1.305-0.341-2.588-0.988-3.721L451.499,59.953
			c-4.18-7.313-12.009-11.857-20.432-11.857H80.933c-8.423,0-16.252,4.543-20.432,11.857L0.988,164.101
			C0.341,165.234,0,166.518,0,167.822c0,24.564,12.798,46.181,32.064,58.578v222.503h-8.532c-4.142,0-7.5,3.358-7.5,7.5
			c0,4.142,3.358,7.5,7.5,7.5h464.936c4.143,0,7.5-3.358,7.5-7.5C495.968,452.261,492.61,448.903,488.468,448.903z M15.517,175.322
			h24.044c4.142,0,7.5-3.358,7.5-7.5c0-4.142-3.358-7.5-7.5-7.5H20.424l53.101-92.927c1.516-2.652,4.354-4.299,7.408-4.299h350.134
			c3.054,0,5.893,1.647,7.408,4.299l53.1,92.927h-19.141c-4.143,0-7.5,3.358-7.5,7.5c0,4.142,3.357,7.5,7.5,7.5h24.048
			c-3.667,26.584-26.532,47.125-54.108,47.125c-27.575,0-50.429-20.543-54.097-47.125h52.096c4.143,0,7.5-3.358,7.5-7.5
			c0-4.142-3.357-7.5-7.5-7.5H71.631c-4.142,0-7.5,3.358-7.5,7.5c0,4.142,3.358,7.5,7.5,7.5h52.091
			c-3.668,26.582-26.523,47.125-54.097,47.125C42.049,222.447,19.184,201.906,15.517,175.322z M372.222,175.322
			c-3.668,26.582-26.523,47.125-54.097,47.125c-27.575,0-50.429-20.543-54.097-47.125H372.222z M247.972,175.322
			c-3.668,26.582-26.523,47.125-54.097,47.125c-27.574,0-50.429-20.543-54.097-47.125H247.972z M424.854,448.904h-81.193v-25.081
			h81.193V448.904z M424.854,408.823h-81.193V271.516h81.193V408.823z M464.936,448.904h-25.081V264.016c0-4.142-3.357-7.5-7.5-7.5
			h-96.193c-4.143,0-7.5,3.358-7.5,7.5v184.887H47.064V233.674c7.081,2.433,14.665,3.773,22.561,3.773
			c27.095,0,50.624-15.556,62.125-38.207c11.501,22.65,35.03,38.207,62.125,38.207c27.095,0,50.624-15.556,62.125-38.207
			c11.501,22.65,35.03,38.207,62.125,38.207c27.095,0,50.624-15.556,62.125-38.207c11.501,22.65,35.03,38.207,62.125,38.207
			c7.896,0,15.48-1.34,22.561-3.772V448.904z"/>
                </g>
            </g>
            <g>
                <g>
                    <path d="M296.081,256.516H79.645c-4.142,0-7.5,3.358-7.5,7.5v152.307c0,4.142,3.358,7.5,7.5,7.5h216.436
			c4.143,0,7.5-3.358,7.5-7.5V264.016C303.581,259.873,300.224,256.516,296.081,256.516z M288.581,408.823H87.145V271.516h201.436
			V408.823z"/>
                </g>
            </g>
        </symbol> <symbol id="notification" viewBox="0 0 14 14">
            <g>
                <path d="M7,9L5.268,7.484l-4.952,4.245C0.496,11.896,0.739,12,1.007,12h11.986
			c0.267,0,0.509-0.104,0.688-0.271L8.732,7.484L7,9z" />
                <path d="M13.684,2.271C13.504,2.103,13.262,2,12.993,2H1.007C0.74,2,0.498,2.104,0.318,2.273L7,8
			L13.684,2.271z" />
                <polygon points="0,2.878 0,11.186 4.833,7.079 		" />
                <polygon points="9.167,7.079 14,11.186 14,2.875 		" />
            </g>
        </symbol>
    </defs>
</svg>