<svg xmlns="http://www.w3.org/2000/svg" width="0" height="0">
    <defs>
        <symbol id="back-home" viewBox="0 0 24 24" >
            <path d="M12,1.078l10.2,9.844H20.26V23H15.013V15.753H8.987V23H3.74V10.922H1.8L12,1.078M12,0a.8.8,0,0,0-.559.227L.762,10.538a.8.8,0,0,0,.559,1.384H2.74V23.195A.805.805,0,0,0,3.546,24H9.182a.8.8,0,0,0,.805-.805V16.753h4.026v6.442a.8.8,0,0,0,.805.805h5.636a.805.805,0,0,0,.806-.805V11.922h1.419a.8.8,0,0,0,.559-1.384L12.559.227A.8.8,0,0,0,12,0Z"/>
        </symbol>
        <symbol id="manage-shop" viewBox="0 0 24 24">
            <path d="M17.5,13.942h-2A1.535,1.535,0,0,0,14,15.436v1.991a1.535,1.535,0,0,0,1.5,1.494h2A1.535,1.535,0,0,0,19,17.427V15.436A1.469,1.469,0,0,0,17.5,13.942Zm.5,3.485a.471.471,0,0,1-.5.5h-2a.471.471,0,0,1-.5-.5V15.436a.471.471,0,0,1,.5-.5h2a.471.471,0,0,1,.5.5Z"/>
            <path d="M23.5,6.971,20.6,1.1A1.89,1.89,0,0,0,18.8,0H5.3A1.89,1.89,0,0,0,3.5,1.1L.6,6.971H0v1H0v.9a3.262,3.262,0,0,0,2,2.988V22.307A1.682,1.682,0,0,0,3.7,24H20a2,2,0,0,0,2-1.992V11.851a2.9,2.9,0,0,0,2-2.789V7.071h-.5ZM4.3,1.494A1.149,1.149,0,0,1,5.2.9H18.7a.961.961,0,0,1,.9.6l2.7,5.377H1.6ZM7,7.967h4v.9a2.079,2.079,0,0,1-1.3,1.992A2.064,2.064,0,0,1,7,8.963Zm6,0h4v.9a2,2,0,1,1-4,.1Zm-12,1v-1H5v.9a2.079,2.079,0,0,1-1.3,1.992A2.064,2.064,0,0,1,1,8.963ZM11,22.905H6V15.436a.471.471,0,0,1,.5-.5h4a.471.471,0,0,1,.5.5Zm9,0H12V15.436a1.535,1.535,0,0,0-1.5-1.494h-4A1.535,1.535,0,0,0,5,15.436v7.469H3.7a.682.682,0,0,1-.7-.7V11.95A2.94,2.94,0,0,0,6,8.963v-.1A3.116,3.116,0,0,0,8.4,11.95,3.045,3.045,0,0,0,12,9.062v-.1a3.117,3.117,0,0,0,2.4,3.087A3.045,3.045,0,0,0,18,9.162v-.1a3.115,3.115,0,0,0,2.4,3.087h.5v9.959C21,22.407,20.5,22.905,20,22.905ZM23,8.863a2,2,0,1,1-4,.1v-1h4Z"/>
        </symbol>
        <symbol id="notification"  viewBox="0 0 16 16">
            <path d="M8 16a2 2 0 0 0 2-2H6a2 2 0 0 0 2 2zM8 1.918l-.797.161A4.002 4.002 0 0 0 4 6c0 .628-.134 2.197-.459 3.742-.16.767-.376 1.566-.663 2.258h10.244c-.287-.692-.502-1.49-.663-2.258C12.134 8.197 12 6.628 12 6a4.002 4.002 0 0 0-3.203-3.92L8 1.917zM14.22 12c.223.447.481.801.78 1H1c.299-.199.557-.553.78-1C2.68 10.2 3 6.88 3 6c0-2.42 1.72-4.44 4.005-4.901a1 1 0 1 1 1.99 0A5.002 5.002 0 0 1 13 6c0 .88.32 4.2 1.22 6z"/>
        </symbol>
        <symbol id="bell" viewBox="0 0 24 24">
            <path d="M21.929,20.221l-1.718-2.943A8.941,8.941,0,0,1,19,12.779V10.2a7.189,7.189,0,0,0-5-6.9V2a2,2,0,0,0-4,0V3.3a7.189,7.189,0,0,0-5,6.9v2.579a8.941,8.941,0,0,1-1.211,4.5L2.071,20.221a.528.528,0,0,0-.007.518A.5.5,0,0,0,2.5,21H9a3,3,0,0,0,6,0h6.5a.5.5,0,0,0,.436-.261A.528.528,0,0,0,21.929,20.221ZM11,2a1,1,0,0,1,2,0V3H11Zm1,21a2,2,0,0,1-2-2h4A2,2,0,0,1,12,23Zm2.807-3.029H3.384l1.263-2.165A9.991,9.991,0,0,0,6,12.779V10.2a6.094,6.094,0,0,1,6-6.171A6.094,6.094,0,0,1,18,10.2v2.579a10,10,0,0,0,1.353,5.028l1.263,2.164Z"/>
        </symbol>
        <symbol id="dashboard" viewBox="0 0 24 24">
            <path d="M10,1V15H1V1h9m0-1H1A1,1,0,0,0,0,1V15a1,1,0,0,0,1,1h9a1,1,0,0,0,1-1V1a1,1,0,0,0-1-1Z"/>
            <path d="M23,9V23H14V9h9m0-1H14a1,1,0,0,0-1,1V23a1,1,0,0,0,1,1h9a1,1,0,0,0,1-1V9a1,1,0,0,0-1-1Z"/>
            <path d="M23,1V5H14V1h9m0-1H14a1,1,0,0,0-1,1V5a1,1,0,0,0,1,1h9a1,1,0,0,0,1-1V1a1,1,0,0,0-1-1Z"/>
            <path d="M10,19v4H1V19h9m0-1H1a1,1,0,0,0-1,1v4a1,1,0,0,0,1,1h9a1,1,0,0,0,1-1V19a1,1,0,0,0-1-1Z"/>
        </symbol>
        <symbol id="home" viewBox="0 0 16 16" >
            <path fill-rule="evenodd" d="M2 13.5V7h1v6.5a.5.5 0 0 0 .5.5h9a.5.5 0 0 0 .5-.5V7h1v6.5a1.5 1.5 0 0 1-1.5 1.5h-9A1.5 1.5 0 0 1 2 13.5zm11-11V6l-2-2V2.5a.5.5 0 0 1 .5-.5h1a.5.5 0 0 1 .5.5z"/>
            <path fill-rule="evenodd" d="M7.293 1.5a1 1 0 0 1 1.414 0l6.647 6.646a.5.5 0 0 1-.708.708L8 2.207 1.354 8.854a.5.5 0 1 1-.708-.708L7.293 1.5z"/>
        </symbol>
        <symbol id="menu" viewBox="0 0 16 16" >
            <path fill-rule="evenodd" d="M2.5 12a.5.5 0 0 1 .5-.5h10a.5.5 0 0 1 0 1H3a.5.5 0 0 1-.5-.5zm0-4a.5.5 0 0 1 .5-.5h10a.5.5 0 0 1 0 1H3a.5.5 0 0 1-.5-.5zm0-4a.5.5 0 0 1 .5-.5h10a.5.5 0 0 1 0 1H3a.5.5 0 0 1-.5-.5z"/>
        </symbol>
        <symbol id="account" viewBox="0 0 16 16" >
            <path d="M8 8a3 3 0 1 0 0-6 3 3 0 0 0 0 6zm2-3a2 2 0 1 1-4 0 2 2 0 0 1 4 0zm4 8c0 1-1 1-1 1H3s-1 0-1-1 1-4 6-4 6 3 6 4zm-1-.004c-.001-.246-.154-.986-.832-1.664C11.516 10.68 10.289 10 8 10c-2.29 0-3.516.68-4.168 1.332-.678.678-.83 1.418-.832 1.664h10z"/>
        </symbol>
        <symbol id="test" viewBox="0 0 16 16" >
            <path d="M5.5 2A3.5 3.5 0 0 0 2 5.5v5A3.5 3.5 0 0 0 5.5 14h5a3.5 3.5 0 0 0 3.5-3.5V8a.5.5 0 0 1 1 0v2.5a4.5 4.5 0 0 1-4.5 4.5h-5A4.5 4.5 0 0 1 1 10.5v-5A4.5 4.5 0 0 1 5.5 1H8a.5.5 0 0 1 0 1H5.5z"/>
            <path d="M16 3a3 3 0 1 1-6 0 3 3 0 0 1 6 0z"/>
        </symbol>
        <symbol id="test" viewBox="0 0 16 16" >
            <path d="M5.5 2A3.5 3.5 0 0 0 2 5.5v5A3.5 3.5 0 0 0 5.5 14h5a3.5 3.5 0 0 0 3.5-3.5V8a.5.5 0 0 1 1 0v2.5a4.5 4.5 0 0 1-4.5 4.5h-5A4.5 4.5 0 0 1 1 10.5v-5A4.5 4.5 0 0 1 5.5 1H8a.5.5 0 0 1 0 1H5.5z"/>
            <path d="M16 3a3 3 0 1 1-6 0 3 3 0 0 1 6 0z"/>
        </symbol>
    </defs>
</svg>