<svg xmlns="http://www.w3.org/2000/svg" width="452.181" height="384.324" viewBox="0 0 452.181 384.324"><defs><style>.a,.n{fill:#b8ebf4;}.a{opacity:0.47;}.b{fill:#b2c8cc;opacity:0.6;}.c{fill:#ffbe60;}.d{fill:#ffe2bb;}.e{fill:#f29d2c;}.f{fill:#dfdfdf;}.g{fill:#e33b38;}.h{fill:#f25757;}.i{fill:#fff;}.j{fill:#0d78c1;}.k{fill:#282f39;}.l{fill:#4d555e;}.m{fill:#f1f9fb;}.o,.p,.r{fill:#054651;font-family:BebasNeueBold, Bebas Neue;}.o{font-size:15.293px;}.p{font-size:30.219px;letter-spacing:0.02em;}.q{fill:#329bad;}.r{font-size:24.693px;letter-spacing:0.2em;}</style></defs><g transform="translate(-27.27 -61.366)"><path class="a" d="M101.623,405.269c-27.812-24.047-102-87.277-63.509-135.933,8.784-11.1,26.843-10.721,36.389-21.179,12.005-13.152,5.94-33.779,1.35-50.985-5.591-20.958-7.778-43.724-.1-64.008s27.211-37.152,48.888-36.377c12.759.456,24.489,6.638,36.12,11.9,18.907,8.558,39.377,15.086,60.083,13.679,26.957-1.831,51.426-16.822,78.179-20.6,34.4-4.859,69.9,9.987,94.315,34.705s38.514,58.3,44.276,92.56c5.783,34.39,3.523,70.468-9.184,102.944s-36.237,61.094-67.028,77.466Z"/><path class="b" d="M74.242,410.937c-12.58-.188-41.773,3.065-40.558,8.147,1.146,4.8,21.639,6.924,29.517,7.344,34.67,1.852,63.818,3.431,97.978,4.345,4.171.111,5.845,3.969,2.551,5.882h0c-2.844,1.651-5.446,4.611-2.139,5.71,16.037,5.329,89.7,3.064,127.085,1.33,45.285-2.1,151.449-7.415,159.477-21.594,2.67-4.718-4.74-8.224-10.959-9.56a186.293,186.293,0,0,0-45.583-3.947Z"/><rect class="c" width="264.944" height="252.247" transform="translate(108.708 154.092)"/><rect class="d" width="264.944" height="18.279" transform="translate(109.466 390.193)"/><rect class="e" width="264.944" height="77.913" transform="translate(109.466 156.225)"/><path class="f" d="M93.121,199.18c-.806,13.374,11.106,24.259,24.806,24.259s24.806-10.861,24.806-24.259-11.106-24.259-24.806-24.259S93.934,185.673,93.121,199.18Z"/><ellipse class="g" cx="24.806" cy="24.259" rx="24.806" ry="24.259" transform="translate(142.733 174.921)"/><ellipse class="f" cx="24.806" cy="24.259" rx="24.806" ry="24.259" transform="translate(192.345 174.921)"/><ellipse class="g" cx="24.806" cy="24.259" rx="24.806" ry="24.259" transform="translate(241.957 174.921)"/><ellipse class="f" cx="24.806" cy="24.259" rx="24.806" ry="24.259" transform="translate(291.569 174.921)"/><ellipse class="g" cx="24.806" cy="24.259" rx="24.806" ry="24.259" transform="translate(341.181 174.921)"/><path class="h" d="M390.794,199.18H93.121l7.207-44.326H385.586Z"/><path class="i" d="M93.121,199.18l7.207-44.326h49.186l-6.78,44.326Z"/><path class="i" d="M241.957,199.18V154.854h-45l-4.617,44.326Z"/><path class="i" d="M291.569,199.18V154.854h45l4.617,44.326Z"/><rect class="g" width="286.056" height="14.469" transform="translate(99.78 142.974)"/><rect class="i" width="144.47" height="110.828" transform="translate(229.94 253.102)"/><rect class="i" width="80.181" height="149.429" transform="translate(132.272 253.102)"/><rect class="j" width="67.331" height="143.058" transform="translate(138.439 259.474)"/><rect class="j" width="137.615" height="97.335" transform="translate(236.795 260.414)"/><rect class="k" width="346.036" height="11.881" transform="translate(68.92 402.531)"/><rect class="l" width="346.036" height="3.808" transform="translate(68.92 402.531)"/><path class="m" d="M395.92,250.015c-2.675-1.334-5.434-2.735-7.325-5.05s-2.676-5.819-1.027-8.312c1.367-2.067,3.975-2.916,6.431-3.249a24.929,24.929,0,0,1,17.616,4.351,30.843,30.843,0,0,1,11.351-27.388c3.871-3.04,8.653-5.146,13.574-5.024s9.911,2.762,12.056,7.192c1.36,2.808,1.509,6.043,1.375,9.16a56.7,56.7,0,0,1-3.773,18.017c11.2-3.05,30.06-4.8,32.99,6.425,5.9,22.626-89.691,34.354-95.632,13.9C381.99,254.644,395.92,250.015,395.92,250.015Z"/><path class="i" d="M45.908,291.354a14.622,14.622,0,0,1-5.029-3.467c-1.3-1.59-1.837-3.995-.705-5.707.938-1.419,2.729-2,4.414-2.23a17.112,17.112,0,0,1,12.094,2.988,21.175,21.175,0,0,1,7.793-18.8,14.827,14.827,0,0,1,9.319-3.45,9.465,9.465,0,0,1,8.277,4.938,13.082,13.082,0,0,1,.944,6.289,38.913,38.913,0,0,1-2.591,12.369c7.688-2.094,20.637-3.3,22.649,4.411,4.052,15.533-61.575,23.585-65.654,9.541C36.344,294.532,45.908,291.354,45.908,291.354Z"/><path class="n" d="M345.426,115.381a12.843,12.843,0,0,1-4.416-3.045,4.384,4.384,0,0,1-.619-5.011,5.346,5.346,0,0,1,3.877-1.959,15.03,15.03,0,0,1,10.62,2.624,18.594,18.594,0,0,1,6.844-16.512,13.012,13.012,0,0,1,8.183-3.029,8.308,8.308,0,0,1,7.268,4.336,11.486,11.486,0,0,1,.829,5.522,34.191,34.191,0,0,1-2.275,10.862c6.751-1.839,18.123-2.9,19.889,3.874,3.559,13.64-54.072,20.711-57.654,8.378C337.028,118.171,345.426,115.381,345.426,115.381Z"/><path class="n" d="M403.62,252.446a16.678,16.678,0,0,1-5.738-3.956c-1.481-1.813-2.1-4.557-.8-6.51,1.071-1.619,3.114-2.284,5.037-2.545a19.528,19.528,0,0,1,13.8,3.409,24.158,24.158,0,0,1,8.891-21.452,16.913,16.913,0,0,1,10.632-3.935c3.854.1,7.763,2.163,9.443,5.633a14.932,14.932,0,0,1,1.077,7.175A44.421,44.421,0,0,1,443,244.376c8.77-2.389,23.544-3.763,25.839,5.033,4.623,17.721-70.249,26.907-74.9,10.885C392.709,256.071,403.62,252.446,403.62,252.446Z"/><path class="n" d="M62.258,79.9a8.842,8.842,0,0,1-3.039-2.1,3.018,3.018,0,0,1-.426-3.449,3.676,3.676,0,0,1,2.668-1.348,10.342,10.342,0,0,1,7.309,1.806,12.8,12.8,0,0,1,4.709-11.364,8.958,8.958,0,0,1,5.632-2.084,5.718,5.718,0,0,1,5,2.984,7.9,7.9,0,0,1,.57,3.8,23.53,23.53,0,0,1-1.565,7.475c4.646-1.265,12.472-1.993,13.687,2.666,2.449,9.388-37.212,14.253-39.677,5.766C56.478,81.822,62.258,79.9,62.258,79.9Z"/><path class="i" d="M309.868,280.337a2.752,2.752,0,1,1-2.752-2.752A2.752,2.752,0,0,1,309.868,280.337Z"/><rect class="i" width="85.382" height="46.806" rx="3.065" transform="translate(263.563 290.328)"/><text class="o" transform="translate(306.211 308.063)"><tspan x="-17.304" y="0">we are</tspan></text><text class="p" transform="translate(306.211 332.043)"><tspan x="-24.674" y="0">OPEN</tspan></text><path class="i" d="M325.847,294.558h-39l20.287-14.994Zm-35.287-1.223h31.8L307.1,281.108Z"/><rect class="i" width="115.701" height="35.621" transform="translate(186.474 102.935)"/><path class="q" d="M303.675,140.055h-118.7v-38.62h118.7Zm-115.7-3h112.7v-32.62h-112.7Z"/><text class="r" transform="translate(244.27 129.016)"><tspan x="-51.373" y="0">WELCOME</tspan></text></g></svg>