<?xml version="1.0" encoding="utf-8"?>
<!-- Generator: Adobe Illustrator 26.2.0, SVG Export Plug-In . SVG Version: 6.00 Build 0)  -->
<svg version="1.1" id="Layer_1" xmlns="http://www.w3.org/2000/svg" xmlns:xlink="http://www.w3.org/1999/xlink" x="0px" y="0px"
	 width="452.2px" height="384.3px" viewBox="0 0 452.2 384.3" style="enable-background:new 0 0 452.2 384.3;" xml:space="preserve"
	>
<style type="text/css">
	.st0{opacity:0.47;fill:#B8EBF4;enable-background:new    ;}
	.st1{opacity:0.6;fill:#B2C8CC;enable-background:new    ;}
	.st2{fill:#FFBE60;}
	.st3{fill:#FFE2BB;}
	.st4{fill:#F29D2C;}
	.st5{fill:#DFDFDF;}
	.st6{fill:#E33B38;}
	.st7{fill:#F25757;}
	.st8{fill:#FFFFFF;}
	.st9{fill:#0D78C1;}
	.st10{fill:#282F39;}
	.st11{fill:#4D555E;}
	.st12{fill:#F1F9FB;}
	.st13{fill:#B8EBF4;}
</style>
<g transform="translate(-27.27 -61.366)">
	<path class="st0" d="M101.6,405.3c-27.8-24-102-87.3-63.5-135.9c8.8-11.1,26.8-10.7,36.4-21.2c12-13.2,5.9-33.8,1.3-51
		c-5.6-21-7.8-43.7-0.1-64S103,96,124.6,96.8c12.8,0.5,24.5,6.6,36.1,11.9c18.9,8.6,39.4,15.1,60.1,13.7c27-1.8,51.4-16.8,78.2-20.6
		c34.4-4.9,69.9,10,94.3,34.7s38.5,58.3,44.3,92.6c5.8,34.4,3.5,70.5-9.2,102.9s-36.2,61.1-67,77.5L101.6,405.3z"/>
	<path class="st1" d="M74.2,410.9c-12.6-0.2-41.8,3.1-40.6,8.1c1.1,4.8,21.6,6.9,29.5,7.3c34.7,1.9,63.8,3.4,98,4.3
		c4.2,0.1,5.8,4,2.6,5.9l0,0c-2.8,1.7-5.4,4.6-2.1,5.7c16,5.3,89.7,3.1,127.1,1.3c45.3-2.1,151.4-7.4,159.5-21.6
		c2.7-4.7-4.7-8.2-11-9.6c-15-3.2-30.3-4.5-45.6-3.9L74.2,410.9z"/>
	<rect x="108.7" y="154.1" class="st2" width="264.9" height="252.2"/>
	<rect x="109.5" y="390.2" class="st3" width="264.9" height="18.3"/>
	<rect x="109.5" y="156.2" class="st4" width="264.9" height="77.9"/>
	<path class="st5" d="M93.1,199.2c-0.8,13.4,11.1,24.3,24.8,24.3s24.8-10.9,24.8-24.3s-11.1-24.3-24.8-24.3S93.9,185.7,93.1,199.2z"
		/>
	<ellipse class="st6" cx="167.5" cy="199.2" rx="24.8" ry="24.3"/>
	<ellipse class="st5" cx="217.2" cy="199.2" rx="24.8" ry="24.3"/>
	<ellipse class="st6" cx="266.8" cy="199.2" rx="24.8" ry="24.3"/>
	<ellipse class="st5" cx="316.4" cy="199.2" rx="24.8" ry="24.3"/>
	<ellipse class="st6" cx="366" cy="199.2" rx="24.8" ry="24.3"/>
	<path class="st7" d="M390.8,199.2H93.1l7.2-44.3h285.3L390.8,199.2z"/>
	<path class="st8" d="M93.1,199.2l7.2-44.3h49.2l-6.8,44.3H93.1z"/>
	<path class="st8" d="M242,199.2v-44.3h-45l-4.6,44.3L242,199.2z"/>
	<path class="st8" d="M291.6,199.2v-44.3h45l4.6,44.3L291.6,199.2z"/>
	<rect x="99.8" y="143" class="st6" width="286.1" height="14.5"/>
	<rect x="229.9" y="253.1" class="st8" width="144.5" height="110.8"/>
	<rect x="132.3" y="253.1" class="st8" width="80.2" height="149.4"/>
	<rect x="138.4" y="259.5" class="st9" width="67.3" height="143.1"/>
	<rect x="236.8" y="260.4" class="st9" width="137.6" height="97.3"/>
	<rect x="68.9" y="402.5" class="st10" width="346" height="11.9"/>
	<rect x="68.9" y="402.5" class="st11" width="346" height="3.8"/>
	<path class="st12" d="M395.9,250c-2.7-1.3-5.4-2.7-7.3-5.1s-2.7-5.8-1-8.3c1.4-2.1,4-2.9,6.4-3.2c6.2-0.8,12.5,0.7,17.6,4.4
		c-1.1-10.5,3.1-20.8,11.4-27.4c3.9-3,8.7-5.1,13.6-5s9.9,2.8,12.1,7.2c1.4,2.8,1.5,6,1.4,9.2c-0.3,6.2-1.5,12.3-3.8,18
		c11.2-3.1,30.1-4.8,33,6.4c5.9,22.6-89.7,34.4-95.6,13.9C382,254.6,395.9,250,395.9,250z"/>
	<path class="st8" d="M45.9,291.4c-1.9-0.8-3.6-2-5-3.5c-1.3-1.6-1.8-4-0.7-5.7c0.9-1.4,2.7-2,4.4-2.2c4.3-0.6,8.6,0.5,12.1,3
		c-0.8-7.2,2.2-14.3,7.8-18.8c2.6-2.2,5.9-3.4,9.3-3.5c3.5,0,6.6,1.9,8.3,4.9c0.8,2,1.2,4.1,0.9,6.3c-0.2,4.2-1.1,8.4-2.6,12.4
		c7.7-2.1,20.6-3.3,22.6,4.4c4.1,15.5-61.6,23.6-65.7,9.5C36.3,294.5,45.9,291.4,45.9,291.4z"/>
	<path class="st13" d="M345.4,115.4c-1.7-0.7-3.2-1.7-4.4-3c-1.2-1.4-1.5-3.4-0.6-5c1-1.2,2.4-1.9,3.9-2c3.7-0.5,7.5,0.4,10.6,2.6
		c-0.7-6.3,1.9-12.5,6.8-16.5c2.3-1.9,5.2-3,8.2-3c3,0,5.8,1.7,7.3,4.3c0.7,1.7,1,3.6,0.8,5.5c-0.2,3.7-0.9,7.4-2.3,10.9
		c6.8-1.8,18.1-2.9,19.9,3.9c3.6,13.6-54.1,20.7-57.7,8.4C337,118.2,345.4,115.4,345.4,115.4z"/>
	<path class="st13" d="M403.6,252.4c-2.2-0.9-4.1-2.2-5.7-4c-1.5-1.8-2.1-4.6-0.8-6.5c1.1-1.6,3.1-2.3,5-2.5
		c4.9-0.6,9.8,0.6,13.8,3.4c-0.9-8.2,2.5-16.3,8.9-21.5c3-2.5,6.7-3.9,10.6-3.9c3.9,0.1,7.8,2.2,9.4,5.6c0.9,2.3,1.3,4.7,1.1,7.2
		c-0.2,4.8-1.2,9.6-3,14.1c8.8-2.4,23.5-3.8,25.8,5c4.6,17.7-70.2,26.9-74.9,10.9C392.7,256.1,403.6,252.4,403.6,252.4z"/>
	<path class="st13" d="M62.3,79.9c-1.1-0.5-2.2-1.2-3-2.1c-0.9-0.9-1-2.3-0.4-3.4c0.7-0.8,1.6-1.3,2.7-1.3c2.6-0.3,5.2,0.3,7.3,1.8
		c-0.5-4.3,1.3-8.6,4.7-11.4c1.6-1.3,3.6-2.1,5.6-2.1c2.1,0,4,1.2,5,3c0.5,1.2,0.7,2.5,0.6,3.8c-0.1,2.6-0.6,5.1-1.6,7.5
		c4.6-1.3,12.5-2,13.7,2.7c2.4,9.4-37.2,14.3-39.7,5.8C56.5,81.8,62.3,79.9,62.3,79.9z"/>
	<path class="st8" d="M309.9,280.3c0,1.5-1.2,2.8-2.8,2.8s-2.8-1.2-2.8-2.8c0-1.5,1.2-2.8,2.8-2.8
		C308.6,277.6,309.9,278.8,309.9,280.3L309.9,280.3z"/>
	<path class="st8" d="M266.6,290.3h79.3c1.7,0,3.1,1.4,3.1,3.1v40.7c0,1.7-1.4,3.1-3.1,3.1h-79.3c-1.7,0-3.1-1.4-3.1-3.1v-40.7
		C263.6,291.7,264.9,290.3,266.6,290.3z"/>
	<path class="st8" d="M325.8,294.6h-39l20.3-15L325.8,294.6z M290.6,293.3h31.8l-15.3-12.2L290.6,293.3z"/>
</g>
</svg>
