<?xml version="1.0" encoding="utf-8"?>
<!-- Generator: Adobe Illustrator 25.1.0, SVG Export Plug-In . SVG Version: 6.00 Build 0)  -->
<svg version="1.1" id="Layer_1" xmlns="http://www.w3.org/2000/svg" xmlns:xlink="http://www.w3.org/1999/xlink" x="0px" y="0px"
	 width="492.1px" height="404.6px" viewBox="0 0 492.1 404.6" enable-background="new 0 0 492.1 404.6" xml:space="preserve">
<g>
	<path fill="#F2F3F7" d="M269.9,254.9c0.7,7.5,1.9,15,3.4,22.4c1.3,6.3,2.9,12.5,4.4,18.8c2.7,11.6,5.8,23.2,10.7,34
		c4,8.8,7.4,17.9,11.9,26.5c4.9,9.4,11,18,16.9,26.7c3.6,5.4,6.5,5.4,10.6,0.6c4.4-5.1,10.2-7.1,16-8.4c11.8-2.6,23.1-0.8,32.3,8
		c3.1,3,6.4,5.8,8.9,9.4c1.5,2,2,4.1,1.9,6.5c-2.7,0.1-5.3,0.3-8,0.3c-87.4,0-174.7,0-262.1,0.1c-0.7,0-1.3,0-2,0
		c-33.7-1.9-67.3-0.3-101,0c-1.4-0.1-2.7-0.1-4.1-0.2c-0.3-7.5-0.5-15.1,2.3-22c2.3-5.5,3.6-9.2,7.3-13.9c1.4-1.7,2.9-3.5,5.3-6.1
		c1-1.1,3.5-3.1,4.9-3.9c11.3-6.7,22.7-12,36.8-11.2c16.7,0.9,29.8,7.6,40,19.8c6.1,7.3,11.4,15.8,12.3,25.9c0,0.3,0,0.7,0.1,1
		c0.7,3.6,0,5.4,2.5,6c2.8,0.7,3.3-2.7,4.5-4.5c8.3-13.1,28.8-18,43.1-14.4c7.2,1.6,14.2,6,18.2,13.3c0.8,1.4,1.7,3.7,3.1,4.6
		c1.9,1.3,4.3,0,5.4-2.4c5.6-12.8,11.8-25.5,16.7-38.6c3.5-9.4,7.1-18.8,10.1-28.4c3.2-10,6.9-20,9.7-30.1c3.7-13,7.8-26,7.7-39.8
		C249.9,254.9,259.9,254.9,269.9,254.9z"/>
	<path fill="#F2F3F7" d="M378.8,399.5c-3.3-3.7-1.9-8.1-2-12.3c0.4-2.8,0.9-3.5,1.6-6.4c1.7-5.5,5-10.5,8.5-15.1
		c9.4-12.4,21.3-20.3,37.1-23.1c11.9-2.1,23.5,0,32.7,5.6c9.4,5.3,14.2,11.3,20.1,18.4c6.9,8.9,8.2,13.9,9.7,20.9
		c0.4,2.1,1.4,7.3,1.3,8.8c-0.2,1.7-0.4,3.3-4.9,3.1c-26.7-1.2-53.5-0.6-80.3-0.4C394.7,399.1,386.7,400,378.8,399.5z"/>
	<path fill="#C4DAFD" d="M216.9,149.7c0-17.8-0.2-35.6,0.2-53.4c0.4-20.9,4.2-41.3,13.3-60.2c5-10.4,10.9-20.5,19.6-28.6
		C254,3.7,257.7,4,261.4,8c12.8,14,21,30.4,26.4,48.4c3,9.8,4.8,20,5,30.3c0.3,19.1,0.1,38.3,0.1,57.4c0,2.2-0.3,4.4,2.1,5.7
		c-3.1,0.9-2,3.5-2,5.4c-0.5,22.9,0.8,45.7-0.8,68.6c-0.1,1.8,1.2,2.6,1.9,3.9c-1.1,0.4-2.2,0.8-3.3,1.2c-0.4-0.4-0.7-0.3-0.9,0.1
		c0,0,0.1,0,0.1,0c-23.4,1.3-46.7,1-70.1-0.1c-1.2-1.1-2.7-0.9-4.1-1.1c1-1.5,2.6-2.7,2.1-4.8c-1.6-5.7-0.1-11.5-0.1-17.2
		c0.1-16.7,0.1-33.5,0-50.2C217.8,153.5,218.3,151.4,216.9,149.7z M255.2,83.9c8.6,0.5,13.3-6.6,13.6-12.9c0.4-7.4-5.7-13-13.4-13.1
		c-7.6-0.1-13.3,5.5-13.4,12.9C241.9,78.6,247.2,83.8,255.2,83.9z"/>
	<path fill="#73A4FC" d="M294.1,227.6c-0.7-1.3-2-2-1.9-3.9c1.6-22.8,0.3-45.7,0.8-68.6c0-1.9-1.1-4.5,2-5.4
		c0.3,0.1,0.5,0.2,0.8,0.3c0.4,0.2,0.8,0.5,1.2,0.7c24.1,10,34,28.8,33.8,54c-0.1,13.8-0.1,27.6-0.1,41.5c0,3.3-0.3,6.5-3.7,8.1
		c-3.5,1.6-6.3-0.1-8.8-2.7C310.3,243.5,302.2,235.6,294.1,227.6z"/>
	<path fill="#73A4FC" d="M216.9,149.7c1.4,1.7,0.9,3.8,0.9,5.7c0,16.7,0.1,33.5,0,50.2c0,5.7-1.5,11.5,0.1,17.2
		c0.6,2.1-1,3.3-2.1,4.8c-7.7,9-16.6,16.8-24.9,25.2c-2,2-4.7,2.6-7.4,1.4c-2.7-1.3-3.6-3.6-3.6-6.6c0.1-17.7-0.2-35.3,0.2-53
		C180.6,175.3,198.9,153.3,216.9,149.7z"/>
	<path fill="#73A4FC" d="M219.9,228.7c23.4,1.1,46.7,1.5,70.1,0.1c0,0.6-0.5,0.9-0.5,1.6c-0.3,0.4-0.2,1-0.5,1.4
		c-2.2,6.8-5.7,13-8.9,19.3c-2.2,4.4-6.4,3.3-10.1,3.7c-10,0-20,0-30,0c-2.2-0.1-4.3-0.2-6.5-0.3c-2,0-2-0.8-3.5-3.9
		C227.1,243.2,222.2,236.5,219.9,228.7z"/>
	<path fill="#73A4FC" d="M288.9,231.9c0.3-0.4,0.3-0.8,0.5-1.6C289.2,230.6,289.2,231.5,288.9,231.9z"/>
	<path fill="#C4DAFD" d="M289.9,228.9c0.3-0.4,0.5-0.5,0.9-0.1c0,0-0.4,0.1-0.4,0.1L289.9,228.9z"/>
	<path fill="#C4DAFD" d="M297,150.7c-0.4-0.2-0.8-0.5-1.2-0.7C296.2,150.2,296.6,150.5,297,150.7z"/>
	<path fill="#73A4FC" d="M255.2,83.9c-8,0-13.2-5.2-13.2-13.1c0-7.5,5.8-13,13.4-12.9c7.7,0.1,13.8,5.7,13.4,13.1
		C268.4,77.3,263.8,84.4,255.2,83.9z"/>
</g>
</svg>
