<svg xmlns="http://www.w3.org/2000/svg" width="21" height="26.047" viewBox="0 0 21 26.047">
  <path id="Shape_590" data-name="Shape 590" d="M10,26C9.581,25.791-.052,20.806,0,13V6c0-.734.267-.948,1-1,5.911-.576,7.948-3.843,8-4,.262-.472.425-.947,1-1a3.193,3.193,0,0,1,2,1c.105.157,1.089,3.372,7,4,.68.052,2,.266,2,1v7c0,7.754-9.581,12.792-10,13a.574.574,0,0,1-.282.047C10.468,26.047,10.14,26,10,26ZM3,8v5c0,5.032,5.065,8.848,7,10,1.936-1.153,8-4.969,8-10V8a14.7,14.7,0,0,1-8-4A11.642,11.642,0,0,1,3,8Zm7,18c.07.035.07.047.047.047C10,26.047,9.861,26,10,26ZM8,16,6,14a1.414,1.414,0,1,1,2-2l1,1,4-3a1.414,1.414,0,1,1,2,2l-5,4c-.262.26-.634,1-1,1S8.314,16.367,8,16Z" transform="translate(0)"/>
</svg>
