<svg xmlns="http://www.w3.org/2000/svg" width="24" height="24" viewBox="0 0 24 24">
    <path d="M6.636,12.092H5.107v-.9H9.27v.9H7.741v3.876H6.636Z"/>
    <path d="M12.771,14.945H10.553l-.423,1.023H9l2.129-4.777h1.093l2.135,4.777H13.195Zm-.348-.84-.757-1.829L10.908,14.1Z"/><path d="M17.617,15.968l-1.154-1.659-1.132,1.659h-1.27l1.768-2.429L14.15,11.191h1.256l1.1,1.549,1.079-1.549h1.194L17.112,13.5l1.781,2.47Z"/>
    <path d="M15.343,0H3V24H21V5.657ZM20,23H4V1H14V7.053h6ZM15,6.053V1.075l4.978,4.978Z"/>
</svg>