<svg id="Layer_1" enable-background="new 0 0 100 100" height="512" viewBox="0 0 100 100" width="512" xmlns="http://www.w3.org/2000/svg"><g id="_x31_9.Tumblr"><path id="Icon_6_" d="m34.29 42.731c-3.027 0-5.965 0-8.904 0-.021-.376.03-7.23 0-10.357-.006-.643.16-.975.807-1.21 10.358-3.094 15.294-18.418 15.349-20.153 0-.695.406-1.011 1.075-1.011 3.158.03 6.317.031 9.475 0 .744-.007.925.259.922.973-.027 6.007-.015 18.747-.015 19.195h18.895v12.547c-6.276 0-12.358 0-18.641 0-.039.252-.187 26.975 0 28.258.286 1.957 1.513 3.413 3.205 4.431 2.987 1.797 6.207 1.902 9.517 1.317 2.742-.485 8.271-3.264 8.635-3.466.033.356-.03 8 0 11.561.005.656-.222.959-.815 1.241-6.308 2.991-12.94 4.31-19.901 3.856-5.933-.387-11.348-2.088-15.659-6.46-2.247-2.279-3.944-4.835-3.944-8.178s-.001-31.995-.001-32.544z" fill="#3d5a70"/></g></svg>