<svg id="Layer_1" enable-background="new 0 0 100 100" height="512" viewBox="0 0 100 100" width="512" xmlns="http://www.w3.org/2000/svg"><g id="_x32_4.Wattpad"><path id="Icon_1_" d="m63.265 39.562c4.433-6.208 16.126-19.654 23.356-17.062 1.538.476 2.926 1.744 3.205 3.375 1.019 4.254-2.493 6.95-9.03 17.611-7.992 13.038-10.445 21.689-13.989 25.174-6.96 7.775-21.062 4.35-19.385-16.865-8.381 13.7-10.455 30.405-24.631 27.59-14.878-4.032-14.182-39.084-10.724-48.124.236-1.152.809-2.19 1.315-3.235 3.525-6.82 11.693-6.863 15.174-2.816 3.571 4.154 2.53 12.681 1.98 18.263 3.688-6.414 10.089-15.574 15.997-20.12 9.22-6.864 19.864-2.43 16.732 16.209z" fill="#ff5722"/></g></svg>