<?xml version="1.0" encoding="utf-8" ?>
<svg xmlns="http://www.w3.org/2000/svg" xmlns:xlink="http://www.w3.org/1999/xlink" width="1024" height="1024">
	<path fill="#3F3174" d="M737.787 282.609L737.192 283.192C727.986 292.155 717.401 296.301 704.561 296.059C691.04 295.761 678.205 290.048 668.934 280.202C657.654 268.322 652.685 252.181 653.107 235.995C653.627 215.995 662.287 198.475 676.785 184.902C692.964 169.756 714.115 162.57 736.145 163.429C759.721 164.348 780.826 174.103 796.778 191.455C812.463 208.516 818.743 230.408 817.694 253.237C816.753 260.884 815.619 268.334 813.408 275.743C803.385 309.316 778.864 341.107 751.529 362.613C745.122 367.653 738.235 371.846 731.311 376.121L777.528 376.056C794.655 376.04 813.12 374.66 829.738 379.267C839.258 381.906 847.571 386.82 855.324 392.831C871.725 410.518 879.926 423.378 879.024 448.513C878.346 467.435 869.874 484.443 856.077 497.25C848.938 503.877 838.678 507.886 832.705 515.461C829.254 519.838 827.163 525.244 825.692 530.572C822.996 540.331 822.003 550.889 820.454 560.904L812.527 612.254C841.123 616.216 865.785 627.21 883.583 650.784C898.917 671.139 905.416 696.807 901.617 722.007C898.621 742.942 888.096 761.87 871.052 774.582C854.74 786.748 833.573 791.548 813.509 788.534C795.991 785.901 780.145 777.346 769.608 762.927C760.585 750.581 757.406 736.205 759.784 721.124C760.358 717.479 761.291 713.931 762.257 710.374C742.354 729.137 731.207 746.237 717.703 769.743L718.325 769.619C734.627 766.508 753.948 769.746 767.724 779.191C777.451 785.86 785.138 795.604 787.315 807.403C789.172 817.452 786.965 827.828 781.178 836.252C775.696 844.078 767.28 848.678 757.96 850.279C748.423 851.918 736.719 850.614 728.771 844.676C724.272 841.316 719.899 835.971 719.197 830.281C718.735 826.526 720.035 822.413 722.386 819.465C723.896 817.571 725.976 816.461 728.38 816.205C730.563 815.972 732.728 816.343 734.747 817.187C740.308 819.51 751.31 830.468 757.41 823.101C759.67 820.37 760.651 815.497 760.096 812.05C759.487 808.26 757.04 804.767 753.937 802.576C741.005 793.444 721.537 795.218 706.907 798.059C692.855 800.788 680.194 806.067 666.652 810.349C655.631 813.834 643.826 816.169 632.334 817.417C610.372 819.803 587.618 818.655 565.536 818.65L454.308 818.613L360.053 818.658C342.78 818.679 324.648 819.927 307.489 817.903C293.877 816.298 281.173 812.173 269.716 804.545C248.569 790.467 237.519 768.54 232.76 744.194C229.78 728.948 227.352 713.549 224.685 698.244C221.507 680.007 218.139 661.768 215.255 643.484C210.54 618.073 206.436 592.518 201.969 567.059C199.816 554.79 198.302 541.769 194.804 529.813C193.411 525.052 191.434 520.239 188.479 516.22C183.89 509.979 175.746 506.228 169.758 501.462C165.337 497.942 161.939 493.816 158.317 489.519C149.434 476.378 144.187 463.276 144.15 447.22C144.107 428.543 150.793 410.732 164.033 397.428C173.021 388.397 183.834 382.093 196.192 378.958C214.752 374.249 241.78 376.081 261.458 376.08L346.126 376.097C372.457 338.47 398.493 300.637 424.23 262.602L445.528 231.247C453.141 219.95 459.965 207.889 470.186 198.674C482.386 187.675 500.86 183.109 516.932 184.169C530.316 185.052 543.727 190.713 553.853 199.476C565.49 209.546 573.651 224.34 582.219 237.039L632.59 311.551L648.239 334.967C651.43 339.734 654.504 344.927 658.313 349.218C658.441 349.362 658.573 349.503 658.704 349.646C665.935 349.094 672.684 348.551 679.615 346.21C699.921 339.353 716.23 321.658 726.951 303.665C731.011 296.853 734.296 289.717 737.787 282.609ZM380.109 376.112L511.75 376.083L576.263 376.097C589.489 376.094 604.128 377.288 617.096 374.708C624.261 373.283 630.47 370.082 636.864 366.73C632.343 358.443 625.974 350.516 620.569 342.715L590.279 298.739L555.958 248.545C549.604 239.258 543.47 228.753 535.764 220.539C532.065 216.597 526.487 213.618 521.33 212.133C516.264 210.675 511.345 210.697 506.135 211.066C499.707 212.595 493.906 214.452 489.093 219.267C482.781 225.581 477.914 233.945 472.904 241.317L449.383 275.921L397.705 351.054C391.936 359.439 385.705 367.628 380.109 376.112Z"/>
	<path fill="#845DC1" d="M241.296 516.17C248.915 515.453 257.134 516.036 264.809 516.044L312.599 516.092L467.356 516.097L660.251 516.092L722.141 516.074C733.549 516.071 745.197 515.593 756.578 516.364C766.807 517.058 780.625 519.24 787.664 527.58C789.939 530.276 791.875 533.635 792.398 537.165C793.78 546.49 791.511 557.403 790.514 566.754C788.845 582.412 786.905 598.107 785.742 613.809C778.319 614.401 770.721 615.853 763.597 617.97C725.065 629.418 703.722 659.542 685.569 693.14L691.121 620.119C692.198 605.634 694.697 589.903 693.092 575.48C692.251 567.92 689.894 560.798 685.677 554.437C678.481 543.582 667.563 537.604 655.004 535.06C645.284 533.936 636.124 535.006 627.305 539.453C616.667 544.816 609.31 554.198 605.618 565.436C602.017 576.395 602.344 590.104 601.558 601.567L598.371 649.815L595.316 698.036C594.7 708.019 593.611 718.27 594.052 728.262C594.388 735.849 595.534 741.905 599.073 748.669C604.345 758.745 612.631 765.201 623.407 768.513C610.261 779.527 593.623 787.87 576.729 791.049C558.884 794.407 539.321 792.975 521.189 792.981L436.304 792.993L358.189 792.987C342.817 792.984 326.754 793.964 311.509 791.98C302.034 790.655 293 787.129 285.133 781.684C265.212 767.864 259.722 744.566 255.663 722.108C247.984 678.3 240.548 634.45 233.354 590.56C231.683 579.815 229.907 569.087 228.028 558.376C226.747 550.92 224.982 543.123 224.716 535.555C224.56 531.09 225.296 526.65 227.991 522.97C231.35 518.382 235.96 516.981 241.296 516.17Z"/>
	<path fill="#3F3174" d="M503.347 534.72C513.711 533.341 525.603 537.714 533.749 543.922C543.711 551.514 549.274 562.012 550.833 574.357C551.919 582.952 551.575 591.858 551.572 600.511L551.066 651.132L550.916 702.633C550.848 711.923 551.35 722.004 549.986 731.157C548.783 739.237 545.836 746.88 540.788 753.358C532.914 763.466 522.055 768.351 509.613 769.958L508.943 769.998C496.559 770.66 484.499 767.013 475.208 758.629C465.323 749.708 461.887 738.429 461.192 725.481C460.606 714.581 460.991 703.53 461.006 692.612L461.208 632.636L461.354 596.273C461.396 587.485 460.901 578.269 462.573 569.613C464.094 561.714 467.796 554.399 473.259 548.494C481.088 539.934 491.849 535.276 503.347 534.72Z"/>
	<path fill="#E7D0CC" d="M502.285 558.096C506.091 557.745 509.58 557.647 513.281 558.881C518.129 560.498 522.09 564.051 524.223 568.695C525.531 571.496 525.833 575.279 525.993 578.345C526.457 587.218 526.082 596.284 526.064 605.174C526.14 623.556 525.989 641.939 525.612 660.317L525.225 703.733C525.156 711.249 525.332 718.88 524.871 726.379C524.697 729.213 524.462 732.266 523.389 734.915C521.136 740.475 516.193 743.662 510.868 745.809C506.494 746.311 502.417 746.221 498.26 744.567C494.314 742.997 490.31 739.766 488.729 735.713C487.505 732.576 487.153 728.425 486.985 725.075C486.551 716.415 486.902 707.628 486.931 698.954L486.988 653.629L487.019 607.23C487.025 598.011 486.738 588.662 487.27 579.46C487.492 575.637 487.756 572.031 489.444 568.518C492.122 562.942 496.618 560.006 502.285 558.096Z"/>
	<path fill="#3F3174" d="M358.211 535.089C369.152 533.489 381.39 536.304 390.548 542.421C400.416 549.006 407.213 559.29 409.404 570.949C411.501 581.821 411.653 593.513 412.465 604.552L416.543 659.458L419.541 700.752C420.214 709.964 421.531 719.628 420.722 728.844C419.997 737.095 417.454 744.68 412.768 751.542C405.841 761.689 395.768 767.245 383.877 769.506C372.441 771.476 360.688 768.93 351.092 762.405C341.743 755.914 335.364 745.965 333.367 734.759C331.718 725.522 331.364 715.81 330.547 706.462L326.053 654.781L321.897 607.128C321.033 597.039 319.458 586.339 320.264 576.229C320.936 567.805 323.522 559.877 328.462 552.981C335.631 542.973 346.187 537.095 358.211 535.089Z"/>
	<path fill="#E7D0CC" d="M364.96 557.708C369.816 557.898 374.23 559.178 377.988 562.392C384.219 567.721 384.633 575.711 385.238 583.315L392.868 683.18L394.915 709.804C395.439 716.658 396.493 724.117 395.671 730.941C395.288 734.114 393.224 737.678 391.119 740.031C387.41 744.177 382.642 745.905 377.207 746.184C372.908 746.039 369.173 744.931 365.687 742.325C361.011 738.83 359.449 734.407 358.648 728.842C357.384 720.059 357.085 710.953 356.309 702.092L351.12 640.243L347.718 600.755C346.98 592.184 345.742 583.269 346.21 574.671C346.399 571.198 347.789 567.998 349.933 565.273C353.757 560.413 358.987 558.314 364.96 557.708Z"/>
	<path fill="#845DC1" d="M357.764 402.273L558.107 402.252C594.329 402.25 630.6 402.645 666.817 402.097C667.454 410.489 670.107 415.659 676.156 421.431C672.666 426.337 669.998 431.014 668.647 436.942C666.338 446.735 668.128 457.046 673.602 465.488C678.921 473.7 687.302 479.447 696.879 481.449C706.716 483.585 716.998 481.659 725.395 476.109C733.502 470.722 739.099 462.297 740.922 452.735C742.667 443.297 740.61 433.551 735.199 425.623C727.758 414.896 717.39 410.76 704.991 408.574L700.776 402.448C713.462 402.134 726.184 402.268 738.875 402.24L783.122 402.234C794.397 402.236 806.875 401.387 817.927 403.81C825.088 405.325 831.766 408.577 837.376 413.278C846.016 420.734 851.268 431.371 851.935 442.763C852.755 454.075 848.953 465.237 841.397 473.695C830.788 485.638 817.369 489.925 801.781 490.826C788.63 491.586 775.127 490.986 761.943 490.969L688.483 490.96L458.902 490.972L290.81 490.973L239.24 490.97C229.964 490.968 220.267 491.537 211.054 490.631C201.296 489.67 192.654 485.997 185.361 479.374C176.787 471.476 171.677 460.513 171.144 448.868C170.71 436.932 175.073 425.32 183.26 416.624C194.309 404.687 207.969 402.741 223.373 402.249L314.367 402.373C313.879 404.376 313.271 406.356 312.705 408.339C306.923 409.489 301.461 410.981 296.308 413.931C287.636 418.901 281.338 427.162 278.843 436.84C276.519 445.604 278.147 456.217 282.767 463.978C287.925 472.641 295.959 478.754 305.798 481.138C315.529 483.531 325.813 481.917 334.343 476.658C342.637 471.406 348.481 463.05 350.569 453.458C353.189 441.655 349.856 432.18 343.606 422.257C351.373 416.953 355.867 411.674 357.764 402.273Z"/>
	<path fill="#57B1AF" d="M794.776 640.205C796.331 640.121 797.888 640.065 799.445 640.037C819.134 639.759 839.243 647.28 853.341 661.106C866.185 673.7 873.061 689.863 873.038 707.887C873.019 722.758 868.151 737.177 857.409 747.721C848.031 757.11 835.242 762.287 821.974 762.064C811.853 761.888 801.747 758.405 794.644 751.001C789.037 745.157 784.856 736.969 785.226 728.711C785.523 722.082 788.926 717.277 793.678 712.996C794.263 715.372 794.854 717.78 795.947 719.983C798.658 725.451 803.488 729.571 809.315 731.385C815.88 733.501 823.018 732.91 829.145 729.742C834.862 726.693 839.129 721.492 840.999 715.289C843.021 708.517 842.065 700.086 838.478 693.929C832.335 683.383 820.712 677.001 809.139 674.274C788.434 669.394 767.832 676.293 750.257 687.122C736.997 696.27 725.611 707.872 716.714 721.302C705.841 737.557 697.352 754.74 683.7 769.044C666.374 787.198 640.989 799.608 615.779 800.147C663.002 781.899 682.378 749.198 707.096 708.261C714.755 695.576 722.201 682.95 731.965 671.729C748.3 652.958 769.954 642.007 794.776 640.205Z"/>
	<path fill="#E7D0CC" d="M647.563 557.648C651.518 557.502 655.335 558.451 658.682 560.577C662.716 563.14 666.389 567.951 667.159 572.744C668.576 581.578 666.804 592.168 666.17 601.112L663.076 645.276L659.404 699.548C658.741 709.645 658.587 720.118 657.186 730.134C656.742 733.307 656 735.813 654.058 738.443C650.667 743.035 645.804 745.409 640.267 746.254C635.657 746.365 631.448 745.642 627.538 743.058C624.232 740.874 620.764 736.84 620.098 732.831C618.57 723.639 620.297 712.936 620.902 703.653L623.941 657.302L627.489 603.822C628.111 594.629 628.299 585.12 629.56 575.999C630.085 572.206 630.85 568.786 633.13 565.606C636.658 560.687 641.753 558.489 647.563 557.648Z"/>
	<path fill="#57B1AF" d="M727.662 191.19C733.431 190.577 739.662 191.187 745.309 192.458C760.19 195.808 773.402 204.493 781.511 217.507C790.855 232.503 792.201 249.996 788.147 266.96C781.187 296.084 757.387 324.924 734.016 343.01C728.933 346.944 723.335 350.273 717.847 353.608C731.986 340.05 744.307 326.013 754.955 309.515C764.83 292.951 772.469 273.687 767.453 254.184C764.809 243.9 758.686 234.499 749.394 229.085C742.443 225.035 733.9 223.626 726.104 225.837C720.472 227.435 715.464 231.01 712.635 236.198C710.076 240.888 709.214 247.192 710.986 252.299C712.728 257.321 716.429 259.761 721.011 261.855C718.036 265.32 715.001 267.945 710.321 268.574C704.276 269.386 697.079 266.911 692.306 263.254C685.857 258.312 682.11 250.332 681.127 242.386C679.655 230.488 683.092 219.03 690.57 209.708C699.828 198.167 713.269 192.729 727.662 191.19Z"/>
	<path fill="#57B1AF" d="M701.374 432.829C707.961 431.044 714.745 434.951 716.508 441.544C718.271 448.138 714.341 454.909 707.742 456.649C701.174 458.381 694.442 454.474 692.688 447.912C690.934 441.351 694.818 434.606 701.374 432.829Z"/>
	<path fill="#57B1AF" d="M312.062 432.845C318.68 431.221 325.355 435.295 326.937 441.923C328.519 448.551 324.404 455.2 317.766 456.74C311.187 458.267 304.609 454.196 303.041 447.627C301.473 441.058 305.502 434.455 312.062 432.845Z"/>
	<path fill="#57B1AF" d="M783.125 361.391C783.154 361.326 783.186 361.261 783.214 361.195C786.022 354.459 792.016 348.372 796.103 342.294C804.431 329.909 811.422 316.318 821.845 305.472C829.431 297.578 838.166 292.28 849.367 292.092C855.544 291.989 862.494 293.311 866.986 297.855C869.21 300.104 871.496 303.795 871.36 307.081C871.208 310.728 868.955 313.325 866.519 315.755L865.916 315.942C860.136 317.678 855.203 315.423 849.555 316.226C836.756 318.045 824.924 333.552 815.556 341.77C805.721 350.278 795.669 357.506 783.125 361.391Z"/>
	<path fill="#57B1AF" d="M149.447 538.106C149.846 538.096 150.244 538.093 150.643 538.098C156.293 538.193 161.207 541.204 164.988 545.224C180.223 561.417 185.52 591.779 184.762 613.159C182.616 611.695 180.748 609.96 178.831 608.217C167.475 597.103 143.945 569.552 139.806 555.251C138.736 551.556 138.478 547.333 140.448 543.88C142.435 540.398 145.738 539.027 149.447 538.106Z"/>
</svg>
