<?xml version="1.0" encoding="utf-8" ?>
<svg xmlns="http://www.w3.org/2000/svg" xmlns:xlink="http://www.w3.org/1999/xlink" width="1024" height="1024">
	<path fill="#311E5E" d="M458.96 133.123C461.898 120.954 465.03 109.525 472.633 99.2923C482.894 85.2133 498.41 75.8795 515.655 73.4117C530.92 71.3013 546.957 75.1208 559.247 84.5237C574.619 96.2854 581.136 112.613 583.521 131.298C593.728 131.64 604.144 130.546 614.307 131.299C616.322 131.448 619.782 131.648 621.309 133.02C623.347 134.854 624.568 138.649 625.302 141.259C628.35 152.098 629.818 163.981 631.679 175.11L638.479 214.099C639.261 218.772 639.763 230.802 642.575 234.075C645.074 232.703 657.517 211.665 660.52 207.624C677.279 185.068 697.892 162.483 723.402 149.804C751.522 135.826 782.479 132.823 812.326 142.956C831.516 149.471 850.532 163.421 859.623 181.906C869.476 201.942 868.465 218.433 861.443 239.069C876.465 234.429 893.03 233.396 908.046 238.654C924.441 244.395 937.634 255.981 945.135 271.683C952.353 286.79 952.685 304.347 947.119 320.053C941.014 337.279 927.93 349.231 911.741 356.929L909.652 357.914C901.972 360.688 894.551 363.649 887.662 368.126C864.418 383.23 851.17 411.626 836.82 434.469C857.909 427.66 877.89 426.719 898.087 437.005C915.908 446.081 928.933 461.243 934.988 480.332C940.363 497.28 939.016 517.475 930.757 533.295C923.532 547.077 911.108 557.408 896.239 561.997C893.895 562.712 891.529 563.348 889.143 563.903C904.57 578.999 912.998 592.42 913.315 614.658C913.549 631.067 907.776 649.007 896.115 660.848C893.314 663.693 890.096 666.202 886.83 668.49C904.091 675.974 918.878 695.589 925.701 712.628C937.386 741.808 934.99 776.281 922.684 804.832C906.095 843.319 875.26 870.718 836.604 885.843C805 898.208 769.212 901.529 735.763 896.601C726.326 895.211 712.041 890.75 703.241 891.051C698.097 891.228 692.889 895.028 687.847 896.351C670.493 900.909 652.07 901.93 634.248 900.198C610.388 897.878 587.212 891.948 563.895 886.623C516.545 875.811 472.076 866.076 423.122 868.683C406.79 869.553 391.116 871.481 375.366 876.025C367.671 878.245 353.573 881.629 349.946 889.527C349.09 891.391 348.801 893.414 349.623 895.344C351.008 898.593 354.681 900.379 357.795 901.537C370.444 906.242 385.93 903.608 398.405 899.723C402.417 898.473 406.891 896.28 410.97 895.59C415.273 893.483 419.71 891.66 424.251 890.133C417.72 901.438 408.468 912.464 398.057 920.309C397.447 920.861 396.848 921.397 396.201 921.906C372.321 940.725 342.056 951.261 311.507 947.176C292.822 944.678 274.896 936.345 263.327 921.12C251.635 905.733 250.656 888.39 253.139 869.839C236.825 883.439 211.598 891.586 190.534 892.923C164.671 894.564 138.801 887.031 119.229 869.714C101.33 853.877 91.9578 833.107 90.5595 809.331C89.3615 788.963 95.3274 768.542 109.067 753.226C120.237 740.775 134.131 733.624 150.905 732.67C155.928 731.511 160.996 728.617 165.729 726.5C160.384 725.377 155.28 725.378 149.842 725.455C141.542 724.81 135.16 725.353 126.797 723.194C107.705 718.379 91.3882 706.014 81.5893 688.936C69.3004 667.811 67.2218 640.806 73.4912 617.426C81.4308 587.817 99.5217 570.408 125.286 555.511C114.362 551.187 104.384 545.554 95.6484 537.623C79.1128 522.609 70.5373 501.949 69.4888 479.808C68.5161 459.268 75.2749 438.585 89.2825 423.405C102.428 409.159 119.592 400.524 139.049 399.78C139.643 398.782 140.122 397.694 140.639 396.652C134.816 396.394 129.062 395.302 123.55 393.407C105.006 386.968 89.7538 373.469 81.1092 355.845C68.6011 330.069 70.1444 301.164 79.5385 274.746C94.3548 233.081 129.93 201.788 168.992 183.137C219.64 158.953 288.019 151.481 341.35 170.382C365.859 179.068 387.291 193.226 400.024 216.42C403.491 222.735 405.678 229.467 408.755 235.939C410.273 217.305 413.959 198.434 416.71 179.921C418.554 167.516 419.445 154.066 422.571 141.953C423.151 139.705 424.201 137.91 425.881 136.305C431.462 130.971 451.08 133.001 458.96 133.123ZM778.087 320.917L778.175 326.606C783.036 318.237 787.304 309.499 792.341 301.239C797.588 292.634 803.749 284.586 809.921 276.633C798.631 279.351 788.116 280.587 777.534 274.772C768.032 269.563 761.12 260.642 758.449 250.14C757.356 245.777 757.828 236.874 760.245 233.137C761.031 231.921 761.66 231.655 763.009 231.286C765.923 232.016 768.147 235.027 770.562 236.789C772.613 238.285 774.807 238.765 777.295 238.331C781.515 237.595 785.511 235.377 787.938 231.78C789.893 228.917 790.594 225.379 789.876 221.987C789.125 218.273 786.971 215.389 783.837 213.313C775.065 207.503 761.536 208.209 751.685 210.128C728.642 214.618 709.367 228.651 693.18 244.976C687.885 250.317 682.665 255.884 678.419 262.11C691.864 260.269 705.885 259.124 719.458 258.859C736.029 258.535 752.651 260.137 765.119 272.317C778.181 285.078 777.798 303.99 778.087 320.917ZM555.739 132.076C552.174 120.218 547.702 109.269 536.218 102.98C529.837 99.4844 522.005 98.9827 515.121 101.235C505.961 104.231 497.924 112.106 493.754 120.674C491.868 124.547 490.224 128.558 488.601 132.548C510.962 132.733 533.377 132.307 555.739 132.076Z"/>
	<path fill="#F595B9" d="M365.467 664.93C365.32 646.333 365.461 627.695 364.969 609.106C364.624 596.09 361.485 581.655 364.164 568.868C365.699 561.544 369.364 555.347 374.571 550.03C389.682 534.601 420.263 521.09 442.157 521.121C444.704 521.124 447.297 521.185 449.45 522.689C450.017 523.823 450.155 524.121 449.708 525.417C448.647 528.486 433.535 535.522 429.799 538.742C423.867 543.854 419.214 551.198 415.951 558.246C411.22 568.467 409.411 579.688 408.041 590.785C404.839 616.709 405.191 643.727 405.141 669.827C405.08 701.317 403.058 742.348 412.343 772.296C415.541 782.611 421.439 790.907 428.842 798.589C410.065 798.889 391.419 799.445 372.745 801.602C362.091 802.833 351.177 805.652 340.531 806.21C346.912 799.309 352.616 792.424 356.592 783.807C368.198 758.655 365.511 715.708 365.38 688.204C357.968 686.998 350.651 685.648 343.144 685.131C322.075 683.68 297.375 686.525 277.02 691.947L275.625 731.384C274.255 770.618 270.629 809.145 239.841 837.694C223.208 853.118 200.984 862.396 178.149 861.43C160.437 860.682 141.715 853.332 129.665 840.031C119.36 828.655 113.822 812.424 114.597 797.128C115.233 784.557 120.419 772.144 129.892 763.705C137.499 756.892 147.527 753.427 157.718 754.091C163.834 754.511 169.929 756.879 174.067 761.535C175.062 762.661 175.989 763.844 176.844 765.079C170.396 766.629 164.026 767.772 160.147 773.819C156.433 779.608 155.604 787.612 157.095 794.239C158.707 801.6 163.249 807.985 169.673 811.922C177.991 817.001 188.95 817.497 198.206 815.061C209.969 811.964 218.727 803.469 224.687 793.148C239.593 767.336 239.411 729.295 240.06 700.202C240.206 691.9 240.276 683.596 240.269 675.292C241.099 654.667 241.741 618.999 236.531 599.694C235.124 594.48 232.973 589.261 229.35 585.18C225.397 580.729 220.457 579.653 214.738 579.464C194.389 578.79 172.401 585.194 157.455 599.416C149.286 607.189 143.314 617.836 143.084 629.305C142.947 636.137 144.919 643.478 149.864 648.399C153.712 652.229 158.981 654.048 164.359 653.988C169.514 653.931 175.176 651.746 178.724 647.946C181.923 644.52 183.792 639.54 183.613 634.852C183.556 633.351 183.282 631.852 183.026 630.375C189.163 635.032 192.823 639.891 193.863 647.756C195.329 658.841 192.51 671.017 185.548 679.858C178.026 689.41 167.044 694.848 155.066 696.146C141.038 697.785 126.947 693.65 116.028 684.69C104.045 675.02 97.0277 660.389 95.5487 645.182C93.9176 626.59 99.7159 608.11 111.675 593.782C130.421 571.368 161.062 562.391 189.216 560.029C209.466 558.33 229.833 558.276 250.128 557.472L277.811 556.291C287.456 555.835 298.158 554.462 307.644 556.639L307.137 557.151C301.468 562.834 294.883 566.914 290.238 573.654C276.85 593.084 277.849 638.924 277.781 663.007C277.778 663.651 277.784 664.296 277.798 664.941C299.437 660.292 321.355 656.625 343.503 660.062C350.939 661.215 358.133 663.319 365.467 664.93Z"/>
	<path fill="#4BB3AE" d="M777.359 481.503C781.396 471.17 787.914 461.325 792.749 451.271C798.477 439.362 804.522 427.604 810.166 415.656C820.179 394.46 829.939 372.353 843.625 353.209C853.962 338.751 867.048 323.022 885.673 320.084C893.522 318.846 901.975 320.578 908.371 325.417C912.939 328.873 915.501 333.763 916.268 339.397C917.135 345.768 915.713 351.87 911.741 356.929L909.652 357.914C901.066 359.456 892.202 356.897 883.502 357.117C855.342 357.831 839.945 385.347 827.28 406.839C820.299 418.685 813.625 430.714 806.516 442.485C798.219 456.496 788.444 469.577 777.359 481.503Z"/>
	<path fill="#4BB3AE" d="M149.842 725.455L149.335 724.91C151.849 723.15 156.637 722.806 159.696 721.782C163.317 720.561 166.823 719.022 170.173 717.181C193.848 704.157 213.039 681.539 240.269 675.292C240.276 683.596 240.206 691.9 240.06 700.202C213.142 706.453 197.157 721.939 177.345 739.745C168.67 735.088 160.648 733.555 150.905 732.67C155.928 731.511 160.996 728.617 165.729 726.5C160.384 725.377 155.28 725.378 149.842 725.455Z"/>
	<path fill="#4BB3AE" d="M140.639 396.652C159.472 396.087 177.116 391.82 190.496 377.487C192.561 375.275 194.296 372.794 196.023 370.318C196.678 386.475 196.004 402.918 194.857 419.035C194.37 425.872 194.149 432.924 192.611 439.614C188.353 425.203 181.47 414.791 168 407.474C159 402.586 149.165 400.597 139.049 399.78C139.643 398.782 140.122 397.694 140.639 396.652Z"/>
	<path fill="#341D49" d="M410.97 895.59C415.273 893.483 419.71 891.66 424.251 890.133C417.72 901.438 408.468 912.464 398.057 920.309C398.227 919.615 398.372 918.964 398.806 918.375C400.013 916.735 402.237 915.143 403.741 913.663C408.15 909.321 412.513 904.921 416.269 899.986C417.364 898.547 418.601 897.094 418.349 895.176C416.867 894.146 413.708 895.743 411.735 895.645C411.479 895.632 411.225 895.608 410.97 895.59Z"/>
	<path fill="#F595B9" d="M181.638 306.345C184.789 317.897 184.378 330.242 179.194 341.188C175.466 349.061 169.373 355.098 161.075 358.007C150.239 361.805 137.617 360.638 127.397 355.613C114.947 349.492 106.992 338.802 102.718 325.782C96.0057 305.329 100.413 283.257 110.042 264.502C128.849 227.869 166.787 202.894 205.18 190.608C247.968 176.917 305.617 175.114 346.087 196.298C364.302 205.833 378.905 220.697 385.059 240.616C390.789 259.16 388.618 281.648 379.412 298.753C368.444 319.135 349.287 329.191 327.924 335.629C346.562 338.897 363.734 344.8 378.665 356.814C396.538 371.185 407.979 392.061 410.477 414.858C413.244 440.523 407.352 466.604 390.885 486.908C363.224 521.015 319.063 530.017 277.715 534.258C261.488 535.801 245.216 536.814 228.923 537.293C191.821 538.656 145.542 540.226 115.267 515.317C103.634 505.745 95.8856 492.622 94.5184 477.508C93.0978 463.352 97.4575 449.222 106.608 438.328C114.723 428.911 126.232 423.084 138.626 422.117C147.949 421.45 158.419 423.489 165.529 429.915C172.875 436.554 174.749 444.923 175.052 454.353C171.89 451.665 168.155 449.631 164.008 449.001C159.114 448.257 153.754 450.438 149.986 453.477C145.067 457.445 142.487 463.257 142.035 469.485C141.335 479.134 144.382 488.315 150.864 495.527C164.82 511.053 189.402 514.852 209.165 515.848C248.012 517.806 299.979 513.005 329.952 485.665C346.704 470.385 357.413 449.723 358.38 426.952C359.262 406.179 352.081 384.743 337.845 369.418C325.673 356.572 308.939 349.025 291.253 348.407C283.467 348.158 269.58 349.889 264.073 356.099C262.824 357.508 262.766 359.15 262.605 360.934C261.281 375.626 262.069 391.061 262.031 405.816C261.977 426.184 261.42 446.557 261.624 466.923C261.638 473.034 260.552 484.181 262.011 489.5C239.191 492.346 214.206 493.517 191.397 489.759C195.783 485.422 200.609 481.488 204.671 476.828C209.379 471.425 212.954 464.974 214.546 457.958C218.363 441.13 218.591 422.75 219.271 405.545L221.279 341.11C221.934 316.487 224.195 288.563 222.403 264.255C221.431 251.078 218.963 243.279 208.628 234.396C221.685 228.707 236.916 227.958 251.003 228.274C266.995 228.633 281.373 229.098 293.012 241.299C290.541 240.422 288.029 239.646 285.397 239.467C281.129 239.177 277.214 240.442 274.079 243.386C269.913 247.299 267.614 253.192 266.328 258.659C264.089 268.175 264.252 278.035 263.957 287.74C263.561 301.891 263.267 316.044 263.075 330.2C276.644 330.211 290.721 328.723 303.231 323.132C318.768 316.189 330.585 304.239 336.569 288.218C342.892 271.29 343.802 250.419 336.107 233.781C329.617 219.749 317.324 210.481 303.062 205.246C273.897 194.54 231.743 199.637 204.175 212.733C181.924 223.303 163.99 241.059 155.742 264.493C151.948 275.273 150.147 287.717 155.413 298.351C157.811 303.192 161.308 307.335 166.63 308.954C172.336 310.691 176.656 308.934 181.638 306.345Z"/>
	<path fill="#F595B9" d="M652.465 559.793C670.074 558.728 687.691 559.259 705.309 558.315L748.467 556.083C782.662 554.362 836.561 551.233 863.523 575.243C872.657 583.5 878.083 595.086 878.577 607.388C879.28 621.473 874.319 635.253 864.8 645.657C849.758 662.131 828.626 667.358 807.516 671.405C837.023 675.417 868.04 682.349 886.994 707.533C900.362 725.295 903.008 748.088 899.783 769.606C895.727 796.01 881.298 819.702 859.701 835.423C830.138 857.187 791.037 867.42 754.509 864.762C743.324 863.976 730.886 863.621 720.029 860.685C721.128 859.625 724.977 861.213 726.811 860.731L727.215 860.015C726.847 854.821 727.921 849.489 727.099 844.363C727.081 844.253 726.839 842.929 726.87 842.729C726.917 842.431 727.087 842.167 727.195 841.886L726.805 841.483C725.523 841.494 724.192 841.611 723.043 840.95C722.819 840.821 722.604 840.678 722.384 840.542C733.668 840.502 744.44 840.183 755.678 838.969C760.202 837.354 765.893 837.332 770.672 836.095C790.81 830.882 810.82 821.292 825.259 805.966C839.862 790.498 847.57 769.771 846.623 748.52C846.039 731.97 840.65 716.268 828.322 704.823C801.227 679.669 755.484 685.073 721.582 686.413C722.855 721.646 721.98 757.186 721.963 792.452L721.992 812.586C704.877 811.244 687.791 809.553 670.745 807.514C662.452 806.592 653.876 805.075 645.551 804.847C670.814 781.356 674.636 756.703 675.8 724.004C676.434 706.17 676.018 688.185 676.019 670.333C676.021 644.529 677.949 615.415 671.611 590.402C669.304 581.298 665.143 572.5 658.737 565.567C656.811 563.483 654.624 561.63 652.465 559.793Z"/>
	<defs>
		<linearGradient id="gradient_0" gradientUnits="userSpaceOnUse" x1="728.49957" y1="851.51495" x2="739.04681" y2="851.80658">
			<stop offset="0" stop-color="#80A4B3"/>
			<stop offset="1" stop-color="#AE9AB6"/>
		</linearGradient>
	</defs>
	<path fill="url(#gradient_0)" d="M722.384 840.542C733.668 840.502 744.44 840.183 755.678 838.969C755.471 839.103 755.268 839.245 755.056 839.372C751.118 841.736 739.941 838.881 738.744 843.155C737.719 846.816 739.791 852.065 739.291 856.177C739.027 858.351 738.944 860.217 737.74 862.133C740.851 863.857 753.598 862.702 754.509 864.762C743.324 863.976 730.886 863.621 720.029 860.685C721.128 859.625 724.977 861.213 726.811 860.731L727.215 860.015C726.847 854.821 727.921 849.489 727.099 844.363C727.081 844.253 726.839 842.929 726.87 842.729C726.917 842.431 727.087 842.167 727.195 841.886L726.805 841.483C725.523 841.494 724.192 841.611 723.043 840.95C722.819 840.821 722.604 840.678 722.384 840.542Z"/>
	<path fill="#311E5E" d="M761.082 576.21C775.435 575.054 791.652 575.992 804.575 582.887C813.37 587.58 819.617 595.4 822.4 604.958C825.357 615.11 824.222 626.734 819.089 635.995C811.4 649.869 796.9 656.943 782.239 661.173C762.386 665.727 742.183 664.864 721.984 663.873C721.985 650.36 722.467 636.85 722.553 623.337C722.642 609.47 722.34 595.547 722.948 581.694C735.505 578.917 748.252 577.084 761.082 576.21Z"/>
	<path fill="#4BB3AE" d="M759.54 605.189C765.91 604.468 773.597 604.544 779.919 605.812C785.274 606.886 790.815 609.212 793.8 614.027C796.238 617.959 796.637 623.132 795.571 627.563C794.08 633.757 790.142 637.372 784.89 640.468C774.654 645.983 764.075 646.121 752.744 646.048C751.539 633.488 752.917 618.869 753.66 606.232C755.569 605.666 757.573 605.466 759.54 605.189Z"/>
	<path fill="#4BB3AE" d="M461.133 150.016C460.852 156.566 459.356 163.918 460.395 170.376C460.795 172.861 461.738 175.06 463.861 176.531C465.759 177.851 468.11 178.345 470.378 177.899C473.306 177.296 475.082 175.181 475.647 172.312C476.693 166.998 474.699 160.946 474.313 155.574C473.124 139.021 478.46 119.084 487.841 105.389C494.46 95.7262 504.582 88.5227 516.224 86.4636C526.945 84.5676 537.666 86.8746 546.56 93.1018C560.069 102.561 565.158 116.354 567.936 132.034L555.739 132.076C552.174 120.218 547.702 109.269 536.218 102.98C529.837 99.4844 522.005 98.9827 515.121 101.235C505.961 104.231 497.924 112.106 493.754 120.674C491.868 124.547 490.224 128.558 488.601 132.548C486.307 137.784 485.545 143.866 484.959 149.503C513.344 149.706 541.802 149.081 570.201 149.052C569.91 156.421 567.05 168.542 571.907 174.844C573.306 176.66 575.319 177.636 577.59 177.858C579.306 178.026 580.719 177.516 581.985 176.343C587.117 171.593 583.91 155.962 583.972 149.03L610.406 149.013C612.605 177.789 616.012 203.571 622.169 231.79C606.524 223.612 593.426 211.768 576.996 204.775C557.99 196.686 535.694 195.548 516.432 203.35C509.735 206.136 503.374 209.67 497.472 213.887C485.308 222.579 466.572 240.407 460.753 254.256C467.695 252.107 474.428 247.589 480.595 243.782C496.126 234.193 512.281 224.759 530.647 222.02C544.078 220.078 557.784 221.919 570.226 227.338C593.962 237.564 615.049 260.388 643.304 251.316C658.053 246.581 669.707 227.697 679.333 216.184C699.925 191.556 725.989 166.581 758.321 159.62C778.431 155.291 800.373 157.456 817.893 168.851C829.644 176.494 838.842 187.488 841.696 201.468C844.092 213.207 841.299 225.517 834.694 235.443C828.061 245.41 816.876 254.135 804.913 256.34C797.623 257.684 791.664 255.352 785.706 251.395C794.225 248.141 801.781 243.894 807.768 236.84C813.313 230.306 815.876 222.321 815.104 213.755C814.296 205.641 810.349 198.164 804.106 192.919C801.143 190.508 797.837 188.554 794.298 187.119C782.261 182.155 769.15 182.153 756.468 184.315C728.579 189.069 704.486 206.408 685.139 226.337C671.198 240.696 657.437 257.464 637.743 263.915C616.372 270.915 597.247 258.215 577.773 251.414C565.362 247.08 551.848 244.086 538.648 244.222C506.627 244.55 488.082 258.839 459.876 267.967C448.22 271.74 435.143 273.162 422.967 274.243C423.985 264.196 425.886 254.184 427.165 244.156C431.158 212.874 435.038 181.469 436.528 149.951L461.133 150.016Z"/>
	<path fill="#F6D2C6" d="M610.147 559.218C620.383 558.676 632.224 558.315 642.282 560.323C639.683 562.891 636.652 565.051 633.942 567.514C626.793 574.013 623.139 583.256 620.966 592.49C616.644 610.853 616.993 631.433 616.985 650.237C616.973 675.105 617.775 700.244 616.507 725.068C615.43 746.171 612.12 766.45 595.607 781.185C578.248 796.674 552.795 801.042 530.251 799.788C499.689 798.087 470.854 784.165 463.25 752.147C459.781 737.54 460.389 721.901 460.437 706.979L460.506 654.981C460.418 633.682 461.688 610.086 454.915 589.675C452.243 581.622 448.137 575.531 442.518 569.253L435.372 562.171C456.638 560.888 478.061 560.698 499.36 560.497C503.733 560.456 526.527 559.321 529.027 561.774C526.524 564.537 522.944 566.631 520.136 569.14C512.641 575.837 508.635 585.938 506.453 595.505C500.785 620.347 501.971 659.515 501.997 685.412C502.011 699.789 501.022 714.913 503.221 729.15C504.132 735.047 506.097 740.933 509.342 745.966C514.648 754.195 523.261 759.6 532.776 761.562C544.378 763.955 556.877 762.271 566.815 755.609C575.508 749.781 580.337 740.167 582.24 730.08C585.552 712.52 584.523 692.605 584.524 674.695C584.524 652.437 585.218 629.353 582.279 607.246C581.164 598.864 579.385 590.371 575.748 582.685C572.423 575.659 568.131 570.896 562.014 566.186C560.365 564.917 558.065 563.555 556.897 561.85L557.288 561.153C564.509 558.775 599.486 559.677 610.147 559.218Z"/>
	<path fill="#F6D2C6" d="M575.452 288.258C585.301 288.029 595.156 288.158 604.996 288.643C600.176 294.443 593.98 298.274 590.444 305.254C583.344 319.269 582.477 335.226 581.731 350.621C580.69 372.139 580.978 393.71 581.002 415.247C581.018 429.437 581.706 444.116 579.402 458.16C577.826 467.761 574.622 478.01 569.061 486.087C558.328 501.674 542.032 511.384 523.497 514.634C503.376 518.161 479.395 515.14 462.464 503.067C452.145 495.709 445.159 485.467 441.603 473.325C437.217 458.349 438.129 441.64 438.376 426.174C438.826 408.107 439.038 390.034 439.012 371.961C439.015 358.579 439.395 344.976 437.09 331.742C434.468 316.692 428.272 305.58 415.719 296.741C413.196 295.123 410.945 293.38 408.669 291.43C424.368 289.034 440.958 290.003 456.834 289.949C473.22 289.893 489.558 289.3 505.951 289.639C501.697 292.753 497.398 295.794 494.004 299.881C488.404 306.624 485.41 315.056 483.535 323.513C479.342 342.431 479.809 363.277 479.472 382.586C479.15 400.997 478.484 419.601 480.121 437.968C481.245 450.579 483.834 464.408 494.161 472.887C501.524 478.932 511.458 480.673 520.741 479.712C529.818 478.772 538.219 475.565 544.095 468.241C548.198 463.128 550.649 456.789 551.92 450.407C554.859 435.648 554.055 420.002 554.046 405.007C554.033 384.296 554.142 363.43 552.025 342.804C550.409 327.063 547.751 310.556 536.68 298.452C533.546 295.025 529.452 292.127 525.846 289.197C542.207 288.077 559.034 288.573 575.452 288.258Z"/>
	<path fill="#F595B9" d="M755.802 424.001C757.67 419.647 760.395 415.717 762.396 411.424C769.081 396.73 776.025 382.155 783.224 367.706C799.777 334.036 823.898 274.112 860.841 259.24C873.868 253.996 889.533 253.68 902.503 259.315C910.808 262.922 918.664 269.648 921.877 278.304C924.107 284.311 923.869 289.916 922.796 296.096C913.248 286.984 903.066 282.538 889.704 282.894C872.526 283.353 858.463 293.225 847.13 305.364C809.572 345.597 785.235 409.4 763.044 459.602C754.269 479.455 746.586 501.029 732.227 517.627C720.74 530.905 704.731 539.541 687.036 540.185C675.494 540.605 664.71 537.764 656.157 529.686C649.496 523.464 645.602 514.837 645.343 505.727C645.163 497.277 648.364 489.104 654.235 483.024C660.66 476.399 669.197 474.047 678.171 473.996C679.586 473.991 681.001 474.004 682.415 474.036C678.386 479.093 675.423 484.466 676.092 491.184C676.549 495.771 678.82 499.82 682.416 502.688C687.415 506.673 693.959 508.185 700.244 507.404C711.878 505.958 721.255 497.838 728.077 488.811C733.568 481.544 745.545 459.188 746.072 450.176C749.126 443.216 754.996 431.34 755.802 424.001Z"/>
	<path fill="#F6D2C6" d="M611.855 289.499C614.37 288.988 616.842 288.66 619.403 288.507C635.463 287.545 651.595 288.316 667.671 287.93C680.895 287.612 694.103 287.102 707.333 287.036C711.783 287.013 716.41 286.7 720.844 287.001C722.271 287.098 723.018 287.327 724.074 288.269C722.769 291.595 715.077 295.259 712.125 297.633C705.598 302.881 700.883 311.806 700.134 320.109C699.595 326.078 700.436 332.121 701.898 337.905C705.782 353.261 728.532 411.294 737.679 421.866C740.149 424.721 743.659 427.39 747.585 427.541C751.033 427.674 753.388 426.306 755.802 424.001C754.996 431.34 749.126 443.216 746.072 450.176C745.265 451.197 744.408 452.157 743.502 453.09C739.038 457.691 732.634 460.879 726.163 460.871C717.049 460.86 709.746 455.356 704.144 448.705C694.302 437.019 688.102 421.084 681.443 407.38L654.545 351.943C648.222 339.15 641.924 326.058 634.321 313.975C626.786 302 621.87 299.306 612.284 289.924L611.855 289.499Z"/>
	<path fill="#4BB3AE" d="M391.75 819.208C398.993 818.617 406.493 818.888 413.761 818.929C474.91 819.279 535.343 835.386 593.934 851.394C612.681 856.516 631.191 861.984 649.663 868.013C656.759 870.329 663.999 872.327 670.951 875.047C657.286 873.882 643.82 874.581 630.176 872.39C611.094 869.326 592.371 864.029 573.583 859.56C541.638 851.961 509.594 845.174 476.88 841.887C438.032 838.188 390.246 836.755 352.792 849.185C339.539 853.583 323.11 862.062 316.804 875.305C314.025 881.108 313.751 887.796 316.044 893.806C320.354 905.365 331.022 910.955 341.625 915.583C336.705 916.135 331.766 916.792 326.827 917.152C311.467 918.271 294.449 916.039 282.471 905.487C275.914 899.71 271.631 891.871 271.113 883.083C270.511 872.881 275.322 863.211 281.975 855.758C306.22 828.598 357.13 821.292 391.75 819.208Z"/>
	<path fill="#4BB3AE" d="M546.916 588.899C547.969 588.986 548.754 589.1 549.682 589.637C553.751 591.991 555.84 597.426 557.063 601.758C558.99 608.585 559.97 615.866 560.582 622.921C562.206 641.652 564.174 719.547 556.488 732.443C554.466 735.835 552.007 737.203 548.282 738.164C546.773 738.207 545.204 738.298 543.711 738.033C541.18 737.583 538.858 736.242 537.416 734.092C529.147 721.76 532.411 633.048 535.515 614.926C536.976 606.393 539.397 594.218 546.916 588.899Z"/>
	<path fill="#4BB3AE" d="M858.353 453.719C869.763 453.094 881.078 456.097 890.676 462.298C900.5 468.742 907.58 478.68 909.928 490.236C911.935 500.118 910.693 511.875 904.847 520.325C899.486 528.075 890.615 532.99 881.49 534.652C885.088 527.851 888.596 521.108 888.729 513.224C888.856 505.703 885.672 498.814 880.503 493.482C871.835 484.541 859.191 481.716 847.145 481.451C824.797 481.485 802.583 494.833 784.919 507.505C779.41 511.456 774.196 515.816 768.598 519.639C771.629 515.361 775.201 511.391 778.683 507.478C799.729 483.834 824.52 455.693 858.353 453.719Z"/>
	<path fill="#4BB3AE" d="M752.526 711.477C768.671 709.903 792.352 711.658 805.323 722.195C812.872 728.328 816.852 736.871 817.813 746.451C819.434 761.43 814.972 776.433 805.428 788.091C791.857 804.492 771.445 810.915 750.866 812.694C741.493 813.504 731.344 813.596 721.992 812.586L721.963 792.452C744.92 794.143 772.229 796.604 791.068 780.533C797.447 775.091 801.446 768.242 802.082 759.752C802.633 752.416 801.424 744.601 796.395 738.911C791.986 733.923 785.444 731.521 778.903 731.293C770.266 731.039 761.881 734.22 755.587 740.14C754.473 741.182 753.413 742.282 752.413 743.434C752.81 732.786 752.848 722.128 752.526 711.477Z"/>
	<path fill="#4BB3AE" d="M332.184 715.209C335.418 714.921 338.741 715.032 341.989 715.009C342.721 732.25 343.297 751.041 338.557 767.742C332.763 788.163 320.791 802.651 302.22 812.914C299.789 814.179 297.243 815.137 294.692 816.127C308.202 784.24 308.003 750.581 308 716.607L332.184 715.209Z"/>
	<path fill="#4BB3AE" d="M289.25 375.314C302.485 376.872 314.452 380.265 322.99 391.234C331.849 402.617 334.835 418.825 332.895 432.888C330.671 449.006 322.075 462.705 309.083 472.36C295.068 482.774 279.018 487.006 262.011 489.5C260.552 484.181 261.638 473.034 261.624 466.923C278.577 466.101 295.175 464.327 307.283 450.952C314.735 442.72 317.622 432.655 316.942 421.696C316.422 413.313 313.766 404.484 307.215 398.822C300.92 393.381 294.654 393.454 286.971 392.539C287.41 386.948 287.391 380.629 289.25 375.314Z"/>
	<path fill="#4BB3AE" d="M520.223 321.741C521.173 321.872 521.725 322.017 522.537 322.576C527.065 325.692 528.622 337.766 529.302 342.752C531.679 360.19 534.866 441.746 525.667 453.004C523.981 455.069 521.622 455.454 519.122 455.79C517.105 455.316 515.27 454.841 513.744 453.351C508.907 448.627 508.005 432.395 507.836 425.938C507.212 401.993 506.296 355.911 513.182 334.256C514.721 329.415 516.7 325.443 520.223 321.741Z"/>
	<path fill="#4BB3AE" d="M607.105 814.519C640.694 832.213 684.794 838.15 722.384 840.542C722.604 840.678 722.819 840.821 723.043 840.95C724.192 841.611 725.523 841.494 726.805 841.483L727.195 841.886C727.087 842.167 726.917 842.431 726.87 842.729C726.839 842.929 727.081 844.253 727.099 844.363C727.921 849.489 726.847 854.821 727.215 860.015L726.811 860.731C724.977 861.213 721.128 859.625 720.029 860.685C708.213 859.608 695.877 855.773 684.386 852.823C656.404 845.639 628.904 837.262 601.248 828.957C595.302 827.172 582.797 824.669 578.097 821.707C581.222 820.477 585.624 820.942 589.027 820.406C595.423 819.397 601.211 817.082 607.105 814.519Z"/>
	<path fill="#4BB3AE" d="M649.811 598.78C649.961 598.92 650.129 599.043 650.26 599.201C651.621 600.846 652.174 604.452 652.66 606.542C658.198 630.377 657.114 655.345 657.122 679.637C657.129 698.76 657.722 718.235 654.881 737.201C651.243 761.489 644.361 782.973 623.92 797.996C621.852 799.4 619.977 800.514 617.639 801.448C627.84 791.208 634.923 781.071 639.191 767.179C645.449 746.809 644.151 724.601 644.065 703.516C643.922 668.644 642.281 633.038 649.811 598.78Z"/>
	<path fill="#4BB3AE" d="M750.391 383.539C749.208 381.478 748.074 379.403 747.083 377.241C740.398 362.657 731.742 338.139 737.713 322.541C740.224 315.982 745.323 309.953 751.85 307.157C756.187 305.3 761.307 304.882 765.734 306.681C771.62 309.072 775.666 315.279 778.087 320.917L778.175 326.606C776.812 331.986 772.313 339.297 769.761 344.588C763.635 357.287 757.984 371.769 750.391 383.539Z"/>
	<path fill="#4BB3AE" d="M651.296 401.374C653.798 403.973 659.655 421.76 661.548 426.312C664.996 434.605 669.742 442.206 674.358 449.881C660.611 451.13 649.144 455.398 639.292 465.44C627.338 477.623 622.849 492.23 623.086 509.015C623.571 514.087 624.274 518.963 625.444 523.93C623.763 521.412 622.068 518.89 620.566 516.259C616.471 509.084 614.773 501.433 614.883 493.202C615.207 468.863 630.183 452.726 640.632 432.209C645.622 422.412 648.413 411.92 651.296 401.374Z"/>
	<path fill="#4BB3AE" d="M330.581 561.885C333.074 561.925 337.041 561.796 338.958 563.633C341.799 566.355 342.396 573.764 342.747 577.54C343.433 584.923 343.027 592.563 343.012 599.976L342.923 639.07C335.18 638.932 327.422 638.996 319.677 638.963L310.971 638.266C310.923 633.753 311.374 629.195 311.831 624.705C313.518 608.143 318.508 603.146 327.216 589.776C330.044 585.433 332.736 580.797 333.707 575.638C334.704 570.337 333.478 566.302 330.581 561.885Z"/>
	<path fill="#4BB3AE" d="M615.207 334.826C619.875 338.079 622.087 344.411 623.498 349.715C627.348 364.179 626.407 411.728 623.169 426.65C621.19 435.769 618.085 443.492 613.452 451.573L609.648 458.196C609.357 430.776 605.45 357.002 615.207 334.826Z"/>
	<path fill="#4BB3AE" d="M828.216 510.185C828.562 510.138 828.909 510.097 829.257 510.075C837.138 509.578 845.497 510.343 851.601 515.936C855.134 519.117 857.174 523.632 857.224 528.386C857.235 530.49 856.766 532.893 855.041 534.292C854.007 535.131 852.948 535.306 851.671 535.322C846.78 535.384 841.54 534.096 836.668 533.495C829.209 532.579 821.717 531.955 814.209 531.627C803.123 531.302 792.261 531.903 781.208 532.646C793.681 521.544 811.494 512.116 828.216 510.185Z"/>
	<path fill="#4BB3AE" d="M433.158 605.713C433.385 605.901 433.645 606.056 433.838 606.278C435.044 607.663 435.468 611.374 435.808 613.186C439.276 631.678 438.869 650.555 438.472 669.281C438.048 689.285 437.168 709.274 437.561 729.288C437.704 737.426 438.137 745.556 438.858 753.663C439.253 758.138 440.142 762.709 440.192 767.185L439.446 767.494C434.711 757.52 432.931 744.862 431.726 733.89C429.358 712.318 429.839 690.43 429.827 668.763C429.816 648.993 428.445 624.887 433.158 605.713Z"/>
	<path fill="#4BB3AE" d="M593.927 507.361C596.547 509.863 598.416 515.511 600.389 518.733C605.701 527.41 612.245 534.464 619.957 541.054C613.539 540.245 606.794 540.512 600.324 540.481C589.34 540.535 578.356 540.418 567.375 540.129C558.137 539.934 548.811 539.522 539.679 538.062C565.563 532.454 576.542 527.518 593.927 507.361Z"/>
	<path fill="#4BB3AE" d="M306.314 258.516C307.453 258.388 308.603 258.295 309.746 258.462C311.862 258.773 313.798 260.21 314.905 262.007C317.854 266.79 316.606 275.463 315.4 280.705C313.125 290.598 307.282 298.43 298.751 303.805C296.208 305.094 293.711 305.844 290.977 306.605C290.833 299.725 291.377 292.437 292.485 285.657C294.186 275.246 297.367 264.925 306.314 258.516Z"/>
	<path fill="#4BB3AE" d="M212.77 736.921C213.507 737.679 213.514 738.604 213.55 739.6C214.042 752.973 210.804 779.928 201.041 789.73C199.655 791.122 197.255 792.801 195.237 792.761C195.016 791.229 196.043 789.509 196.648 788.127C197.047 787.126 197.437 786.118 197.755 785.087C201.279 773.656 197.265 762.568 191.829 752.543C198.643 747.124 205.884 742.255 212.77 736.921Z"/>
	<path fill="#4BB3AE" d="M399.63 323.806C401.937 324.472 403.92 325.252 405.792 326.799C416.637 335.763 413.53 356.043 414.968 368.392L415.06 369.156C413.152 365.572 411.136 362.186 408.847 358.832C402.224 349.989 393.63 341.823 384.051 336.29C389.971 332.528 394.681 328.809 399.63 323.806Z"/>
	<path fill="#4BB3AE" d="M181.872 264.695C184.817 264.28 188.211 264.033 191.069 265.004C193.796 265.93 195.33 267.86 196.526 270.404C200.452 278.751 200.907 300.443 197.911 309.131C196.733 307.289 196.996 304.76 196.8 302.579C195.718 290.537 194.095 279.902 186.133 270.406C184.672 268.663 182.889 267.228 181.339 265.562L181.872 264.695Z"/>
	<path fill="#4BB3AE" d="M196.111 611.607C198.967 611.343 201.71 611.22 204.497 612.039C209.666 613.559 213.82 617.11 216.227 621.921C219.442 628.349 220.117 639.356 217.812 646.152L216.983 646.284C215.09 636.152 211.759 622.69 201.758 617.421C199.273 616.112 195.258 615.071 193.484 612.916L193.875 612.168L196.111 611.607Z"/>
	<path fill="#4BB3AE" d="M420.171 484.323C422.277 488.804 423.029 494.977 424.162 499.836C419.039 503.119 413.224 505.531 407.671 508.005C406.51 508.553 405.337 508.921 404.114 509.297C404.395 506.7 410.46 499.903 412.098 497.414C414.917 493.129 417.339 488.602 420.171 484.323Z"/>
</svg>
