<?xml version="1.0" encoding="utf-8" ?>
<svg xmlns="http://www.w3.org/2000/svg" xmlns:xlink="http://www.w3.org/1999/xlink" width="1024" height="1024">
	<path fill="#38267A" d="M799.148 244.009C789.172 248.783 779.513 251.074 768.483 249.024C755.653 246.762 744.319 239.321 737.142 228.449C729.078 216.474 727.365 200.93 730.243 186.988C733.433 171.535 743.826 157.932 756.915 149.398C773.393 138.655 794.268 135.658 813.332 139.868C833.881 144.281 851.81 156.734 863.121 174.448C875.26 193.799 878.449 217.038 873.347 239.206C864.318 278.446 828.997 314.968 795.386 335.782C807.498 353.208 811.839 370.471 808.703 391.643C805.846 410.933 795.673 429.927 779.876 441.725C779.059 481.641 779.783 521.708 779.778 561.644L779.767 593.476C779.756 599.99 780.055 606.67 779.245 613.139C783.336 607.461 787.41 601.949 792.482 597.083C804.601 585.456 820.525 577.753 837.546 578.137C852.109 578.558 865.895 584.799 875.82 595.464C886.005 606.265 891.463 620.244 890.888 635.121C890.415 647.345 885.61 659.318 876.525 667.642C868.481 675.01 858.715 678.544 847.797 677.909C838.653 677.377 831.31 673.237 825.25 666.523C817.445 687.32 812.461 708.456 807.417 730.024C801.366 755.899 797.326 779.565 782.777 802.429C791.684 802.543 813.584 799.629 820.263 805.02C822.988 807.22 824.665 810.551 824.969 814.026C825.258 817.335 824.301 820.758 822.018 823.222C820.077 825.318 817.404 826.403 814.595 826.654C805.875 827.432 796.362 826.595 787.552 826.597L727.505 826.611L577.831 826.599C551.614 826.602 525.28 826.097 499.075 826.729C499.116 826.874 499.156 827.02 499.199 827.164C501.077 833.406 501.285 840.574 500.629 847.033C499.522 857.933 494.782 867.384 486.217 874.296C477.405 881.407 465.796 884.406 454.578 882.992C451.063 882.549 447.668 881.172 445.49 878.26C442.867 874.754 443.157 871.091 443.841 867.038C450.49 860.617 455.018 861.704 458.825 851.378C458.498 851.055 458.173 850.728 457.824 850.428C451.951 845.364 443.676 842.063 436.299 839.974C377.364 823.286 309.009 864.935 248.991 868.802C216.612 870.888 182.904 864.331 158.028 842.162C141.463 827.413 131.487 806.649 130.324 784.5C129.187 764.386 135.623 744.682 149.204 729.684C161.317 716.307 177.932 707.964 196.014 707.257C213.615 706.569 230.025 713.023 242.85 724.949C241.79 714.949 242.52 704.166 242.515 694.1L242.506 633.599L242.568 440.782C239.164 437.83 236.004 434.611 233.116 431.153C217.553 412.464 212.365 390.146 214.638 366.259C215.227 360.073 216.993 353.832 219.243 348.056C222.134 340.636 226.209 333.478 229.564 326.242L249.926 281.905L267.847 243.39C271.311 235.935 274.513 228.118 278.579 220.985C280.293 217.978 282.326 215.73 285.044 213.595C288.433 210.933 293.328 211.331 297.465 211.205C325.749 210.339 354.317 211.186 382.63 211.203L549.596 211.23L640.27 211.204L667.897 211.174C674.329 211.172 680.91 210.929 687.297 211.771C704.156 213.994 716.107 234.365 725.529 246.704C728.415 250.671 731.344 254.607 734.314 258.512C745.164 269.881 755.919 281.862 765.593 294.267C767.202 293.111 768.636 291.703 770.107 290.377C784.158 278.862 794.069 261.207 799.148 244.009Z"/>
	<path fill="#EED3D2" d="M655.991 234.992C689.426 235.85 707.32 236.899 734.314 258.512C745.164 269.881 755.919 281.862 765.593 294.267C741.017 315.13 715.563 326.347 684.413 333.818C678.034 312.901 672.322 291.723 666.445 270.658C663.124 258.755 659.96 246.697 655.991 234.992Z"/>
	<path fill="#885FC4" d="M683.166 419.317C684.556 420.962 685.696 423.231 686.934 425.03C689.815 429.216 692.96 432.646 696.808 435.968C713.537 450.412 735.166 452.444 756.304 450.943L756.362 804.007L480.78 803.991C481.632 748.003 480.924 691.915 480.932 635.914L480.932 582.397C480.93 569.398 481.436 556.065 479.566 543.167C477.772 530.191 472.892 517.836 465.335 507.136C451.552 487.706 429.029 474.778 405.677 470.884C381.023 466.772 356.229 471.699 335.768 486.325C316.099 500.386 304.561 520.998 300.544 544.577C298.42 556.863 298.941 569.673 298.941 582.098L298.962 629.55L298.992 797.85C280.556 802.8 262.7 807.279 243.431 804.831C244.782 803.563 246.134 802.288 247.396 800.93C256.52 791.107 262.232 778.668 264.412 765.485C266.844 750.788 265.921 735.05 265.912 720.175L265.904 655.345L265.881 525.912C265.873 500.995 266.343 475.96 265.595 451.055C276.981 452.414 289.581 452.209 300.735 449.393C318.032 445.027 331.586 434.883 340.716 419.583C345.724 428.195 353.758 435.772 362.306 440.807C378.153 450.14 398.815 452.536 416.559 447.892C432.179 443.953 445.602 433.988 453.893 420.178C458.472 428.313 464.955 435.024 472.685 440.24C488.072 450.623 508.249 453.756 526.316 450.08C544.821 446.314 559.399 435.009 569.683 419.464C575.08 427.57 581.013 434.546 589.279 439.868C604.662 449.774 625.094 452.193 642.772 448.17C659.993 444.25 673.806 434.226 683.166 419.317Z"/>
	<path fill="#38267A" d="M613.162 470.75C615.473 470.517 617.801 470.513 620.122 470.516C647.207 470.556 673.294 482.281 692.276 501.449C703.401 512.643 711.337 526.604 715.264 541.891C719.931 560.668 718.117 590.071 718.111 610.201L718.059 700.072C722.093 700.84 726.031 701.483 729.232 704.296C732.44 707.115 733.299 711.295 733.431 715.389C733.637 721.82 734.175 736.557 733.005 742.289C732.502 744.755 731.275 747.199 729.492 748.986C727.445 751.036 724.863 752.127 722.024 752.538C711.901 754.001 699.192 752.895 688.818 752.878L621.75 752.859L550.001 752.907C538.626 752.912 526.443 753.777 515.151 752.606C512.014 752.28 508.532 751.74 506.003 749.738C502.75 747.161 501.453 743.627 501.045 739.595C500.459 733.804 500.252 716.603 501.387 711.321C501.857 709.134 502.772 707.019 504.247 705.32C507.907 701.103 513.178 700.733 518.356 700.299L518.303 614.92C518.287 593.3 516.395 565.796 521.401 545.094C524.937 530.473 532.236 517.393 542.102 506.11C559.805 485.867 586.33 472.496 613.162 470.75Z"/>
	<path fill="#44B4A5" d="M611.303 494.195C613.407 493.929 615.627 493.988 617.752 493.946C638.434 493.72 658.35 501.759 673.081 516.279C682.504 525.452 689.699 537.436 692.799 550.262C696.251 564.548 694.78 589.513 694.786 604.875C694.797 636.35 694.487 667.848 694.893 699.32C672.666 698.773 650.362 699.131 628.125 699.129L541.982 699.173C541.463 669.935 541.968 640.606 541.939 611.358L541.906 581.871C541.898 572.599 541.495 563.169 543.324 554.03C545.608 542.625 550.992 531.63 558.302 522.611C571.432 506.4 590.535 496.158 611.303 494.195Z"/>
	<path fill="#91D5CC" d="M622.409 545.461C623.188 545.447 623.982 545.433 624.757 545.522C627.064 545.79 629.508 547.173 630.813 549.107C632.003 550.868 632.184 553.088 631.804 555.135C631.413 557.234 630.127 558.653 628.816 560.245C622.275 568.185 614.72 575.468 607.765 583.06C601.252 590.169 580.566 614.533 574.196 618.59C573.117 618.802 571.961 618.938 570.873 618.698C568.989 618.282 567.114 616.906 566.079 615.292C564.827 613.34 564.573 610.619 565.306 608.422C566.269 605.536 613.685 553.367 619.354 547.762C620.288 546.839 621.276 546.116 622.409 545.461Z"/>
	<path fill="#91D5CC" d="M649.09 595.515C649.813 595.478 650.537 595.429 651.261 595.483C653.525 595.651 655.74 596.931 657.205 598.635C658.525 600.171 659.109 602.122 658.909 604.134C658.739 605.845 658.169 607.128 657.175 608.507C651.155 616.855 642.787 624.442 635.808 632.089C629.121 639.415 616.349 655.047 609.3 660.54C608.452 660.586 607.584 660.636 606.737 660.56C604.538 660.362 602.317 658.88 601.016 657.141C599.67 655.34 599.3 653.088 599.775 650.909C600.21 648.911 601.442 647.382 602.678 645.81C609.649 636.939 617.968 628.743 625.547 620.372C631.345 613.969 642.392 600.104 649.09 595.515Z"/>
	<path fill="#885FC4" d="M518.362 720.535L657.309 720.591L694.164 720.564C699.44 720.55 705.831 719.858 710.977 720.676C712.079 720.851 712.708 721.301 713.15 722.349C714.177 724.78 713.073 728.617 712.387 731.032C696.952 731.504 681.366 731.028 665.913 731.025L571.216 731.014L533.342 731.06C529.172 731.066 523.055 731.822 519.05 730.953C518.231 730.776 517.884 730.676 517.543 729.905C516.357 727.224 517.264 723.113 518.362 720.535Z"/>
	<path fill="#885FC4" d="M384.874 492.717C386.412 492.546 388.019 492.581 389.566 492.572C408.013 492.64 425.684 499.995 438.731 513.035C447.475 521.819 453.104 532.737 455.449 544.868C457.768 556.869 457.045 569.509 457.038 581.683L457.033 625.752L457.042 791.178C437.33 781.978 416.619 777.929 394.928 778.002C374.243 778.233 342.028 785.149 322.511 791.412L322.558 625.48L322.533 580.037C322.529 569.765 321.981 559.037 323.568 548.862C325.369 537.318 330.234 525.751 337.762 516.784C349.871 502.361 366.262 494.31 384.874 492.717Z"/>
	<path fill="#38267A" d="M419.482 610.113C424.396 609.823 429.166 610.504 433.442 613.096C438.765 616.323 442.234 622.008 443.542 628.006C444.986 634.627 445.153 675.24 443.86 682.882C443.305 686.165 442.117 689.22 440.235 691.971C436.396 697.581 431.119 700.227 424.611 701.469C419.947 701.802 415.399 701.194 411.258 698.886C405.853 695.874 402.157 690.401 400.672 684.465C398.916 677.447 399.083 637.916 400.372 630.306C400.96 626.785 402.24 623.416 404.138 620.393C407.8 614.606 412.922 611.552 419.482 610.113Z"/>
	<path fill="#EED3D2" d="M420.416 625.979C421.356 625.967 422.317 625.945 423.253 626.044C425.062 626.236 426.544 627.081 427.608 628.573C429.741 631.566 429.43 674.335 428.551 680.122C428.137 682.846 426.518 683.926 424.432 685.413C423.504 685.458 422.589 685.518 421.667 685.372C419.74 685.066 418.131 684.206 417.019 682.574C415.647 680.562 415.312 633.81 416.439 630.096C417.078 627.989 418.659 627.077 420.416 625.979Z"/>
	<path fill="#EED3D2" d="M339.491 235.25C348.704 235.109 357.918 235.051 367.132 235.078C358.109 270.563 346.806 305.521 337.507 340.95L276.057 340.957L247.862 340.949C256.265 323.323 264.539 305.636 272.685 287.89C280.867 270.47 289.433 253.138 296.991 235.44C311.143 235.683 325.338 235.443 339.491 235.25Z"/>
	<path fill="#44B4A5" d="M196.169 732.156C200.24 731.758 204.357 731.599 208.408 732.277C217.801 733.851 227.032 739.083 232.552 746.936C237.328 753.729 239.181 761.728 237.649 769.921C236.411 776.54 232.807 782.313 227.174 786.058C223.545 788.47 218.871 790.408 214.454 789.429C210.099 788.464 207.353 785.159 205.112 781.567C206.582 779.954 208.101 778.279 209.225 776.4C210.63 774.052 211.109 771.494 210.412 768.832C209.575 765.63 207.595 762.477 204.619 760.886C201.645 759.297 198.178 759.559 195.088 760.678C189.652 762.687 185.276 766.835 182.979 772.156C179.69 779.624 180.651 788.85 183.615 796.279C187.563 806.175 195.487 814.819 204.51 820.366C234.78 838.979 271.12 829.22 302.863 820.41L340.509 810.087C355.94 805.986 371.561 802.779 387.499 801.496C407.917 799.734 428.456 803.013 447.31 811.045C460.884 817.783 468.291 822.859 475.506 836.309C473.905 834.926 472.349 833.471 470.612 832.257C461.272 825.733 450.079 821.394 439.097 818.6C381.184 803.866 324.493 833.629 268.488 843.874C239.751 849.131 209.22 849.624 184.294 832.216C170.058 822.274 160.259 807.71 157.309 790.509C154.905 776.487 157.368 761.817 165.788 750.171C173.293 739.791 183.652 734.165 196.169 732.156Z"/>
	<path fill="#EED3D2" d="M480.102 236.008L542.857 236.026C543.732 247.654 546.115 259.449 547.761 271.016C551.024 294.354 554.427 317.672 557.97 340.969L542.75 340.949L465 340.947L474.68 274.911C476.604 262.02 479.006 248.991 480.102 236.008Z"/>
	<path fill="#885FC4" d="M563.805 235.988C586.769 236.348 609.765 235.592 632.726 236.144C635.93 248.521 640.091 260.759 643.869 272.975L664.981 340.812C636.243 340.708 607.506 340.756 578.769 340.956L569.369 273.527C567.591 261.071 566.261 248.322 563.805 235.988Z"/>
	<path fill="#885FC4" d="M389.333 239.971C389.604 238.429 389.796 237.154 390.633 235.791C391.244 235.644 391.311 235.611 392.037 235.538C400.145 234.726 412.34 235.523 420.87 235.535C431.938 235.551 444.875 234.713 455.695 235.709C456.804 235.811 457.405 235.951 458.256 236.728C455.146 250.035 453.968 264.312 452.067 277.851C449.119 298.842 445.77 319.848 443.317 340.898C415.252 340.708 387.186 340.672 359.121 340.789C369.638 307.364 378.148 273.177 389.333 239.971Z"/>
	<path fill="#D48FCE" d="M465.059 361.873C496.672 362.46 528.366 361.992 559.988 361.981C560.325 382.257 559.12 398.704 545.777 414.92C536.419 424.306 525.372 429.775 511.938 429.775C499.816 429.894 488.164 425.095 479.642 416.473C465.195 401.781 464.934 381.131 465.059 361.873Z"/>
	<path fill="#D48FCE" d="M694.365 361.863C725.16 362.695 756.14 362.028 786.957 361.941L787.097 364.245C788.191 383.566 786.734 401.588 773.319 416.657C772.876 417.097 772.429 417.533 771.978 417.964C763.089 426.448 751.92 430.233 739.702 429.888C727.708 429.55 716.003 424.97 707.758 416.106C693.639 400.928 693.794 381.271 694.365 361.863Z"/>
	<path fill="#D48FCE" d="M237.049 361.931C268.006 362.284 298.998 362.018 329.959 361.956C330.088 382.088 329.064 399.897 315.631 415.996C314.956 416.704 314.26 417.373 313.534 418.029C304.358 426.318 292.881 430.313 280.519 429.65C268.843 429.023 257.995 424.519 250.166 415.689C236.705 400.506 235.865 381.159 237.049 361.931Z"/>
	<path fill="#885FC4" d="M581.514 361.853C611.617 362.634 641.912 361.933 672.03 361.893C672.429 381.905 673.206 399.121 658.944 414.826C649.436 423.552 639.203 427.818 626.223 427.982C614.794 428.214 603.756 423.817 595.617 415.789C580.514 400.865 581.614 381.494 581.514 361.853Z"/>
	<path fill="#44B4A5" d="M792.867 166.197C800.04 165.705 807.779 167.236 814.516 169.658C828.257 174.599 838.824 183.918 845.054 197.169C852.354 212.693 851.078 229.447 845.285 245.236C832.616 279.763 798.141 310.985 765.232 326.304C768.18 323.462 771.733 321.191 774.888 318.555C781.309 313.191 787.249 307.58 793.039 301.54C805.083 289.112 815.36 273.353 820.917 256.974C825.724 242.809 830.125 224.143 823.033 209.969C819.869 203.645 814.456 198.311 807.606 196.196C802.428 194.598 796.177 194.513 791.386 197.318C788.014 199.292 785.26 202.932 784.347 206.741C783.016 212.294 785.602 216.968 788.339 221.564C784.988 224.157 781.638 226.377 777.369 227.101C772.964 227.849 768.666 226.623 765.096 223.997C759.547 219.915 756.166 213.293 755.32 206.531C754.21 197.658 757.059 188.406 762.558 181.415C770.008 171.946 781.208 167.563 792.867 166.197Z"/>
	<path fill="#885FC4" d="M353.356 361.727C365.007 362.187 376.709 361.965 388.371 361.968L442.854 361.878C442.421 382.371 444.142 398.568 429.304 414.712C426.67 417.167 424.035 419.403 420.967 421.306C410.713 427.601 398.377 429.558 386.678 426.746C375.477 424.014 365.826 416.931 359.861 407.064C353.116 395.922 352.838 384.419 352.886 371.791C352.898 368.536 352.567 364.87 353.356 361.727Z"/>
	<path fill="#44B4A5" d="M833.575 602.185C840.683 601.465 847.131 603.991 853.233 607.382C859.997 611.141 865.184 618.118 867.248 625.535C869.176 632.464 868.421 639.972 864.724 646.194C862.273 650.319 858.521 654.269 853.699 655.418C849.33 656.459 846.502 655.099 842.92 652.853C844.693 650.915 846.725 648.722 847.773 646.288C848.966 643.518 848.819 639.993 847.699 637.228C846.095 633.267 842.43 630.326 838.479 628.895C834.035 627.274 829.113 627.603 824.923 629.801C810.07 637.466 796.33 676.984 791.527 692.894C787.714 704.824 784.59 717.534 782.059 729.798C780.669 736.535 779.781 743.461 777.936 750.088C778.731 732.724 778.303 715.124 778.329 697.726C778.341 688.877 777.786 679.594 779.196 670.853C781.663 655.563 790.839 635.259 800.24 623.085C809.06 611.664 819.026 603.996 833.575 602.185Z"/>
	<path fill="#44B4A5" d="M203.31 630.059C206.979 629.864 210.691 630.287 213.614 632.715C215.806 634.537 217.081 636.99 217.952 639.662C220.287 646.828 220.461 654.903 221.052 662.382C221.818 672.093 222.405 681.988 223.547 691.651L217.715 686.911C207.566 678.482 197.582 666.72 193.374 654.024C191.629 648.76 190.801 642.306 193.553 637.249C195.575 633.531 199.325 631.139 203.31 630.059Z"/>
	<path fill="#44B4A5" d="M812.638 498.092C816.046 497.883 820.361 498.371 822.995 500.825C824.985 502.679 825.644 505.205 825.623 507.85C825.511 521.833 810.951 539.403 801.532 548.748C799.32 551.122 796.868 553.267 794.478 555.458C797.458 542.067 796.643 519.698 802.019 507.907C804.314 502.874 807.492 499.948 812.638 498.092Z"/>
</svg>
