<?xml version="1.0" encoding="utf-8"?>
<!-- Generator: Adobe Illustrator 23.1.0, SVG Export Plug-In . SVG Version: 6.00 Build 0)  -->
<svg version="1.1" id="Layer_1" xmlns="http://www.w3.org/2000/svg" xmlns:xlink="http://www.w3.org/1999/xlink" x="0px" y="0px"
	 width="704.2px" height="320px" viewBox="0 0 704.2 320" style="enable-background:new 0 0 704.2 320;" xml:space="preserve">
<style type="text/css">
	.st0{clip-path:url(#SVGID_2_);fill-rule:evenodd;clip-rule:evenodd;fill:#EF3C2A;}
	.st1{clip-path:url(#SVGID_2_);fill-rule:evenodd;clip-rule:evenodd;fill:#FFFFFF;}
	.st2{fill:#131213;}
	.st3{font-family:'Montserrat-Bold';}
	.st4{font-size:55px;}
	.st5{letter-spacing:-5;}
	.st6{letter-spacing:-2;}
	.st7{letter-spacing:-3;}
	.st8{font-size:30px;}
	.st9{letter-spacing:-1;}
</style>
<g>
	<defs>
		<rect id="SVGID_1_" x="-181.7" y="-137.2" width="1082.4" height="592.6"/>
	</defs>
	<clipPath id="SVGID_2_">
		<use xlink:href="#SVGID_1_"  style="overflow:visible;"/>
	</clipPath>
	<path class="st0" d="M316.6,73.2c-11.3-49.4-77.3-53.6-77.3-53.6v-6.8H202l-2,90.2l-2.7-2l-24.4,23.7l25.8,26.4l-2,90.2l34.6,1.4
		l2-56.3l65.1,67.8l24.4-27.8l-84.1-84.1C327.8,131.2,316.6,73.2,316.6,73.2 M237.9,51.5c0,0,40.9,1.1,46.1,27.8
		c0,0,4,28.5-48.1,31.2L237.9,51.5z M475.2,126.8c33.4-18.8,29.8-50.2,29.8-50.2c-10.2-54.1-80-56.9-80-56.9v-6.8h-33.9l-4.1,228.4
		h33.2c30.6,0,56.9-12.2,56.9-12.2c42.3-21.1,37.3-54.9,37.3-54.9C510.8,143.2,475.2,126.8,475.2,126.8 M425,52.9
		c0,0,33.2,1,38,25.8c0,0,4.4,24-38,29.8V52.9z M425,208.8v-57.6c0,0,53.9-5.5,59,27.8C484,179,485.9,212.7,425,208.8 M332.8,242h38
		V12.2h-33.9L332.8,242z M561.3,208.8v-57.6l120.7-8.8l-4.7-38.6l-115.9,12.9V58.3l134.9-17.6L692.1,0L561.3,23V12.2h-33.9V242h33.9
		v-4.1l136.3,4.7l1.4-33.9H561.3z M187.1,8.8L0,13.6v33.9h78l-9.5,191.8l38.6,0.7l4.7-192.5h75.2V8.8z"/>
	<path class="st1" d="M82.4,36.6h97v-1.3h-97V36.6z M643.7,231.1h44.8v-1.3h-44.8V231.1z M683,16.9l-79.3,14.9v1.4L683,18.3V16.9z
		 M682.3,8.8l-63,11.5v1.4l63-11.5V8.8z M361.7,53.6h1.4l2-35.2h-1.4L361.7,53.6z M401,174.2l2,57.6h1.4l-2-57.6H401z M269.2,210.4
		l30.3,33l1-1l-30.3-33L269.2,210.4z"/>
</g>
<text transform="matrix(1 0 0 1 512.8702 305.3862)"><tspan x="0" y="0" class="st2 st3 st4 st5">Y</tspan><tspan x="31.5" y="0" class="st2 st3 st4 st6">o!</tspan><tspan x="78" y="0" class="st2 st3 st4 st7">K</tspan><tspan x="115.2" y="0" class="st2 st3 st4 st6">a</tspan><tspan x="146.4" y="0" class="st2 st3 st4 st6">r</tspan><tspan x="167.4" y="0" class="st2 st3 st4">t</tspan></text>
<text transform="matrix(1 0 0 1 470.0597 295.6372)"><tspan x="0" y="0" class="st2 st3 st8 st9">b</tspan><tspan x="18.9" y="0" class="st2 st3 st8">y</tspan></text>
</svg>
