<svg xmlns="http://www.w3.org/2000/svg" width="24" height="24" viewBox="0 0 24 24">
<path d="M23.281,14.631l-2.206-1.725A8.415,8.415,0,0,0,21.127,12a8.681,8.681,0,0,0-.052-.906l2.208-1.726a1.081,1.081,0,0,0,.261-1.378L21.25,4.021a1.069,1.069,0,0,0-.94-.546,1.122,1.122,0,0,0-.387.069l-2.6,1.045a8.88,8.88,0,0,0-1.562-.907l-.4-2.761A1.062,1.062,0,0,0,14.3,0H9.7A1.06,1.06,0,0,0,8.643.911l-.4,2.771a9.2,9.2,0,0,0-1.56.908L4.076,3.542a1.067,1.067,0,0,0-1.317.469L.462,7.986A1.073,1.073,0,0,0,.722,9.37l2.206,1.724A8.742,8.742,0,0,0,2.876,12c0,.275.017.568.05.906L.718,14.633a1.083,1.083,0,0,0-.26,1.378L2.752,19.98a1.063,1.063,0,0,0,.94.545,1.144,1.144,0,0,0,.387-.068l2.6-1.045a9.015,9.015,0,0,0,1.563.907l.4,2.76A1.062,1.062,0,0,0,9.7,24h4.6a1.06,1.06,0,0,0,1.059-.911l.4-2.77a9.2,9.2,0,0,0,1.56-.908l2.61,1.048a1.07,1.07,0,0,0,.387.073,1.059,1.059,0,0,0,.93-.542L23.55,16A1.081,1.081,0,0,0,23.281,14.631Zm-2.915,4.88c0,.007-.024.02-.064.02h0l-2.61-1.048-.508-.2-.445.318a8.2,8.2,0,0,1-1.391.811l-.5.226-.078.543-.4,2.788A.078.078,0,0,1,14.3,23H9.7a.067.067,0,0,1-.07-.063l-.4-2.76-.078-.544-.5-.226A8,8,0,0,1,7.267,18.6l-.447-.322-.511.2L3.692,19.525a.077.077,0,0,1-.074-.045L1.336,15.533c-.026-.048-.025-.094,0-.112l2.208-1.727.433-.339-.054-.546c-.031-.317-.045-.574-.045-.809a7.653,7.653,0,0,1,.047-.8l.057-.55-.436-.341-2.2-1.72a.076.076,0,0,1-.014-.1l2.309-4c0-.01.024-.02.06-.02H3.7l2.61,1.048.508.2L7.267,5.4a8.136,8.136,0,0,1,1.391-.811l.5-.226.078-.543.4-2.789A.076.076,0,0,1,9.7,1h4.6a.068.068,0,0,1,.07.063l.4,2.761.078.545.5.225a7.9,7.9,0,0,1,1.386.805l.447.323.511-.2L20.31,4.475a.08.08,0,0,1,.074.046L22.667,8.47c.025.047.024.091,0,.11l-2.208,1.726-.437.341.058.552a7.456,7.456,0,0,1,.047.8,7.574,7.574,0,0,1-.046.8l-.061.553.439.343,2.2,1.72a.078.078,0,0,1,.025.086Z"/><path d="M12,8a4,4,0,1,0,4,4A4,4,0,0,0,12,8Zm0,7a3,3,0,1,1,3-3A3,3,0,0,1,12,15Z"/></svg>