<svg xmlns="http://www.w3.org/2000/svg" width="16" height="16" viewBox="0 0 16 16">
  <g id="Group_440" data-name="Group 440" transform="translate(24.016 31.993)">
    <rect id="Rectangle_398" data-name="Rectangle 398" width="16" height="16" transform="translate(-24.016 -31.993)" fill="none"/>
    <rect id="Rectangle_399" data-name="Rectangle 399" width="4" height="1.5" rx="0.75" transform="translate(-18.016 -17.493)"/>
    <path id="Path_331" data-name="Path 331" d="M-10.223-21.343A2.437,2.437,0,0,0-11.266-22.7v-3.3a4.694,4.694,0,0,0-4-4.574v-.676a.75.75,0,0,0-.75-.75.75.75,0,0,0-.75.75v.676a4.692,4.692,0,0,0-4,4.574v3.3a2.438,2.438,0,0,0-1.042,1.355,2.442,2.442,0,0,0,.229,1.913,2.428,2.428,0,0,0,2.138,1.187h6.851a2.426,2.426,0,0,0,2.137-1.187A2.442,2.442,0,0,0-10.223-21.343Zm-1.537,1.178a.942.942,0,0,1-.83.422h-6.851a.942.942,0,0,1-.83-.422.944.944,0,0,1-.1-.746.925.925,0,0,1,.474-.556,1.241,1.241,0,0,0,.632-1.11v-3.416a3.192,3.192,0,0,1,2.78-3.106,4.537,4.537,0,0,1,.47-.038,4.574,4.574,0,0,1,.468.038,3.191,3.191,0,0,1,2.782,3.106v3.416a1.239,1.239,0,0,0,.634,1.11.922.922,0,0,1,.472.556A.944.944,0,0,1-11.76-20.165Z"/>
  </g>
</svg>
