<svg xmlns="http://www.w3.org/2000/svg" width="24" height="24" viewBox="0 0 24 24">
<path d="M17.5,13.942h-2A1.535,1.535,0,0,0,14,15.436v1.991a1.535,1.535,0,0,0,1.5,1.494h2A1.535,1.535,0,0,0,19,17.427V15.436A1.469,1.469,0,0,0,17.5,13.942Zm.5,3.485a.471.471,0,0,1-.5.5h-2a.471.471,0,0,1-.5-.5V15.436a.471.471,0,0,1,.5-.5h2a.471.471,0,0,1,.5.5Z"/>
<path d="M23.5,6.971,20.6,1.1A1.89,1.89,0,0,0,18.8,0H5.3A1.89,1.89,0,0,0,3.5,1.1L.6,6.971H0v1H0v.9a3.262,3.262,0,0,0,2,2.988V22.307A1.682,1.682,0,0,0,3.7,24H20a2,2,0,0,0,2-1.992V11.851a2.9,2.9,0,0,0,2-2.789V7.071h-.5ZM4.3,1.494A1.149,1.149,0,0,1,5.2.9H18.7a.961.961,0,0,1,.9.6l2.7,5.377H1.6ZM7,7.967h4v.9a2.079,2.079,0,0,1-1.3,1.992A2.064,2.064,0,0,1,7,8.963Zm6,0h4v.9a2,2,0,1,1-4,.1Zm-12,1v-1H5v.9a2.079,2.079,0,0,1-1.3,1.992A2.064,2.064,0,0,1,1,8.963ZM11,22.905H6V15.436a.471.471,0,0,1,.5-.5h4a.471.471,0,0,1,.5.5Zm9,0H12V15.436a1.535,1.535,0,0,0-1.5-1.494h-4A1.535,1.535,0,0,0,5,15.436v7.469H3.7a.682.682,0,0,1-.7-.7V11.95A2.94,2.94,0,0,0,6,8.963v-.1A3.116,3.116,0,0,0,8.4,11.95,3.045,3.045,0,0,0,12,9.062v-.1a3.117,3.117,0,0,0,2.4,3.087A3.045,3.045,0,0,0,18,9.162v-.1a3.115,3.115,0,0,0,2.4,3.087h.5v9.959C21,22.407,20.5,22.905,20,22.905ZM23,8.863a2,2,0,1,1-4,.1v-1h4Z"/>
</svg>