<svg xmlns="http://www.w3.org/2000/svg" width="24" height="24" viewBox="0 0 24 24">
<path d="M21.929,20.221l-1.718-2.943A8.941,8.941,0,0,1,19,12.779V10.2a7.189,7.189,0,0,0-5-6.9V2a2,2,0,0,0-4,0V3.3a7.189,7.189,0,0,0-5,6.9v2.579a8.941,8.941,0,0,1-1.211,4.5L2.071,20.221a.528.528,0,0,0-.007.518A.5.5,0,0,0,2.5,21H9a3,3,0,0,0,6,0h6.5a.5.5,0,0,0,.436-.261A.528.528,0,0,0,21.929,20.221ZM11,2a1,1,0,0,1,2,0V3H11Zm1,21a2,2,0,0,1-2-2h4A2,2,0,0,1,12,23Zm2.807-3.029H3.384l1.263-2.165A9.991,9.991,0,0,0,6,12.779V10.2a6.094,6.094,0,0,1,6-6.171A6.094,6.094,0,0,1,18,10.2v2.579a10,10,0,0,0,1.353,5.028l1.263,2.164Z"/></svg>