<svg xmlns="http://www.w3.org/2000/svg" width="16.003" height="16" viewBox="0 0 16.003 16">
  <g id="Group_601" data-name="Group 601" transform="translate(24.025 56.001)">
    <rect id="Rectangle_397" data-name="Rectangle 397" width="16" height="16" transform="translate(-24.025 -56.001)" fill="none"/>
    <path id="Path_330" data-name="Path 330" d="M-8.022-41.062-12-45.045a6.716,6.716,0,0,0,1.479-4.206A6.756,6.756,0,0,0-17.275-56a6.757,6.757,0,0,0-6.75,6.75,6.758,6.758,0,0,0,6.75,6.75,6.707,6.707,0,0,0,4.21-1.483L-9.083-40ZM-17.275-44a5.256,5.256,0,0,1-5.25-5.25,5.256,5.256,0,0,1,5.25-5.25,5.256,5.256,0,0,1,5.25,5.25A5.256,5.256,0,0,1-17.275-44Z"/>
  </g>
</svg>
