<svg xmlns="http://www.w3.org/2000/svg" width="24" height="24" viewBox="0 0 24 24">
    <g transform="translate(-88 -47.957)">
        <path d="M104,65.956H96v-1h7v-12H89v12h4v1H88v-14h16Z"/>
        <path d="M107.5,63.956a1.5,1.5,0,1,1-1.5,1.5,1.5,1.5,0,0,1,1.5-1.5m0-1a2.5,2.5,0,1,0,2.5,2.5,2.5,2.5,0,0,0-2.5-2.5Z"/>
        <path d="M94.5,63.956a1.5,1.5,0,1,1-1.5,1.5,1.5,1.5,0,0,1,1.5-1.5m0-1a2.5,2.5,0,1,0,2.5,2.5,2.5,2.5,0,0,0-2.5-2.5Z"/>
        <path d="M112,65.956h-2.775v-1H111v-4.9a3.083,3.083,0,0,0-3.057-3.1H104v8h1.743v1H103v-10h4.943a4.084,4.084,0,0,1,4.057,4.1Z"/>
        <rect width="8" height="1" transform="translate(91 55.956)"/>
        <rect width="8" height="1" transform="translate(93 58.956)"/>
    </g>
</svg>