<svg xmlns="http://www.w3.org/2000/svg" width="16" height="15.992" viewBox="0 0 16 15.992">
  <path id="Path_335" data-name="Path 335" d="M15.25,14.5h-.258V5.47a3.15,3.15,0,0,0,1-2.3V.008H0V3.173a3.15,3.15,0,0,0,1,2.3V14.5H.75a.75.75,0,0,0,0,1.5h14.5a.75.75,0,0,0,0-1.5ZM11.161,1.508h3.331V3.173a1.665,1.665,0,1,1-3.331,0Zm-4.83,0h3.33V3.173a1.665,1.665,0,1,1-3.33,0Zm-4.831,0H4.831V3.173a1.666,1.666,0,1,1-3.331,0ZM9.25,14.5H6.75V11h2.5Zm-4-5v5H2.5V6.266A3.112,3.112,0,0,0,5.581,5.2a3.121,3.121,0,0,0,4.83,0,3.112,3.112,0,0,0,3.081,1.071V14.5H10.75v-5Z" transform="translate(0 -0.008)"/>
</svg>
