<svg xmlns="http://www.w3.org/2000/svg" width="32" height="32" viewBox="0 0 32 32">
  <g id="Group_548" data-name="Group 548" transform="translate(59.072 -107.44)">
    <rect id="Rectangle_523" data-name="Rectangle 523" width="32" height="32" transform="translate(-59.072 107.44)" fill="none"/>
    <path id="Path_409" data-name="Path 409" d="M-27.143,137.948l-8.456-8.455a13.162,13.162,0,0,0,3.2-8.6,13.242,13.242,0,0,0-13.227-13.227A13.242,13.242,0,0,0-58.85,120.889a13.241,13.241,0,0,0,13.226,13.226,13.157,13.157,0,0,0,8.611-3.208l8.456,8.455Zm-18.481-5.833A11.239,11.239,0,0,1-56.85,120.889a11.239,11.239,0,0,1,11.226-11.227A11.24,11.24,0,0,1-34.4,120.889,11.24,11.24,0,0,1-45.624,132.115Z"/>
    <g id="Group_547" data-name="Group 547">
      <path id="Path_410" data-name="Path 410" d="M-42.005,125.973h-1.84l-2.077-7.993-1.959,7.993H-49.7l-2.947-10.168h1.78l2.1,7.913,1.938-7.913h1.979l2,7.913,2.018-7.913h1.819Z"/>
    </g>
  </g>
</svg>
