<svg xmlns="http://www.w3.org/2000/svg" width="32.001" height="32" viewBox="0 0 32.001 32">
  <g id="Group_558" data-name="Group 558" transform="translate(-122.548 -63.536)">
    <rect id="Rectangle_532" data-name="Rectangle 532" width="32" height="32" transform="translate(122.548 63.536)" fill="none"/>
    <g id="Group_557" data-name="Group 557">
      <path id="Path_420" data-name="Path 420" d="M154.335,68a1,1,0,0,0-.786-.382H129.865l-.543-2.417a1,1,0,0,0-.975-.781h-4.8a1,1,0,0,0,0,2h4l1.06,4.721,2.205,9.818v0l1.105,4.921a1,1,0,0,0,.976.781H150.55a1,1,0,0,0,0-2H133.693l-.656-2.924h17.575a1,1,0,0,0,.972-.764l2.937-12.123A1,1,0,0,0,154.335,68Zm-4.51,11.74H132.588L130.314,69.62h21.963Z"/>
      <path id="Path_421" data-name="Path 421" d="M136.607,87.983a3.333,3.333,0,1,0,3.334,3.334A3.339,3.339,0,0,0,136.607,87.983Zm0,4.667a1.334,1.334,0,1,1,1.334-1.333A1.335,1.335,0,0,1,136.607,92.65Z"/>
      <path id="Path_422" data-name="Path 422" d="M148.216,87.983a3.333,3.333,0,1,0,3.334,3.334A3.337,3.337,0,0,0,148.216,87.983Zm0,4.667a1.334,1.334,0,1,1,1.334-1.333A1.333,1.333,0,0,1,148.216,92.65Z"/>
    </g>
  </g>
</svg>
