<svg xmlns="http://www.w3.org/2000/svg" width="32" height="32" viewBox="0 0 32 32">
  <g id="Group_566" data-name="Group 566" transform="translate(-83.597 -69.35)">
    <rect id="Rectangle_535" data-name="Rectangle 535" width="32" height="32" transform="translate(83.597 69.35)" fill="none"/>
    <g id="Group_565" data-name="Group 565">
      <g id="Group_563" data-name="Group 563">
        <path id="Path_426" data-name="Path 426" d="M99.6,91.351a6,6,0,1,1,6-6A6.007,6.007,0,0,1,99.6,91.351Zm0-10a4,4,0,1,0,4,4A4,4,0,0,0,99.6,81.351Z"/>
      </g>
      <g id="Group_564" data-name="Group 564">
        <path id="Path_427" data-name="Path 427" d="M101.6,100.817h-4.01a3.1,3.1,0,0,1-3-2.412l-.4-1.767a12.271,12.271,0,0,1-1.668-.969l-1.716.542a3.094,3.094,0,0,1-3.615-1.416L85.2,91.352a3.114,3.114,0,0,1,.568-3.8l1.347-1.239c-.024-.322-.036-.643-.036-.96s.012-.638.035-.96l-1.33-1.224a3.109,3.109,0,0,1-.6-3.794l2.017-3.49a3.093,3.093,0,0,1,3.59-1.4l1.729.547a12.09,12.09,0,0,1,1.667-.968l.4-1.774a3.093,3.093,0,0,1,3-2.4h4.01a3.1,3.1,0,0,1,3,2.412l.4,1.767a12.211,12.211,0,0,1,1.668.969l1.717-.542A3.1,3.1,0,0,1,112,75.906l1.992,3.444a3.114,3.114,0,0,1-.567,3.8l-1.348,1.239c.024.322.035.643.035.96s-.011.636-.035.96l1.348,1.237a3.1,3.1,0,0,1,.58,3.779l-2.017,3.489a3.079,3.079,0,0,1-3.594,1.4l-1.727-.546a12.339,12.339,0,0,1-1.667.97l-.4,1.772A3.092,3.092,0,0,1,101.6,100.817Zm-8.708-7.363.412.312a10.143,10.143,0,0,0,2.142,1.245l.473.2.62,2.758a1.085,1.085,0,0,0,1.051.848h4.01a1.093,1.093,0,0,0,1.047-.843l.622-2.763.472-.2a10.271,10.271,0,0,0,2.145-1.247l.411-.312,2.694.853a1.1,1.1,0,0,0,1.257-.477l2.018-3.49a1.1,1.1,0,0,0-.164-1.283l-.079-.078-2.038-1.872.056-.5a11.223,11.223,0,0,0,0-2.5l-.056-.5,2.076-1.908a1.111,1.111,0,0,0,.192-1.35L110.264,76.9a1.093,1.093,0,0,0-1.282-.5l-2.682.848-.412-.311a10.112,10.112,0,0,0-2.143-1.246l-.473-.2-.62-2.758a1.083,1.083,0,0,0-1.05-.848h-4.01a1.1,1.1,0,0,0-1.049.842l-.622,2.763-.473.2a10.105,10.105,0,0,0-2.142,1.246l-.412.311L90.2,76.394a1.09,1.09,0,0,0-1.256.478l-2.018,3.49a1.107,1.107,0,0,0,.221,1.34L89.205,83.6l-.056.5a11.527,11.527,0,0,0-.07,1.251A11.206,11.206,0,0,0,89.15,86.6l.057.5-2.077,1.91a1.112,1.112,0,0,0-.192,1.349l1.992,3.443a1.09,1.09,0,0,0,1.278.5Z"/>
      </g>
    </g>
  </g>
</svg>
