<svg xmlns="http://www.w3.org/2000/svg" width="0" height="0">
    <defs>
        <symbol id="product1" viewBox="0 0 32 32">
            <path d="M6 1H1v14h5V1zm9 0h-5v5h5V1zm0 9v5h-5v-5h5zM0 1a1 1 0 0 1 1-1h5a1 1 0 0 1 1 1v14a1 1 0 0 1-1 1H1a1 1 0 0 1-1-1V1zm9 0a1 1 0 0 1 1-1h5a1 1 0 0 1 1 1v5a1 1 0 0 1-1 1h-5a1 1 0 0 1-1-1V1zm1 8a1 1 0 0 0-1 1v5a1 1 0 0 0 1 1h5a1 1 0 0 0 1-1v-5a1 1 0 0 0-1-1h-5z"/>
        </symbol>
        <symbol id="layout-banners-1"   viewBox="0 0 164 94">
            <g id="Group_355" data-name="Group 355" transform="translate(-4701 -1069)">
                <g transform="matrix(1, 0, 0, 1, 4701, 1069)" filter="url(#Path_81)">
                    <path id="Path_81-2" data-name="Path 81" d="M4,0H136a4,4,0,0,1,4,4V66a4,4,0,0,1-4,4H4a4,4,0,0,1-4-4V4A4,4,0,0,1,4,0Z" transform="translate(12 8)" fill="#fff"/>
                </g>
                <g id="Group_354" data-name="Group 354" transform="translate(-267)">
                    <rect id="Rectangle_344" data-name="Rectangle 344" width="120" height="50" transform="translate(4990 1087)" fill="#e8e8e8"/>
                    <path id="Icon_metro-image" data-name="Icon metro-image" d="M21.318,5.106l0,0v15l0,0H3.823l0,0v-15l0,0Zm0-1.25H3.821a1.254,1.254,0,0,0-1.25,1.25v15a1.254,1.254,0,0,0,1.25,1.25h17.5a1.254,1.254,0,0,0,1.25-1.25v-15A1.254,1.254,0,0,0,21.321,3.856Zm-2.5,4.375a1.875,1.875,0,1,1-1.875-1.875A1.875,1.875,0,0,1,18.821,8.231Zm1.25,10.625h-15v-2.5l4.375-7.5,5,6.25H15.7l4.375-3.75Z" transform="translate(5037.429 1099.144)" fill="#a5a5a5"/>
                </g>
            </g>
        </symbol>
    </defs>
</svg>