<svg xmlns="http://www.w3.org/2000/svg" width="0" height="0">
    <defs>
        <symbol id="back" viewBox="0 0 24 24">
            <path d="M0 0h24v24H0V0z" fill="none"/>
            <path d="M20 11H7.83l5.59-5.59L12 4l-8 8 8 8 1.41-1.41L7.83 13H20v-2z"/>
        </symbol>
        <symbol id="drag" viewBox="0 0 24 24">
            <path d="M0 0h24v24H0V0z" fill="none"/>
            <path d="M11 18c0 1.1-.9 2-2 2s-2-.9-2-2 .9-2 2-2 2 .9 2 2zm-2-8c-1.1 0-2 .9-2 2s.9 2 2 2 2-.9 2-2-.9-2-2-2zm0-6c-1.1 0-2 .9-2 2s.9 2 2 2 2-.9 2-2-.9-2-2-2zm6 4c1.1 0 2-.9 2-2s-.9-2-2-2-2 .9-2 2 .9 2 2 2zm0 2c-1.1 0-2 .9-2 2s.9 2 2 2 2-.9 2-2-.9-2-2-2zm0 6c-1.1 0-2 .9-2 2s.9 2 2 2 2-.9 2-2-.9-2-2-2z"/>
        </symbol>
        <symbol id="expand" viewBox="0 0 24 24">
            <path d="M24 24H0V0h24v24z" fill="none" opacity=".87"/>
            <path d="M16.59 8.59L12 13.17 7.41 8.59 6 10l6 6 6-6-1.41-1.41z"/>
        </symbol>
        <symbol id="link" viewBox="0 0 24 24">
            <path d="M0 0h24v24H0V0z" fill="none"/>
            <path d="M17 7h-4v2h4c1.65 0 3 1.35 3 3s-1.35 3-3 3h-4v2h4c2.76 0 5-2.24 5-5s-2.24-5-5-5zm-6 8H7c-1.65 0-3-1.35-3-3s1.35-3 3-3h4V7H7c-2.76 0-5 2.24-5 5s2.24 5 5 5h4v-2zm-3-4h8v2H8z"/>
        </symbol>
        <symbol id="view" viewBox="0 0 24 24">
            <path d="M0 0h24v24H0V0z" fill="none"/>
            <path d="M12 6c3.79 0 7.17 2.13 8.82 5.5C19.17 14.87 15.79 17 12 17s-7.17-2.13-8.82-5.5C4.83 8.13 8.21 6 12 6m0-2C7 4 2.73 7.11 1 11.5 2.73 15.89 7 19 12 19s9.27-3.11 11-7.5C21.27 7.11 17 4 12 4zm0 5c1.38 0 2.5 1.12 2.5 2.5S13.38 14 12 14s-2.5-1.12-2.5-2.5S10.62 9 12 9m0-2c-2.48 0-4.5 2.02-4.5 4.5S9.52 16 12 16s4.5-2.02 4.5-4.5S14.48 7 12 7z"/>
        </symbol>
        <symbol id="hide" viewBox="0 0 24 24">
            <path d="M0 0h24v24H0zm0 0h24v24H0zm0 0h24v24H0zm0 0h24v24H0z" fill="none"/><path d="M12 7c2.76 0 5 2.24 5 5 0 .65-.13 1.26-.36 1.83l2.92 2.92c1.51-1.26 2.7-2.89 3.43-4.75-1.73-4.39-6-7.5-11-7.5-1.4 0-2.74.25-3.98.7l2.16 2.16C10.74 7.13 11.35 7 12 7zM2 4.27l2.28 2.28.46.46C3.08 8.3 1.78 10.02 1 12c1.73 4.39 6 7.5 11 7.5 1.55 0 3.03-.3 4.38-.84l.42.42L19.73 22 21 20.73 3.27 3 2 4.27zM7.53 9.8l1.55 1.55c-.05.21-.08.43-.08.65 0 1.66 1.34 3 3 3 .22 0 .44-.03.65-.08l1.55 1.55c-.67.33-1.41.53-2.2.53-2.76 0-5-2.24-5-5 0-.79.2-1.53.53-2.2zm4.31-.78l3.15 3.15.02-.16c0-1.66-1.34-3-3-3l-.17.01z"/>
        </symbol>
        <symbol id="arrow-up" viewBox="0 0 24 24">
            <rect fill="none" height="24" width="24"/>
            <path d="M5,9l1.41,1.41L11,5.83V22H13V5.83l4.59,4.59L19,9l-7-7L5,9z"/>
        </symbol>
        <symbol id="arrow-down" viewBox="0 0 24 24">
            <rect fill="none" height="24" width="24"/>
            <path d="M19,15l-1.41-1.41L13,18.17V2H11v16.17l-4.59-4.59L5,15l7,7L19,15z"/>
        </symbol>
        <symbol id="add" viewBox="0 0 24 24">
            <path d="M0 0h24v24H0V0z" fill="none"/>
            <path d="M13 7h-2v4H7v2h4v4h2v-4h4v-2h-4V7zm-1-5C6.48 2 2 6.48 2 12s4.48 10 10 10 10-4.48 10-10S17.52 2 12 2zm0 18c-4.41 0-8-3.59-8-8s3.59-8 8-8 8 3.59 8 8-3.59 8-8 8z"/>
        </symbol>
        <symbol id="copy-to-all" viewBox="0 0 24 24">
            <path d="M0 0h24v24H0V0z" fill="none"/>
            <path d="M16 1H4c-1.1 0-2 .9-2 2v14h2V3h12V1zm3 4H8c-1.1 0-2 .9-2 2v14c0 1.1.9 2 2 2h11c1.1 0 2-.9 2-2V7c0-1.1-.9-2-2-2zm0 16H8V7h11v14z"/>
        </symbol>
        <symbol id="active" viewBox="0 0 24 24">
            <path d="M0 0h24v24H0z" fill="none"/>
            <path d="M17 6H7c-3.31 0-6 2.69-6 6s2.69 6 6 6h10c3.31 0 6-2.69 6-6s-2.69-6-6-6zm0 10H7c-2.21 0-4-1.79-4-4s1.79-4 4-4h10c2.21 0 4 1.79 4 4s-1.79 4-4 4zm0-7c-1.66 0-3 1.34-3 3s1.34 3 3 3 3-1.34 3-3-1.34-3-3-3z"/>
        </symbol>
        <symbol id="in-active" viewBox="0 0 24 24">
            <path d="M0 0h24v24H0V0z" fill="none"/>
            <path d="M17 6H7c-3.31 0-6 2.69-6 6s2.69 6 6 6h10c3.31 0 6-2.69 6-6s-2.69-6-6-6zm0 10H7c-2.21 0-4-1.79-4-4s1.79-4 4-4h10c2.21 0 4 1.79 4 4s-1.79 4-4 4zM7 9c-1.66 0-3 1.34-3 3s1.34 3 3 3 3-1.34 3-3-1.34-3-3-3z"/>
        </symbol>
        <symbol id="edit" viewBox="0 0 24 24">
            <g>
                <rect fill="none" height="24" width="24"/>
            </g>
            <g>
                <g>
                    <g>
                        <path d="M3,21l3.75,0L17.81,9.94l-3.75-3.75L3,17.25L3,21z M5,18.08l9.06-9.06l0.92,0.92L5.92,19L5,19L5,18.08z"/>
                    </g>
                    <g>
                        <path d="M18.37,3.29c-0.39-0.39-1.02-0.39-1.41,0l-1.83,1.83l3.75,3.75l1.83-1.83c0.39-0.39,0.39-1.02,0-1.41L18.37,3.29z"/>
                    </g>
                </g>
            </g>
        </symbol>
        <symbol id="delete" viewBox="0 0 24 24">
            <path d="M0 0h24v24H0V0z" fill="none"/>
            <path d="M6 19c0 1.1.9 2 2 2h8c1.1 0 2-.9 2-2V7H6v12zM8 9h8v10H8V9zm7.5-5l-1-1h-5l-1 1H5v2h14V4h-3.5z"/>
        </symbol>
        <symbol id="clone" viewBox="0 0 24 24">
            <path d="M7 6V3a1 1 0 0 1 1-1h12a1 1 0 0 1 1 1v14a1 1 0 0 1-1 1h-3v3c0 .552-.45 1-1.007 1H4.007A1.001 1.001 0 0 1 3 21l.003-14c0-.552.45-1 1.007-1H7zM5.003 8L5 20h10V8H5.003zM9 6h8v10h2V4H9v2z"/>
        </symbol>
        <symbol id="columns" viewBox="0 0 24 24">
            <rect fill="none" height="24" width="24"/>
            <path d="M20,4H4C2.9,4,2,4.9,2,6v12c0,1.1,0.9,2,2,2h16c1.1,0,2-0.9,2-2V6C22,4.9,21.1,4,20,4z M8,18H4V6h4V18z M14,18h-4V6h4V18z M20,18h-4V6h4V18z"/>
        </symbol>
        <symbol id="export" viewBox="0 0 24 24">
            <g>
                <rect fill="none" height="24" width="24"/>
            </g>
            <g>
                <path d="M18,15v3H6v-3H4v3c0,1.1,0.9,2,2,2h12c1.1,0,2-0.9,2-2v-3H18z M17,11l-1.41-1.41L13,12.17V4h-2v8.17L8.41,9.59L7,11l5,5 L17,11z"/>
            </g>
        </symbol>
        <symbol id="more" viewBox="0 0 24 24">
            <path d="M0 0h24v24H0V0z" fill="none"/>
            <path d="M6 10c-1.1 0-2 .9-2 2s.9 2 2 2 2-.9 2-2-.9-2-2-2zm12 0c-1.1 0-2 .9-2 2s.9 2 2 2 2-.9 2-2-.9-2-2-2zm-6 0c-1.1 0-2 .9-2 2s.9 2 2 2 2-.9 2-2-.9-2-2-2z"/>
        </symbol>
        <symbol id="double-arrow" viewBox="0 0 24 24" >
            <g>
                <rect fill="none" height="24" width="24"/>
            </g>
            <g>
                <g>
                    <polygon points="18,6.41 16.59,5 12,9.58 7.41,5 6,6.41 12,12.41"/>
                    <polygon points="18,13 16.59,11.59 12,16.17 7.41,11.59 6,13 12,19"/>
                </g>
            </g>
        </symbol>
        <symbol id="menu" viewBox="0 0 24 24">
            <path d="M0 0h24v24H0V0z" fill="none"/>
            <path d="M3 18h18v-2H3v2zm0-5h18v-2H3v2zm0-7v2h18V6H3z"/>
        </symbol>
        <symbol id="close" viewBox="0 0 24 24">
            <path d="M0 0h24v24H0V0z" fill="none"/>
            <path d="M19 6.41L17.59 5 12 10.59 6.41 5 5 6.41 10.59 12 5 17.59 6.41 19 12 13.41 17.59 19 19 17.59 13.41 12 19 6.41z"/>
        </symbol>
        <symbol id="nav" viewBox="0 0 24 24">
            <path d="M0 0h24v24H0V0z" fill="none"/>
            <path d="M4 8h4V4H4v4zm6 12h4v-4h-4v4zm-6 0h4v-4H4v4zm0-6h4v-4H4v4zm6 0h4v-4h-4v4zm6-10v4h4V4h-4zm-6 4h4V4h-4v4zm6 6h4v-4h-4v4zm0 6h4v-4h-4v4z"/>
        </symbol>
        <symbol id="icon-download" viewBox="0 0 24 24">
            <path fill="none" d="M0 0h24v24H0z"/>
            <path d="M18 15v3H6v-3H4v3c0 1.1.9 2 2 2h12c1.1 0 2-.9 2-2v-3h-2zm-1-4l-1.41-1.41L13 12.17V4h-2v8.17L8.41 9.59 7 11l5 5 5-5z"/>
        </symbol>
        <symbol id="arrow-left" viewBox="0 0 16 16">
            <path fill-rule="evenodd" d="M11.354 1.646a.5.5 0 0 1 0 .708L5.707 8l5.647 5.646a.5.5 0 0 1-.708.708l-6-6a.5.5 0 0 1 0-.708l6-6a.5.5 0 0 1 .708 0z"/>
        </symbol>
        <symbol id="arrow-right" viewBox="0 0 16 16">
            <path fill-rule="evenodd" d="M4.646 1.646a.5.5 0 0 1 .708 0l6 6a.5.5 0 0 1 0 .708l-6 6a.5.5 0 0 1-.708-.708L10.293 8 4.646 2.354a.5.5 0 0 1 0-.708z"/>
        </symbol>
        <symbol id="double-arrow-left" viewBox="0 0 16 16">
            <path fill-rule="evenodd" d="M8.354 1.646a.5.5 0 0 1 0 .708L2.707 8l5.647 5.646a.5.5 0 0 1-.708.708l-6-6a.5.5 0 0 1 0-.708l6-6a.5.5 0 0 1 .708 0z"/>
            <path fill-rule="evenodd" d="M12.354 1.646a.5.5 0 0 1 0 .708L6.707 8l5.647 5.646a.5.5 0 0 1-.708.708l-6-6a.5.5 0 0 1 0-.708l6-6a.5.5 0 0 1 .708 0z"/>
        </symbol>
        <symbol id="double-arrow-right" viewBox="0 0 16 16">
            <path fill-rule="evenodd" d="M3.646 1.646a.5.5 0 0 1 .708 0l6 6a.5.5 0 0 1 0 .708l-6 6a.5.5 0 0 1-.708-.708L9.293 8 3.646 2.354a.5.5 0 0 1 0-.708z"/>
            <path fill-rule="evenodd" d="M7.646 1.646a.5.5 0 0 1 .708 0l6 6a.5.5 0 0 1 0 .708l-6 6a.5.5 0 0 1-.708-.708L13.293 8 7.646 2.354a.5.5 0 0 1 0-.708z"/>
        </symbol>
        <symbol id="test" viewBox="0 0 24 24">
            <path d="M0,437.8c0,28.5,23.2,51.6,51.6,51.6h386.2c28.5,0,51.6-23.2,51.6-51.6V51.6c0-28.5-23.2-51.6-51.6-51.6H51.6			C23.1,0,0,23.2,0,51.6C0,51.6,0,437.8,0,437.8z M437.8,464.9H51.6c-14.9,0-27.1-12.2-27.1-27.1v-64.5l92.8-92.8l79.3,79.3			c4.8,4.8,12.5,4.8,17.3,0l143.2-143.2l107.8,107.8v113.4C464.9,452.7,452.7,464.9,437.8,464.9z M51.6,24.5h386.2			c14.9,0,27.1,12.2,27.1,27.1v238.1l-99.2-99.1c-4.8-4.8-12.5-4.8-17.3,0L205.2,333.8l-79.3-79.3c-4.8-4.8-12.5-4.8-17.3,0			l-84.1,84.1v-287C24.5,36.7,36.7,24.5,51.6,24.5z"/>
            <path d="M151.7,196.1c34.4,0,62.3-28,62.3-62.3s-28-62.3-62.3-62.3s-62.3,28-62.3,62.3S117.3,196.1,151.7,196.1z M151.7,96			c20.9,0,37.8,17,37.8,37.8s-17,37.8-37.8,37.8s-37.8-17-37.8-37.8S130.8,96,151.7,96z"/>
        </symbol>
        <symbol id="test" viewBox="0 0 24 24">
            <path d="M0,437.8c0,28.5,23.2,51.6,51.6,51.6h386.2c28.5,0,51.6-23.2,51.6-51.6V51.6c0-28.5-23.2-51.6-51.6-51.6H51.6			C23.1,0,0,23.2,0,51.6C0,51.6,0,437.8,0,437.8z M437.8,464.9H51.6c-14.9,0-27.1-12.2-27.1-27.1v-64.5l92.8-92.8l79.3,79.3			c4.8,4.8,12.5,4.8,17.3,0l143.2-143.2l107.8,107.8v113.4C464.9,452.7,452.7,464.9,437.8,464.9z M51.6,24.5h386.2			c14.9,0,27.1,12.2,27.1,27.1v238.1l-99.2-99.1c-4.8-4.8-12.5-4.8-17.3,0L205.2,333.8l-79.3-79.3c-4.8-4.8-12.5-4.8-17.3,0			l-84.1,84.1v-287C24.5,36.7,36.7,24.5,51.6,24.5z"/>
            <path d="M151.7,196.1c34.4,0,62.3-28,62.3-62.3s-28-62.3-62.3-62.3s-62.3,28-62.3,62.3S117.3,196.1,151.7,196.1z M151.7,96			c20.9,0,37.8,17,37.8,37.8s-17,37.8-37.8,37.8s-37.8-17-37.8-37.8S130.8,96,151.7,96z"/>
        </symbol>
        <symbol id="download" viewBox="0 0 24 24">
            <path d="M0 0h24v24H0z" fill="none"/><path d="M19 9h-4V3H9v6H5l7 7 7-7zM5 18v2h14v-2H5z"/>            
        </symbol>
    </defs>
</svg>