<svg xmlns="http://www.w3.org/2000/svg" width="0" height="0">
    <defs>
        <symbol id="test" viewBox="0 0 20 20">
            <path d="M10 0C5.589 0 2 3.589 2 8c0 7.495 7.197 11.694 7.504 11.869a.996.996 0 0 0 .992 0C10.803 19.694 18 15.495 18 8c0-4.412-3.589-8-8-8m-.001 17.813C8.478 16.782 4 13.296 4 8c0-3.31 2.691-6 6-6s6 2.69 6 6c0 5.276-4.482 8.778-6.001 9.813M10 10c-1.103 0-2-.897-2-2s.897-2 2-2 2 .897 2 2-.897 2-2 2m0-6C7.794 4 6 5.794 6 8s1.794 4 4 4 4-1.794 4-4-1.794-4-4-4"></path>
        </symbol>

        <symbol id="general-settings" viewBox="0 0 32 32">
        <g id="Group_566" data-name="Group 566" transform="translate(-83.597 -69.35)">
            <rect id="Rectangle_535" data-name="Rectangle 535" width="32" height="32" transform="translate(83.597 69.35)" fill="none"/>
            <g id="Group_565" data-name="Group 565">
            <g id="Group_563" data-name="Group 563">
                <path id="Path_426" data-name="Path 426" d="M99.6,91.351a6,6,0,1,1,6-6A6.007,6.007,0,0,1,99.6,91.351Zm0-10a4,4,0,1,0,4,4A4,4,0,0,0,99.6,81.351Z"/>
            </g>
            <g id="Group_564" data-name="Group 564">
                <path id="Path_427" data-name="Path 427" d="M101.6,100.817h-4.01a3.1,3.1,0,0,1-3-2.412l-.4-1.767a12.271,12.271,0,0,1-1.668-.969l-1.716.542a3.094,3.094,0,0,1-3.615-1.416L85.2,91.352a3.114,3.114,0,0,1,.568-3.8l1.347-1.239c-.024-.322-.036-.643-.036-.96s.012-.638.035-.96l-1.33-1.224a3.109,3.109,0,0,1-.6-3.794l2.017-3.49a3.093,3.093,0,0,1,3.59-1.4l1.729.547a12.09,12.09,0,0,1,1.667-.968l.4-1.774a3.093,3.093,0,0,1,3-2.4h4.01a3.1,3.1,0,0,1,3,2.412l.4,1.767a12.211,12.211,0,0,1,1.668.969l1.717-.542A3.1,3.1,0,0,1,112,75.906l1.992,3.444a3.114,3.114,0,0,1-.567,3.8l-1.348,1.239c.024.322.035.643.035.96s-.011.636-.035.96l1.348,1.237a3.1,3.1,0,0,1,.58,3.779l-2.017,3.489a3.079,3.079,0,0,1-3.594,1.4l-1.727-.546a12.339,12.339,0,0,1-1.667.97l-.4,1.772A3.092,3.092,0,0,1,101.6,100.817Zm-8.708-7.363.412.312a10.143,10.143,0,0,0,2.142,1.245l.473.2.62,2.758a1.085,1.085,0,0,0,1.051.848h4.01a1.093,1.093,0,0,0,1.047-.843l.622-2.763.472-.2a10.271,10.271,0,0,0,2.145-1.247l.411-.312,2.694.853a1.1,1.1,0,0,0,1.257-.477l2.018-3.49a1.1,1.1,0,0,0-.164-1.283l-.079-.078-2.038-1.872.056-.5a11.223,11.223,0,0,0,0-2.5l-.056-.5,2.076-1.908a1.111,1.111,0,0,0,.192-1.35L110.264,76.9a1.093,1.093,0,0,0-1.282-.5l-2.682.848-.412-.311a10.112,10.112,0,0,0-2.143-1.246l-.473-.2-.62-2.758a1.083,1.083,0,0,0-1.05-.848h-4.01a1.1,1.1,0,0,0-1.049.842l-.622,2.763-.473.2a10.105,10.105,0,0,0-2.142,1.246l-.412.311L90.2,76.394a1.09,1.09,0,0,0-1.256.478l-2.018,3.49a1.107,1.107,0,0,0,.221,1.34L89.205,83.6l-.056.5a11.527,11.527,0,0,0-.07,1.251A11.206,11.206,0,0,0,89.15,86.6l.057.5-2.077,1.91a1.112,1.112,0,0,0-.192,1.349l1.992,3.443a1.09,1.09,0,0,0,1.278.5Z"/>
            </g>
            </g>
        </g>
    </symbol>

    <symbol id="plugins" viewBox="0 0 32 32">
        <g id="Group_533" data-name="Group 533" transform="translate(-166.258 -42.881)">
            <rect id="Rectangle_516" data-name="Rectangle 516" width="32" height="32" transform="translate(166.258 42.882)" fill="none"/>
            <path id="Path_400" data-name="Path 400" d="M182.258,43.382a15.5,15.5,0,0,0,0,31,1,1,0,0,0,1-1V68.366a7.006,7.006,0,0,0,6-6.92v-7h-2.871V49.575a1,1,0,0,0-2,0v4.871H179.9V49.575a1,1,0,0,0-2,0v4.871h-2.645v7a7.006,7.006,0,0,0,6,6.92v3.979a13.5,13.5,0,1,1,14.5-13.463,1,1,0,0,0,2,0A15.517,15.517,0,0,0,182.258,43.382Zm-5,18.064v-5h10v5a5,5,0,0,1-10,0Z"/>
        </g>
    </symbol>
    <symbol id="labels" viewBox="0 0 32 32.001">
        
    <svg xmlns="http://www.w3.org/2000/svg" width="32" height="32.001" viewBox="0 0 32 32.001">
    <g id="Group_541" data-name="Group 541" transform="translate(-275.468 -39.323)">
        <rect id="Rectangle_520" data-name="Rectangle 520" width="32" height="32" transform="translate(275.468 39.323)" fill="none"/>
        <g id="Group_540" data-name="Group 540">
        <path id="Path_406" data-name="Path 406" d="M301.78,71.323a1,1,0,0,1-.613-.21l-9.7-7.524-9.7,7.524a1,1,0,0,1-1.614-.79v-30a1,1,0,0,1,1-1H301.78a1,1,0,0,1,1,1v30a1,1,0,0,1-1,1Zm-10.312-10a1.006,1.006,0,0,1,.613.21l8.7,6.749V41.323H282.155V68.282l8.7-6.749A1.009,1.009,0,0,1,291.468,61.323Z"/>
        </g>
    </g>
    </svg>
    </symbol>
    <symbol id="theme" viewBox="0 0 32 32.001">
        <g id="Group_536" data-name="Group 536" transform="translate(-164.758 -46.322)">
            <rect id="Rectangle_518" data-name="Rectangle 518" width="32" height="32" transform="translate(164.758 46.323)" fill="none"/>
            <path id="Path_403" data-name="Path 403" d="M193.887,51.322h-3.866v-3.5a1.5,1.5,0,0,0-1.5-1.5H172.854a1.5,1.5,0,0,0-1.5,1.5v9a1.5,1.5,0,0,0,1.5,1.5h15.667a1.5,1.5,0,0,0,1.5-1.5v-3.5h2.866v8h-12.2a1,1,0,0,0-1,1v4h-1a1.5,1.5,0,0,0-1.5,1.5v9a1.5,1.5,0,0,0,1.5,1.5h4a1.5,1.5,0,0,0,1.5-1.5v-9a1.5,1.5,0,0,0-1.5-1.5h-1v-3h12.2a1,1,0,0,0,1-1v-10A1,1,0,0,0,193.887,51.322Zm-5.866,5H173.354v-8h14.667Zm-5.834,20h-3v-8h3Z"/>
        </g>
    </symbol>
    <symbol id="currencies" viewBox="0 0 32 32">
        <g id="Group_535" data-name="Group 535" transform="translate(-182.258 -29.479)">
            <rect id="Rectangle_517" data-name="Rectangle 517" width="32" height="32" transform="translate(182.258 29.479)" fill="none"/>
            <g id="Group_534" data-name="Group 534">
            <path id="Path_401" data-name="Path 401" d="M198.258,61.479a16,16,0,1,1,16-16A16.019,16.019,0,0,1,198.258,61.479Zm0-30a14,14,0,1,0,14,14A14.015,14.015,0,0,0,198.258,31.479Z"/>
            </g>
            <path id="Path_402" data-name="Path 402" d="M198.258,44.479a2,2,0,0,1-.357-3.964h.714a2,2,0,0,1,1.643,1.964h2a4,4,0,0,0-3-3.859v-3.1h-2v3.1a3.992,3.992,0,0,0,1,7.859,2,2,0,1,1-2,2h-2a4,4,0,0,0,3,3.858v3.189h2V52.337a3.992,3.992,0,0,0-1-7.858Z"/>
        </g>
    </symbol>
    <symbol id="site-commission" viewBox="0 0 32 32">
        <g id="Group_553" data-name="Group 553" transform="translate(66.578 -50.375)">
            <rect id="Rectangle_525" data-name="Rectangle 525" width="32" height="32" transform="translate(-66.578 50.375)" fill="none"/>
            <g id="Group_551" data-name="Group 551">
            <path id="Path_414" data-name="Path 414" d="M-50.578,81.946a15.517,15.517,0,0,1-15.5-15.5,15.517,15.517,0,0,1,15.5-15.5,15.517,15.517,0,0,1,15.5,15.5A15.517,15.517,0,0,1-50.578,81.946Zm0-29a13.516,13.516,0,0,0-13.5,13.5,13.515,13.515,0,0,0,13.5,13.5,13.515,13.515,0,0,0,13.5-13.5A13.515,13.515,0,0,0-50.578,52.946Z"/>
            </g>
            <rect id="Rectangle_526" data-name="Rectangle 526" width="4" height="4" rx="2" transform="translate(-54.82 59.376) rotate(45)"/>
            <rect id="Rectangle_527" data-name="Rectangle 527" width="4" height="4" rx="2" transform="translate(-46.335 67.861) rotate(45)"/>
            <g id="Group_552" data-name="Group 552">
            <path id="Path_415" data-name="Path 415" d="M-56.234,73.1a1,1,0,0,1-.707-.293,1,1,0,0,1,0-1.415l11.313-11.313a1,1,0,0,1,1.414,0,1,1,0,0,1,0,1.414L-55.527,72.811A1,1,0,0,1-56.234,73.1Z"/>
            </g>
        </g>
    </symbol>
    <symbol id="affiliate-commision" viewBox="0 0 32 32">
         <g id="Group_555" data-name="Group 555" transform="translate(-101.452 -75.993)">
        <rect id="Rectangle_528" data-name="Rectangle 528" width="32" height="32" transform="translate(101.452 75.993)" fill="none"/>
        <rect id="Rectangle_529" data-name="Rectangle 529" width="2" height="2" rx="1" transform="translate(123.288 96.447) rotate(45)"/>
        <rect id="Rectangle_530" data-name="Rectangle 530" width="2" height="2" rx="1" transform="translate(127.531 100.69) rotate(45)"/>
        <g id="Group_554" data-name="Group 554">
        <path id="Path_416" data-name="Path 416" d="M124.75,83.658a7.591,7.591,0,1,0-12.079,6.108c-10.016,2.47-11.213,13.254-11.213,18.227h2c0-6.253,1.78-16.744,13.7-16.744A7.6,7.6,0,0,0,124.75,83.658Zm-7.59,5.591a5.59,5.59,0,1,1,5.59-5.591A5.6,5.6,0,0,1,117.16,89.249Z"/>
        <path id="Path_417" data-name="Path 417" d="M125.451,91.993a8,8,0,1,0,8,8A8.009,8.009,0,0,0,125.451,91.993Zm0,14a6,6,0,1,1,6-6A6.007,6.007,0,0,1,125.451,105.993Z"/>
        <path id="Path_418" data-name="Path 418" d="M126.869,97.092l-4.242,4.243a1,1,0,1,0,1.414,1.414l4.242-4.243a1,1,0,0,0-1.414-1.414Z"/>
        </g>
    </g>
    </symbol>
    <symbol id="subscriptions-packages" viewBox="0 0 32.001 32">
        <g id="Group_560" data-name="Group 560" transform="translate(-281.548 -119.588)">
            <g id="Group_559" data-name="Group 559">
            <rect id="Rectangle_533" data-name="Rectangle 533" width="32" height="32" transform="translate(281.548 119.588)" fill="none"/>
            </g>
            <path id="Path_423" data-name="Path 423" d="M313.549,125.588h-7v-5h-18v5h-7v20h7v5h18v-5h7Zm-30,18v-16h5v16Zm21,5h-14v-26h14v26Zm7-5h-5v-16h5Z"/>
        </g>
    </symbol>
    <symbol id="zones" viewBox="0 0 32 32.001">
         <g id="Group_546" data-name="Group 546" transform="translate(-360.296 -63.241)">
            <rect id="Rectangle_521" data-name="Rectangle 521" width="32" height="32" transform="translate(360.296 63.241)" fill="none"/>
            <g id="Group_544" data-name="Group 544">
            <g id="Group_542" data-name="Group 542">
                <path id="Path_407" data-name="Path 407" d="M376.394,91.241a1.817,1.817,0,0,1-1.205-.458c-.389-.345-9.545-8.549-9.545-16.721a10.75,10.75,0,1,1,21.5,0c0,8.148-9.157,16.376-9.546,16.722A1.819,1.819,0,0,1,376.394,91.241Zm0-26a8.8,8.8,0,0,0-8.75,8.821c0,6.81,7.681,14.129,8.75,15.114,1.062-.983,8.75-8.323,8.75-15.114A8.8,8.8,0,0,0,376.394,65.241Z"/>
            </g>
            <g id="Group_543" data-name="Group 543">
                <path id="Path_408" data-name="Path 408" d="M376.363,78.935a4.586,4.586,0,1,1,4.587-4.586A4.592,4.592,0,0,1,376.363,78.935Zm0-7.172a2.586,2.586,0,1,0,2.587,2.586A2.589,2.589,0,0,0,376.363,71.763Z"/>
            </g>
            </g>
            <g id="Group_545" data-name="Group 545">
            <rect id="Rectangle_522" data-name="Rectangle 522" width="16" height="2" transform="translate(368.394 93.242)"/>
            </g>
        </g>
    </symbol>
    <symbol id="countries" viewBox="0 0 32.001 32.001">
       <g id="Group_556" data-name="Group 556" transform="translate(-177.758 -50.375)">
            <rect id="Rectangle_531" data-name="Rectangle 531" width="32" height="32" transform="translate(177.758 50.375)" fill="none"/>
            <path id="Path_419" data-name="Path 419" d="M208.077,64.648a1.682,1.682,0,0,0,1.682-1.679V60.241a1.69,1.69,0,0,0-.823-1.445l-13.267-7.874-.114-.071a3.673,3.673,0,0,0-3.637.023L178.581,58.8a1.688,1.688,0,0,0-.822,1.445v2.728a1.682,1.682,0,0,0,1.681,1.679h3.319V74.922h-1.273a3.731,3.731,0,0,0-3.727,3.726v2.045a1.684,1.684,0,0,0,1.681,1.683h28.637a1.684,1.684,0,0,0,1.682-1.683V78.648a3.731,3.731,0,0,0-3.728-3.726h-1.272V64.648Zm-28.318-4.226,13.152-7.813a1.634,1.634,0,0,1,1.666-.014l13.182,7.828v2.225h-28Zm10,14.5V64.648h8V74.922Zm-5-10.274h3V74.922h-3Zm23,14v1.728h-28V78.648a1.728,1.728,0,0,1,1.727-1.726h24.545A1.729,1.729,0,0,1,207.759,78.648Zm-5-3.726h-3V64.648h3Z"/>
        </g>
    </symbol>
    <symbol id="states" viewBox="0 0 32 32">
         <rect id="Rectangle_534" data-name="Rectangle 534" width="32" height="32" fill="none"/>
        <g id="Group_561" data-name="Group 561">
            <path id="Path_424" data-name="Path 424" d="M24.97,6.981a6.909,6.909,0,0,0-1.894.272A9.225,9.225,0,0,0,8.93,7.245a6.93,6.93,0,0,0-1.894-.264A7.044,7.044,0,0,0,.021,14.039c0,5.107,5.4,10.053,6.017,10.6a1.5,1.5,0,0,0,2,0,25.6,25.6,0,0,0,2.185-2.283,34.513,34.513,0,0,0,4.651,5.272,1.691,1.691,0,0,0,2.25,0,34,34,0,0,0,4.666-5.259,24.428,24.428,0,0,0,2.181,2.273,1.5,1.5,0,0,0,2,0c.616-.549,6.015-5.506,6.015-10.6A7.043,7.043,0,0,0,24.97,6.981Zm.309,6.089a1.19,1.19,0,0,1-.224,2.337A10.682,10.682,0,0,0,25.29,13.3C25.29,13.22,25.281,13.146,25.279,13.07ZM7.037,22.835c-1.164-1.124-5.016-5.122-5.016-8.8A5.043,5.043,0,0,1,7.036,8.981a4.937,4.937,0,0,1,.7.066A9.331,9.331,0,0,0,7,11.005a3.212,3.212,0,0,0,.015,6.423,3.206,3.206,0,0,0,.491-.052A19.489,19.489,0,0,0,9.075,20.6,24.647,24.647,0,0,1,7.037,22.835Zm-.085-7.42a1.192,1.192,0,0,1-.231-2.351c0,.078-.012.154-.012.232A10.5,10.5,0,0,0,6.952,15.415ZM16,25.944C14.8,24.817,8.709,18.827,8.709,13.3a7.291,7.291,0,1,1,14.581,0C23.29,18.883,17.228,24.8,16,25.944Zm8.972-3.1a24.257,24.257,0,0,1-2.032-2.219A19.217,19.217,0,0,0,24.5,17.369a3.069,3.069,0,0,0,.448.059A3.21,3.21,0,0,0,25,11.009a9.324,9.324,0,0,0-.737-1.971,4.927,4.927,0,0,1,.71-.057,5.041,5.041,0,0,1,5.013,5.058C29.983,17.28,26.872,21.044,24.973,22.839Z"/>
            <path id="Path_425" data-name="Path 425" d="M15.975,9.491a4.05,4.05,0,1,0,4.049,4.05A4.054,4.054,0,0,0,15.975,9.491Zm0,6.1a2.05,2.05,0,1,1,2.049-2.049A2.052,2.052,0,0,1,15.975,15.59Z"/>
        </g>
    </symbol>
    <symbol id="abusive-keywords" viewBox="0 0 32 32">
       <g id="Group_548" data-name="Group 548" transform="translate(59.072 -107.44)">
    <rect id="Rectangle_523" data-name="Rectangle 523" width="32" height="32" transform="translate(-59.072 107.44)" fill="none"/>
    <path id="Path_409" data-name="Path 409" d="M-27.143,137.948l-8.456-8.455a13.162,13.162,0,0,0,3.2-8.6,13.242,13.242,0,0,0-13.227-13.227A13.242,13.242,0,0,0-58.85,120.889a13.241,13.241,0,0,0,13.226,13.226,13.157,13.157,0,0,0,8.611-3.208l8.456,8.455Zm-18.481-5.833A11.239,11.239,0,0,1-56.85,120.889a11.239,11.239,0,0,1,11.226-11.227A11.24,11.24,0,0,1-34.4,120.889,11.24,11.24,0,0,1-45.624,132.115Z"/>
    <g id="Group_547" data-name="Group 547">
      <path id="Path_410" data-name="Path 410" d="M-42.005,125.973h-1.84l-2.077-7.993-1.959,7.993H-49.7l-2.947-10.168h1.78l2.1,7.913,1.938-7.913h1.979l2,7.913,2.018-7.913h1.819Z"/>
    </g>
  </g>
    </symbol>
    <symbol id="empty-cart" viewBox="0 0 32.001 32">
       <g id="Group_558" data-name="Group 558" transform="translate(-122.548 -63.536)">
    <rect id="Rectangle_532" data-name="Rectangle 532" width="32" height="32" transform="translate(122.548 63.536)" fill="none"/>
    <g id="Group_557" data-name="Group 557">
      <path id="Path_420" data-name="Path 420" d="M154.335,68a1,1,0,0,0-.786-.382H129.865l-.543-2.417a1,1,0,0,0-.975-.781h-4.8a1,1,0,0,0,0,2h4l1.06,4.721,2.205,9.818v0l1.105,4.921a1,1,0,0,0,.976.781H150.55a1,1,0,0,0,0-2H133.693l-.656-2.924h17.575a1,1,0,0,0,.972-.764l2.937-12.123A1,1,0,0,0,154.335,68Zm-4.51,11.74H132.588L130.314,69.62h21.963Z"/>
      <path id="Path_421" data-name="Path 421" d="M136.607,87.983a3.333,3.333,0,1,0,3.334,3.334A3.339,3.339,0,0,0,136.607,87.983Zm0,4.667a1.334,1.334,0,1,1,1.334-1.333A1.335,1.335,0,0,1,136.607,92.65Z"/>
      <path id="Path_422" data-name="Path 422" d="M148.216,87.983a3.333,3.333,0,1,0,3.334,3.334A3.337,3.337,0,0,0,148.216,87.983Zm0,4.667a1.334,1.334,0,1,1,1.334-1.333A1.333,1.333,0,0,1,148.216,92.65Z"/>
    </g>
  </g>
    </symbol>
    <symbol id="shop-reports" viewBox="0 0 24 24">
        <g transform="translate(-87.936 -112.044)">
        <path d="M102.935,112.044h-12v24h18v-18Zm0,1.415,4.585,4.585h-4.585Zm-11,21.585v-22h10v6h6v16Z"/>
        <rect width="7" height="1" transform="translate(93.936 121.043)"/>
        <rect width="9" height="1" transform="translate(93.936 125.043)"/>
        <rect width="11" height="1" transform="translate(93.94 129.043)"/>
    </g>
    </symbol>
        
        
        
    </defs>
</svg>