<?xml version="1.0" encoding="utf-8"?><svg xmlns="http://www.w3.org/2000/svg" xmlns:xlink="http://www.w3.org/1999/xlink"><symbol viewBox="0 0 24 24" id="icon-buyer-orders" xmlns="http://www.w3.org/2000/svg"><path d="M16.002 0h-16v24h24V0zm-1 1v5a.945.945 0 01-1 1h-4a.945.945 0 01-1-1V1zm8 22h-22V1h7v5a2.006 2.006 0 002 2h4a2.006 2.006 0 002-2V1h7z"/><path d="M20.517 13.931l-3.007-3.006-3.022 3.023.707.707 1.807-1.808v7.078h1v-7.094l1.808 1.807z"/></symbol><symbol viewBox="0 0 24.002 24.01" id="icon-cache" xmlns="http://www.w3.org/2000/svg"><path d="M20.5 12.01h-.013v-4h-6V0h-5v8.01h-6v4.042L0 24.01h24zM10.486 1h3v7h-3zM4.484 9.01h15v3h-15zm12 9v5h-4v-7h-1v7H7.459v-5h-1v5H1.334l2.912-10h15.5l2.922 10H17.48v-5z"/></symbol><symbol viewBox="0 0 24 24" id="icon-catelog" xmlns="http://www.w3.org/2000/svg"><path d="M16 0H0v24h24V0zm-1 1v5a1 1 0 01-1 1h-4a1 1 0 01-1-1V1zm8 22H1V1h7v5a2 2 0 002 2h4a2 2 0 002-2V1h7z"/></symbol><symbol viewBox="-40 0 427 427.001" id="icon-delete" xmlns="http://www.w3.org/2000/svg"><path d="M232.398 154.703c-5.523 0-10 4.477-10 10v189c0 5.52 4.477 10 10 10 5.524 0 10-4.48 10-10v-189c0-5.523-4.476-10-10-10zm0 0M114.398 154.703c-5.523 0-10 4.477-10 10v189c0 5.52 4.477 10 10 10 5.524 0 10-4.48 10-10v-189c0-5.523-4.476-10-10-10zm0 0"/><path d="M28.398 127.121V373.5c0 14.563 5.34 28.238 14.668 38.05A49.246 49.246 0 0078.796 427H268a49.233 49.233 0 0035.73-15.45c9.329-9.812 14.668-23.487 14.668-38.05V127.121c18.543-4.922 30.559-22.836 28.079-41.863-2.485-19.024-18.692-33.254-37.88-33.258h-51.199V39.5a39.289 39.289 0 00-11.539-28.031A39.288 39.288 0 00217.797 0H129a39.288 39.288 0 00-28.063 11.469A39.289 39.289 0 0089.398 39.5V52H38.2C19.012 52.004 2.805 66.234.32 85.258c-2.48 19.027 9.535 36.941 28.078 41.863zM268 407H78.797c-17.098 0-30.399-14.688-30.399-33.5V128h250v245.5c0 18.813-13.3 33.5-30.398 33.5zM109.398 39.5a19.25 19.25 0 015.676-13.895A19.26 19.26 0 01129 20h88.797a19.26 19.26 0 0113.926 5.605 19.244 19.244 0 015.675 13.895V52h-128zM38.2 72h270.399c9.941 0 18 8.059 18 18s-8.059 18-18 18H38.199c-9.941 0-18-8.059-18-18s8.059-18 18-18zm0 0"/><path d="M173.398 154.703c-5.523 0-10 4.477-10 10v189c0 5.52 4.477 10 10 10 5.524 0 10-4.48 10-10v-189c0-5.523-4.476-10-10-10zm0 0"/></symbol><symbol viewBox="0 0 24 24" id="icon-grid" xmlns="http://www.w3.org/2000/svg"><g fill="none" fill-rule="evenodd"><path d="M0 0h24v24H0z"/><rect fill="currentColor" x="4" y="4" width="7" height="7" rx="1.5"/><path d="M5.5 13h4a1.5 1.5 0 011.5 1.5v4A1.5 1.5 0 019.5 20h-4A1.5 1.5 0 014 18.5v-4A1.5 1.5 0 015.5 13zm9-9h4A1.5 1.5 0 0120 5.5v4a1.5 1.5 0 01-1.5 1.5h-4A1.5 1.5 0 0113 9.5v-4A1.5 1.5 0 0114.5 4zm0 9h4a1.5 1.5 0 011.5 1.5v4a1.5 1.5 0 01-1.5 1.5h-4a1.5 1.5 0 01-1.5-1.5v-4a1.5 1.5 0 011.5-1.5z" fill="currentColor" opacity=".3"/></g></symbol><symbol viewBox="0 0 24 24" id="icon-import-export" xmlns="http://www.w3.org/2000/svg"><path d="M12 1A11 11 0 111 12 11.013 11.013 0 0112 1m0-1a12 12 0 1012 12A12 12 0 0012 0z"/><path d="M12.589 10.4L8.5 6l-4.09 4.4.732.682L8 8.005V18h1V8.007l2.856 3.073zM18.857 12.92L16 15.995V6h-1v9.993l-2.856-3.073-.732.682L15.5 18l4.089-4.4z"/></symbol><symbol viewBox="0 0 16 16" id="icon-link" xmlns="http://www.w3.org/2000/svg"><path d="M2 4v10h10v-3a1 1 0 012 0v4a1 1 0 01-1 1H1a1 1 0 01-1-1V3a1 1 0 011-1h4a1 1 0 110 2zm5.707 5.707a1 1 0 11-1.414-1.414l6.3-6.298H9.017a.998.998 0 110-1.995h5.986A.995.995 0 0116 .998v5.986a.998.998 0 11-1.995 0V3.406z" fill-rule="evenodd"/></symbol><symbol viewBox="0 0 512 512" id="icon-message" xmlns="http://www.w3.org/2000/svg"><path d="M469.333 64H42.667C19.135 64 0 83.135 0 106.667v298.667C0 428.865 19.135 448 42.667 448h426.667C492.865 448 512 428.865 512 405.333V106.667C512 83.135 492.865 64 469.333 64zM42.667 85.333h426.667c1.572 0 2.957.573 4.432.897-36.939 33.807-159.423 145.859-202.286 184.478-3.354 3.021-8.76 6.625-15.479 6.625s-12.125-3.604-15.49-6.635C197.652 232.085 75.161 120.027 38.228 86.232c1.478-.324 2.866-.899 4.439-.899zm-21.334 320V106.667c0-2.09.63-3.986 1.194-5.896 28.272 25.876 113.736 104.06 169.152 154.453C136.443 302.671 50.957 383.719 22.46 410.893c-.503-1.814-1.127-3.588-1.127-5.56zm448 21.334H42.667c-1.704 0-3.219-.594-4.81-.974 29.447-28.072 115.477-109.586 169.742-156.009a7980.773 7980.773 0 0018.63 16.858c8.792 7.938 19.083 12.125 29.771 12.125s20.979-4.188 29.76-12.115a8178.815 8178.815 0 0018.641-16.868c54.268 46.418 140.286 127.926 169.742 156.009-1.591.38-3.104.974-4.81.974zm21.334-21.334c0 1.971-.624 3.746-1.126 5.56-28.508-27.188-113.984-108.227-169.219-155.668 55.418-50.393 140.869-128.57 169.151-154.456.564 1.91 1.194 3.807 1.194 5.897v298.667z"/></symbol><symbol viewBox="0 0 454.573 454.573" id="icon-message-unread" xmlns="http://www.w3.org/2000/svg"><path d="M452.441 156.234l-65.829-46.498V41.817a14.628 14.628 0 00-12.539-13.061H85.682a14.63 14.63 0 00-12.539 13.061v67.396l-68.441 47.02A11.491 11.491 0 000 164.592v248.163a15.15 15.15 0 0013.061 13.061h433.633c5.747 0 7.837-6.792 7.837-13.061V164.593c0-3.135.522-6.27-2.09-8.359zm-65.829-21.421l44.931 30.824-44.931 33.959v-64.783zM94.041 49.654h271.673v166.139l-135.837 102.4-135.837-102.4V49.654zm-20.898 84.637v65.829l-44.931-34.482 44.931-31.347zm-52.245 52.767l146.286 110.759L20.898 396.56V187.058zm25.078 217.861l138.971-93.518 37.094 28.212a12.533 12.533 0 007.314 2.612c2.09 0 3.135-1.045 5.224-2.612l38.661-29.78 140.539 95.086H45.976zm387.657-12.016l-143.151-96.131 143.151-109.714v205.845z"/><path d="M146.286 117.572h47.02c5.771 0 10.449-4.678 10.449-10.449s-4.678-10.449-10.449-10.449h-47.02c-5.771 0-10.449 4.678-10.449 10.449s4.678 10.449 10.449 10.449zM146.286 164.593H313.47c5.771 0 10.449-4.678 10.449-10.449s-4.678-10.449-10.449-10.449H146.286c-5.771 0-10.449 4.678-10.449 10.449s4.678 10.449 10.449 10.449zM323.918 201.164c0-5.771-4.678-10.449-10.449-10.449H146.286c-5.771 0-10.449 4.678-10.449 10.449s4.678 10.449 10.449 10.449H313.47c5.77 0 10.448-4.678 10.448-10.449z"/></symbol><symbol viewBox="0 0 24 24" id="icon-notification" xmlns="http://www.w3.org/2000/svg"><path d="M21.929 20.221l-1.718-2.943A8.941 8.941 0 0119 12.779V10.2a7.189 7.189 0 00-5-6.9V2a2 2 0 00-4 0v1.3a7.189 7.189 0 00-5 6.9v2.579a8.941 8.941 0 01-1.211 4.5l-1.718 2.942a.528.528 0 00-.007.518A.5.5 0 002.5 21H9a3 3 0 006 0h6.5a.5.5 0 00.436-.261.528.528 0 00-.007-.518zM11 2a1 1 0 012 0v1h-2zm1 21a2 2 0 01-2-2h4a2 2 0 01-2 2zm2.807-3.029H3.384l1.263-2.165A9.991 9.991 0 006 12.779V10.2a6.094 6.094 0 016-6.171 6.094 6.094 0 016 6.171v2.579a10 10 0 001.353 5.028l1.263 2.164z"/></symbol><symbol viewBox="0 0 24 24" id="icon-notification-alert" xmlns="http://www.w3.org/2000/svg"><path opacity=".3" d="M11 6.5C11 9 9 11 6.5 11S2 9 2 6.5 4 2 6.5 2 11 4 11 6.5zM17.5 2C15 2 13 4 13 6.5s2 4.5 4.5 4.5S22 9 22 6.5 20 2 17.5 2zm-11 11C4 13 2 15 2 17.5S4 22 6.5 22s4.5-2 4.5-4.5S9 13 6.5 13zm11 0C15 13 13 15 13 17.5s2 4.5 4.5 4.5 4.5-2 4.5-4.5-2-4.5-4.5-4.5z"/><path d="M17.5 16s-.1 0 0 0l-.8-.7c-.6-.6-1-1.4-1.1-2.2-.1-.7-.1-1.5 0-2.3.1-.8.5-1.6 1.1-2.2l.7-.7h.1c.8 0 1.5-.7 1.5-1.5s-.7-1.5-1.5-1.5-1.5.7-1.5 1.5v.1l-.7.7c-.6.6-1.4 1-2.2 1.1-.7.1-1.5.1-2.3 0-.8-.1-1.6-.5-2.2-1.1l-.7-.7v-.1c0-.8-.7-1.5-1.5-1.5s-1.5.7-1.5 1.5.7 1.5 1.5 1.5h.1l.7.7c.6.6 1 1.4 1.1 2.2.1.7.1 1.5 0 2.3-.1.8-.5 1.6-1.1 2.2l-.7.7h-.1c-.8 0-1.5.7-1.5 1.5S5.6 19 6.4 19s1.5-.7 1.5-1.5v-.1l.7-.7c.6-.6 1.4-1 2.2-1.1.7-.1 1.5-.1 2.3 0 .8.1 1.6.5 2.2 1.1l.7.7v.1c0 .8.7 1.5 1.5 1.5s1.5-.7 1.5-1.5-.7-1.5-1.5-1.5z"/></symbol><symbol viewBox="0 0 24 24" id="icon-orders" xmlns="http://www.w3.org/2000/svg"><path d="M16 0H0v24h24V0zm-1 1v5a.945.945 0 01-1 1h-4a.945.945 0 01-1-1V1zm8 22H1V1h7v5a2.006 2.006 0 002 2h4a2.006 2.006 0 002-2V1h7z"/><path d="M16.812 19.513l3-3-3-3-.7.7 1.8 1.8h-7.1v1h7.1l-1.8 1.8z"/></symbol><symbol viewBox="0 0 24 24" id="icon-promotions" xmlns="http://www.w3.org/2000/svg"><path d="M21 8V2L8.019 8H0v8h3.019v5h4v-5h1L21 22v-6h3V8zM6.019 20h-2v-4h2zM8 15H1V9h7zm12-7v12.436L9.019 15.361V8.639L20 3.564zm3 7h-2V9h2z"/></symbol><symbol viewBox="0 0 512 512" id="icon-refresh" xmlns="http://www.w3.org/2000/svg"><path d="M493.815 70.629c-11.001-1.003-20.73 7.102-21.733 18.102l-2.65 29.069C424.473 47.194 346.429 0 256 0 158.719 0 72.988 55.522 30.43 138.854c-5.024 9.837-1.122 21.884 8.715 26.908 9.839 5.024 21.884 1.123 26.908-8.715C102.07 86.523 174.397 40 256 40c74.377 0 141.499 38.731 179.953 99.408l-28.517-20.367c-8.989-6.419-21.48-4.337-27.899 4.651-6.419 8.989-4.337 21.479 4.651 27.899l86.475 61.761c12.674 9.035 30.155.764 31.541-14.459l9.711-106.53c1.004-11.001-7.1-20.731-18.1-21.734zM472.855 346.238c-9.838-5.023-21.884-1.122-26.908 8.715C409.93 425.477 337.603 472 256 472c-74.377 0-141.499-38.731-179.953-99.408l28.517 20.367c8.989 6.419 21.479 4.337 27.899-4.651 6.419-8.989 4.337-21.479-4.651-27.899l-86.475-61.761c-12.519-8.944-30.141-.921-31.541 14.459L.085 419.637c-1.003 11 7.102 20.73 18.101 21.733 11.014 1.001 20.731-7.112 21.733-18.102l2.65-29.069C87.527 464.806 165.571 512 256 512c97.281 0 183.012-55.522 225.57-138.854 5.024-9.837 1.122-21.884-8.715-26.908z"/></symbol><symbol viewBox="0 0 24 24" id="icon-reports" xmlns="http://www.w3.org/2000/svg"><path d="M14.999 0h-12v24h18V6zm0 1.415L19.584 6h-4.585zM3.999 23V1h10v6h6v16z"/><path d="M6 8.999h7v1H6zM6 12.999h9v1H6zM6.004 16.999h11v1h-11z"/></symbol><symbol viewBox="0 0 24 24" id="icon-sales-tax" xmlns="http://www.w3.org/2000/svg"><path d="M6.636 12.092H5.107v-.9H9.27v.9H7.741v3.876H6.636zM12.771 14.945h-2.218l-.423 1.023H9l2.129-4.777h1.093l2.135 4.777h-1.162zm-.348-.84l-.757-1.829-.758 1.824z"/><path d="M17.617 15.968l-1.154-1.659-1.132 1.659h-1.27l1.768-2.429-1.679-2.348h1.256l1.1 1.549 1.079-1.549h1.194L17.112 13.5l1.781 2.47z"/><path d="M15.343 0H3v24h18V5.657zM20 23H4V1h10v6.053h6zM15 6.053V1.075l4.978 4.978z"/></symbol><symbol viewBox="0 0 24 24" id="icon-search" xmlns="http://www.w3.org/2000/svg"><path d="M10.569 1a9.564 9.564 0 017.359 15.678l-.568.683-.682.567A9.567 9.567 0 1110.569 1m0-1a10.569 10.569 0 106.748 18.7l5.018 5.017a.975.975 0 001.379-1.379L18.7 17.317A10.563 10.563 0 0010.569 0z"/></symbol><symbol viewBox="0 0 24 24" id="icon-search-s" xmlns="http://www.w3.org/2000/svg"><g fill="none" fill-rule="evenodd"><path d="M0 0h24v24H0z"/><path d="M14.293 16.707a1 1 0 011.414-1.414l4 4a1 1 0 01-1.414 1.414l-4-4z" fill="currentColor" fill-rule="nonzero"/><path d="M11 16a5 5 0 100-10 5 5 0 000 10zm0 2a7 7 0 110-14 7 7 0 010 14z" fill="currentColor" fill-rule="nonzero"/></g></symbol><symbol viewBox="0 0 24 24" id="icon-setting" xmlns="http://www.w3.org/2000/svg"><path d="M0 0h24v24H0V0z" fill="none"/><path d="M19.43 12.98c.04-.32.07-.64.07-.98 0-.34-.03-.66-.07-.98l2.11-1.65c.19-.15.24-.42.12-.64l-2-3.46a.5.5 0 00-.61-.22l-2.49 1c-.52-.4-1.08-.73-1.69-.98l-.38-2.65A.488.488 0 0014 2h-4c-.25 0-.46.18-.49.42l-.38 2.65c-.61.25-1.17.59-1.69.98l-2.49-1a.566.566 0 00-.18-.03c-.17 0-.34.09-.43.25l-2 3.46c-.13.22-.07.49.12.64l2.11 1.65c-.04.32-.07.65-.07.98 0 .33.03.66.07.98l-2.11 1.65c-.19.15-.24.42-.12.64l2 3.46a.5.5 0 00.61.22l2.49-1c.52.4 1.08.73 1.69.98l.38 2.65c.03.24.24.42.49.42h4c.25 0 .46-.18.49-.42l.38-2.65c.61-.25 1.17-.59 1.69-.98l2.49 1c.06.02.12.03.18.03.17 0 .34-.09.43-.25l2-3.46c.12-.22.07-.49-.12-.64l-2.11-1.65zm-1.98-1.71c.04.31.05.52.05.73 0 .21-.02.43-.05.73l-.14 1.13.89.7 1.08.84-.7 1.21-1.27-.51-1.04-.42-.9.68c-.43.32-.84.56-1.25.73l-1.06.43-.16 1.13-.2 1.35h-1.4l-.19-1.35-.16-1.13-1.06-.43c-.43-.18-.83-.41-1.23-.71l-.91-.7-1.06.43-1.27.51-.7-1.21 1.08-.84.89-.7-.14-1.13c-.03-.31-.05-.54-.05-.74s.02-.43.05-.73l.14-1.13-.89-.7-1.08-.84.7-1.21 1.27.51 1.04.42.9-.68c.43-.32.84-.56 1.25-.73l1.06-.43.16-1.13.2-1.35h1.39l.19 1.35.16 1.13 1.06.43c.43.18.83.41 1.23.71l.91.7 1.06-.43 1.27-.51.7 1.21-1.07.85-.89.7.14 1.13zM12 8c-2.21 0-4 1.79-4 4s1.79 4 4 4 4-1.79 4-4-1.79-4-4-4zm0 6c-1.1 0-2-.9-2-2s.9-2 2-2 2 .9 2 2-.9 2-2 2z"/></symbol><symbol id="icon-setting-1" viewBox="0 0 32 32" xml:space="preserve" xmlns="http://www.w3.org/2000/svg"><style/><path d="M29.9 24.6l-2-5c-.1-.4-.5-.6-.9-.6V7c0-.6-.4-1-1-1H6c-.6 0-1 .4-1 1v12c-.4 0-.8.2-.9.6l-2 5c-.1.3-.1.7.1.9s.5.5.8.5h26c.3 0 .6-.2.8-.4s.3-.7.1-1zM7 8h18v11H7V8z"/></symbol><symbol viewBox="0 0 24 24" id="icon-shipping-pickup" xmlns="http://www.w3.org/2000/svg"><path d="M16 17.999H8v-1h7v-12H1v12h4v1H0v-14h16zM19.5 15.999a1.5 1.5 0 11-1.5 1.5 1.5 1.5 0 011.5-1.5m0-1a2.5 2.5 0 102.5 2.5 2.5 2.5 0 00-2.5-2.5z"/><path d="M6.5 15.999a1.5 1.5 0 11-1.5 1.5 1.5 1.5 0 011.5-1.5m0-1a2.5 2.5 0 102.5 2.5 2.5 2.5 0 00-2.5-2.5zM24 17.999h-2.775v-1H23v-4.9a3.083 3.083 0 00-3.057-3.1H16v8h1.743v1H15v-10h4.943a4.084 4.084 0 014.057 4.1zM3 7.999h8v1H3zM5 10.999h8v1H5z"/></symbol><symbol viewBox="0 0 24 24" id="icon-sitemap" xmlns="http://www.w3.org/2000/svg"><path d="M21.5 18.05V12h-9V7.95a4 4 0 10-1 0V12h-9v6.05a3 3 0 101 0V13h8v5.05a3 3 0 101 0V13h8v5.05a3 3 0 101 0zM9 4a3 3 0 113 3 3 3 0 01-3-3zM5 21a2 2 0 11-2-2 2 2 0 012 2zm9 0a2 2 0 11-2-2 2 2 0 012 2zm7 2a2 2 0 112-2 2 2 0 01-2 2z"/></symbol><symbol viewBox="0 0 24 24" id="icon-store" xmlns="http://www.w3.org/2000/svg"><path d="M17.5 13.942h-2a1.535 1.535 0 00-1.5 1.494v1.991a1.535 1.535 0 001.5 1.494h2a1.535 1.535 0 001.5-1.494v-1.991a1.469 1.469 0 00-1.5-1.494zm.5 3.485a.471.471 0 01-.5.5h-2a.471.471 0 01-.5-.5v-1.991a.471.471 0 01.5-.5h2a.471.471 0 01.5.5z"/><path d="M23.5 6.971L20.6 1.1A1.89 1.89 0 0018.8 0H5.3a1.89 1.89 0 00-1.8 1.1L.6 6.971H0v1.9a3.262 3.262 0 002 2.988v10.448A1.682 1.682 0 003.7 24H20a2 2 0 002-1.992V11.851a2.9 2.9 0 002-2.789V7.071h-.5zM4.3 1.494A1.149 1.149 0 015.2.9h13.5a.961.961 0 01.9.6l2.7 5.377H1.6zM7 7.967h4v.9a2.079 2.079 0 01-1.3 1.992A2.064 2.064 0 017 8.963zm6 0h4v.9a2 2 0 11-4 .1zm-12 1v-1h4v.9a2.079 2.079 0 01-1.3 1.992A2.064 2.064 0 011 8.963zm10 13.938H6v-7.469a.471.471 0 01.5-.5h4a.471.471 0 01.5.5zm9 0h-8v-7.469a1.535 1.535 0 00-1.5-1.494h-4A1.535 1.535 0 005 15.436v7.469H3.7a.682.682 0 01-.7-.7V11.95a2.94 2.94 0 003-2.987v-.1a3.116 3.116 0 002.4 3.087A3.045 3.045 0 0012 9.062v-.1a3.117 3.117 0 002.4 3.087A3.045 3.045 0 0018 9.162v-.1a3.115 3.115 0 002.4 3.087h.5v9.959c.1.299-.4.797-.9.797zm3-14.042a2 2 0 11-4 .1v-1h4z"/></symbol><symbol viewBox="0 0 24 24" id="icon-system-setting" xmlns="http://www.w3.org/2000/svg"><path d="M23.281 14.631l-2.206-1.725a8.415 8.415 0 00.052-.906 8.681 8.681 0 00-.052-.906l2.208-1.726a1.081 1.081 0 00.261-1.378L21.25 4.021a1.069 1.069 0 00-.94-.546 1.122 1.122 0 00-.387.069l-2.6 1.045a8.88 8.88 0 00-1.562-.907l-.4-2.761A1.062 1.062 0 0014.3 0H9.7a1.06 1.06 0 00-1.057.911l-.4 2.771a9.2 9.2 0 00-1.56.908L4.076 3.542a1.067 1.067 0 00-1.317.469L.462 7.986a1.073 1.073 0 00.26 1.384l2.206 1.724a8.742 8.742 0 00-.052.906c0 .275.017.568.05.906L.718 14.633a1.083 1.083 0 00-.26 1.378l2.294 3.969a1.063 1.063 0 00.94.545 1.144 1.144 0 00.387-.068l2.6-1.045a9.015 9.015 0 001.563.907l.4 2.76A1.062 1.062 0 009.7 24h4.6a1.06 1.06 0 001.059-.911l.4-2.77a9.2 9.2 0 001.56-.908l2.61 1.048a1.07 1.07 0 00.387.073 1.059 1.059 0 00.93-.542L23.55 16a1.081 1.081 0 00-.269-1.369zm-2.915 4.88c0 .007-.024.02-.064.02l-2.61-1.048-.508-.2-.445.318a8.2 8.2 0 01-1.391.811l-.5.226-.078.543-.4 2.788a.078.078 0 01-.07.031H9.7a.067.067 0 01-.07-.063l-.4-2.76-.078-.544-.5-.226a8 8 0 01-1.385-.807l-.447-.322-.511.2-2.617 1.047a.077.077 0 01-.074-.045l-2.282-3.947c-.026-.048-.025-.094 0-.112l2.208-1.727.433-.339-.054-.546A8.245 8.245 0 013.878 12a7.653 7.653 0 01.047-.8l.057-.55-.436-.341-2.2-1.72a.076.076 0 01-.014-.1l2.309-4c0-.01.024-.02.06-.02H3.7l2.61 1.048.508.2.449-.317a8.136 8.136 0 011.391-.811l.5-.226.078-.543.4-2.789A.076.076 0 019.7 1h4.6a.068.068 0 01.07.063l.4 2.761.078.545.5.225a7.9 7.9 0 011.386.805l.447.323.511-.2 2.618-1.047a.08.08 0 01.074.046l2.283 3.949c.025.047.024.091 0 .11l-2.208 1.726-.437.341.058.552a7.456 7.456 0 01.047.8 7.574 7.574 0 01-.046.8l-.061.553.439.343 2.2 1.72a.078.078 0 01.025.086z"/><path d="M12 8a4 4 0 104 4 4 4 0 00-4-4zm0 7a3 3 0 113-3 3 3 0 01-3 3z"/></symbol><symbol viewBox="0 0 24 24.004" id="icon-users" xmlns="http://www.w3.org/2000/svg"><path d="M7.928 13.789a7.566 7.566 0 10-.913-.7 12.07 12.07 0 00-6.97 9.913H0v1h14v-1H1.051a11.054 11.054 0 016.877-9.213zM5.5 7.502a6.5 6.5 0 116.5 6.5 6.508 6.508 0 01-6.5-6.5zM18 15h6v1h-6zM18 18.994h6v1h-6zM18 23.002h6v1h-6z"/></symbol></svg>