<svg xmlns="http://www.w3.org/2000/svg" width="0" height="0">
    <defs>
        <symbol id="test" viewBox="0 0 20 20">
            <path d="M10 0C5.589 0 2 3.589 2 8c0 7.495 7.197 11.694 7.504 11.869a.996.996 0 0 0 .992 0C10.803 19.694 18 15.495 18 8c0-4.412-3.589-8-8-8m-.001 17.813C8.478 16.782 4 13.296 4 8c0-3.31 2.691-6 6-6s6 2.69 6 6c0 5.276-4.482 8.778-6.001 9.813M10 10c-1.103 0-2-.897-2-2s.897-2 2-2 2 .897 2 2-.897 2-2 2m0-6C7.794 4 6 5.794 6 8s1.794 4 4 4 4-1.794 4-4-1.794-4-4-4"></path>
        </symbol>

          <symbol id="arrow-up" viewBox="0 0 24 24" >
            <rect fill="none" height="24" width="24"/><path d="M5,9l1.41,1.41L11,5.83V22H13V5.83l4.59,4.59L19,9l-7-7L5,9z"/>
        </symbol>

         <symbol id="arrow-down" viewBox="0 0 24 24">
            <rect fill="none" height="24" width="24"/><path d="M19,15l-1.41-1.41L13,18.17V2H11v16.17l-4.59-4.59L5,15l7,7L19,15z"/>
        </symbol>



        <symbol id="add"  viewBox="0 0 341.4 341.4">
            <g>
	<g>
		<polygon points="192,149.4 192,0 149.4,0 149.4,149.4 0,149.4 0,192 149.4,192 149.4,341.4 192,341.4 192,192 341.4,192 
			341.4,149.4 		"/>
	</g>
</g>
        </symbol>

 <symbol id="active"  viewBox="0 0 24 24">
           <path d="M0 0h24v24H0z" fill="none"/><path d="M17 6H7c-3.31 0-6 2.69-6 6s2.69 6 6 6h10c3.31 0 6-2.69 6-6s-2.69-6-6-6zm0 10H7c-2.21 0-4-1.79-4-4s1.79-4 4-4h10c2.21 0 4 1.79 4 4s-1.79 4-4 4zm0-7c-1.66 0-3 1.34-3 3s1.34 3 3 3 3-1.34 3-3-1.34-3-3-3z"/> </symbol>

             <symbol id="in-active"  viewBox="0 0 24 24">
           
           <path d="M0 0h24v24H0V0z" fill="none"/><path d="M17 6H7c-3.31 0-6 2.69-6 6s2.69 6 6 6h10c3.31 0 6-2.69 6-6s-2.69-6-6-6zm0 10H7c-2.21 0-4-1.79-4-4s1.79-4 4-4h10c2.21 0 4 1.79 4 4s-1.79 4-4 4zM7 9c-1.66 0-3 1.34-3 3s1.34 3 3 3 3-1.34 3-3-1.34-3-3-3z"/>
           </symbol>



         <symbol id="edit"  viewBox="0 0 24 24">
            <g><rect fill="none" height="24" width="24"/></g><g><g><g>
            <path d="M3,21l3.75,0L17.81,9.94l-3.75-3.75L3,17.25L3,21z M5,18.08l9.06-9.06l0.92,0.92L5.92,19L5,19L5,18.08z"/></g><g><path d="M18.37,3.29c-0.39-0.39-1.02-0.39-1.41,0l-1.83,1.83l3.75,3.75l1.83-1.83c0.39-0.39,0.39-1.02,0-1.41L18.37,3.29z"/></g></g></g>
            </symbol>

              <symbol id="delete" viewBox="0 0 24 24">
            <path d="M0 0h24v24H0V0z" fill="none"/><path d="M6 19c0 1.1.9 2 2 2h8c1.1 0 2-.9 2-2V7H6v12zM8 9h8v10H8V9zm7.5-5l-1-1h-5l-1 1H5v2h14V4h-3.5z"/>
             </symbol>

    </defs>

</svg>


 