<svg xmlns="http://www.w3.org/2000/svg" width="0" height="0">
    <defs>
        <symbol id="test" viewBox="0 0 20 20">
            <path d="M10 0C5.589 0 2 3.589 2 8c0 7.495 7.197 11.694 7.504 11.869a.996.996 0 0 0 .992 0C10.803 19.694 18 15.495 18 8c0-4.412-3.589-8-8-8m-.001 17.813C8.478 16.782 4 13.296 4 8c0-3.31 2.691-6 6-6s6 2.69 6 6c0 5.276-4.482 8.778-6.001 9.813M10 10c-1.103 0-2-.897-2-2s.897-2 2-2 2 .897 2 2-.897 2-2 2m0-6C7.794 4 6 5.794 6 8s1.794 4 4 4 4-1.794 4-4-1.794-4-4-4"></path>
        </symbol>
        <symbol id="edit-icon" viewBox="0 0 24 24">
            <g>
                <path d="M19.473.856a3.03,3.03,0,0,0-4.281,0L14.12,1.934,2.713,13.335l-.024.024c-.006.006-.006.012-.012.012-.012.018-.03.036-.042.054s-.006.006-.006.012-.018.03-.03.048-.006.012-.012.018-.012.03-.018.048-.006.006-.006.012L.031,21.175a.6.6,0,0,0,.145.617.609.609,0,0,0,.43.176.714.714,0,0,0,.194-.03L8.4,19.4c.006,0,.006,0,.012-.006a.219.219,0,0,0,.054-.024.021.021,0,0,0,.012-.006c.018-.012.042-.024.06-.037s.036-.03.055-.042.012-.006.012-.012.018-.012.024-.024L21.113,6.772a3.029,3.029,0,0,0,0-4.281ZM8.211,17.978,4,13.765,14.544,3.218l4.214,4.214ZM3.4,14.885l3.681,3.681L1.557,20.406ZM20.26,5.924l-.642.648L15.4,2.358l.648-.648a1.816,1.816,0,0,1,2.567,0l1.647,1.647a1.822,1.822,0,0,1-.006,2.567Zm0,0" />
            </g>
        </symbol>
        <symbol id="delete-icon" viewBox="0 0 24 24">
           <g transform="translate(-497 -1307)">
                <g transform="translate(484.162 1308)">
                    <g transform="translate(15.922 4.236)">
                        <path
                            d="M64.131,98.512l1.4,15.983H75.819l1.4-15.983L79,98.668l-1.428,16.273a1.5,1.5,0,0,1-1.482,1.338H65.265a1.5,1.5,0,0,1-1.483-1.349L62.354,98.668Z"
                            transform="translate(-62.354 -98.512)" />
                    </g>
                    <g transform="translate(19.488)">
                        <path
                            d="M146.783,0h6.54a1.488,1.488,0,0,1,1.486,1.486V4.311h-1.784V1.784h-5.946V4.311H145.3V1.486A1.488,1.488,0,0,1,146.783,0Z"
                            transform="translate(-145.297)" />
                    </g>
                    <g transform="translate(13.838 3.419)">
                        <path d="M14.73,79.568H33.76a.892.892,0,1,1,0,1.784H14.73a.892.892,0,1,1,0-1.784Z"
                            transform="translate(-13.838 -79.568)" />
                    </g>
                </g>
            </g>
        </symbol>
    </defs>
</svg>