<?xml version="1.0" encoding="utf-8"?>
<!-- Generator: Adobe Illustrator 23.1.0, SVG Export Plug-In . SVG Version: 6.00 Build 0)  -->
<svg version="1.1" id="zs-store-todo-done" xmlns="http://www.w3.org/2000/svg" xmlns:xlink="http://www.w3.org/1999/xlink" x="0px"
	 y="0px" viewBox="0 0 64 54" style="enable-background:new 0 0 64 54;" xml:space="preserve">
<style type="text/css">
	.st0{fill-rule:evenodd;clip-rule:evenodd;fill:#ECF9E6;}
	.st1{fill:none;stroke:#6FC56E;}
	.st2{fill-rule:evenodd;clip-rule:evenodd;fill:#6FC56E;}
</style>
<g>
	<g>
		<circle id="store-todo-done-a" class="st0" cx="32.5" cy="27.5" r="21.5"/>
	</g>
	<circle class="st1" cx="32.5" cy="27.5" r="21"/>
	<path class="st2" d="M40.5,21.2c-0.2-0.3-0.7-0.3-0.9,0c0,0,0,0,0,0l-9,8.9c-0.2,0.2-0.6,0.3-0.9,0l-4.3-3.9
		c-0.3-0.2-0.7-0.2-0.9,0c0,0,0,0,0,0l-1.3,1.6c-0.2,0.3-0.2,0.7,0.1,1l6.6,6c0.3,0.2,0.7,0.2,0.9,0l11.2-11.1c0.3-0.3,0.3-0.7,0-1
		L40.5,21.2L40.5,21.2z"/>
</g>
</svg>
