<?xml version="1.0" encoding="utf-8"?><svg xmlns="http://www.w3.org/2000/svg" xmlns:xlink="http://www.w3.org/1999/xlink"><symbol viewBox="0 0 24 24" id="icon-grid" xmlns="http://www.w3.org/2000/svg"><g fill="none" fill-rule="evenodd"><path d="M0 0h24v24H0z"/><rect fill="currentColor" x="4" y="4" width="7" height="7" rx="1.5"/><path d="M5.5 13h4a1.5 1.5 0 011.5 1.5v4A1.5 1.5 0 019.5 20h-4A1.5 1.5 0 014 18.5v-4A1.5 1.5 0 015.5 13zm9-9h4A1.5 1.5 0 0120 5.5v4a1.5 1.5 0 01-1.5 1.5h-4A1.5 1.5 0 0113 9.5v-4A1.5 1.5 0 0114.5 4zm0 9h4a1.5 1.5 0 011.5 1.5v4a1.5 1.5 0 01-1.5 1.5h-4a1.5 1.5 0 01-1.5-1.5v-4a1.5 1.5 0 011.5-1.5z" fill="currentColor" opacity=".3"/></g></symbol><symbol viewBox="0 0 24 24" id="icon-search" xmlns="http://www.w3.org/2000/svg"><g fill="none" fill-rule="evenodd"><path d="M0 0h24v24H0z"/><path d="M14.293 16.707a1 1 0 011.414-1.414l4 4a1 1 0 01-1.414 1.414l-4-4z" fill="currentColor" fill-rule="nonzero"/><path d="M11 16a5 5 0 100-10 5 5 0 000 10zm0 2a7 7 0 110-14 7 7 0 010 14z" fill="currentColor" fill-rule="nonzero"/></g></symbol><symbol id="icon-setting-1" viewBox="0 0 32 32" xml:space="preserve" xmlns="http://www.w3.org/2000/svg"><style/><path d="M29.9 24.6l-2-5c-.1-.4-.5-.6-.9-.6V7c0-.6-.4-1-1-1H6c-.6 0-1 .4-1 1v12c-.4 0-.8.2-.9.6l-2 5c-.1.3-.1.7.1.9s.5.5.8.5h26c.3 0 .6-.2.8-.4s.3-.7.1-1zM7 8h18v11H7V8z"/></symbol></svg>