<?xml version="1.0" encoding="utf-8"?>
<!-- Generator: Adobe Illustrator 24.1.3, SVG Export Plug-In . SVG Version: 6.00 Build 0)  -->
<svg version="1.1" id="Layer_1" xmlns="http://www.w3.org/2000/svg" xmlns:xlink="http://www.w3.org/1999/xlink" x="0px" y="0px"
	 width="34px" height="34px" viewBox="0 0 34 34" enable-background="new 0 0 34 34" xml:space="preserve">
<g>
	<g>
		<path fill="#D1D1D1" d="M29,5c-3.2-3.2-7.5-5-12-5C12.5,0,8.2,1.8,5,5c-3.2,3.2-5,7.5-5,12s1.8,8.8,5,12s7.5,5,12,5
			c4.5,0,8.8-1.8,12-5s5-7.5,5-12S32.2,8.2,29,5z M17,32C8.7,32,2,25.3,2,17S8.7,2,17,2s15,6.7,15,15S25.3,32,17,32z"/>
	</g>
</g>
<g>
	<g>
		<path fill="#D1D1D1" d="M25.1,11.5c-0.4-0.4-1-0.4-1.4,0l-8.8,8.8l-4.6-4.6c-0.4-0.4-1-0.4-1.4,0c-0.4,0.4-0.4,1,0,1.4l5.3,5.3
			c0.2,0.2,0.4,0.3,0.7,0.3c0.3,0,0.5-0.1,0.7-0.3l9.5-9.5C25.5,12.6,25.5,11.9,25.1,11.5z"/>
	</g>
</g>
</svg>
