<svg xmlns="http://www.w3.org/2000/svg" width="80" height="80" viewBox="0 0 80 80">
    <g id="_60x60-3" data-name="60x60-3" transform="translate(-457 -1133)">
        <rect id="Rectangle_3032" data-name="Rectangle 3032" width="80" height="80" transform="translate(457 1133)" fill="none"/>
        <g id="Layer_1" data-name="Layer 1" transform="translate(465 1141)">
            <path id="Path_6472" data-name="Path 6472" d="M0,54.571V1.719A3.184,3.184,0,0,1,1.719,0h15.3V19.684a2.3,2.3,0,0,0,2.483,2.5H36.644a2.309,2.309,0,0,0,2.5-2.5c.012-3.413,0-6.824,0-10.236q0-4.724.021-9.448H54.457a2.967,2.967,0,0,1,1.707,3.128c-.039,8.684-.019,17.379-.019,26.052v.887A24.089,24.089,0,0,0,30,56.267h-.88c-8.667,0-17.333-.019-26,.021A2.985,2.985,0,0,1,0,54.571ZM17.049,41.663H12.98a2.289,2.289,0,1,0-.052,4.573q4.068.031,8.133,0a2.291,2.291,0,1,0-.019-4.576c-1.328-.005-2.66,0-3.993,0Z" transform="translate(0 0)" />
            <path id="Path_6473" data-name="Path 6473" d="M192.883,207.509c-.895-.191-1.805-.327-2.68-.581a13.3,13.3,0,1,1,5.717.447c-.257.04-.512.087-.769.133Zm-.556-12.321c-.641-.656-1.236-1.288-1.859-1.889a1.571,1.571,0,1,0-2.225,2.217q1.46,1.5,2.961,2.959a1.513,1.513,0,0,0,2.211.032q3.247-3.2,6.447-6.432a1.565,1.565,0,1,0-2.229-2.2c-1.225,1.189-2.424,2.4-3.631,3.612-.544.543-1.08,1.1-1.675,1.7Z" transform="translate(-143.518 -144.97)" />
            <path id="Path_6474" data-name="Path 6474" d="M126.015,0l-.028,16.667v.9H113V0Z" transform="translate(-91.42 0)" />
        </g>
    </g>
</svg>