<svg xmlns="http://www.w3.org/2000/svg" width="80" height="80" viewBox="0 0 80 80">
    <g id="_60x60-1" data-name="60x60-1" transform="translate(-458 -1140.1)">
        <rect id="Rectangle_3030" data-name="Rectangle 3030" width="80" height="80" transform="translate(458 1140.1)" fill="none"/>
        <g id="_60x60-2" data-name="60x60-2" transform="translate(1 4.1)">
            <rect id="Rectangle_3031" data-name="Rectangle 3031" width="80" height="80" transform="translate(457 1136)" fill="none"/>
            <g id="Layer_1" data-name="Layer 1" transform="translate(459.472 1140)">
                <path id="Path_6476" data-name="Path 6476" d="M59.752,0A18.534,18.534,0,0,1,62,.637a9.385,9.385,0,0,1,5.9,8.191c.613,5.044,1.333,10.072,1.983,15.109.052.4.191.5.573.547a3.023,3.023,0,0,1,2.731,3.191,3.067,3.067,0,0,1-3.009,2.859,4.392,4.392,0,0,1-2.309-.513,20.667,20.667,0,0,0-20.172.133,3.163,3.163,0,0,1-1.408.361q-16.544.039-33.085.019H12.185V57.589a3.151,3.151,0,0,0,3.533,3.527q11.613,0,23.228-.013a1.057,1.057,0,0,1,1.083.667c.873,1.559,1.816,3.076,2.735,4.608.143.239.3.468.507.789-.327.015-.553.035-.779.035H15.475a9.105,9.105,0,0,1-9.251-7.711,11.151,11.151,0,0,1-.113-1.923q0-13.033,0-26.067v-.955c-.743,0-1.428-.052-2.1.009A3.516,3.516,0,0,1,0,28.219V26.787a3.34,3.34,0,0,1,3-2.353c.107,0,.267-.3.287-.472.681-5.024,1.395-10.047,2-15.087a9.4,9.4,0,0,1,5.072-7.844A21.308,21.308,0,0,1,13.436,0ZM33.507,24.413V6.157H25.549L23.12,24.413ZM39.685,6.157V24.413H50.068c-.813-6.111-1.62-12.175-2.429-18.256ZM19.391,6.124c-1.7,0-3.288-.017-4.877,0a3.029,3.029,0,0,0-3.067,2.8q-.988,7.441-1.98,14.872a4.543,4.543,0,0,0,0,.6H16.96C17.769,18.317,18.573,12.277,19.391,6.124Zm34.464.039a1.82,1.82,0,0,0-.009.217q1.165,8.821,2.323,17.641c.061.469.336.436.649.433h6.967c-.065-.523-.113-.955-.168-1.367-.627-4.775-1.245-9.548-1.891-14.311a2.888,2.888,0,0,0-2.483-2.589c-1.78-.1-3.564-.025-5.389-.025Z" transform="translate(0 0)" />
                <path id="Path_6477" data-name="Path 6477" d="M235.232,207.275a18.638,18.638,0,0,1-1.771-1.343,36.692,36.692,0,0,1-8.133-10.8,16.179,16.179,0,0,1-1.677-7.773,11.985,11.985,0,1,1,23.913,1.659,18.907,18.907,0,0,1-2.845,8.325,40.415,40.415,0,0,1-7.772,9.333,6.728,6.728,0,0,1-.933.6Zm-4.4-19.193a4.752,4.752,0,1,0-.005,0Z" transform="translate(-176.441 -140.074)" />
                <rect id="Rectangle_3033" data-name="Rectangle 3033" width="21" height="12" transform="translate(17.528 43)"  />
            </g>
        </g>
    </g>
</svg>