<?xml version="1.0" encoding="utf-8"?>
<!-- Generator: Adobe Illustrator 23.1.0, SVG Export Plug-In . SVG Version: 6.00 Build 0)  -->
<svg version="1.1" id="Layer_1" xmlns="http://www.w3.org/2000/svg" xmlns:xlink="http://www.w3.org/1999/xlink" x="0px" y="0px"
	 width="512px" height="66.9px" viewBox="0 0 512 66.9" style="enable-background:new 0 0 512 66.9;" xml:space="preserve">
<style type="text/css">
	.st0{fill:#E5E5E5;}
	.st1{fill:#EF3F5C;}
</style>
<polygon class="st0" points="0,66.9 0.1,59 4,59.1 4,55 6.8,55 6.8,52.8 9.5,52.8 9.5,54.9 14.3,55 14.3,56.7 16.8,56.7 16.8,60.3 
	20.1,60.4 20.1,56.3 23.8,56.3 23.9,46.9 26.7,46.9 26.8,45.3 29.7,45.4 29.7,47.3 30.8,47.3 30.9,43.5 34.5,43.5 34.5,45.6 
	36.4,45.6 36.3,56.9 38.4,57 38.4,59.2 41,59.2 41.1,42.5 44.1,42.5 44.1,40.6 51,40.7 50.9,42.6 54.4,42.7 54.3,58.9 68.3,59.1 
	68.5,35.7 70.2,35.7 70.2,33.5 74,33.6 74,35.5 76.6,35.5 76.3,58.7 78.8,58.7 79,37.9 80.6,37.9 80.7,35.5 85.4,35.6 85.4,37.3 
	87.4,37.4 87.3,49.8 89.4,49.8 89.4,47.3 91.6,47.3 91.6,49.9 93.6,49.9 93.6,45.8 104.7,45.9 104.5,58.4 108,58.4 108.1,50.1 
	118.9,50.2 118.8,57.8 124.4,57.8 124.5,43.9 126.4,44 126.4,41.6 130.5,41.6 130.5,43.9 134.8,43.9 134.8,46.3 138.5,46.3 
	138.4,58.5 140.8,58.5 140.9,49.7 142.4,49.7 142.5,47.5 146.8,47.5 146.8,49.7 149.4,49.8 149.4,56.7 159.2,56.8 159.5,30.6 
	160.6,30.7 160.7,24.2 162.6,24.2 162.6,20.3 173.5,20.4 173.4,24.2 176.7,24.2 176.3,58.6 179.7,58.6 179.9,42.9 181.5,42.9 
	181.5,38.3 183.9,38.3 183.9,40.5 186.7,40.6 186.6,42.1 189.1,42.2 188.9,58.9 190.9,58.9 190.9,55.4 193.7,55.5 193.9,38 
	195.1,38 196.2,36.5 200.2,36.6 200.2,38.4 202.1,38.4 201.9,57.9 211.4,58 211.7,40.5 216.5,40.6 216.4,42.9 217.6,42.9 
	217.6,41.4 224.8,41.5 224.8,43.7 227,43.7 226.8,58.1 229.6,58.1 229.7,50.1 231.9,50.1 232,47.9 234.9,47.9 234.9,50.1 
	237.9,50.2 237.8,57.9 242.2,57.9 242.4,44.7 243.9,44.7 244,38.1 253.9,38.2 253.9,41.1 256.4,41.1 256.3,47.5 263.1,47.6 
	263.6,2.7 264.4,2.7 264.5,0 270.4,0.1 270.4,1.3 273.9,1.4 273.4,48.8 282.2,48.9 282.4,36.3 289.1,36.4 289.3,26.2 299.1,26.3 
	299,29.6 301.4,29.6 301.3,37.7 304.1,37.7 304.1,35 310.5,35.1 310.5,37.9 313.4,38 313.3,43.3 315.1,43.3 315.3,23.8 317.1,23.8 
	317.1,20 320.5,20.1 324.9,20.1 324.9,22 328.6,22.1 328.5,33.4 332.5,33.4 332.5,30.8 336.8,30.8 336.8,32.7 342.4,32.8 
	342.3,36.9 344.3,36.9 344.3,34.9 346.2,34.9 346.2,32.8 350.7,32.9 350.6,35 353.7,35 353.7,36.4 355.1,36.4 355,40.8 357.2,40.8 
	357.3,38 361.7,38 361.7,36.2 363.7,36.2 363.7,35.2 368,35.2 368,37.3 371,37.4 371,39.4 374.6,39.5 374.6,42 376.3,42 376.2,55.2 
	377,55.2 377,51.6 378.6,51.6 378.7,40.3 379.6,40.3 379.7,38.4 382.9,38.5 382.9,40.2 383.9,40.2 383.8,50.3 385.3,50.3 
	385.5,35.4 394.2,35.5 394.1,39.5 395.2,39.5 395.1,44.1 395.8,44.1 395.7,56.3 398.1,56.3 398.1,54.6 399.2,54.6 399.2,50.3 
	400.2,50.3 400.4,33.6 406.9,33.7 406.8,43.8 407.8,43.8 407.7,50.6 410.7,50.6 410.6,56.9 412.5,56.9 412.5,53.6 415.6,53.7 
	415.7,51.6 426.3,51.7 426.3,49.5 429,49.6 429,52.1 431.8,52.1 431.7,57.9 434,58 434.1,52.6 435.7,52.6 435.8,44.1 437.5,44.1 
	437.5,40.7 439.4,40.7 440.5,39.2 443.9,39.2 444.1,21.4 451.1,21.4 450.9,39.6 454.8,39.6 454.6,53.5 456.8,53.5 457,36.2 
	463.1,36.3 463.1,38.1 468.9,38.2 468.8,44.5 471.6,44.5 471.7,39.8 476,39.9 476,37.3 479.9,37.4 479.7,52.8 485.7,52.9 
	485.9,35.2 486.9,35.3 486.9,33.8 493.1,33.9 493.1,36.7 500,36.7 499.7,54.6 503,54.7 503,60 506.6,60.1 506.6,53.6 508.5,53.6 
	508.5,51 512,51 512,66.9 "/>
<g>
	<g>
		<path class="st1" d="M233.3,13.2c-6.7,0-12.1,5.4-12.1,12.1c0,2.3,0.6,4.5,1.8,6.4l9.5,15.5c0.2,0.3,0.4,0.4,0.7,0.5
			c0.4,0.1,0.8-0.1,1-0.5l9.5-15.6c1.1-1.9,1.7-4,1.7-6.2C245.4,18.6,240,13.2,233.3,13.2z M233.3,31.3c-3.4,0-6.1-2.7-6.1-6.1
			c0-3.3,2.7-6.1,6.1-6.1s6.1,2.7,6.1,6.1C239.3,28.6,236.7,31.3,233.3,31.3z"/>
	</g>
</g>
</svg>
