<svg id="Layer_1" data-name="Layer 1" xmlns="http://www.w3.org/2000/svg" width="78.765" height="73.283" viewBox="0 0 78.765 73.283">
    <path id="Path_6464" data-name="Path 6464" d="M52.006,234.127H0c.133-1.352.195-2.695.424-4q3.445-19.323,21.448-27.1c1.208-.519,2.5-.848,3.737-1.287a.881.881,0,0,1,1.034.295q3.967,4,7.956,7.987c1.028,1.028,1.571,1.03,2.593,0,2.508-2.508,5.02-5.012,7.508-7.539a.964.964,0,0,1,1.164-.288,35.408,35.408,0,0,1,8.9,4.453c.212.148.424.314.667.5a17.627,17.627,0,0,0-8.222,12.664,16.859,16.859,0,0,0,4.79,14.31Z" transform="translate(0 -162.007)"  />
    <path id="Path_6465" data-name="Path 6465" d="M80.54,18.026A17.894,17.894,0,1,1,85.814,30.69,17.894,17.894,0,0,1,80.54,18.026Z" transform="translate(-63.465 -0.111)" />
    <path id="Path_6475" data-name="Path 6475" d="M192.9,207.537c-.9-.191-1.807-.327-2.683-.582a13.317,13.317,0,1,1,5.723.447c-.258.04-.513.087-.77.133ZM192.34,195.2c-.642-.657-1.237-1.289-1.861-1.891a1.572,1.572,0,1,0-2.228,2.22q1.462,1.5,2.964,2.962a1.515,1.515,0,0,0,2.213.032q3.25-3.2,6.453-6.439a1.567,1.567,0,1,0-2.232-2.2c-1.226,1.191-2.426,2.4-3.634,3.616-.545.543-1.081,1.1-1.676,1.7Z" transform="translate(-128.64 -134.254)"  />
</svg>