<?xml version="1.0" encoding="utf-8"?>
<!-- Generator: Adobe Illustrator 24.1.3, SVG Export Plug-In . SVG Version: 6.00 Build 0)  -->
<svg version="1.1" id="Objects" xmlns="http://www.w3.org/2000/svg" xmlns:xlink="http://www.w3.org/1999/xlink" x="0px" y="0px"
	 width="512px" height="512px" viewBox="0 0 512 512" enable-background="new 0 0 512 512" xml:space="preserve">
<g>
	<ellipse fill="#F5F5F5" cx="246.3" cy="431.4" rx="218.3" ry="15.7"/>
	<g>
		<path fill="#E59D35" d="M279.7,388.7H114.9c-7.5,0-13.5-6.1-13.5-13.5v-15.5c0-7.5,6.1-13.5,13.5-13.5h164.8
			c7.5,0,13.5,6.1,13.5,13.5v15.5C293.2,382.7,287.2,388.7,279.7,388.7z"/>
		<path fill="#FDE47C" d="M293.4,388.7H128.5c-7.5,0-13.5-6.1-13.5-13.5v-15.5c0-7.5,6.1-13.5,13.5-13.5h164.8
			c7.5,0,13.5,6.1,13.5,13.5v15.5C306.9,382.7,300.8,388.7,293.4,388.7z"/>
	</g>
	<g>
		<path fill="#E59D35" d="M279.7,431.4H114.9c-7.5,0-13.5-6.1-13.5-13.5v-15.5c0-7.5,6.1-13.5,13.5-13.5h164.8
			c7.5,0,13.5,6.1,13.5,13.5v15.5C293.2,425.3,287.2,431.4,279.7,431.4z"/>
		<path fill="#FDE47C" d="M293.4,431.4H128.5c-7.5,0-13.5-6.1-13.5-13.5v-15.5c0-7.5,6.1-13.5,13.5-13.5h164.8
			c7.5,0,13.5,6.1,13.5,13.5v15.5C306.9,425.3,300.8,431.4,293.4,431.4z"/>
	</g>
	<g>
		<path fill="#E59D35" d="M288.1,389.8H120.8c-0.6,0-1.1-0.5-1.1-1.1c0-0.6,0.5-1.1,1.1-1.1h167.3c0.6,0,1.1,0.5,1.1,1.1
			C289.2,389.3,288.7,389.8,288.1,389.8z"/>
	</g>
	<g>
		<path fill="#E59D35" d="M279.7,346.1H114.9c-7.5,0-13.5-6.1-13.5-13.5v-15.5c0-7.5,6.1-13.5,13.5-13.5h164.8
			c7.5,0,13.5,6.1,13.5,13.5v15.5C293.2,340.1,287.2,346.1,279.7,346.1z"/>
		<path fill="#FDE47C" d="M293.4,346.1H128.5c-7.5,0-13.5-6.1-13.5-13.5v-15.5c0-7.5,6.1-13.5,13.5-13.5h164.8
			c7.5,0,13.5,6.1,13.5,13.5v15.5C306.9,340.1,300.8,346.1,293.4,346.1z"/>
	</g>
	<g>
		<path fill="#E59D35" d="M288.1,347.2H120.8c-0.6,0-1.1-0.5-1.1-1.1c0-0.6,0.5-1.1,1.1-1.1h167.3c0.6,0,1.1,0.5,1.1,1.1
			C289.2,346.7,288.7,347.2,288.1,347.2z"/>
	</g>
	<g>
		<path fill="#E59D35" d="M279.7,303.5H114.9c-7.5,0-13.5-6.1-13.5-13.5v-15.5c0-7.5,6.1-13.5,13.5-13.5h164.8
			c7.5,0,13.5,6.1,13.5,13.5V290C293.2,297.5,287.2,303.5,279.7,303.5z"/>
		<path fill="#FDE47C" d="M293.4,303.5H128.5c-7.5,0-13.5-6.1-13.5-13.5v-15.5c0-7.5,6.1-13.5,13.5-13.5h164.8
			c7.5,0,13.5,6.1,13.5,13.5V290C306.9,297.5,300.8,303.5,293.4,303.5z"/>
	</g>
	<g>
		<path fill="#E59D35" d="M288.1,304.6H120.8c-0.6,0-1.1-0.5-1.1-1.1c0-0.6,0.5-1.1,1.1-1.1h167.3c0.6,0,1.1,0.5,1.1,1.1
			C289.2,304.1,288.7,304.6,288.1,304.6z"/>
	</g>
	<g>
		<path fill="#E59D35" d="M306.9,418.9c-0.6,0-1.1-0.5-1.1-1.1v-15.5c0-6.9-5.6-12.4-12.4-12.4c-0.6,0-1.1-0.5-1.1-1.1
			c0-0.6,0.5-1.1,1.1-1.1c6.9,0,12.4-5.6,12.4-12.4v-15.5c0-6.9-5.6-12.4-12.4-12.4c-0.6,0-1.1-0.5-1.1-1.1c0-0.6,0.5-1.1,1.1-1.1
			c6.9,0,12.4-5.6,12.4-12.4v-15.5c0-6.9-5.6-12.4-12.4-12.4c-0.6,0-1.1-0.5-1.1-1.1c0-0.6,0.5-1.1,1.1-1.1
			c6.9,0,12.4-5.6,12.4-12.4v-15.5c0-0.6,0.5-1.1,1.1-1.1c0.6,0,1.1,0.5,1.1,1.1V290c0,6.1-3.8,11.3-9.1,13.5
			c5.3,2.2,9.1,7.4,9.1,13.5v15.5c0,6.1-3.8,11.3-9.1,13.5c5.3,2.2,9.1,7.4,9.1,13.5v15.5c0,6.1-3.8,11.3-9.1,13.5
			c5.3,2.2,9.1,7.4,9.1,13.5v15.5C308,418.4,307.5,418.9,306.9,418.9z"/>
	</g>
	<path fill="#FDE47C" d="M405.6,201.5c0,0,1.1-14.4-9.3-24.8c-10.4-10.4-24.8-9.3-24.8-9.3s15.6-0.2,24.8-9.3s9.3-24.8,9.3-24.8
		s-0.8,14.6,9.3,24.8c10.2,10.2,24.8,9.3,24.8,9.3s-14.6-0.9-24.8,9.3C404.7,186.9,405.6,201.5,405.6,201.5z"/>
	<path fill="#FAB545" d="M496.4,297.8c0,0,0.5-6.6-4.3-11.3c-4.8-4.8-11.3-4.3-11.3-4.3s7.1-0.1,11.3-4.3s4.3-11.3,4.3-11.3
		s-0.4,6.7,4.3,11.3c4.7,4.7,11.3,4.3,11.3,4.3s-6.7-0.4-11.3,4.3C496,291.2,496.4,297.8,496.4,297.8z"/>
	<path fill="#FDE47C" d="M303.6,96.1c0,0,0.5-6.6-4.3-11.3c-4.8-4.8-11.3-4.3-11.3-4.3s7.1-0.1,11.3-4.3c4.2-4.2,4.3-11.3,4.3-11.3
		s-0.4,6.7,4.3,11.3c4.7,4.7,11.3,4.3,11.3,4.3s-6.7-0.4-11.3,4.3C303.2,89.5,303.6,96.1,303.6,96.1z"/>
	<path fill="#FDE47C" d="M49.5,329.1c0,0,0.5-6.6-4.3-11.3c-4.8-4.8-11.3-4.3-11.3-4.3s7.1-0.1,11.3-4.3c4.2-4.2,4.3-11.3,4.3-11.3
		s-0.4,6.7,4.3,11.3c4.7,4.7,11.3,4.3,11.3,4.3s-6.7-0.4-11.3,4.3C49.1,322.4,49.5,329.1,49.5,329.1z"/>
	<path fill="#FAB545" d="M15.6,225.6c0,0,0.5-6.6-4.3-11.3S0,210,0,210s7.1-0.1,11.3-4.3s4.3-11.3,4.3-11.3s-0.4,6.7,4.3,11.3
		c4.7,4.7,11.3,4.3,11.3,4.3s-6.7-0.4-11.3,4.3S15.6,225.6,15.6,225.6z"/>
	<circle fill="#FDE47C" cx="503.8" cy="358.7" r="7.4"/>
	<circle fill="#FDE47C" cx="139.5" cy="221.9" r="3.6"/>
	<circle fill="#FDE47C" cx="361.3" cy="222" r="3.6"/>
	<circle fill="#FDE47C" cx="259.1" cy="197" r="5.2"/>
	<g>
		
			<ellipse transform="matrix(0.9922 -0.1248 0.1248 0.9922 -20.3331 27.0086)" fill="#E59D35" cx="205.5" cy="175.8" rx="85.2" ry="85.2"/>
		
			<ellipse transform="matrix(0.2321 -0.9727 0.9727 0.2321 -5.9343 342.5024)" fill="#FDE47C" cx="213.9" cy="175" rx="84.5" ry="84.5"/>
		<circle fill="#F8B545" cx="213.2" cy="175" r="67.7"/>
		<path fill="#F8B545" d="M151.3,178.8c0-37.4,30.3-67.7,67.7-67.7c14,0,27,4.3,37.8,11.5c-11.7-9.6-26.6-15.3-42.9-15.3
			c-37.4,0-67.7,30.3-67.7,67.7c0,21.2,9.7,40.1,25,52.5c-6.8-6.9-12.1-15.2-15.4-24.4C152.9,195.5,151.3,187.4,151.3,178.8z"/>
	</g>
	<g>
		<text transform="matrix(1 0 0 1 189.916 197.9961)" fill="#FDE47C" font-family="'Montserrat-Bold'" font-size="57.0725px">P</text>
	</g>
	<g>
		
			<ellipse transform="matrix(0.9922 -0.1248 0.1248 0.9922 -41.0147 47.7946)" fill="#E59D35" cx="361" cy="351.3" rx="85.2" ry="85.2"/>
		
			<ellipse transform="matrix(0.2321 -0.9727 0.9727 0.2321 -57.1521 628.6282)" fill="#FDE47C" cx="369.5" cy="350.5" rx="84.5" ry="84.5"/>
		<circle fill="#F8B545" cx="368.8" cy="350.5" r="67.7"/>
		<path fill="#F8B545" d="M306.9,354.3c0-37.4,30.3-67.7,67.7-67.7c14,0,27,4.3,37.8,11.5c-11.7-9.6-26.6-15.3-42.9-15.3
			c-37.4,0-67.7,30.3-67.7,67.7c0,21.2,9.7,40.1,25,52.5c-6.8-6.9-12.1-15.2-15.4-24.4C308.5,371,306.9,362.9,306.9,354.3z"/>
	</g>
	<g>
		<text transform="matrix(1 0 0 1 345.5156 373.4961)" fill="#FDE47C" font-family="'Montserrat-Bold'" font-size="57.0725px">P</text>
	</g>
</g>
</svg>
