<svg xmlns="http://www.w3.org/2000/svg" viewBox="0 0 64 64">
    <g fill="#dddddd">
        <path d="M51.8 50.4H12.3c-2.3 0-4.2-1.9-4.2-4.2V18c0-2.3 1.9-4.2 4.2-4.2h39.5c2.3 0 4.2 1.9 4.2 4.2v28.2c0 2.3-1.9 4.2-4.2 4.2zM12.2 16.5c-.8 0-1.4.6-1.4 1.4v28.2c0 .8.6 1.4 1.4 1.4h39.5c.8 0 1.4-.6 1.4-1.4V17.9c0-.8-.6-1.4-1.4-1.4H12.2z"/>
        <path d="M39.1 30.5c-3.1 0-5.5-2.5-5.5-5.5s2.5-5.5 5.5-5.5 5.5 2.5 5.5 5.5-2.5 5.5-5.5 5.5zm0-8.5c-1.6 0-2.9 1.3-2.9 2.9 0 1.6 1.3 2.9 2.9 2.9 1.6 0 2.9-1.3 2.9-2.9 0-1.6-1.3-2.9-2.9-2.9zM46.6 49.9 23.5 28.2 10.3 40.4l-1.8-1.9 15-13.9L48.4 48l-1.8 1.9"/>
        <path d="m53.8 42.7-7.7-6.2-6.4 5.3-1.7-2.1 8.1-6.6 9.3 7.6-1.6 2"/>
    </g>
</svg>