<?xml version="1.0" encoding="utf-8"?>
<!-- Generator: Adobe Illustrator 24.1.3, SVG Export Plug-In . SVG Version: 6.00 Build 0)  -->
<svg version="1.1" id="Layer_1" xmlns="http://www.w3.org/2000/svg" xmlns:xlink="http://www.w3.org/1999/xlink" x="0px" y="0px"
	 width="512px" height="512px" viewBox="0 0 512 512" enable-background="new 0 0 512 512" xml:space="preserve">
<g>
	<g>
		<path fill="#FFFFFF" d="M443.2,491.9h-360c-3.9,0-7-3.3-6.7-7.2l26.2-327.1h321l26.2,327.1C450.2,488.6,447.1,491.9,443.2,491.9z"
			/>
		<path fill="#EAEDF7" d="M423.7,157.5h-45.9l16.9,286c0.2,3.8-2.8,7.1-6.7,7.1H79.3l-2.7,34.1c-0.3,3.9,2.8,7.2,6.7,7.2h360
			c3.9,0,7-3.3,6.7-7.2L423.7,157.5z"/>
		<path fill="#525A7E" d="M443.2,496.9h-360c-3.3,0-6.4-1.4-8.6-3.8s-3.3-5.6-3.1-8.9l26.2-327.1c0.2-2.6,2.4-4.6,5-4.6h321
			c2.6,0,4.8,2,5,4.6l26.2,327.1c0.3,3.3-0.9,6.5-3.1,8.9S446.5,496.9,443.2,496.9z M107.4,162.5L81.6,485.1
			c-0.1,0.6,0.3,1.1,0.4,1.3c0.2,0.2,0.6,0.5,1.2,0.5h360c0.6,0,1-0.3,1.2-0.5s0.5-0.6,0.4-1.3L419,162.6H107.4V162.5z"/>
		<polygon fill="#EAEDF7" points="423.7,157.5 102.7,157.5 176.3,104 129.5,63.9 397,63.9 350.2,104 		"/>
		<polygon fill="#FFFFFF" points="303.3,157.5 176.3,157.5 176.3,104 129.5,63.9 303.3,63.9 		"/>
		<path fill="#525A7E" d="M423.7,162.5h-321c-2.2,0-4.1-1.4-4.8-3.5c-0.7-2.1,0.1-4.3,1.8-5.6l68.4-49.8l-42-36
			c-1.6-1.4-2.2-3.6-1.4-5.6c0.7-2,2.6-3.3,4.7-3.3H397c2.1,0,4,1.3,4.7,3.3s0.2,4.2-1.4,5.6l-42,36l68.4,49.8
			c1.8,1.3,2.5,3.5,1.8,5.6S425.9,162.5,423.7,162.5z M118.2,152.5h290.1l-61.1-44.4c-1.2-0.9-2-2.3-2.1-3.9c-0.1-1.5,0.6-3,1.8-4
			l36.5-31.3H143.1l36.5,31.3c1.2,1,1.8,2.5,1.7,4s-0.8,3-2.1,3.9L118.2,152.5z"/>
		<path fill="#525A7E" d="M129.5,143.1c-0.8,0-1.6-0.2-2.3-0.5c-1.7-0.9-2.7-2.6-2.7-4.5V63.9c0-2,1.1-3.7,2.9-4.6
			c1.8-0.8,3.9-0.5,5.4,0.8l46.8,40.1c1.2,1,1.8,2.5,1.7,4s-0.8,3-2.1,3.9l-46.8,34C131.6,142.8,130.5,143.1,129.5,143.1z
			 M134.5,74.8v53.4l33.7-24.5L134.5,74.8z"/>
		<polygon fill="#FFFFFF" points="397,63.9 350.2,104 397,138.1 		"/>
		<path fill="#525A7E" d="M397,143.1c-1,0-2.1-0.3-3-1l-46.8-34c-1.2-0.9-2-2.3-2.1-3.9c-0.1-1.5,0.6-3,1.8-4l46.8-40.1
			c1.5-1.3,3.6-1.6,5.4-0.8s2.9,2.6,2.9,4.6v74.2c0,1.9-1.1,3.6-2.7,4.5C398.5,142.9,397.7,143.1,397,143.1z M358.2,103.7l33.7,24.5
			V74.8L358.2,103.7z"/>
		<polygon fill="#FFFFFF" points="176.3,104 102.7,157.5 176.3,157.5 		"/>
		<path fill="#525A7E" d="M176.3,162.5L176.3,162.5h-73.6c-2.2,0-4.1-1.4-4.8-3.5c-0.7-2.1,0.1-4.3,1.8-5.6l73.6-53.5
			c1.5-1.1,3.5-1.3,5.2-0.4c1.7,0.8,2.7,2.6,2.7,4.5v53.5c0,1.3-0.5,2.6-1.5,3.6C178.9,162,177.6,162.5,176.3,162.5z M118.2,152.5
			h53.1v-38.6L118.2,152.5z"/>
		<polygon fill="#FFFFFF" points="350.2,104 423.7,157.5 350.2,157.5 		"/>
		<path fill="#525A7E" d="M423.7,162.5h-73.6c-2.8,0-5-2.2-5-5V104c0-1.9,1.1-3.6,2.7-4.5c1.7-0.9,3.7-0.7,5.2,0.4l73.6,53.5
			c1.8,1.3,2.5,3.5,1.8,5.6C427.8,161.1,425.9,162.5,423.7,162.5z M355.2,152.5h53.1l-53.1-38.6V152.5z"/>
		<circle fill="#FFFFFF" cx="343.5" cy="224.4" r="23.4"/>
		<path fill="#525A7E" d="M343.5,252.8c-15.7,0-28.4-12.8-28.4-28.4s12.8-28.4,28.4-28.4c15.7,0,28.4,12.8,28.4,28.4
			S359.1,252.8,343.5,252.8z M343.5,206c-10.1,0-18.4,8.2-18.4,18.4c0,10.1,8.2,18.4,18.4,18.4s18.4-8.2,18.4-18.4
			C361.9,214.3,353.6,206,343.5,206z"/>
		<circle fill="#FFFFFF" cx="183" cy="224.4" r="23.4"/>
		<path fill="#525A7E" d="M183,252.8c-15.7,0-28.4-12.8-28.4-28.4S167.3,196,183,196s28.4,12.8,28.4,28.4S198.6,252.8,183,252.8z
			 M183,206c-10.1,0-18.4,8.2-18.4,18.4c0,10.1,8.2,18.4,18.4,18.4c10.1,0,18.4-8.2,18.4-18.4C201.4,214.3,193.1,206,183,206z"/>
		<path fill="#525A7E" d="M263.2,349.8c-47,0-85.3-38.3-85.3-85.3v-20.1c0-2.8,2.2-5,5-5s5,2.2,5,5v20.1c0,41.5,33.7,75.2,75.2,75.2
			s75.2-33.7,75.2-75.2v-20.1c0-2.8,2.2-5,5-5s5,2.2,5,5v20.1C348.5,311.5,310.2,349.8,263.2,349.8z"/>
		<path fill="#525A7E" d="M477.2,413.4c-2.6,0-4.8-2-5-4.6l-11.4-142c-0.2-2.8,1.8-5.2,4.6-5.4c2.7-0.2,5.2,1.8,5.4,4.6l11.4,142
			c0.2,2.8-1.8,5.2-4.6,5.4C477.5,413.4,477.3,413.4,477.2,413.4z"/>
		<path fill="#525A7E" d="M463.6,242.8c-2.6,0-4.8-2-5-4.6l-1.8-22.5c-0.2-2.8,1.8-5.2,4.6-5.4c2.7-0.2,5.2,1.8,5.4,4.6l1.8,22.5
			c0.2,2.8-1.8,5.2-4.6,5.4C463.8,242.8,463.7,242.8,463.6,242.8z"/>
		<path fill="#525A7E" d="M59.2,289.4c-0.1,0-0.3,0-0.4,0c-2.8-0.2-4.8-2.6-4.6-5.4l1.8-22.1c0.2-2.8,2.7-4.8,5.4-4.6
			c2.8,0.2,4.8,2.6,4.6,5.4l-1.8,22.1C64,287.4,61.8,289.4,59.2,289.4z"/>
		<path fill="#525A7E" d="M49.3,413.3c-0.1,0-0.3,0-0.4,0c-2.8-0.2-4.8-2.6-4.6-5.4L52,311c0.2-2.8,2.7-4.7,5.4-4.6
			c2.8,0.2,4.8,2.6,4.6,5.4l-7.8,96.9C54,411.3,51.8,413.3,49.3,413.3z"/>
	</g>
	<path fill="#525A7E" d="M508.5,138.4H501v-7.6c0-1.9-1.6-3.5-3.5-3.5s-3.5,1.6-3.5,3.5v7.6h-7.7c-1.9,0-3.5,1.6-3.5,3.5
		s1.6,3.5,3.5,3.5h7.7v7.6c0,1.9,1.6,3.5,3.5,3.5s3.5-1.6,3.5-3.5v-7.6h7.6c2,0,3.5-1.5,3.5-3.5C512,140,510.4,138.4,508.5,138.4z"
		/>
	<path fill="#525A7E" d="M90.4,41.1L83.5,38l3.1-7c0.8-1.7,0-3.8-1.8-4.6c-1.7-0.8-3.8,0-4.6,1.8l-3.1,7l-7-3.1
		c-1.7-0.8-3.8,0-4.6,1.8c-0.8,1.7,0,3.8,1.8,4.6l7,3.1l-3.1,7c-0.8,1.7,0,3.8,1.8,4.6c1.7,0.8,3.8,0,4.6-1.8l3.1-7l6.9,3.1
		c1.8,0.8,3.8,0,4.6-1.8C93,43.9,92.2,41.8,90.4,41.1z"/>
	<path fill="#525A7E" d="M450.6,15.1c-5.4,0-9.7,4.4-9.7,9.7s4.4,9.7,9.7,9.7s9.7-4.4,9.7-9.7S456,15.1,450.6,15.1z M450.6,30.2
		c-3,0-5.4-2.4-5.4-5.4s2.4-5.4,5.4-5.4s5.4,2.4,5.4,5.4S453.6,30.2,450.6,30.2z"/>
	<path fill="#525A7E" d="M16,179.1c-8.8,0-16,7.2-16,16s7.2,16,16,16s16-7.2,16-16C32.1,186.3,24.9,179.1,16,179.1z M16,204.1
		c-4.9,0-8.9-4-8.9-8.9s4-8.9,8.9-8.9s8.9,4,8.9,8.9S20.9,204.1,16,204.1z"/>
</g>
</svg>
