<svg xmlns="http://www.w3.org/2000/svg" xmlns:xlink="http://www.w3.org/1999/xlink" width="1036.708" height="594.049" viewBox="0 0 1036.708 594.049">
  <defs>
    <clipPath id="clip-path">
      <rect id="Rectangle_97" data-name="Rectangle 97" width="77.911" height="386.865" fill="none"/>
    </clipPath>
    <clipPath id="clip-path-2">
      <rect id="Rectangle_98" data-name="Rectangle 98" width="204.679" height="213.246" fill="none"/>
    </clipPath>
    <clipPath id="clip-path-3">
      <rect id="Rectangle_100" data-name="Rectangle 100" width="72.821" height="227.925" fill="none"/>
    </clipPath>
    <clipPath id="clip-path-4">
      <rect id="Rectangle_101" data-name="Rectangle 101" width="187.997" height="126.957" fill="none"/>
    </clipPath>
    <clipPath id="clip-path-5">
      <rect id="Rectangle_115" data-name="Rectangle 115" width="13.851" height="5.696" fill="none"/>
    </clipPath>
    <clipPath id="clip-path-6">
      <rect id="Rectangle_116" data-name="Rectangle 116" width="19.443" height="33.309" fill="none"/>
    </clipPath>
  </defs>
  <g id="Group_222" data-name="Group 222" transform="translate(-104.317 -146.534)">
    <path id="Path_121" data-name="Path 121" d="M1761.62,488.828c-40.284,14.641-73.386,53.834-61.032,99.063C1709,618.7,1740.245,638.883,1771.767,644s63.608-1.9,94.77-8.876c15.314-3.429,31.72-7.488,41.992-19.353,14.448-16.688,11.151-42.54,1.767-62.52-20.286-43.189-69.187-71.707-117.321-70.519a99.459,99.459,0,0,0-31.355,6.1" transform="translate(-1037.728 -211.906)" fill="#f6f5f5"/>
    <path id="Path_122" data-name="Path 122" d="M946.691,986.584c-24.517-40.431-63.9-51.512-101.433-51.9-42.437-.441-82.493,19.2-124.48,19.937C660.2,955.681,601.224,911.4,549.142,874.773c-37.1-26.095-71.182-59.893-110.881-79.323-33.773-16.529-70.078-20.7-105.707-14.772-160.488,26.688-226.131,267.381-157.966,430.03H953.505c26.6-73.885,32-160.109-6.814-224.124" transform="translate(70.948 -470.478)" fill="#f6f5f5"/>
    <path id="Path_123" data-name="Path 123" d="M1480.489,1309.634H775.026l-.25-.537c-12.7-27.3-19.339-55.436-19.187-81.37.172-29.337,8.738-55.029,25.46-76.362,18.8-23.981,49.9-36.316,92.442-36.659,19.89-.158,39.467,3.487,58.4,7.014,17.642,3.285,35.885,6.685,54.18,6.932,51.44.7,102.059-26.956,146.715-51.356l8.026-4.38c11.692-6.36,23.251-13.5,34.432-20.407,20.893-12.907,42.5-26.253,65.945-35.129,29.325-11.1,62.538-14.695,96.029-10.386,62.954,8.1,113.973,44.495,143.661,102.482,32.383,63.251,32.333,139.76-.126,199.67Zm-704.277-1.859h703.169c31.906-59.305,31.86-134.909-.159-197.45-29.4-57.427-79.916-93.469-142.241-101.486-33.2-4.267-66.094-.715-95.137,10.28-23.278,8.812-44.806,22.111-65.626,34.971-11.2,6.919-22.782,14.074-34.518,20.459l-8.024,4.378c-44.858,24.509-95.645,52.3-147.632,51.582-18.453-.25-36.776-3.663-54.5-6.962-18.845-3.512-38.343-7.166-58.043-6.983-41.946.339-72.561,12.433-90.994,35.947l-.731-.573.731.573c-31.231,39.843-33.516,96.407-6.3,155.263" transform="translate(-456.69 -587.941)" fill="#f6f5f5"/>
    <path id="Path_125" data-name="Path 125" d="M2619.026,1507.27h-91.369v-34.657h91.369Zm-89.269-2.1h87.168v-30.456h-87.168Z" transform="translate(-1527.761 -890.24)" fill="#dadada"/>
    <path id="Path_126" data-name="Path 126" d="M2626.819,914.752a7.351,7.351,0,1,1,7.351-7.352,7.361,7.361,0,0,1-7.351,7.352m0-12.6a5.251,5.251,0,1,0,5.25,5.251,5.256,5.256,0,0,0-5.25-5.251" transform="translate(-1583.253 -544.172)" fill="#dadada"/>
    <path id="Path_127" data-name="Path 127" d="M389.652,1712.98a7.351,7.351,0,1,1,7.352-7.352,7.36,7.36,0,0,1-7.352,7.352m0-12.6a5.251,5.251,0,1,0,5.251,5.251,5.256,5.256,0,0,0-5.251-5.251" transform="translate(-231.07 -1026.636)" fill="#dadada"/>
    <path id="Path_128" data-name="Path 128" d="M1639.209,385.549a7.352,7.352,0,1,1,7.351-7.352,7.36,7.36,0,0,1-7.351,7.352m0-12.6a5.251,5.251,0,1,0,5.251,5.251,5.256,5.256,0,0,0-5.251-5.251" transform="translate(-986.324 -224.312)" fill="#dadada"/>
    <path id="Path_129" data-name="Path 129" d="M310.007,771.389a7.352,7.352,0,1,1,7.351-7.352,7.36,7.36,0,0,1-7.351,7.352m0-12.6a5.251,5.251,0,1,0,5.251,5.251,5.257,5.257,0,0,0-5.251-5.251" transform="translate(148.231 -456.392)" fill="#dadada"/>
    <path id="Path_141" data-name="Path 141" d="M367.324,1107.049l3.31,5.781,6.639.551-4.476,4.935,1.528,6.484-6.076-2.732-5.695,3.457.72-6.623-5.048-4.348,6.522-1.362Z" transform="translate(-202.341 -657.512)" fill="#cecccc"/>
    <path id="Path_142" data-name="Path 142" d="M94.324,912.049l3.31,5.781,6.639.551L99.8,923.316l1.528,6.484-6.076-2.731-5.695,3.457.72-6.623-5.048-4.348,6.522-1.362Z" transform="translate(34.498 -641.262)" fill="#ebebeb"/>
    <path id="Path_143" data-name="Path 143" d="M184.324,521.049l3.31,5.781,6.639.551-4.476,4.935,1.528,6.484-6.076-2.732-5.695,3.457.72-6.623-5.048-4.348,6.522-1.362Z" transform="translate(-70.91 -7.895)" fill="#ebebeb"/>
    <path id="Path_144" data-name="Path 144" d="M698.324,108.049l3.31,5.781,6.639.551-4.476,4.935,1.528,6.484-6.076-2.731-5.695,3.457.72-6.623-5.048-4.348,6.522-1.362Z" transform="translate(-378.581 442.963)" fill="#ebebeb"/>
    <path id="Path_145" data-name="Path 145" d="M1110.324,380.049l3.31,5.781,6.639.551-4.476,4.935,1.528,6.484-6.076-2.731-5.695,3.457.72-6.623-5.047-4.348,6.522-1.362Z" transform="translate(-709.367 -127.738)" fill="#ebebeb"/>
    <path id="Path_146" data-name="Path 146" d="M609.324,530.049l3.31,5.781,6.639.551-4.476,4.935,1.528,6.484-6.076-2.732-5.695,3.457.72-6.623-5.048-4.348,6.522-1.362Z" transform="translate(-347.529 -313.953)" fill="#ebebeb"/>
    <path id="Path_147" data-name="Path 147" d="M1483.324,570.049l3.31,5.781,6.639.551-4.476,4.935,1.528,6.484-6.076-2.732-5.695,3.457.72-6.623-5.048-4.348,6.522-1.362Z" transform="translate(-912.049 -372.43)" fill="#ebebeb"/>
    <path id="Path_148" data-name="Path 148" d="M1318.324,87.049l3.31,5.781,6.639.551-4.476,4.935,1.528,6.484-6.076-2.731-5.695,3.457.72-6.623-5.048-4.348,6.522-1.362Z" transform="translate(-898.32 288.437)" fill="#ebebeb"/>
    <path id="Path_149" data-name="Path 149" d="M1739.324,122.049l3.31,5.781,6.64.551-4.476,4.935,1.528,6.484-6.076-2.731-5.695,3.457.72-6.623-5.048-4.348,6.522-1.362Z" transform="translate(-802.98 540.763)" fill="#ebebeb"/>
    <path id="Path_150" data-name="Path 150" d="M1931.324,573.049l3.31,5.781,6.639.551-4.476,4.935,1.528,6.484-6.076-2.731-5.695,3.457.72-6.623-5.048-4.348,6.522-1.362Z" transform="translate(-1161.828 -346.528)" fill="#ebebeb"/>
    <path id="Path_151" data-name="Path 151" d="M2228.323,253.049l3.31,5.781,6.639.551-4.476,4.935,1.528,6.484-6.076-2.731-5.695,3.457.72-6.623-5.047-4.348,6.521-1.362Z" transform="translate(-1966.529 433.295)" fill="#cecccc"/>
    <path id="Path_152" data-name="Path 152" d="M2649.324,199.049l3.31,5.781,6.639.551-4.475,4.935,1.528,6.484-6.076-2.731-5.695,3.457.72-6.623-5.048-4.348,6.522-1.362Z" transform="translate(-2257.801 259.726)" fill="#cecccc"/>
    <path id="Path_153" data-name="Path 153" d="M2611.324,687.049l3.31,5.781,6.639.551-4.476,4.935,1.528,6.484-6.076-2.731-5.695,3.457.72-6.623-5.048-4.348,6.522-1.362Z" transform="translate(-1655.933 -416.262)" fill="#ebebeb"/>
    <path id="Path_154" data-name="Path 154" d="M2821.323,891.049l3.31,5.781,6.639.551-4.475,4.935,1.528,6.484-6.076-2.731-5.7,3.457.72-6.623-5.047-4.348,6.521-1.362Z" transform="translate(-1699.76 -538.733)" fill="#ebebeb"/>
    <path id="Path_155" data-name="Path 155" d="M2679.324,1290.049l3.31,5.781,6.64.551-4.476,4.935,1.528,6.484-6.076-2.732-5.7,3.457.72-6.623-5.048-4.348,6.522-1.362Z" transform="translate(-1613.933 -779.895)" fill="#ebebeb"/>
    <g id="Group_217" data-name="Group 217" transform="translate(-89.613 45)">
      <rect id="Rectangle_96" data-name="Rectangle 96" width="282.589" height="386.866" transform="translate(624.465 308.716)" fill="#033e84"/>
      <g id="Group_164" data-name="Group 164" transform="translate(829.144 308.717)">
        <g id="Group_163" data-name="Group 163" clip-path="url(#clip-path)">
          <path id="Path_131" data-name="Path 131" d="M2279.539,792.367v386.866h-77.91V792.424Z" transform="translate(-2201.629 -792.368)" fill="#01193f"/>
        </g>
      </g>
      <path id="Path_132" data-name="Path 132" d="M1764.394,905.437a9.576,9.576,0,1,1-9.575-9.576,9.575,9.575,0,0,1,9.575,9.576" transform="translate(-1078.678 -550.277)" fill="#115ba5"/>
      <path id="Path_133" data-name="Path 133" d="M2041.828,905.437a9.576,9.576,0,1,1-9.576-9.576,9.576,9.576,0,0,1,9.576,9.576" transform="translate(-1257.281 -550.277)" fill="#115ba5"/>
      <path id="Path_134" data-name="Path 134" d="M1756.345,926.377c8.443,30.984,1.364,62.451,6.1,93.686,3.686,24.3,19.493,54.692,48.914,54.528,26.282-.147,38.681-27.28,44.288-48.26,8.838-33.076,9.751-67.5,9.925-101.475.03-5.911-9.427-5.918-9.457,0-.149,29.21-.73,58.679-6.8,87.394-4.178,19.747-13.469,56.565-41.477,52.875-29.86-3.934-37.052-40.577-37.46-64.285-.445-25.9,2.009-51.519-4.909-76.9-1.556-5.709-10.681-3.288-9.12,2.442" transform="translate(-1085.71 -566.087)" fill="#fff"/>
      <g id="Group_168" data-name="Group 168" transform="translate(624.465 482.336)" opacity="0.3">
        <g id="Group_167" data-name="Group 167">
          <g id="Group_166" data-name="Group 166" clip-path="url(#clip-path-2)">
            <path id="Path_135" data-name="Path 135" d="M1627.062,1492.995V1279.748c34.293,48.157,101.478,121.074,204.678,142.978v70.212Z" transform="translate(-1627.061 -1279.748)" fill="#01205e"/>
          </g>
        </g>
      </g>
      <path id="Path_160" data-name="Path 160" d="M0,0H260.7V227.925H0Z" transform="translate(450.921 467.658)" fill="#5bc2fe"/>
      <path id="Path_136" data-name="Path 136" d="M1555.656,1319.8a9.576,9.576,0,1,1-9.576-9.576,9.576,9.576,0,0,1,9.576,9.576" transform="translate(-944.298 -817.032)" fill="#16639b"/>
      <path id="Path_137" data-name="Path 137" d="M1275.939,1332.437c7.051,18.1,1.719,37.793,6.84,56.247,4.591,16.547,19.361,29.015,37,27.944,44.8-2.719,27.66-64.787,60.6-82.233,5.38-2.85.607-11.016-4.773-8.166-11.705,6.2-18.5,18.819-23.419,30.61-6.327,15.17-6.263,38.5-22.214,47.212a25.648,25.648,0,0,1-27.636-2.035c-8.183-6.041-11.21-15.732-12.108-25.5-1.443-15.691.677-31.572-5.173-46.59-2.185-5.61-11.333-3.17-9.12,2.514" transform="translate(-776.334 -826.952)" fill="#1275bc"/>
      <g id="Group_171" data-name="Group 171" transform="translate(638.917 467.62)" opacity="0.2">
        <g id="Group_170" data-name="Group 170">
          <g id="Group_169" data-name="Group 169" clip-path="url(#clip-path-3)">
            <path id="Path_138" data-name="Path 138" d="M1740.451,1238.438v227.925h-72.823V1238.476Z" transform="translate(-1667.629 -1238.438)" fill="#1e3c88"/>
          </g>
        </g>
      </g>
      <path id="Path_139" data-name="Path 139" d="M1278.222,1319.8a9.576,9.576,0,1,1-9.576-9.576,9.576,9.576,0,0,1,9.576,9.576" transform="translate(-765.695 -817.032)" fill="#16639b"/>
      <g id="Group_174" data-name="Group 174" transform="translate(450.92 568.626)" opacity="0.07">
        <g id="Group_173" data-name="Group 173">
          <g id="Group_172" data-name="Group 172" clip-path="url(#clip-path-4)">
            <path id="Path_140" data-name="Path 140" d="M1139.894,1648.935V1521.978c24.173,34.993,84.7,103.181,188,100.041V1648.9Z" transform="translate(-1139.893 -1521.978)" fill="#1e3c88"/>
          </g>
        </g>
      </g>
      <g id="Group_219" data-name="Group 219" transform="translate(-119.523 268.335)">
        <path id="Path_156" data-name="Path 156" d="M1353.484,676.4l20.849,43.285,46.621,6.941-33.735,33.693,7.964,47.575-41.7-22.462-41.7,22.462,7.964-47.575-33.735-33.693,46.621-6.941Z" transform="translate(-783.04 -408.996)" fill="#fff"/>
        <path id="Path_157" data-name="Path 157" d="M1353.484,676.4l20.849,43.285,46.621,6.941-33.735,33.693,7.964,47.575-41.7-22.462-41.7,22.462,7.964-47.575-33.735-33.693,46.621-6.941Z" transform="translate(-783.04 -408.996)" fill="none" stroke="#033e84" stroke-width="10"/>
      </g>
    </g>
    <path id="Path_158" data-name="Path 158" d="M2465.707,1589.571h-91.369v-34.657h91.369Zm-89.269-2.1h87.168v-30.456h-87.168Z" transform="translate(-2254.613 -974.643)" fill="#dadada"/>
    <path id="Path_159" data-name="Path 159" d="M2619.026,1507.27h-91.369v-34.657h91.369Zm-89.269-2.1h87.168v-30.456h-87.168Z" transform="translate(-2347.281 -924.898)" fill="#dadada"/>
    <g id="Group_221" data-name="Group 221" transform="translate(214.889 217.616)">
      <path id="Path_207" data-name="Path 207" d="M926.874,430.337H737.357a11.223,11.223,0,0,1-11.189-11.189V339.474a11.223,11.223,0,0,1,11.189-11.189H926.874a11.223,11.223,0,0,1,11.189,11.189v79.673a11.223,11.223,0,0,1-11.189,11.189" transform="translate(-11.927 -10.573)" fill="#e0e0e0"/>
      <path id="Path_208" data-name="Path 208" d="M758.948,367.81h-68.19a5.758,5.758,0,0,1-5.742-5.741v-68.19a5.759,5.759,0,0,1,5.742-5.742h68.19a5.758,5.758,0,0,1,5.741,5.742v68.19a5.758,5.758,0,0,1-5.741,5.741" transform="translate(-3.321 -2.177)" fill="#fff" stroke="#c1c1c1" stroke-width="1"/>
      <line id="Line_11" data-name="Line 11" x2="171.999" transform="translate(733.792 377.555)" fill="none" stroke="#cecccc" stroke-width="2"/>
      <line id="Line_12" data-name="Line 12" x2="123.727" transform="translate(733.792 398.909)" fill="none" stroke="#cecccc" stroke-width="2"/>
      <path id="Path_209" data-name="Path 209" d="M819.177,351.276l3.3,6.684,7.377,1.072-5.338,5.2,1.261,7.347-6.6-3.469-6.6,3.469,1.261-7.347-5.338-5.2,7.377-1.072Z" transform="translate(-29.145 -15.381)" fill="#cecccc"/>
      <path id="Path_210" data-name="Path 210" d="M853.176,351.276l3.3,6.684,7.377,1.072-5.338,5.2,1.261,7.347-6.6-3.469-6.6,3.469,1.261-7.347-5.338-5.2,7.377-1.072Z" transform="translate(-36.256 -15.381)" fill="#cecccc"/>
      <path id="Path_211" data-name="Path 211" d="M886.177,351.276l3.3,6.684,7.377,1.072-5.338,5.2,1.261,7.347-6.6-3.469-6.6,3.469,1.261-7.347-5.338-5.2,7.377-1.072Z" transform="translate(-43.157 -15.381)" fill="#cecccc"/>
      <path id="Path_212" data-name="Path 212" d="M920.177,351.276l3.3,6.684,7.377,1.072-5.338,5.2,1.261,7.347-6.6-3.469-6.6,3.469,1.261-7.347-5.338-5.2,7.377-1.072Z" transform="translate(-50.267 -15.381)" fill="#cecccc"/>
      <path id="Path_213" data-name="Path 213" d="M954.177,351.276l3.3,6.684,7.377,1.072-5.338,5.2,1.261,7.347-6.6-3.469-6.6,3.469,1.261-7.347-5.338-5.2,7.377-1.072Z" transform="translate(-57.378 -15.381)" fill="#cecccc"/>
      <g id="Group_208" data-name="Group 208" transform="translate(705.131 295.268)">
        <path id="Path_222" data-name="Path 222" d="M724.023,301.773l1.378-1.867s1.239,4.573,5.349,5.342,7.042-5.342,7.042-5.342l1.461,4-5.326,10.612-5.886-.671-4.018-11.687Z" transform="translate(-716.609 -299.906)" fill="#4778e3"/>
        <path id="Path_223" data-name="Path 223" d="M743.272,350.334c-2.507-16.725-1.976-17.651-4.069-22.142-.329-.706-1.461-3.224-1.935-4.352-1.657-3.94,2.168-12.346,2.168-12.346l-.817-6.5a25.247,25.247,0,0,1,.028-3.936l-2.815-1.152c.12.655.123,1.347.293,2.553a5.874,5.874,0,0,1-1.482,4.845c-1.791,1.91-4.554,3.081-6.718,2.276-2.183-.812-4.454-3.072-4.534-5.447a19.644,19.644,0,0,1,.049-4.227l-2.823.993a19.058,19.058,0,0,1,.534,4.415l-.4,7.235a15.408,15.408,0,0,1,2.593,11.733c-.314,1.939-1.869,3.9-2.92,7.175-2.271,7.074-3.944,17.654-5.779,26.824,7.671,4.193,22.722,5.545,30.767-.335a23.8,23.8,0,0,1-2.144-7.613" transform="translate(-714.649 -299.906)" fill="#6badff"/>
        <path id="Path_224" data-name="Path 224" d="M748.64,350.5c-2.507-16.725-1.976-17.651-4.069-22.142-.329-.706-1.461-3.224-1.935-4.352-1.657-3.94,2.168-12.346,2.168-12.346l-.817-6.5a25.239,25.239,0,0,1,.028-3.936l-1.263-.516.659,10.281s-3.094,9.232-3.094,11.884,3.386,6.907,4.106,13.257c.588,5.187,1.5,19.335,1.817,24.342a17.967,17.967,0,0,0,4.544-2.359,23.8,23.8,0,0,1-2.144-7.613" transform="translate(-720.017 -300.074)" fill="#57a4ea"/>
        <path id="Path_225" data-name="Path 225" d="M721.46,334.534c1.609-7.612,3.685-8.476,3.685-12.224s-2.381-9.384-2.381-9.384a23.561,23.561,0,0,1-.7-6.185,25.889,25.889,0,0,0-.813-5.861l-.632.222a19.058,19.058,0,0,1,.534,4.415l-.4,7.235a15.409,15.409,0,0,1,2.592,11.733c-.313,1.939-1.869,3.9-2.92,7.175-2.271,7.074-3.943,17.654-5.778,26.824a23.893,23.893,0,0,0,3.929,1.69c.348-4.555,1.53-19.248,2.882-25.642" transform="translate(-714.649 -300.11)" fill="#5fa9f9"/>
        <path id="Path_226" data-name="Path 226" d="M741.9,300.639a.093.093,0,0,1-.093-.09q0-.133,0-.249a.093.093,0,0,1,.186,0c0,.076,0,.157,0,.244a.093.093,0,0,1-.089.1Z" transform="translate(-720.327 -299.969)" fill="#c3daf4"/>
        <path id="Path_227" data-name="Path 227" d="M731.581,311.045h-.043c-.156,0-.312-.007-.466-.02a.094.094,0,0,1-.085-.1.1.1,0,0,1,.1-.085c.148.013.3.019.451.019h.041a.093.093,0,0,1,0,.186m.5-.026a.093.093,0,0,1-.009-.185c.161-.015.325-.037.489-.066a.093.093,0,1,1,.032.183c-.168.029-.338.052-.5.068h-.009m-1.494-.062-.017,0a4.667,4.667,0,0,1-.5-.124.093.093,0,0,1,.055-.177,4.433,4.433,0,0,0,.474.119.093.093,0,0,1-.017.184m2.479-.108a.093.093,0,0,1-.022-.183c.156-.039.316-.085.474-.136a.093.093,0,0,1,.057.177c-.163.052-.327.1-.486.139l-.023,0m-3.433-.184a.088.088,0,0,1-.035-.007c-.153-.062-.309-.131-.463-.206a.093.093,0,1,1,.081-.167c.15.073.3.14.452.2a.093.093,0,0,1-.035.179m4.385-.122a.093.093,0,0,1-.034-.179q.229-.091.455-.2a.093.093,0,0,1,.078.168q-.23.107-.465.2a.085.085,0,0,1-.034.006m-5.285-.314a.1.1,0,0,1-.046-.012q-.218-.123-.433-.261a.093.093,0,0,1-.028-.128.092.092,0,0,1,.128-.028c.14.089.281.175.424.255a.093.093,0,0,1-.045.174m6.193-.106a.093.093,0,0,1-.082-.049.092.092,0,0,1,.038-.126c.145-.078.289-.16.43-.246a.094.094,0,0,1,.127.032.092.092,0,0,1-.032.127c-.144.088-.29.171-.439.251a.094.094,0,0,1-.043.011m-7.035-.435a.094.094,0,0,1-.055-.017c-.136-.1-.27-.2-.4-.309a.093.093,0,1,1,.118-.143c.127.1.259.206.391.3a.093.093,0,0,1,.021.13.092.092,0,0,1-.075.038m7.891-.084a.093.093,0,0,1-.053-.17c.136-.093.271-.19.4-.29a.093.093,0,0,1,.113.148c-.134.1-.271.2-.409.3a.094.094,0,0,1-.052.017m-8.664-.55a.092.092,0,0,1-.063-.025c-.124-.115-.245-.234-.361-.355a.093.093,0,1,1,.134-.128c.113.118.232.235.354.346a.093.093,0,0,1,0,.131.091.091,0,0,1-.068.03m9.457-.059a.09.09,0,0,1-.07-.032.093.093,0,0,1,.01-.13q.189-.161.367-.332a.093.093,0,1,1,.128.134c-.121.116-.246.229-.374.338a.1.1,0,0,1-.061.022m-10.148-.665a.091.091,0,0,1-.071-.033c-.109-.13-.214-.264-.312-.4a.093.093,0,0,1,.151-.109c.094.132.2.263.3.39a.093.093,0,0,1-.012.13.094.094,0,0,1-.059.021m10.868-.027a.089.089,0,0,1-.062-.025.092.092,0,0,1-.007-.131c.109-.122.214-.249.312-.38a.091.091,0,0,1,.13-.018.092.092,0,0,1,.019.13c-.1.134-.21.267-.323.392a.1.1,0,0,1-.069.031m-11.452-.785a.093.093,0,0,1-.08-.044c-.089-.147-.172-.3-.244-.446a.091.091,0,0,1,.043-.123.093.093,0,0,1,.124.042c.07.143.149.289.236.431a.092.092,0,0,1-.079.141m12.051-.014a.1.1,0,0,1-.048-.013.093.093,0,0,1-.03-.128c.085-.138.166-.283.24-.429a.093.093,0,1,1,.166.084c-.076.151-.16.3-.248.444a.093.093,0,0,1-.079.043m-12.491-.883a.094.094,0,0,1-.087-.06,4.749,4.749,0,0,1-.152-.487.093.093,0,0,1,.18-.045,4.517,4.517,0,0,0,.146.467.093.093,0,0,1-.055.119.089.089,0,0,1-.032.006m12.939-.009a.1.1,0,0,1-.034-.006.093.093,0,0,1-.052-.121c.06-.152.114-.308.16-.464a.093.093,0,1,1,.179.052c-.048.162-.1.323-.166.48a.092.092,0,0,1-.086.059m.283-.959a.074.074,0,0,1-.018,0,.093.093,0,0,1-.073-.109c.032-.161.058-.323.076-.486a.093.093,0,0,1,.184.021c-.018.168-.045.337-.078.5a.092.092,0,0,1-.091.074m-13.462,0a.093.093,0,0,1-.093-.082c-.013-.106-.021-.214-.025-.32l-.017-.18a.094.094,0,0,1,.085-.1.092.092,0,0,1,.1.085l.017.185c0,.108.012.209.024.31a.093.093,0,0,1-.081.1h-.011m13.573-.993h0a.093.093,0,0,1-.09-.095c0-.044,0-.089,0-.132,0-.12,0-.24-.011-.36a.093.093,0,1,1,.185-.012c.008.124.012.248.012.372,0,.045,0,.091,0,.137a.093.093,0,0,1-.093.09m-13.654,0a.093.093,0,0,1-.093-.086c-.012-.168-.022-.336-.03-.5a.092.092,0,0,1,.088-.1.09.09,0,0,1,.1.088c.009.164.018.331.03.5a.094.094,0,0,1-.086.1h-.006m13.59-.993a.093.093,0,0,1-.092-.079c-.025-.165-.049-.33-.071-.5a.092.092,0,0,1,.079-.1.093.093,0,0,1,.1.079q.034.248.071.493a.093.093,0,0,1-.078.106h-.014m-13.643-.006a.094.094,0,0,1-.093-.089q-.01-.256-.015-.5a.093.093,0,0,1,.091-.095.091.091,0,0,1,.095.09c0,.163.009.33.015.5a.092.092,0,0,1-.089.1h0m13.507-.985a.093.093,0,0,1-.092-.081c-.021-.168-.04-.335-.058-.5a.093.093,0,0,1,.082-.1.094.094,0,0,1,.1.082q.026.243.057.5a.093.093,0,0,1-.081.1h-.012m-13.53-.016a.094.094,0,0,1-.093-.092c0-.146,0-.289,0-.425v-.077a.092.092,0,0,1,.093-.093h0a.092.092,0,0,1,.092.093v.076q0,.2,0,.422a.093.093,0,0,1-.092.094Zm13.423-.979a.093.093,0,0,1-.093-.084c-.016-.175-.029-.342-.04-.5a.093.093,0,1,1,.185-.012c.01.157.024.324.04.5a.093.093,0,0,1-.084.1h-.009m-13.422-.021h0a.093.093,0,0,1-.091-.094c0-.183.005-.352.009-.5a.09.09,0,0,1,.1-.09.093.093,0,0,1,.09.1c0,.148-.007.316-.01.5a.093.093,0,0,1-.093.092" transform="translate(-716.795 -300.129)" fill="#c3daf4"/>
        <path id="Path_228" data-name="Path 228" d="M725.043,300.721h0a.092.092,0,0,1-.089-.1c.006-.16.011-.248.011-.248a.093.093,0,0,1,.186.01s-.005.088-.012.245a.093.093,0,0,1-.093.089" transform="translate(-716.803 -299.986)" fill="#c3daf4"/>
        <g id="Group_195" data-name="Group 195" transform="translate(8.742 10.636)" opacity="0.29" style="mix-blend-mode: screen;isolation: isolate">
          <g id="Group_194" data-name="Group 194">
            <g id="Group_193" data-name="Group 193" clip-path="url(#clip-path-5)">
              <path id="Path_229" data-name="Path 229" d="M726.454,313.725a1.519,1.519,0,0,0-.75,1.318,3.3,3.3,0,0,0,1.9,3.419c2.448.9,3.934.5,6.12.5s7.123-1.37,5.508-4.745c-1.123-2.348-6.033.9-9,.42-2.415-.392-2.914-1.37-3.776-.91" transform="translate(-725.703 -313.354)" fill="#94b9e8"/>
            </g>
          </g>
        </g>
        <g id="Group_198" data-name="Group 198" transform="translate(5.094 27.123)" opacity="0.29" style="mix-blend-mode: screen;isolation: isolate">
          <g id="Group_197" data-name="Group 197">
            <g id="Group_196" data-name="Group 196" clip-path="url(#clip-path-6)">
              <path id="Path_230" data-name="Path 230" d="M732.755,334.318c-3.738-.729-7.283,2-8.035,6.088-.995,5.4-4.308,19.091-3.507,23.1,1.042,5.21,18.717,5.482,19.249-.036.414-4.286-.895-27.631-7.365-29.079l-.342-.072" transform="translate(-721.09 -334.201)" fill="#94b9e8"/>
            </g>
          </g>
        </g>
        <path id="Path_231" data-name="Path 231" d="M741.9,307.253a.1.1,0,0,0-.052-.053c-.085-.034-.215.087-.289.27-.036.092-.3.983-.187,1.027s.588-.761.624-.853c.085-.212.058-.452-.1-.391" transform="translate(-720.232 -301.43)" fill="#6f94b5"/>
        <path id="Path_232" data-name="Path 232" d="M741.362,308.509c-.139-.055.175-1.039.179-1.049.1-.248.285-.364.363-.232a.111.111,0,0,1,.072,0c.1.038.11.221.032.416-.031.075-.513.915-.646.862m.21-1.036c-.054.134-.28.972-.2,1.005s.556-.728.6-.843c.081-.2.059-.422-.075-.37l-.014.005-.006-.014c-.063-.133-.231.021-.309.217" transform="translate(-720.228 -301.426)" fill="#ffdbc2"/>
        <path id="Path_233" data-name="Path 233" d="M741.9,307.253a.1.1,0,0,0-.052-.053c-.085-.034-.215.087-.289.27-.036.092-.3.983-.187,1.027s.588-.761.624-.853c.085-.212.058-.452-.1-.391" transform="translate(-720.232 -301.43)" fill="#fc6c0c"/>
        <path id="Path_234" data-name="Path 234" d="M741.362,308.509c-.139-.055.175-1.039.179-1.049.1-.248.285-.364.363-.232a.111.111,0,0,1,.072,0c.1.038.11.221.032.416-.031.075-.513.915-.646.862m.21-1.036c-.054.134-.28.972-.2,1.005s.556-.728.6-.843c.081-.2.059-.422-.075-.37l-.014.005-.006-.014c-.063-.133-.231.021-.309.217" transform="translate(-720.228 -301.426)" fill="#ffdbc2"/>
        <path id="Path_235" data-name="Path 235" d="M740.653,310.3a.1.1,0,0,0,.053.051c.087.032.212-.093.279-.28.033-.093.262-.993.151-1.032s-.56.781-.593.874c-.078.214-.042.453.11.388" transform="translate(-720.056 -301.816)" fill="#fc6c0c"/>
        <path id="Path_236" data-name="Path 236" d="M740.523,309.9c.032-.089.485-.931.615-.884s-.106.955-.142,1.054c-.089.248-.271.376-.355.244a.11.11,0,0,1-.071,0c-.127-.044-.093-.286-.047-.414m.6-.853c-.09-.032-.535.759-.572.864-.069.191-.05.426.087.367l.015-.006a.1.1,0,0,0,.051.057c.1.036.218-.161.258-.27.016-.045.081-.293.129-.534.1-.5.024-.484.032-.478" transform="translate(-720.051 -301.812)" fill="#ffdbc2"/>
        <path id="Path_237" data-name="Path 237" d="M739.643,308.223a.1.1,0,0,0-.053.051c-.034.085.087.215.271.289.092.036.983.3,1.027.187s-.761-.588-.853-.624c-.212-.085-.452-.058-.391.1" transform="translate(-719.864 -301.615)" fill="#fc6c0c"/>
        <path id="Path_238" data-name="Path 238" d="M739.849,308.573c-.234-.093-.371-.282-.232-.363a.109.109,0,0,1,0-.071c.039-.1.221-.111.417-.032.075.03.914.512.862.645s-1.039-.175-1.049-.179m.174-.436c-.172-.069-.342-.062-.372.013a.11.11,0,0,0,.009.076l-.014.006c-.134.063.021.231.216.309.134.054.972.28,1.005.2s-.728-.556-.843-.6" transform="translate(-719.859 -301.61)" fill="#ffdbc2"/>
        <path id="Path_239" data-name="Path 239" d="M742.691,309.478a.1.1,0,0,0,.051-.053c.032-.087-.093-.212-.28-.279-.093-.033-.993-.262-1.032-.151s.781.56.873.593c.215.078.453.042.388-.11" transform="translate(-720.249 -301.801)" fill="#fc6c0c"/>
        <path id="Path_240" data-name="Path 240" d="M741.409,308.985c.047-.129.962.108,1.054.142.24.086.38.269.244.355a.11.11,0,0,1,0,.071c-.046.127-.286.093-.415.047-.095-.034-.93-.487-.884-.615m1.043.173c-.1-.037-.979-.251-1.012-.162s.742.526.864.573c.211.076.422.041.367-.088l-.006-.014c.006,0,.044-.017.056-.051.037-.1-.161-.219-.27-.258" transform="translate(-720.245 -301.797)" fill="#ffdbc2"/>
        <path id="Path_241" data-name="Path 241" d="M742.7,308.213a.1.1,0,0,0,0-.074c-.037-.085-.214-.091-.4-.013-.091.039-.9.486-.859.593s.953-.123,1.044-.162c.21-.09.36-.278.209-.345" transform="translate(-720.254 -301.614)" fill="#fc6c0c"/>
        <path id="Path_242" data-name="Path 242" d="M741.432,308.722c-.059-.138.858-.612.868-.616.242-.1.459-.058.421.093.087.048.066.143,0,.22a.629.629,0,0,1-.219.149c-.082.035-1.011.282-1.066.153m1.125-.638a.6.6,0,0,0-.244.053c-.134.058-.886.49-.85.572s.92-.127,1.022-.171a.609.609,0,0,0,.207-.141c.126-.142-.011-.176-.013-.18a.107.107,0,0,0,.006-.076c-.018-.043-.081-.056-.128-.058" transform="translate(-720.25 -301.609)" fill="#ffdbc2"/>
        <path id="Path_243" data-name="Path 243" d="M739.682,309.522a.1.1,0,0,0,0,.074c.04.084.216.083.4,0,.089-.042.887-.517.837-.623s-.948.157-1.038.2c-.206.1-.35.291-.2.352" transform="translate(-719.871 -301.797)" fill="#fc6c0c"/>
        <path id="Path_244" data-name="Path 244" d="M739.729,309.655a.106.106,0,0,1-.071-.128.1.1,0,0,1-.051-.05c-.058-.122.137-.268.26-.327.085-.04,1-.315,1.06-.19s-.836.641-.845.645a.489.489,0,0,1-.353.049m-.092-.192a.106.106,0,0,0,.061.045.108.108,0,0,0,0,.077c.035.074.206.07.373-.009.13-.061.868-.52.829-.6s-.914.159-1.015.206a.583.583,0,0,0-.2.148c-.043.051-.058.1-.042.134" transform="translate(-719.866 -301.793)" fill="#ffdbc2"/>
        <path id="Path_245" data-name="Path 245" d="M740.609,307.247a.1.1,0,0,0-.074,0c-.085.036-.091.213-.013.395.039.091.486.9.593.859s-.123-.953-.162-1.044c-.09-.21-.278-.36-.345-.209" transform="translate(-720.048 -301.428)" fill="#fc6c0c"/>
        <path id="Path_246" data-name="Path 246" d="M740.5,307.643a.63.63,0,0,1-.056-.259c0-.106.055-.187.149-.162a.11.11,0,0,1,.051-.049c.095-.04.235.078.317.271.032.074.285,1.01.153,1.066s-.578-.781-.615-.868m.158-.439h0c-.031.013-.045.056-.047.06a.1.1,0,0,0-.076-.007c-.1.043-.05.267,0,.373s.484.887.571.849-.122-.908-.171-1.022-.178-.3-.273-.254" transform="translate(-720.044 -301.424)" fill="#ffdbc2"/>
        <path id="Path_247" data-name="Path 247" d="M741.918,310.273a.1.1,0,0,0,.074,0c.084-.04.083-.216,0-.395-.042-.089-.517-.888-.623-.838s.157.948.2,1.038c.1.206.291.35.352.2" transform="translate(-720.231 -301.816)" fill="#fc6c0c"/>
        <path id="Path_248" data-name="Path 248" d="M741.546,310.08c-.04-.085-.316-1-.19-1.06s.641.836.645.845c.113.24.072.457-.078.423a.11.11,0,0,1-.051.051c-.122.057-.268-.137-.327-.26m-.176-1.03c-.087.041.159.915.206,1.016a.586.586,0,0,0,.148.2c.051.043.1.059.134.043a.11.11,0,0,0,.045-.062.1.1,0,0,0,.077,0c.074-.035.07-.206-.009-.372-.057-.119-.518-.868-.6-.83" transform="translate(-720.227 -301.811)" fill="#ffdbc2"/>
        <path id="Path_249" data-name="Path 249" d="M741.856,307.71a5.129,5.129,0,0,1-.478.865,5.235,5.235,0,0,1,.286-.942.1.1,0,0,1,.192.077" transform="translate(-720.237 -301.508)" fill="#fc6c0c"/>
        <path id="Path_250" data-name="Path 250" d="M741.369,308.586c-.075-.03.271-.95.277-.964a.12.12,0,1,1,.223.089c-.011.028-.425.9-.5.875m.308-.951a7.621,7.621,0,0,0-.291.912,7.308,7.308,0,0,0,.452-.848.087.087,0,0,0-.161-.064" transform="translate(-720.235 -301.504)" fill="#ffdbc2"/>
        <path id="Path_251" data-name="Path 251" d="M741.856,307.71a5.129,5.129,0,0,1-.478.865,5.235,5.235,0,0,1,.286-.942.1.1,0,0,1,.192.077" transform="translate(-720.237 -301.508)" fill="#fc6c0c"/>
        <path id="Path_252" data-name="Path 252" d="M741.369,308.586c-.075-.03.271-.95.277-.964a.12.12,0,1,1,.223.089c-.011.028-.425.9-.5.875m.308-.951a7.621,7.621,0,0,0-.291.912,7.308,7.308,0,0,0,.452-.848.087.087,0,0,0-.161-.064" transform="translate(-720.235 -301.504)" fill="#ffdbc2"/>
        <path id="Path_253" data-name="Path 253" d="M740.7,310a5.131,5.131,0,0,1,.451-.88,5.275,5.275,0,0,1-.256.951A.1.1,0,0,1,740.7,310" transform="translate(-720.095 -301.833)" fill="#fc6c0c"/>
        <path id="Path_254" data-name="Path 254" d="M740.676,309.992c.01-.029.4-.917.472-.89a4.092,4.092,0,0,1-.247.972.12.12,0,1,1-.225-.082m.457-.849a7.127,7.127,0,0,0-.426.86.087.087,0,0,0,.163.059,7.556,7.556,0,0,0,.263-.92" transform="translate(-720.091 -301.829)" fill="#ffdbc2"/>
        <path id="Path_255" data-name="Path 255" d="M740.06,308.3a5.127,5.127,0,0,1,.865.478,5.239,5.239,0,0,1-.942-.286.1.1,0,0,1,.077-.192" transform="translate(-719.934 -301.659)" fill="#fc6c0c"/>
        <path id="Path_256" data-name="Path 256" d="M739.973,308.5a.12.12,0,1,1,.089-.223c.028.011.9.426.875.5s-.95-.271-.964-.277m.077-.192a.086.086,0,0,0-.064.161,7.512,7.512,0,0,0,.911.292,7.106,7.106,0,0,0-.847-.452" transform="translate(-719.929 -301.655)" fill="#ffdbc2"/>
        <path id="Path_257" data-name="Path 257" d="M742.351,309.467a5.2,5.2,0,0,1-.88-.451,5.248,5.248,0,0,1,.951.256.1.1,0,0,1-.07.195" transform="translate(-720.258 -301.81)" fill="#fc6c0c"/>
        <path id="Path_258" data-name="Path 258" d="M741.452,309.008a4.11,4.11,0,0,1,.972.247.12.12,0,0,1-.082.225s-.917-.4-.89-.472m.04.015a7.111,7.111,0,0,0,.86.425.086.086,0,0,0,.059-.162,7.572,7.572,0,0,0-.92-.263" transform="translate(-720.254 -301.807)" fill="#ffdbc2"/>
        <path id="Path_259" data-name="Path 259" d="M740.873,307.623a5.043,5.043,0,0,1,.274.95,5.226,5.226,0,0,1-.464-.868.1.1,0,0,1,.19-.081" transform="translate(-720.092 -301.507)" fill="#fc6c0c"/>
        <path id="Path_260" data-name="Path 260" d="M741.132,308.585a5.539,5.539,0,0,1-.468-.879.121.121,0,0,1,.063-.158.123.123,0,0,1,.157.063c.013.032.37,1.023.248.974m-.437-.892a7.683,7.683,0,0,0,.438.851,7.09,7.09,0,0,0-.279-.919.086.086,0,0,0-.159.068" transform="translate(-720.087 -301.502)" fill="#ffdbc2"/>
        <path id="Path_261" data-name="Path 261" d="M741.693,310.059a5.093,5.093,0,0,1-.3-.941,5.222,5.222,0,0,1,.49.853.1.1,0,0,1-.187.088" transform="translate(-720.24 -301.832)" fill="#fc6c0c"/>
        <path id="Path_262" data-name="Path 262" d="M741.675,310.062a4.046,4.046,0,0,1-.3-.964c.073-.034.508.849.513.862a.12.12,0,0,1-.15.164.214.214,0,0,1-.067-.062m-.278-.925a7.1,7.1,0,0,0,.308.91.087.087,0,0,0,.157-.074,7.626,7.626,0,0,0-.465-.837" transform="translate(-720.237 -301.828)" fill="#ffdbc2"/>
        <path id="Path_263" data-name="Path 263" d="M739.925,309.281a5.138,5.138,0,0,1,.958-.244,5.308,5.308,0,0,1-.883.437.1.1,0,0,1-.076-.193" transform="translate(-719.921 -301.814)" fill="#fc6c0c"/>
        <path id="Path_264" data-name="Path 264" d="M739.848,309.326a.12.12,0,0,1,.066-.064,4.085,4.085,0,0,1,.98-.234c.03.076-.88.453-.892.458a.12.12,0,0,1-.154-.16m1.006-.282a6.994,6.994,0,0,0-.927.25.087.087,0,0,0,.063.161,7.684,7.684,0,0,0,.864-.411" transform="translate(-719.917 -301.811)" fill="#ffdbc2"/>
        <path id="Path_265" data-name="Path 265" d="M742.385,308.531a5.09,5.09,0,0,1-.951.273,5.322,5.322,0,0,1,.869-.463.1.1,0,0,1,.081.191" transform="translate(-720.25 -301.668)" fill="#fc6c0c"/>
        <path id="Path_266" data-name="Path 266" d="M741.427,308.819c-.122-.049.77-.458.865-.5a.12.12,0,0,1,.095.221l-.006-.015.006.015a5.507,5.507,0,0,1-.96.278m.879-.467a7.544,7.544,0,0,0-.851.438,7.089,7.089,0,0,0,.919-.279.086.086,0,0,0,0-.16.1.1,0,0,0-.066,0" transform="translate(-720.247 -301.664)" fill="#ffdbc2"/>
        <path id="Path_267" data-name="Path 267" d="M741.485,308.946a.285.285,0,1,1-.159-.371.285.285,0,0,1,.159.371" transform="translate(-720.146 -301.715)" fill="#fc6c0c"/>
        <path id="Path_268" data-name="Path 268" d="M741.1,309.116a.3.3,0,1,1,.393-.168.3.3,0,0,1-.393.168m.212-.53a.269.269,0,1,0,.149.349.268.268,0,0,0-.149-.349" transform="translate(-720.142 -301.71)" fill="#ffdbc2"/>
        <path id="Path_269" data-name="Path 269" d="M728.723,376.44h0c-.167,0-.332,0-.5-.006a.092.092,0,0,1-.091-.095.09.09,0,0,1,.094-.091q.244,0,.493.006a.093.093,0,0,1,0,.186m.5,0a.093.093,0,1,1,0-.186c.163,0,.328,0,.494-.006a.093.093,0,0,1,0,.185l-.5.007Zm-1.485-.018h0c-.167-.006-.332-.013-.5-.02a.093.093,0,0,1-.089-.1.1.1,0,0,1,.1-.089c.162.008.326.014.493.02a.093.093,0,0,1,0,.186m2.475,0a.094.094,0,0,1-.093-.09.093.093,0,0,1,.09-.1l.493-.019a.093.093,0,0,1,.1.088.094.094,0,0,1-.089.1c-.166.007-.331.014-.5.02Zm.989-.045a.093.093,0,0,1-.005-.186c.164-.009.328-.02.493-.032a.093.093,0,1,1,.013.185l-.5.032H731.2m-4.453,0h-.006l-.154-.009c-.113-.008-.227-.017-.342-.027a.093.093,0,1,1,.017-.185c.113.01.225.019.338.027l.153.009a.093.093,0,0,1-.006.186m5.441-.07a.093.093,0,0,1-.008-.185q.246-.02.493-.044a.093.093,0,0,1,.017.184c-.165.017-.33.031-.494.045h-.008m-6.427-.017h-.011c-.163-.019-.328-.04-.493-.064a.093.093,0,0,1-.078-.105.092.092,0,0,1,.105-.079q.245.036.489.064a.093.093,0,0,1-.011.185m7.412-.078a.094.094,0,0,1-.093-.083.093.093,0,0,1,.082-.1c.163-.018.327-.037.49-.058a.093.093,0,0,1,.023.184c-.164.021-.328.04-.492.058h-.01m-8.393-.062-.015,0c-.163-.028-.327-.056-.49-.087a.093.093,0,1,1,.034-.183c.162.031.324.059.486.087a.093.093,0,0,1,.077.107.094.094,0,0,1-.092.078m9.374-.059a.093.093,0,0,1-.013-.185q.244-.033.488-.071a.094.094,0,0,1,.106.078.092.092,0,0,1-.078.105q-.246.038-.491.072h-.013m-10.348-.124-.019,0c-.162-.034-.325-.069-.487-.106a.093.093,0,0,1,.041-.181c.161.036.323.072.484.105a.093.093,0,0,1-.019.184m11.326-.025a.093.093,0,0,1-.015-.184q.243-.042.486-.086a.093.093,0,0,1,.034.183c-.163.03-.327.059-.49.086l-.016,0m.975-.18a.093.093,0,0,1-.018-.184c.161-.032.323-.066.484-.1a.093.093,0,1,1,.039.181l-.486.1-.018,0m-13.269-.014a.105.105,0,0,1-.022,0c-.161-.039-.322-.08-.482-.121a.093.093,0,0,1-.066-.113.092.092,0,0,1,.113-.066q.238.062.479.12a.093.093,0,0,1-.022.184m14.238-.2a.093.093,0,0,1-.09-.072.093.093,0,0,1,.07-.112q.241-.057.48-.118a.094.094,0,0,1,.113.067.093.093,0,0,1-.067.112q-.241.062-.484.119l-.021,0m-15.2-.052a.091.091,0,0,1-.024,0c-.16-.043-.32-.089-.478-.134a.093.093,0,0,1,.051-.179c.157.046.316.09.475.134a.092.092,0,0,1-.025.182m16.158-.194a.093.093,0,0,1-.025-.182q.238-.066.474-.136a.092.092,0,0,1,.116.062.093.093,0,0,1-.062.115q-.237.07-.478.137a.086.086,0,0,1-.024,0m-17.11-.08a.11.11,0,0,1-.027,0l-.475-.146a.093.093,0,0,1-.06-.116.092.092,0,0,1,.116-.061q.234.074.472.146a.093.093,0,0,1-.027.182m18.059-.2a.093.093,0,0,1-.029-.181q.236-.076.467-.156a.093.093,0,1,1,.061.176q-.234.081-.471.157a.089.089,0,0,1-.029,0m-19-.094a.089.089,0,0,1-.028,0l-.471-.157a.093.093,0,1,1,.059-.176l.469.156a.092.092,0,0,1,.059.117.093.093,0,0,1-.088.064m19.939-.23a.093.093,0,0,1-.032-.18q.231-.088.459-.179a.093.093,0,0,1,.069.172c-.153.062-.308.121-.463.18a.094.094,0,0,1-.032.006m-20.879-.088a.1.1,0,0,1-.03,0l-.468-.166a.093.093,0,1,1,.063-.175l.466.165a.093.093,0,0,1-.031.18m21.8-.283a.092.092,0,0,1-.085-.056.093.093,0,0,1,.047-.122c.152-.066.3-.134.448-.2a.093.093,0,1,1,.08.168q-.224.106-.454.206a.088.088,0,0,1-.037.008m-22.729-.052a.1.1,0,0,1-.032-.006c-.159-.059-.314-.117-.464-.175a.093.093,0,1,1,.066-.173c.15.057.3.115.463.174a.093.093,0,0,1-.032.18m-.926-.354a.087.087,0,0,1-.034-.007c-.161-.062-.315-.124-.462-.183a.092.092,0,0,1-.051-.12.093.093,0,0,1,.121-.051c.146.059.3.12.46.183a.093.093,0,0,1-.034.18m24.55-.017a.094.094,0,0,1-.082-.051.092.092,0,0,1,.04-.125q.221-.113.434-.231a.093.093,0,1,1,.09.162q-.217.12-.44.234a.105.105,0,0,1-.043.01m-25.471-.354a.088.088,0,0,1-.035-.007c-.166-.069-.32-.133-.459-.192a.093.093,0,0,1,.073-.171c.138.059.291.123.456.191a.093.093,0,0,1-.036.179m26.337-.127a.092.092,0,0,1-.08-.045.094.094,0,0,1,.032-.127c.142-.085.28-.172.415-.262a.093.093,0,1,1,.1.155q-.208.136-.422.266a.088.088,0,0,1-.047.013m-27.249-.262a.1.1,0,0,1-.037-.008c-.294-.129-.456-.2-.456-.2a.093.093,0,1,1,.078-.168s.162.075.452.2a.091.091,0,0,1,.047.122.093.093,0,0,1-.085.056m28.075-.283a.093.093,0,0,1-.055-.168c.124-.089.245-.18.364-.274a.093.093,0,0,1,.115.146q-.18.142-.369.279a.093.093,0,0,1-.055.017m.722-.516a.092.092,0,0,1-.075-.039.093.093,0,0,1,.021-.13q.186-.134.364-.274a.093.093,0,0,1,.115.146q-.18.142-.369.279a.093.093,0,0,1-.055.017" transform="translate(-714.681 -314.961)" fill="#c3daf4"/>
      </g>
    </g>
    <g id="Group_220" data-name="Group 220" transform="translate(-26.876 141.332)">
      <g id="Group_205" data-name="Group 205">
        <path id="Path_200" data-name="Path 200" d="M427.967,347.012H188.337a14.19,14.19,0,0,1-14.148-14.148V232.123a14.19,14.19,0,0,1,14.148-14.148h239.63a14.19,14.19,0,0,1,14.148,14.148V332.864a14.19,14.19,0,0,1-14.148,14.148" fill="#e0e0e0"/>
        <path id="Path_201" data-name="Path 201" d="M226.518,278.568H140.3a7.28,7.28,0,0,1-7.259-7.259V185.086a7.28,7.28,0,0,1,7.259-7.259h86.222a7.28,7.28,0,0,1,7.259,7.259v86.223a7.28,7.28,0,0,1-7.259,7.259" fill="#fff" stroke="#c1c1c1" stroke-width="1"/>
        <line id="Line_9" data-name="Line 9" x2="217.481" transform="translate(198.909 293.642)" fill="none" stroke="#cecccc" stroke-width="2"/>
        <line id="Line_10" data-name="Line 10" x2="156.444" transform="translate(198.909 320.642)" fill="none" stroke="#cecccc" stroke-width="2"/>
        <path id="Path_202" data-name="Path 202" d="M270.02,240.966l4.171,8.452,9.328,1.355-6.75,6.579,1.594,9.29-8.343-4.386-8.343,4.386,1.594-9.29-6.75-6.579,9.328-1.355Z" fill="#cecccc"/>
        <path id="Path_203" data-name="Path 203" d="M304.02,240.966l4.171,8.452,9.328,1.355-6.75,6.579,1.594,9.29-8.343-4.386-8.343,4.386,1.594-9.29-6.75-6.579,9.328-1.355Z" fill="#cecccc"/>
        <path id="Path_204" data-name="Path 204" d="M337.02,240.966l4.171,8.452,9.328,1.355-6.75,6.579,1.594,9.29-8.343-4.386-8.343,4.386,1.594-9.29-6.75-6.579,9.328-1.355Z" fill="#cecccc"/>
        <path id="Path_205" data-name="Path 205" d="M371.02,240.966l4.171,8.452,9.328,1.355-6.75,6.579,1.594,9.29-8.343-4.386-8.343,4.386,1.594-9.29-6.75-6.579,9.328-1.355Z" fill="#cecccc"/>
        <path id="Path_206" data-name="Path 206" d="M405.02,240.966l4.171,8.452,9.328,1.355-6.75,6.579,1.594,9.29-8.343-4.386-8.343,4.386,1.594-9.29-6.75-6.579,9.328-1.355Z" fill="#cecccc"/>
        <path id="Path_214" data-name="Path 214" d="M172.913,210.864l-4.422-18.5,2.084-1.043s12.886,2.787,23.32-1.11l4.453,1.613-4.142,19.928Z" fill="#d16a0d"/>
        <path id="Path_215" data-name="Path 215" d="M196.378,191.373l1.944.57.025-.12-4.452-1.614c-10.435,3.9-23.321,1.11-23.321,1.11l-2.084,1.043.067.279c3.717.531,16.86,2.041,27.821-1.268" fill="#843204"/>
        <path id="Path_216" data-name="Path 216" d="M158.135,215.867l-7.6.322s-.81,1.394,1.371,3.576,12.148,7.04,12.36,6.083a9.684,9.684,0,0,0-1.6-5.21c-.843-.844-4.538-4.771-4.538-4.771" fill="#843204"/>
        <path id="Path_217" data-name="Path 217" d="M150.539,216.189s12.2,5.106,13.732,9.66l1.68-7.566.994-15.221-7.75-6.048Z" fill="#d16a0d"/>
        <path id="Path_218" data-name="Path 218" d="M216.412,214.676c.425,1.249-11.452,11.55-13.513,10.705a18.7,18.7,0,0,1,.849-4.462c.756-2.318,8.818-6.435,12.664-6.243" fill="#843204"/>
        <path id="Path_219" data-name="Path 219" d="M207.58,195.167l8.832,19.509s-12.4,4-13.512,10.705l-1.358-6.813V206.249Z" fill="#d16a0d"/>
        <path id="Path_220" data-name="Path 220" d="M159.2,197.014s6.842,15.945,6.842,19.947-2.583,36.964-4.678,46.353c0,0,28.068,5.885,43.568.806,0,0-5.06-30.45-3.385-45.552.092-.828,6.038-23.4,6.038-23.4l-13.59-4.924s-3.094,11.6-12.38,11.6c-7.419,0-11.327-10.38-11.327-10.38Z" fill="#f58f2b"/>
        <path id="Path_221" data-name="Path 221" d="M181.756,203.417c6.825,0,11.537-8.3,13.555-12.7l-1.416-.513s-3.153,11.171-12.438,11.171c-7.419,0-10.882-10.061-10.882-10.061l-1.568.785c2.381,4.049,7.4,11.313,12.749,11.313" fill="#843204"/>
      </g>
    </g>
  </g>
</svg>
