<?xml version="1.0" encoding="utf-8"?>
<!-- Generator: Adobe Illustrator 24.1.3, SVG Export Plug-In . SVG Version: 6.00 Build 0)  -->
<svg version="1.1" id="Layer_1" xmlns="http://www.w3.org/2000/svg" xmlns:xlink="http://www.w3.org/1999/xlink" x="0px" y="0px"
	 viewBox="0 0 400 400" style="enable-background:new 0 0 400 400;" xml:space="preserve">
<style type="text/css">
	.st0{fill:#FFFFFF;}
	.st1{fill:#525B7E;}
	.st2{fill:#77B843;}
	.st3{fill:#525A7E;}
</style>
<g>
	<g>
		<path class="st0" d="M229.9,397.5H97.7c-15.8,0-28.7-12.8-28.7-28.7v-325C69,28,81.9,15.2,97.7,15.2h132.1
			c15.8,0,28.7,12.8,28.7,28.7v325C258.5,384.7,245.7,397.5,229.9,397.5z"/>
		<path class="st1" d="M229.9,400H97.7c-17.2,0-31.2-14-31.2-31.2v-325c0-17.2,14-31.2,31.2-31.2h132.1c17.2,0,31.2,14,31.2,31.2
			v325C261,386,247,400,229.9,400z M97.7,17.6c-14.4,0-26.2,11.7-26.2,26.2v325c0,14.4,11.7,26.2,26.2,26.2h132.1
			c14.4,0,26.2-11.7,26.2-26.2v-325c0-14.4-11.7-26.2-26.2-26.2H97.7z"/>
	</g>
	<g>
		<rect x="69.2" y="57.6" class="st1" width="189.2" height="5"/>
	</g>
	<g>
		<rect x="69.2" y="349.7" class="st1" width="189.2" height="5"/>
	</g>
	<circle class="st2" cx="258.2" cy="205.4" r="134.2"/>
	<path class="st3" d="M366.9,60.1h-3.5v-3.6c0-0.9-0.7-1.6-1.6-1.6s-1.6,0.7-1.6,1.6v3.6h-3.6c-0.9,0-1.6,0.7-1.6,1.6
		s0.7,1.6,1.6,1.6h3.6v3.6c0,0.9,0.7,1.6,1.6,1.6s1.6-0.7,1.6-1.6v-3.6h3.5c0.9,0,1.6-0.7,1.6-1.6C368.5,60.8,367.8,60.1,366.9,60.1
		z"/>
	<path class="st3" d="M313.2,58.4l-1.2-0.8l0.9-1.2c0.2-0.3,0.1-0.7-0.2-0.9s-0.7-0.1-0.9,0.2l-0.9,1.2l-1.2-0.9
		c-0.3-0.2-0.7-0.1-0.9,0.2c-0.2,0.3-0.1,0.7,0.2,0.9l1.2,0.9l-0.9,1.2c-0.2,0.3-0.1,0.7,0.2,0.9s0.7,0.1,0.9-0.2l0.9-1.2l1.2,0.8
		c0.3,0.2,0.7,0.1,0.9-0.2C313.6,59.1,313.5,58.6,313.2,58.4z"/>
	<path class="st3" d="M329.7,349.5l0-1.8l1.8,0c0.4,0,0.8-0.4,0.8-0.8c0-0.4-0.4-0.8-0.8-0.8l-1.8,0l0-1.8c0-0.4-0.4-0.8-0.8-0.8
		c-0.4,0-0.8,0.4-0.8,0.8l0,1.8l-1.8,0c-0.4,0-0.8,0.4-0.8,0.8c0,0.4,0.4,0.8,0.8,0.8l1.8,0l0,1.8c0,0.5,0.4,0.8,0.8,0.8
		C329.4,350.3,329.7,350,329.7,349.5z"/>
	<path class="st3" d="M39.4,8.1l-3.7-1.7l1.7-3.8c0.4-0.9,0-2.1-1-2.5s-2.1,0-2.5,1l-1.7,3.8l-3.8-1.7c-0.9-0.4-2.1,0-2.5,1
		c-0.4,0.9,0,2.1,1,2.5l3.8,1.7l-1.7,3.8c-0.4,0.9,0,2.1,1,2.5c0.9,0.4,2.1,0,2.5-1l1.7-3.8l3.7,1.7c1,0.4,2.1,0,2.5-1
		C40.7,9.7,40.3,8.5,39.4,8.1z"/>
	<path class="st3" d="M318.9,17.2c-2.9,0-5.3,2.4-5.3,5.3s2.4,5.3,5.3,5.3c2.9,0,5.3-2.4,5.3-5.3S321.9,17.2,318.9,17.2z
		 M318.9,25.4c-1.6,0-2.9-1.3-2.9-2.9c0-1.6,1.3-2.9,2.9-2.9s2.9,1.3,2.9,2.9C321.9,24.1,320.6,25.4,318.9,25.4z"/>
	<path class="st3" d="M16.3,40.2c-4.8,0-8.7,3.9-8.7,8.7s3.9,8.7,8.7,8.7s8.7-3.9,8.7-8.7S21.1,40.2,16.3,40.2z M16.3,53.8
		c-2.7,0-4.8-2.2-4.8-4.8s2.2-4.8,4.8-4.8s4.8,2.2,4.8,4.8S19,53.8,16.3,53.8z"/>
	<g>
		<path class="st1" d="M163.8,385.3c-5.6,0-10.1-4.5-10.1-10.1c0-5.6,4.5-10.1,10.1-10.1c5.6,0,10.1,4.5,10.1,10.1
			C173.9,380.7,169.4,385.3,163.8,385.3z M163.8,370c-2.8,0-5.2,2.3-5.2,5.2s2.3,5.2,5.2,5.2c2.8,0,5.2-2.3,5.2-5.2
			S166.6,370,163.8,370z"/>
	</g>
	<g>
		<path class="st1" d="M191.3,39.6h-39.2c-1.4,0-2.5-1.1-2.5-2.5c0-1.4,1.1-2.5,2.5-2.5h39.2c1.4,0,2.5,1.1,2.5,2.5
			C193.8,38.5,192.7,39.6,191.3,39.6z"/>
	</g>
	<g>
		<path class="st1" d="M140.4,39.8c-0.7,0-1.3-0.3-1.8-0.7c-0.5-0.5-0.7-1.1-0.7-1.8c0-0.2,0-0.3,0-0.5s0.1-0.3,0.1-0.5
			c0.1-0.1,0.1-0.3,0.2-0.4c0.1-0.1,0.2-0.3,0.3-0.4c0.9-0.9,2.6-0.9,3.5,0c0.1,0.1,0.2,0.2,0.3,0.4c0.1,0.1,0.2,0.3,0.2,0.4
			c0.1,0.1,0.1,0.3,0.1,0.5c0,0.2,0,0.3,0,0.5c0,0.2,0,0.3,0,0.5c0,0.2-0.1,0.3-0.1,0.5c-0.1,0.1-0.1,0.3-0.2,0.4
			c-0.1,0.1-0.2,0.3-0.3,0.4C141.7,39.5,141.1,39.8,140.4,39.8z"/>
	</g>
	<polygon class="st0" points="201.2,203 233.3,235.1 315.2,153.2 326.4,164.4 233.3,257.6 190,214.2 	"/>
</g>
</svg>
