<svg xmlns="http://www.w3.org/2000/svg" xmlns:xlink="http://www.w3.org/1999/xlink" width="362.378" height="120" viewBox="0 0 362.378 120"><defs><style>.a{fill:#fde47c;}.b{fill:#fff;}.c{fill:#e59d35;}.d{fill:#744da5;}.e{fill:#ff4a1e;}.f{fill:#ffe48f;}.g{fill:#ee8914;}.h{fill:#6139bc;}.i{fill:#ffc639;}.j{fill:#ebe7f7;}.k{fill:#e72749;}.l{fill:#ff3a59;}.m{fill:#fcebe3;}.n{fill:#c8d1ce;}.o{fill:url(#a);}.p{fill:url(#b);}.q{fill:#d31140;}.r{fill:#ffc22a;}.s{fill:#f8b545;}.t{fill:#ff7042;}.u{fill:url(#c);}.v{fill:#ff9f23;}.w{fill:#4a2c76;}.x{fill:#ffc5a7;}.y{fill:#f2ac8c;}.z{fill:#eaeaea;}.aa{fill:#56309e;}.ab{fill:#5a3f77;}.ac{fill:url(#e);}.ad{fill:#4ac6f0;}</style><linearGradient id="a" y1="0.5" x2="1" y2="0.5" gradientUnits="objectBoundingBox"><stop offset="0" stop-color="#fde47c"/><stop offset="1" stop-color="#e72749"/></linearGradient><linearGradient id="b" y1="0.5" x2="1" y2="0.5" gradientUnits="objectBoundingBox"><stop offset="0" stop-color="#fde47c"/><stop offset="1" stop-color="#ff3a59"/></linearGradient><linearGradient id="c" y1="0.5" x2="1" y2="0.5" gradientUnits="objectBoundingBox"><stop offset="0" stop-color="#fed747"/><stop offset="1" stop-color="#f94e43"/></linearGradient><linearGradient id="e" x1="-0.007" y1="0.5" x2="1.007" y2="0.5" gradientUnits="objectBoundingBox"><stop offset="0" stop-color="#ff3a59"/><stop offset="1" stop-color="#d31140"/></linearGradient></defs><g transform="translate(-832 -103.106)"><g transform="translate(1033.492 103.106)"><g transform="translate(0 7.964)"><path class="a" d="M1211.841,431.519s-19.767-26.593-3.343-55.383c14.572-25.545,31.562-23.8,44.028-13.432,5.309,4.415,20.616.544,33.644-25.449,17.767-35.447,79.352-13.948,68.123,40.588-5.434,26.392,16.538,27.351,5.343,53.732Z" transform="translate(-1201.974 -319.903)"/></g><ellipse class="a" cx="20.275" cy="14.598" rx="20.275" ry="14.598" transform="matrix(0.747, -0.665, 0.665, 0.747, 30.333, 26.952)"/><ellipse class="a" cx="4.51" cy="6.263" rx="4.51" ry="6.263" transform="translate(18.405 30.883) rotate(-41.657)"/><path class="a" d="M3213.7,463.7c-.762-3.374.59-6.554,3.019-7.1s5.017,1.742,5.778,5.116-.59,6.554-3.019,7.1S3214.461,467.071,3213.7,463.7Z" transform="translate(-3062.882 -438.472)"/><g transform="translate(10.295 30.44)"><g transform="translate(0)"><path class="b" d="M2861.141,1449.67c-1.236-4.564-8.938-3.138-8.938-3.138s-5.23,7.987-6.751,8.178,3.138-7.7,3.138-7.7c-2.948-.285-10.46,3.328-10.46,3.328s.476,9.319-1.046,9.129,0-8.273,0-8.273c-2.853.856-5.515,4.184-5.515,4.184-3.328,5.42,3.8,9.414,3.8,9.414a15.175,15.175,0,0,1-1.9,6.942h0a11.021,11.021,0,0,0-.908,1.849h.777q.1-.313.211-.6a0,0,0,0,1,0,0l0-.008c.054-.12.13-.291.226-.5h0c.238-.465.4-.809.5-1.057a0,0,0,0,0,0,0c.712-1.46,1.738-3.362,2.422-3.761a1.514,1.514,0,0,1-.167-.357l.167.357c1.331,2.853,7.987,3.328,11.7,2.567s2.092-1.807.1-3.5-6.181-1.25-7.417-1.916.57-1.331,3.043-1.141,3.708,2.663,7.7,3.043,7.037-7.132,7.037-7.132c-2.757.856-7.7-.666-7.893-1.617s7.132-.856,8.273-1.141S2862.377,1454.234,2861.141,1449.67Z" transform="translate(-2719.035 -1385.356)"/><path class="c" d="M1734.962,1483.15s.34,2.711-.168,2.744-.161-3.049-.161-3.049-2.418-1.351-3.4-1.317c0,0,1.385,2.712.884,2.618s-2.073-2.849-2.073-2.849-2.525-.63-3.028.859.113,2.286.485,2.4,2.8.235,2.72.547-1.753.715-2.65.375c0,0,.856,2.553,2.188,2.508s1.792-.839,2.616-.852,1.409.245.986.44-1.8-.038-2.5.484-1.254.836-.04,1.164,3.432.306,3.931-.613l.063-.115a.5.5,0,0,1-.062.115,3.968,3.968,0,0,1,.727,1.3c.028.084.075.2.144.362h0c.028.072.05.131.065.172a7.632,7.632,0,0,1,.022,2.97l.258.087a4.376,4.376,0,0,0-.228-3.466,5.039,5.039,0,0,1-.489-2.341s2.446-1.179,1.453-3.045A4.7,4.7,0,0,0,1734.962,1483.15Z" transform="translate(-1697.823 -1417.59)"/><path class="b" d="M1591.073,1606.266c-.219-3.344,5.273-4.156,5.273-4.156s5.341,4.155,6.4,3.933-3.873-4.444-3.873-4.444c1.911-.868,7.778-.17,7.778-.17s1.821,6.358,2.8,5.881-1.9-5.547-1.9-5.547a10.037,10.037,0,0,1,4.659,1.539c3.476,2.87-.389,7.186-.389,7.186a10.752,10.752,0,0,0,2.869,4.218h0a7.8,7.8,0,0,1,1.034,1.031l-.522.178c-.09-.125-.184-.244-.28-.356l0,0,0,0c-.063-.068-.154-.166-.266-.283h0c-.266-.257-.453-.451-.578-.594h0a8.464,8.464,0,0,0-2.487-1.966,1.066,1.066,0,0,0,.03-.277l-.03.277c-.238,2.219-4.592,4.066-7.253,4.407s-1.818-.731-.868-2.328,3.858-2.258,4.534-2.988-.688-.762-2.3-.066-1.875,2.637-4.466,3.809-6.356-3.167-6.356-3.167c2.046-.059,5.012-2.215,4.921-2.9s-4.979,1.064-5.809,1.134S1591.292,1609.61,1591.073,1606.266Z" transform="translate(-1572.229 -1528.604)"/><g transform="translate(120.306 15.286)"><path class="d" d="M2947.71,838.6a2.178,2.178,0,0,1-.737-1.1,1.973,1.973,0,0,1,.192-1.133l-.784-.156a2.854,2.854,0,0,0,.161,1.733,1.981,1.981,0,0,0,.695.613A.678.678,0,0,0,2947.71,838.6Z" transform="translate(-2946.313 -836.209)"/><path class="e" d="M2952.821,860.858l.714.817a3.257,3.257,0,0,1-3.17-.891S2952.063,861.357,2952.821,860.858Z" transform="translate(-2950.061 -858.943)"/></g><g transform="translate(85.555 5.604)"><path class="f" d="M2489.777,708.246a1.438,1.438,0,0,1,2.013-.469l.7-.766s-.735-.487-2.29.572C2489.187,708.276,2489.777,708.246,2489.777,708.246Z" transform="translate(-2489.049 -706.9)"/><path class="f" d="M2482.173,712.426s-.245-1.317,1.924-2.289a2.325,2.325,0,0,0-.94,1.78Z" transform="translate(-2482.165 -709.895)"/></g><g transform="translate(39.809 43.924)"><path class="g" d="M1872.721,1220.958a1.306,1.306,0,0,1-.724-1.732l-.792-.515s-.325.732.858,1.964C1872.837,1221.482,1872.721,1220.958,1872.721,1220.958Z" transform="translate(-1871.164 -1218.711)"/><path class="h" d="M1878.663,1237.909s-1.143.418-2.341-1.378a2.113,2.113,0,0,0,1.737.573Z" transform="translate(-1875.936 -1235.197)"/></g><path class="i" d="M1937.848,1016.556s.658-.416.728-.918c0,0,.641.035.779.242,0,0-.294.831-.641.987C1938.714,1016.868,1937.935,1016.919,1937.848,1016.556Z" transform="translate(-1893.047 -986.918)"/><path class="d" d="M1341.077,1417.017s-.7-.443-.776-.979c0,0-.683.037-.831.259,0,0,.314.887.684,1.053C1340.154,1417.35,1340.985,1417.405,1341.077,1417.017Z" transform="translate(-1339.47 -1357.34)"/><path class="e" d="M2383.831,889.411s-.981-.619-1.084-1.368c0,0-.955.052-1.161.361,0,0,.438,1.238.955,1.471C2382.541,889.875,2383.7,889.953,2383.831,889.411Z" transform="translate(-2303.562 -868.877)"/><g transform="translate(103.854 16.537)"><path class="h" d="M2763.2,854.033l6.1,19.085a1.612,1.612,0,0,1-1.042,2.02l-33.479,10.693a1.612,1.612,0,0,1-2.02-1.042l-6.1-19.085a1.612,1.612,0,0,1,1.042-2.02l33.479-10.693A1.613,1.613,0,0,1,2763.2,854.033Z" transform="translate(-2726.578 -852.915)"/><g transform="translate(2.695 3.121)"><path class="j" d="M2836.294,1173.423l-8.923,2.85a.723.723,0,0,1-.906-.467l-.027-.086a.723.723,0,0,1,.467-.906l8.923-2.85a.723.723,0,0,1,.906.467l.027.086A.723.723,0,0,1,2836.294,1173.423Z" transform="translate(-2821.626 -1151.166)"/><path class="j" d="M2993.347,1123.262l-8.923,2.85a.723.723,0,0,1-.906-.467l-.027-.086a.723.723,0,0,1,.467-.906l8.923-2.85a.722.722,0,0,1,.906.467l.028.086A.723.723,0,0,1,2993.347,1123.262Z" transform="translate(-2966.919 -1104.761)"/><g transform="translate(14.036 5.215)"><path class="j" d="M2951.823,1043.622a1.741,1.741,0,0,1,.085.854.79.79,0,0,1-1.322.422,2.071,2.071,0,0,1-.513-1.595.8.8,0,0,1,1.328-.424A1.747,1.747,0,0,1,2951.823,1043.622Zm-.41.129a1.727,1.727,0,0,0-.234-.492q-.207-.278-.449-.2t-.254.422a1.668,1.668,0,0,0,.093.54q.266.833.691.7.245-.078.249-.427A1.72,1.72,0,0,0,2951.414,1043.751Z" transform="translate(-2950.053 -1036.784)"/><path class="j" d="M2976.294,1035.807a1.743,1.743,0,0,1,.085.854.79.79,0,0,1-1.322.422,2.071,2.071,0,0,1-.513-1.595.795.795,0,0,1,1.328-.424A1.751,1.751,0,0,1,2976.294,1035.807Zm-.41.129a1.726,1.726,0,0,0-.233-.492q-.207-.278-.449-.2t-.254.422a1.67,1.67,0,0,0,.093.54q.266.833.691.7.246-.078.249-.427A1.719,1.719,0,0,0,2975.884,1035.936Z" transform="translate(-2972.691 -1029.553)"/><path class="j" d="M3013.377,1023.962a1.747,1.747,0,0,1,.085.854.79.79,0,0,1-1.322.422,2.071,2.071,0,0,1-.513-1.6.795.795,0,0,1,1.328-.424A1.751,1.751,0,0,1,3013.377,1023.962Zm-.41.129a1.726,1.726,0,0,0-.233-.492q-.207-.278-.449-.2a.392.392,0,0,0-.254.422,1.668,1.668,0,0,0,.093.54q.266.833.691.7.245-.078.249-.427A1.719,1.719,0,0,0,3012.968,1024.091Z" transform="translate(-3006.998 -1018.595)"/><path class="j" d="M3037.848,1016.146a1.746,1.746,0,0,1,.085.854.79.79,0,0,1-1.322.422,2.072,2.072,0,0,1-.513-1.6.8.8,0,0,1,1.329-.424A1.753,1.753,0,0,1,3037.848,1016.146Zm-.41.129a1.727,1.727,0,0,0-.233-.492q-.207-.278-.449-.2t-.254.422a1.669,1.669,0,0,0,.093.54q.266.833.691.7.246-.078.249-.427A1.712,1.712,0,0,0,3037.438,1016.275Z" transform="translate(-3029.636 -1011.364)"/><path class="j" d="M3062.319,1008.33a1.743,1.743,0,0,1,.085.854.789.789,0,0,1-1.322.422,2.073,2.073,0,0,1-.513-1.6.8.8,0,0,1,1.329-.424A1.753,1.753,0,0,1,3062.319,1008.33Zm-.41.129a1.727,1.727,0,0,0-.233-.492q-.207-.278-.449-.2t-.254.422a1.661,1.661,0,0,0,.093.54q.266.833.691.7.245-.079.249-.427A1.726,1.726,0,0,0,3061.909,1008.459Z" transform="translate(-3052.275 -1004.134)"/><path class="j" d="M3086.789,1000.514a1.744,1.744,0,0,1,.085.854.789.789,0,0,1-1.322.422,2.073,2.073,0,0,1-.513-1.6.795.795,0,0,1,1.328-.424A1.744,1.744,0,0,1,3086.789,1000.514Zm-.41.129a1.737,1.737,0,0,0-.233-.492q-.207-.278-.449-.2t-.254.422a1.682,1.682,0,0,0,.093.54q.266.833.691.7.246-.078.249-.427A1.711,1.711,0,0,0,3086.379,1000.644Z" transform="translate(-3074.914 -996.904)"/><path class="j" d="M3123.873,988.67a1.741,1.741,0,0,1,.085.854.79.79,0,0,1-1.322.422,2.074,2.074,0,0,1-.513-1.6.8.8,0,0,1,1.329-.424A1.748,1.748,0,0,1,3123.873,988.67Zm-.41.129a1.727,1.727,0,0,0-.234-.492q-.207-.278-.449-.2a.392.392,0,0,0-.254.422,1.667,1.667,0,0,0,.093.54q.266.833.691.7.245-.078.249-.427A1.726,1.726,0,0,0,3123.463,988.8Z" transform="translate(-3109.221 -985.946)"/><path class="j" d="M3148.344,980.854a1.743,1.743,0,0,1,.085.854.789.789,0,0,1-1.322.422,2.072,2.072,0,0,1-.513-1.6.8.8,0,0,1,1.328-.424A1.749,1.749,0,0,1,3148.344,980.854Zm-.41.129a1.725,1.725,0,0,0-.234-.492q-.207-.278-.449-.2t-.254.422a1.674,1.674,0,0,0,.093.54q.266.833.691.7.245-.079.249-.427A1.727,1.727,0,0,0,3147.934,980.983Z" transform="translate(-3131.859 -978.715)"/><path class="j" d="M3172.814,973.038a1.747,1.747,0,0,1,.085.854.79.79,0,0,1-1.322.422,2.072,2.072,0,0,1-.513-1.6.8.8,0,0,1,1.328-.424A1.751,1.751,0,0,1,3172.814,973.038Zm-.41.129a1.734,1.734,0,0,0-.234-.492q-.207-.278-.449-.2t-.254.422a1.669,1.669,0,0,0,.093.54q.266.833.691.7.246-.079.249-.427A1.734,1.734,0,0,0,3172.4,973.167Z" transform="translate(-3154.498 -971.484)"/><path class="j" d="M3197.285,965.223a1.743,1.743,0,0,1,.085.854.79.79,0,0,1-1.322.422,2.073,2.073,0,0,1-.513-1.6.795.795,0,0,1,1.328-.424A1.749,1.749,0,0,1,3197.285,965.223Zm-.41.129a1.74,1.74,0,0,0-.233-.492q-.207-.278-.449-.2t-.254.422a1.667,1.667,0,0,0,.093.54q.266.833.691.7.246-.078.249-.427A1.71,1.71,0,0,0,3196.875,965.352Z" transform="translate(-3177.136 -964.254)"/></g><path class="j" d="M2772.251,974.317l-8.732,2.789a.723.723,0,0,1-.906-.467h0a.723.723,0,0,1,.467-.906l8.732-2.789a.723.723,0,0,1,.906.467h0A.723.723,0,0,1,2772.251,974.317Z" transform="translate(-2762.579 -967.046)"/><g transform="translate(30.228)"><g transform="translate(0 1.501)"><path class="j" d="M3166.968,915.252a1.1,1.1,0,0,0-.442-.585.118.118,0,0,0-.171.045l-.028.055a.117.117,0,0,0,.039.15.81.81,0,0,1,.306.958.117.117,0,0,0,.055.144l.054.029a.118.118,0,0,0,.166-.062A1.1,1.1,0,0,0,3166.968,915.252Z" transform="translate(-3166.315 -914.646)"/></g><g transform="translate(0.28 0.969)"><path class="j" d="M3171,908.494a1.691,1.691,0,0,0-.747-.941.118.118,0,0,0-.164.049l-.016.031a.118.118,0,0,0,.046.154,1.428,1.428,0,0,1,.572,1.792.118.118,0,0,0,.053.152l.031.016a.117.117,0,0,0,.162-.055A1.692,1.692,0,0,0,3171,908.494Z" transform="translate(-3170.061 -907.537)"/></g><g transform="translate(0.531 0.503)"><path class="j" d="M3174.589,902.582a2.214,2.214,0,0,0-1.008-1.249.118.118,0,0,0-.163.05h0a.117.117,0,0,0,.046.155,1.981,1.981,0,0,1,.813,2.547.118.118,0,0,0,.052.153h0a.118.118,0,0,0,.162-.054A2.215,2.215,0,0,0,3174.589,902.582Z" transform="translate(-3173.405 -901.318)"/></g><g transform="translate(0.758)"><path class="j" d="M3177.93,896.193a2.775,2.775,0,0,0-1.291-1.58.118.118,0,0,0-.163.05l-.027.054a.118.118,0,0,0,.047.155,2.487,2.487,0,0,1,1.032,3.23.117.117,0,0,0,.052.154l.053.028a.119.119,0,0,0,.162-.054A2.774,2.774,0,0,0,3177.93,896.193Z" transform="translate(-3176.436 -894.598)"/></g></g></g></g><g transform="translate(45.555)"><rect class="k" width="19.061" height="54.903" transform="translate(51.884 34.226)"/><rect class="l" width="50.357" height="54.903" transform="translate(1.527 34.226)"/><rect class="m" width="3.843" height="50.357" transform="translate(51.884 61.083) rotate(90)"/><rect class="n" width="3.843" height="19.061" transform="translate(70.945 61.083) rotate(90)"/><path class="k" d="M2429.12,1029.225s11.377-7.393,19.11-5.017l-1.6,1.49.719,2.5a28.344,28.344,0,0,0-18.469,1.444Z" transform="translate(-2392.874 -994.411)"/><path class="o" d="M2034.305,757.859s-2.007-.243-5-.654c-7.943-1.093-22.819-3.378-25.49-5.493-4.2-3.323,5.747-17.434,10.05-19.393S2034.305,757.859,2034.305,757.859Z" transform="translate(-1998.695 -724.719)"/><path class="p" d="M2451.354,647.616c.717,3.5-31.771,18.6-31.771,18.6s.591-1.6,1.553-4.1l0,0c3.512-9.14,11.974-30.352,14.755-30.058a3.377,3.377,0,0,1,.971.289C2441.134,634.219,2450.693,644.4,2451.354,647.616Z" transform="translate(-2384.267 -632.049)"/><path class="q" d="M2455.808,635.449c-1.984,3.447-15.244,26.3-15.452,26.661,3.512-9.14,11.974-30.352,14.755-30.058a1.768,1.768,0,0,1,.971.289C2456.589,632.71,2456.9,633.546,2455.808,635.449Z" transform="translate(-2403.486 -632.049)"/><path class="q" d="M2038.5,949.667h-.005c-7.943-1.093-22.819-3.378-25.49-5.493-1.206-3.4,1.923-3.673,4.2-3.912S2038.5,949.667,2038.5,949.667Z" transform="translate(-2007.884 -917.182)"/><path class="k" d="M2342.6,1034.979s1.821-4.143,5.406-4.373c3.744-.24,5.87,4.373,5.87,4.373Z" transform="translate(-2313.049 -1000.758)"/><rect class="r" width="52.692" height="7.551" transform="translate(0 34.226)"/><rect class="s" width="19.86" height="7.551" transform="translate(52.692 34.226)"/><path class="k" d="M2060.309,1057.914s-10.32-3.269-17.284-1.108c-8.027,2.491-7.552,12.4-7.552,12.4l1.888-.776,2.549,1.2s.43-10.488,6.974-11.957C2052.543,1056.4,2060.309,1057.914,2060.309,1057.914Z" transform="translate(-2028.912 -1024.321)"/><rect class="m" width="3.843" height="54.898" transform="translate(22.259 34.226)"/></g><g transform="translate(23.248 12.59)"><rect class="k" width="3.721" height="10.717" transform="matrix(0.948, -0.318, 0.318, 0.948, 9.603, 6.337)"/><rect class="l" width="9.83" height="10.717" transform="matrix(0.948, -0.318, 0.318, 0.948, 0.283, 9.461)"/><rect class="t" width="0.75" height="9.83" transform="translate(11.269 11.308) rotate(71.47)"/><rect class="e" width="0.75" height="3.721" transform="translate(14.797 10.125) rotate(71.472)"/><path class="e" d="M1743.467,864.014s2.423-2.255,4.58-2.429l-.308.4.358.4a10.33,10.33,0,0,0-4.661,1.723Z" transform="translate(-1736.438 -856.989)"/><g transform="translate(0.08)"><path class="u" d="M1657.486,852.076s-.387.08-.966.189c-1.538.291-4.433.79-5.058.565-.983-.355-.018-3.583.657-4.213S1657.486,852.076,1657.486,852.076Z" transform="translate(-1651.042 -844.93)"/><g transform="translate(6.453)"><path class="u" d="M1741.951,802.235c.35.6-4.727,5.413-4.727,5.413s.01-.332.033-.855h0c.083-1.91.333-6.361.866-6.479a.66.66,0,0,1,.2-.007A8.251,8.251,0,0,1,1741.951,802.235Z" transform="translate(-1737.224 -800.295)"/><path class="e" d="M1738.874,800.8c-.153.761-1.19,5.814-1.206,5.893.083-1.91.333-6.361.866-6.479a.346.346,0,0,1,.2-.007C1738.849,800.246,1738.959,800.381,1738.874,800.8Z" transform="translate(-1737.635 -800.197)"/></g><path class="e" d="M1659.764,892.53h0c-1.538.291-4.433.79-5.058.565-.434-.554.128-.8.534-.985A30.91,30.91,0,0,1,1659.764,892.53Z" transform="translate(-1654.285 -885.196)"/><path class="e" d="M1723.021,888.4a1.456,1.456,0,0,1,.729-1.145c.678-.277,1.358.445,1.358.445Z" transform="translate(-1717.632 -880.681)"/></g><rect class="r" width="10.286" height="1.474" transform="matrix(0.948, -0.318, 0.318, 0.948, 0, 9.555)"/><rect class="v" width="3.877" height="1.474" transform="matrix(0.948, -0.318, 0.318, 0.948, 9.752, 6.287)"/><path class="e" d="M1676.629,900.245a6.961,6.961,0,0,0-3.268.867c-1.331.959-.629,2.763-.629,2.763l.3-.261.546.063s-.571-1.968.549-2.646A7.751,7.751,0,0,1,1676.629,900.245Z" transform="translate(-1670.857 -892.754)"/><rect class="t" width="0.75" height="10.81" transform="matrix(0.948, -0.318, 0.318, 0.948, 4.12, 8.175)"/></g><g transform="translate(87.255 36.514)"><path class="w" d="M2603.132,1123.275a1.728,1.728,0,0,0-.539,2.414s-1.221-.224-1.485-.588a.949.949,0,0,0,.076.229,3.35,3.35,0,0,1-1.49-.723c-.367-.469,1.434-6.082,4.353-4.628,0,0,2.669.5,1.624,3.459s-.057,3.225-.057,3.225a1.455,1.455,0,0,1-.443.028s-.175-.125-.184-.243a.712.712,0,0,0,.029.245,2.909,2.909,0,0,1-1.519-.725A3.453,3.453,0,0,1,2603.132,1123.275Z" transform="translate(-2592.55 -1119.738)"/><path class="x" d="M2619.172,1230.691l-.005,0C2619.158,1230.692,2619.16,1230.691,2619.172,1230.691Z" transform="translate(-2610.604 -1222.384)"/><path class="x" d="M2622.691,1187.31c.041.367.09.7.112.854.049.352-3.29.123-3.5.122a9.139,9.139,0,0,0,.745-2.049c.174-.665.31-1.383.31-1.383l2.357.149.14.009a8.237,8.237,0,0,0-.192.907c-.006.038-.011.076-.016.114A6.12,6.12,0,0,0,2622.691,1187.31Z" transform="translate(-2610.733 -1179.979)"/><path class="w" d="M2625.153,1128.04a6.813,6.813,0,0,1-.3-2.142c.055-.663,1-2.927,3.271-1.964a3.317,3.317,0,0,1,1.2.855c.421.482.963,1.425-.407,3.256l-.4.636Z" transform="translate(-2615.856 -1123.403)"/><path class="y" d="M2635.565,1188.144a4.16,4.16,0,0,1-2.349-2.388,5.036,5.036,0,0,1,2.319,1c-.006.038-.011.076-.016.114A6.138,6.138,0,0,0,2635.565,1188.144Z" transform="translate(-2623.607 -1180.813)"/><path class="x" d="M2634.685,1141.376s-2.979-.736-2.492-2.585.431-3.188,2.354-2.8,2.1,1.194,2.092,1.851S2635.473,1141.52,2634.685,1141.376Z" transform="translate(-2622.611 -1134.714)"/><path class="w" d="M2626.882,1133.234s-1.386,1.953-2.717,1.943a2.538,2.538,0,0,1-1.784-.487,3.651,3.651,0,0,0,1.707-1.78S2626.543,1132.04,2626.882,1133.234Z" transform="translate(-2613.583 -1131.641)"/><path class="w" d="M2679.19,1139.8a2.711,2.711,0,0,1,.5,1.154c.023.51-.167,1.5.125,1.538,0,0,1-1.311.535-2.327C2679.856,1139.088,2679.19,1139.8,2679.19,1139.8Z" transform="translate(-2666.139 -1138.084)"/><path class="w" d="M2644.046,1135.865s-1.18,2.117-2.945,2.428a5.615,5.615,0,0,0,2.472-2.442C2644.1,1134.388,2644.046,1135.865,2644.046,1135.865Z" transform="translate(-2630.902 -1134.047)"/><path class="z" d="M2659.937,1192.856s.037.281.217.348a2.6,2.6,0,0,0,.7.157,2.417,2.417,0,0,0,.227-.249A3.717,3.717,0,0,0,2659.937,1192.856Z" transform="translate(-2648.327 -1187.38)"/><path class="x" d="M2576.685,1455l-.113.47c-.225.933-.434,1.8-.565,2.523a3.019,3.019,0,0,0,.013,1.939c.925,1.213,0,10.841,0,10.841l-1.053,1.085s-1.831-9.506-2.327-10.995a58.872,58.872,0,0,1-.845-6.521q-.022-.222-.043-.443c-.05-.516-.1-1.031-.145-1.533-.261-2.793-.456-5.185-.456-5.185a9.236,9.236,0,0,1,3.706-1.517,2.223,2.223,0,0,1,2.5,1.517C2578.059,1449.038,2577.347,1452.247,2576.685,1455Z" transform="translate(-2566.188 -1421.248)"/><path class="y" d="M2592.923,1455a10.368,10.368,0,0,1-4.209-5.936,3.511,3.511,0,0,1,2.381-3.4,2.223,2.223,0,0,1,2.5,1.517C2594.3,1449.038,2593.585,1452.247,2592.923,1455Z" transform="translate(-2582.426 -1421.248)"/><path class="x" d="M2708.536,1325.326l7.091,1.832v.828s-7.057-.083-7.511-.869S2708.536,1325.326,2708.536,1325.326Z" transform="translate(-2692.778 -1309.934)"/><path class="x" d="M2629.165,1442.936l-.332,1.369s-9.592-4.954-10.832-5.906c-.5-.382-1.157-2.458-1.767-4.807-.908-3.5-1.709-7.605-1.709-7.605s1.345-5.171,4.944-2.006c2.154,1.894,1.819,5.544,1.583,8.382-.157,1.9-.27,3.444.444,3.843,1.393.778,5.482,4.36,6.776,6.824Z" transform="translate(-2606.315 -1400.253)"/><path class="x" d="M2527.757,1243.429c-2.505-.637-5.259-4.524-5.259-4.524l.706-.612a18.445,18.445,0,0,0,3.767,2.344c-.016-.788,0-1.507.054-2.161.337-4.445,2.013-5.927,2.47-6.252a1.111,1.111,0,0,1,.116-.075s0,.032,0,.094c.007.132.019.4.031.764C2529.739,1235.728,2529.85,1243.962,2527.757,1243.429Z" transform="translate(-2521.178 -1223.734)"/><path class="z" d="M2566.99,1233.687c-.13,3.171-.6,6.312-1.985,6.11-1.692-.247-2.133-1.827-2.223-3a6.753,6.753,0,0,1,.025-1.3,3,3,0,0,0,.968-.128c.64-.591.45-6.386.767-6.988s2.371-.988,2.371-.988S2567.119,1230.553,2566.99,1233.687Z" transform="translate(-2558.428 -1219.327)"/><path class="n" d="M2567.232,1284.637c-.13,3.171-.6,6.312-1.985,6.11-1.692-.247-2.133-1.827-2.223-3a1.9,1.9,0,0,0,1.438-.566,47.668,47.668,0,0,0,1.714-4.72S2566.687,1283.377,2567.232,1284.637Z" transform="translate(-2558.67 -1270.277)"/><path class="z" d="M2595.255,1220.9c.459.651.206,1.915-.756,2.932a2.854,2.854,0,0,1-2.724.811c-.574-.085-2.178-.99-2.346-2.094-.03-.2-.047-.317-.047-.317a6.278,6.278,0,0,0-.757.869c-.012.062-.075.615-.085.69a2.651,2.651,0,0,0,.053.427s-3.489,1.526-6.373-.212c0,0-.823-7.047-.232-8.22a15.253,15.253,0,0,1,2.513-2.219.915.915,0,0,0,.224-.672c-.029-.185.184-.5.362-.44a3.947,3.947,0,0,0,2.007.409c.342-.091.776-.486,1.107-.4.405.111-.023,1.086.207,1.1a5.755,5.755,0,0,1,2.168.633c.05.1.541,1.4,1.156,3.117a.023.023,0,0,1,0,0C2592.887,1220.552,2594.581,1219.946,2595.255,1220.9Z" transform="translate(-2576.016 -1205.509)"/><path class="n" d="M2646.029,1310.289s-.085-2.688-.3-2.656-3.352,3.05-2.607,4.256S2646.029,1310.289,2646.029,1310.289Z" transform="translate(-2632.664 -1293.565)"/><path class="h" d="M2578.7,1372.672a20.835,20.835,0,0,1-2.987.619,16.928,16.928,0,0,1-8.034-.619,24.068,24.068,0,0,1,.425-6.227c.652-2.134.956-3.155.956-3.155a13.791,13.791,0,0,0,5.263.147,8.579,8.579,0,0,0,1.112-.287s1.636,3.473,2.086,4.962S2578.7,1372.672,2578.7,1372.672Z" transform="translate(-2562.945 -1344.925)"/><path class="w" d="M2652.992,1372.672a20.844,20.844,0,0,1-2.987.619c-3.263-1.85-1.672-9.636-1.672-9.636.1-.078.191-.151.282-.218a8.572,8.572,0,0,0,1.113-.287s1.636,3.473,2.086,4.962S2652.992,1372.672,2652.992,1372.672Z" transform="translate(-2637.233 -1344.925)"/><g transform="translate(5.976 17.513)"><path class="b" d="M2587.614,1355.274a4.392,4.392,0,0,1-2.791-.711l-.125-.911c.019.014,2.614,1.572,6.631.08l-.085.69A10.54,10.54,0,0,1,2587.614,1355.274Z" transform="translate(-2584.698 -1353.652)"/></g><path class="x" d="M2810.063,1340.431a9.51,9.51,0,0,1,1.818-.7,4.115,4.115,0,0,1,1.386,0,3.86,3.86,0,0,1-1.179.7c-.248.042-.724.394-.579.435s.91-.134.92,0-.466.217-.548.321a.987.987,0,0,1-.838.165c-.465-.062-.98-.093-.98-.093Z" transform="translate(-2787.213 -1323.206)"/><path class="x" d="M2506.9,1290.1l-.707.617s-1.256-.918-1.317-1.294v-.038a1.846,1.846,0,0,1,1.459-1.234.358.358,0,0,1,.18.045c.353.22.395,1.14.392,1.615C2506.906,1289.981,2506.9,1290.1,2506.9,1290.1Z" transform="translate(-2504.875 -1275.538)"/><path class="h" d="M2650.284,1559.182l-.332,1.369s-9.592-4.954-10.832-5.906c-.5-.382-1.157-2.458-1.767-4.807a6.369,6.369,0,0,0,4.818-1.229c-.157,1.9-.27,3.444.444,3.843,1.393.778,5.482,4.36,6.776,6.824Z" transform="translate(-2627.434 -1516.499)"/><path class="aa" d="M2800.928,1673.648l-.009,0a.6.6,0,0,1-.371-.39c-.086-.207-.112-.376-.191-.581l-.324-.559c-.339-.446-.458-.342-.458-.342s-.089.114-.219.263a2.733,2.733,0,0,1-.782.68.681.681,0,0,0-.335.262.641.641,0,0,0-.1.23s.7.121.635.464c-.118.663-.09.784-.078.806l0,0s1.186.621,1.565.743a2.959,2.959,0,0,1,1.247.885.391.391,0,0,0,.332.1c.178-.028.409-.085.459-.194Z" transform="translate(-2776.183 -1630.433)"/><path class="w" d="M2583.979,1567.336c.925,1.213,0,10.841,0,10.841l-1.053,1.085s-1.83-9.506-2.327-10.995a58.983,58.983,0,0,1-.845-6.521,11.517,11.517,0,0,0,4.778,1.128c-.224.933-.434,1.8-.565,2.523A3.02,3.02,0,0,0,2583.979,1567.336Z" transform="translate(-2574.147 -1528.652)"/><path class="aa" d="M2595.851,1778.36l-.568.307c-.207.073-.377.094-.586.174a1.213,1.213,0,0,0-.552.4c-.16.652-.388.61-.388.61l-2.282.021c-.108-.054.074-.514.162-.6.216-.213.862-.106,1.1-.774.133-.376.788-1.543.788-1.543l0,0c.022-.011.143-.036.8.1.341.071.482-.621.482-.621a.645.645,0,0,1,.227.107.682.682,0,0,1,.252.343,2.737,2.737,0,0,0,.657.8c.146.135.257.227.257.227S2596.306,1778.034,2595.851,1778.36Z" transform="translate(-2584.96 -1727.267)"/></g><g transform="translate(39.12 43.857)"><rect class="k" width="9.694" height="27.922" transform="translate(26.386 17.42)"/><rect class="l" width="25.61" height="27.922" transform="translate(0.776 17.42)"/><rect class="r" width="1.954" height="25.61" transform="translate(26.386 31.079) rotate(90)"/><rect class="g" width="1.954" height="9.694" transform="translate(36.08 31.079) rotate(90)"/><path class="w" d="M2119.906,1413.648s7.851-3.564,13.324-2.209l-1.093.731.551,1.291a26.915,26.915,0,0,0-12.94.4Z" transform="translate(-2100.448 -1396.657)"/><g transform="translate(2.093)"><path class="s" d="M1905.944,1281.8s-1.021-.123-2.542-.333c-4.039-.556-11.605-1.718-12.963-2.794-2.134-1.69,2.922-8.866,5.111-9.862S1905.944,1281.8,1905.944,1281.8Z" transform="translate(-1889.924 -1264.944)"/><path class="s" d="M2118.039,1225.731c.365,1.778-16.158,9.459-16.158,9.459s.3-.813.79-2.086v0c1.786-4.648,6.09-15.436,7.5-15.286a1.719,1.719,0,0,1,.494.147C2112.842,1218.918,2117.7,1224.094,2118.039,1225.731Z" transform="translate(-2086.012 -1217.814)"/><path class="c" d="M2120.3,1219.544c-1.009,1.753-7.752,13.377-7.858,13.559,1.786-4.648,6.09-15.436,7.5-15.286a.9.9,0,0,1,.494.147C2120.7,1218.151,2120.861,1218.576,2120.3,1219.544Z" transform="translate(-2095.786 -1217.814)"/><path class="c" d="M1908.078,1379.342h0c-4.039-.556-11.6-1.718-12.963-2.794-.613-1.727.978-1.868,2.136-1.99S1908.078,1379.342,1908.078,1379.342Z" transform="translate(-1894.598 -1362.821)"/><path class="ab" d="M2062.73,1422.728s.927-2.107,2.749-2.224c1.9-.122,2.985,2.224,2.985,2.224Z" transform="translate(-2049.792 -1405.325)"/></g><rect class="s" width="26.797" height="3.84" transform="translate(0 17.42)"/><rect class="c" width="10.1" height="3.84" transform="translate(26.797 17.42)"/><path class="w" d="M1919.126,1434.58s-5.248-1.663-8.79-.563c-4.082,1.267-3.84,6.3-3.84,6.3l.96-.395,1.3.608s.219-5.334,3.547-6.081A20.194,20.194,0,0,1,1919.126,1434.58Z" transform="translate(-1903.159 -1417.481)"/><rect class="r" width="1.954" height="28.162" transform="translate(11.32 17.42)"/></g><g transform="translate(0.804 36.839)"><path class="aa" d="M1453.208,1246.524s7.219,5.29,8.984,5.162,8.019-3.986,8.019-3.986l-1.323-1.573s-5.663,2.1-6.7,1.52-5.087-5.489-6.786-5.227S1452.023,1244.622,1453.208,1246.524Z" transform="translate(-1445.128 -1233.551)"/><g transform="translate(0 23.469)"><path class="aa" d="M1354.027,1774.113h-2.158a1.308,1.308,0,0,1-.59-.989c-.105-.7-.885-1.074-1.053-1.643s.7-1.369.7-1.369l.145-.186.15-.193,1.432.337s.036.341.057.776c.016.313.024.676.006.993-.042.758.212,1.575.885,1.722C1354.094,1773.671,1354.072,1773.966,1354.027,1774.113Z" transform="translate(-1350.204 -1744.861)"/><path class="aa" d="M1505.579,1797.05h-4.935c-.237-.29-.15-1.358-.114-1.707.007-.07.012-.111.012-.111s1.685-1.348,1.917-.316c.007.032.015.064.025.095.292.966,1.6,1.4,2.355,1.527A.855.855,0,0,1,1505.579,1797.05Z" transform="translate(-1489.232 -1767.798)"/><path class="t" d="M1467.629,1454.859s-.256,3.193-.557,7.03c-.409,5.213-.9,11.616-.949,12.829-.084,2.106-.421,5.476-.421,5.476a2.649,2.649,0,0,1-2.4.463,55.113,55.113,0,0,1-1.834-9.9l-.019-.251c-.379-5.181-.969-16.09-.969-16.09Z" transform="translate(-1452.224 -1453.154)"/><path class="e" d="M1467.629,1454.859s-.256,3.193-.557,7.03l-5.605,8.869-.019-.251c-.379-5.181-.969-16.09-.969-16.09Z" transform="translate(-1452.224 -1453.154)"/><path class="t" d="M1373.3,1439.626s-4.612,11.562-7.645,17-3.98,6.95-3.98,6.95-1.738-.695-1.9-1.169c0,0,1.16-10.49,3.191-13.047a19.222,19.222,0,0,0,2.559-7.3c.063-1.516.411-4.517.411-4.517Z" transform="translate(-1359.062 -1437.541)"/></g><path class="x" d="M1437.963,1191.5c-1.721.78-5-.371-5-.371a4.693,4.693,0,0,0,1.1-4l1.518.948,1.031.644a11.355,11.355,0,0,1,.042,1.242c0,.209-.008.443-.021.7A4.308,4.308,0,0,1,1437.963,1191.5Z" transform="translate(-1426.766 -1182.406)"/><path class="y" d="M1452.029,1200.428a11.34,11.34,0,0,1,.042,1.242c-1.063-.053-2.447-1.594-2.447-1.594a3.34,3.34,0,0,1,1.374-.292Z" transform="translate(-1442.179 -1194.115)"/><path class="x" d="M1440.052,1148.036s-2.9.847-3.4-.965-1.21-2.923.618-3.54,2.38-.026,2.694.539S1440.793,1147.769,1440.052,1148.036Z" transform="translate(-1429.661 -1141.831)"/><path class="w" d="M1432.052,1245.982a11.588,11.588,0,0,1,.112,1.376.29.29,0,0,1-.179.095,29.325,29.325,0,0,1-4.266.711,12.432,12.432,0,0,1-4.1-.666c-.186-.058-.618-.226-.632-.424-.02-.216-.037-.532-.057-.93a49.632,49.632,0,0,0-.679-6.463c-.09-.5-.165-1-.227-1.5-.458-3.686-.118-7.018,1.219-8.293a4.727,4.727,0,0,1,1.681.443,2.949,2.949,0,0,0,1.955,0l.684.472a6.219,6.219,0,0,1,2.308,2.858,35.014,35.014,0,0,1,1.274,5.664c.17,1.034.333,2.078.461,3.072l0,.036c.021.1.034.206.046.3.024.177.047.35.069.521C1431.861,1244.32,1431.974,1245.266,1432.052,1245.982Z" transform="translate(-1416.466 -1221.945)"/><path class="w" d="M1430.388,1129.14s.3-.087.2-.5-.164-.958.188-.9.4.331.522.155.042-.845,1.047-1.013,1.458.134,1.9-.129.384-.978.384-.978a.815.815,0,0,1-.3.375s.655-1.167-.342-1.793-1.864-.033-2.385.062c-1.149.21-1.888.369-2.175,1.175A4.207,4.207,0,0,0,1430.388,1129.14Z" transform="translate(-1423.417 -1124.078)"/><path class="aa" d="M1458.953,1339.747a6.614,6.614,0,0,1-4.291-.636c-1.729-1.139-3.755-7.891-3.755-7.891s3.883,4.319,3.959,4.489a35.814,35.814,0,0,0,3.757,1.315C1458.762,1338.085,1458.875,1339.031,1458.953,1339.747Z" transform="translate(-1443.367 -1315.71)"/><g transform="translate(12.402 2.366)"><g transform="translate(0 0)"><rect class="l" width="19.213" height="19.213" transform="translate(4.1 0.273) rotate(-0.815)"/><rect class="ac" width="19.213" height="19.213" transform="translate(0 0.332) rotate(-0.815)"/></g><g transform="translate(2.517 2.907)"><path class="m" d="M1549.474,1197.833a3.118,3.118,0,1,1,3.142,3.235A3.121,3.121,0,0,1,1549.474,1197.833Zm10.6-3.283,2.18-.031-9.177,12.954-2.18.031Zm-6.293,3.222c-.012-.861-.5-1.6-1.232-1.595-.769.011-1.162.749-1.149,1.629.012.861.5,1.6,1.232,1.595C1553.4,1199.389,1553.791,1198.632,1553.779,1197.771Zm3.665,6.506a3.118,3.118,0,1,1,3.142,3.235A3.121,3.121,0,0,1,1557.443,1204.278Zm4.3-.061c-.012-.861-.5-1.6-1.232-1.594-.769.011-1.162.749-1.149,1.629.012.861.5,1.6,1.232,1.595C1561.368,1205.834,1561.76,1205.078,1561.748,1204.217Z" transform="translate(-1549.474 -1194.509)"/></g></g><path class="x" d="M1615.1,1398.207a5.132,5.132,0,0,1-1.747-.423,3.026,3.026,0,0,1-.68-.442l.068-.427.082-.51s.05-.008.133-.017.2-.018.332-.02a.433.433,0,0,0,.39-.093.922.922,0,0,1,.747-.206c.246.059.774,0,.791.09.041.208-.728.17-.818.3a.154.154,0,0,0,.008.212l0,0c.451.455,2,.619,1.94.98A2.72,2.72,0,0,1,1615.1,1398.207Z" transform="translate(-1593.019 -1375.691)"/><path class="w" d="M1435.1,1264.077s3.553,8.214,5.141,9,8.833.174,8.833.174l.048-1.4s-6.241-1.236-6.843-2.259-1.614-7.307-3.213-7.941S1435.036,1261.837,1435.1,1264.077Z" transform="translate(-1428.739 -1251.155)"/></g><g transform="translate(123.114 59.915)"><path class="s" d="M2993.524,1444.122q-.118.072-.24.139l-.083.045q-.094.05-.189.1a6.383,6.383,0,0,1-5.891-11.321q.122-.068.247-.129c.08-.04.162-.078.243-.115a6.366,6.366,0,0,1,1.916-.515,6.384,6.384,0,0,1,4,11.8Z" transform="translate(-2983.819 -1432.288)"/><g transform="translate(0.602 0.634)"><path class="c" d="M2997.688,1452.383a5.819,5.819,0,1,1,2.8-.724A5.821,5.821,0,0,1,2997.688,1452.383Zm-.01-11.286a5.47,5.47,0,1,0,4.794,2.83A5.475,5.475,0,0,0,2997.677,1441.1Z" transform="translate(-2991.864 -1440.75)"/></g><path class="c" d="M3018.29,1461.245l1.282,2.6,2.868.417-2.075,2.023.49,2.856-2.565-1.348-2.565,1.348.49-2.856-2.075-2.023,2.868-.417Z" transform="translate(-3011.869 -1459.077)"/></g><g transform="translate(131.167 49.537)"><path class="s" d="M3096.848,1300.359c-.044.027-.089.053-.135.079l-.047.025-.106.055a3.6,3.6,0,0,1-3.692-6.157,3.561,3.561,0,0,1,.368-.232c.046-.026.093-.05.139-.073s.091-.044.138-.065a3.588,3.588,0,0,1,1.081-.291,3.6,3.6,0,0,1,2.255,6.659Z" transform="translate(-3091.371 -1293.68)"/><g transform="translate(0.34 0.358)"><path class="c" d="M3099.2,1305.021a3.283,3.283,0,1,1,1.582-.408A3.284,3.284,0,0,1,3099.2,1305.021Zm-.006-6.37a3.087,3.087,0,1,0,2.706,1.6A3.091,3.091,0,0,0,3099.191,1298.652Z" transform="translate(-3095.911 -1298.456)"/></g><path class="c" d="M3110.825,1310.023l.724,1.467,1.619.235-1.171,1.142.276,1.612-1.448-.761-1.448.761.277-1.612-1.171-1.142,1.619-.235Z" transform="translate(-3107.201 -1308.8)"/></g><g transform="translate(69.735 4.829)"><path class="u" d="M2276,701.25q-.04.048-.081.1l-.029.031-.066.07a2.886,2.886,0,0,1-4.215-3.941q.042-.047.086-.092t.086-.085a2.872,2.872,0,0,1,.282-.235,2.83,2.83,0,0,1,.458-.273,2.886,2.886,0,0,1,3.479,4.43Z" transform="translate(-2270.876 -696.54)"/><g transform="translate(0.282 0.279)"><path class="e" d="M2277.267,705.526a2.635,2.635,0,1,1,.155,0C2277.37,705.525,2277.318,705.526,2277.267,705.526Zm.007-5.1q-.073,0-.146,0a2.471,2.471,0,1,0,.146,0Z" transform="translate(-2274.641 -700.267)"/></g><path class="e" d="M2284.9,711l.938.915,1.285-.254-.581,1.175.639,1.144-1.3-.189-.891.961-.221-1.292-1.189-.55,1.16-.609Z" transform="translate(-2282.63 -709.92)"/></g><g transform="translate(57.27 78.819)"><path class="u" d="M2113.535,1693.2q-.07.087-.145.171l-.051.056c-.039.042-.078.084-.118.125a5.155,5.155,0,0,1-7.529-7.039c.05-.056.1-.111.154-.165s.1-.1.155-.153a5.13,5.13,0,0,1,1.321-.907,5.156,5.156,0,0,1,6.214,7.912Z" transform="translate(-2104.386 -1684.783)"/><g transform="translate(0.504 0.498)"><path class="e" d="M2115.8,1700.833a4.706,4.706,0,1,1,.277-.008Q2115.94,1700.833,2115.8,1700.833Zm.012-9.113c-.086,0-.173,0-.26.007a4.411,4.411,0,1,0,.26-.007Z" transform="translate(-2111.111 -1691.44)"/></g><path class="e" d="M2129.43,1710.616l1.675,1.635,2.3-.453-1.037,2.1,1.14,2.043-2.316-.338-1.591,1.716-.394-2.307-2.124-.983,2.072-1.088Z" transform="translate(-2125.381 -1708.682)"/></g><g transform="translate(79.401 51.811)"><path class="d" d="M2403.142,1350.39a2.563,2.563,0,0,1-1.508.407,2.319,2.319,0,0,1-1.192-.641l-.469.816a3.361,3.361,0,0,0,1.994.473,2.339,2.339,0,0,0,.946-.545A.8.8,0,0,0,2403.142,1350.39Z" transform="translate(-2399.973 -1348.2)"/><path class="w" d="M2429.58,1324.534l1.18-.489s-.162,2.452-2.188,3.2C2428.571,1327.247,2429.851,1325.568,2429.58,1324.534Z" transform="translate(-2426.43 -1324.045)"/></g><path class="f" d="M2549.953,1722.082a1.692,1.692,0,0,0,1.022.572s.068.638-.115.808c0,0-.867-.159-1.076-.476C2549.782,1722.987,2549.607,1722.225,2549.953,1722.082Z" transform="translate(-2459.124 -1640.47)"/><g transform="translate(81.704 70.953)"><path class="ad" d="M2431.767,1582.356a2.176,2.176,0,0,1-.46-1.244,1.97,1.97,0,0,1,.451-1.058l-.727-.334a2.852,2.852,0,0,0-.246,1.723,1.98,1.98,0,0,0,.533.758A.678.678,0,0,0,2431.767,1582.356Z" transform="translate(-2430.725 -1579.72)"/><path class="ad" d="M2434.523,1604.994l.5.96a3.258,3.258,0,0,1-2.876-1.6S2433.669,1605.3,2434.523,1604.994Z" transform="translate(-2432.044 -1602.506)"/></g></g></g></g><path class="a" d="M-925.581,24h0a12,12,0,0,0-12-12h0a12,12,0,0,0,12-12h0a12,12,0,0,0,12,12h0A12,12,0,0,0-925.581,24Z" transform="translate(1897.581 135.697)"/><path class="a" d="M-929.581,16h0a8,8,0,0,0-8-8h0a8,8,0,0,0,8-8h0a8,8,0,0,0,8,8h0A8,8,0,0,0-929.581,16Z" transform="translate(1769.581 175.379)"/><path class="a" d="M-925.581,24h0a12,12,0,0,0-12-12h0a12,12,0,0,0,12-12h0a12,12,0,0,0,12,12h0A12,12,0,0,0-925.581,24Z" transform="translate(1857.581 191.106)"/><path class="a" d="M-415.258-474.323h0a16,16,0,0,0-16-16h0a16,16,0,0,0,16-16h0a16,16,0,0,0,16,16h0A16,16,0,0,0-415.258-474.323Z" transform="translate(1423.258 665.751)"/><path class="a" d="M-643.338,717.7h0a8,8,0,0,0-8-8h0a8,8,0,0,0,8-8h0a8,8,0,0,0,8,8h0A8,8,0,0,0-643.338,717.7Z" transform="translate(1531.338 -565.98)"/></g></svg>