<svg xmlns="http://www.w3.org/2000/svg" width="32" height="36.571" viewBox="0 0 32 36.571">
  <path id="shield-fill-check" d="M17,0a31.116,31.116,0,0,0-6.693,1.28c-2.537.686-5.095,1.5-6.6,1.989A3.52,3.52,0,0,0,1.322,6.153C-.04,16.386,3.121,23.97,6.957,28.987a26.919,26.919,0,0,0,5.753,5.607,16.2,16.2,0,0,0,2.4,1.429A4.848,4.848,0,0,0,17,36.571a4.859,4.859,0,0,0,1.895-.549,16.363,16.363,0,0,0,2.4-1.429,26.914,26.914,0,0,0,5.753-5.607c3.835-5.017,7-12.6,5.634-22.834a3.522,3.522,0,0,0-2.386-2.887q-3.275-1.074-6.6-1.989A31.377,31.377,0,0,0,17,0Zm4.905,11.762a1.144,1.144,0,0,1,1.618,1.618l-6.857,6.857a1.143,1.143,0,0,1-1.618,0l-3.429-3.429a1.144,1.144,0,0,1,1.618-1.618l2.619,2.622Z" transform="translate(-1)" fill="#5b5b5b"/>
</svg>
