<svg xmlns="http://www.w3.org/2000/svg" width="0" height="0">
    <defs>
        <symbol id="gear" viewBox="0 0 16 16">
            <path d="M8 4.754a3.246 3.246 0 1 0 0 6.492 3.246 3.246 0 0 0 0-6.492zM5.754 8a2.246 2.246 0 1 1 4.492 0 2.246 2.246 0 0 1-4.492 0z"/>
            <path d="M9.796 1.343c-.527-1.79-3.065-1.79-3.592 0l-.094.319a.873.873 0 0 1-1.255.52l-.292-.16c-1.64-.892-3.433.902-2.54 2.541l.159.292a.873.873 0 0 1-.52 1.255l-.319.094c-1.79.527-1.79 3.065 0 3.592l.319.094a.873.873 0 0 1 .52 1.255l-.16.292c-.892 1.64.901 3.434 2.541 2.54l.292-.159a.873.873 0 0 1 1.255.52l.094.319c.527 1.79 3.065 1.79 3.592 0l.094-.319a.873.873 0 0 1 1.255-.52l.292.16c1.64.893 3.434-.902 2.54-2.541l-.159-.292a.873.873 0 0 1 .52-1.255l.319-.094c1.79-.527 1.79-3.065 0-3.592l-.319-.094a.873.873 0 0 1-.52-1.255l.16-.292c.893-1.64-.902-3.433-2.541-2.54l-.292.159a.873.873 0 0 1-1.255-.52l-.094-.319zm-2.633.283c.246-.835 1.428-.835 1.674 0l.094.319a1.873 1.873 0 0 0 2.693 1.115l.291-.16c.764-.415 1.6.42 1.184 1.185l-.159.292a1.873 1.873 0 0 0 1.116 2.692l.318.094c.835.246.835 1.428 0 1.674l-.319.094a1.873 1.873 0 0 0-1.115 2.693l.16.291c.415.764-.42 1.6-1.185 1.184l-.291-.159a1.873 1.873 0 0 0-2.693 1.116l-.094.318c-.246.835-1.428.835-1.674 0l-.094-.319a1.873 1.873 0 0 0-2.692-1.115l-.292.16c-.764.415-1.6-.42-1.184-1.185l.159-.291A1.873 1.873 0 0 0 1.945 8.93l-.319-.094c-.835-.246-.835-1.428 0-1.674l.319-.094A1.873 1.873 0 0 0 3.06 4.377l-.16-.292c-.415-.764.42-1.6 1.185-1.184l.292.159a1.873 1.873 0 0 0 2.692-1.115l.094-.319z"/>
        </symbol>
        <symbol id="clock"  viewBox="0 0 23.175 23.206">
            <defs>
                <clipPath id="clip-path">
                    <rect id="Rectangle_5" data-name="Rectangle 5" width="23.175" height="23.206" fill="none"/>
                </clipPath>
            </defs>
            <g id="Group_8" data-name="Group 8" clip-path="url(#clip-path)">
                <path id="Path_61" data-name="Path 61" d="M10.643,3.7c0-.858,0-1.715,0-2.573C10.65.336,10.988,0,11.761,0A11.582,11.582,0,1,1,3.1,3.68a2.563,2.563,0,0,1,.419-.394.9.9,0,0,1,1.193.122A.878.878,0,0,1,4.81,4.562a5.111,5.111,0,0,1-.413.474,9.416,9.416,0,0,0-1.942,9.833,9.3,9.3,0,0,0,7.759,6.342A9.73,9.73,0,0,0,13.033,1.956c-.371-.06-.528-.013-.518.424.029,1.295.013,2.59.009,3.886,0,.728-.346,1.141-.938,1.142S10.648,7,10.644,6.271c0-.858,0-1.715,0-2.573" transform="translate(0 0)"/>
                <path id="Path_62" data-name="Path 62" d="M64.69,62.785a1.918,1.918,0,0,1-1.234,1.82,1.766,1.766,0,0,1-2.035-.555c-1.338-1.75-2.66-3.512-3.98-5.276a.927.927,0,0,1,1.309-1.3q2.624,1.964,5.237,3.944a1.772,1.772,0,0,1,.7,1.366" transform="translate(-51.216 -51.243)"/>
            </g>
        </symbol>
        <symbol id="admin" viewBox="0 0 38 38">
            <g id="Group_11" data-name="Group 11" transform="translate(-1791 -965)">
                <g id="Rectangle_7" data-name="Rectangle 7" transform="translate(1791 965)" fill="none" stroke="#000" stroke-width="1">
                    <rect width="38" height="38" rx="4" stroke="none"/>
                    <rect x="0.5" y="0.5" width="37" height="37" rx="3.5" fill="none"/>
                </g>
                <g id="Ellipse_10" data-name="Ellipse 10" transform="translate(1799 972)" fill="#fff" stroke="#000" stroke-width="1">
                    <circle cx="2.5" cy="2.5" r="2.5" stroke="none"/>
                    <circle cx="2.5" cy="2.5" r="2" fill="none"/>
                </g>
                <rect id="Rectangle_11" data-name="Rectangle 11" width="4" height="1" rx="0.5" transform="translate(1796 974)"/>
                <rect id="Rectangle_12" data-name="Rectangle 12" width="21" height="1" rx="0.5" transform="translate(1803 974)"/>
                <g id="Ellipse_10-2" data-name="Ellipse 10" transform="translate(1813 981)" fill="none" stroke="#000" stroke-width="1">
                    <circle cx="2.5" cy="2.5" r="2.5" stroke="none"/>
                    <circle cx="2.5" cy="2.5" r="2" fill="none"/>
                </g>
                <rect id="Rectangle_11-2" data-name="Rectangle 11" width="18" height="1" rx="0.5" transform="translate(1796 983)"/>
                <rect id="Rectangle_12-2" data-name="Rectangle 12" width="7" height="1" rx="0.5" transform="translate(1817 983)"/>
                <g id="Ellipse_10-3" data-name="Ellipse 10" transform="translate(1804 991)" fill="none" stroke="#000" stroke-width="1">
                    <circle cx="2.5" cy="2.5" r="2.5" stroke="none"/>
                    <circle cx="2.5" cy="2.5" r="2" fill="none"/>
                </g>
                <rect id="Rectangle_11-3" data-name="Rectangle 11" width="9" height="1" rx="0.5" transform="translate(1796 993)"/>
                <rect id="Rectangle_12-3" data-name="Rectangle 12" width="16" height="1" rx="0.5" transform="translate(1808 993)"/>
            </g>
        </symbol>
        <symbol id="marketplace" viewBox="0 0 41 42">
            <defs>
                <clipPath id="clip-path">
                    <rect id="Rectangle_23" data-name="Rectangle 23" width="41" height="42" transform="translate(-0.418)" fill="none"/>
                </clipPath>
                <clipPath id="clip-path-3">
                    <rect id="Rectangle_33" data-name="Rectangle 33" width="32.201" height="21.239" transform="translate(0 0)" fill="none"/>
                </clipPath>
            </defs>
            <g id="Group_55" data-name="Group 55" transform="translate(-1830.582 -1061)">
                <g id="Group_34" data-name="Group 34" transform="translate(1831 1061)">
                    <g id="Group_33" data-name="Group 33" clip-path="url(#clip-path)">
                        <path id="Path_68" data-name="Path 68" d="M7.156,18.784a4.825,4.825,0,0,1-3.162-1.1h0c-.013,0-4.866-2.856-1.982-8.6L4.966,2.444A2.06,2.06,0,0,1,7.188,1.117h26.6a1.9,1.9,0,0,1,1.939,1.177l3.185,7.07a6.34,6.34,0,0,1-2.628,8.648c-.1.074-3.141,2.111-7.327-.758a6.78,6.78,0,0,1-8.568-.041,7.161,7.161,0,0,1-8.586.1,9.6,9.6,0,0,1-4.647,1.472m13.23-2.8.314.264a5.868,5.868,0,0,0,7.919.066l.285-.261.313.227c3.772,2.763,6.446,1.012,6.558.936a5.37,5.37,0,0,0,2.293-7.429L34.852,2.646c-.226-.622-1-.586-1.034-.587H7.153a1.155,1.155,0,0,0-1.3.71L2.866,9.487C.371,14.454,4.359,16.81,4.529,16.908c2.8,2.309,6.981-.527,7.023-.555l.281-.193.272.2a6.218,6.218,0,0,0,7.976-.1Z" transform="translate(-0.062 -0.062)"/>
                    </g>
                </g>
                <g id="Group_43" data-name="Group 43" transform="translate(1832 1061.944)">
                    <g id="Group_56" data-name="Group 56">
                        <path id="Path_70" data-name="Path 70" d="M26.977,39.093H15.337V25.232a1.755,1.755,0,0,1,.337-1.338,1.7,1.7,0,0,1,1.394-.566h7.9a1.847,1.847,0,0,1,1.4.372,1.894,1.894,0,0,1,.611,1.533Zm-10.7-.944h9.753V25.232a.809.809,0,0,0-.986-.968l-7.98.008a.831.831,0,0,0-.665.222.939.939,0,0,0-.13.649Z" transform="translate(-0.861 -1.311)" fill="#020202"/>
                    </g>
                </g>
                <g id="Group_52" data-name="Group 52" transform="translate(1831 1061)">
                    <g id="Group_51" data-name="Group 51" clip-path="url(#clip-path)">
                        <rect id="Rectangle_31" data-name="Rectangle 31" width="36.528" height="0.944" transform="translate(2.075 9.413)" fill="#020202"/>
                    </g>
                </g>
                <g id="Group_54" data-name="Group 54" transform="translate(1834.775 1078.532)">
                    <g id="Group_53" data-name="Group 53" transform="translate(1 0)" clip-path="url(#clip-path-3)">
                        <path id="Path_72" data-name="Path 72" d="M.508,0V16.99S.14,20.756,4.545,20.756H27.982s3.775.579,3.775-4.022V0" transform="translate(-0.028 0)" fill="none" stroke="#020202" stroke-width="1"/>
                    </g>
                </g>
            </g>
        </symbol>
        <symbol id="mobile" viewBox="0 0 22 38">
            <g id="Group_59" data-name="Group 59" transform="translate(-1775 -1100)">
                <g id="Rectangle_35" data-name="Rectangle 35" transform="translate(1775 1100)" fill="#fff" stroke="#000" stroke-width="1">
                    <rect width="22" height="38" rx="4" stroke="none"/>
                    <rect x="0.5" y="0.5" width="21" height="37" rx="3.5" fill="none"/>
                </g>
                <path id="Path_73" data-name="Path 73" d="M2057.07-3352.155h20.24" transform="translate(-281.264 4459)" fill="none" stroke="#000" stroke-width="1"/>
                <path id="Path_74" data-name="Path 74" d="M2066-3327.677h-21.2" transform="translate(-269 4459)" fill="none" stroke="#000" stroke-width="1"/>
                <circle id="Ellipse_11" data-name="Ellipse 11" cx="1.5" cy="1.5" r="1.5" transform="translate(1784 1133)"/>
                <path id="Path_75" data-name="Path 75" d="M2066.346-3355.393h-4.7" transform="translate(-278.147 4459)" fill="none" stroke="#000" stroke-width="1"/>
            </g>
        </symbol>
    </defs>
</svg>