<svg xmlns="http://www.w3.org/2000/svg" width="0" height="0">
    <defs>
        <symbol id="magnifying" viewBox="0 0 16 16">
            <path d="M11.742 10.344a6.5 6.5 0 1 0-1.397 1.398h-.001c.03.04.062.078.098.115l3.85 3.85a1 1 0 0 0 1.415-1.414l-3.85-3.85a1.007 1.007 0 0 0-.115-.1zM12 6.5a5.5 5.5 0 1 1-11 0 5.5 5.5 0 0 1 11 0z"/>
        </symbol>
        <symbol id="mbl-menu" viewBox="0 0 16 16">
            <path fill-rule="evenodd" d="M2.5 12a.5.5 0 0 1 .5-.5h10a.5.5 0 0 1 0 1H3a.5.5 0 0 1-.5-.5zm0-4a.5.5 0 0 1 .5-.5h10a.5.5 0 0 1 0 1H3a.5.5 0 0 1-.5-.5zm0-4a.5.5 0 0 1 .5-.5h10a.5.5 0 0 1 0 1H3a.5.5 0 0 1-.5-.5z"/>
        </symbol>
        <symbol id="location"  viewBox="0 0 16 16">
            <path d="M12.166 8.94c-.524 1.062-1.234 2.12-1.96 3.07A31.493 31.493 0 0 1 8 14.58a31.481 31.481 0 0 1-2.206-2.57c-.726-.95-1.436-2.008-1.96-3.07C3.304 7.867 3 6.862 3 6a5 5 0 0 1 10 0c0 .862-.305 1.867-.834 2.94zM8 16s6-5.686 6-10A6 6 0 0 0 2 6c0 4.314 6 10 6 10z"/>
            <path d="M8 8a2 2 0 1 1 0-4 2 2 0 0 1 0 4zm0 1a3 3 0 1 0 0-6 3 3 0 0 0 0 6z"/>
        </symbol>
        <symbol id="gps"  viewBox="0 0 24 24">
            <path d="M0 0h24v24H0V0z" fill="none"/>
            <path d="M12 8c-2.21 0-4 1.79-4 4s1.79 4 4 4 4-1.79 4-4-1.79-4-4-4zm8.94 3c-.46-4.17-3.77-7.48-7.94-7.94V1h-2v2.06C6.83 3.52 3.52 6.83 3.06 11H1v2h2.06c.46 4.17 3.77 7.48 7.94 7.94V23h2v-2.06c4.17-.46 7.48-3.77 7.94-7.94H23v-2h-2.06zM12 19c-3.87 0-7-3.13-7-7s3.13-7 7-7 7 3.13 7 7-3.13 7-7 7z"/>
        </symbol>
        <symbol id="wishlist" viewBox="0 0 16 16">
            <path d="m8 2.748-.717-.737C5.6.281 2.514.878 1.4 3.053c-.523 1.023-.641 2.5.314 4.385.92 1.815 2.834 3.989 6.286 6.357 3.452-2.368 5.365-4.542 6.286-6.357.955-1.886.838-3.362.314-4.385C13.486.878 10.4.28 8.717 2.01L8 2.748zM8 15C-7.333 4.868 3.279-3.04 7.824 1.143c.06.055.119.112.176.171a3.12 3.12 0 0 1 .176-.17C12.72-3.042 23.333 4.867 8 15z"/>
        </symbol>
        <symbol id="store"  viewBox="0 0 16 16">
            <path d="M2.97 1.35A1 1 0 0 1 3.73 1h8.54a1 1 0 0 1 .76.35l2.609 3.044A1.5 1.5 0 0 1 16 5.37v.255a2.375 2.375 0 0 1-4.25 1.458A2.371 2.371 0 0 1 9.875 8 2.37 2.37 0 0 1 8 7.083 2.37 2.37 0 0 1 6.125 8a2.37 2.37 0 0 1-1.875-.917A2.375 2.375 0 0 1 0 5.625V5.37a1.5 1.5 0 0 1 .361-.976l2.61-3.045zm1.78 4.275a1.375 1.375 0 0 0 2.75 0 .5.5 0 0 1 1 0 1.375 1.375 0 0 0 2.75 0 .5.5 0 0 1 1 0 1.375 1.375 0 1 0 2.75 0V5.37a.5.5 0 0 0-.12-.325L12.27 2H3.73L1.12 5.045A.5.5 0 0 0 1 5.37v.255a1.375 1.375 0 0 0 2.75 0 .5.5 0 0 1 1 0zM1.5 8.5A.5.5 0 0 1 2 9v6h12V9a.5.5 0 0 1 1 0v6h.5a.5.5 0 0 1 0 1H.5a.5.5 0 0 1 0-1H1V9a.5.5 0 0 1 .5-.5zm2 .5a.5.5 0 0 1 .5.5V13h8V9.5a.5.5 0 0 1 1 0V13a1 1 0 0 1-1 1H4a1 1 0 0 1-1-1V9.5a.5.5 0 0 1 .5-.5z"/>
        </symbol>
        <symbol id="login" viewBox="0 0 16 16">
            <path d="M11 6a3 3 0 1 1-6 0 3 3 0 0 1 6 0z"/>
            <path fill-rule="evenodd" d="M0 8a8 8 0 1 1 16 0A8 8 0 0 1 0 8zm8-7a7 7 0 0 0-5.468 11.37C3.242 11.226 4.805 10 8 10s4.757 1.225 5.468 2.37A7 7 0 0 0 8 1z"/>
        </symbol>
        <symbol id="cart" viewBox="0 0 16 16">
            <path d="M8 1a2.5 2.5 0 0 1 2.5 2.5V4h-5v-.5A2.5 2.5 0 0 1 8 1zm3.5 3v-.5a3.5 3.5 0 1 0-7 0V4H1v10a2 2 0 0 0 2 2h10a2 2 0 0 0 2-2V4h-3.5zM2 5h12v9a1 1 0 0 1-1 1H3a1 1 0 0 1-1-1V5z"/>
        </symbol>
        <symbol id="logout" viewBox="0 0 16 16">
            <path d="M7.5 1v7h1V1h-1z"/>
            <path d="M3 8.812a4.999 4.999 0 0 1 2.578-4.375l-.485-.874A6 6 0 1 0 11 3.616l-.501.865A5 5 0 1 1 3 8.812z"/>
        </symbol>
        <symbol id="mbl-home" viewBox="0 0 16 16">
            <path fill-rule="evenodd" d="M2 13.5V7h1v6.5a.5.5 0 0 0 .5.5h9a.5.5 0 0 0 .5-.5V7h1v6.5a1.5 1.5 0 0 1-1.5 1.5h-9A1.5 1.5 0 0 1 2 13.5zm11-11V6l-2-2V2.5a.5.5 0 0 1 .5-.5h1a.5.5 0 0 1 .5.5z"/>
            <path fill-rule="evenodd" d="M7.293 1.5a1 1 0 0 1 1.414 0l6.647 6.646a.5.5 0 0 1-.708.708L8 2.207 1.354 8.854a.5.5 0 1 1-.708-.708L7.293 1.5z"/>
        </symbol>
        <symbol id="mbl-category" viewBox="0 0 16 16">
            <path d="M1 2.5A1.5 1.5 0 0 1 2.5 1h3A1.5 1.5 0 0 1 7 2.5v3A1.5 1.5 0 0 1 5.5 7h-3A1.5 1.5 0 0 1 1 5.5v-3zM2.5 2a.5.5 0 0 0-.5.5v3a.5.5 0 0 0 .5.5h3a.5.5 0 0 0 .5-.5v-3a.5.5 0 0 0-.5-.5h-3zm6.5.5A1.5 1.5 0 0 1 10.5 1h3A1.5 1.5 0 0 1 15 2.5v3A1.5 1.5 0 0 1 13.5 7h-3A1.5 1.5 0 0 1 9 5.5v-3zm1.5-.5a.5.5 0 0 0-.5.5v3a.5.5 0 0 0 .5.5h3a.5.5 0 0 0 .5-.5v-3a.5.5 0 0 0-.5-.5h-3zM1 10.5A1.5 1.5 0 0 1 2.5 9h3A1.5 1.5 0 0 1 7 10.5v3A1.5 1.5 0 0 1 5.5 15h-3A1.5 1.5 0 0 1 1 13.5v-3zm1.5-.5a.5.5 0 0 0-.5.5v3a.5.5 0 0 0 .5.5h3a.5.5 0 0 0 .5-.5v-3a.5.5 0 0 0-.5-.5h-3zm6.5.5A1.5 1.5 0 0 1 10.5 9h3a1.5 1.5 0 0 1 1.5 1.5v3a1.5 1.5 0 0 1-1.5 1.5h-3A1.5 1.5 0 0 1 9 13.5v-3zm1.5-.5a.5.5 0 0 0-.5.5v3a.5.5 0 0 0 .5.5h3a.5.5 0 0 0 .5-.5v-3a.5.5 0 0 0-.5-.5h-3z"/>
        </symbol>
        <symbol id="mbl-wishlist" viewBox="0 0 16 16">
            <path d="m8 2.748-.717-.737C5.6.281 2.514.878 1.4 3.053c-.523 1.023-.641 2.5.314 4.385.92 1.815 2.834 3.989 6.286 6.357 3.452-2.368 5.365-4.542 6.286-6.357.955-1.886.838-3.362.314-4.385C13.486.878 10.4.28 8.717 2.01L8 2.748zM8 15C-7.333 4.868 3.279-3.04 7.824 1.143c.06.055.119.112.176.171a3.12 3.12 0 0 1 .176-.17C12.72-3.042 23.333 4.867 8 15z"/>
        </symbol>
        <symbol id="mbl-account" viewBox="0 0 16 16">
            <path d="M11 6a3 3 0 1 1-6 0 3 3 0 0 1 6 0z"/>
            <path fill-rule="evenodd" d="M0 8a8 8 0 1 1 16 0A8 8 0 0 1 0 8zm8-7a7 7 0 0 0-5.468 11.37C3.242 11.226 4.805 10 8 10s4.757 1.225 5.468 2.37A7 7 0 0 0 8 1z"/>
        </symbol>
        <symbol id="mbl-location" viewBox="0 0 16 16">
            <path d="M12.166 8.94c-.524 1.062-1.234 2.12-1.96 3.07A31.493 31.493 0 0 1 8 14.58a31.481 31.481 0 0 1-2.206-2.57c-.726-.95-1.436-2.008-1.96-3.07C3.304 7.867 3 6.862 3 6a5 5 0 0 1 10 0c0 .862-.305 1.867-.834 2.94zM8 16s6-5.686 6-10A6 6 0 0 0 2 6c0 4.314 6 10 6 10z"/>
            <path d="M8 8a2 2 0 1 1 0-4 2 2 0 0 1 0 4zm0 1a3 3 0 1 0 0-6 3 3 0 0 0 0 6z"/>
        </symbol>
        <symbol id="hamburger-menu" viewBox="0 0 24 24">
            <path fill="none" d="M0 0h24v24H0z"/>
            <path d="M3 4h18v2H3V4zm0 7h18v2H3v-2zm0 7h18v2H3v-2z"/>
        </symbol>
        <symbol id="test" viewBox="0 0 16 16">
            <path d="M51.6,96.7c11,0,21-3.9,28.8-10.5l35,35c0.8,0.8,1.8,1.2,2.9,1.2s2.1-0.4,2.9-1.2c1.6-1.6,1.6-4.2,0-5.8l-35-35   c6.5-7.8,10.5-17.9,10.5-28.8c0-24.9-20.2-45.1-45.1-45.1C26.8,6.5,6.5,26.8,6.5,51.6C6.5,76.5,26.8,96.7,51.6,96.7z M51.6,14.7   c20.4,0,36.9,16.6,36.9,36.9C88.5,72,72,88.5,51.6,88.5c-20.4,0-36.9-16.6-36.9-36.9C14.7,31.3,31.3,14.7,51.6,14.7z" />
        </symbol>
    </defs>
</svg>