<svg xmlns="http://www.w3.org/2000/svg" width="0" height="0">
    <defs>
        <symbol id="location" viewBox="0 0 16 16">
            <path fill-rule="evenodd" d="M8 1a3 3 0 1 0 0 6 3 3 0 0 0 0-6zM4 4a4 4 0 1 1 4.5 3.969V13.5a.5.5 0 0 1-1 0V7.97A4 4 0 0 1 4 3.999zm2.493 8.574a.5.5 0 0 1-.411.575c-.712.118-1.28.295-1.655.493a1.319 1.319 0 0 0-.37.265.301.301 0 0 0-.057.09V14l.002.008a.147.147 0 0 0 .016.033.617.617 0 0 0 .145.15c.165.13.435.27.813.395.751.25 1.82.414 3.024.414s2.273-.163 3.024-.414c.378-.126.648-.265.813-.395a.619.619 0 0 0 .146-.15.148.148 0 0 0 .015-.033L12 14v-.004a.301.301 0 0 0-.057-.09 1.318 1.318 0 0 0-.37-.264c-.376-.198-.943-.375-1.655-.493a.5.5 0 1 1 .164-.986c.77.127 1.452.328 1.957.594C12.5 13 13 13.4 13 14c0 .426-.26.752-.544.977-.29.228-.68.413-1.116.558-.878.293-2.059.465-3.34.465-1.281 0-2.462-.172-3.34-.465-.436-.145-.826-.33-1.116-.558C3.26 14.752 3 14.426 3 14c0-.599.5-1 .961-1.243.505-.266 1.187-.467 1.957-.594a.5.5 0 0 1 .575.411z"/>
        </symbol>
    </defs>
    <defs>
        <symbol id="store"  viewBox="0 0 16 16">
            <path d="M2.97 1.35A1 1 0 0 1 3.73 1h8.54a1 1 0 0 1 .76.35l2.609 3.044A1.5 1.5 0 0 1 16 5.37v.255a2.375 2.375 0 0 1-4.25 1.458A2.371 2.371 0 0 1 9.875 8 2.37 2.37 0 0 1 8 7.083 2.37 2.37 0 0 1 6.125 8a2.37 2.37 0 0 1-1.875-.917A2.375 2.375 0 0 1 0 5.625V5.37a1.5 1.5 0 0 1 .361-.976l2.61-3.045zm1.78 4.275a1.375 1.375 0 0 0 2.75 0 .5.5 0 0 1 1 0 1.375 1.375 0 0 0 2.75 0 .5.5 0 0 1 1 0 1.375 1.375 0 1 0 2.75 0V5.37a.5.5 0 0 0-.12-.325L12.27 2H3.73L1.12 5.045A.5.5 0 0 0 1 5.37v.255a1.375 1.375 0 0 0 2.75 0 .5.5 0 0 1 1 0zM1.5 8.5A.5.5 0 0 1 2 9v6h12V9a.5.5 0 0 1 1 0v6h.5a.5.5 0 0 1 0 1H.5a.5.5 0 0 1 0-1H1V9a.5.5 0 0 1 .5-.5zm2 .5a.5.5 0 0 1 .5.5V13h8V9.5a.5.5 0 0 1 1 0V13a1 1 0 0 1-1 1H4a1 1 0 0 1-1-1V9.5a.5.5 0 0 1 .5-.5z"/>
        </symbol>
    </defs>
    <defs>
        <symbol id="login" viewBox="0 0 16 16">
            <path d="M8 8a3 3 0 1 0 0-6 3 3 0 0 0 0 6zm2-3a2 2 0 1 1-4 0 2 2 0 0 1 4 0zm4 8c0 1-1 1-1 1H3s-1 0-1-1 1-4 6-4 6 3 6 4zm-1-.004c-.001-.246-.154-.986-.832-1.664C11.516 10.68 10.289 10 8 10c-2.29 0-3.516.68-4.168 1.332-.678.678-.83 1.418-.832 1.664h10z"/>
        </symbol>
    </defs>
    <defs>
        <symbol id="test" viewBox="0 0 16 16">
            <path d="M51.6,96.7c11,0,21-3.9,28.8-10.5l35,35c0.8,0.8,1.8,1.2,2.9,1.2s2.1-0.4,2.9-1.2c1.6-1.6,1.6-4.2,0-5.8l-35-35   c6.5-7.8,10.5-17.9,10.5-28.8c0-24.9-20.2-45.1-45.1-45.1C26.8,6.5,6.5,26.8,6.5,51.6C6.5,76.5,26.8,96.7,51.6,96.7z M51.6,14.7   c20.4,0,36.9,16.6,36.9,36.9C88.5,72,72,88.5,51.6,88.5c-20.4,0-36.9-16.6-36.9-36.9C14.7,31.3,31.3,14.7,51.6,14.7z" />
        </symbol>
    </defs>
    <defs>
        <symbol id="test" viewBox="0 0 16 16">
            <path d="M51.6,96.7c11,0,21-3.9,28.8-10.5l35,35c0.8,0.8,1.8,1.2,2.9,1.2s2.1-0.4,2.9-1.2c1.6-1.6,1.6-4.2,0-5.8l-35-35   c6.5-7.8,10.5-17.9,10.5-28.8c0-24.9-20.2-45.1-45.1-45.1C26.8,6.5,6.5,26.8,6.5,51.6C6.5,76.5,26.8,96.7,51.6,96.7z M51.6,14.7   c20.4,0,36.9,16.6,36.9,36.9C88.5,72,72,88.5,51.6,88.5c-20.4,0-36.9-16.6-36.9-36.9C14.7,31.3,31.3,14.7,51.6,14.7z" />
        </symbol>
    </defs>
    <defs>
        <symbol id="test" viewBox="0 0 16 16">
            <path d="M51.6,96.7c11,0,21-3.9,28.8-10.5l35,35c0.8,0.8,1.8,1.2,2.9,1.2s2.1-0.4,2.9-1.2c1.6-1.6,1.6-4.2,0-5.8l-35-35   c6.5-7.8,10.5-17.9,10.5-28.8c0-24.9-20.2-45.1-45.1-45.1C26.8,6.5,6.5,26.8,6.5,51.6C6.5,76.5,26.8,96.7,51.6,96.7z M51.6,14.7   c20.4,0,36.9,16.6,36.9,36.9C88.5,72,72,88.5,51.6,88.5c-20.4,0-36.9-16.6-36.9-36.9C14.7,31.3,31.3,14.7,51.6,14.7z" />
        </symbol>
    </defs>
</svg>