<svg xmlns="http://www.w3.org/2000/svg" width="0" height="0">
    <defs>
        <symbol id="test" viewBox="0 0 16 16">
            <path fill-rule="evenodd" d="M2.5 12a.5.5 0 0 1 .5-.5h10a.5.5 0 0 1 0 1H3a.5.5 0 0 1-.5-.5zm0-4a.5.5 0 0 1 .5-.5h10a.5.5 0 0 1 0 1H3a.5.5 0 0 1-.5-.5zm0-4a.5.5 0 0 1 .5-.5h10a.5.5 0 0 1 0 1H3a.5.5 0 0 1-.5-.5z"/>
        </symbol>
        <symbol id="share" viewBox="0 0 16 16">
            <path d="M13.5 1a1.5 1.5 0 1 0 0 3 1.5 1.5 0 0 0 0-3zM11 2.5a2.5 2.5 0 1 1 .603 1.628l-6.718 3.12a2.499 2.499 0 0 1 0 1.504l6.718 3.12a2.5 2.5 0 1 1-.488.876l-6.718-3.12a2.5 2.5 0 1 1 0-3.256l6.718-3.12A2.5 2.5 0 0 1 11 2.5zm-8.5 4a1.5 1.5 0 1 0 0 3 1.5 1.5 0 0 0 0-3zm11 5.5a1.5 1.5 0 1 0 0 3 1.5 1.5 0 0 0 0-3z"/>
        </symbol>
        <symbol id="arrow-back" viewBox="0 0 16 16">
            <path fill-rule="evenodd" d="M15 8a.5.5 0 0 0-.5-.5H2.707l3.147-3.146a.5.5 0 1 0-.708-.708l-4 4a.5.5 0 0 0 0 .708l4 4a.5.5 0 0 0 .708-.708L2.707 8.5H14.5A.5.5 0 0 0 15 8z"/>
        </symbol>
        <symbol id="magnifying" viewBox="0 0 16 16">
            <path d="M11.742 10.344a6.5 6.5 0 1 0-1.397 1.398h-.001c.03.04.062.078.098.115l3.85 3.85a1 1 0 0 0 1.415-1.414l-3.85-3.85a1.007 1.007 0 0 0-.115-.1zM12 6.5a5.5 5.5 0 1 1-11 0 5.5 5.5 0 0 1 11 0z"/>
        </symbol>
    </defs>
</svg>