<svg xmlns="http://www.w3.org/2000/svg" width="0" height="0">
    <defs>
        <symbol id="mbl-menu" viewBox="0 0 16 16">
            <path fill-rule="evenodd" d="M2.5 12a.5.5 0 0 1 .5-.5h10a.5.5 0 0 1 0 1H3a.5.5 0 0 1-.5-.5zm0-4a.5.5 0 0 1 .5-.5h10a.5.5 0 0 1 0 1H3a.5.5 0 0 1-.5-.5zm0-4a.5.5 0 0 1 .5-.5h10a.5.5 0 0 1 0 1H3a.5.5 0 0 1-.5-.5z"/>
        </symbol>
        <symbol id="location"  viewBox="0 0 16 16">
            <path d="M12.166 8.94c-.524 1.062-1.234 2.12-1.96 3.07A31.493 31.493 0 0 1 8 14.58a31.481 31.481 0 0 1-2.206-2.57c-.726-.95-1.436-2.008-1.96-3.07C3.304 7.867 3 6.862 3 6a5 5 0 0 1 10 0c0 .862-.305 1.867-.834 2.94zM8 16s6-5.686 6-10A6 6 0 0 0 2 6c0 4.314 6 10 6 10z"/>
            <path d="M8 8a2 2 0 1 1 0-4 2 2 0 0 1 0 4zm0 1a3 3 0 1 0 0-6 3 3 0 0 0 0 6z"/>
        </symbol>
    </defs>
    <defs>
        <symbol id="store"  viewBox="0 0 16 16">
            <path d="M2.97 1.35A1 1 0 0 1 3.73 1h8.54a1 1 0 0 1 .76.35l2.609 3.044A1.5 1.5 0 0 1 16 5.37v.255a2.375 2.375 0 0 1-4.25 1.458A2.371 2.371 0 0 1 9.875 8 2.37 2.37 0 0 1 8 7.083 2.37 2.37 0 0 1 6.125 8a2.37 2.37 0 0 1-1.875-.917A2.375 2.375 0 0 1 0 5.625V5.37a1.5 1.5 0 0 1 .361-.976l2.61-3.045zm1.78 4.275a1.375 1.375 0 0 0 2.75 0 .5.5 0 0 1 1 0 1.375 1.375 0 0 0 2.75 0 .5.5 0 0 1 1 0 1.375 1.375 0 1 0 2.75 0V5.37a.5.5 0 0 0-.12-.325L12.27 2H3.73L1.12 5.045A.5.5 0 0 0 1 5.37v.255a1.375 1.375 0 0 0 2.75 0 .5.5 0 0 1 1 0zM1.5 8.5A.5.5 0 0 1 2 9v6h12V9a.5.5 0 0 1 1 0v6h.5a.5.5 0 0 1 0 1H.5a.5.5 0 0 1 0-1H1V9a.5.5 0 0 1 .5-.5zm2 .5a.5.5 0 0 1 .5.5V13h8V9.5a.5.5 0 0 1 1 0V13a1 1 0 0 1-1 1H4a1 1 0 0 1-1-1V9.5a.5.5 0 0 1 .5-.5z"/>
        </symbol>
    </defs>
    <defs>
        <symbol id="login" viewBox="0 0 16 16">
            <path d="M8 8a3 3 0 1 0 0-6 3 3 0 0 0 0 6zm2-3a2 2 0 1 1-4 0 2 2 0 0 1 4 0zm4 8c0 1-1 1-1 1H3s-1 0-1-1 1-4 6-4 6 3 6 4zm-1-.004c-.001-.246-.154-.986-.832-1.664C11.516 10.68 10.289 10 8 10c-2.29 0-3.516.68-4.168 1.332-.678.678-.83 1.418-.832 1.664h10z"/>
        </symbol>
    </defs>
    <defs>
        <symbol id="cart" viewBox="0 0 16 16">
            <path d="M8 1a2.5 2.5 0 0 1 2.5 2.5V4h-5v-.5A2.5 2.5 0 0 1 8 1zm3.5 3v-.5a3.5 3.5 0 1 0-7 0V4H1v10a2 2 0 0 0 2 2h10a2 2 0 0 0 2-2V4h-3.5zM2 5h12v9a1 1 0 0 1-1 1H3a1 1 0 0 1-1-1V5z"/>
        </symbol>
    </defs>
    <defs>
        <symbol id="test" viewBox="0 0 16 16">
            <path d="M51.6,96.7c11,0,21-3.9,28.8-10.5l35,35c0.8,0.8,1.8,1.2,2.9,1.2s2.1-0.4,2.9-1.2c1.6-1.6,1.6-4.2,0-5.8l-35-35   c6.5-7.8,10.5-17.9,10.5-28.8c0-24.9-20.2-45.1-45.1-45.1C26.8,6.5,6.5,26.8,6.5,51.6C6.5,76.5,26.8,96.7,51.6,96.7z M51.6,14.7   c20.4,0,36.9,16.6,36.9,36.9C88.5,72,72,88.5,51.6,88.5c-20.4,0-36.9-16.6-36.9-36.9C14.7,31.3,31.3,14.7,51.6,14.7z" />
        </symbol>
    </defs>
    <defs>
        <symbol id="test" viewBox="0 0 16 16">
            <path d="M51.6,96.7c11,0,21-3.9,28.8-10.5l35,35c0.8,0.8,1.8,1.2,2.9,1.2s2.1-0.4,2.9-1.2c1.6-1.6,1.6-4.2,0-5.8l-35-35   c6.5-7.8,10.5-17.9,10.5-28.8c0-24.9-20.2-45.1-45.1-45.1C26.8,6.5,6.5,26.8,6.5,51.6C6.5,76.5,26.8,96.7,51.6,96.7z M51.6,14.7   c20.4,0,36.9,16.6,36.9,36.9C88.5,72,72,88.5,51.6,88.5c-20.4,0-36.9-16.6-36.9-36.9C14.7,31.3,31.3,14.7,51.6,14.7z" />
        </symbol>
    </defs>
</svg>