<svg xmlns="http://www.w3.org/2000/svg" width="14.3" height="19.108" viewBox="0 0 14.3 19.108">
    <defs>
        <style>.a111{stroke:#fff;stroke-width:1px;}</style>
    </defs>
    <g transform="translate(-106.15 -15.65)">
        <path class="a111" d="M54.88,0a6.808,6.808,0,0,0-6.8,6.8,7.845,7.845,0,0,0,.577,2.618,10.966,10.966,0,0,0,.786,1.47l4.662,7.064a.887.887,0,0,0,1.55,0l4.663-7.065a10.921,10.921,0,0,0,.786-1.47A7.844,7.844,0,0,0,61.68,6.8,6.808,6.808,0,0,0,54.88,0Zm5.486,9.108a10.048,10.048,0,0,1-.716,1.34l-4.663,7.065c-.092.14-.121.14-.213,0l-4.663-7.065a10.053,10.053,0,0,1-.716-1.34A7.121,7.121,0,0,1,48.88,6.8a6,6,0,1,1,12,0A7.127,7.127,0,0,1,60.366,9.108Z" transform="translate(58.42 16)"/>
        <path class="a111" d="M114.892,64.008a2.813,2.813,0,1,0,2.813,2.813A2.816,2.816,0,0,0,114.892,64.008Zm0,5a2.188,2.188,0,1,1,2.188-2.188A2.19,2.19,0,0,1,114.892,69.008Z" transform="translate(-1.58 -44.02)"/>
    </g>
</svg>