<svg id="Layer_1" enable-background="new 0 0 100 100" height="512" viewBox="0 0 100 100" width="512" xmlns="http://www.w3.org/2000/svg"><g id="_x30_6.Like"><path d="m50 10c-22.09 0-40 17.91-40 40s17.91 40 40 40 40-17.91 40-40-17.91-40-40-40zm-10.07 56.64c0 1.53-1.26 2.79-2.8 2.79h-7.68c-1.53 0-2.79-1.26-2.79-2.79v-21.9c0-1.53 1.26-2.79 2.79-2.79h7.68c1.54 0 2.8 1.26 2.8 2.79zm32.69-17.16c.87.7 1.43 1.77 1.43 2.98 0 1.81-1.26 3.32-2.95 3.72.87.7 1.43 1.77 1.43 2.97 0 1.82-1.26 3.33-2.96 3.72.88.7 1.44 1.77 1.44 2.98 0 2.11-1.71 3.82-3.82 3.82l-21.64-.24c-1.54 0-2.8-1.26-2.8-2.79v-21.9c0-3.48 11.05-9.83 11.64-13.27.38-2.2-.12-7.85 1.4-7.85 2.58 0 5.89.99 5.89 6.72 0 5.05-3.31 11.61-3.31 11.61h13.39c2.11 0 3.82 1.71 3.82 3.81 0 1.82-1.27 3.33-2.96 3.72z" fill="#008ae8"/></g></svg>