<svg id="Layer_1" enable-background="new 0 0 100 100" height="512" viewBox="0 0 100 100" width="512" xmlns="http://www.w3.org/2000/svg"><g id="_x30_7.Dislike"><path d="m49.995 90c22.097 0 40.005-17.91 40.005-40s-17.908-40-40.005-40c-22.087 0-39.995 17.91-39.995 40s17.908 40 39.995 40zm10.069-56.64c0-1.53 1.26-2.79 2.8-2.79h7.679c1.54 0 2.8 1.26 2.8 2.79v21.9c0 1.53-1.26 2.79-2.8 2.79h-7.679c-1.54 0-2.8-1.26-2.8-2.79zm-32.686 17.16c-.87-.7-1.43-1.77-1.43-2.98 0-1.81 1.26-3.32 2.96-3.72-.88-.7-1.44-1.77-1.44-2.97 0-1.82 1.27-3.33 2.96-3.72-.87-.7-1.43-1.77-1.43-2.98 0-2.11 1.71-3.82 3.81-3.82l21.647.24c1.54 0 2.79 1.26 2.79 2.79v21.9c0 3.48-11.049 9.83-11.639 13.27-.37 2.2.12 7.85-1.4 7.85-2.58 0-5.889-.99-5.889-6.72 0-5.05 3.31-11.61 3.31-11.61h-13.389c-2.11 0-3.82-1.71-3.82-3.81 0-1.82 1.27-3.33 2.96-3.72z" fill="#f43756"/></g></svg>