<svg id="Layer_1" enable-background="new 0 0 100 100" height="512" viewBox="0 0 100 100" width="512" xmlns="http://www.w3.org/2000/svg"><path id="_x30_9.Line" d="m50 11.668c-22.05 0-40 14.66-40 32.677 0 16.137 14.233 29.657 33.45 32.227 1.303.277 3.077.867 3.527 1.98.4 1.01.263 2.57.127 3.623l-.547 3.42c-.15 1.01-.8 3.977 3.497 2.163 4.303-1.807 23.053-13.68 31.453-23.397 5.746-6.333 8.493-12.823 8.493-20.017 0-18.016-17.95-32.676-40-32.676zm-15.657 43.39h-7.953c-1.15 0-2.1-.957-2.1-2.11v-16.004c0-1.157.95-2.113 2.1-2.113 1.16 0 2.1.957 2.1 2.113v13.89h5.853c1.16 0 2.097.95 2.097 2.113 0 1.154-.94 2.111-2.097 2.111zm8.22-2.11c0 1.153-.94 2.11-2.103 2.11-1.15 0-2.09-.957-2.09-2.11v-16.004c0-1.157.94-2.113 2.1-2.113 1.153 0 2.093.957 2.093 2.113zm19.137 0c0 .907-.58 1.71-1.44 2-.213.07-.443.103-.663.103-.703 0-1.303-.303-1.7-.84l-8.143-11.127v9.86c0 1.153-.93 2.11-2.103 2.11-1.153 0-2.087-.957-2.087-2.11v-16c0-.907.577-1.71 1.433-1.997.2-.077.453-.11.647-.11.65 0 1.25.35 1.65.853l8.207 11.17v-9.917c0-1.157.94-2.113 2.1-2.113 1.15 0 2.1.957 2.1 2.113v16.005zm12.85-10.117c1.163 0 2.1.957 2.1 2.117 0 1.157-.937 2.113-2.1 2.113h-5.85v3.773h5.85c1.163 0 2.1.95 2.1 2.113 0 1.153-.937 2.11-2.1 2.11h-7.953c-1.15 0-2.09-.957-2.09-2.11v-16.003c0-1.157.94-2.113 2.1-2.113h7.953c1.153 0 2.09.957 2.09 2.113 0 1.17-.937 2.113-2.1 2.113h-5.85v3.773h5.85z" fill="#4caf50"/></svg>