<svg id="Layer_1" enable-background="new 0 0 100 100" height="512" viewBox="0 0 100 100" width="512" xmlns="http://www.w3.org/2000/svg"><g id="_x31_1.Wechat" fill="#4caf50"><path d="m55.311 20.901h.083v-.008c-22.306-12.604-50.088 4.984-44.72 25.723 1.442 6.152 5.701 11.311 10.861 14.754-1 2.842-1.942 5.676-2.842 8.536 3.243-1.7 6.493-3.484 9.744-5.218 3.893 1.259 8.035 1.875 12.187 1.734-5.126-14.687 8.01-30.258 27.416-28.874-1.451-7.136-6.444-13.171-12.729-16.647zm-26.324 16.181c-2.33 0-4.218-1.888-4.218-4.218s1.888-4.218 4.218-4.218 4.218 1.888 4.218 4.218c0 2.329-1.888 4.218-4.218 4.218zm20.067 0c-2.33 0-4.218-1.888-4.218-4.218s1.888-4.218 4.218-4.218 4.218 1.888 4.218 4.218c0 2.329-1.888 4.218-4.218 4.218z"/><path d="m78.15 42.015c-21.272-10.82-45.454 9.035-34.392 27.257 5.126 8.552 16.979 13.962 31 9.903 2.801 1.092 5.301 2.859 8.019 4.168-.709-2.367-1.459-4.701-2.259-7.027 14.486-10.32 11.319-27.35-2.368-34.301zm-20.657 14.384c-1.799 0-3.257-1.458-3.257-3.257s1.458-3.257 3.257-3.257 3.257 1.458 3.257 3.257-1.458 3.257-3.257 3.257zm15.997 0c-1.799 0-3.257-1.458-3.257-3.257s1.458-3.257 3.257-3.257 3.257 1.458 3.257 3.257-1.458 3.257-3.257 3.257z"/></g></svg>