<svg id="Layer_1" enable-background="new 0 0 100 100" height="512" viewBox="0 0 100 100" width="512" xmlns="http://www.w3.org/2000/svg"><g id="_x31_4.Pinterest"><g><g id="Icon_9_"><path d="m89.983 51.173c.652-22.827-17.823-41.5-40.578-41.169-21.901.318-39.571 18.406-39.404 40.309.12 15.695 9.28 29.236 22.529 35.679.766.372 1.654-.207 1.621-1.059-.096-2.573-.013-5.325.501-7.536.508-2.178 2.496-10.599 3.803-16.131.636-2.694.713-5.49.201-8.21-.168-.892-.29-1.94-.29-3.107 0-5.912 3.427-10.326 7.694-10.326 3.627 0 5.379 2.724 5.379 5.99 0 3.648-2.323 9.102-3.521 14.157-1.002 4.231 2.122 7.683 6.296 7.683 7.557 0 13.365-7.968 13.365-19.471 0-10.18-7.315-17.297-17.76-17.297-12.097 0-19.198 9.074-19.198 18.452 0 3.654 1.408 7.572 3.164 9.702.347.421.399.791.296 1.22-.323 1.343-1.04 4.231-1.181 4.822-.185.778-.616.943-1.422.569-5.31-2.472-8.631-10.235-8.631-16.473 0-13.412 9.745-25.729 28.093-25.729 14.749 0 26.212 10.51 26.212 24.557 0 14.653-9.24 26.446-22.064 26.446-3.389 0-6.618-1.385-8.516-3.263-.584-.577-1.571-.314-1.78.48-.669 2.548-1.749 6.669-2.097 8.008-.627 2.411-1.948 5.219-3.274 7.664-.352.649.005 1.453.72 1.635 3.27.829 6.699 1.257 10.234 1.225 20.992-.196 39.008-17.846 39.608-38.827z" fill="#e13138"/></g></g></g></svg>