<svg id="Layer_1" enable-background="new 0 0 100 100" height="512" viewBox="0 0 100 100" width="512" xmlns="http://www.w3.org/2000/svg"><g id="_x31_5.Spotify"><path d="m50 10c-22.09 0-40 17.91-40 40s17.91 40 40 40 40-17.91 40-40-17.91-40-40-40zm14.75 55.09c-.45.77-1.26 1.2-2.09 1.2-.42 0-.84-.11-1.22-.33-6.35-3.72-13.68-4.31-18.72-4.16-5.58.17-9.67 1.27-9.71 1.28-1.29.36-2.61-.4-2.97-1.69-.35-1.28.4-2.61 1.69-2.96.18-.06 4.59-1.25 10.71-1.45 3.6-.12 7.08.13 10.31.74 4.11.78 7.85 2.15 11.13 4.06 1.15.68 1.54 2.16.87 3.31zm4.49-9.33c-.54.91-1.49 1.42-2.48 1.42-.49 0-.98-.13-1.44-.39-7.52-4.4-16.21-5.1-22.17-4.92-6.61.2-11.46 1.5-11.5 1.52-1.53.41-3.1-.48-3.52-2.01-.42-1.52.48-3.09 2-3.51.22-.06 5.43-1.48 12.68-1.72 4.28-.14 8.39.16 12.22.89 4.86.92 9.3 2.54 13.18 4.8 1.36.8 1.82 2.55 1.03 3.92zm5.79-10.22c-.65 1.11-1.83 1.74-3.03 1.74-.6 0-1.21-.16-1.77-.48-17.88-10.45-41.07-4.24-41.3-4.18-1.87.52-3.8-.58-4.32-2.45-.51-1.87.58-3.8 2.45-4.31.27-.08 6.67-1.82 15.56-2.11 5.24-.17 10.28.19 14.99 1.09 5.96 1.13 11.4 3.11 16.16 5.9 1.68.97 2.24 3.12 1.26 4.8z" fill="#7ad768"/></g></svg>