<svg id="Layer_1" enable-background="new 0 0 100 100" height="512" viewBox="0 0 100 100" width="512" xmlns="http://www.w3.org/2000/svg"><g id="_x31_6.Behance" fill="#3a67fa"><path d="m43.857 46.06c1.385-2.156 2.176-4.727 2.13-7.484-.122-7.377-6.262-13.239-13.64-13.239h-20.6c-.965 0-1.747.782-1.747 1.747v45.301c0 .965.782 1.747 1.747 1.747h23.011c8.54 0 15.615-6.846 15.649-15.386.022-5.234-2.575-9.874-6.55-12.686zm-24.82-11.686h13.486c2.442 0 4.429 1.987 4.429 4.429s-1.987 4.429-4.429 4.429h-13.486zm15.921 30.721h-15.921v-12.826h15.921c3.536 0 6.413 2.878 6.413 6.413-.001 3.536-2.877 6.413-6.413 6.413z"/><path d="m90 55.533c0-10.548-8.314-19.13-18.533-19.13-10.22 0-18.533 8.582-18.533 19.13 0 10.549 8.314 19.13 18.533 19.13 6.2 0 11.962-3.178 15.413-8.503.43-.664.821-1.358 1.168-2.073.251-.519-.13-1.123-.707-1.124l-9.11-.023c-.201 0-.393.082-.537.222-1.721 1.673-3.829 2.464-6.226 2.464-4.528 0-8.323-3.386-9.268-7.9h25.987c1.001 0 1.813-.812 1.813-1.814zm-18.533-10.093c3.315 0 6.238 1.818 7.937 4.563h-15.875c1.699-2.745 4.622-4.563 7.938-4.563z"/><path d="m79.168 34.159h-16.438c-.767 0-1.389-.622-1.389-1.389v-4.123c0-.767.622-1.389 1.389-1.389h16.438c.767 0 1.388.622 1.388 1.389v4.123c0 .768-.621 1.389-1.388 1.389z"/></g></svg>