<svg id="Layer_1" enable-background="new 0 0 100 100" height="512" viewBox="0 0 100 100" width="512" xmlns="http://www.w3.org/2000/svg"><g id="_x31_7.Path"><path id="Icon_47_" d="m75.122 17.976c-6.875-5.144-15.925-7.976-25.484-7.976-9.543 0-18.501 2.898-25.223 8.159-7.079 5.541-10.978 13.046-10.978 21.134 0 7.492 1.182 13.285 6.98 19.964.696.802 1.918.867 2.688.136l5.697-5.407c.717-.681.771-1.801.132-2.555-3.52-4.145-3.935-7.168-3.935-12.138 0-9.777 11.054-17.732 24.641-17.732 7.079 0 13.67 2.015 18.559 5.672 4.388 3.282 6.804 7.489 6.804 11.846 0 4.177-.926 9.899-5.335 13.441-4.151 3.334-10.775 4.22-18.662 2.5v-21.211c0-1.026-.831-1.857-1.857-1.857h-8.229c-1.026 0-1.857.831-1.857 1.857v43.261c.011.653-.41 1.077-1.138.969l-6.838-1.394c-1.005-.205-1.986.444-2.191 1.449l-1.643 8.063c-.205 1.005.444 1.986 1.449 2.191 0 0 7.297 1.64 9.373 1.65 2.772.047 5.199-.638 7.834-2.683 3.025-2.335 4.879-5.866 5.089-9.688l.009-10.836c2.538.425 5.003.637 7.372.637 7.293 0 13.682-2 18.53-5.894 6.318-5.074 9.658-12.839 9.658-22.454-.005-8.091-4.068-15.586-11.445-21.104z" fill="#e13138"/></g></svg>