<svg id="Layer_1" enable-background="new 0 0 100 100" height="512" viewBox="0 0 100 100" width="512" xmlns="http://www.w3.org/2000/svg" xmlns:xlink="http://www.w3.org/1999/xlink"><linearGradient id="lg1"><stop offset="0" stop-color="#fa3900"/><stop offset="1" stop-color="#fb8c00"/></linearGradient><linearGradient id="SVGID_1_" gradientUnits="userSpaceOnUse" x1="10.96" x2="10.96" xlink:href="#lg1" y1="62.843" y2="53.41"/><linearGradient id="SVGID_2_" gradientUnits="userSpaceOnUse" x1="13.919" x2="13.919" xlink:href="#lg1" y1="65.513" y2="50.655"/><linearGradient id="SVGID_3_" gradientUnits="userSpaceOnUse" x1="17.057" x2="17.057" xlink:href="#lg1" y1="66.771" y2="49.248"/><linearGradient id="SVGID_4_" gradientUnits="userSpaceOnUse" x1="20.223" x2="20.223" xlink:href="#lg1" y1="67.1" y2="48.949"/><linearGradient id="SVGID_5_" gradientUnits="userSpaceOnUse" x1="23.414" x2="23.414" xlink:href="#lg1" y1="67.238" y2="49.514"/><linearGradient id="SVGID_6_" gradientUnits="userSpaceOnUse" x1="26.63" x2="26.63" xlink:href="#lg1" y1="67.311" y2="44.351"/><linearGradient id="SVGID_7_" gradientUnits="userSpaceOnUse" x1="29.824" x2="29.824" xlink:href="#lg1" y1="67.372" y2="41.308"/><linearGradient id="SVGID_8_" gradientUnits="userSpaceOnUse" x1="33.143" x2="33.143" xlink:href="#lg1" y1="67.31" y2="39.84"/><linearGradient id="SVGID_9_" gradientUnits="userSpaceOnUse" x1="36.435" x2="36.435" xlink:href="#lg1" y1="67.326" y2="39.181"/><linearGradient id="SVGID_10_" gradientUnits="userSpaceOnUse" x1="39.757" x2="39.757" xlink:href="#lg1" y1="67.318" y2="39.578"/><linearGradient id="SVGID_11_" gradientUnits="userSpaceOnUse" x1="43.103" x2="43.103" xlink:href="#lg1" y1="67.331" y2="40.157"/><linearGradient id="SVGID_12_" gradientUnits="userSpaceOnUse" x1="46.472" x2="46.472" xlink:href="#lg1" y1="67.35" y2="36.844"/><linearGradient id="SVGID_13_" gradientUnits="userSpaceOnUse" x1="49.834" x2="49.834" xlink:href="#lg1" y1="67.301" y2="34.938"/><linearGradient id="SVGID_14_" gradientUnits="userSpaceOnUse" x1="70.911" x2="70.911" xlink:href="#lg1" y1="67.322" y2="32.628"/><g id="_x31_8.Soundcloud"><path d="m11.225 62.536c-.026.179-.154.307-.321.307s-.294-.128-.32-.311l-.584-4.368.584-4.441c.025-.185.153-.313.32-.313.165 0 .293.128.321.313l.695 4.447z" fill="url(#SVGID_1_)"/><path d="m14.199 65.19c-.028.19-.165.323-.335.323-.165 0-.31-.133-.333-.323l-.785-7.027.785-7.185c.023-.185.168-.323.333-.323.17 0 .308.135.335.323l.894 7.185z" fill="url(#SVGID_2_)"/><path d="m17.408 66.38c-.023.228-.194.391-.4.391-.213 0-.381-.162-.401-.391l-.746-8.212.746-8.524c.019-.231.189-.397.401-.397.206 0 .376.165.4.397l.846 8.524z" fill="url(#SVGID_3_)"/><path d="m20.648 66.641c-.023.262-.228.46-.471.46-.249 0-.453-.198-.473-.46l-.704-8.472.704-8.758c.021-.264.224-.462.473-.462.243 0 .448.198.471.462l.798 8.758z" fill="url(#SVGID_4_)"/><path d="m23.906 66.708c-.017.304-.254.529-.534.529-.289 0-.519-.225-.538-.529l-.666-8.542.666-8.125c.021-.302.249-.528.538-.528.286 0 .518.225.534.524l.754 8.129z" fill="url(#SVGID_5_)"/><path d="m27.196 66.714v-.005c-.02.337-.287.602-.608.602-.322 0-.589-.267-.608-.598l-.621-8.542.621-13.219c.019-.337.286-.602.608-.602s.589.267.608.598l.704 13.224z" fill="url(#SVGID_6_)"/><path d="m30.462 66.708v-.005c-.02.372-.314.668-.678.668-.357 0-.653-.296-.671-.668l-.587-8.487.587-16.243c.018-.372.313-.666.671-.666.364 0 .658.294.678.666l.661 16.243z" fill="url(#SVGID_7_)"/><path d="m33.848 66.578v-.005c-.014.415-.341.736-.741.736s-.727-.322-.741-.731l-.545-8.4s.545-17.597.545-17.602c.016-.409.341-.737.741-.737s.727.328.741.737l.615 17.602z" fill="url(#SVGID_8_)"/><path d="m37.216 66.522c-.016.451-.369.804-.809.804-.441 0-.794-.354-.81-.8l-.508-8.35.508-18.19c.016-.453.369-.805.81-.805.44 0 .794.352.809.805l.564 18.19z" fill="url(#SVGID_9_)"/><path d="m40.606 66.448v-.005c-.016.487-.397.874-.88.874-.476 0-.865-.387-.874-.869l-.467-8.27.462-17.725c.014-.494.401-.876.879-.876.483 0 .865.382.88.876l.524 17.725z" fill="url(#SVGID_10_)"/><path d="m44.022 66.399v-.007c-.008.531-.427.939-.945.939-.522 0-.935-.408-.951-.932l-.421-8.222.422-17.076c.016-.529.429-.944.951-.944.518 0 .937.415.945.944l.478 17.081z" fill="url(#SVGID_11_)"/><path d="m47.508 65.532-.042.805c-.005.28-.123.534-.303.718-.185.18-.439.296-.708.296-.313 0-.589-.144-.778-.37-.14-.164-.226-.377-.236-.601-.003-.01-.003-.023-.003-.036 0 0-.389-8.157-.389-8.17l.384-20.124.005-.193c.003-.352.19-.666.47-.847.157-.105.342-.165.548-.165.203 0 .395.063.555.174.272.182.451.488.456.839l.427 20.326z" fill="url(#SVGID_12_)"/><path d="m50.896 66.231v-.01c-.007.594-.494 1.079-1.083 1.079-.591 0-1.077-.484-1.083-1.074l-.224-3.967-.219-4.073.443-22.056v-.111c.001-.335.159-.634.401-.836.186-.153.425-.245.681-.245.204 0 .393.056.554.151.308.193.524.534.534.925l.48 22.171z" fill="url(#SVGID_13_)"/><path d="m80.164 67.322s-27.251 0-27.279 0c-.589-.06-1.054-.528-1.064-1.132v-31.229c.01-.575.207-.871.948-1.156 1.911-.74 4.074-1.177 6.298-1.177 9.071 0 16.504 6.958 17.293 15.823 1.168-.487 2.457-.765 3.805-.765 5.432 0 9.836 4.406 9.836 9.842-.001 5.435-4.405 9.794-9.837 9.794z" fill="url(#SVGID_14_)"/></g></svg>