<svg id="Layer_1" enable-background="new 0 0 100 100" height="512" viewBox="0 0 100 100" width="512" xmlns="http://www.w3.org/2000/svg"><g id="_x32_0.Dribbble" fill="#ea4c89"><path d="m62.035 53.618c3.923 9.926 6.837 20.145 8.73 30.585 2.701-1.647 5.225-3.625 7.52-5.919 5.959-5.96 9.805-13.47 11.164-21.62-5.854-2.422-12.266-3.762-18.986-3.762-2.873 0-5.688.247-8.428.716z"/><path d="m78.318 21.75c-.012-.011-.023-.023-.034-.034-7.555-7.555-17.6-11.716-28.284-11.716-4.178 0-8.258.639-12.13 1.866 6.205 7.775 11.664 16.072 16.343 24.841 8.814-3.743 16.932-8.813 24.105-14.957z"/><path d="m81.461 25.291c-7.524 6.463-15.933 11.7-25.082 15.615 1.349 2.715 2.623 5.474 3.825 8.274 3.358-.639 6.783-.965 10.259-.965 6.733 0 13.281 1.211 19.495 3.594.027-.601.042-1.204.042-1.808 0-9.078-3.004-17.691-8.539-24.71z"/><path d="m25.379 81.531c7.003 5.491 15.583 8.469 24.621 8.469 5.745 0 11.304-1.205 16.391-3.491-1.907-11.049-4.96-21.709-9.033-31.855-14.156 3.863-25.819 13.826-31.979 26.877z"/><path d="m49.244 52.499c2.057-.87 4.155-1.608 6.285-2.214-1.124-2.574-2.317-5.112-3.572-7.614-10.806 4.012-22.169 6.046-33.842 6.046-2.712 0-5.406-.112-8.08-.33-.022.535-.035 1.073-.035 1.614 0 10.684 4.161 20.729 11.716 28.284.002.002.005.005.008.007 2.613-5.211 6.03-9.948 10.194-14.112 5.005-5.005 10.834-8.935 17.326-11.681z"/><path d="m49.764 38.46c-4.747-8.791-10.3-17.085-16.559-24.784-4.218 1.954-8.104 4.655-11.489 8.04-6.052 6.052-9.924 13.703-11.225 22 2.515.206 5.057.313 7.625.313 11.109-.001 21.769-1.967 31.648-5.569z"/></g></svg>