<svg id="Layer_1" enable-background="new 0 0 100 100" height="512" viewBox="0 0 100 100" width="512" xmlns="http://www.w3.org/2000/svg"><g id="_x32_1.Vimeo"><path id="Icon_79_" d="m86.689 19.635c-1.937-2.087-4.741-3.198-8.333-3.304-10.142-.328-17.314 5.068-21.317 16.033-.21.576-.082 1.215.335 1.667.414.449 1.036.628 1.623.467 1.152-.317 2.293-.477 3.394-.477 1.478 0 3.445.272 4.424 1.566.751.994.853 2.483.303 4.427-.464 1.641-2.852 6.032-5.809 10.678-3.602 5.661-5.591 8.199-6.165 8.199-1.9 0-8.767-30.45-8.956-31.118-1.969-6.979-2.958-10.482-9.363-10.482-4.882 0-15.769 8.915-24.709 16.681-.55.477-1.013.879-1.371 1.186-.864.739-.994 2.021-.297 2.921l1.666 2.145c.702.904 1.982 1.094 2.915.43l.092-.066c2.892-2.057 5.624-4 7.687-4.108 2.241-.11 4.186 3.393 6.505 11.725 4.415 16.185 11.125 35.476 18.01 35.476 7.195 0 15.779-6.099 26.875-20.539 10.042-13.067 15.42-23.432 15.765-30.974.259-5.694-.842-9.912-3.274-12.533z" fill="#4bf"/></g></svg>