<svg id="Layer_1" enable-background="new 0 0 100 100" height="512" viewBox="0 0 100 100" width="512" xmlns="http://www.w3.org/2000/svg"><g id="_x32_2.Odnoklassniki" fill="#ff9800"><path d="m50 10c-11.145 0-20.182 9.035-20.182 20.182 0 11.145 9.037 20.182 20.182 20.182 11.147 0 20.182-9.037 20.182-20.182 0-11.147-9.035-20.182-20.182-20.182zm0 30.242c-5.556 0-10.059-4.504-10.059-10.059 0-5.556 4.504-10.059 10.059-10.059 5.556 0 10.059 4.504 10.059 10.059s-4.503 10.059-10.059 10.059z"/><path d="m79.745 53.454c-1.85-3.301-6.027-4.478-9.328-2.627-13.739 7.7-27.096 7.7-40.834 0-3.301-1.851-7.478-.674-9.328 2.627s-.674 7.478 2.627 9.328c4.731 2.652 9.52 4.61 14.327 5.865l-9.724 9.724c-2.66 2.66-2.66 6.973 0 9.634 2.66 2.66 6.973 2.66 9.634 0l12.881-12.881 12.881 12.881c2.66 2.66 6.973 2.66 9.634 0 2.66-2.66 2.66-6.973 0-9.634l-9.724-9.724c4.808-1.255 9.596-3.213 14.327-5.865 3.301-1.85 4.477-6.027 2.627-9.328z"/></g></svg>