<svg id="Layer_1" enable-background="new 0 0 100 100" height="512" viewBox="0 0 100 100" width="512" xmlns="http://www.w3.org/2000/svg"><g id="_x32_3.VK"><g><g><path clip-rule="evenodd" d="m49.141 72.628h4.782s1.444-.159 2.182-.954c.679-.73.657-2.1.657-2.1s-.093-6.416 2.885-7.361c2.936-.931 6.705 6.201 10.701 8.944 3.021 2.075 5.317 1.62 5.317 1.62l10.684-.149s5.589-.344 2.939-4.738c-.217-.359-1.543-3.251-7.943-9.191-6.699-6.218-5.802-5.212 2.268-15.967 4.914-6.55 6.879-10.549 6.265-12.262-.585-1.631-4.2-1.2-4.2-1.2l-12.029.075s-.892-.122-1.553.274c-.646.388-1.062 1.291-1.062 1.291s-1.904 5.069-4.443 9.379c-5.356 9.096-7.498 9.576-8.373 9.011-2.036-1.316-1.528-5.288-1.528-8.11 0-8.814 1.337-12.49-2.603-13.441-1.308-.316-2.27-.525-5.614-.558-4.292-.045-7.925.013-9.982 1.021-1.368.67-2.424 2.163-1.781 2.249.795.106 2.596.485 3.55 1.785 1.233 1.677 1.189 5.443 1.189 5.443s.708 10.376-1.654 11.665c-1.621.884-3.846-.921-8.621-9.173-2.447-4.227-4.294-8.899-4.294-8.899s-.356-.873-.992-1.34c-.518-.37-1.454-.741-2.572-.741l-10.707.07s-1.716.048-2.346.794c-.56.664-.045 2.036-.045 2.036s8.949 20.937 19.082 31.488c9.29 9.675 19.841 9.039 19.841 9.039z" fill="#4c75a3" fill-rule="evenodd"/></g></g></g></svg>