<svg id="Layer_1" enable-background="new 0 0 100 100" height="512" viewBox="0 0 100 100" width="512" xmlns="http://www.w3.org/2000/svg"><g id="_x32_5.DeviantArt"><path id="Icon_8_" d="m75 21.667v-10c0-.921-.746-1.667-1.667-1.667h-11.667c-.631 0-1.207.356-1.49.92l-6.206 12.413h-27.303c-.921 0-1.667.747-1.667 1.667v20c0 .92.746 1.667 1.667 1.667h15.373l-16.833 30.87c-.134.244-.205.518-.207.797v10c0 .92.746 1.666 1.667 1.666h11.667c.631 0 1.208-.356 1.49-.92l6.207-12.413h27.303c.92 0 1.666-.747 1.666-1.667v-20c0-.92-.746-1.667-1.667-1.667h-15.373l16.837-30.87c.134-.243.204-.518.203-.796z" fill="#4caf50"/></g></svg>