<svg id="Layer_1" enable-background="new 0 0 100 100" height="512" viewBox="0 0 100 100" width="512" xmlns="http://www.w3.org/2000/svg"><g id="_x32_6.Xing" fill="#00605e"><path d="m17.104 24.63h16.812l10.158 18c.074.131.072.29-.005.419l-13.507 22.581h-16.999c-.323 0-.524-.352-.359-.63l13.081-22.008c.076-.127.078-.285.007-.415l-9.554-17.33c-.153-.277.049-.617.366-.617z"/><path d="m76.431 90h-16.812l-17.666-31.347c-.074-.131-.072-.29.005-.419l27.48-48.234h16.998c.323 0 .524.352.359.63l-27.054 47.66c-.076.127-.078.285-.007.415l17.062 30.677c.153.278-.048.618-.365.618z"/></g></svg>