<svg id="Layer_1" enable-background="new 0 0 100 100" height="512" viewBox="0 0 100 100" width="512" xmlns="http://www.w3.org/2000/svg"><g id="_x32_9.Yelp" fill="#e13138"><path d="m43.508 66.365-11.061 13.469c-1.557 1.894-.812 4.757 1.469 5.655l10.815 4.257c2.333.918 4.869-.761 4.935-3.266l.466-17.645c.094-3.557-4.366-5.22-6.624-2.47z"/><path d="m41.67 52.974-16.404-5.89c-2.308-.829-4.754.834-4.832 3.285l-.374 11.616c-.081 2.506 2.353 4.33 4.736 3.55l16.774-5.492c3.381-1.108 3.448-5.866.1-7.069z"/><path d="m60.47 54.864 16.803-4.631c2.364-.652 3.407-3.419 2.059-5.469l-6.384-9.711c-1.377-2.095-4.417-2.185-5.915-.175l-10.551 14.149c-2.127 2.853.558 6.782 3.988 5.837z"/><path d="m48.301 14.486c.134-2.906-2.605-5.098-5.411-4.332l-13.3 3.633c-2.869.783-4.088 4.179-2.372 6.609l15.263 26.443c2.361 3.49 8.308 2.862 8.166-2.567z"/><path d="m77.388 66.952-16.873-5.181c-3.401-1.045-6.2 2.806-4.156 5.718l10.01 14.268c1.409 2.007 4.365 2.059 5.842.102l7-9.277c1.511-2.001.574-4.895-1.823-5.63z"/></g></svg>