<svg id="Layer_1" enable-background="new 0 0 100 100" height="512" viewBox="0 0 100 100" width="512" xmlns="http://www.w3.org/2000/svg"><g id="_x33_1.Quora"><path id="Icon_66_" d="m82.302 72.776s-.391 5.743-5.612 5.743c-4.032 0-6.785-3.075-9.363-7.068 7.322-6.393 11.973-15.938 11.973-26.605 0-19.245-15.134-34.846-33.803-34.846s-33.802 15.602-33.802 34.846 15.134 34.847 33.802 34.847c3.388 0 6.658-.516 9.744-1.472 3.905 6.202 8.861 11.779 16.62 11.779 15.792 0 16.444-17.224 16.444-17.224zm-36.804 1.175c-10.884 0-19.707-13.031-19.707-29.104s8.823-29.104 19.707-29.104 19.707 13.031 19.707 29.104c0 6.392-1.396 12.301-3.761 17.102-2.672-3.815-5.879-7.062-10.464-8.097-8.134-1.834-15.139 1.827-17.358 3.655l2.088 4.307s2.111-1.214 7.345-.001c3.298.764 5.861 5.341 8.798 10.592-1.994 1.001-4.132 1.546-6.355 1.546z" fill="#e13138"/></g></svg>