<svg id="Layer_1" enable-background="new 0 0 100 100" height="512" viewBox="0 0 100 100" width="512" xmlns="http://www.w3.org/2000/svg" xmlns:xlink="http://www.w3.org/1999/xlink"><linearGradient id="Icon_1_" gradientUnits="userSpaceOnUse" x1="10" x2="90" y1="50" y2="50"><stop offset="0" stop-color="#ff4500"/><stop offset="1" stop-color="#dd3400"/></linearGradient><g id="_x33_2.Reddit"><path id="Icon_69_" d="m89.999 50.537c-.179-4.837-4.24-8.614-9.091-8.45-2.15.074-4.195.955-5.748 2.433-6.838-4.657-14.87-7.211-23.126-7.39l3.897-18.737 12.855 2.702c.358 3.3 3.314 5.688 6.614 5.33 3.3-.359 5.688-3.314 5.33-6.614-.359-3.3-3.314-5.689-6.614-5.33-1.896.194-3.598 1.299-4.539 2.941l-14.72-2.941c-1-.224-2 .403-2.224 1.418v.03l-4.434 20.841c-8.36.135-16.497 2.702-23.425 7.39-3.523-3.314-9.076-3.15-12.391.389-3.314 3.523-3.151 9.076.388 12.391.686.643 1.478 1.195 2.358 1.583-.06.881-.06 1.761 0 2.643 0 13.451 15.676 24.395 35.01 24.395s35.01-10.929 35.01-24.395c.06-.882.06-1.762 0-2.643 3.014-1.506 4.91-4.611 4.85-7.986zm-60.062 6.017c0-3.314 2.702-6.017 6.017-6.017 3.314 0 6.017 2.702 6.017 6.017s-2.702 6.017-6.017 6.017c-3.33-.03-6.017-2.702-6.017-6.017zm34.89 16.513c-4.269 3.209-9.495 4.852-14.839 4.628-5.345.223-10.571-1.419-14.84-4.628-.567-.687-.463-1.717.224-2.285.597-.492 1.448-.492 2.06 0 3.613 2.643 8.017 3.987 12.496 3.777 4.479.239 8.899-1.045 12.556-3.658.657-.642 1.732-.627 2.373.03.643.657.628 1.732-.03 2.374zm-1.075-10.287c-3.314 0-6.016-2.702-6.016-6.017s2.702-6.017 6.016-6.017 6.017 2.702 6.017 6.017c.135 3.314-2.449 6.106-5.763 6.24-.104 0-.193 0-.299 0z" fill="url(#Icon_1_)"/></g></svg>