<svg id="Layer_1" enable-background="new 0 0 100 100" height="512" viewBox="0 0 100 100" width="512" xmlns="http://www.w3.org/2000/svg"><g id="_x33_3.Foursquare"><path id="Icon_67_" d="m76.499 13.086c-1.675-1.962-4.114-3.086-6.693-3.086h-39.612c-4.854 0-8.802 3.949-8.802 8.802v67.17c0 1.673 1.034 3.171 2.597 3.765.466.177.949.263 1.428.263 1.13 0 2.234-.476 3.014-1.355l21.244-23.949h14.257c4.356 0 8.012-3.122 8.693-7.425l5.875-37.092c.403-2.547-.326-5.133-2.001-7.093zm-9.843 19.381h-18.83c-2.257 0-4.158 1.848-4.116 4.104.041 2.188 1.827 3.948 4.025 3.948h17.031c1.239 0 2.184 1.107 1.992 2.33l-1.908 12.099c-.155.98-1 1.703-1.993 1.702l-14.993-.008c-1.151 0-2.247.493-3.012 1.354l-15.409 17.37v-56.564c0-.414.335-.75.749-.75h37.969c1.229 0 2.171 1.09 1.994 2.306l-1.506 10.383c-.142.991-.991 1.726-1.993 1.726z" fill="#f94877"/></g></svg>