<svg id="Layer_1" enable-background="new 0 0 100 100" height="512" viewBox="0 0 100 100" width="512" xmlns="http://www.w3.org/2000/svg"><g id="_x33_5.Swaram" fill="#db9044"><path d="m42.974 74.092c-1.979-4.508-3.078-9.345-3.189-14.182-3.187 4.947-5.607 10.004-7.255 13.633-.11.22-.11.33-.22.55-.549 1.43-1.099 2.529-1.43 3.518-.439 1.099.11 2.418 1.319 2.858.88.33 2.088.77 3.518 1.319.221.11.33.11.55.219 3.849 1.319 9.125 2.749 14.842 3.738-3.407-3.298-6.156-7.256-8.135-11.653"/><path d="m50.669 37.922c-11.213-22.977-36.278-22.208-40.236-11.873-3.078 7.915 10.224 26.715 40.787 13.082-.11-.109-.439-.988-.551-1.209z"/><path d="m55.947 36.384c-6.265-15.502 4.727-24.407 10.664-22.098 4.508 1.759 6.926 15.061-10.334 22.756 0-.109-.22-.549-.33-.658"/><path d="m88.048 53.864c-2.639-5.827-7.366-10.114-12.972-12.093-.549-.22-1.098-.33-1.759-.33-2.858 0-5.716 2.418-5.936 5.387-.439 5.057.549 10.115 2.748 15.061 2.2 4.838 5.277 8.905 9.125 11.983.99.77 2.309 1.099 3.518 1.099 2.309 0 4.508-1.209 5.387-3.298 2.418-5.387 2.529-11.873-.111-17.809"/><path d="m74.966 79.699c-4.838-3.738-8.685-8.684-11.323-14.731-2.749-6.156-3.848-12.423-3.298-18.579.11-1.759.66-3.408 1.43-4.837-.11 0-.329.11-.441.11-.22.109-.549.109-.769.22-1.649.439-3.298 1.209-4.727 1.979-.769.439-1.429.88-2.199 1.319-3.738 2.528-6.816 6.925-7.255 11.543-.439 4.946.439 10.004 2.528 14.841 2.089 4.727 5.167 8.576 8.906 11.543 2.308 1.869 6.376 2.968 9.784 2.968 3.738 0 7.695-1.43 10.884-3.408 0 0 .11 0 .11-.11.22-.111.439-.33.66-.439.111-.112.221-.221.33-.221-1.761-.439-3.3-1.209-4.62-2.198"/></g></svg>