<?xml version="1.0" encoding="iso-8859-1"?>
<!-- Generator: Adobe Illustrator 19.0.0, SVG Export Plug-In . SVG Version: 6.00 Build 0)  -->
<svg xmlns="http://www.w3.org/2000/svg" id="a" viewBox="0 0 512 512"><path d="M11.37,331.59c8.46,27.41,21.43,52.85,38.01,75.48l75.48-75.48H11.37ZM109.46,465.85c22.82,15.97,48.1,28.1,74.85,35.89v-110.74l-74.85,74.85ZM103.44,50.42l80.87,80.87V10.24c-29.13,8.48-56.52,22.09-80.87,40.18ZM45.09,110.95c-16.51,23.96-29.05,50.86-36.66,79.78h116.45L45.09,110.95Z" style="fill:#29337a;"/><path d="M465.86,109.45l-81.28,81.28h119c-7.77-29.53-20.69-56.94-37.72-81.28ZM384.61,331.59l76.97,76.97c17.09-23,30.42-48.95,39.07-76.97h-116.04ZM325.16,55.83v12.65s0,.01,0,.02v-12.65s0-.01,0-.02Z" style="fill:#252f6c;"/><path d="M401.06,466.9c-23.16,15.96-48.81,27.98-75.89,35.56v-111.45l13.71,13.72,4.12,4.11h0s58.06,58.06,58.06,58.06Z" style="fill:#252f6c;"/><path d="M246.42,511.81c2.12.09,4.25.14,6.38.17-2.13-.03-4.25-.09-6.38-.17Z" style="fill:#d32030;"/><path d="M407.08,49.36l-61.86,61.86h0s-6.02,6.02-6.02,6.02l-14.03,14.03V55.85s0-.01,0-.02V9.53c29.48,8.25,57.23,21.75,81.92,39.83Z" style="fill:#252f6c;"/><path d="M506.33,309.66c3.77-17.64,5.67-35.62,5.67-53.66,0-14.78-1.31-29.25-3.72-43.35h-204.3l-.74.74v-.74h.74l51.32-51.32h.01l83.97-83.98c-8.25-8.47-17.08-16.35-26.42-23.6l-65.59,65.6h0s-6.34,6.35-6.34,6.35l-37.68,37.67h0s-.01,0-.01,0V4.42C288.2,1.61,272.71.05,256.84,0c-.28,0-.56,0-.84,0-4.26,0-8.51.11-12.77.31-12.43.63-24.79,2.15-37,4.56v207.02l.76.76h-.76v-.76l-21.17-21.16h-.75v-.76l-112.09-112.09c-8.25,8.51-15.9,17.57-22.91,27.12l107.67,107.65H3.73c-2.4,14.1-3.73,28.57-3.73,43.35,0,18.41,1.99,36.35,5.68,53.66h199.78l-21.15,21.16v.77h-.77l-106.96,106.95c8.44,8.31,17.44,16.02,26.94,23.08l102.71-102.71v148.21c12.21,2.41,24.57,3.93,37,4.55,1.07.05,2.13.1,3.19.14,2.13.08,4.25.14,6.38.17,1.06.01,2.13.02,3.2.02.28,0,.56,0,.84-.01,15.86-.04,31.35-1.61,46.4-4.42v-194.46h.01s42.05,42.05,42.05,42.05l8,8v.02l78.66,78.66c8.58-8.12,16.59-16.83,23.98-26.04l-84.2-84.21-21.93-21.93h156.52ZM206.23,309.66h-.76l.76-.77v.77Z" style="fill:#e51d35;"/></svg>