<svg xmlns="http://www.w3.org/2000/svg" width="32.001" height="32.001" viewBox="0 0 32.001 32.001">
  <g id="Group_556" data-name="Group 556" transform="translate(-177.758 -50.375)">
    <rect id="Rectangle_531" data-name="Rectangle 531" width="32" height="32" transform="translate(177.758 50.375)" fill="none"/>
    <path id="Path_419" data-name="Path 419" d="M208.077,64.648a1.682,1.682,0,0,0,1.682-1.679V60.241a1.69,1.69,0,0,0-.823-1.445l-13.267-7.874-.114-.071a3.673,3.673,0,0,0-3.637.023L178.581,58.8a1.688,1.688,0,0,0-.822,1.445v2.728a1.682,1.682,0,0,0,1.681,1.679h3.319V74.922h-1.273a3.731,3.731,0,0,0-3.727,3.726v2.045a1.684,1.684,0,0,0,1.681,1.683h28.637a1.684,1.684,0,0,0,1.682-1.683V78.648a3.731,3.731,0,0,0-3.728-3.726h-1.272V64.648Zm-28.318-4.226,13.152-7.813a1.634,1.634,0,0,1,1.666-.014l13.182,7.828v2.225h-28Zm10,14.5V64.648h8V74.922Zm-5-10.274h3V74.922h-3Zm23,14v1.728h-28V78.648a1.728,1.728,0,0,1,1.727-1.726h24.545A1.729,1.729,0,0,1,207.759,78.648Zm-5-3.726h-3V64.648h3Z"/>
  </g>
</svg>
