<svg xmlns="http://www.w3.org/2000/svg" width="32" height="32.001" viewBox="0 0 32 32.001">
  <g id="Group_541" data-name="Group 541" transform="translate(-275.468 -39.323)">
    <rect id="Rectangle_520" data-name="Rectangle 520" width="32" height="32" transform="translate(275.468 39.323)" fill="none"/>
    <g id="Group_540" data-name="Group 540">
      <path id="Path_406" data-name="Path 406" d="M301.78,71.323a1,1,0,0,1-.613-.21l-9.7-7.524-9.7,7.524a1,1,0,0,1-1.614-.79v-30a1,1,0,0,1,1-1H301.78a1,1,0,0,1,1,1v30a1,1,0,0,1-1,1Zm-10.312-10a1.006,1.006,0,0,1,.613.21l8.7,6.749V41.323H282.155V68.282l8.7-6.749A1.009,1.009,0,0,1,291.468,61.323Z"/>
    </g>
  </g>
</svg>
