<svg xmlns="http://www.w3.org/2000/svg" width="32" height="32" viewBox="0 0 32 32">
  <g id="Group_553" data-name="Group 553" transform="translate(66.578 -50.375)">
    <rect id="Rectangle_525" data-name="Rectangle 525" width="32" height="32" transform="translate(-66.578 50.375)" fill="none"/>
    <g id="Group_551" data-name="Group 551">
      <path id="Path_414" data-name="Path 414" d="M-50.578,81.946a15.517,15.517,0,0,1-15.5-15.5,15.517,15.517,0,0,1,15.5-15.5,15.517,15.517,0,0,1,15.5,15.5A15.517,15.517,0,0,1-50.578,81.946Zm0-29a13.516,13.516,0,0,0-13.5,13.5,13.515,13.515,0,0,0,13.5,13.5,13.515,13.515,0,0,0,13.5-13.5A13.515,13.515,0,0,0-50.578,52.946Z"/>
    </g>
    <rect id="Rectangle_526" data-name="Rectangle 526" width="4" height="4" rx="2" transform="translate(-54.82 59.376) rotate(45)"/>
    <rect id="Rectangle_527" data-name="Rectangle 527" width="4" height="4" rx="2" transform="translate(-46.335 67.861) rotate(45)"/>
    <g id="Group_552" data-name="Group 552">
      <path id="Path_415" data-name="Path 415" d="M-56.234,73.1a1,1,0,0,1-.707-.293,1,1,0,0,1,0-1.415l11.313-11.313a1,1,0,0,1,1.414,0,1,1,0,0,1,0,1.414L-55.527,72.811A1,1,0,0,1-56.234,73.1Z"/>
    </g>
  </g>
</svg>
