<svg xmlns="http://www.w3.org/2000/svg" width="0" height="0">
    <defs>
        <symbol id="icn-basic-details" viewBox="0 0 16 16">
            <g transform="translate(342.337 347.702)">
                <g>
                    <path d="M-333.024-347.7h-7.063v16h11.5v-11.5Zm.066,2.2,2.13,2.16h-2.13Zm-5.629,12.3v-13h4.129v4.363h4.371v8.637Z"/>
                </g>
                <g >
                    <path  d="M-336.587-340.2h4.5a.75.75,0,0,1,.75.75h0a.75.75,0,0,1-.75.75h-4.5a.75.75,0,0,1-.75-.75h0A.75.75,0,0,1-336.587-340.2Z"/>
                </g>
                <g >
                    <path d="M-336.587-337.2h4.5a.75.75,0,0,1,.75.75h0a.75.75,0,0,1-.75.75h-4.5a.75.75,0,0,1-.75-.75h0A.75.75,0,0,1-336.587-337.2Z"/>
                </g>
            </g>
        </symbol>
        <symbol id="icn-variants-options" viewBox="0 0 15.555 12.5">
            <g>
                <rect width="15.555" height="1.5"/>
            </g>
            <g  transform="translate(0 5.528)">
                <rect width="15.555" height="1.5"/>
            </g>
            <g transform="translate(0 11)">
                <rect width="15.555" height="1.5"/>
            </g>
        </symbol>
        <symbol id="icn-media" viewBox="0 0 16 16">
            <g transform="translate(-385.375 -360.002)">
                <path d="M399.266,360.752H387.484a1.36,1.36,0,0,0-1.359,1.359v11.782a1.36,1.36,0,0,0,1.359,1.359h11.782a1.36,1.36,0,0,0,1.359-1.359V362.111A1.36,1.36,0,0,0,399.266,360.752Z" fill="none" stroke="currentColor" stroke-width="1.5"/>
                <path d="M395.9,368.909a.442.442,0,0,0-.623,0l-1.018,1.017-1.9-1.9a.442.442,0,0,0-.624,0l-3.1,3.1a.443.443,0,0,0,.31.752H397.8a.442.442,0,0,0,.314-.756Z"/>
                <circle cx="1.327" cy="1.327" r="1.327" transform="translate(393.376 364.8)"/>
            </g>
        </symbol>
        <symbol id="icn-specifications" viewBox="0 0 16 15.627">
            <g transform="translate(-415.716 -360.838)">
                <rect width="14.5" height="14.127" rx="1" transform="translate(416.466 361.588)" fill="none" stroke="currentColor" stroke-width="1.5"/>
                <line x2="14.851" transform="translate(416.115 364.622)" fill="none" stroke="currentColor" stroke-width="1.5"/>
                <line x2="8.302" transform="translate(419.565 367.67)" fill="none" stroke="currentColor" stroke-width="1"/>
                <line x2="8.302" transform="translate(419.565 370.002)" fill="none" stroke="currentColor" stroke-width="1"/>
                <line x2="8.302" transform="translate(419.565 372.437)" fill="none" stroke="currentColor" stroke-width="1"/>
            </g>
        </symbol>
        <symbol id="icn-tax-shipping" viewBox="0 0 16.793 13.475">
            <g transform="translate(-355.626 -361.428)">
                <rect  width="1.016" height="5.419" rx="0.508" transform="translate(362.883 364.662) rotate(45)"/>
                <rect  width="1.355" height="1.355" rx="0.677" transform="translate(359.89 364.543) rotate(45)"/>
                <rect  width="1.355" height="1.355" rx="0.677" transform="translate(362.764 367.416) rotate(45)"/>
                <path  d="M369.467,365.477h-2.792V361.8H356v11.358h2.686a1.671,1.671,0,0,0,3.276,0h5.414a1.671,1.671,0,0,0,3.276,0h1.391v-4.107C372.044,367.63,370.89,365.477,369.467,365.477Zm-9.143,8.353a1,1,0,1,1,1-1A1,1,0,0,1,360.324,373.83Zm5.682-1.337h-4.044a1.672,1.672,0,0,0-3.276,0h-2.017V362.471h9.337Zm3.008,1.337a1,1,0,1,1,1-1A1,1,0,0,1,369.014,373.83Zm2.362-1.337h-.724a1.672,1.672,0,0,0-3.276,0h-.68v-6.348h2.771c1.054,0,1.908,1.855,1.909,2.909Z" stroke="currentColor" stroke-width="0.75"/>
            </g>
        </symbol>
        <symbol id="icn-digital-files"  viewBox="0 0 24.98 20">
            <g id="Group_11" data-name="Group 11" transform="translate(-600.477 -416.43)">
                <g id="Group_9" data-name="Group 9">
                    <path id="Path_44" data-name="Path 44" d="M623.637,417.04a1.908,1.908,0,0,0-1.42-.61h-18.5a1.908,1.908,0,0,0-1.42.61,1.963,1.963,0,0,0-.6,1.41v12.77a2.032,2.032,0,0,0,2.02,1.99h18.5a2.015,2.015,0,0,0,2.01-1.99V418.45A1.952,1.952,0,0,0,623.637,417.04Zm-1.06,14.18a.311.311,0,0,1-.11.23.321.321,0,0,1-.25.11h-18.5a.321.321,0,0,1-.25-.11.326.326,0,0,1-.12-.23V418.45a.285.285,0,0,1,.12-.24.347.347,0,0,1,.25-.1h18.5a.347.347,0,0,1,.25.1.277.277,0,0,1,.11.24Zm2.64,3.8a.807.807,0,0,0-.59-.24h-23.3a.837.837,0,0,0-.61.24.833.833,0,0,0,0,1.17.837.837,0,0,0,.61.24h23.3a.827.827,0,0,0,.59-1.41Z"/>
                </g>
                <g id="Group_10" data-name="Group 10">
                    <line id="Line_1" data-name="Line 1" x2="5.158" transform="translate(608.235 422.312)" fill="none" stroke="#000" stroke-linecap="round" stroke-width="1.3"/>
                    <line id="Line_2" data-name="Line 2" x2="1.259" transform="translate(616.568 422.312)" fill="none" stroke="#000" stroke-linecap="round" stroke-width="1.3"/>
                    <line id="Line_3" data-name="Line 3" x2="9.721" transform="translate(608.107 425.221)" fill="none" stroke="#000" stroke-linecap="round" stroke-width="1.3"/>
                    <line id="Line_4" data-name="Line 4" x2="9.721" transform="translate(608.107 428.129)" fill="none" stroke="#000" stroke-linecap="round" stroke-width="1.3"/>
                </g>
            </g>
        </symbol>
        <symbol id="icn-digital-links"  viewBox="0 0 24.98 20">
            <g id="Group_8" data-name="Group 8" transform="translate(-566.928 -416.43)">
                <g id="Group_7" data-name="Group 7">
                    <path id="Path_41" data-name="Path 41" d="M582.524,426.115l1.721-1.463a2.987,2.987,0,1,0-3.87-4.551l-2.483,2.111a2.989,2.989,0,0,0-.341,4.21,2.93,2.93,0,0,0,.522.483l1.329-1.13a1.355,1.355,0,0,1-.455-2.322l2.483-2.111a1.358,1.358,0,0,1,1.759,2.069l-.729.62a3.663,3.663,0,0,1,.064,2.084Z"/>
                    <path id="Path_42" data-name="Path 42" d="M576.311,423.555l-1.72,1.463a2.987,2.987,0,0,0,3.87,4.552l2.483-2.111a2.984,2.984,0,0,0-.182-4.694l-1.329,1.13a1.341,1.341,0,0,1,.61.409,1.359,1.359,0,0,1-.155,1.914l-2.483,2.111a1.358,1.358,0,0,1-1.759-2.069l.73-.621a3.655,3.655,0,0,1-.065-2.084Z"/>
                </g>
                <path id="Path_43" data-name="Path 43" d="M590.088,417.04a1.908,1.908,0,0,0-1.42-.61h-18.5a1.908,1.908,0,0,0-1.42.61,1.963,1.963,0,0,0-.6,1.41v12.77a2.032,2.032,0,0,0,2.02,1.99h18.5a2.015,2.015,0,0,0,2.01-1.99V418.45A1.952,1.952,0,0,0,590.088,417.04Zm-1.06,14.18a.311.311,0,0,1-.11.23.321.321,0,0,1-.25.11h-18.5a.321.321,0,0,1-.25-.11.326.326,0,0,1-.12-.23V418.45a.285.285,0,0,1,.12-.24.347.347,0,0,1,.25-.1h18.5a.347.347,0,0,1,.25.1.277.277,0,0,1,.11.24Zm2.64,3.8a.807.807,0,0,0-.59-.24h-23.3a.837.837,0,0,0-.61.24.833.833,0,0,0,0,1.17.837.837,0,0,0,.61.24h23.3a.827.827,0,0,0,.59-1.41Z"/>
            </g>
        </symbol>
    </defs>
</svg>