<svg id="Group_562" data-name="Group 562" xmlns="http://www.w3.org/2000/svg" width="32" height="32" viewBox="0 0 32 32">
  <rect id="Rectangle_534" data-name="Rectangle 534" width="32" height="32" fill="none"/>
  <g id="Group_561" data-name="Group 561">
    <path id="Path_424" data-name="Path 424" d="M24.97,6.981a6.909,6.909,0,0,0-1.894.272A9.225,9.225,0,0,0,8.93,7.245a6.93,6.93,0,0,0-1.894-.264A7.044,7.044,0,0,0,.021,14.039c0,5.107,5.4,10.053,6.017,10.6a1.5,1.5,0,0,0,2,0,25.6,25.6,0,0,0,2.185-2.283,34.513,34.513,0,0,0,4.651,5.272,1.691,1.691,0,0,0,2.25,0,34,34,0,0,0,4.666-5.259,24.428,24.428,0,0,0,2.181,2.273,1.5,1.5,0,0,0,2,0c.616-.549,6.015-5.506,6.015-10.6A7.043,7.043,0,0,0,24.97,6.981Zm.309,6.089a1.19,1.19,0,0,1-.224,2.337A10.682,10.682,0,0,0,25.29,13.3C25.29,13.22,25.281,13.146,25.279,13.07ZM7.037,22.835c-1.164-1.124-5.016-5.122-5.016-8.8A5.043,5.043,0,0,1,7.036,8.981a4.937,4.937,0,0,1,.7.066A9.331,9.331,0,0,0,7,11.005a3.212,3.212,0,0,0,.015,6.423,3.206,3.206,0,0,0,.491-.052A19.489,19.489,0,0,0,9.075,20.6,24.647,24.647,0,0,1,7.037,22.835Zm-.085-7.42a1.192,1.192,0,0,1-.231-2.351c0,.078-.012.154-.012.232A10.5,10.5,0,0,0,6.952,15.415ZM16,25.944C14.8,24.817,8.709,18.827,8.709,13.3a7.291,7.291,0,1,1,14.581,0C23.29,18.883,17.228,24.8,16,25.944Zm8.972-3.1a24.257,24.257,0,0,1-2.032-2.219A19.217,19.217,0,0,0,24.5,17.369a3.069,3.069,0,0,0,.448.059A3.21,3.21,0,0,0,25,11.009a9.324,9.324,0,0,0-.737-1.971,4.927,4.927,0,0,1,.71-.057,5.041,5.041,0,0,1,5.013,5.058C29.983,17.28,26.872,21.044,24.973,22.839Z"/>
    <path id="Path_425" data-name="Path 425" d="M15.975,9.491a4.05,4.05,0,1,0,4.049,4.05A4.054,4.054,0,0,0,15.975,9.491Zm0,6.1a2.05,2.05,0,1,1,2.049-2.049A2.052,2.052,0,0,1,15.975,15.59Z"/>
  </g>
</svg>
