<svg xmlns="http://www.w3.org/2000/svg" width="32" height="32.001" viewBox="0 0 32 32.001">
  <g id="Group_536" data-name="Group 536" transform="translate(-164.758 -46.322)">
    <rect id="Rectangle_518" data-name="Rectangle 518" width="32" height="32" transform="translate(164.758 46.323)" fill="none"/>
    <path id="Path_403" data-name="Path 403" d="M193.887,51.322h-3.866v-3.5a1.5,1.5,0,0,0-1.5-1.5H172.854a1.5,1.5,0,0,0-1.5,1.5v9a1.5,1.5,0,0,0,1.5,1.5h15.667a1.5,1.5,0,0,0,1.5-1.5v-3.5h2.866v8h-12.2a1,1,0,0,0-1,1v4h-1a1.5,1.5,0,0,0-1.5,1.5v9a1.5,1.5,0,0,0,1.5,1.5h4a1.5,1.5,0,0,0,1.5-1.5v-9a1.5,1.5,0,0,0-1.5-1.5h-1v-3h12.2a1,1,0,0,0,1-1v-10A1,1,0,0,0,193.887,51.322Zm-5.866,5H173.354v-8h14.667Zm-5.834,20h-3v-8h3Z"/>
  </g>
</svg>
