<svg xmlns="http://www.w3.org/2000/svg" width="0" height="0">
    <defs>
        <symbol id="location" viewBox="0 0 20 20">
            <path d="M10 0C5.589 0 2 3.589 2 8c0 7.495 7.197 11.694 7.504 11.869a.996.996 0 0 0 .992 0C10.803 19.694 18 15.495 18 8c0-4.412-3.589-8-8-8m-.001 17.813C8.478 16.782 4 13.296 4 8c0-3.31 2.691-6 6-6s6 2.69 6 6c0 5.276-4.482 8.778-6.001 9.813M10 10c-1.103 0-2-.897-2-2s.897-2 2-2 2 .897 2 2-.897 2-2 2m0-6C7.794 4 6 5.794 6 8s1.794 4 4 4 4-1.794 4-4-1.794-4-4-4"></path>
        </symbol>

        <symbol id="world" viewBox="0 0 20 20">
            <path d="M14.96 11h2.97c-.38 3.03-2.46 5.532-5.252 6.53 1.025-1.465 2.078-3.635 2.282-6.53zm-9.92 0c.204 2.895 1.258 5.065 2.283 6.53-2.793-1-4.873-3.5-5.253-6.53h2.97zm0-2H2.07a8.013 8.013 0 015.253-6.53C6.298 3.934 5.243 6.104 5.04 9zm2.002 0C7.328 5.506 9.06 3.302 10 2.346c.94.956 2.672 3.16 2.96 6.654H7.04zm0 2h5.917c-.29 3.494-2.02 5.7-2.96 6.653-.94-.956-2.674-3.16-2.96-6.653zm7.9-2c-.207-2.895-1.244-5.073-2.268-6.53A8.003 8.003 0 0117.93 9h-2.99zM0 10c0 5.513 4.486 10 10 10s10-4.487 10-10c0-5.514-4.486-10-10-10S0 4.486 0 10z" />
        </symbol>

        <symbol id="sample-box" viewBox="0 0 20 20">
            <path fill="#ffffff" d="M1 5h18v14H1V5z"></path>
            <path d="M19.9 4.58c-.003-.008 0-.018-.005-.027l-2-4A.998.998 0 0 0 17 0H3a1 1 0 0 0-.895.553l-2 4c-.004.01-.002.02-.006.028-.06.13-.1.27-.1.42v14a1 1 0 0 0 1 1h18c.55 0 1-.447 1-1V5c0-.15-.04-.29-.1-.42zM2 18V6h7v1a1 1 0 0 0 2 0V6h7v12H2zM3.618 2H9v2H2.618l1-2zm13.764 2H11V2h5.382l1 2zM9 14H5a1 1 0 0 0 0 2h4a1 1 0 0 0 0-2zm-4-2h2a1 1 0 0 0 0-2H5a1 1 0 0 0 0 2z"></path>
        </symbol>

        <symbol id="sample-envelope" viewBox="0 0 20 20">
            <path fill="#ffffff" d="M1 3v14h18l-4-3V6l4-3z"></path>
            <path d="M19 2H1a1 1 0 0 0-1 1v14a1 1 0 0 0 1 1h18a1 1 0 0 0 1-1V3a1 1 0 0 0-1-1zM9 12H5a1 1 0 1 0 0 2h4a1 1 0 1 0 0-2m-4-2h2a1 1 0 1 0 0-2H5a1 1 0 1 0 0 2M2 4h14.001L14.4 5.2a1 1 0 0 0-.4.8v8a1 1 0 0 0 .4.8l1.601 1.2H2V4zm14 9.5v-7L18 5v10l-2-1.5z"></path>
        </symbol>


        <symbol id="in-progress" viewBox="0 0 512 512">
            <g>
                <g>
                    <circle cx="268" cy="59.9" r="59.9" />
                    <circle cx="268" cy="476.1" r="35.9" />
                    <circle cx="120.8" cy="120.8" r="53.9" />
                    <circle cx="415.1" cy="415.1" r="29.9" />
                    <circle cx="59.9" cy="268" r="47.9" />
                    <circle cx="476.1" cy="268" r="23.9" />
                    <path d="M91.2,385.5c-16.4,16.4-16.4,42.9,0,59.3c16.4,16.4,42.9,16.4,59.3,0c16.4-16.4,16.4-42.9,0-59.3
			C134.1,369.1,107.6,369,91.2,385.5z" />
                    <circle cx="415.1" cy="120.8" r="18" />
                </g>
            </g>
        </symbol>

        <symbol id="readyforshipping" viewBox="0 0 512 512">
            <g>
                <path d="M256.7,472.2L0,360.9v-192L272,24.4l240,94.3v191.9l-43.2,27.3l-8.8-14l35.5-22.5V129.9L273,42.5L16.5,178.8
		v171.3l238.8,103.5l51.2-32.4l8.8,14L256.7,472.2z" />
                <path d="M256,471.1c-1.1,0-2.3-0.2-3.3-0.7L5,363.1c-3-1.3-5-4.3-5-7.6V173.8c0-4.6,3.7-8.3,8.3-8.3
		c1.1,0,2.1,0.2,3.1,0.6l247.7,99.1c3.1,1.3,5.2,4.3,5.2,7.7v189.9C264.3,467.4,260.6,471.1,256,471.1z M16.5,350.1l231.2,100.2
		V278.5L16.5,186V350.1z" />
                <path d="M256,471.1c-4.6,0-8.3-3.7-8.3-8.3V272.9c0-2.9,1.5-5.6,4-7.1l247.7-148.6c3.9-2.3,9-1.1,11.3,2.8
		c0.8,1.3,1.2,2.8,1.2,4.3V306c0,2.8-1.4,5.5-3.8,7l-39.3,24.9l-8.8-14l35.5-22.5V138.9L264.3,277.6v170.3l42.2-26.7l8.8,14
		l-54.9,34.7C259.1,470.6,257.6,471.1,256,471.1L256,471.1z" />
                <path d="M388.1,487.6c-59.3,0-107.4-48.1-107.4-107.4s48.1-107.4,107.4-107.4S495.5,321,495.5,380.3
		C495.4,439.5,447.4,487.6,388.1,487.6z" />
                <path fill="#ffffff" d="M372.6,432.9l-53.9-43.1l10.3-12.9l41.6,33.3l66.3-74.6l12.3,11L372.6,432.9z" />
                <path d="M66.1,340.6v14.9L24.8,339v-14.9L66.1,340.6z" />
                <path d="M66.1,315v14.9l-41.3-16.5v-14.9L66.1,315z" />
                <path d="M156.9,297.7c-1.1,0-2.1-0.2-3.1-0.6l-41.3-16.5c-3.1-1.3-5.2-4.3-5.2-7.7v-56.2c0-4.6,3.7-8.3,8.3-8.3
		c1.1,0,2.1,0.2,3.1,0.6l41.3,16.5c3.1,1.3,5.2,4.3,5.2,7.7v56.2C165.2,294,161.5,297.7,156.9,297.7L156.9,297.7z" />
                <path d="M156.9,241.5c-1.1,0-2.1-0.2-3.1-0.6l-41.3-16.5c-4.2-1.7-6.3-6.5-4.6-10.7c0.7-1.6,1.8-3,3.3-4l242-149.9
		c2.2-1.4,4.9-1.6,7.4-0.7l41.7,16.4c4.2,1.7,6.2,6.6,4.5,10.8c-0.7,1.6-1.8,2.9-3.3,3.9l-242.3,150
		C159.9,241.1,158.4,241.5,156.9,241.5L156.9,241.5z" />
            </g>
        </symbol>
        <symbol id="shipped" viewBox="0 0 512 512">
            <g>
                <g>
                    <g>
                        <path d="M119.5,337.1c-28.2,0-51.2,23-51.2,51.2s23,51.2,51.2,51.2s51.2-23,51.2-51.2C170.7,360,147.7,337.1,119.5,337.1z
				 M119.5,422.4c-18.8,0-34.1-15.3-34.1-34.1c0-18.8,15.3-34.1,34.1-34.1s34.1,15.3,34.1,34.1S138.3,422.4,119.5,422.4z" />
                    </g>
                </g>
                <g>
                    <g>
                        <path d="M409.6,337.1c-28.2,0-51.2,23-51.2,51.2s23,51.2,51.2,51.2s51.2-23,51.2-51.2C460.8,360,437.8,337.1,409.6,337.1z
				 M409.6,422.4c-18.8,0-34.1-15.3-34.1-34.1c0-18.8,15.3-34.1,34.1-34.1c18.8,0,34.1,15.3,34.1,34.1S428.4,422.4,409.6,422.4z" />
                    </g>
                </g>
                <g>
                    <g>
                        <path d="M510.6,289.8l-76.8-119.5c-1.6-2.4-4.3-3.9-7.2-3.9h-93.9c-4.7,0-8.5,3.8-8.5,8.5v213.3c0,4.7,3.8,8.5,8.5,8.5h34.1
				v-17.1h-25.6V183.5H422l72.9,113.4v82.8h-42.7v17.1h51.2c4.7,0,8.5-3.8,8.5-8.5v-93.9C512,292.8,511.5,291.2,510.6,289.8z" />
                    </g>
                </g>
                <g>
                    <g>
                        <path d="M443.8,200.5H367c-4.7,0-8.5,3.8-8.5,8.5v76.8c0,4.7,3.8,8.5,8.5,8.5h128v-17.1L443.8,200.5z" />
                    </g>
                </g>
                <g>
                    <g>
                        <path d="M332.8,106.7H8.5c-4.7,0-8.5,3.8-8.5,8.5v273.1c0,4.7,3.8,8.5,8.5,8.5h68.3v-17.1H17.1v-256h307.2v256H162.1v17.1h170.7
				c4.7,0,8.5-3.8,8.5-8.5V115.2C341.3,110.5,337.5,106.7,332.8,106.7z" />
                    </g>
                </g>
                <g>
                    <g>
                        <path d="M8.5,345.6h42.7c4.7,0,8.5,3.8,8.5,8.5l0,0c0,4.7-3.8,8.5-8.5,8.5H8.5V345.6z" />
                    </g>
                </g>
                <g>
                    <g>
                        <path d="M187.7,345.6h136.5v17.1H187.7c-4.7,0-8.5-3.8-8.5-8.5l0,0C179.2,349.4,183,345.6,187.7,345.6z" />
                    </g>
                </g>
                <g>
                    <g>
                        <path d="M477.9,345.6h25.6v17.1h-25.6c-4.7,0-8.5-3.8-8.5-8.5l0,0C469.3,349.4,473.2,345.6,477.9,345.6z" />
                    </g>
                </g>
                <g>
                    <g>
                        <path d="M42.7,140.8h290.1v17.1H42.7c-4.7,0-8.5-3.8-8.5-8.5l0,0C34.1,144.6,38,140.8,42.7,140.8z" />
                    </g>
                </g>
                <g>
                    <g>
                        <path d="M119.5,379.7L119.5,379.7c4.7,0,8.5,3.8,8.5,8.5l0,0c0,4.7-3.8,8.5-8.5,8.5l0,0c-4.7,0-8.5-3.8-8.5-8.5l0,0
				C110.9,383.6,114.8,379.7,119.5,379.7z" />
                    </g>
                </g>
                <g>
                    <g>
                        <path d="M409.6,379.7L409.6,379.7c4.7,0,8.5,3.8,8.5,8.5l0,0c0,4.7-3.8,8.5-8.5,8.5l0,0c-4.7,0-8.5-3.8-8.5-8.5l0,0
				C401.1,383.6,404.9,379.7,409.6,379.7z" />
                    </g>
                </g>
                <g>
                    <g>
                        <path d="M42.7,72.5h102.4c4.7,0,8.5,3.8,8.5,8.5l0,0c0,4.7-3.8,8.5-8.5,8.5H42.7c-4.7,0-8.5-3.8-8.5-8.5l0,0
				C34.1,76.4,38,72.5,42.7,72.5z" />
                    </g>
                </g>
                <g>
                    <g>
                        <path d="M8.5,72.5L8.5,72.5c4.7,0,8.5,3.8,8.5,8.5l0,0c0,4.7-3.8,8.5-8.5,8.5l0,0C3.8,89.5,0,85.7,0,81l0,0
				C0,76.4,3.8,72.5,8.5,72.5z" />
                    </g>
                </g>
            </g>
        </symbol>
        <symbol id="delivered" viewBox="0 0 512 512">
            <g>
                <path d="M256,0C114.8,0,0,114.8,0,256s114.8,256,256,256s256-114.8,256-256S397.2,0,256,0z" />
                <path fill="#ffffff" d="M211.6,336.5c2.1,2.2,5,3.4,8,3.4c2.9,0,5.6-1.1,7.7-3.1l153.3-145.4c2.2-2.1,3.4-4.8,3.5-7.8s-1-5.8-3.1-8
		l0,0c-2.1-2.2-4.8-3.4-7.8-3.5s-5.8,1-8,3.1L220,313l-73-74.9c-2.2-2.2-5.1-3.4-8-3.4c-2.8,0-5.6,1.1-7.8,3.2
		c-2.1,2.1-3.3,4.9-3.4,7.9c0,3,1.1,5.8,3.2,8L211.6,336.5z" />
            </g>
        </symbol>

        <symbol id="date" viewBox="0 0 512 512">
            <g>
                <path d="M512,93c0-28.3-22.9-51.2-51.2-51.2h-36.6V9.4c0-5.2-4.2-9.4-9.4-9.4l0,0c-5.2,0-9.4,4.2-9.4,9.4v32.4H106.6
		V9.4c0-5.2-4.2-9.4-9.4-9.4l0,0c-5.2,0-9.4,4.2-9.4,9.4v32.4H51.2C22.9,41.8,0,64.7,0,93v367.8C0,489.1,22.9,512,51.2,512h409.6
		c28.3,0,51.2-22.9,51.2-51.2V93z M493.2,154.6H18.8V93c0-17.9,14.5-32.4,32.4-32.4h36.6V93c0,5.2,4.2,9.4,9.4,9.4l0,0
		c5.2,0,9.4-4.2,9.4-9.4V60.6h298.8V93c0,5.2,4.2,9.4,9.4,9.4l0,0c5.2,0,9.4-4.2,9.4-9.4V60.6h36.6c17.9,0,32.4,14.5,32.4,32.4
		L493.2,154.6L493.2,154.6z" />
                <g>
                    <path fill="#fff" d="M76.8,249.7L76.8,249.7c0,6.6,5.4,12,12,12l0,0c6.6,0,12-5.4,12-12l0,0c0-6.6-5.4-12-12-12l0,0
			C82.2,237.7,76.8,243.1,76.8,249.7z" />
                    <path fill="#fff" d="M160.4,249.7L160.4,249.7c0,6.6,5.4,12,12,12l0,0c6.6,0,12-5.4,12-12l0,0c0-6.6-5.4-12-12-12l0,0
			C165.8,237.7,160.4,243.1,160.4,249.7z" />
                    <path fill="#fff" d="M244,249.7L244,249.7c0,6.6,5.4,12,12,12l0,0c6.6,0,12-5.4,12-12l0,0c0-6.6-5.4-12-12-12l0,0
			C249.4,237.7,244,243.1,244,249.7z" />
                    <path fill="#fff" d="M327.6,249.7L327.6,249.7c0,6.6,5.4,12,12,12l0,0c6.6,0,12-5.4,12-12l0,0c0-6.6-5.4-12-12-12l0,0
			C333,237.7,327.6,243.1,327.6,249.7z" />
                    <path fill="#fff" d="M411.2,249.7L411.2,249.7c0,6.6,5.4,12,12,12l0,0c6.6,0,12-5.4,12-12l0,0c0-6.6-5.4-12-12-12l0,0
			C416.6,237.7,411.2,243.1,411.2,249.7z" />
                    <path fill="#fff" d="M76.8,333.3L76.8,333.3c0,6.6,5.4,12,12,12l0,0c6.6,0,12-5.4,12-12l0,0c0-6.6-5.4-12-12-12l0,0
			C82.2,321.3,76.8,326.7,76.8,333.3z" />
                    <path fill="#fff" d="M160.4,333.3L160.4,333.3c0,6.6,5.4,12,12,12l0,0c6.6,0,12-5.4,12-12l0,0c0-6.6-5.4-12-12-12l0,0
			C165.8,321.3,160.4,326.7,160.4,333.3z" />
                    <path fill="#fff" d="M244,333.3L244,333.3c0,6.6,5.4,12,12,12l0,0c6.6,0,12-5.4,12-12l0,0c0-6.6-5.4-12-12-12l0,0
			C249.4,321.3,244,326.7,244,333.3z" />
                    <path fill="#fff" d="M327.6,333.3L327.6,333.3c0,6.6,5.4,12,12,12l0,0c6.6,0,12-5.4,12-12l0,0c0-6.6-5.4-12-12-12l0,0
			C333,321.3,327.6,326.7,327.6,333.3z" />
                    <path fill="#fff" d="M76.8,416.9L76.8,416.9c0,6.6,5.4,12,12,12l0,0c6.6,0,12-5.4,12-12l0,0c0-6.6-5.4-12-12-12l0,0
			C82.2,404.9,76.8,410.3,76.8,416.9z" />
                    <path fill="#fff" d="M160.4,416.9L160.4,416.9c0,6.6,5.4,12,12,12l0,0c6.6,0,12-5.4,12-12l0,0c0-6.6-5.4-12-12-12l0,0
			C165.8,404.9,160.4,410.3,160.4,416.9z" />
                    <path fill="#fff" d="M244,416.9L244,416.9c0,6.6,5.4,12,12,12l0,0c6.6,0,12-5.4,12-12l0,0c0-6.6-5.4-12-12-12l0,0
			C249.4,404.9,244,410.3,244,416.9z" />
                    <path fill="#fff" d="M327.6,416.9L327.6,416.9c0,6.6,5.4,12,12,12l0,0c6.6,0,12-5.4,12-12l0,0c0-6.6-5.4-12-12-12l0,0
			C333,404.9,327.6,410.3,327.6,416.9z" />
                    <path fill="#fff" d="M411.2,333.3L411.2,333.3c0,6.6,5.4,12,12,12l0,0c6.6,0,12-5.4,12-12l0,0c0-6.6-5.4-12-12-12l0,0
			C416.6,321.3,411.2,326.7,411.2,333.3z" />
                </g>
            </g>
        </symbol>
        <symbol id="total" viewBox="0 0 512 512">
            <g>
                <path d="M99.2,454.7h119l0.4,0.4c32,34.2,77.1,53.9,123.8,53.9c93.5,0,169.6-76.1,169.6-169.6
		c0-75.9-51.1-143.1-124.3-163.4l-0.6-0.2l-0.2-0.6c-1.2-2.8-2.6-5.5-4.3-8l-1.3-2h28.5c24.8,0,45-20.2,45-45s-20.2-45-45-45h-82.9
		l1.4-2c5.2-7.5,7.9-16.3,7.9-25.4c0-24.8-20.2-45-45-45H45C20.2,3,0,23.2,0,48s20.2,45,45,45h82.9l-1.4,2
		c-5.2,7.5-7.9,16.3-7.9,25.4s2.7,17.9,7.9,25.4l1.4,2H99.2c-24.8,0-45,20.2-45,45c0,13.8,6.2,26.6,17,35.2l1.2,1l-1.2,1
		c-10.8,8.6-17,21.4-17,35.2c0,13.8,6.2,26.6,17,35.2l1.2,1l-1.2,1c-10.8,8.6-17,21.4-17,35.2c0,13.8,6.2,26.6,17,35.2l1.2,1l-1.2,1
		c-10.8,8.6-17,21.4-17,35.2C54.3,434.5,74.4,454.7,99.2,454.7z M409.8,93c15.1,0,27.4,12.3,27.4,27.4s-12.3,27.4-27.4,27.4H163.5
		c-15.1,0-27.4-12.3-27.4-27.4S148.4,93,163.5,93H409.8z M45,75.4c-15.1,0-27.4-12.3-27.4-27.4S29.9,20.6,45,20.6h246.2
		c15.1,0,27.4,12.3,27.4,27.4s-12.3,27.4-27.4,27.4H45z M71.9,192.7c0-15.1,12.3-27.4,27.4-27.4h246.2c4.2,0,8.2,0.9,11.9,2.8
		l6.1,2.9l-6.7-0.6c-4.8-0.4-9.6-0.6-14.3-0.6c-45.3,0-87.9,17.7-120,49.9l-0.4,0.4H99.2C84.1,220.1,71.9,207.8,71.9,192.7z
		 M71.9,265c0-15.1,12.3-27.4,27.4-27.4h107.6l-1.5,2c-11.5,15.8-20.1,33.2-25.6,51.9l-0.3,0.9H99.2C84.1,292.4,71.9,280.1,71.9,265
		z M71.9,337.4c0-15.1,12.3-27.4,27.4-27.4h76.2l-0.2,1.5c-1.5,9.2-2.3,18.6-2.3,27.9c0,7.9,0.6,16,1.7,23.9l0.2,1.4H99.2
		C84.1,364.8,71.9,352.5,71.9,337.4z M99.2,382.4h79.1l0.2,0.9c5,18.5,13,36,23.9,51.9l1.4,2H99.2c-15.1,0-27.4-12.3-27.4-27.4
		S84.1,382.4,99.2,382.4z" />
                <path fill="#ffffff" d="M342.4,419.2c4.8,0,8.8-3.9,8.8-8.8V405l1-0.2c18.4-4.2,31.2-19.3,31.2-36.9c0-20.9-18.4-38-40.9-38
		c-12.9,0-23.4-9.1-23.4-20.4c0-11.2,10.5-20.4,23.4-20.4s23.4,9.1,23.4,20.4c0,4.8,3.9,8.8,8.8,8.8c4.8,0,8.8-3.9,8.8-8.8
		c0-17.5-12.8-32.7-31.2-36.9l-1-0.2v-6.2c0-4.8-3.9-8.8-8.8-8.8c-4.8,0-8.8,3.9-8.8,8.8v6.2l-1,0.2c-18.4,4.2-31.2,19.3-31.2,36.9
		c0,20.9,18.4,38,40.9,38c12.9,0,23.4,9.1,23.4,20.4c0,11.2-10.5,20.4-23.4,20.4s-23.4-9.1-23.4-20.4c0-4.8-3.9-8.8-8.8-8.8
		c-4.8,0-8.8,3.9-8.8,8.8c0,17.5,12.8,32.7,31.2,36.9l1,0.2v5.3C333.6,415.2,337.5,419.2,342.4,419.2z" />
                <path fill="#ffffff" d="M444.8,403.7c1.3,0.7,2.7,1,4.1,1c3.3,0,6.2-1.8,7.8-4.7c9.9-18.6,15.1-39.5,15.1-60.7
		c0-24.8-7.1-49-20.4-69.8c-13-20.3-31.3-36.5-53-46.9c-1.2-0.6-2.5-0.9-3.8-0.9c-1,0-2,0.2-2.9,0.5c-2.2,0.8-4,2.4-5,4.5
		c-2.1,4.4-0.3,9.6,4.1,11.7c38.5,18.5,63.4,58.1,63.4,100.8c0,18.3-4.5,36.4-13,52.4c-1.1,2.1-1.3,4.5-0.6,6.7
		C441.2,400.8,442.7,402.6,444.8,403.7z" />
                <path fill="#ffffff" d="M357.5,227.6h0.6c4.9,0,8.8-3.9,8.8-8.8c0-4.8-3.9-8.8-8.7-8.8h-0.7c-4.8,0-8.8,3.9-8.8,8.8
		S352.6,227.6,357.5,227.6z" />
                <path fill="#ffffff" d="M240,275.1c-1.3-0.7-2.7-1-4.1-1c-0.9,0-1.7,0.1-2.6,0.4c-2.2,0.7-4.1,2.2-5.2,4.3
		c-9.9,18.6-15.1,39.5-15.1,60.7c0,24.8,7.1,49,20.4,69.8c13,20.3,31.3,36.5,53,46.9c1.2,0.6,2.5,0.9,3.8,0.9c3.4,0,6.5-2,7.9-5
		c2.1-4.4,0.3-9.6-4.1-11.7c-38.5-18.5-63.4-58.1-63.4-100.8c0-18.3,4.5-36.4,13-52.4c1.1-2.1,1.3-4.5,0.6-6.7
		C243.6,278,242.1,276.2,240,275.1z" />
                <path fill="#ffffff" d="M327.4,451.2h-0.6l0,0c-4.8,0-8.8,3.9-8.8,8.8c0,2.3,0.9,4.6,2.5,6.2c1.7,1.7,3.9,2.6,6.2,2.6h0.7
		c4.8,0,8.8-3.9,8.8-8.8C336.1,455.1,332.2,451.2,327.4,451.2z" />
            </g>
        </symbol>
        <symbol id="p-status" viewBox="0 0 512 512">
            <circle class="st0" cx="256" cy="256" r="156.5" />
            <g>
                <path class="st0" d="M475.4,129.9c-0.1-0.1-0.2-0.3-0.2-0.4C441.4,70.9,386.8,29,321.5,11.5c-101.8-27.3-211.1,12.9-272.2,100
		l-1.5,2.2l-33.2-8.9c-1-0.3-2-0.4-3-0.4c-2,0-4,0.5-5.8,1.6c-2.7,1.5-4.6,4-5.4,7c-0.4,1.5-0.5,3.1-0.3,4.6l11,76.5
		c0.1,3.1,1.5,5.9,3.8,8s5.2,3.2,8.3,3c4.5-0.2,8.5-3,10.2-7.2c0.1-0.3,0.2-0.5,0.3-0.7l0.8-2.2C50.7,136,88.8,86.8,141.7,56.4
		c53-30.4,114.7-38.5,173.9-22.6c59.2,16,108.8,54,139.5,107.2c3.1,5.7,10.2,7.7,15.7,4.6C476.5,142.6,478.5,135.5,475.4,129.9z" />
                <path class="st0" d="M511.6,399c0.4-1.5,0.5-3.1,0.3-4.7l-11-76.5c-0.2-5.2-3.9-9.7-9-10.8c-5.5-1.2-11.1,1.7-13.2,7
		c-0.1,0.3-0.2,0.5-0.3,0.7l-0.8,2.2c-16.2,59-54.3,108.2-107.2,138.6c-53,30.4-114.7,38.5-173.9,22.6
		C137.2,462.2,87.6,424.2,56.9,371c-1.5-2.8-4-4.7-6.9-5.6c-1.1-0.3-2.2-0.5-3.2-0.5c-1.9,0-3.8,0.5-5.6,1.4
		c-5.6,3.1-7.6,10.1-4.6,15.7c0.1,0.1,0.2,0.3,0.2,0.4c33.8,58.6,88.4,100.5,153.7,118c101.8,27.3,211.1-12.9,272.2-100l1.5-2.2
		l33.2,8.9C503.6,408.8,510,405.1,511.6,399z" />
                <path fill="#ffffff" d="M303.5,302.2v-15.4c0-23.4-19-42.4-42.4-42.4h-10.3c-11,0-19.3-8.3-19.3-19.3v-15.4c0-11,8.3-19.3,19.3-19.3
		h10.3c11,0,19.3,8.3,19.3,19.3c0,3.1,1.1,6.1,3.3,8.3c2.2,2.2,5,3.5,8.1,3.5c6.3,0.1,11.6-5,11.7-11.4v-0.3
		c0-19.5-13.9-36.9-33-41.3l-3-0.7v-9.2c0-3.1-1.1-6.1-3.3-8.3c-2.2-2.2-5-3.5-8.1-3.5h-0.4c-6.4,0.1-11.5,5.4-11.4,11.7v9.3l-3,0.7
		c-19.1,4.4-33,21.8-33,41.2v15.4c0,23.4,19,42.4,42.4,42.4H261c11,0,19.3,8.3,19.3,19.3v15.4c0,11-8.3,19.3-19.3,19.3h-10.3
		c-11,0-19.3-8.3-19.3-19.3c0-3.1-1.1-6.1-3.3-8.3c-2.2-2.2-5-3.5-8.1-3.5c-0.1,0-0.1,0-0.2,0c-6.3,0-11.5,5.1-11.6,11.4v0.3
		c0,19.5,13.9,36.9,33,41.3l3,0.7v9.2c-0.1,6.4,5,11.7,11.4,11.8c6.3,0.1,11.6-5,11.7-11.4v-9.6l3-0.7
		C289.7,339,303.5,321.7,303.5,302.2z" />
            </g>
        </symbol>
        <symbol id="method" viewBox="0 0 512 512">

            <g>
                <path class="st0" d="M502.7,123.4H9.3c-5.1,0-9.3,4.2-9.3,9.3v246.7c0,5.1,4.2,9.3,9.3,9.3h493.4c5.1,0,9.3-4.2,9.3-9.3V132.6
		C512,127.5,507.8,123.4,502.7,123.4z" />
                <path class="st0" d="M461.6,411.2H50.4c-5.1,0-9.3,4.2-9.3,9.3c0,5.1,4.2,9.3,9.3,9.3h411.2c5.1,0,9.3-4.2,9.3-9.3
		C470.9,415.4,466.7,411.2,461.6,411.2z" />
                <path class="st0" d="M420.5,452.3h-329c-5.1,0-9.3,4.2-9.3,9.3s4.2,9.3,9.3,9.3h329c5.1,0,9.3-4.2,9.3-9.3S425.6,452.3,420.5,452.3
		z" />
                <path class="st0" d="M420.5,41.1h-329c-5.1,0-9.3,4.2-9.3,9.3s4.2,9.3,9.3,9.3h329c5.1,0,9.3-4.2,9.3-9.3S425.6,41.1,420.5,41.1z" />
                <path class="st0" d="M461.6,82.2H50.4c-5.1,0-9.3,4.2-9.3,9.3c0,5.1,4.2,9.3,9.3,9.3h411.2c5.1,0,9.3-4.2,9.3-9.3
		C470.9,86.4,466.7,82.2,461.6,82.2z" />
                <path class="st1" d="M418,277.8c1.9-14.5,1.9-29.1,0-43.6c-0.3-2.5-1.6-4.7-3.5-6.2c-1.6-1.2-3.5-1.9-5.6-1.9c-0.4,0-0.9,0-1.3,0.1
		c-5,0.7-8.6,5.4-7.9,10.4c1.7,12.8,1.7,25.8,0,38.6c-0.3,2.5,0.3,4.9,1.8,6.9s3.7,3.2,6.1,3.6c0.4,0.1,0.8,0.1,1.3,0.1
		C413.5,285.8,417.4,282.4,418,277.8z" />
                <path class="st1" d="M94,277.8c0.6,4.6,4.6,8,9.2,8c0.4,0,0.8,0,1.3-0.1c5.1-0.7,8.6-5.4,8-10.4c-1.7-12.8-1.7-25.8,0-38.6
		c0.7-5.1-2.9-9.8-8-10.4c-0.4,0-0.8-0.1-1.2-0.1c-4.6,0-8.7,3.4-9.3,8C92,248.7,92,263.3,94,277.8z" />
                <path class="st1" d="M358,305.8c1.1,0.4,2.2,0.6,3.4,0.6c3.8,0,7.2-2.3,8.7-5.9c11.2-28.7,11.2-60.3,0-89c-0.9-2.3-2.7-4.1-4.9-5.1
		c-1.2-0.5-2.5-0.8-3.7-0.8c-1.1,0-2.3,0.2-3.4,0.6c-2.3,0.9-4.1,2.6-5.1,4.9c-1,2.3-1,4.8-0.1,7.1c9.5,24.3,9.5,51.1,0,75.5
		c-0.9,2.3-0.9,4.8,0.1,7.1C353.8,303.1,355.6,304.9,358,305.8z" />
                <path class="st1" d="M142,211.5c-11.2,28.7-11.2,60.3,0,89c1.4,3.5,4.9,5.9,8.6,5.9c1.2,0,2.3-0.2,3.3-0.6c4.8-1.9,7.1-7.3,5.3-12
		c-9.5-24.3-9.5-51.1,0-75.5c1.9-4.8-0.5-10.1-5.3-12c-1.1-0.4-2.2-0.6-3.3-0.6C147,205.6,143.4,207.8,142,211.5z" />
                <path class="st1" d="M254.4,293.4c1.2,0.2,2.5,0.2,3.8,0.2c9.7,0,18.3-4.8,22.8-12.9c4.3-7.7,3.5-13.6,2.1-17.1
		c-4-9.7-16.4-13.4-26.4-16.3c-3.6-1.1-6.6-2-8.4-2.8c-3.3-1.6-4.8-4.4-4.8-6.6c0-1.3,0.4-3.5,3.6-5.1c4.3-2.1,12.1-2.7,17.5,0
		c3.7,1.9,4.3,4.4,4.5,5.2c0.4,1.8,1.3,3.2,2.7,4.1c1.4,0.9,3.1,1.2,4.7,0.9c3.4-0.7,5.6-4,4.9-7.4c-1.3-6.1-5.2-11.1-11.2-14
		c-8.3-4.1-20.1-4.2-28.5-0.1c-6.8,3.2-10.8,9.3-10.8,16.3c0,7.5,4.8,14.6,12,18c2.8,1.3,6.4,2.4,10.2,3.5c11.8,3.5,16.4,5.6,18,8.3
		l0.5,0.9v1c0.1,1.7-0.9,3.7-1.7,5.1c-2.7,4.8-7.8,7.1-14.1,6.4c-6-0.7-13.4-4.7-15.3-11.9c-0.7-2.7-3.2-4.6-6.1-4.6
		c-0.5,0-1.1,0.1-1.6,0.2c-1.6,0.4-3,1.5-3.8,2.9c-0.8,1.5-1.1,3.2-0.6,4.8C231.5,283.4,241.9,291.8,254.4,293.4z" />
                <path class="st1" d="M256,280.7c-3.5,0-6.3,2.8-6.3,6.3v13c0,3.5,2.8,6.3,6.3,6.3s6.3-2.8,6.3-6.3v-13
		C262.3,283.5,259.5,280.7,256,280.7z" />
                <path class="st1" d="M256,205.7c-3.5,0-6.3,2.8-6.3,6.3v13c0,3.5,2.8,6.3,6.3,6.3s6.3-2.8,6.3-6.3v-13
		C262.3,208.6,259.5,205.7,256,205.7z" />
                <path class="st1" d="M256,174.8c-44,0-81.2,37.2-81.2,81.2s37.2,81.2,81.2,81.2s81.2-37.2,81.2-81.2S300,174.8,256,174.8z
		 M256,318.7c-34,0-62.7-28.7-62.7-62.7s28.7-62.7,62.7-62.7s62.7,28.7,62.7,62.7S290,318.7,256,318.7z" />
            </g>
        </symbol>


        <symbol id="test" viewBox="0 0 512 512">
            <path d="M1 3v14h18l-4-3V6l4-3z"></path>
            <path d="M19 2H1a1 1 0 0 0-1 1v14a1 1 0 0 0 1 1h18a1 1 0 0 0 1-1V3a1 1 0 0 0-1-1zM9 12H5a1 1 0 1 0 0 2h4a1 1 0 1 0 0-2m-4-2h2a1 1 0 1 0 0-2H5a1 1 0 1 0 0 2M2 4h14.001L14.4 5.2a1 1 0 0 0-.4.8v8a1 1 0 0 0 .4.8l1.601 1.2H2V4zm14 9.5v-7L18 5v10l-2-1.5z"></path>
        </symbol>


        <symbol id="test" viewBox="0 0 20 20">
            <path d="M1 3v14h18l-4-3V6l4-3z"></path>
            <path d="M19 2H1a1 1 0 0 0-1 1v14a1 1 0 0 0 1 1h18a1 1 0 0 0 1-1V3a1 1 0 0 0-1-1zM9 12H5a1 1 0 1 0 0 2h4a1 1 0 1 0 0-2m-4-2h2a1 1 0 1 0 0-2H5a1 1 0 1 0 0 2M2 4h14.001L14.4 5.2a1 1 0 0 0-.4.8v8a1 1 0 0 0 .4.8l1.601 1.2H2V4zm14 9.5v-7L18 5v10l-2-1.5z"></path>
        </symbol>


        <symbol id="test" viewBox="0 0 20 20">
            <path d="M1 3v14h18l-4-3V6l4-3z"></path>
            <path d="M19 2H1a1 1 0 0 0-1 1v14a1 1 0 0 0 1 1h18a1 1 0 0 0 1-1V3a1 1 0 0 0-1-1zM9 12H5a1 1 0 1 0 0 2h4a1 1 0 1 0 0-2m-4-2h2a1 1 0 1 0 0-2H5a1 1 0 1 0 0 2M2 4h14.001L14.4 5.2a1 1 0 0 0-.4.8v8a1 1 0 0 0 .4.8l1.601 1.2H2V4zm14 9.5v-7L18 5v10l-2-1.5z"></path>
        </symbol>


        <symbol id="test" viewBox="0 0 20 20">
            <path d="M1 3v14h18l-4-3V6l4-3z"></path>
            <path d="M19 2H1a1 1 0 0 0-1 1v14a1 1 0 0 0 1 1h18a1 1 0 0 0 1-1V3a1 1 0 0 0-1-1zM9 12H5a1 1 0 1 0 0 2h4a1 1 0 1 0 0-2m-4-2h2a1 1 0 1 0 0-2H5a1 1 0 1 0 0 2M2 4h14.001L14.4 5.2a1 1 0 0 0-.4.8v8a1 1 0 0 0 .4.8l1.601 1.2H2V4zm14 9.5v-7L18 5v10l-2-1.5z"></path>
        </symbol>


        <symbol id="test" viewBox="0 0 20 20">
            <path d="M1 3v14h18l-4-3V6l4-3z"></path>
            <path d="M19 2H1a1 1 0 0 0-1 1v14a1 1 0 0 0 1 1h18a1 1 0 0 0 1-1V3a1 1 0 0 0-1-1zM9 12H5a1 1 0 1 0 0 2h4a1 1 0 1 0 0-2m-4-2h2a1 1 0 1 0 0-2H5a1 1 0 1 0 0 2M2 4h14.001L14.4 5.2a1 1 0 0 0-.4.8v8a1 1 0 0 0 .4.8l1.601 1.2H2V4zm14 9.5v-7L18 5v10l-2-1.5z"></path>
        </symbol>
        <symbol id="tick" viewBox="0 0 24 24">
            <path d="M12 2c5.514 0 10 4.486 10 10s-4.486 10-10 10-10-4.486-10-10 4.486-10 10-10zm0-2c-6.627 0-12 5.373-12 12s5.373 12 12 12 12-5.373 12-12-5.373-12-12-12zm6.25 8.891l-1.421-1.409-6.105 6.218-3.078-2.937-1.396 1.436 4.5 4.319 7.5-7.627z" />
        </symbol>

    </defs>

</svg>